%TF.GenerationSoftware,KiCad,Pcbnew,10.0.3-2.fc44*%
%TF.CreationDate,2026-06-13T07:30:53-07:00*%
%TF.ProjectId,pepekey_r,70657065-6b65-4795-9f72-2e6b69636164,1*%
%TF.SameCoordinates,Original*%
%TF.FileFunction,Copper,L1,Top*%
%TF.FilePolarity,Positive*%
%FSLAX46Y46*%
G04 Gerber Fmt 4.6, Leading zero omitted, Abs format (unit mm)*
G04 Created by KiCad (PCBNEW 10.0.3-2.fc44) date 2026-06-13 07:30:53*
%MOMM*%
%LPD*%
G01*
G04 APERTURE LIST*
G04 Aperture macros list*
%AMRoundRect*
0 Rectangle with rounded corners*
0 $1 Rounding radius*
0 $2 $3 $4 $5 $6 $7 $8 $9 X,Y pos of 4 corners*
0 Add a 4 corners polygon primitive as box body*
4,1,4,$2,$3,$4,$5,$6,$7,$8,$9,$2,$3,0*
0 Add four circle primitives for the rounded corners*
1,1,$1+$1,$2,$3*
1,1,$1+$1,$4,$5*
1,1,$1+$1,$6,$7*
1,1,$1+$1,$8,$9*
0 Add four rect primitives between the rounded corners*
20,1,$1+$1,$2,$3,$4,$5,0*
20,1,$1+$1,$4,$5,$6,$7,0*
20,1,$1+$1,$6,$7,$8,$9,0*
20,1,$1+$1,$8,$9,$2,$3,0*%
G04 Aperture macros list end*
%TA.AperFunction,ComponentPad*%
%ADD10RoundRect,0.240000X0.635000X-0.360000X0.635000X0.360000X-0.635000X0.360000X-0.635000X-0.360000X0*%
%TD*%
%TA.AperFunction,ComponentPad*%
%ADD11O,1.750000X1.200000*%
%TD*%
%TA.AperFunction,SMDPad,CuDef*%
%ADD12R,1.000000X1.550000*%
%TD*%
%TA.AperFunction,SMDPad,CuDef*%
%ADD13R,0.800000X1.000000*%
%TD*%
%TA.AperFunction,SMDPad,CuDef*%
%ADD14R,1.500000X0.700000*%
%TD*%
%TA.AperFunction,ComponentPad*%
%ADD15C,1.700000*%
%TD*%
%TA.AperFunction,ViaPad*%
%ADD16C,0.600000*%
%TD*%
%TA.AperFunction,Conductor*%
%ADD17C,0.200000*%
%TD*%
%TA.AperFunction,Conductor*%
%ADD18C,0.150000*%
%TD*%
G04 APERTURE END LIST*
D10*
%TO.P,JST1,1*%
%TO.N,GND*%
X261800000Y-85675000D03*
D11*
%TO.P,JST1,2*%
%TO.N,BAT_P*%
X261800000Y-83675000D03*
%TD*%
D12*
%TO.P,RST1,1*%
%TO.N,GND*%
X255300000Y-56000000D03*
%TO.P,RST1,2*%
%TO.N,RST*%
X257000000Y-56000000D03*
%TO.P,RST1,3*%
%TO.N,GND*%
X255300000Y-61250000D03*
%TO.P,RST1,4*%
%TO.N,RST*%
X257000000Y-61250000D03*
%TD*%
D13*
%TO.P,PWR1,*%
%TO.N,*%
X257235000Y-86850000D03*
X257235000Y-79550000D03*
X255025000Y-86850000D03*
X255025000Y-79550000D03*
D14*
%TO.P,PWR1,1*%
%TO.N,BAT_P*%
X257885000Y-80950000D03*
%TO.P,PWR1,2*%
%TO.N,RAW*%
X257885000Y-83950000D03*
%TO.P,PWR1,3*%
%TO.N,N/C*%
X257885000Y-85450000D03*
%TD*%
D15*
%TO.P,MCU1,1*%
%TO.N,RAW*%
X275920000Y-47925000D03*
%TO.P,MCU1,2*%
%TO.N,GND*%
X275920000Y-50465000D03*
%TO.P,MCU1,3*%
%TO.N,RST*%
X275920000Y-53005000D03*
%TO.P,MCU1,4*%
%TO.N,VCC*%
X275920000Y-55545000D03*
%TO.P,MCU1,5*%
%TO.N,P031*%
X275920000Y-58085000D03*
%TO.P,MCU1,6*%
%TO.N,P029*%
X275920000Y-60625000D03*
%TO.P,MCU1,7*%
%TO.N,P002*%
X275920000Y-63165000D03*
%TO.P,MCU1,8*%
%TO.N,P115*%
X275920000Y-65705000D03*
%TO.P,MCU1,9*%
%TO.N,P113*%
X275920000Y-68245000D03*
%TO.P,MCU1,10*%
%TO.N,P111*%
X275920000Y-70785000D03*
%TO.P,MCU1,11*%
%TO.N,P010*%
X275920000Y-73325000D03*
%TO.P,MCU1,12*%
%TO.N,P009*%
X275920000Y-75865000D03*
%TO.P,MCU1,13*%
%TO.N,P106*%
X260680000Y-75865000D03*
%TO.P,MCU1,14*%
%TO.N,P104*%
X260680000Y-73325000D03*
%TO.P,MCU1,15*%
%TO.N,P011*%
X260680000Y-70785000D03*
%TO.P,MCU1,16*%
%TO.N,P100*%
X260680000Y-68245000D03*
%TO.P,MCU1,17*%
%TO.N,P024*%
X260680000Y-65705000D03*
%TO.P,MCU1,18*%
%TO.N,P022*%
X260680000Y-63165000D03*
%TO.P,MCU1,19*%
%TO.N,P020*%
X260680000Y-60625000D03*
%TO.P,MCU1,20*%
%TO.N,P017*%
X260680000Y-58085000D03*
%TO.P,MCU1,21*%
%TO.N,GND*%
X260680000Y-55545000D03*
%TO.P,MCU1,22*%
X260680000Y-53005000D03*
%TO.P,MCU1,23*%
%TO.N,P008*%
X260680000Y-50465000D03*
%TO.P,MCU1,24*%
%TO.N,P006*%
X260680000Y-47925000D03*
%TD*%
D16*
%TO.N,RAW*%
X259146000Y-83950000D03*
%TO.N,P031*%
X323305300Y-112007000D03*
X310254100Y-112007000D03*
X292450000Y-112007000D03*
%TO.N,P029*%
X349450000Y-90647100D03*
X311450000Y-93949800D03*
X330450000Y-93949800D03*
X291477400Y-93949800D03*
X368450000Y-104897900D03*
%TO.N,P002*%
X325634200Y-73870000D03*
X311450000Y-73870000D03*
X296442300Y-71780600D03*
X349450000Y-73859000D03*
X368450000Y-85888800D03*
X296239000Y-73542900D03*
%TO.N,P115*%
X311450000Y-54855600D03*
X368450000Y-66881900D03*
X299017000Y-54855600D03*
X349450000Y-54855600D03*
X287633800Y-65705000D03*
%TO.N,P106*%
X287015000Y-76081200D03*
%TO.N,P011*%
X306015000Y-74331100D03*
%TO.N,P100*%
X325015000Y-67146900D03*
%TO.N,P024*%
X344015000Y-67598000D03*
%TO.N,P022*%
X363016300Y-62569400D03*
%TO.N,P008*%
X381365800Y-53726700D03*
%TD*%
%TO.N,GND*%
D17*
X260680000Y-53005000D02*
X263220000Y-50465000D01*
X255300000Y-56000000D02*
X255300000Y-61250000D01*
X255300000Y-56000000D02*
X255300000Y-54923300D01*
D18*
X259529800Y-54924800D02*
X256199800Y-54924800D01*
D17*
X256199800Y-54924800D02*
X256198300Y-54923300D01*
X263220000Y-50465000D02*
X275920000Y-50465000D01*
X260150000Y-55545000D02*
X259529800Y-54924800D01*
X260680000Y-55545000D02*
X260150000Y-55545000D01*
X256198300Y-54923300D02*
X255300000Y-54923300D01*
%TO.N,BAT_P*%
X257885000Y-80950000D02*
X258936700Y-80950000D01*
X261800000Y-83675000D02*
X261800000Y-82773300D01*
X261800000Y-82773300D02*
X260760000Y-82773300D01*
X260760000Y-82773300D02*
X258936700Y-80950000D01*
%TO.N,RST*%
X257000000Y-56000000D02*
X257000000Y-57076700D01*
X257801700Y-57076700D02*
X257000000Y-57076700D01*
X257000000Y-61250000D02*
X257000000Y-57076700D01*
X258165300Y-56713100D02*
X257801700Y-57076700D01*
X272211900Y-56713100D02*
X258165300Y-56713100D01*
X275920000Y-53005000D02*
X272211900Y-56713100D01*
%TO.N,RAW*%
X257885000Y-83950000D02*
X258936700Y-83950000D01*
X258936700Y-83950000D02*
X259146000Y-83950000D01*
%TO.N,P031*%
X292450000Y-112007000D02*
X310254100Y-112007000D01*
X310254100Y-112007000D02*
X323305300Y-112007000D01*
%TO.N,P029*%
X311450000Y-93949800D02*
X330450000Y-93949800D01*
X333752700Y-90647100D02*
X349450000Y-90647100D01*
X330450000Y-93949800D02*
X333752700Y-90647100D01*
X363700800Y-104897900D02*
X368450000Y-104897900D01*
X349450000Y-90647100D02*
X363700800Y-104897900D01*
X291477400Y-93949800D02*
X311450000Y-93949800D01*
%TO.N,P002*%
X325645200Y-73859000D02*
X349450000Y-73859000D01*
X325634200Y-73870000D02*
X325645200Y-73859000D01*
X275920000Y-63165000D02*
X290893500Y-63165000D01*
X349450000Y-73859000D02*
X361479800Y-85888800D01*
X296701700Y-68973200D02*
X296701700Y-71521200D01*
X296239000Y-73542900D02*
X311122900Y-73542900D01*
X361479800Y-85888800D02*
X368450000Y-85888800D01*
X311122900Y-73542900D02*
X311450000Y-73870000D01*
X290893500Y-63165000D02*
X296701700Y-68973200D01*
X296701700Y-71521200D02*
X296442300Y-71780600D01*
X311450000Y-73870000D02*
X325634200Y-73870000D01*
%TO.N,P115*%
X311450000Y-54855600D02*
X349450000Y-54855600D01*
X368450000Y-66881900D02*
X361476300Y-66881900D01*
X361476300Y-66881900D02*
X349450000Y-54855600D01*
X275920000Y-65705000D02*
X287633800Y-65705000D01*
X311450000Y-54855600D02*
X299017000Y-54855600D01*
%TO.N,P106*%
X261846300Y-77031300D02*
X286064900Y-77031300D01*
X286064900Y-77031300D02*
X287015000Y-76081200D01*
X260680000Y-75865000D02*
X261846300Y-77031300D01*
%TO.N,P011*%
X262058200Y-72163200D02*
X287657600Y-72163200D01*
X289825500Y-74331100D02*
X306015000Y-74331100D01*
X260680000Y-70785000D02*
X262058200Y-72163200D01*
X287657600Y-72163200D02*
X289825500Y-74331100D01*
%TO.N,P100*%
X319407100Y-72754800D02*
X325015000Y-67146900D01*
X261950000Y-69515000D02*
X286286300Y-69515000D01*
X260680000Y-68245000D02*
X261950000Y-69515000D01*
X286286300Y-69515000D02*
X289526100Y-72754800D01*
X289526100Y-72754800D02*
X319407100Y-72754800D01*
%TO.N,P024*%
X311026500Y-61999300D02*
X314165800Y-65138600D01*
X314165800Y-65138600D02*
X329846400Y-65138600D01*
X260680000Y-65705000D02*
X264385700Y-61999300D01*
X329846400Y-65138600D02*
X332305800Y-67598000D01*
X332305800Y-67598000D02*
X344015000Y-67598000D01*
X264385700Y-61999300D02*
X311026500Y-61999300D01*
%TO.N,P022*%
X264490000Y-59355000D02*
X287823700Y-59355000D01*
X287823700Y-59355000D02*
X292952900Y-54225800D01*
X351098200Y-54225800D02*
X359441800Y-62569400D01*
X260680000Y-63165000D02*
X264490000Y-59355000D01*
X359441800Y-62569400D02*
X363016300Y-62569400D01*
X292952900Y-54225800D02*
X351098200Y-54225800D01*
%TO.N,P008*%
X260680000Y-50465000D02*
X261870600Y-49274400D01*
X282356800Y-49274400D02*
X286809100Y-53726700D01*
X261870600Y-49274400D02*
X282356800Y-49274400D01*
X286809100Y-53726700D02*
X381365800Y-53726700D01*
%TD*%
M02*
