%TF.GenerationSoftware,KiCad,Pcbnew,10.0.3-2.fc44*%
%TF.CreationDate,2026-06-13T07:30:53-07:00*%
%TF.ProjectId,pepekey_r,70657065-6b65-4795-9f72-2e6b69636164,1*%
%TF.SameCoordinates,Original*%
%TF.FileFunction,Legend,Bot*%
%TF.FilePolarity,Positive*%
%FSLAX46Y46*%
G04 Gerber Fmt 4.6, Leading zero omitted, Abs format (unit mm)*
G04 Created by KiCad (PCBNEW 10.0.3-2.fc44) date 2026-06-13 07:30:53*
%MOMM*%
%LPD*%
G01*
G04 APERTURE LIST*
G04 Aperture macros list*
%AMRoundRect*
0 Rectangle with rounded corners*
0 $1 Rounding radius*
0 $2 $3 $4 $5 $6 $7 $8 $9 X,Y pos of 4 corners*
0 Add a 4 corners polygon primitive as box body*
4,1,4,$2,$3,$4,$5,$6,$7,$8,$9,$2,$3,0*
0 Add four circle primitives for the rounded corners*
1,1,$1+$1,$2,$3*
1,1,$1+$1,$4,$5*
1,1,$1+$1,$6,$7*
1,1,$1+$1,$8,$9*
0 Add four rect primitives between the rounded corners*
20,1,$1+$1,$2,$3,$4,$5,0*
20,1,$1+$1,$4,$5,$6,$7,0*
20,1,$1+$1,$6,$7,$8,$9,0*
20,1,$1+$1,$8,$9,$2,$3,0*%
G04 Aperture macros list end*
%ADD10C,0.400000*%
%ADD11C,0.100000*%
%ADD12RoundRect,0.260000X0.665000X-0.390000X0.665000X0.390000X-0.665000X0.390000X-0.665000X-0.390000X0*%
%ADD13O,1.850000X1.300000*%
%ADD14C,2.300000*%
%ADD15C,1.000000*%
%ADD16C,1.800000*%
%ADD17C,2.000000*%
%ADD18C,3.100000*%
%ADD19C,4.200000*%
%ADD20RoundRect,0.050000X-1.275000X-1.250000X1.275000X-1.250000X1.275000X1.250000X-1.275000X1.250000X0*%
%ADD21RoundRect,0.050000X-0.450000X-0.600000X0.450000X-0.600000X0.450000X0.600000X-0.450000X0.600000X0*%
%ADD22RoundRect,0.050000X-0.338975X-0.669026X0.547352X-0.512743X0.338975X0.669026X-0.547352X0.512743X0*%
%ADD23RoundRect,0.050000X-0.479182X-1.720032X1.729182X-0.445032X0.479182X1.720032X-1.729182X0.445032X0*%
%ADD24RoundRect,0.050000X-0.217650X-0.717725X0.628074X-0.409907X0.217650X0.717725X-0.628074X0.409907X0*%
%ADD25RoundRect,0.050000X-0.770583X-1.610691X1.625633X-0.738540X0.770583X1.610691X-1.625633X0.738540X0*%
%ADD26RoundRect,0.050000X-1.038570X-1.452411X1.472690X-1.009608X1.038570X1.452411X-1.472690X1.009608X0*%
%ADD27RoundRect,0.050000X-0.089711X-0.744615X0.689711X-0.294615X0.089711X0.744615X-0.689711X0.294615X0*%
G04 APERTURE END LIST*
D10*
%TO.C,S22*%
X290500000Y-82625000D02*
X290300000Y-82625000D01*
X290000000Y-82675000D01*
X289700000Y-82775000D01*
X289500000Y-82875000D01*
X289350000Y-82975000D01*
X289150000Y-83125000D01*
X289000000Y-83275000D01*
X288850000Y-83475000D01*
X288700000Y-83725000D01*
X288600000Y-84125000D01*
X288600000Y-84525000D01*
X288750000Y-84625000D01*
X288900000Y-84725000D01*
X289350000Y-84475000D01*
X289600000Y-84375000D01*
X290050000Y-84275000D01*
X290550000Y-84275000D01*
X291150000Y-84425000D01*
X291650000Y-84725000D01*
X291950000Y-84975000D01*
X292350000Y-85525000D01*
X292550000Y-86075000D01*
X292600000Y-86525000D01*
X292850000Y-86325000D01*
X293200000Y-86225000D01*
X293700000Y-86175000D01*
X295750000Y-86175000D01*
X295300000Y-85925000D01*
X295050000Y-85725000D01*
X294750000Y-85375000D01*
X294600000Y-85125000D01*
X294450000Y-84775000D01*
X294350000Y-84375000D01*
X294350000Y-84075000D01*
X294350000Y-83725000D01*
X294400000Y-83475000D01*
X294550000Y-83075000D01*
X294850000Y-82625000D01*
X290500000Y-82625000D01*
G36*
X294550000Y-83075000D02*
G01*
X294400000Y-83475000D01*
X294350000Y-83725000D01*
X294350000Y-84075000D01*
X294350000Y-84375000D01*
X294450000Y-84775000D01*
X294600000Y-85125000D01*
X294750000Y-85375000D01*
X295050000Y-85725000D01*
X295300000Y-85925000D01*
X295750000Y-86175000D01*
X293700000Y-86175000D01*
X293200000Y-86225000D01*
X292850000Y-86325000D01*
X292600000Y-86525000D01*
X292550000Y-86075000D01*
X292350000Y-85525000D01*
X291950000Y-84975000D01*
X291650000Y-84725000D01*
X291150000Y-84425000D01*
X290550000Y-84275000D01*
X290050000Y-84275000D01*
X289600000Y-84375000D01*
X289350000Y-84475000D01*
X288900000Y-84725000D01*
X288750000Y-84625000D01*
X288600000Y-84525000D01*
X288600000Y-84125000D01*
X288700000Y-83725000D01*
X288850000Y-83475000D01*
X289000000Y-83275000D01*
X289150000Y-83125000D01*
X289350000Y-82975000D01*
X289500000Y-82875000D01*
X289700000Y-82775000D01*
X290000000Y-82675000D01*
X290300000Y-82625000D01*
X290500000Y-82625000D01*
X294850000Y-82625000D01*
X294550000Y-83075000D01*
G37*
%TO.C,D18*%
D11*
X312350000Y-91750000D02*
X312750000Y-91750000D01*
X312750000Y-91750000D02*
X312750000Y-91200000D01*
X312750000Y-91750000D02*
X312750000Y-92300000D01*
X312750000Y-91750000D02*
X313350000Y-91350000D01*
X313350000Y-91350000D02*
X313350000Y-92150000D01*
X313350000Y-91750000D02*
X313850000Y-91750000D01*
X313350000Y-92150000D02*
X312750000Y-91750000D01*
%TO.C,D23*%
X293350000Y-75125000D02*
X293750000Y-75125000D01*
X293750000Y-75125000D02*
X293750000Y-74575000D01*
X293750000Y-75125000D02*
X293750000Y-75675000D01*
X293750000Y-75125000D02*
X294350000Y-74725000D01*
X294350000Y-74725000D02*
X294350000Y-75525000D01*
X294350000Y-75125000D02*
X294850000Y-75125000D01*
X294350000Y-75525000D02*
X293750000Y-75125000D01*
D10*
%TO.C,S11*%
X347500000Y-61250000D02*
X347300000Y-61250000D01*
X347000000Y-61300000D01*
X346700000Y-61400000D01*
X346500000Y-61500000D01*
X346350000Y-61600000D01*
X346150000Y-61750000D01*
X346000000Y-61900000D01*
X345850000Y-62100000D01*
X345700000Y-62350000D01*
X345600000Y-62750000D01*
X345600000Y-63150000D01*
X345750000Y-63250000D01*
X345900000Y-63350000D01*
X346350000Y-63100000D01*
X346600000Y-63000000D01*
X347050000Y-62900000D01*
X347550000Y-62900000D01*
X348150000Y-63050000D01*
X348650000Y-63350000D01*
X348950000Y-63600000D01*
X349350000Y-64150000D01*
X349550000Y-64700000D01*
X349600000Y-65150000D01*
X349850000Y-64950000D01*
X350200000Y-64850000D01*
X350700000Y-64800000D01*
X352750000Y-64800000D01*
X352300000Y-64550000D01*
X352050000Y-64350000D01*
X351750000Y-64000000D01*
X351600000Y-63750000D01*
X351450000Y-63400000D01*
X351350000Y-63000000D01*
X351350000Y-62700000D01*
X351350000Y-62350000D01*
X351400000Y-62100000D01*
X351550000Y-61700000D01*
X351850000Y-61250000D01*
X347500000Y-61250000D01*
G36*
X351550000Y-61700000D02*
G01*
X351400000Y-62100000D01*
X351350000Y-62350000D01*
X351350000Y-62700000D01*
X351350000Y-63000000D01*
X351450000Y-63400000D01*
X351600000Y-63750000D01*
X351750000Y-64000000D01*
X352050000Y-64350000D01*
X352300000Y-64550000D01*
X352750000Y-64800000D01*
X350700000Y-64800000D01*
X350200000Y-64850000D01*
X349850000Y-64950000D01*
X349600000Y-65150000D01*
X349550000Y-64700000D01*
X349350000Y-64150000D01*
X348950000Y-63600000D01*
X348650000Y-63350000D01*
X348150000Y-63050000D01*
X347550000Y-62900000D01*
X347050000Y-62900000D01*
X346600000Y-63000000D01*
X346350000Y-63100000D01*
X345900000Y-63350000D01*
X345750000Y-63250000D01*
X345600000Y-63150000D01*
X345600000Y-62750000D01*
X345700000Y-62350000D01*
X345850000Y-62100000D01*
X346000000Y-61900000D01*
X346150000Y-61750000D01*
X346350000Y-61600000D01*
X346500000Y-61500000D01*
X346700000Y-61400000D01*
X347000000Y-61300000D01*
X347300000Y-61250000D01*
X347500000Y-61250000D01*
X351850000Y-61250000D01*
X351550000Y-61700000D01*
G37*
%TO.C,S12*%
X347500000Y-42250000D02*
X347300000Y-42250000D01*
X347000000Y-42300000D01*
X346700000Y-42400000D01*
X346500000Y-42500000D01*
X346350000Y-42600000D01*
X346150000Y-42750000D01*
X346000000Y-42900000D01*
X345850000Y-43100000D01*
X345700000Y-43350000D01*
X345600000Y-43750000D01*
X345600000Y-44150000D01*
X345750000Y-44250000D01*
X345900000Y-44350000D01*
X346350000Y-44100000D01*
X346600000Y-44000000D01*
X347050000Y-43900000D01*
X347550000Y-43900000D01*
X348150000Y-44050000D01*
X348650000Y-44350000D01*
X348950000Y-44600000D01*
X349350000Y-45150000D01*
X349550000Y-45700000D01*
X349600000Y-46150000D01*
X349850000Y-45950000D01*
X350200000Y-45850000D01*
X350700000Y-45800000D01*
X352750000Y-45800000D01*
X352300000Y-45550000D01*
X352050000Y-45350000D01*
X351750000Y-45000000D01*
X351600000Y-44750000D01*
X351450000Y-44400000D01*
X351350000Y-44000000D01*
X351350000Y-43700000D01*
X351350000Y-43350000D01*
X351400000Y-43100000D01*
X351550000Y-42700000D01*
X351850000Y-42250000D01*
X347500000Y-42250000D01*
G36*
X351550000Y-42700000D02*
G01*
X351400000Y-43100000D01*
X351350000Y-43350000D01*
X351350000Y-43700000D01*
X351350000Y-44000000D01*
X351450000Y-44400000D01*
X351600000Y-44750000D01*
X351750000Y-45000000D01*
X352050000Y-45350000D01*
X352300000Y-45550000D01*
X352750000Y-45800000D01*
X350700000Y-45800000D01*
X350200000Y-45850000D01*
X349850000Y-45950000D01*
X349600000Y-46150000D01*
X349550000Y-45700000D01*
X349350000Y-45150000D01*
X348950000Y-44600000D01*
X348650000Y-44350000D01*
X348150000Y-44050000D01*
X347550000Y-43900000D01*
X347050000Y-43900000D01*
X346600000Y-44000000D01*
X346350000Y-44100000D01*
X345900000Y-44350000D01*
X345750000Y-44250000D01*
X345600000Y-44150000D01*
X345600000Y-43750000D01*
X345700000Y-43350000D01*
X345850000Y-43100000D01*
X346000000Y-42900000D01*
X346150000Y-42750000D01*
X346350000Y-42600000D01*
X346500000Y-42500000D01*
X346700000Y-42400000D01*
X347000000Y-42300000D01*
X347300000Y-42250000D01*
X347500000Y-42250000D01*
X351850000Y-42250000D01*
X351550000Y-42700000D01*
G37*
%TO.C,D24*%
D11*
X293350000Y-56125000D02*
X293750000Y-56125000D01*
X293750000Y-56125000D02*
X293750000Y-55575000D01*
X293750000Y-56125000D02*
X293750000Y-56675000D01*
X293750000Y-56125000D02*
X294350000Y-55725000D01*
X294350000Y-55725000D02*
X294350000Y-56525000D01*
X294350000Y-56125000D02*
X294850000Y-56125000D01*
X294350000Y-56525000D02*
X293750000Y-56125000D01*
D10*
%TO.C,S3*%
X385500000Y-75500000D02*
X385300000Y-75500000D01*
X385000000Y-75550000D01*
X384700000Y-75650000D01*
X384500000Y-75750000D01*
X384350000Y-75850000D01*
X384150000Y-76000000D01*
X384000000Y-76150000D01*
X383850000Y-76350000D01*
X383700000Y-76600000D01*
X383600000Y-77000000D01*
X383600000Y-77400000D01*
X383750000Y-77500000D01*
X383900000Y-77600000D01*
X384350000Y-77350000D01*
X384600000Y-77250000D01*
X385050000Y-77150000D01*
X385550000Y-77150000D01*
X386150000Y-77300000D01*
X386650000Y-77600000D01*
X386950000Y-77850000D01*
X387350000Y-78400000D01*
X387550000Y-78950000D01*
X387600000Y-79400000D01*
X387850000Y-79200000D01*
X388200000Y-79100000D01*
X388700000Y-79050000D01*
X390750000Y-79050000D01*
X390300000Y-78800000D01*
X390050000Y-78600000D01*
X389750000Y-78250000D01*
X389600000Y-78000000D01*
X389450000Y-77650000D01*
X389350000Y-77250000D01*
X389350000Y-76950000D01*
X389350000Y-76600000D01*
X389400000Y-76350000D01*
X389550000Y-75950000D01*
X389850000Y-75500000D01*
X385500000Y-75500000D01*
G36*
X389550000Y-75950000D02*
G01*
X389400000Y-76350000D01*
X389350000Y-76600000D01*
X389350000Y-76950000D01*
X389350000Y-77250000D01*
X389450000Y-77650000D01*
X389600000Y-78000000D01*
X389750000Y-78250000D01*
X390050000Y-78600000D01*
X390300000Y-78800000D01*
X390750000Y-79050000D01*
X388700000Y-79050000D01*
X388200000Y-79100000D01*
X387850000Y-79200000D01*
X387600000Y-79400000D01*
X387550000Y-78950000D01*
X387350000Y-78400000D01*
X386950000Y-77850000D01*
X386650000Y-77600000D01*
X386150000Y-77300000D01*
X385550000Y-77150000D01*
X385050000Y-77150000D01*
X384600000Y-77250000D01*
X384350000Y-77350000D01*
X383900000Y-77600000D01*
X383750000Y-77500000D01*
X383600000Y-77400000D01*
X383600000Y-77000000D01*
X383700000Y-76600000D01*
X383850000Y-76350000D01*
X384000000Y-76150000D01*
X384150000Y-76000000D01*
X384350000Y-75850000D01*
X384500000Y-75750000D01*
X384700000Y-75650000D01*
X385000000Y-75550000D01*
X385300000Y-75500000D01*
X385500000Y-75500000D01*
X389850000Y-75500000D01*
X389550000Y-75950000D01*
G37*
%TO.C,D21*%
D11*
X293350000Y-113125000D02*
X293750000Y-113125000D01*
X293750000Y-113125000D02*
X293750000Y-112575000D01*
X293750000Y-113125000D02*
X293750000Y-113675000D01*
X293750000Y-113125000D02*
X294350000Y-112725000D01*
X294350000Y-112725000D02*
X294350000Y-113525000D01*
X294350000Y-113125000D02*
X294850000Y-113125000D01*
X294350000Y-113525000D02*
X293750000Y-113125000D01*
D10*
%TO.C,S7*%
X366500000Y-75500000D02*
X366300000Y-75500000D01*
X366000000Y-75550000D01*
X365700000Y-75650000D01*
X365500000Y-75750000D01*
X365350000Y-75850000D01*
X365150000Y-76000000D01*
X365000000Y-76150000D01*
X364850000Y-76350000D01*
X364700000Y-76600000D01*
X364600000Y-77000000D01*
X364600000Y-77400000D01*
X364750000Y-77500000D01*
X364900000Y-77600000D01*
X365350000Y-77350000D01*
X365600000Y-77250000D01*
X366050000Y-77150000D01*
X366550000Y-77150000D01*
X367150000Y-77300000D01*
X367650000Y-77600000D01*
X367950000Y-77850000D01*
X368350000Y-78400000D01*
X368550000Y-78950000D01*
X368600000Y-79400000D01*
X368850000Y-79200000D01*
X369200000Y-79100000D01*
X369700000Y-79050000D01*
X371750000Y-79050000D01*
X371300000Y-78800000D01*
X371050000Y-78600000D01*
X370750000Y-78250000D01*
X370600000Y-78000000D01*
X370450000Y-77650000D01*
X370350000Y-77250000D01*
X370350000Y-76950000D01*
X370350000Y-76600000D01*
X370400000Y-76350000D01*
X370550000Y-75950000D01*
X370850000Y-75500000D01*
X366500000Y-75500000D01*
G36*
X370550000Y-75950000D02*
G01*
X370400000Y-76350000D01*
X370350000Y-76600000D01*
X370350000Y-76950000D01*
X370350000Y-77250000D01*
X370450000Y-77650000D01*
X370600000Y-78000000D01*
X370750000Y-78250000D01*
X371050000Y-78600000D01*
X371300000Y-78800000D01*
X371750000Y-79050000D01*
X369700000Y-79050000D01*
X369200000Y-79100000D01*
X368850000Y-79200000D01*
X368600000Y-79400000D01*
X368550000Y-78950000D01*
X368350000Y-78400000D01*
X367950000Y-77850000D01*
X367650000Y-77600000D01*
X367150000Y-77300000D01*
X366550000Y-77150000D01*
X366050000Y-77150000D01*
X365600000Y-77250000D01*
X365350000Y-77350000D01*
X364900000Y-77600000D01*
X364750000Y-77500000D01*
X364600000Y-77400000D01*
X364600000Y-77000000D01*
X364700000Y-76600000D01*
X364850000Y-76350000D01*
X365000000Y-76150000D01*
X365150000Y-76000000D01*
X365350000Y-75850000D01*
X365500000Y-75750000D01*
X365700000Y-75650000D01*
X366000000Y-75550000D01*
X366300000Y-75500000D01*
X366500000Y-75500000D01*
X370850000Y-75500000D01*
X370550000Y-75950000D01*
G37*
%TO.C,S15*%
X328500000Y-56500000D02*
X328300000Y-56500000D01*
X328000000Y-56550000D01*
X327700000Y-56650000D01*
X327500000Y-56750000D01*
X327350000Y-56850000D01*
X327150000Y-57000000D01*
X327000000Y-57150000D01*
X326850000Y-57350000D01*
X326700000Y-57600000D01*
X326600000Y-58000000D01*
X326600000Y-58400000D01*
X326750000Y-58500000D01*
X326900000Y-58600000D01*
X327350000Y-58350000D01*
X327600000Y-58250000D01*
X328050000Y-58150000D01*
X328550000Y-58150000D01*
X329150000Y-58300000D01*
X329650000Y-58600000D01*
X329950000Y-58850000D01*
X330350000Y-59400000D01*
X330550000Y-59950000D01*
X330600000Y-60400000D01*
X330850000Y-60200000D01*
X331200000Y-60100000D01*
X331700000Y-60050000D01*
X333750000Y-60050000D01*
X333300000Y-59800000D01*
X333050000Y-59600000D01*
X332750000Y-59250000D01*
X332600000Y-59000000D01*
X332450000Y-58650000D01*
X332350000Y-58250000D01*
X332350000Y-57950000D01*
X332350000Y-57600000D01*
X332400000Y-57350000D01*
X332550000Y-56950000D01*
X332850000Y-56500000D01*
X328500000Y-56500000D01*
G36*
X332550000Y-56950000D02*
G01*
X332400000Y-57350000D01*
X332350000Y-57600000D01*
X332350000Y-57950000D01*
X332350000Y-58250000D01*
X332450000Y-58650000D01*
X332600000Y-59000000D01*
X332750000Y-59250000D01*
X333050000Y-59600000D01*
X333300000Y-59800000D01*
X333750000Y-60050000D01*
X331700000Y-60050000D01*
X331200000Y-60100000D01*
X330850000Y-60200000D01*
X330600000Y-60400000D01*
X330550000Y-59950000D01*
X330350000Y-59400000D01*
X329950000Y-58850000D01*
X329650000Y-58600000D01*
X329150000Y-58300000D01*
X328550000Y-58150000D01*
X328050000Y-58150000D01*
X327600000Y-58250000D01*
X327350000Y-58350000D01*
X326900000Y-58600000D01*
X326750000Y-58500000D01*
X326600000Y-58400000D01*
X326600000Y-58000000D01*
X326700000Y-57600000D01*
X326850000Y-57350000D01*
X327000000Y-57150000D01*
X327150000Y-57000000D01*
X327350000Y-56850000D01*
X327500000Y-56750000D01*
X327700000Y-56650000D01*
X328000000Y-56550000D01*
X328300000Y-56500000D01*
X328500000Y-56500000D01*
X332850000Y-56500000D01*
X332550000Y-56950000D01*
G37*
%TO.C,D10*%
D11*
X350350000Y-91750000D02*
X350750000Y-91750000D01*
X350750000Y-91750000D02*
X350750000Y-91200000D01*
X350750000Y-91750000D02*
X350750000Y-92300000D01*
X350750000Y-91750000D02*
X351350000Y-91350000D01*
X351350000Y-91350000D02*
X351350000Y-92150000D01*
X351350000Y-91750000D02*
X351850000Y-91750000D01*
X351350000Y-92150000D02*
X350750000Y-91750000D01*
%TO.C,D4*%
X388350000Y-68000000D02*
X388750000Y-68000000D01*
X388750000Y-68000000D02*
X388750000Y-67450000D01*
X388750000Y-68000000D02*
X388750000Y-68550000D01*
X388750000Y-68000000D02*
X389350000Y-67600000D01*
X389350000Y-67600000D02*
X389350000Y-68400000D01*
X389350000Y-68000000D02*
X389850000Y-68000000D01*
X389350000Y-68400000D02*
X388750000Y-68000000D01*
%TO.C,D2*%
X388350000Y-106000000D02*
X388750000Y-106000000D01*
X388750000Y-106000000D02*
X388750000Y-105450000D01*
X388750000Y-106000000D02*
X388750000Y-106550000D01*
X388750000Y-106000000D02*
X389350000Y-105600000D01*
X389350000Y-105600000D02*
X389350000Y-106400000D01*
X389350000Y-106000000D02*
X389850000Y-106000000D01*
X389350000Y-106400000D02*
X388750000Y-106000000D01*
D10*
%TO.C,S8*%
X366500000Y-56500000D02*
X366300000Y-56500000D01*
X366000000Y-56550000D01*
X365700000Y-56650000D01*
X365500000Y-56750000D01*
X365350000Y-56850000D01*
X365150000Y-57000000D01*
X365000000Y-57150000D01*
X364850000Y-57350000D01*
X364700000Y-57600000D01*
X364600000Y-58000000D01*
X364600000Y-58400000D01*
X364750000Y-58500000D01*
X364900000Y-58600000D01*
X365350000Y-58350000D01*
X365600000Y-58250000D01*
X366050000Y-58150000D01*
X366550000Y-58150000D01*
X367150000Y-58300000D01*
X367650000Y-58600000D01*
X367950000Y-58850000D01*
X368350000Y-59400000D01*
X368550000Y-59950000D01*
X368600000Y-60400000D01*
X368850000Y-60200000D01*
X369200000Y-60100000D01*
X369700000Y-60050000D01*
X371750000Y-60050000D01*
X371300000Y-59800000D01*
X371050000Y-59600000D01*
X370750000Y-59250000D01*
X370600000Y-59000000D01*
X370450000Y-58650000D01*
X370350000Y-58250000D01*
X370350000Y-57950000D01*
X370350000Y-57600000D01*
X370400000Y-57350000D01*
X370550000Y-56950000D01*
X370850000Y-56500000D01*
X366500000Y-56500000D01*
G36*
X370550000Y-56950000D02*
G01*
X370400000Y-57350000D01*
X370350000Y-57600000D01*
X370350000Y-57950000D01*
X370350000Y-58250000D01*
X370450000Y-58650000D01*
X370600000Y-59000000D01*
X370750000Y-59250000D01*
X371050000Y-59600000D01*
X371300000Y-59800000D01*
X371750000Y-60050000D01*
X369700000Y-60050000D01*
X369200000Y-60100000D01*
X368850000Y-60200000D01*
X368600000Y-60400000D01*
X368550000Y-59950000D01*
X368350000Y-59400000D01*
X367950000Y-58850000D01*
X367650000Y-58600000D01*
X367150000Y-58300000D01*
X366550000Y-58150000D01*
X366050000Y-58150000D01*
X365600000Y-58250000D01*
X365350000Y-58350000D01*
X364900000Y-58600000D01*
X364750000Y-58500000D01*
X364600000Y-58400000D01*
X364600000Y-58000000D01*
X364700000Y-57600000D01*
X364850000Y-57350000D01*
X365000000Y-57150000D01*
X365150000Y-57000000D01*
X365350000Y-56850000D01*
X365500000Y-56750000D01*
X365700000Y-56650000D01*
X366000000Y-56550000D01*
X366300000Y-56500000D01*
X366500000Y-56500000D01*
X370850000Y-56500000D01*
X370550000Y-56950000D01*
G37*
%TO.C,S20*%
X309500000Y-42250000D02*
X309300000Y-42250000D01*
X309000000Y-42300000D01*
X308700000Y-42400000D01*
X308500000Y-42500000D01*
X308350000Y-42600000D01*
X308150000Y-42750000D01*
X308000000Y-42900000D01*
X307850000Y-43100000D01*
X307700000Y-43350000D01*
X307600000Y-43750000D01*
X307600000Y-44150000D01*
X307750000Y-44250000D01*
X307900000Y-44350000D01*
X308350000Y-44100000D01*
X308600000Y-44000000D01*
X309050000Y-43900000D01*
X309550000Y-43900000D01*
X310150000Y-44050000D01*
X310650000Y-44350000D01*
X310950000Y-44600000D01*
X311350000Y-45150000D01*
X311550000Y-45700000D01*
X311600000Y-46150000D01*
X311850000Y-45950000D01*
X312200000Y-45850000D01*
X312700000Y-45800000D01*
X314750000Y-45800000D01*
X314300000Y-45550000D01*
X314050000Y-45350000D01*
X313750000Y-45000000D01*
X313600000Y-44750000D01*
X313450000Y-44400000D01*
X313350000Y-44000000D01*
X313350000Y-43700000D01*
X313350000Y-43350000D01*
X313400000Y-43100000D01*
X313550000Y-42700000D01*
X313850000Y-42250000D01*
X309500000Y-42250000D01*
G36*
X313550000Y-42700000D02*
G01*
X313400000Y-43100000D01*
X313350000Y-43350000D01*
X313350000Y-43700000D01*
X313350000Y-44000000D01*
X313450000Y-44400000D01*
X313600000Y-44750000D01*
X313750000Y-45000000D01*
X314050000Y-45350000D01*
X314300000Y-45550000D01*
X314750000Y-45800000D01*
X312700000Y-45800000D01*
X312200000Y-45850000D01*
X311850000Y-45950000D01*
X311600000Y-46150000D01*
X311550000Y-45700000D01*
X311350000Y-45150000D01*
X310950000Y-44600000D01*
X310650000Y-44350000D01*
X310150000Y-44050000D01*
X309550000Y-43900000D01*
X309050000Y-43900000D01*
X308600000Y-44000000D01*
X308350000Y-44100000D01*
X307900000Y-44350000D01*
X307750000Y-44250000D01*
X307600000Y-44150000D01*
X307600000Y-43750000D01*
X307700000Y-43350000D01*
X307850000Y-43100000D01*
X308000000Y-42900000D01*
X308150000Y-42750000D01*
X308350000Y-42600000D01*
X308500000Y-42500000D01*
X308700000Y-42400000D01*
X309000000Y-42300000D01*
X309300000Y-42250000D01*
X309500000Y-42250000D01*
X313850000Y-42250000D01*
X313550000Y-42700000D01*
G37*
%TO.C,D8*%
D11*
X369350000Y-68000000D02*
X369750000Y-68000000D01*
X369750000Y-68000000D02*
X369750000Y-67450000D01*
X369750000Y-68000000D02*
X369750000Y-68550000D01*
X369750000Y-68000000D02*
X370350000Y-67600000D01*
X370350000Y-67600000D02*
X370350000Y-68400000D01*
X370350000Y-68000000D02*
X370850000Y-68000000D01*
X370350000Y-68400000D02*
X369750000Y-68000000D01*
D10*
%TO.C,S2*%
X385500000Y-94500000D02*
X385300000Y-94500000D01*
X385000000Y-94550000D01*
X384700000Y-94650000D01*
X384500000Y-94750000D01*
X384350000Y-94850000D01*
X384150000Y-95000000D01*
X384000000Y-95150000D01*
X383850000Y-95350000D01*
X383700000Y-95600000D01*
X383600000Y-96000000D01*
X383600000Y-96400000D01*
X383750000Y-96500000D01*
X383900000Y-96600000D01*
X384350000Y-96350000D01*
X384600000Y-96250000D01*
X385050000Y-96150000D01*
X385550000Y-96150000D01*
X386150000Y-96300000D01*
X386650000Y-96600000D01*
X386950000Y-96850000D01*
X387350000Y-97400000D01*
X387550000Y-97950000D01*
X387600000Y-98400000D01*
X387850000Y-98200000D01*
X388200000Y-98100000D01*
X388700000Y-98050000D01*
X390750000Y-98050000D01*
X390300000Y-97800000D01*
X390050000Y-97600000D01*
X389750000Y-97250000D01*
X389600000Y-97000000D01*
X389450000Y-96650000D01*
X389350000Y-96250000D01*
X389350000Y-95950000D01*
X389350000Y-95600000D01*
X389400000Y-95350000D01*
X389550000Y-94950000D01*
X389850000Y-94500000D01*
X385500000Y-94500000D01*
G36*
X389550000Y-94950000D02*
G01*
X389400000Y-95350000D01*
X389350000Y-95600000D01*
X389350000Y-95950000D01*
X389350000Y-96250000D01*
X389450000Y-96650000D01*
X389600000Y-97000000D01*
X389750000Y-97250000D01*
X390050000Y-97600000D01*
X390300000Y-97800000D01*
X390750000Y-98050000D01*
X388700000Y-98050000D01*
X388200000Y-98100000D01*
X387850000Y-98200000D01*
X387600000Y-98400000D01*
X387550000Y-97950000D01*
X387350000Y-97400000D01*
X386950000Y-96850000D01*
X386650000Y-96600000D01*
X386150000Y-96300000D01*
X385550000Y-96150000D01*
X385050000Y-96150000D01*
X384600000Y-96250000D01*
X384350000Y-96350000D01*
X383900000Y-96600000D01*
X383750000Y-96500000D01*
X383600000Y-96400000D01*
X383600000Y-96000000D01*
X383700000Y-95600000D01*
X383850000Y-95350000D01*
X384000000Y-95150000D01*
X384150000Y-95000000D01*
X384350000Y-94850000D01*
X384500000Y-94750000D01*
X384700000Y-94650000D01*
X385000000Y-94550000D01*
X385300000Y-94500000D01*
X385500000Y-94500000D01*
X389850000Y-94500000D01*
X389550000Y-94950000D01*
G37*
%TO.C,S13*%
X328500000Y-94500000D02*
X328300000Y-94500000D01*
X328000000Y-94550000D01*
X327700000Y-94650000D01*
X327500000Y-94750000D01*
X327350000Y-94850000D01*
X327150000Y-95000000D01*
X327000000Y-95150000D01*
X326850000Y-95350000D01*
X326700000Y-95600000D01*
X326600000Y-96000000D01*
X326600000Y-96400000D01*
X326750000Y-96500000D01*
X326900000Y-96600000D01*
X327350000Y-96350000D01*
X327600000Y-96250000D01*
X328050000Y-96150000D01*
X328550000Y-96150000D01*
X329150000Y-96300000D01*
X329650000Y-96600000D01*
X329950000Y-96850000D01*
X330350000Y-97400000D01*
X330550000Y-97950000D01*
X330600000Y-98400000D01*
X330850000Y-98200000D01*
X331200000Y-98100000D01*
X331700000Y-98050000D01*
X333750000Y-98050000D01*
X333300000Y-97800000D01*
X333050000Y-97600000D01*
X332750000Y-97250000D01*
X332600000Y-97000000D01*
X332450000Y-96650000D01*
X332350000Y-96250000D01*
X332350000Y-95950000D01*
X332350000Y-95600000D01*
X332400000Y-95350000D01*
X332550000Y-94950000D01*
X332850000Y-94500000D01*
X328500000Y-94500000D01*
G36*
X332550000Y-94950000D02*
G01*
X332400000Y-95350000D01*
X332350000Y-95600000D01*
X332350000Y-95950000D01*
X332350000Y-96250000D01*
X332450000Y-96650000D01*
X332600000Y-97000000D01*
X332750000Y-97250000D01*
X333050000Y-97600000D01*
X333300000Y-97800000D01*
X333750000Y-98050000D01*
X331700000Y-98050000D01*
X331200000Y-98100000D01*
X330850000Y-98200000D01*
X330600000Y-98400000D01*
X330550000Y-97950000D01*
X330350000Y-97400000D01*
X329950000Y-96850000D01*
X329650000Y-96600000D01*
X329150000Y-96300000D01*
X328550000Y-96150000D01*
X328050000Y-96150000D01*
X327600000Y-96250000D01*
X327350000Y-96350000D01*
X326900000Y-96600000D01*
X326750000Y-96500000D01*
X326600000Y-96400000D01*
X326600000Y-96000000D01*
X326700000Y-95600000D01*
X326850000Y-95350000D01*
X327000000Y-95150000D01*
X327150000Y-95000000D01*
X327350000Y-94850000D01*
X327500000Y-94750000D01*
X327700000Y-94650000D01*
X328000000Y-94550000D01*
X328300000Y-94500000D01*
X328500000Y-94500000D01*
X332850000Y-94500000D01*
X332550000Y-94950000D01*
G37*
%TO.C,S10*%
X347500000Y-80250000D02*
X347300000Y-80250000D01*
X347000000Y-80300000D01*
X346700000Y-80400000D01*
X346500000Y-80500000D01*
X346350000Y-80600000D01*
X346150000Y-80750000D01*
X346000000Y-80900000D01*
X345850000Y-81100000D01*
X345700000Y-81350000D01*
X345600000Y-81750000D01*
X345600000Y-82150000D01*
X345750000Y-82250000D01*
X345900000Y-82350000D01*
X346350000Y-82100000D01*
X346600000Y-82000000D01*
X347050000Y-81900000D01*
X347550000Y-81900000D01*
X348150000Y-82050000D01*
X348650000Y-82350000D01*
X348950000Y-82600000D01*
X349350000Y-83150000D01*
X349550000Y-83700000D01*
X349600000Y-84150000D01*
X349850000Y-83950000D01*
X350200000Y-83850000D01*
X350700000Y-83800000D01*
X352750000Y-83800000D01*
X352300000Y-83550000D01*
X352050000Y-83350000D01*
X351750000Y-83000000D01*
X351600000Y-82750000D01*
X351450000Y-82400000D01*
X351350000Y-82000000D01*
X351350000Y-81700000D01*
X351350000Y-81350000D01*
X351400000Y-81100000D01*
X351550000Y-80700000D01*
X351850000Y-80250000D01*
X347500000Y-80250000D01*
G36*
X351550000Y-80700000D02*
G01*
X351400000Y-81100000D01*
X351350000Y-81350000D01*
X351350000Y-81700000D01*
X351350000Y-82000000D01*
X351450000Y-82400000D01*
X351600000Y-82750000D01*
X351750000Y-83000000D01*
X352050000Y-83350000D01*
X352300000Y-83550000D01*
X352750000Y-83800000D01*
X350700000Y-83800000D01*
X350200000Y-83850000D01*
X349850000Y-83950000D01*
X349600000Y-84150000D01*
X349550000Y-83700000D01*
X349350000Y-83150000D01*
X348950000Y-82600000D01*
X348650000Y-82350000D01*
X348150000Y-82050000D01*
X347550000Y-81900000D01*
X347050000Y-81900000D01*
X346600000Y-82000000D01*
X346350000Y-82100000D01*
X345900000Y-82350000D01*
X345750000Y-82250000D01*
X345600000Y-82150000D01*
X345600000Y-81750000D01*
X345700000Y-81350000D01*
X345850000Y-81100000D01*
X346000000Y-80900000D01*
X346150000Y-80750000D01*
X346350000Y-80600000D01*
X346500000Y-80500000D01*
X346700000Y-80400000D01*
X347000000Y-80300000D01*
X347300000Y-80250000D01*
X347500000Y-80250000D01*
X351850000Y-80250000D01*
X351550000Y-80700000D01*
G37*
%TO.C,D3*%
D11*
X388350000Y-87000000D02*
X388750000Y-87000000D01*
X388750000Y-87000000D02*
X388750000Y-86450000D01*
X388750000Y-87000000D02*
X388750000Y-87550000D01*
X388750000Y-87000000D02*
X389350000Y-86600000D01*
X389350000Y-86600000D02*
X389350000Y-87400000D01*
X389350000Y-87000000D02*
X389850000Y-87000000D01*
X389350000Y-87400000D02*
X388750000Y-87000000D01*
D10*
%TO.C,S17*%
X309500000Y-99250000D02*
X309300000Y-99250000D01*
X309000000Y-99300000D01*
X308700000Y-99400000D01*
X308500000Y-99500000D01*
X308350000Y-99600000D01*
X308150000Y-99750000D01*
X308000000Y-99900000D01*
X307850000Y-100100000D01*
X307700000Y-100350000D01*
X307600000Y-100750000D01*
X307600000Y-101150000D01*
X307750000Y-101250000D01*
X307900000Y-101350000D01*
X308350000Y-101100000D01*
X308600000Y-101000000D01*
X309050000Y-100900000D01*
X309550000Y-100900000D01*
X310150000Y-101050000D01*
X310650000Y-101350000D01*
X310950000Y-101600000D01*
X311350000Y-102150000D01*
X311550000Y-102700000D01*
X311600000Y-103150000D01*
X311850000Y-102950000D01*
X312200000Y-102850000D01*
X312700000Y-102800000D01*
X314750000Y-102800000D01*
X314300000Y-102550000D01*
X314050000Y-102350000D01*
X313750000Y-102000000D01*
X313600000Y-101750000D01*
X313450000Y-101400000D01*
X313350000Y-101000000D01*
X313350000Y-100700000D01*
X313350000Y-100350000D01*
X313400000Y-100100000D01*
X313550000Y-99700000D01*
X313850000Y-99250000D01*
X309500000Y-99250000D01*
G36*
X313550000Y-99700000D02*
G01*
X313400000Y-100100000D01*
X313350000Y-100350000D01*
X313350000Y-100700000D01*
X313350000Y-101000000D01*
X313450000Y-101400000D01*
X313600000Y-101750000D01*
X313750000Y-102000000D01*
X314050000Y-102350000D01*
X314300000Y-102550000D01*
X314750000Y-102800000D01*
X312700000Y-102800000D01*
X312200000Y-102850000D01*
X311850000Y-102950000D01*
X311600000Y-103150000D01*
X311550000Y-102700000D01*
X311350000Y-102150000D01*
X310950000Y-101600000D01*
X310650000Y-101350000D01*
X310150000Y-101050000D01*
X309550000Y-100900000D01*
X309050000Y-100900000D01*
X308600000Y-101000000D01*
X308350000Y-101100000D01*
X307900000Y-101350000D01*
X307750000Y-101250000D01*
X307600000Y-101150000D01*
X307600000Y-100750000D01*
X307700000Y-100350000D01*
X307850000Y-100100000D01*
X308000000Y-99900000D01*
X308150000Y-99750000D01*
X308350000Y-99600000D01*
X308500000Y-99500000D01*
X308700000Y-99400000D01*
X309000000Y-99300000D01*
X309300000Y-99250000D01*
X309500000Y-99250000D01*
X313850000Y-99250000D01*
X313550000Y-99700000D01*
G37*
%TO.C,S19*%
X309500000Y-61250000D02*
X309300000Y-61250000D01*
X309000000Y-61300000D01*
X308700000Y-61400000D01*
X308500000Y-61500000D01*
X308350000Y-61600000D01*
X308150000Y-61750000D01*
X308000000Y-61900000D01*
X307850000Y-62100000D01*
X307700000Y-62350000D01*
X307600000Y-62750000D01*
X307600000Y-63150000D01*
X307750000Y-63250000D01*
X307900000Y-63350000D01*
X308350000Y-63100000D01*
X308600000Y-63000000D01*
X309050000Y-62900000D01*
X309550000Y-62900000D01*
X310150000Y-63050000D01*
X310650000Y-63350000D01*
X310950000Y-63600000D01*
X311350000Y-64150000D01*
X311550000Y-64700000D01*
X311600000Y-65150000D01*
X311850000Y-64950000D01*
X312200000Y-64850000D01*
X312700000Y-64800000D01*
X314750000Y-64800000D01*
X314300000Y-64550000D01*
X314050000Y-64350000D01*
X313750000Y-64000000D01*
X313600000Y-63750000D01*
X313450000Y-63400000D01*
X313350000Y-63000000D01*
X313350000Y-62700000D01*
X313350000Y-62350000D01*
X313400000Y-62100000D01*
X313550000Y-61700000D01*
X313850000Y-61250000D01*
X309500000Y-61250000D01*
G36*
X313550000Y-61700000D02*
G01*
X313400000Y-62100000D01*
X313350000Y-62350000D01*
X313350000Y-62700000D01*
X313350000Y-63000000D01*
X313450000Y-63400000D01*
X313600000Y-63750000D01*
X313750000Y-64000000D01*
X314050000Y-64350000D01*
X314300000Y-64550000D01*
X314750000Y-64800000D01*
X312700000Y-64800000D01*
X312200000Y-64850000D01*
X311850000Y-64950000D01*
X311600000Y-65150000D01*
X311550000Y-64700000D01*
X311350000Y-64150000D01*
X310950000Y-63600000D01*
X310650000Y-63350000D01*
X310150000Y-63050000D01*
X309550000Y-62900000D01*
X309050000Y-62900000D01*
X308600000Y-63000000D01*
X308350000Y-63100000D01*
X307900000Y-63350000D01*
X307750000Y-63250000D01*
X307600000Y-63150000D01*
X307600000Y-62750000D01*
X307700000Y-62350000D01*
X307850000Y-62100000D01*
X308000000Y-61900000D01*
X308150000Y-61750000D01*
X308350000Y-61600000D01*
X308500000Y-61500000D01*
X308700000Y-61400000D01*
X309000000Y-61300000D01*
X309300000Y-61250000D01*
X309500000Y-61250000D01*
X313850000Y-61250000D01*
X313550000Y-61700000D01*
G37*
%TO.C,D25*%
D11*
X305581394Y-134344436D02*
X305975317Y-134274977D01*
X305975317Y-134274977D02*
X305879811Y-133733333D01*
X305975317Y-134274977D02*
X306070824Y-134816621D01*
X305975317Y-134274977D02*
X306496743Y-133776865D01*
X306496743Y-133776865D02*
X306635661Y-134564711D01*
X306566202Y-134170788D02*
X307058606Y-134083964D01*
X306635661Y-134564711D02*
X305975317Y-134274977D01*
%TO.C,D16*%
X331350000Y-49000000D02*
X331750000Y-49000000D01*
X331750000Y-49000000D02*
X331750000Y-48450000D01*
X331750000Y-49000000D02*
X331750000Y-49550000D01*
X331750000Y-49000000D02*
X332350000Y-48600000D01*
X332350000Y-48600000D02*
X332350000Y-49400000D01*
X332350000Y-49000000D02*
X332850000Y-49000000D01*
X332350000Y-49400000D02*
X331750000Y-49000000D01*
D10*
%TO.C,S5*%
X366500000Y-113500000D02*
X366300000Y-113500000D01*
X366000000Y-113550000D01*
X365700000Y-113650000D01*
X365500000Y-113750000D01*
X365350000Y-113850000D01*
X365150000Y-114000000D01*
X365000000Y-114150000D01*
X364850000Y-114350000D01*
X364700000Y-114600000D01*
X364600000Y-115000000D01*
X364600000Y-115400000D01*
X364750000Y-115500000D01*
X364900000Y-115600000D01*
X365350000Y-115350000D01*
X365600000Y-115250000D01*
X366050000Y-115150000D01*
X366550000Y-115150000D01*
X367150000Y-115300000D01*
X367650000Y-115600000D01*
X367950000Y-115850000D01*
X368350000Y-116400000D01*
X368550000Y-116950000D01*
X368600000Y-117400000D01*
X368850000Y-117200000D01*
X369200000Y-117100000D01*
X369700000Y-117050000D01*
X371750000Y-117050000D01*
X371300000Y-116800000D01*
X371050000Y-116600000D01*
X370750000Y-116250000D01*
X370600000Y-116000000D01*
X370450000Y-115650000D01*
X370350000Y-115250000D01*
X370350000Y-114950000D01*
X370350000Y-114600000D01*
X370400000Y-114350000D01*
X370550000Y-113950000D01*
X370850000Y-113500000D01*
X366500000Y-113500000D01*
G36*
X370550000Y-113950000D02*
G01*
X370400000Y-114350000D01*
X370350000Y-114600000D01*
X370350000Y-114950000D01*
X370350000Y-115250000D01*
X370450000Y-115650000D01*
X370600000Y-116000000D01*
X370750000Y-116250000D01*
X371050000Y-116600000D01*
X371300000Y-116800000D01*
X371750000Y-117050000D01*
X369700000Y-117050000D01*
X369200000Y-117100000D01*
X368850000Y-117200000D01*
X368600000Y-117400000D01*
X368550000Y-116950000D01*
X368350000Y-116400000D01*
X367950000Y-115850000D01*
X367650000Y-115600000D01*
X367150000Y-115300000D01*
X366550000Y-115150000D01*
X366050000Y-115150000D01*
X365600000Y-115250000D01*
X365350000Y-115350000D01*
X364900000Y-115600000D01*
X364750000Y-115500000D01*
X364600000Y-115400000D01*
X364600000Y-115000000D01*
X364700000Y-114600000D01*
X364850000Y-114350000D01*
X365000000Y-114150000D01*
X365150000Y-114000000D01*
X365350000Y-113850000D01*
X365500000Y-113750000D01*
X365700000Y-113650000D01*
X366000000Y-113550000D01*
X366300000Y-113500000D01*
X366500000Y-113500000D01*
X370850000Y-113500000D01*
X370550000Y-113950000D01*
G37*
%TO.C,S27*%
X258622109Y-140003135D02*
X258448903Y-140103135D01*
X258214096Y-140296436D01*
X258004288Y-140533039D01*
X257881083Y-140719641D01*
X257801179Y-140881244D01*
X257702974Y-141111148D01*
X257648070Y-141316051D01*
X257618167Y-141564256D01*
X257613263Y-141855763D01*
X257726660Y-142252173D01*
X257926660Y-142598583D01*
X258106564Y-142610186D01*
X258286468Y-142621788D01*
X258551179Y-142180282D01*
X258717686Y-141968679D01*
X259057397Y-141657077D01*
X259490410Y-141407077D01*
X260085025Y-141236981D01*
X260668038Y-141246788D01*
X261052845Y-141313295D01*
X261674256Y-141589609D01*
X262122461Y-141965923D01*
X262390762Y-142330634D01*
X262507268Y-142032429D01*
X262760377Y-141770826D01*
X263168390Y-141477525D01*
X264943742Y-140452525D01*
X264429030Y-140461019D01*
X264112524Y-140412814D01*
X263677717Y-140259705D01*
X263422813Y-140118198D01*
X263117909Y-139890089D01*
X262831306Y-139593679D01*
X262681306Y-139333872D01*
X262506306Y-139030763D01*
X262424608Y-138789256D01*
X262354511Y-138367846D01*
X262389319Y-137828135D01*
X258622109Y-140003135D01*
G36*
X262354511Y-138367846D02*
G01*
X262424608Y-138789256D01*
X262506306Y-139030763D01*
X262681306Y-139333872D01*
X262831306Y-139593679D01*
X263117909Y-139890089D01*
X263422813Y-140118198D01*
X263677717Y-140259705D01*
X264112524Y-140412814D01*
X264429030Y-140461019D01*
X264943742Y-140452525D01*
X263168390Y-141477525D01*
X262760377Y-141770826D01*
X262507268Y-142032429D01*
X262390762Y-142330634D01*
X262122461Y-141965923D01*
X261674256Y-141589609D01*
X261052845Y-141313295D01*
X260668038Y-141246788D01*
X260085025Y-141236981D01*
X259490410Y-141407077D01*
X259057397Y-141657077D01*
X258717686Y-141968679D01*
X258551179Y-142180282D01*
X258286468Y-142621788D01*
X258106564Y-142610186D01*
X257926660Y-142598583D01*
X257726660Y-142252173D01*
X257613263Y-141855763D01*
X257618167Y-141564256D01*
X257648070Y-141316051D01*
X257702974Y-141111148D01*
X257801179Y-140881244D01*
X257881083Y-140719641D01*
X258004288Y-140533039D01*
X258214096Y-140296436D01*
X258448903Y-140103135D01*
X258622109Y-140003135D01*
X262389319Y-137828135D01*
X262354511Y-138367846D01*
G37*
%TO.C,S9*%
X347500000Y-99250000D02*
X347300000Y-99250000D01*
X347000000Y-99300000D01*
X346700000Y-99400000D01*
X346500000Y-99500000D01*
X346350000Y-99600000D01*
X346150000Y-99750000D01*
X346000000Y-99900000D01*
X345850000Y-100100000D01*
X345700000Y-100350000D01*
X345600000Y-100750000D01*
X345600000Y-101150000D01*
X345750000Y-101250000D01*
X345900000Y-101350000D01*
X346350000Y-101100000D01*
X346600000Y-101000000D01*
X347050000Y-100900000D01*
X347550000Y-100900000D01*
X348150000Y-101050000D01*
X348650000Y-101350000D01*
X348950000Y-101600000D01*
X349350000Y-102150000D01*
X349550000Y-102700000D01*
X349600000Y-103150000D01*
X349850000Y-102950000D01*
X350200000Y-102850000D01*
X350700000Y-102800000D01*
X352750000Y-102800000D01*
X352300000Y-102550000D01*
X352050000Y-102350000D01*
X351750000Y-102000000D01*
X351600000Y-101750000D01*
X351450000Y-101400000D01*
X351350000Y-101000000D01*
X351350000Y-100700000D01*
X351350000Y-100350000D01*
X351400000Y-100100000D01*
X351550000Y-99700000D01*
X351850000Y-99250000D01*
X347500000Y-99250000D01*
G36*
X351550000Y-99700000D02*
G01*
X351400000Y-100100000D01*
X351350000Y-100350000D01*
X351350000Y-100700000D01*
X351350000Y-101000000D01*
X351450000Y-101400000D01*
X351600000Y-101750000D01*
X351750000Y-102000000D01*
X352050000Y-102350000D01*
X352300000Y-102550000D01*
X352750000Y-102800000D01*
X350700000Y-102800000D01*
X350200000Y-102850000D01*
X349850000Y-102950000D01*
X349600000Y-103150000D01*
X349550000Y-102700000D01*
X349350000Y-102150000D01*
X348950000Y-101600000D01*
X348650000Y-101350000D01*
X348150000Y-101050000D01*
X347550000Y-100900000D01*
X347050000Y-100900000D01*
X346600000Y-101000000D01*
X346350000Y-101100000D01*
X345900000Y-101350000D01*
X345750000Y-101250000D01*
X345600000Y-101150000D01*
X345600000Y-100750000D01*
X345700000Y-100350000D01*
X345850000Y-100100000D01*
X346000000Y-99900000D01*
X346150000Y-99750000D01*
X346350000Y-99600000D01*
X346500000Y-99500000D01*
X346700000Y-99400000D01*
X347000000Y-99300000D01*
X347300000Y-99250000D01*
X347500000Y-99250000D01*
X351850000Y-99250000D01*
X351550000Y-99700000D01*
G37*
%TO.C,S21*%
X290500000Y-101625000D02*
X290300000Y-101625000D01*
X290000000Y-101675000D01*
X289700000Y-101775000D01*
X289500000Y-101875000D01*
X289350000Y-101975000D01*
X289150000Y-102125000D01*
X289000000Y-102275000D01*
X288850000Y-102475000D01*
X288700000Y-102725000D01*
X288600000Y-103125000D01*
X288600000Y-103525000D01*
X288750000Y-103625000D01*
X288900000Y-103725000D01*
X289350000Y-103475000D01*
X289600000Y-103375000D01*
X290050000Y-103275000D01*
X290550000Y-103275000D01*
X291150000Y-103425000D01*
X291650000Y-103725000D01*
X291950000Y-103975000D01*
X292350000Y-104525000D01*
X292550000Y-105075000D01*
X292600000Y-105525000D01*
X292850000Y-105325000D01*
X293200000Y-105225000D01*
X293700000Y-105175000D01*
X295750000Y-105175000D01*
X295300000Y-104925000D01*
X295050000Y-104725000D01*
X294750000Y-104375000D01*
X294600000Y-104125000D01*
X294450000Y-103775000D01*
X294350000Y-103375000D01*
X294350000Y-103075000D01*
X294350000Y-102725000D01*
X294400000Y-102475000D01*
X294550000Y-102075000D01*
X294850000Y-101625000D01*
X290500000Y-101625000D01*
G36*
X294550000Y-102075000D02*
G01*
X294400000Y-102475000D01*
X294350000Y-102725000D01*
X294350000Y-103075000D01*
X294350000Y-103375000D01*
X294450000Y-103775000D01*
X294600000Y-104125000D01*
X294750000Y-104375000D01*
X295050000Y-104725000D01*
X295300000Y-104925000D01*
X295750000Y-105175000D01*
X293700000Y-105175000D01*
X293200000Y-105225000D01*
X292850000Y-105325000D01*
X292600000Y-105525000D01*
X292550000Y-105075000D01*
X292350000Y-104525000D01*
X291950000Y-103975000D01*
X291650000Y-103725000D01*
X291150000Y-103425000D01*
X290550000Y-103275000D01*
X290050000Y-103275000D01*
X289600000Y-103375000D01*
X289350000Y-103475000D01*
X288900000Y-103725000D01*
X288750000Y-103625000D01*
X288600000Y-103525000D01*
X288600000Y-103125000D01*
X288700000Y-102725000D01*
X288850000Y-102475000D01*
X289000000Y-102275000D01*
X289150000Y-102125000D01*
X289350000Y-101975000D01*
X289500000Y-101875000D01*
X289700000Y-101775000D01*
X290000000Y-101675000D01*
X290300000Y-101625000D01*
X290500000Y-101625000D01*
X294850000Y-101625000D01*
X294550000Y-102075000D01*
G37*
%TO.C,D17*%
D11*
X312350000Y-110750000D02*
X312750000Y-110750000D01*
X312750000Y-110750000D02*
X312750000Y-110200000D01*
X312750000Y-110750000D02*
X312750000Y-111300000D01*
X312750000Y-110750000D02*
X313350000Y-110350000D01*
X313350000Y-110350000D02*
X313350000Y-111150000D01*
X313350000Y-110750000D02*
X313850000Y-110750000D01*
X313350000Y-111150000D02*
X312750000Y-110750000D01*
%TO.C,D26*%
X285589931Y-139746215D02*
X285965808Y-139609407D01*
X285965808Y-139609407D02*
X285777697Y-139092576D01*
X285965808Y-139609407D02*
X286153919Y-140126238D01*
X285965808Y-139609407D02*
X286392815Y-139028318D01*
X286392815Y-139028318D02*
X286666431Y-139780072D01*
X286529623Y-139404195D02*
X286999469Y-139233185D01*
X286666431Y-139780072D02*
X285965808Y-139609407D01*
%TO.C,D14*%
X331350000Y-87000000D02*
X331750000Y-87000000D01*
X331750000Y-87000000D02*
X331750000Y-86450000D01*
X331750000Y-87000000D02*
X331750000Y-87550000D01*
X331750000Y-87000000D02*
X332350000Y-86600000D01*
X332350000Y-86600000D02*
X332350000Y-87400000D01*
X332350000Y-87000000D02*
X332850000Y-87000000D01*
X332350000Y-87400000D02*
X331750000Y-87000000D01*
D10*
%TO.C,S4*%
X385500000Y-56500000D02*
X385300000Y-56500000D01*
X385000000Y-56550000D01*
X384700000Y-56650000D01*
X384500000Y-56750000D01*
X384350000Y-56850000D01*
X384150000Y-57000000D01*
X384000000Y-57150000D01*
X383850000Y-57350000D01*
X383700000Y-57600000D01*
X383600000Y-58000000D01*
X383600000Y-58400000D01*
X383750000Y-58500000D01*
X383900000Y-58600000D01*
X384350000Y-58350000D01*
X384600000Y-58250000D01*
X385050000Y-58150000D01*
X385550000Y-58150000D01*
X386150000Y-58300000D01*
X386650000Y-58600000D01*
X386950000Y-58850000D01*
X387350000Y-59400000D01*
X387550000Y-59950000D01*
X387600000Y-60400000D01*
X387850000Y-60200000D01*
X388200000Y-60100000D01*
X388700000Y-60050000D01*
X390750000Y-60050000D01*
X390300000Y-59800000D01*
X390050000Y-59600000D01*
X389750000Y-59250000D01*
X389600000Y-59000000D01*
X389450000Y-58650000D01*
X389350000Y-58250000D01*
X389350000Y-57950000D01*
X389350000Y-57600000D01*
X389400000Y-57350000D01*
X389550000Y-56950000D01*
X389850000Y-56500000D01*
X385500000Y-56500000D01*
G36*
X389550000Y-56950000D02*
G01*
X389400000Y-57350000D01*
X389350000Y-57600000D01*
X389350000Y-57950000D01*
X389350000Y-58250000D01*
X389450000Y-58650000D01*
X389600000Y-59000000D01*
X389750000Y-59250000D01*
X390050000Y-59600000D01*
X390300000Y-59800000D01*
X390750000Y-60050000D01*
X388700000Y-60050000D01*
X388200000Y-60100000D01*
X387850000Y-60200000D01*
X387600000Y-60400000D01*
X387550000Y-59950000D01*
X387350000Y-59400000D01*
X386950000Y-58850000D01*
X386650000Y-58600000D01*
X386150000Y-58300000D01*
X385550000Y-58150000D01*
X385050000Y-58150000D01*
X384600000Y-58250000D01*
X384350000Y-58350000D01*
X383900000Y-58600000D01*
X383750000Y-58500000D01*
X383600000Y-58400000D01*
X383600000Y-58000000D01*
X383700000Y-57600000D01*
X383850000Y-57350000D01*
X384000000Y-57150000D01*
X384150000Y-57000000D01*
X384350000Y-56850000D01*
X384500000Y-56750000D01*
X384700000Y-56650000D01*
X385000000Y-56550000D01*
X385300000Y-56500000D01*
X385500000Y-56500000D01*
X389850000Y-56500000D01*
X389550000Y-56950000D01*
G37*
%TO.C,D11*%
D11*
X350350000Y-72750000D02*
X350750000Y-72750000D01*
X350750000Y-72750000D02*
X350750000Y-72200000D01*
X350750000Y-72750000D02*
X350750000Y-73300000D01*
X350750000Y-72750000D02*
X351350000Y-72350000D01*
X351350000Y-72350000D02*
X351350000Y-73150000D01*
X351350000Y-72750000D02*
X351850000Y-72750000D01*
X351350000Y-73150000D02*
X350750000Y-72750000D01*
%TO.C,D20*%
X312350000Y-53750000D02*
X312750000Y-53750000D01*
X312750000Y-53750000D02*
X312750000Y-53200000D01*
X312750000Y-53750000D02*
X312750000Y-54300000D01*
X312750000Y-53750000D02*
X313350000Y-53350000D01*
X313350000Y-53350000D02*
X313350000Y-54150000D01*
X313350000Y-53750000D02*
X313850000Y-53750000D01*
X313350000Y-54150000D02*
X312750000Y-53750000D01*
D10*
%TO.C,S24*%
X290500000Y-44625000D02*
X290300000Y-44625000D01*
X290000000Y-44675000D01*
X289700000Y-44775000D01*
X289500000Y-44875000D01*
X289350000Y-44975000D01*
X289150000Y-45125000D01*
X289000000Y-45275000D01*
X288850000Y-45475000D01*
X288700000Y-45725000D01*
X288600000Y-46125000D01*
X288600000Y-46525000D01*
X288750000Y-46625000D01*
X288900000Y-46725000D01*
X289350000Y-46475000D01*
X289600000Y-46375000D01*
X290050000Y-46275000D01*
X290550000Y-46275000D01*
X291150000Y-46425000D01*
X291650000Y-46725000D01*
X291950000Y-46975000D01*
X292350000Y-47525000D01*
X292550000Y-48075000D01*
X292600000Y-48525000D01*
X292850000Y-48325000D01*
X293200000Y-48225000D01*
X293700000Y-48175000D01*
X295750000Y-48175000D01*
X295300000Y-47925000D01*
X295050000Y-47725000D01*
X294750000Y-47375000D01*
X294600000Y-47125000D01*
X294450000Y-46775000D01*
X294350000Y-46375000D01*
X294350000Y-46075000D01*
X294350000Y-45725000D01*
X294400000Y-45475000D01*
X294550000Y-45075000D01*
X294850000Y-44625000D01*
X290500000Y-44625000D01*
G36*
X294550000Y-45075000D02*
G01*
X294400000Y-45475000D01*
X294350000Y-45725000D01*
X294350000Y-46075000D01*
X294350000Y-46375000D01*
X294450000Y-46775000D01*
X294600000Y-47125000D01*
X294750000Y-47375000D01*
X295050000Y-47725000D01*
X295300000Y-47925000D01*
X295750000Y-48175000D01*
X293700000Y-48175000D01*
X293200000Y-48225000D01*
X292850000Y-48325000D01*
X292600000Y-48525000D01*
X292550000Y-48075000D01*
X292350000Y-47525000D01*
X291950000Y-46975000D01*
X291650000Y-46725000D01*
X291150000Y-46425000D01*
X290550000Y-46275000D01*
X290050000Y-46275000D01*
X289600000Y-46375000D01*
X289350000Y-46475000D01*
X288900000Y-46725000D01*
X288750000Y-46625000D01*
X288600000Y-46525000D01*
X288600000Y-46125000D01*
X288700000Y-45725000D01*
X288850000Y-45475000D01*
X289000000Y-45275000D01*
X289150000Y-45125000D01*
X289350000Y-44975000D01*
X289500000Y-44875000D01*
X289700000Y-44775000D01*
X290000000Y-44675000D01*
X290300000Y-44625000D01*
X290500000Y-44625000D01*
X294850000Y-44625000D01*
X294550000Y-45075000D01*
G37*
%TO.C,D13*%
D11*
X331350000Y-106000000D02*
X331750000Y-106000000D01*
X331750000Y-106000000D02*
X331750000Y-105450000D01*
X331750000Y-106000000D02*
X331750000Y-106550000D01*
X331750000Y-106000000D02*
X332350000Y-105600000D01*
X332350000Y-105600000D02*
X332350000Y-106400000D01*
X332350000Y-106000000D02*
X332850000Y-106000000D01*
X332350000Y-106400000D02*
X331750000Y-106000000D01*
D10*
%TO.C,S18*%
X309500000Y-80250000D02*
X309300000Y-80250000D01*
X309000000Y-80300000D01*
X308700000Y-80400000D01*
X308500000Y-80500000D01*
X308350000Y-80600000D01*
X308150000Y-80750000D01*
X308000000Y-80900000D01*
X307850000Y-81100000D01*
X307700000Y-81350000D01*
X307600000Y-81750000D01*
X307600000Y-82150000D01*
X307750000Y-82250000D01*
X307900000Y-82350000D01*
X308350000Y-82100000D01*
X308600000Y-82000000D01*
X309050000Y-81900000D01*
X309550000Y-81900000D01*
X310150000Y-82050000D01*
X310650000Y-82350000D01*
X310950000Y-82600000D01*
X311350000Y-83150000D01*
X311550000Y-83700000D01*
X311600000Y-84150000D01*
X311850000Y-83950000D01*
X312200000Y-83850000D01*
X312700000Y-83800000D01*
X314750000Y-83800000D01*
X314300000Y-83550000D01*
X314050000Y-83350000D01*
X313750000Y-83000000D01*
X313600000Y-82750000D01*
X313450000Y-82400000D01*
X313350000Y-82000000D01*
X313350000Y-81700000D01*
X313350000Y-81350000D01*
X313400000Y-81100000D01*
X313550000Y-80700000D01*
X313850000Y-80250000D01*
X309500000Y-80250000D01*
G36*
X313550000Y-80700000D02*
G01*
X313400000Y-81100000D01*
X313350000Y-81350000D01*
X313350000Y-81700000D01*
X313350000Y-82000000D01*
X313450000Y-82400000D01*
X313600000Y-82750000D01*
X313750000Y-83000000D01*
X314050000Y-83350000D01*
X314300000Y-83550000D01*
X314750000Y-83800000D01*
X312700000Y-83800000D01*
X312200000Y-83850000D01*
X311850000Y-83950000D01*
X311600000Y-84150000D01*
X311550000Y-83700000D01*
X311350000Y-83150000D01*
X310950000Y-82600000D01*
X310650000Y-82350000D01*
X310150000Y-82050000D01*
X309550000Y-81900000D01*
X309050000Y-81900000D01*
X308600000Y-82000000D01*
X308350000Y-82100000D01*
X307900000Y-82350000D01*
X307750000Y-82250000D01*
X307600000Y-82150000D01*
X307600000Y-81750000D01*
X307700000Y-81350000D01*
X307850000Y-81100000D01*
X308000000Y-80900000D01*
X308150000Y-80750000D01*
X308350000Y-80600000D01*
X308500000Y-80500000D01*
X308700000Y-80400000D01*
X309000000Y-80300000D01*
X309300000Y-80250000D01*
X309500000Y-80250000D01*
X313850000Y-80250000D01*
X313550000Y-80700000D01*
G37*
%TO.C,D22*%
D11*
X293350000Y-94125000D02*
X293750000Y-94125000D01*
X293750000Y-94125000D02*
X293750000Y-93575000D01*
X293750000Y-94125000D02*
X293750000Y-94675000D01*
X293750000Y-94125000D02*
X294350000Y-93725000D01*
X294350000Y-93725000D02*
X294350000Y-94525000D01*
X294350000Y-94125000D02*
X294850000Y-94125000D01*
X294350000Y-94525000D02*
X293750000Y-94125000D01*
D10*
%TO.C,S1*%
X385500000Y-113500000D02*
X385300000Y-113500000D01*
X385000000Y-113550000D01*
X384700000Y-113650000D01*
X384500000Y-113750000D01*
X384350000Y-113850000D01*
X384150000Y-114000000D01*
X384000000Y-114150000D01*
X383850000Y-114350000D01*
X383700000Y-114600000D01*
X383600000Y-115000000D01*
X383600000Y-115400000D01*
X383750000Y-115500000D01*
X383900000Y-115600000D01*
X384350000Y-115350000D01*
X384600000Y-115250000D01*
X385050000Y-115150000D01*
X385550000Y-115150000D01*
X386150000Y-115300000D01*
X386650000Y-115600000D01*
X386950000Y-115850000D01*
X387350000Y-116400000D01*
X387550000Y-116950000D01*
X387600000Y-117400000D01*
X387850000Y-117200000D01*
X388200000Y-117100000D01*
X388700000Y-117050000D01*
X390750000Y-117050000D01*
X390300000Y-116800000D01*
X390050000Y-116600000D01*
X389750000Y-116250000D01*
X389600000Y-116000000D01*
X389450000Y-115650000D01*
X389350000Y-115250000D01*
X389350000Y-114950000D01*
X389350000Y-114600000D01*
X389400000Y-114350000D01*
X389550000Y-113950000D01*
X389850000Y-113500000D01*
X385500000Y-113500000D01*
G36*
X389550000Y-113950000D02*
G01*
X389400000Y-114350000D01*
X389350000Y-114600000D01*
X389350000Y-114950000D01*
X389350000Y-115250000D01*
X389450000Y-115650000D01*
X389600000Y-116000000D01*
X389750000Y-116250000D01*
X390050000Y-116600000D01*
X390300000Y-116800000D01*
X390750000Y-117050000D01*
X388700000Y-117050000D01*
X388200000Y-117100000D01*
X387850000Y-117200000D01*
X387600000Y-117400000D01*
X387550000Y-116950000D01*
X387350000Y-116400000D01*
X386950000Y-115850000D01*
X386650000Y-115600000D01*
X386150000Y-115300000D01*
X385550000Y-115150000D01*
X385050000Y-115150000D01*
X384600000Y-115250000D01*
X384350000Y-115350000D01*
X383900000Y-115600000D01*
X383750000Y-115500000D01*
X383600000Y-115400000D01*
X383600000Y-115000000D01*
X383700000Y-114600000D01*
X383850000Y-114350000D01*
X384000000Y-114150000D01*
X384150000Y-114000000D01*
X384350000Y-113850000D01*
X384500000Y-113750000D01*
X384700000Y-113650000D01*
X385000000Y-113550000D01*
X385300000Y-113500000D01*
X385500000Y-113500000D01*
X389850000Y-113500000D01*
X389550000Y-113950000D01*
G37*
%TO.C,D7*%
D11*
X369350000Y-87000000D02*
X369750000Y-87000000D01*
X369750000Y-87000000D02*
X369750000Y-86450000D01*
X369750000Y-87000000D02*
X369750000Y-87550000D01*
X369750000Y-87000000D02*
X370350000Y-86600000D01*
X370350000Y-86600000D02*
X370350000Y-87400000D01*
X370350000Y-87000000D02*
X370850000Y-87000000D01*
X370350000Y-87400000D02*
X369750000Y-87000000D01*
%TO.C,D19*%
X312350000Y-72750000D02*
X312750000Y-72750000D01*
X312750000Y-72750000D02*
X312750000Y-72200000D01*
X312750000Y-72750000D02*
X312750000Y-73300000D01*
X312750000Y-72750000D02*
X313350000Y-72350000D01*
X313350000Y-72350000D02*
X313350000Y-73150000D01*
X313350000Y-72750000D02*
X313850000Y-72750000D01*
X313350000Y-73150000D02*
X312750000Y-72750000D01*
%TO.C,D15*%
X331350000Y-68000000D02*
X331750000Y-68000000D01*
X331750000Y-68000000D02*
X331750000Y-67450000D01*
X331750000Y-68000000D02*
X331750000Y-68550000D01*
X331750000Y-68000000D02*
X332350000Y-67600000D01*
X332350000Y-67600000D02*
X332350000Y-68400000D01*
X332350000Y-68000000D02*
X332850000Y-68000000D01*
X332350000Y-68400000D02*
X331750000Y-68000000D01*
D10*
%TO.C,S26*%
X278978577Y-129914570D02*
X278790637Y-129982975D01*
X278525830Y-130132565D01*
X278278125Y-130329140D01*
X278124388Y-130491514D01*
X278017636Y-130636786D01*
X277881001Y-130846144D01*
X277791350Y-131038401D01*
X277718800Y-131277642D01*
X277663351Y-131563869D01*
X277706190Y-131973948D01*
X277842998Y-132349825D01*
X278018154Y-132392491D01*
X278193310Y-132435157D01*
X278530666Y-132046325D01*
X278731388Y-131866851D01*
X279120047Y-131618972D01*
X279589894Y-131447962D01*
X280205012Y-131383704D01*
X280777464Y-131494602D01*
X281144877Y-131626919D01*
X281708865Y-132006942D01*
X282084915Y-132455369D01*
X282285809Y-132861129D01*
X282452328Y-132587686D01*
X282747018Y-132374010D01*
X283199764Y-132156015D01*
X285126132Y-131454874D01*
X284617767Y-131373859D01*
X284314440Y-131271426D01*
X283912825Y-131045141D01*
X283686366Y-130861519D01*
X283425705Y-130583930D01*
X283194927Y-130242255D01*
X283092321Y-129960347D01*
X282972614Y-129631455D01*
X282934094Y-129379431D01*
X282938240Y-128952251D01*
X283066239Y-128426783D01*
X278978577Y-129914570D01*
G36*
X282938240Y-128952251D02*
G01*
X282934094Y-129379431D01*
X282972614Y-129631455D01*
X283092321Y-129960347D01*
X283194927Y-130242255D01*
X283425705Y-130583930D01*
X283686366Y-130861519D01*
X283912825Y-131045141D01*
X284314440Y-131271426D01*
X284617767Y-131373859D01*
X285126132Y-131454874D01*
X283199764Y-132156015D01*
X282747018Y-132374010D01*
X282452328Y-132587686D01*
X282285809Y-132861129D01*
X282084915Y-132455369D01*
X281708865Y-132006942D01*
X281144877Y-131626919D01*
X280777464Y-131494602D01*
X280205012Y-131383704D01*
X279589894Y-131447962D01*
X279120047Y-131618972D01*
X278731388Y-131866851D01*
X278530666Y-132046325D01*
X278193310Y-132435157D01*
X278018154Y-132392491D01*
X277842998Y-132349825D01*
X277706190Y-131973948D01*
X277663351Y-131563869D01*
X277718800Y-131277642D01*
X277791350Y-131038401D01*
X277881001Y-130846144D01*
X278017636Y-130636786D01*
X278124388Y-130491514D01*
X278278125Y-130329140D01*
X278525830Y-130132565D01*
X278790637Y-129982975D01*
X278978577Y-129914570D01*
X283066239Y-128426783D01*
X282938240Y-128952251D01*
G37*
%TO.C,D5*%
D11*
X369350000Y-125000000D02*
X369750000Y-125000000D01*
X369750000Y-125000000D02*
X369750000Y-124450000D01*
X369750000Y-125000000D02*
X369750000Y-125550000D01*
X369750000Y-125000000D02*
X370350000Y-124600000D01*
X370350000Y-124600000D02*
X370350000Y-125400000D01*
X370350000Y-125000000D02*
X370850000Y-125000000D01*
X370350000Y-125400000D02*
X369750000Y-125000000D01*
%TO.C,D9*%
X350350000Y-110750000D02*
X350750000Y-110750000D01*
X350750000Y-110750000D02*
X350750000Y-110200000D01*
X350750000Y-110750000D02*
X350750000Y-111300000D01*
X350750000Y-110750000D02*
X351350000Y-110350000D01*
X351350000Y-110350000D02*
X351350000Y-111150000D01*
X351350000Y-110750000D02*
X351850000Y-110750000D01*
X351350000Y-111150000D02*
X350750000Y-110750000D01*
D10*
%TO.C,S25*%
X300777679Y-123514083D02*
X300580717Y-123548813D01*
X300293955Y-123650148D01*
X300015880Y-123800723D01*
X299836283Y-123933933D01*
X299705927Y-124058461D01*
X299535013Y-124240912D01*
X299413339Y-124414680D01*
X299300347Y-124637689D01*
X299196038Y-124909938D01*
X299167016Y-125321226D01*
X299236476Y-125715149D01*
X299401562Y-125787583D01*
X299566648Y-125860016D01*
X299966399Y-125535673D01*
X300195236Y-125393780D01*
X300621035Y-125217158D01*
X301113439Y-125130333D01*
X301730371Y-125173866D01*
X302274869Y-125382484D01*
X302613723Y-125576591D01*
X303103153Y-126048776D01*
X303395621Y-126555691D01*
X303523003Y-126990172D01*
X303734475Y-126749799D01*
X304061793Y-126590541D01*
X304545515Y-126454476D01*
X306564371Y-126098498D01*
X306077795Y-125930437D01*
X305796864Y-125776888D01*
X305440644Y-125484300D01*
X305249511Y-125264145D01*
X305041013Y-124945509D01*
X304873073Y-124568951D01*
X304820979Y-124273509D01*
X304760202Y-123928826D01*
X304766030Y-123673942D01*
X304844292Y-123253971D01*
X305061593Y-122758713D01*
X300777679Y-123514083D01*
G36*
X304844292Y-123253971D02*
G01*
X304766030Y-123673942D01*
X304760202Y-123928826D01*
X304820979Y-124273509D01*
X304873073Y-124568951D01*
X305041013Y-124945509D01*
X305249511Y-125264145D01*
X305440644Y-125484300D01*
X305796864Y-125776888D01*
X306077795Y-125930437D01*
X306564371Y-126098498D01*
X304545515Y-126454476D01*
X304061793Y-126590541D01*
X303734475Y-126749799D01*
X303523003Y-126990172D01*
X303395621Y-126555691D01*
X303103153Y-126048776D01*
X302613723Y-125576591D01*
X302274869Y-125382484D01*
X301730371Y-125173866D01*
X301113439Y-125130333D01*
X300621035Y-125217158D01*
X300195236Y-125393780D01*
X299966399Y-125535673D01*
X299566648Y-125860016D01*
X299401562Y-125787583D01*
X299236476Y-125715149D01*
X299167016Y-125321226D01*
X299196038Y-124909938D01*
X299300347Y-124637689D01*
X299413339Y-124414680D01*
X299535013Y-124240912D01*
X299705927Y-124058461D01*
X299836283Y-123933933D01*
X300015880Y-123800723D01*
X300293955Y-123650148D01*
X300580717Y-123548813D01*
X300777679Y-123514083D01*
X305061593Y-122758713D01*
X304844292Y-123253971D01*
G37*
%TO.C,D27*%
D11*
X266840281Y-148537500D02*
X267186691Y-148337500D01*
X267186691Y-148337500D02*
X266911691Y-147861186D01*
X267186691Y-148337500D02*
X267461691Y-148813814D01*
X267186691Y-148337500D02*
X267506306Y-147691090D01*
X267506306Y-147691090D02*
X267906306Y-148383910D01*
X267706306Y-148037500D02*
X268139319Y-147787500D01*
X267906306Y-148383910D02*
X267186691Y-148337500D01*
D10*
%TO.C,S16*%
X328500000Y-37500000D02*
X328300000Y-37500000D01*
X328000000Y-37550000D01*
X327700000Y-37650000D01*
X327500000Y-37750000D01*
X327350000Y-37850000D01*
X327150000Y-38000000D01*
X327000000Y-38150000D01*
X326850000Y-38350000D01*
X326700000Y-38600000D01*
X326600000Y-39000000D01*
X326600000Y-39400000D01*
X326750000Y-39500000D01*
X326900000Y-39600000D01*
X327350000Y-39350000D01*
X327600000Y-39250000D01*
X328050000Y-39150000D01*
X328550000Y-39150000D01*
X329150000Y-39300000D01*
X329650000Y-39600000D01*
X329950000Y-39850000D01*
X330350000Y-40400000D01*
X330550000Y-40950000D01*
X330600000Y-41400000D01*
X330850000Y-41200000D01*
X331200000Y-41100000D01*
X331700000Y-41050000D01*
X333750000Y-41050000D01*
X333300000Y-40800000D01*
X333050000Y-40600000D01*
X332750000Y-40250000D01*
X332600000Y-40000000D01*
X332450000Y-39650000D01*
X332350000Y-39250000D01*
X332350000Y-38950000D01*
X332350000Y-38600000D01*
X332400000Y-38350000D01*
X332550000Y-37950000D01*
X332850000Y-37500000D01*
X328500000Y-37500000D01*
G36*
X332550000Y-37950000D02*
G01*
X332400000Y-38350000D01*
X332350000Y-38600000D01*
X332350000Y-38950000D01*
X332350000Y-39250000D01*
X332450000Y-39650000D01*
X332600000Y-40000000D01*
X332750000Y-40250000D01*
X333050000Y-40600000D01*
X333300000Y-40800000D01*
X333750000Y-41050000D01*
X331700000Y-41050000D01*
X331200000Y-41100000D01*
X330850000Y-41200000D01*
X330600000Y-41400000D01*
X330550000Y-40950000D01*
X330350000Y-40400000D01*
X329950000Y-39850000D01*
X329650000Y-39600000D01*
X329150000Y-39300000D01*
X328550000Y-39150000D01*
X328050000Y-39150000D01*
X327600000Y-39250000D01*
X327350000Y-39350000D01*
X326900000Y-39600000D01*
X326750000Y-39500000D01*
X326600000Y-39400000D01*
X326600000Y-39000000D01*
X326700000Y-38600000D01*
X326850000Y-38350000D01*
X327000000Y-38150000D01*
X327150000Y-38000000D01*
X327350000Y-37850000D01*
X327500000Y-37750000D01*
X327700000Y-37650000D01*
X328000000Y-37550000D01*
X328300000Y-37500000D01*
X328500000Y-37500000D01*
X332850000Y-37500000D01*
X332550000Y-37950000D01*
G37*
%TO.C,S14*%
X328500000Y-75500000D02*
X328300000Y-75500000D01*
X328000000Y-75550000D01*
X327700000Y-75650000D01*
X327500000Y-75750000D01*
X327350000Y-75850000D01*
X327150000Y-76000000D01*
X327000000Y-76150000D01*
X326850000Y-76350000D01*
X326700000Y-76600000D01*
X326600000Y-77000000D01*
X326600000Y-77400000D01*
X326750000Y-77500000D01*
X326900000Y-77600000D01*
X327350000Y-77350000D01*
X327600000Y-77250000D01*
X328050000Y-77150000D01*
X328550000Y-77150000D01*
X329150000Y-77300000D01*
X329650000Y-77600000D01*
X329950000Y-77850000D01*
X330350000Y-78400000D01*
X330550000Y-78950000D01*
X330600000Y-79400000D01*
X330850000Y-79200000D01*
X331200000Y-79100000D01*
X331700000Y-79050000D01*
X333750000Y-79050000D01*
X333300000Y-78800000D01*
X333050000Y-78600000D01*
X332750000Y-78250000D01*
X332600000Y-78000000D01*
X332450000Y-77650000D01*
X332350000Y-77250000D01*
X332350000Y-76950000D01*
X332350000Y-76600000D01*
X332400000Y-76350000D01*
X332550000Y-75950000D01*
X332850000Y-75500000D01*
X328500000Y-75500000D01*
G36*
X332550000Y-75950000D02*
G01*
X332400000Y-76350000D01*
X332350000Y-76600000D01*
X332350000Y-76950000D01*
X332350000Y-77250000D01*
X332450000Y-77650000D01*
X332600000Y-78000000D01*
X332750000Y-78250000D01*
X333050000Y-78600000D01*
X333300000Y-78800000D01*
X333750000Y-79050000D01*
X331700000Y-79050000D01*
X331200000Y-79100000D01*
X330850000Y-79200000D01*
X330600000Y-79400000D01*
X330550000Y-78950000D01*
X330350000Y-78400000D01*
X329950000Y-77850000D01*
X329650000Y-77600000D01*
X329150000Y-77300000D01*
X328550000Y-77150000D01*
X328050000Y-77150000D01*
X327600000Y-77250000D01*
X327350000Y-77350000D01*
X326900000Y-77600000D01*
X326750000Y-77500000D01*
X326600000Y-77400000D01*
X326600000Y-77000000D01*
X326700000Y-76600000D01*
X326850000Y-76350000D01*
X327000000Y-76150000D01*
X327150000Y-76000000D01*
X327350000Y-75850000D01*
X327500000Y-75750000D01*
X327700000Y-75650000D01*
X328000000Y-75550000D01*
X328300000Y-75500000D01*
X328500000Y-75500000D01*
X332850000Y-75500000D01*
X332550000Y-75950000D01*
G37*
%TO.C,D1*%
D11*
X388350000Y-125000000D02*
X388750000Y-125000000D01*
X388750000Y-125000000D02*
X388750000Y-124450000D01*
X388750000Y-125000000D02*
X388750000Y-125550000D01*
X388750000Y-125000000D02*
X389350000Y-124600000D01*
X389350000Y-124600000D02*
X389350000Y-125400000D01*
X389350000Y-125000000D02*
X389850000Y-125000000D01*
X389350000Y-125400000D02*
X388750000Y-125000000D01*
%TO.C,D6*%
X369350000Y-106000000D02*
X369750000Y-106000000D01*
X369750000Y-106000000D02*
X369750000Y-105450000D01*
X369750000Y-106000000D02*
X369750000Y-106550000D01*
X369750000Y-106000000D02*
X370350000Y-105600000D01*
X370350000Y-105600000D02*
X370350000Y-106400000D01*
X370350000Y-106000000D02*
X370850000Y-106000000D01*
X370350000Y-106400000D02*
X369750000Y-106000000D01*
%TO.C,D12*%
X350350000Y-53750000D02*
X350750000Y-53750000D01*
X350750000Y-53750000D02*
X350750000Y-53200000D01*
X350750000Y-53750000D02*
X350750000Y-54300000D01*
X350750000Y-53750000D02*
X351350000Y-53350000D01*
X351350000Y-53350000D02*
X351350000Y-54150000D01*
X351350000Y-53750000D02*
X351850000Y-53750000D01*
X351350000Y-54150000D02*
X350750000Y-53750000D01*
D10*
%TO.C,S6*%
X366500000Y-94500000D02*
X366300000Y-94500000D01*
X366000000Y-94550000D01*
X365700000Y-94650000D01*
X365500000Y-94750000D01*
X365350000Y-94850000D01*
X365150000Y-95000000D01*
X365000000Y-95150000D01*
X364850000Y-95350000D01*
X364700000Y-95600000D01*
X364600000Y-96000000D01*
X364600000Y-96400000D01*
X364750000Y-96500000D01*
X364900000Y-96600000D01*
X365350000Y-96350000D01*
X365600000Y-96250000D01*
X366050000Y-96150000D01*
X366550000Y-96150000D01*
X367150000Y-96300000D01*
X367650000Y-96600000D01*
X367950000Y-96850000D01*
X368350000Y-97400000D01*
X368550000Y-97950000D01*
X368600000Y-98400000D01*
X368850000Y-98200000D01*
X369200000Y-98100000D01*
X369700000Y-98050000D01*
X371750000Y-98050000D01*
X371300000Y-97800000D01*
X371050000Y-97600000D01*
X370750000Y-97250000D01*
X370600000Y-97000000D01*
X370450000Y-96650000D01*
X370350000Y-96250000D01*
X370350000Y-95950000D01*
X370350000Y-95600000D01*
X370400000Y-95350000D01*
X370550000Y-94950000D01*
X370850000Y-94500000D01*
X366500000Y-94500000D01*
G36*
X370550000Y-94950000D02*
G01*
X370400000Y-95350000D01*
X370350000Y-95600000D01*
X370350000Y-95950000D01*
X370350000Y-96250000D01*
X370450000Y-96650000D01*
X370600000Y-97000000D01*
X370750000Y-97250000D01*
X371050000Y-97600000D01*
X371300000Y-97800000D01*
X371750000Y-98050000D01*
X369700000Y-98050000D01*
X369200000Y-98100000D01*
X368850000Y-98200000D01*
X368600000Y-98400000D01*
X368550000Y-97950000D01*
X368350000Y-97400000D01*
X367950000Y-96850000D01*
X367650000Y-96600000D01*
X367150000Y-96300000D01*
X366550000Y-96150000D01*
X366050000Y-96150000D01*
X365600000Y-96250000D01*
X365350000Y-96350000D01*
X364900000Y-96600000D01*
X364750000Y-96500000D01*
X364600000Y-96400000D01*
X364600000Y-96000000D01*
X364700000Y-95600000D01*
X364850000Y-95350000D01*
X365000000Y-95150000D01*
X365150000Y-95000000D01*
X365350000Y-94850000D01*
X365500000Y-94750000D01*
X365700000Y-94650000D01*
X366000000Y-94550000D01*
X366300000Y-94500000D01*
X366500000Y-94500000D01*
X370850000Y-94500000D01*
X370550000Y-94950000D01*
G37*
%TO.C,S23*%
X290500000Y-63625000D02*
X290300000Y-63625000D01*
X290000000Y-63675000D01*
X289700000Y-63775000D01*
X289500000Y-63875000D01*
X289350000Y-63975000D01*
X289150000Y-64125000D01*
X289000000Y-64275000D01*
X288850000Y-64475000D01*
X288700000Y-64725000D01*
X288600000Y-65125000D01*
X288600000Y-65525000D01*
X288750000Y-65625000D01*
X288900000Y-65725000D01*
X289350000Y-65475000D01*
X289600000Y-65375000D01*
X290050000Y-65275000D01*
X290550000Y-65275000D01*
X291150000Y-65425000D01*
X291650000Y-65725000D01*
X291950000Y-65975000D01*
X292350000Y-66525000D01*
X292550000Y-67075000D01*
X292600000Y-67525000D01*
X292850000Y-67325000D01*
X293200000Y-67225000D01*
X293700000Y-67175000D01*
X295750000Y-67175000D01*
X295300000Y-66925000D01*
X295050000Y-66725000D01*
X294750000Y-66375000D01*
X294600000Y-66125000D01*
X294450000Y-65775000D01*
X294350000Y-65375000D01*
X294350000Y-65075000D01*
X294350000Y-64725000D01*
X294400000Y-64475000D01*
X294550000Y-64075000D01*
X294850000Y-63625000D01*
X290500000Y-63625000D01*
G36*
X294550000Y-64075000D02*
G01*
X294400000Y-64475000D01*
X294350000Y-64725000D01*
X294350000Y-65075000D01*
X294350000Y-65375000D01*
X294450000Y-65775000D01*
X294600000Y-66125000D01*
X294750000Y-66375000D01*
X295050000Y-66725000D01*
X295300000Y-66925000D01*
X295750000Y-67175000D01*
X293700000Y-67175000D01*
X293200000Y-67225000D01*
X292850000Y-67325000D01*
X292600000Y-67525000D01*
X292550000Y-67075000D01*
X292350000Y-66525000D01*
X291950000Y-65975000D01*
X291650000Y-65725000D01*
X291150000Y-65425000D01*
X290550000Y-65275000D01*
X290050000Y-65275000D01*
X289600000Y-65375000D01*
X289350000Y-65475000D01*
X288900000Y-65725000D01*
X288750000Y-65625000D01*
X288600000Y-65525000D01*
X288600000Y-65125000D01*
X288700000Y-64725000D01*
X288850000Y-64475000D01*
X289000000Y-64275000D01*
X289150000Y-64125000D01*
X289350000Y-63975000D01*
X289500000Y-63875000D01*
X289700000Y-63775000D01*
X290000000Y-63675000D01*
X290300000Y-63625000D01*
X290500000Y-63625000D01*
X294850000Y-63625000D01*
X294550000Y-64075000D01*
G37*
%TD*%
%LPC*%
D12*
%TO.C,JST1*%
X261800000Y-85675000D03*
D13*
X261800000Y-83675000D03*
%TD*%
D14*
%TO.C,MH1*%
X359600000Y-58250000D03*
%TD*%
%TO.C,MH5*%
X273362500Y-135534300D03*
%TD*%
D15*
%TO.C,PWR1*%
X256125000Y-84700000D03*
X256125000Y-81700000D03*
%TD*%
D14*
%TO.C,MH2*%
X360600000Y-110500000D03*
%TD*%
D16*
%TO.C,MCU1*%
X275920000Y-47925000D03*
X275920000Y-50465000D03*
X275920000Y-53005000D03*
X275920000Y-55545000D03*
X275920000Y-58085000D03*
X275920000Y-60625000D03*
X275920000Y-63165000D03*
X275920000Y-65705000D03*
X275920000Y-68245000D03*
X275920000Y-70785000D03*
X275920000Y-73325000D03*
X275920000Y-75865000D03*
X260680000Y-75865000D03*
X260680000Y-73325000D03*
X260680000Y-70785000D03*
X260680000Y-68245000D03*
X260680000Y-65705000D03*
X260680000Y-63165000D03*
X260680000Y-60625000D03*
X260680000Y-58085000D03*
X260680000Y-55545000D03*
X260680000Y-53005000D03*
X260680000Y-50465000D03*
X260680000Y-47925000D03*
%TD*%
D14*
%TO.C,MH4*%
X307400000Y-117150000D03*
%TD*%
%TO.C,MH3*%
X303980000Y-59625000D03*
%TD*%
D17*
%TO.C,S22*%
X289020000Y-89125000D03*
D18*
X290290000Y-86585000D03*
D19*
X294100000Y-89125000D03*
D18*
X296640000Y-84045000D03*
D17*
X299180000Y-89125000D03*
D20*
X287015000Y-86585000D03*
X299942000Y-84045000D03*
%TD*%
D21*
%TO.C,D18*%
X311450000Y-91750000D03*
X314750000Y-91750000D03*
%TD*%
%TO.C,D23*%
X292450000Y-75125000D03*
X295750000Y-75125000D03*
%TD*%
D17*
%TO.C,S11*%
X346020000Y-67750000D03*
D18*
X347290000Y-65210000D03*
D19*
X351100000Y-67750000D03*
D18*
X353640000Y-62670000D03*
D17*
X356180000Y-67750000D03*
D20*
X344015000Y-65210000D03*
X356942000Y-62670000D03*
%TD*%
D17*
%TO.C,S12*%
X346020000Y-48750000D03*
D18*
X347290000Y-46210000D03*
D19*
X351100000Y-48750000D03*
D18*
X353640000Y-43670000D03*
D17*
X356180000Y-48750000D03*
D20*
X344015000Y-46210000D03*
X356942000Y-43670000D03*
%TD*%
D21*
%TO.C,D24*%
X292450000Y-56125000D03*
X295750000Y-56125000D03*
%TD*%
D17*
%TO.C,S3*%
X384020000Y-82000000D03*
D18*
X385290000Y-79460000D03*
D19*
X389100000Y-82000000D03*
D18*
X391640000Y-76920000D03*
D17*
X394180000Y-82000000D03*
D20*
X382015000Y-79460000D03*
X394942000Y-76920000D03*
%TD*%
D21*
%TO.C,D21*%
X292450000Y-113125000D03*
X295750000Y-113125000D03*
%TD*%
D17*
%TO.C,S7*%
X365020000Y-82000000D03*
D18*
X366290000Y-79460000D03*
D19*
X370100000Y-82000000D03*
D18*
X372640000Y-76920000D03*
D17*
X375180000Y-82000000D03*
D20*
X363015000Y-79460000D03*
X375942000Y-76920000D03*
%TD*%
D17*
%TO.C,S15*%
X327020000Y-63000000D03*
D18*
X328290000Y-60460000D03*
D19*
X332100000Y-63000000D03*
D18*
X334640000Y-57920000D03*
D17*
X337180000Y-63000000D03*
D20*
X325015000Y-60460000D03*
X337942000Y-57920000D03*
%TD*%
D21*
%TO.C,D10*%
X349450000Y-91750000D03*
X352750000Y-91750000D03*
%TD*%
%TO.C,D4*%
X387450000Y-68000000D03*
X390750000Y-68000000D03*
%TD*%
%TO.C,D2*%
X387450000Y-106000000D03*
X390750000Y-106000000D03*
%TD*%
D17*
%TO.C,S8*%
X365020000Y-63000000D03*
D18*
X366290000Y-60460000D03*
D19*
X370100000Y-63000000D03*
D18*
X372640000Y-57920000D03*
D17*
X375180000Y-63000000D03*
D20*
X363015000Y-60460000D03*
X375942000Y-57920000D03*
%TD*%
D17*
%TO.C,S20*%
X308020000Y-48750000D03*
D18*
X309290000Y-46210000D03*
D19*
X313100000Y-48750000D03*
D18*
X315640000Y-43670000D03*
D17*
X318180000Y-48750000D03*
D20*
X306015000Y-46210000D03*
X318942000Y-43670000D03*
%TD*%
D21*
%TO.C,D8*%
X368450000Y-68000000D03*
X371750000Y-68000000D03*
%TD*%
D17*
%TO.C,S2*%
X384020000Y-101000000D03*
D18*
X385290000Y-98460000D03*
D19*
X389100000Y-101000000D03*
D18*
X391640000Y-95920000D03*
D17*
X394180000Y-101000000D03*
D20*
X382015000Y-98460000D03*
X394942000Y-95920000D03*
%TD*%
D17*
%TO.C,S13*%
X327020000Y-101000000D03*
D18*
X328290000Y-98460000D03*
D19*
X332100000Y-101000000D03*
D18*
X334640000Y-95920000D03*
D17*
X337180000Y-101000000D03*
D20*
X325015000Y-98460000D03*
X337942000Y-95920000D03*
%TD*%
D17*
%TO.C,S10*%
X346020000Y-86750000D03*
D18*
X347290000Y-84210000D03*
D19*
X351100000Y-86750000D03*
D18*
X353640000Y-81670000D03*
D17*
X356180000Y-86750000D03*
D20*
X344015000Y-84210000D03*
X356942000Y-81670000D03*
%TD*%
D21*
%TO.C,D3*%
X387450000Y-87000000D03*
X390750000Y-87000000D03*
%TD*%
D17*
%TO.C,S17*%
X308020000Y-105750000D03*
D18*
X309290000Y-103210000D03*
D19*
X313100000Y-105750000D03*
D18*
X315640000Y-100670000D03*
D17*
X318180000Y-105750000D03*
D20*
X306015000Y-103210000D03*
X318942000Y-100670000D03*
%TD*%
D17*
%TO.C,S19*%
X308020000Y-67750000D03*
D18*
X309290000Y-65210000D03*
D19*
X313100000Y-67750000D03*
D18*
X315640000Y-62670000D03*
D17*
X318180000Y-67750000D03*
D20*
X306015000Y-65210000D03*
X318942000Y-62670000D03*
%TD*%
D22*
%TO.C,D25*%
X304695067Y-134500719D03*
X307944933Y-133927681D03*
%TD*%
D21*
%TO.C,D16*%
X330450000Y-49000000D03*
X333750000Y-49000000D03*
%TD*%
D17*
%TO.C,S5*%
X365020000Y-120000000D03*
D18*
X366290000Y-117460000D03*
D19*
X370100000Y-120000000D03*
D18*
X372640000Y-114920000D03*
D17*
X375180000Y-120000000D03*
D20*
X363015000Y-117460000D03*
X375942000Y-114920000D03*
%TD*%
D17*
%TO.C,S27*%
X260590391Y-146372300D03*
D18*
X260420243Y-143537595D03*
D19*
X264989800Y-143832300D03*
D18*
X264649505Y-138162891D03*
D17*
X269389209Y-141292300D03*
D23*
X257584010Y-145175095D03*
X267509120Y-136511891D03*
%TD*%
D17*
%TO.C,S9*%
X346020000Y-105750000D03*
D18*
X347290000Y-103210000D03*
D19*
X351100000Y-105750000D03*
D18*
X353640000Y-100670000D03*
D17*
X356180000Y-105750000D03*
D20*
X344015000Y-103210000D03*
X356942000Y-100670000D03*
%TD*%
D17*
%TO.C,S21*%
X289020000Y-108125000D03*
D18*
X290290000Y-105585000D03*
D19*
X294100000Y-108125000D03*
D18*
X296640000Y-103045000D03*
D17*
X299180000Y-108125000D03*
D20*
X287015000Y-105585000D03*
X299942000Y-103045000D03*
%TD*%
D21*
%TO.C,D17*%
X311450000Y-110750000D03*
X314750000Y-110750000D03*
%TD*%
D24*
%TO.C,D26*%
X284744207Y-140054033D03*
X287845193Y-138925367D03*
%TD*%
D21*
%TO.C,D14*%
X330450000Y-87000000D03*
X333750000Y-87000000D03*
%TD*%
D17*
%TO.C,S4*%
X384020000Y-63000000D03*
D18*
X385290000Y-60460000D03*
D19*
X389100000Y-63000000D03*
D18*
X391640000Y-57920000D03*
D17*
X394180000Y-63000000D03*
D20*
X382015000Y-60460000D03*
X394942000Y-57920000D03*
%TD*%
D21*
%TO.C,D11*%
X349450000Y-72750000D03*
X352750000Y-72750000D03*
%TD*%
%TO.C,D20*%
X311450000Y-53750000D03*
X314750000Y-53750000D03*
%TD*%
D17*
%TO.C,S24*%
X289020000Y-51125000D03*
D18*
X290290000Y-48585000D03*
D19*
X294100000Y-51125000D03*
D18*
X296640000Y-46045000D03*
D17*
X299180000Y-51125000D03*
D20*
X287015000Y-48585000D03*
X299942000Y-46045000D03*
%TD*%
D21*
%TO.C,D13*%
X330450000Y-106000000D03*
X333750000Y-106000000D03*
%TD*%
D17*
%TO.C,S18*%
X308020000Y-86750000D03*
D18*
X309290000Y-84210000D03*
D19*
X313100000Y-86750000D03*
D18*
X315640000Y-81670000D03*
D17*
X318180000Y-86750000D03*
D20*
X306015000Y-84210000D03*
X318942000Y-81670000D03*
%TD*%
D21*
%TO.C,D22*%
X292450000Y-94125000D03*
X295750000Y-94125000D03*
%TD*%
D17*
%TO.C,S1*%
X384020000Y-120000000D03*
D18*
X385290000Y-117460000D03*
D19*
X389100000Y-120000000D03*
D18*
X391640000Y-114920000D03*
D17*
X394180000Y-120000000D03*
D20*
X382015000Y-117460000D03*
X394942000Y-114920000D03*
%TD*%
D21*
%TO.C,D7*%
X368450000Y-87000000D03*
X371750000Y-87000000D03*
%TD*%
%TO.C,D19*%
X311450000Y-72750000D03*
X314750000Y-72750000D03*
%TD*%
%TO.C,D15*%
X330450000Y-68000000D03*
X333750000Y-68000000D03*
%TD*%
D17*
%TO.C,S26*%
X279810961Y-136528762D03*
D18*
X280135640Y-133707577D03*
D19*
X284584600Y-134791300D03*
D18*
X285233957Y-129148930D03*
D17*
X289358239Y-133053838D03*
D25*
X277058148Y-134827693D03*
X288336822Y-128019580D03*
%TD*%
D21*
%TO.C,D5*%
X368450000Y-125000000D03*
X371750000Y-125000000D03*
%TD*%
%TO.C,D9*%
X349450000Y-110750000D03*
X352750000Y-110750000D03*
%TD*%
D17*
%TO.C,S25*%
X300448877Y-130172333D03*
D18*
X301258516Y-127450388D03*
D19*
X305451700Y-129290200D03*
D18*
X307070979Y-123846310D03*
D17*
X310454523Y-128408067D03*
D26*
X298033271Y-128019086D03*
X310322814Y-123272924D03*
%TD*%
D27*
%TO.C,D27*%
X266060858Y-148987500D03*
X268918742Y-147337500D03*
%TD*%
D17*
%TO.C,S16*%
X327020000Y-44000000D03*
D18*
X328290000Y-41460000D03*
D19*
X332100000Y-44000000D03*
D18*
X334640000Y-38920000D03*
D17*
X337180000Y-44000000D03*
D20*
X325015000Y-41460000D03*
X337942000Y-38920000D03*
%TD*%
D17*
%TO.C,S14*%
X327020000Y-82000000D03*
D18*
X328290000Y-79460000D03*
D19*
X332100000Y-82000000D03*
D18*
X334640000Y-76920000D03*
D17*
X337180000Y-82000000D03*
D20*
X325015000Y-79460000D03*
X337942000Y-76920000D03*
%TD*%
D21*
%TO.C,D1*%
X387450000Y-125000000D03*
X390750000Y-125000000D03*
%TD*%
%TO.C,D6*%
X368450000Y-106000000D03*
X371750000Y-106000000D03*
%TD*%
%TO.C,D12*%
X349450000Y-53750000D03*
X352750000Y-53750000D03*
%TD*%
D17*
%TO.C,S6*%
X365020000Y-101000000D03*
D18*
X366290000Y-98460000D03*
D19*
X370100000Y-101000000D03*
D18*
X372640000Y-95920000D03*
D17*
X375180000Y-101000000D03*
D20*
X363015000Y-98460000D03*
X375942000Y-95920000D03*
%TD*%
D17*
%TO.C,S23*%
X289020000Y-70125000D03*
D18*
X290290000Y-67585000D03*
D19*
X294100000Y-70125000D03*
D18*
X296640000Y-65045000D03*
D17*
X299180000Y-70125000D03*
D20*
X287015000Y-67585000D03*
X299942000Y-65045000D03*
%TD*%
%LPD*%
M02*
