%TF.GenerationSoftware,KiCad,Pcbnew,10.0.3-2.fc44*%
%TF.CreationDate,2026-06-13T07:30:53-07:00*%
%TF.ProjectId,pepekey_r,70657065-6b65-4795-9f72-2e6b69636164,1*%
%TF.SameCoordinates,Original*%
%TF.FileFunction,Profile,NP*%
%FSLAX46Y46*%
G04 Gerber Fmt 4.6, Leading zero omitted, Abs format (unit mm)*
G04 Created by KiCad (PCBNEW 10.0.3-2.fc44) date 2026-06-13 07:30:53*
%MOMM*%
%LPD*%
G01*
G04 APERTURE LIST*
%TA.AperFunction,Profile*%
%ADD10C,0.150000*%
%TD*%
G04 APERTURE END LIST*
D10*
X251396530Y-141288107D02*
G75*
G02*
X252128573Y-138556042I1732070J1000007D01*
G01*
X251396530Y-141288107D02*
X260396530Y-156876564D01*
X254075000Y-45575000D02*
X254075000Y-88725000D01*
X254075000Y-45575000D02*
G75*
G02*
X256075000Y-43575000I2000000J0D01*
G01*
X256075000Y-90725000D02*
G75*
G02*
X254075000Y-88725000I0J2000000D01*
G01*
X256075000Y-90725000D02*
X279613405Y-90725000D01*
X263128581Y-157608615D02*
G75*
G02*
X260396532Y-156876563I-999981J1732115D01*
G01*
X263128581Y-157608615D02*
X277851013Y-149108615D01*
X266851013Y-130056056D02*
X252128581Y-138556056D01*
X266851013Y-130056056D02*
G75*
G02*
X268387233Y-129861350I999987J-1732144D01*
G01*
X268387238Y-129861332D02*
X268524635Y-129296329D01*
X268524635Y-129296329D02*
G75*
G02*
X268698245Y-128837245I1943165J-472471D01*
G01*
X268698252Y-128837249D02*
X269843346Y-126662080D01*
X269843346Y-126662080D02*
G75*
G02*
X270929065Y-125714393I1769554J-931520D01*
G01*
X270929053Y-125714359D02*
X278733700Y-122873700D01*
X274862487Y-135534259D02*
G75*
G02*
X271862487Y-135534259I-1500000J0D01*
G01*
X271862487Y-135534259D02*
G75*
G02*
X274862487Y-135534259I1500000J0D01*
G01*
X278770260Y-147939141D02*
G75*
G02*
X277851010Y-149108610I-1919060J562441D01*
G01*
X280049451Y-120965479D02*
G75*
G02*
X278733708Y-122873723I-1999851J-28821D01*
G01*
X280049451Y-120965479D02*
X279613405Y-90725000D01*
X280359454Y-148035075D02*
G75*
G02*
X278770258Y-147939146I-684054J1879275D01*
G01*
X280359454Y-148035075D02*
X296334229Y-142220733D01*
X282525000Y-43575000D02*
X256075000Y-43575000D01*
X282525000Y-43575000D02*
G75*
G02*
X283600000Y-43888473I0J-2000000D01*
G01*
X283600000Y-42125000D02*
G75*
G02*
X285600000Y-40125000I2000000J0D01*
G01*
X283600000Y-43888473D02*
X283600000Y-42125000D01*
X285600000Y-40125000D02*
X302600000Y-40125000D01*
X296574829Y-142114773D02*
G75*
G02*
X296334228Y-142220730I-925129J1774573D01*
G01*
X298048602Y-141594901D02*
X296574829Y-142114773D01*
X298048602Y-141594901D02*
G75*
G02*
X298140177Y-141565056I663398J-1880099D01*
G01*
X298990979Y-141599089D02*
G75*
G02*
X298140178Y-141565052I-347279J1969789D01*
G01*
X298990979Y-141599089D02*
X315732711Y-138647070D01*
X302600000Y-39750000D02*
X302600000Y-40125000D01*
X302600000Y-39750000D02*
G75*
G02*
X304600000Y-37750000I2000000J0D01*
G01*
X305480000Y-59625000D02*
G75*
G02*
X302480000Y-59625000I-1500000J0D01*
G01*
X302480000Y-59625000D02*
G75*
G02*
X305480000Y-59625000I1500000J0D01*
G01*
X304600000Y-37750000D02*
X319600000Y-37750000D01*
X308900000Y-117150000D02*
G75*
G02*
X305900000Y-117150000I-1500000J0D01*
G01*
X305900000Y-117150000D02*
G75*
G02*
X308900000Y-117150000I1500000J0D01*
G01*
X313902519Y-116750000D02*
X317351559Y-136310475D01*
X313902519Y-116750000D02*
X321600000Y-116750000D01*
X317355030Y-136330158D02*
G75*
G02*
X315732708Y-138647054I-1969530J-347342D01*
G01*
X317355030Y-136330158D02*
X317351559Y-136310475D01*
X321600000Y-35000000D02*
X321600000Y-35750000D01*
X321600000Y-35000000D02*
G75*
G02*
X323600000Y-33000000I2000000J0D01*
G01*
X321600000Y-35750000D02*
G75*
G02*
X319600000Y-37750000I-2000000J0D01*
G01*
X323600000Y-114000000D02*
G75*
G02*
X325600000Y-112000000I2000000J0D01*
G01*
X323600000Y-114750000D02*
G75*
G02*
X321600000Y-116750000I-2000000J0D01*
G01*
X323600000Y-114750000D02*
X323600000Y-114000000D01*
X325600000Y-112000000D02*
X338600000Y-112000000D01*
X338600000Y-112000000D02*
G75*
G02*
X340600000Y-114000000I0J-2000000D01*
G01*
X340600000Y-33000000D02*
X323600000Y-33000000D01*
X340600000Y-33000000D02*
G75*
G02*
X342600000Y-35000000I0J-2000000D01*
G01*
X340600000Y-114000000D02*
X340600000Y-114750000D01*
X342600000Y-35750000D02*
X342600000Y-35000000D01*
X342600000Y-116750000D02*
G75*
G02*
X340600000Y-114750000I0J2000000D01*
G01*
X342600000Y-116750000D02*
X347600000Y-116750000D01*
X344600000Y-37750000D02*
G75*
G02*
X342600000Y-35750000I0J2000000D01*
G01*
X344600000Y-37750000D02*
X359600000Y-37750000D01*
X347600000Y-116750000D02*
G75*
G02*
X349600000Y-118750000I0J-2000000D01*
G01*
X349600000Y-120000000D02*
X349600000Y-118750000D01*
X351600000Y-122000000D02*
G75*
G02*
X349600000Y-120000000I0J2000000D01*
G01*
X357600000Y-122000000D02*
X351600000Y-122000000D01*
X357600000Y-122000000D02*
G75*
G02*
X359600000Y-124000000I0J-2000000D01*
G01*
X359600000Y-37750000D02*
G75*
G02*
X361600000Y-39750000I0J-2000000D01*
G01*
X361100000Y-58250000D02*
G75*
G02*
X358100000Y-58250000I-1500000J0D01*
G01*
X358100000Y-58250000D02*
G75*
G02*
X361100000Y-58250000I1500000J0D01*
G01*
X359600000Y-124000000D02*
X359600000Y-129000000D01*
X362100000Y-110500000D02*
G75*
G02*
X359100000Y-110500000I-1500000J0D01*
G01*
X359100000Y-110500000D02*
G75*
G02*
X362100000Y-110500000I1500000J0D01*
G01*
X361600000Y-44750000D02*
X361600000Y-39750000D01*
X361600000Y-131000000D02*
G75*
G02*
X359600000Y-129000000I0J2000000D01*
G01*
X361600000Y-131000000D02*
X397600000Y-131000000D01*
X363600000Y-46750000D02*
G75*
G02*
X361600000Y-44750000I0J2000000D01*
G01*
X363600000Y-46750000D02*
X369600000Y-46750000D01*
X369600000Y-46750000D02*
G75*
G02*
X371600000Y-48750000I0J-2000000D01*
G01*
X371600000Y-48750000D02*
X371600000Y-50000000D01*
X373600000Y-52000000D02*
G75*
G02*
X371600000Y-50000000I0J2000000D01*
G01*
X373600000Y-52000000D02*
X397600000Y-52000000D01*
X397600000Y-52000000D02*
G75*
G02*
X399600000Y-54000000I0J-2000000D01*
G01*
X399600000Y-129000000D02*
G75*
G02*
X397600000Y-131000000I-2000000J0D01*
G01*
X399600000Y-129000000D02*
X399600000Y-54000000D01*
M02*
