M48
; DRILL file KiCad 10.0.3-2.fc44 date 2026-06-13T07:30:53
; FORMAT={-:-/ absolute / inch / decimal}
; #@! TF.CreationDate,2026-06-13T07:30:53-07:00
; #@! TF.GenerationSoftware,Kicad,Pcbnew,10.0.3-2.fc44
; #@! TF.FileFunction,Plated,1,2,PTH
FMAT,2
INCH
; #@! TA.AperFunction,Plated,PTH,ViaDrill
T1C0.0118
; #@! TA.AperFunction,Plated,PTH,ComponentDrill
T2C0.0295
; #@! TA.AperFunction,Plated,PTH,ComponentDrill
T3C0.0394
%
G90
G05
T1
X10.2026Y-3.3051
X11.2998Y-2.9953
X11.3242Y-2.5868
X11.4755Y-3.6988
X11.5138Y-4.4097
X11.663Y-2.8954
X11.671Y-2.826
X11.7723Y-2.1597
X12.0478Y-2.9264
X12.2147Y-4.4097
X12.2618Y-2.1597
X12.2618Y-2.9083
X12.2618Y-3.6988
X12.7286Y-4.4097
X12.7959Y-2.6436
X12.8202Y-2.9083
X13.0098Y-3.6988
X13.5439Y-2.6613
X13.7579Y-2.1597
X13.7579Y-2.9078
X13.7579Y-3.5688
X14.292Y-2.4634
X14.5059Y-2.6331
X14.5059Y-3.3814
X14.5059Y-4.1298
X15.0144Y-2.1152
T2
X10.3071Y-3.2943
X10.3071Y-3.373
T3
X10.263Y-1.8868
X10.263Y-1.9868
X10.263Y-2.0868
X10.263Y-2.1868
X10.263Y-2.2868
X10.263Y-2.3868
X10.263Y-2.4868
X10.263Y-2.5868
X10.263Y-2.6868
X10.263Y-2.7868
X10.263Y-2.8868
X10.263Y-2.9868
X10.863Y-1.8868
X10.863Y-1.9868
X10.863Y-2.0868
X10.863Y-2.1868
X10.863Y-2.2868
X10.863Y-2.3868
X10.863Y-2.4868
X10.863Y-2.5868
X10.863Y-2.6868
X10.863Y-2.7868
X10.863Y-2.8868
X10.863Y-2.9868
M30
