%TF.GenerationSoftware,KiCad,Pcbnew,10.0.3-2.fc44*%
%TF.CreationDate,2026-06-13T07:30:53-07:00*%
%TF.ProjectId,pepekey_r,70657065-6b65-4795-9f72-2e6b69636164,1*%
%TF.SameCoordinates,Original*%
%TF.FileFunction,Soldermask,Top*%
%TF.FilePolarity,Negative*%
%FSLAX46Y46*%
G04 Gerber Fmt 4.6, Leading zero omitted, Abs format (unit mm)*
G04 Created by KiCad (PCBNEW 10.0.3-2.fc44) date 2026-06-13 07:30:53*
%MOMM*%
%LPD*%
G01*
G04 APERTURE LIST*
G04 Aperture macros list*
%AMRoundRect*
0 Rectangle with rounded corners*
0 $1 Rounding radius*
0 $2 $3 $4 $5 $6 $7 $8 $9 X,Y pos of 4 corners*
0 Add a 4 corners polygon primitive as box body*
4,1,4,$2,$3,$4,$5,$6,$7,$8,$9,$2,$3,0*
0 Add four circle primitives for the rounded corners*
1,1,$1+$1,$2,$3*
1,1,$1+$1,$4,$5*
1,1,$1+$1,$6,$7*
1,1,$1+$1,$8,$9*
0 Add four rect primitives between the rounded corners*
20,1,$1+$1,$2,$3,$4,$5,0*
20,1,$1+$1,$4,$5,$6,$7,0*
20,1,$1+$1,$6,$7,$8,$9,0*
20,1,$1+$1,$8,$9,$2,$3,0*%
G04 Aperture macros list end*
%ADD10RoundRect,0.260000X0.665000X-0.390000X0.665000X0.390000X-0.665000X0.390000X-0.665000X-0.390000X0*%
%ADD11O,1.850000X1.300000*%
%ADD12C,2.300000*%
%ADD13RoundRect,0.050000X-0.500000X0.775000X-0.500000X-0.775000X0.500000X-0.775000X0.500000X0.775000X0*%
%ADD14RoundRect,0.050000X-0.400000X0.500000X-0.400000X-0.500000X0.400000X-0.500000X0.400000X0.500000X0*%
%ADD15C,1.000000*%
%ADD16RoundRect,0.050000X-0.750000X0.350000X-0.750000X-0.350000X0.750000X-0.350000X0.750000X0.350000X0*%
%ADD17C,1.800000*%
%ADD18C,2.000000*%
%ADD19C,3.100000*%
%ADD20C,4.200000*%
G04 APERTURE END LIST*
D10*
%TO.C,JST1*%
X261800000Y-85675000D03*
D11*
X261800000Y-83675000D03*
%TD*%
D12*
%TO.C,MH1*%
X359600000Y-58250000D03*
%TD*%
D13*
%TO.C,RST1*%
X255300000Y-56000000D03*
X257000000Y-56000000D03*
X255300000Y-61250000D03*
X257000000Y-61250000D03*
%TD*%
D12*
%TO.C,MH5*%
X273362500Y-135534300D03*
%TD*%
D14*
%TO.C,PWR1*%
X257235000Y-86850000D03*
X257235000Y-79550000D03*
D15*
X256125000Y-84700000D03*
X256125000Y-81700000D03*
D14*
X255025000Y-86850000D03*
X255025000Y-79550000D03*
D16*
X257885000Y-80950000D03*
X257885000Y-83950000D03*
X257885000Y-85450000D03*
%TD*%
D12*
%TO.C,MH2*%
X360600000Y-110500000D03*
%TD*%
D17*
%TO.C,MCU1*%
X275920000Y-47925000D03*
X275920000Y-50465000D03*
X275920000Y-53005000D03*
X275920000Y-55545000D03*
X275920000Y-58085000D03*
X275920000Y-60625000D03*
X275920000Y-63165000D03*
X275920000Y-65705000D03*
X275920000Y-68245000D03*
X275920000Y-70785000D03*
X275920000Y-73325000D03*
X275920000Y-75865000D03*
X260680000Y-75865000D03*
X260680000Y-73325000D03*
X260680000Y-70785000D03*
X260680000Y-68245000D03*
X260680000Y-65705000D03*
X260680000Y-63165000D03*
X260680000Y-60625000D03*
X260680000Y-58085000D03*
X260680000Y-55545000D03*
X260680000Y-53005000D03*
X260680000Y-50465000D03*
X260680000Y-47925000D03*
%TD*%
D12*
%TO.C,MH4*%
X307400000Y-117150000D03*
%TD*%
%TO.C,MH3*%
X303980000Y-59625000D03*
%TD*%
D18*
%TO.C,S22*%
X289020000Y-89125000D03*
D19*
X290290000Y-86585000D03*
D20*
X294100000Y-89125000D03*
D19*
X296640000Y-84045000D03*
D18*
X299180000Y-89125000D03*
%TD*%
%TO.C,S11*%
X346020000Y-67750000D03*
D19*
X347290000Y-65210000D03*
D20*
X351100000Y-67750000D03*
D19*
X353640000Y-62670000D03*
D18*
X356180000Y-67750000D03*
%TD*%
%TO.C,S12*%
X346020000Y-48750000D03*
D19*
X347290000Y-46210000D03*
D20*
X351100000Y-48750000D03*
D19*
X353640000Y-43670000D03*
D18*
X356180000Y-48750000D03*
%TD*%
%TO.C,S3*%
X384020000Y-82000000D03*
D19*
X385290000Y-79460000D03*
D20*
X389100000Y-82000000D03*
D19*
X391640000Y-76920000D03*
D18*
X394180000Y-82000000D03*
%TD*%
%TO.C,S7*%
X365020000Y-82000000D03*
D19*
X366290000Y-79460000D03*
D20*
X370100000Y-82000000D03*
D19*
X372640000Y-76920000D03*
D18*
X375180000Y-82000000D03*
%TD*%
%TO.C,S15*%
X327020000Y-63000000D03*
D19*
X328290000Y-60460000D03*
D20*
X332100000Y-63000000D03*
D19*
X334640000Y-57920000D03*
D18*
X337180000Y-63000000D03*
%TD*%
%TO.C,S8*%
X365020000Y-63000000D03*
D19*
X366290000Y-60460000D03*
D20*
X370100000Y-63000000D03*
D19*
X372640000Y-57920000D03*
D18*
X375180000Y-63000000D03*
%TD*%
%TO.C,S20*%
X308020000Y-48750000D03*
D19*
X309290000Y-46210000D03*
D20*
X313100000Y-48750000D03*
D19*
X315640000Y-43670000D03*
D18*
X318180000Y-48750000D03*
%TD*%
%TO.C,S2*%
X384020000Y-101000000D03*
D19*
X385290000Y-98460000D03*
D20*
X389100000Y-101000000D03*
D19*
X391640000Y-95920000D03*
D18*
X394180000Y-101000000D03*
%TD*%
%TO.C,S13*%
X327020000Y-101000000D03*
D19*
X328290000Y-98460000D03*
D20*
X332100000Y-101000000D03*
D19*
X334640000Y-95920000D03*
D18*
X337180000Y-101000000D03*
%TD*%
%TO.C,S10*%
X346020000Y-86750000D03*
D19*
X347290000Y-84210000D03*
D20*
X351100000Y-86750000D03*
D19*
X353640000Y-81670000D03*
D18*
X356180000Y-86750000D03*
%TD*%
%TO.C,S17*%
X308020000Y-105750000D03*
D19*
X309290000Y-103210000D03*
D20*
X313100000Y-105750000D03*
D19*
X315640000Y-100670000D03*
D18*
X318180000Y-105750000D03*
%TD*%
%TO.C,S19*%
X308020000Y-67750000D03*
D19*
X309290000Y-65210000D03*
D20*
X313100000Y-67750000D03*
D19*
X315640000Y-62670000D03*
D18*
X318180000Y-67750000D03*
%TD*%
%TO.C,S5*%
X365020000Y-120000000D03*
D19*
X366290000Y-117460000D03*
D20*
X370100000Y-120000000D03*
D19*
X372640000Y-114920000D03*
D18*
X375180000Y-120000000D03*
%TD*%
%TO.C,S27*%
X260590391Y-146372300D03*
D19*
X260420243Y-143537595D03*
D20*
X264989800Y-143832300D03*
D19*
X264649505Y-138162891D03*
D18*
X269389209Y-141292300D03*
%TD*%
%TO.C,S9*%
X346020000Y-105750000D03*
D19*
X347290000Y-103210000D03*
D20*
X351100000Y-105750000D03*
D19*
X353640000Y-100670000D03*
D18*
X356180000Y-105750000D03*
%TD*%
%TO.C,S21*%
X289020000Y-108125000D03*
D19*
X290290000Y-105585000D03*
D20*
X294100000Y-108125000D03*
D19*
X296640000Y-103045000D03*
D18*
X299180000Y-108125000D03*
%TD*%
%TO.C,S4*%
X384020000Y-63000000D03*
D19*
X385290000Y-60460000D03*
D20*
X389100000Y-63000000D03*
D19*
X391640000Y-57920000D03*
D18*
X394180000Y-63000000D03*
%TD*%
%TO.C,S24*%
X289020000Y-51125000D03*
D19*
X290290000Y-48585000D03*
D20*
X294100000Y-51125000D03*
D19*
X296640000Y-46045000D03*
D18*
X299180000Y-51125000D03*
%TD*%
%TO.C,S18*%
X308020000Y-86750000D03*
D19*
X309290000Y-84210000D03*
D20*
X313100000Y-86750000D03*
D19*
X315640000Y-81670000D03*
D18*
X318180000Y-86750000D03*
%TD*%
%TO.C,S1*%
X384020000Y-120000000D03*
D19*
X385290000Y-117460000D03*
D20*
X389100000Y-120000000D03*
D19*
X391640000Y-114920000D03*
D18*
X394180000Y-120000000D03*
%TD*%
%TO.C,S26*%
X279810961Y-136528762D03*
D19*
X280135640Y-133707577D03*
D20*
X284584600Y-134791300D03*
D19*
X285233957Y-129148930D03*
D18*
X289358239Y-133053838D03*
%TD*%
%TO.C,S25*%
X300448877Y-130172333D03*
D19*
X301258516Y-127450388D03*
D20*
X305451700Y-129290200D03*
D19*
X307070979Y-123846310D03*
D18*
X310454523Y-128408067D03*
%TD*%
%TO.C,S16*%
X327020000Y-44000000D03*
D19*
X328290000Y-41460000D03*
D20*
X332100000Y-44000000D03*
D19*
X334640000Y-38920000D03*
D18*
X337180000Y-44000000D03*
%TD*%
%TO.C,S14*%
X327020000Y-82000000D03*
D19*
X328290000Y-79460000D03*
D20*
X332100000Y-82000000D03*
D19*
X334640000Y-76920000D03*
D18*
X337180000Y-82000000D03*
%TD*%
%TO.C,S6*%
X365020000Y-101000000D03*
D19*
X366290000Y-98460000D03*
D20*
X370100000Y-101000000D03*
D19*
X372640000Y-95920000D03*
D18*
X375180000Y-101000000D03*
%TD*%
%TO.C,S23*%
X289020000Y-70125000D03*
D19*
X290290000Y-67585000D03*
D20*
X294100000Y-70125000D03*
D19*
X296640000Y-65045000D03*
D18*
X299180000Y-70125000D03*
%TD*%
M02*
