M48
; DRILL file KiCad 10.0.3-2.fc44 date 2026-06-13T07:30:53
; FORMAT={-:-/ absolute / inch / decimal}
; #@! TF.CreationDate,2026-06-13T07:30:53-07:00
; #@! TF.GenerationSoftware,Kicad,Pcbnew,10.0.3-2.fc44
; #@! TF.FileFunction,NonPlated,1,2,NPTH
FMAT,2
INCH
; #@! TA.AperFunction,NonPlated,NPTH,ComponentDrill
T1C0.0354
; #@! TA.AperFunction,NonPlated,NPTH,ComponentDrill
T2C0.0748
; #@! TA.AperFunction,NonPlated,NPTH,ComponentDrill
T3C0.0866
; #@! TA.AperFunction,NonPlated,NPTH,ComponentDrill
T4C0.1181
; #@! TA.AperFunction,NonPlated,NPTH,ComponentDrill
T5C0.1614
%
G90
G05
T1
X10.0837Y-3.2165
X10.0837Y-3.3346
T2
X10.2595Y-5.7627
X10.6059Y-5.5627
X11.0162Y-5.3751
X11.3787Y-2.0128
X11.3787Y-2.7608
X11.3787Y-3.5089
X11.3787Y-4.2569
X11.3921Y-5.2383
X11.7787Y-2.0128
X11.7787Y-2.7608
X11.7787Y-3.5089
X11.7787Y-4.2569
X11.8287Y-5.1249
X12.1268Y-1.9193
X12.1268Y-2.6673
X12.1268Y-3.4154
X12.1268Y-4.1634
X12.2226Y-5.0554
X12.5268Y-1.9193
X12.5268Y-2.6673
X12.5268Y-3.4154
X12.5268Y-4.1634
X12.8748Y-1.7323
X12.8748Y-2.4803
X12.8748Y-3.2283
X12.8748Y-3.9764
X13.2748Y-1.7323
X13.2748Y-2.4803
X13.2748Y-3.2283
X13.2748Y-3.9764
X13.6228Y-1.9193
X13.6228Y-2.6673
X13.6228Y-3.4154
X13.6228Y-4.1634
X14.0228Y-1.9193
X14.0228Y-2.6673
X14.0228Y-3.4154
X14.0228Y-4.1634
X14.3709Y-2.4803
X14.3709Y-3.2283
X14.3709Y-3.9764
X14.3709Y-4.7244
X14.7709Y-2.4803
X14.7709Y-3.2283
X14.7709Y-3.9764
X14.7709Y-4.7244
X15.1189Y-2.4803
X15.1189Y-3.2283
X15.1189Y-3.9764
X15.1189Y-4.7244
X15.5189Y-2.4803
X15.5189Y-3.2283
X15.5189Y-3.9764
X15.5189Y-4.7244
T3
X10.7623Y-5.336
X11.9677Y-2.3474
X12.1024Y-4.6122
X14.1575Y-2.2933
X14.1969Y-4.3504
T4
X10.2528Y-5.6511
X10.4193Y-5.4395
X11.029Y-5.2641
X11.2297Y-5.0846
X11.4287Y-1.9128
X11.4287Y-2.6608
X11.4287Y-3.4089
X11.4287Y-4.1569
X11.6787Y-1.8128
X11.6787Y-2.5608
X11.6787Y-3.3089
X11.6787Y-4.0569
X11.8606Y-5.0177
X12.0894Y-4.8758
X12.1768Y-1.8193
X12.1768Y-2.5673
X12.1768Y-3.3154
X12.1768Y-4.0634
X12.4268Y-1.7193
X12.4268Y-2.4673
X12.4268Y-3.2154
X12.4268Y-3.9634
X12.9248Y-1.6323
X12.9248Y-2.3803
X12.9248Y-3.1283
X12.9248Y-3.8764
X13.1748Y-1.5323
X13.1748Y-2.2803
X13.1748Y-3.0283
X13.1748Y-3.7764
X13.6728Y-1.8193
X13.6728Y-2.5673
X13.6728Y-3.3154
X13.6728Y-4.0634
X13.9228Y-1.7193
X13.9228Y-2.4673
X13.9228Y-3.2154
X13.9228Y-3.9634
X14.4209Y-2.3803
X14.4209Y-3.1283
X14.4209Y-3.8764
X14.4209Y-4.6244
X14.6709Y-2.2803
X14.6709Y-3.0283
X14.6709Y-3.7764
X14.6709Y-4.5244
X15.1689Y-2.3803
X15.1689Y-3.1283
X15.1689Y-3.8764
X15.1689Y-4.6244
X15.4189Y-2.2803
X15.4189Y-3.0283
X15.4189Y-3.7764
X15.4189Y-4.5244
T5
X10.4327Y-5.6627
X11.2041Y-5.3067
X11.5787Y-2.0128
X11.5787Y-2.7608
X11.5787Y-3.5089
X11.5787Y-4.2569
X12.0257Y-5.0902
X12.3268Y-1.9193
X12.3268Y-2.6673
X12.3268Y-3.4154
X12.3268Y-4.1634
X13.0748Y-1.7323
X13.0748Y-2.4803
X13.0748Y-3.2283
X13.0748Y-3.9764
X13.8228Y-1.9193
X13.8228Y-2.6673
X13.8228Y-3.4154
X13.8228Y-4.1634
X14.5709Y-2.4803
X14.5709Y-3.2283
X14.5709Y-3.9764
X14.5709Y-4.7244
X15.3189Y-2.4803
X15.3189Y-3.2283
X15.3189Y-3.9764
X15.3189Y-4.7244
M30
