%TF.GenerationSoftware,KiCad,Pcbnew,10.0.3-2.fc44*%
%TF.CreationDate,2026-06-13T07:30:53-07:00*%
%TF.ProjectId,pepekey_r,70657065-6b65-4795-9f72-2e6b69636164,1*%
%TF.SameCoordinates,Original*%
%TF.FileFunction,Legend,Top*%
%TF.FilePolarity,Positive*%
%FSLAX46Y46*%
G04 Gerber Fmt 4.6, Leading zero omitted, Abs format (unit mm)*
G04 Created by KiCad (PCBNEW 10.0.3-2.fc44) date 2026-06-13 07:30:53*
%MOMM*%
%LPD*%
G01*
G04 APERTURE LIST*
G04 Aperture macros list*
%AMRoundRect*
0 Rectangle with rounded corners*
0 $1 Rounding radius*
0 $2 $3 $4 $5 $6 $7 $8 $9 X,Y pos of 4 corners*
0 Add a 4 corners polygon primitive as box body*
4,1,4,$2,$3,$4,$5,$6,$7,$8,$9,$2,$3,0*
0 Add four circle primitives for the rounded corners*
1,1,$1+$1,$2,$3*
1,1,$1+$1,$4,$5*
1,1,$1+$1,$6,$7*
1,1,$1+$1,$8,$9*
0 Add four rect primitives between the rounded corners*
20,1,$1+$1,$2,$3,$4,$5,0*
20,1,$1+$1,$4,$5,$6,$7,0*
20,1,$1+$1,$6,$7,$8,$9,0*
20,1,$1+$1,$8,$9,$2,$3,0*%
G04 Aperture macros list end*
%ADD10C,0.150000*%
%ADD11C,0.120000*%
%ADD12C,0.100000*%
%ADD13RoundRect,0.260000X0.665000X-0.390000X0.665000X0.390000X-0.665000X0.390000X-0.665000X-0.390000X0*%
%ADD14O,1.850000X1.300000*%
%ADD15C,2.300000*%
%ADD16RoundRect,0.050000X-0.500000X0.775000X-0.500000X-0.775000X0.500000X-0.775000X0.500000X0.775000X0*%
%ADD17RoundRect,0.050000X-0.400000X0.500000X-0.400000X-0.500000X0.400000X-0.500000X0.400000X0.500000X0*%
%ADD18C,1.000000*%
%ADD19RoundRect,0.050000X-0.750000X0.350000X-0.750000X-0.350000X0.750000X-0.350000X0.750000X0.350000X0*%
%ADD20C,1.800000*%
%ADD21C,2.000000*%
%ADD22C,3.100000*%
%ADD23C,4.200000*%
G04 APERTURE END LIST*
D10*
X283054819Y-118601191D02*
X282054819Y-118601191D01*
X282054819Y-118601191D02*
X282054819Y-118220239D01*
X282054819Y-118220239D02*
X282102438Y-118125001D01*
X282102438Y-118125001D02*
X282150057Y-118077382D01*
X282150057Y-118077382D02*
X282245295Y-118029763D01*
X282245295Y-118029763D02*
X282388152Y-118029763D01*
X282388152Y-118029763D02*
X282483390Y-118077382D01*
X282483390Y-118077382D02*
X282531009Y-118125001D01*
X282531009Y-118125001D02*
X282578628Y-118220239D01*
X282578628Y-118220239D02*
X282578628Y-118601191D01*
X283007200Y-117220239D02*
X283054819Y-117315477D01*
X283054819Y-117315477D02*
X283054819Y-117505953D01*
X283054819Y-117505953D02*
X283007200Y-117601191D01*
X283007200Y-117601191D02*
X282911961Y-117648810D01*
X282911961Y-117648810D02*
X282531009Y-117648810D01*
X282531009Y-117648810D02*
X282435771Y-117601191D01*
X282435771Y-117601191D02*
X282388152Y-117505953D01*
X282388152Y-117505953D02*
X282388152Y-117315477D01*
X282388152Y-117315477D02*
X282435771Y-117220239D01*
X282435771Y-117220239D02*
X282531009Y-117172620D01*
X282531009Y-117172620D02*
X282626247Y-117172620D01*
X282626247Y-117172620D02*
X282721485Y-117648810D01*
X283054819Y-116744048D02*
X282054819Y-116744048D01*
X282673866Y-116648810D02*
X283054819Y-116363096D01*
X282388152Y-116363096D02*
X282769104Y-116744048D01*
X283007200Y-115553572D02*
X283054819Y-115648810D01*
X283054819Y-115648810D02*
X283054819Y-115839286D01*
X283054819Y-115839286D02*
X283007200Y-115934524D01*
X283007200Y-115934524D02*
X282911961Y-115982143D01*
X282911961Y-115982143D02*
X282531009Y-115982143D01*
X282531009Y-115982143D02*
X282435771Y-115934524D01*
X282435771Y-115934524D02*
X282388152Y-115839286D01*
X282388152Y-115839286D02*
X282388152Y-115648810D01*
X282388152Y-115648810D02*
X282435771Y-115553572D01*
X282435771Y-115553572D02*
X282531009Y-115505953D01*
X282531009Y-115505953D02*
X282626247Y-115505953D01*
X282626247Y-115505953D02*
X282721485Y-115982143D01*
X283054819Y-115077381D02*
X282054819Y-115077381D01*
X282435771Y-115077381D02*
X282388152Y-114982143D01*
X282388152Y-114982143D02*
X282388152Y-114791667D01*
X282388152Y-114791667D02*
X282435771Y-114696429D01*
X282435771Y-114696429D02*
X282483390Y-114648810D01*
X282483390Y-114648810D02*
X282578628Y-114601191D01*
X282578628Y-114601191D02*
X282864342Y-114601191D01*
X282864342Y-114601191D02*
X282959580Y-114648810D01*
X282959580Y-114648810D02*
X283007200Y-114696429D01*
X283007200Y-114696429D02*
X283054819Y-114791667D01*
X283054819Y-114791667D02*
X283054819Y-114982143D01*
X283054819Y-114982143D02*
X283007200Y-115077381D01*
X283054819Y-114029762D02*
X283007200Y-114125000D01*
X283007200Y-114125000D02*
X282959580Y-114172619D01*
X282959580Y-114172619D02*
X282864342Y-114220238D01*
X282864342Y-114220238D02*
X282578628Y-114220238D01*
X282578628Y-114220238D02*
X282483390Y-114172619D01*
X282483390Y-114172619D02*
X282435771Y-114125000D01*
X282435771Y-114125000D02*
X282388152Y-114029762D01*
X282388152Y-114029762D02*
X282388152Y-113886905D01*
X282388152Y-113886905D02*
X282435771Y-113791667D01*
X282435771Y-113791667D02*
X282483390Y-113744048D01*
X282483390Y-113744048D02*
X282578628Y-113696429D01*
X282578628Y-113696429D02*
X282864342Y-113696429D01*
X282864342Y-113696429D02*
X282959580Y-113744048D01*
X282959580Y-113744048D02*
X283007200Y-113791667D01*
X283007200Y-113791667D02*
X283054819Y-113886905D01*
X283054819Y-113886905D02*
X283054819Y-114029762D01*
X283054819Y-112839286D02*
X282531009Y-112839286D01*
X282531009Y-112839286D02*
X282435771Y-112886905D01*
X282435771Y-112886905D02*
X282388152Y-112982143D01*
X282388152Y-112982143D02*
X282388152Y-113172619D01*
X282388152Y-113172619D02*
X282435771Y-113267857D01*
X283007200Y-112839286D02*
X283054819Y-112934524D01*
X283054819Y-112934524D02*
X283054819Y-113172619D01*
X283054819Y-113172619D02*
X283007200Y-113267857D01*
X283007200Y-113267857D02*
X282911961Y-113315476D01*
X282911961Y-113315476D02*
X282816723Y-113315476D01*
X282816723Y-113315476D02*
X282721485Y-113267857D01*
X282721485Y-113267857D02*
X282673866Y-113172619D01*
X282673866Y-113172619D02*
X282673866Y-112934524D01*
X282673866Y-112934524D02*
X282626247Y-112839286D01*
X283054819Y-112363095D02*
X282388152Y-112363095D01*
X282578628Y-112363095D02*
X282483390Y-112315476D01*
X282483390Y-112315476D02*
X282435771Y-112267857D01*
X282435771Y-112267857D02*
X282388152Y-112172619D01*
X282388152Y-112172619D02*
X282388152Y-112077381D01*
X283054819Y-111315476D02*
X282054819Y-111315476D01*
X283007200Y-111315476D02*
X283054819Y-111410714D01*
X283054819Y-111410714D02*
X283054819Y-111601190D01*
X283054819Y-111601190D02*
X283007200Y-111696428D01*
X283007200Y-111696428D02*
X282959580Y-111744047D01*
X282959580Y-111744047D02*
X282864342Y-111791666D01*
X282864342Y-111791666D02*
X282578628Y-111791666D01*
X282578628Y-111791666D02*
X282483390Y-111744047D01*
X282483390Y-111744047D02*
X282435771Y-111696428D01*
X282435771Y-111696428D02*
X282388152Y-111601190D01*
X282388152Y-111601190D02*
X282388152Y-111410714D01*
X282388152Y-111410714D02*
X282435771Y-111315476D01*
X282388152Y-110172618D02*
X283054819Y-109934523D01*
X283054819Y-109934523D02*
X282388152Y-109696428D01*
X283054819Y-108791666D02*
X283054819Y-109363094D01*
X283054819Y-109077380D02*
X282054819Y-109077380D01*
X282054819Y-109077380D02*
X282197676Y-109172618D01*
X282197676Y-109172618D02*
X282292914Y-109267856D01*
X282292914Y-109267856D02*
X282340533Y-109363094D01*
X282959580Y-108363094D02*
X283007200Y-108315475D01*
X283007200Y-108315475D02*
X283054819Y-108363094D01*
X283054819Y-108363094D02*
X283007200Y-108410713D01*
X283007200Y-108410713D02*
X282959580Y-108363094D01*
X282959580Y-108363094D02*
X283054819Y-108363094D01*
X282054819Y-107696428D02*
X282054819Y-107601190D01*
X282054819Y-107601190D02*
X282102438Y-107505952D01*
X282102438Y-107505952D02*
X282150057Y-107458333D01*
X282150057Y-107458333D02*
X282245295Y-107410714D01*
X282245295Y-107410714D02*
X282435771Y-107363095D01*
X282435771Y-107363095D02*
X282673866Y-107363095D01*
X282673866Y-107363095D02*
X282864342Y-107410714D01*
X282864342Y-107410714D02*
X282959580Y-107458333D01*
X282959580Y-107458333D02*
X283007200Y-107505952D01*
X283007200Y-107505952D02*
X283054819Y-107601190D01*
X283054819Y-107601190D02*
X283054819Y-107696428D01*
X283054819Y-107696428D02*
X283007200Y-107791666D01*
X283007200Y-107791666D02*
X282959580Y-107839285D01*
X282959580Y-107839285D02*
X282864342Y-107886904D01*
X282864342Y-107886904D02*
X282673866Y-107934523D01*
X282673866Y-107934523D02*
X282435771Y-107934523D01*
X282435771Y-107934523D02*
X282245295Y-107886904D01*
X282245295Y-107886904D02*
X282150057Y-107839285D01*
X282150057Y-107839285D02*
X282102438Y-107791666D01*
X282102438Y-107791666D02*
X282054819Y-107696428D01*
X283054819Y-106172618D02*
X282054819Y-106172618D01*
X282435771Y-106172618D02*
X282388152Y-106077380D01*
X282388152Y-106077380D02*
X282388152Y-105886904D01*
X282388152Y-105886904D02*
X282435771Y-105791666D01*
X282435771Y-105791666D02*
X282483390Y-105744047D01*
X282483390Y-105744047D02*
X282578628Y-105696428D01*
X282578628Y-105696428D02*
X282864342Y-105696428D01*
X282864342Y-105696428D02*
X282959580Y-105744047D01*
X282959580Y-105744047D02*
X283007200Y-105791666D01*
X283007200Y-105791666D02*
X283054819Y-105886904D01*
X283054819Y-105886904D02*
X283054819Y-106077380D01*
X283054819Y-106077380D02*
X283007200Y-106172618D01*
X282388152Y-105363094D02*
X283054819Y-105124999D01*
X282388152Y-104886904D02*
X283054819Y-105124999D01*
X283054819Y-105124999D02*
X283292914Y-105220237D01*
X283292914Y-105220237D02*
X283340533Y-105267856D01*
X283340533Y-105267856D02*
X283388152Y-105363094D01*
X282388152Y-103744046D02*
X283388152Y-103744046D01*
X282435771Y-103744046D02*
X282388152Y-103648808D01*
X282388152Y-103648808D02*
X282388152Y-103458332D01*
X282388152Y-103458332D02*
X282435771Y-103363094D01*
X282435771Y-103363094D02*
X282483390Y-103315475D01*
X282483390Y-103315475D02*
X282578628Y-103267856D01*
X282578628Y-103267856D02*
X282864342Y-103267856D01*
X282864342Y-103267856D02*
X282959580Y-103315475D01*
X282959580Y-103315475D02*
X283007200Y-103363094D01*
X283007200Y-103363094D02*
X283054819Y-103458332D01*
X283054819Y-103458332D02*
X283054819Y-103648808D01*
X283054819Y-103648808D02*
X283007200Y-103744046D01*
X283007200Y-102458332D02*
X283054819Y-102553570D01*
X283054819Y-102553570D02*
X283054819Y-102744046D01*
X283054819Y-102744046D02*
X283007200Y-102839284D01*
X283007200Y-102839284D02*
X282911961Y-102886903D01*
X282911961Y-102886903D02*
X282531009Y-102886903D01*
X282531009Y-102886903D02*
X282435771Y-102839284D01*
X282435771Y-102839284D02*
X282388152Y-102744046D01*
X282388152Y-102744046D02*
X282388152Y-102553570D01*
X282388152Y-102553570D02*
X282435771Y-102458332D01*
X282435771Y-102458332D02*
X282531009Y-102410713D01*
X282531009Y-102410713D02*
X282626247Y-102410713D01*
X282626247Y-102410713D02*
X282721485Y-102886903D01*
X283054819Y-101553570D02*
X282054819Y-101553570D01*
X283007200Y-101553570D02*
X283054819Y-101648808D01*
X283054819Y-101648808D02*
X283054819Y-101839284D01*
X283054819Y-101839284D02*
X283007200Y-101934522D01*
X283007200Y-101934522D02*
X282959580Y-101982141D01*
X282959580Y-101982141D02*
X282864342Y-102029760D01*
X282864342Y-102029760D02*
X282578628Y-102029760D01*
X282578628Y-102029760D02*
X282483390Y-101982141D01*
X282483390Y-101982141D02*
X282435771Y-101934522D01*
X282435771Y-101934522D02*
X282388152Y-101839284D01*
X282388152Y-101839284D02*
X282388152Y-101648808D01*
X282388152Y-101648808D02*
X282435771Y-101553570D01*
X283054819Y-101077379D02*
X282388152Y-101077379D01*
X282578628Y-101077379D02*
X282483390Y-101029760D01*
X282483390Y-101029760D02*
X282435771Y-100982141D01*
X282435771Y-100982141D02*
X282388152Y-100886903D01*
X282388152Y-100886903D02*
X282388152Y-100791665D01*
X283054819Y-100315474D02*
X283007200Y-100410712D01*
X283007200Y-100410712D02*
X282959580Y-100458331D01*
X282959580Y-100458331D02*
X282864342Y-100505950D01*
X282864342Y-100505950D02*
X282578628Y-100505950D01*
X282578628Y-100505950D02*
X282483390Y-100458331D01*
X282483390Y-100458331D02*
X282435771Y-100410712D01*
X282435771Y-100410712D02*
X282388152Y-100315474D01*
X282388152Y-100315474D02*
X282388152Y-100172617D01*
X282388152Y-100172617D02*
X282435771Y-100077379D01*
X282435771Y-100077379D02*
X282483390Y-100029760D01*
X282483390Y-100029760D02*
X282578628Y-99982141D01*
X282578628Y-99982141D02*
X282864342Y-99982141D01*
X282864342Y-99982141D02*
X282959580Y-100029760D01*
X282959580Y-100029760D02*
X283007200Y-100077379D01*
X283007200Y-100077379D02*
X283054819Y-100172617D01*
X283054819Y-100172617D02*
X283054819Y-100315474D01*
X283054819Y-99553569D02*
X282388152Y-99553569D01*
X282578628Y-99553569D02*
X282483390Y-99505950D01*
X282483390Y-99505950D02*
X282435771Y-99458331D01*
X282435771Y-99458331D02*
X282388152Y-99363093D01*
X282388152Y-99363093D02*
X282388152Y-99267855D01*
X283007200Y-98553569D02*
X283054819Y-98648807D01*
X283054819Y-98648807D02*
X283054819Y-98839283D01*
X283054819Y-98839283D02*
X283007200Y-98934521D01*
X283007200Y-98934521D02*
X282911961Y-98982140D01*
X282911961Y-98982140D02*
X282531009Y-98982140D01*
X282531009Y-98982140D02*
X282435771Y-98934521D01*
X282435771Y-98934521D02*
X282388152Y-98839283D01*
X282388152Y-98839283D02*
X282388152Y-98648807D01*
X282388152Y-98648807D02*
X282435771Y-98553569D01*
X282435771Y-98553569D02*
X282531009Y-98505950D01*
X282531009Y-98505950D02*
X282626247Y-98505950D01*
X282626247Y-98505950D02*
X282721485Y-98982140D01*
X282388152Y-98077378D02*
X283054819Y-98077378D01*
X282483390Y-98077378D02*
X282435771Y-98029759D01*
X282435771Y-98029759D02*
X282388152Y-97934521D01*
X282388152Y-97934521D02*
X282388152Y-97791664D01*
X282388152Y-97791664D02*
X282435771Y-97696426D01*
X282435771Y-97696426D02*
X282531009Y-97648807D01*
X282531009Y-97648807D02*
X283054819Y-97648807D01*
X255530952Y-77654819D02*
X255721428Y-77654819D01*
X255721428Y-77654819D02*
X255816666Y-77702438D01*
X255816666Y-77702438D02*
X255911904Y-77797676D01*
X255911904Y-77797676D02*
X255959523Y-77988152D01*
X255959523Y-77988152D02*
X255959523Y-78321485D01*
X255959523Y-78321485D02*
X255911904Y-78511961D01*
X255911904Y-78511961D02*
X255816666Y-78607200D01*
X255816666Y-78607200D02*
X255721428Y-78654819D01*
X255721428Y-78654819D02*
X255530952Y-78654819D01*
X255530952Y-78654819D02*
X255435714Y-78607200D01*
X255435714Y-78607200D02*
X255340476Y-78511961D01*
X255340476Y-78511961D02*
X255292857Y-78321485D01*
X255292857Y-78321485D02*
X255292857Y-77988152D01*
X255292857Y-77988152D02*
X255340476Y-77797676D01*
X255340476Y-77797676D02*
X255435714Y-77702438D01*
X255435714Y-77702438D02*
X255530952Y-77654819D01*
X256388095Y-78654819D02*
X256388095Y-77654819D01*
X256388095Y-77654819D02*
X256959523Y-78654819D01*
X256959523Y-78654819D02*
X256959523Y-77654819D01*
X255197619Y-87654819D02*
X255388095Y-87654819D01*
X255388095Y-87654819D02*
X255483333Y-87702438D01*
X255483333Y-87702438D02*
X255578571Y-87797676D01*
X255578571Y-87797676D02*
X255626190Y-87988152D01*
X255626190Y-87988152D02*
X255626190Y-88321485D01*
X255626190Y-88321485D02*
X255578571Y-88511961D01*
X255578571Y-88511961D02*
X255483333Y-88607200D01*
X255483333Y-88607200D02*
X255388095Y-88654819D01*
X255388095Y-88654819D02*
X255197619Y-88654819D01*
X255197619Y-88654819D02*
X255102381Y-88607200D01*
X255102381Y-88607200D02*
X255007143Y-88511961D01*
X255007143Y-88511961D02*
X254959524Y-88321485D01*
X254959524Y-88321485D02*
X254959524Y-87988152D01*
X254959524Y-87988152D02*
X255007143Y-87797676D01*
X255007143Y-87797676D02*
X255102381Y-87702438D01*
X255102381Y-87702438D02*
X255197619Y-87654819D01*
X256388095Y-88131009D02*
X256054762Y-88131009D01*
X256054762Y-88654819D02*
X256054762Y-87654819D01*
X256054762Y-87654819D02*
X256530952Y-87654819D01*
X257245238Y-88131009D02*
X256911905Y-88131009D01*
X256911905Y-88654819D02*
X256911905Y-87654819D01*
X256911905Y-87654819D02*
X257388095Y-87654819D01*
X262830000Y-47379819D02*
X262925238Y-47379819D01*
X262925238Y-47379819D02*
X263020476Y-47427438D01*
X263020476Y-47427438D02*
X263068095Y-47475057D01*
X263068095Y-47475057D02*
X263115714Y-47570295D01*
X263115714Y-47570295D02*
X263163333Y-47760771D01*
X263163333Y-47760771D02*
X263163333Y-47998866D01*
X263163333Y-47998866D02*
X263115714Y-48189342D01*
X263115714Y-48189342D02*
X263068095Y-48284580D01*
X263068095Y-48284580D02*
X263020476Y-48332200D01*
X263020476Y-48332200D02*
X262925238Y-48379819D01*
X262925238Y-48379819D02*
X262830000Y-48379819D01*
X262830000Y-48379819D02*
X262734762Y-48332200D01*
X262734762Y-48332200D02*
X262687143Y-48284580D01*
X262687143Y-48284580D02*
X262639524Y-48189342D01*
X262639524Y-48189342D02*
X262591905Y-47998866D01*
X262591905Y-47998866D02*
X262591905Y-47760771D01*
X262591905Y-47760771D02*
X262639524Y-47570295D01*
X262639524Y-47570295D02*
X262687143Y-47475057D01*
X262687143Y-47475057D02*
X262734762Y-47427438D01*
X262734762Y-47427438D02*
X262830000Y-47379819D01*
X263782381Y-47379819D02*
X263877619Y-47379819D01*
X263877619Y-47379819D02*
X263972857Y-47427438D01*
X263972857Y-47427438D02*
X264020476Y-47475057D01*
X264020476Y-47475057D02*
X264068095Y-47570295D01*
X264068095Y-47570295D02*
X264115714Y-47760771D01*
X264115714Y-47760771D02*
X264115714Y-47998866D01*
X264115714Y-47998866D02*
X264068095Y-48189342D01*
X264068095Y-48189342D02*
X264020476Y-48284580D01*
X264020476Y-48284580D02*
X263972857Y-48332200D01*
X263972857Y-48332200D02*
X263877619Y-48379819D01*
X263877619Y-48379819D02*
X263782381Y-48379819D01*
X263782381Y-48379819D02*
X263687143Y-48332200D01*
X263687143Y-48332200D02*
X263639524Y-48284580D01*
X263639524Y-48284580D02*
X263591905Y-48189342D01*
X263591905Y-48189342D02*
X263544286Y-47998866D01*
X263544286Y-47998866D02*
X263544286Y-47760771D01*
X263544286Y-47760771D02*
X263591905Y-47570295D01*
X263591905Y-47570295D02*
X263639524Y-47475057D01*
X263639524Y-47475057D02*
X263687143Y-47427438D01*
X263687143Y-47427438D02*
X263782381Y-47379819D01*
X264972857Y-47379819D02*
X264782381Y-47379819D01*
X264782381Y-47379819D02*
X264687143Y-47427438D01*
X264687143Y-47427438D02*
X264639524Y-47475057D01*
X264639524Y-47475057D02*
X264544286Y-47617914D01*
X264544286Y-47617914D02*
X264496667Y-47808390D01*
X264496667Y-47808390D02*
X264496667Y-48189342D01*
X264496667Y-48189342D02*
X264544286Y-48284580D01*
X264544286Y-48284580D02*
X264591905Y-48332200D01*
X264591905Y-48332200D02*
X264687143Y-48379819D01*
X264687143Y-48379819D02*
X264877619Y-48379819D01*
X264877619Y-48379819D02*
X264972857Y-48332200D01*
X264972857Y-48332200D02*
X265020476Y-48284580D01*
X265020476Y-48284580D02*
X265068095Y-48189342D01*
X265068095Y-48189342D02*
X265068095Y-47951247D01*
X265068095Y-47951247D02*
X265020476Y-47856009D01*
X265020476Y-47856009D02*
X264972857Y-47808390D01*
X264972857Y-47808390D02*
X264877619Y-47760771D01*
X264877619Y-47760771D02*
X264687143Y-47760771D01*
X264687143Y-47760771D02*
X264591905Y-47808390D01*
X264591905Y-47808390D02*
X264544286Y-47856009D01*
X264544286Y-47856009D02*
X264496667Y-47951247D01*
X262830000Y-49919819D02*
X262925238Y-49919819D01*
X262925238Y-49919819D02*
X263020476Y-49967438D01*
X263020476Y-49967438D02*
X263068095Y-50015057D01*
X263068095Y-50015057D02*
X263115714Y-50110295D01*
X263115714Y-50110295D02*
X263163333Y-50300771D01*
X263163333Y-50300771D02*
X263163333Y-50538866D01*
X263163333Y-50538866D02*
X263115714Y-50729342D01*
X263115714Y-50729342D02*
X263068095Y-50824580D01*
X263068095Y-50824580D02*
X263020476Y-50872200D01*
X263020476Y-50872200D02*
X262925238Y-50919819D01*
X262925238Y-50919819D02*
X262830000Y-50919819D01*
X262830000Y-50919819D02*
X262734762Y-50872200D01*
X262734762Y-50872200D02*
X262687143Y-50824580D01*
X262687143Y-50824580D02*
X262639524Y-50729342D01*
X262639524Y-50729342D02*
X262591905Y-50538866D01*
X262591905Y-50538866D02*
X262591905Y-50300771D01*
X262591905Y-50300771D02*
X262639524Y-50110295D01*
X262639524Y-50110295D02*
X262687143Y-50015057D01*
X262687143Y-50015057D02*
X262734762Y-49967438D01*
X262734762Y-49967438D02*
X262830000Y-49919819D01*
X263782381Y-49919819D02*
X263877619Y-49919819D01*
X263877619Y-49919819D02*
X263972857Y-49967438D01*
X263972857Y-49967438D02*
X264020476Y-50015057D01*
X264020476Y-50015057D02*
X264068095Y-50110295D01*
X264068095Y-50110295D02*
X264115714Y-50300771D01*
X264115714Y-50300771D02*
X264115714Y-50538866D01*
X264115714Y-50538866D02*
X264068095Y-50729342D01*
X264068095Y-50729342D02*
X264020476Y-50824580D01*
X264020476Y-50824580D02*
X263972857Y-50872200D01*
X263972857Y-50872200D02*
X263877619Y-50919819D01*
X263877619Y-50919819D02*
X263782381Y-50919819D01*
X263782381Y-50919819D02*
X263687143Y-50872200D01*
X263687143Y-50872200D02*
X263639524Y-50824580D01*
X263639524Y-50824580D02*
X263591905Y-50729342D01*
X263591905Y-50729342D02*
X263544286Y-50538866D01*
X263544286Y-50538866D02*
X263544286Y-50300771D01*
X263544286Y-50300771D02*
X263591905Y-50110295D01*
X263591905Y-50110295D02*
X263639524Y-50015057D01*
X263639524Y-50015057D02*
X263687143Y-49967438D01*
X263687143Y-49967438D02*
X263782381Y-49919819D01*
X264687143Y-50348390D02*
X264591905Y-50300771D01*
X264591905Y-50300771D02*
X264544286Y-50253152D01*
X264544286Y-50253152D02*
X264496667Y-50157914D01*
X264496667Y-50157914D02*
X264496667Y-50110295D01*
X264496667Y-50110295D02*
X264544286Y-50015057D01*
X264544286Y-50015057D02*
X264591905Y-49967438D01*
X264591905Y-49967438D02*
X264687143Y-49919819D01*
X264687143Y-49919819D02*
X264877619Y-49919819D01*
X264877619Y-49919819D02*
X264972857Y-49967438D01*
X264972857Y-49967438D02*
X265020476Y-50015057D01*
X265020476Y-50015057D02*
X265068095Y-50110295D01*
X265068095Y-50110295D02*
X265068095Y-50157914D01*
X265068095Y-50157914D02*
X265020476Y-50253152D01*
X265020476Y-50253152D02*
X264972857Y-50300771D01*
X264972857Y-50300771D02*
X264877619Y-50348390D01*
X264877619Y-50348390D02*
X264687143Y-50348390D01*
X264687143Y-50348390D02*
X264591905Y-50396009D01*
X264591905Y-50396009D02*
X264544286Y-50443628D01*
X264544286Y-50443628D02*
X264496667Y-50538866D01*
X264496667Y-50538866D02*
X264496667Y-50729342D01*
X264496667Y-50729342D02*
X264544286Y-50824580D01*
X264544286Y-50824580D02*
X264591905Y-50872200D01*
X264591905Y-50872200D02*
X264687143Y-50919819D01*
X264687143Y-50919819D02*
X264877619Y-50919819D01*
X264877619Y-50919819D02*
X264972857Y-50872200D01*
X264972857Y-50872200D02*
X265020476Y-50824580D01*
X265020476Y-50824580D02*
X265068095Y-50729342D01*
X265068095Y-50729342D02*
X265068095Y-50538866D01*
X265068095Y-50538866D02*
X265020476Y-50443628D01*
X265020476Y-50443628D02*
X264972857Y-50396009D01*
X264972857Y-50396009D02*
X264877619Y-50348390D01*
X263068095Y-52507438D02*
X262972857Y-52459819D01*
X262972857Y-52459819D02*
X262830000Y-52459819D01*
X262830000Y-52459819D02*
X262687143Y-52507438D01*
X262687143Y-52507438D02*
X262591905Y-52602676D01*
X262591905Y-52602676D02*
X262544286Y-52697914D01*
X262544286Y-52697914D02*
X262496667Y-52888390D01*
X262496667Y-52888390D02*
X262496667Y-53031247D01*
X262496667Y-53031247D02*
X262544286Y-53221723D01*
X262544286Y-53221723D02*
X262591905Y-53316961D01*
X262591905Y-53316961D02*
X262687143Y-53412200D01*
X262687143Y-53412200D02*
X262830000Y-53459819D01*
X262830000Y-53459819D02*
X262925238Y-53459819D01*
X262925238Y-53459819D02*
X263068095Y-53412200D01*
X263068095Y-53412200D02*
X263115714Y-53364580D01*
X263115714Y-53364580D02*
X263115714Y-53031247D01*
X263115714Y-53031247D02*
X262925238Y-53031247D01*
X263544286Y-53459819D02*
X263544286Y-52459819D01*
X263544286Y-52459819D02*
X264115714Y-53459819D01*
X264115714Y-53459819D02*
X264115714Y-52459819D01*
X264591905Y-53459819D02*
X264591905Y-52459819D01*
X264591905Y-52459819D02*
X264830000Y-52459819D01*
X264830000Y-52459819D02*
X264972857Y-52507438D01*
X264972857Y-52507438D02*
X265068095Y-52602676D01*
X265068095Y-52602676D02*
X265115714Y-52697914D01*
X265115714Y-52697914D02*
X265163333Y-52888390D01*
X265163333Y-52888390D02*
X265163333Y-53031247D01*
X265163333Y-53031247D02*
X265115714Y-53221723D01*
X265115714Y-53221723D02*
X265068095Y-53316961D01*
X265068095Y-53316961D02*
X264972857Y-53412200D01*
X264972857Y-53412200D02*
X264830000Y-53459819D01*
X264830000Y-53459819D02*
X264591905Y-53459819D01*
X263068095Y-55047438D02*
X262972857Y-54999819D01*
X262972857Y-54999819D02*
X262830000Y-54999819D01*
X262830000Y-54999819D02*
X262687143Y-55047438D01*
X262687143Y-55047438D02*
X262591905Y-55142676D01*
X262591905Y-55142676D02*
X262544286Y-55237914D01*
X262544286Y-55237914D02*
X262496667Y-55428390D01*
X262496667Y-55428390D02*
X262496667Y-55571247D01*
X262496667Y-55571247D02*
X262544286Y-55761723D01*
X262544286Y-55761723D02*
X262591905Y-55856961D01*
X262591905Y-55856961D02*
X262687143Y-55952200D01*
X262687143Y-55952200D02*
X262830000Y-55999819D01*
X262830000Y-55999819D02*
X262925238Y-55999819D01*
X262925238Y-55999819D02*
X263068095Y-55952200D01*
X263068095Y-55952200D02*
X263115714Y-55904580D01*
X263115714Y-55904580D02*
X263115714Y-55571247D01*
X263115714Y-55571247D02*
X262925238Y-55571247D01*
X263544286Y-55999819D02*
X263544286Y-54999819D01*
X263544286Y-54999819D02*
X264115714Y-55999819D01*
X264115714Y-55999819D02*
X264115714Y-54999819D01*
X264591905Y-55999819D02*
X264591905Y-54999819D01*
X264591905Y-54999819D02*
X264830000Y-54999819D01*
X264830000Y-54999819D02*
X264972857Y-55047438D01*
X264972857Y-55047438D02*
X265068095Y-55142676D01*
X265068095Y-55142676D02*
X265115714Y-55237914D01*
X265115714Y-55237914D02*
X265163333Y-55428390D01*
X265163333Y-55428390D02*
X265163333Y-55571247D01*
X265163333Y-55571247D02*
X265115714Y-55761723D01*
X265115714Y-55761723D02*
X265068095Y-55856961D01*
X265068095Y-55856961D02*
X264972857Y-55952200D01*
X264972857Y-55952200D02*
X264830000Y-55999819D01*
X264830000Y-55999819D02*
X264591905Y-55999819D01*
X262830000Y-57539819D02*
X262925238Y-57539819D01*
X262925238Y-57539819D02*
X263020476Y-57587438D01*
X263020476Y-57587438D02*
X263068095Y-57635057D01*
X263068095Y-57635057D02*
X263115714Y-57730295D01*
X263115714Y-57730295D02*
X263163333Y-57920771D01*
X263163333Y-57920771D02*
X263163333Y-58158866D01*
X263163333Y-58158866D02*
X263115714Y-58349342D01*
X263115714Y-58349342D02*
X263068095Y-58444580D01*
X263068095Y-58444580D02*
X263020476Y-58492200D01*
X263020476Y-58492200D02*
X262925238Y-58539819D01*
X262925238Y-58539819D02*
X262830000Y-58539819D01*
X262830000Y-58539819D02*
X262734762Y-58492200D01*
X262734762Y-58492200D02*
X262687143Y-58444580D01*
X262687143Y-58444580D02*
X262639524Y-58349342D01*
X262639524Y-58349342D02*
X262591905Y-58158866D01*
X262591905Y-58158866D02*
X262591905Y-57920771D01*
X262591905Y-57920771D02*
X262639524Y-57730295D01*
X262639524Y-57730295D02*
X262687143Y-57635057D01*
X262687143Y-57635057D02*
X262734762Y-57587438D01*
X262734762Y-57587438D02*
X262830000Y-57539819D01*
X264115714Y-58539819D02*
X263544286Y-58539819D01*
X263830000Y-58539819D02*
X263830000Y-57539819D01*
X263830000Y-57539819D02*
X263734762Y-57682676D01*
X263734762Y-57682676D02*
X263639524Y-57777914D01*
X263639524Y-57777914D02*
X263544286Y-57825533D01*
X264449048Y-57539819D02*
X265115714Y-57539819D01*
X265115714Y-57539819D02*
X264687143Y-58539819D01*
X262830000Y-60079819D02*
X262925238Y-60079819D01*
X262925238Y-60079819D02*
X263020476Y-60127438D01*
X263020476Y-60127438D02*
X263068095Y-60175057D01*
X263068095Y-60175057D02*
X263115714Y-60270295D01*
X263115714Y-60270295D02*
X263163333Y-60460771D01*
X263163333Y-60460771D02*
X263163333Y-60698866D01*
X263163333Y-60698866D02*
X263115714Y-60889342D01*
X263115714Y-60889342D02*
X263068095Y-60984580D01*
X263068095Y-60984580D02*
X263020476Y-61032200D01*
X263020476Y-61032200D02*
X262925238Y-61079819D01*
X262925238Y-61079819D02*
X262830000Y-61079819D01*
X262830000Y-61079819D02*
X262734762Y-61032200D01*
X262734762Y-61032200D02*
X262687143Y-60984580D01*
X262687143Y-60984580D02*
X262639524Y-60889342D01*
X262639524Y-60889342D02*
X262591905Y-60698866D01*
X262591905Y-60698866D02*
X262591905Y-60460771D01*
X262591905Y-60460771D02*
X262639524Y-60270295D01*
X262639524Y-60270295D02*
X262687143Y-60175057D01*
X262687143Y-60175057D02*
X262734762Y-60127438D01*
X262734762Y-60127438D02*
X262830000Y-60079819D01*
X263544286Y-60175057D02*
X263591905Y-60127438D01*
X263591905Y-60127438D02*
X263687143Y-60079819D01*
X263687143Y-60079819D02*
X263925238Y-60079819D01*
X263925238Y-60079819D02*
X264020476Y-60127438D01*
X264020476Y-60127438D02*
X264068095Y-60175057D01*
X264068095Y-60175057D02*
X264115714Y-60270295D01*
X264115714Y-60270295D02*
X264115714Y-60365533D01*
X264115714Y-60365533D02*
X264068095Y-60508390D01*
X264068095Y-60508390D02*
X263496667Y-61079819D01*
X263496667Y-61079819D02*
X264115714Y-61079819D01*
X264734762Y-60079819D02*
X264830000Y-60079819D01*
X264830000Y-60079819D02*
X264925238Y-60127438D01*
X264925238Y-60127438D02*
X264972857Y-60175057D01*
X264972857Y-60175057D02*
X265020476Y-60270295D01*
X265020476Y-60270295D02*
X265068095Y-60460771D01*
X265068095Y-60460771D02*
X265068095Y-60698866D01*
X265068095Y-60698866D02*
X265020476Y-60889342D01*
X265020476Y-60889342D02*
X264972857Y-60984580D01*
X264972857Y-60984580D02*
X264925238Y-61032200D01*
X264925238Y-61032200D02*
X264830000Y-61079819D01*
X264830000Y-61079819D02*
X264734762Y-61079819D01*
X264734762Y-61079819D02*
X264639524Y-61032200D01*
X264639524Y-61032200D02*
X264591905Y-60984580D01*
X264591905Y-60984580D02*
X264544286Y-60889342D01*
X264544286Y-60889342D02*
X264496667Y-60698866D01*
X264496667Y-60698866D02*
X264496667Y-60460771D01*
X264496667Y-60460771D02*
X264544286Y-60270295D01*
X264544286Y-60270295D02*
X264591905Y-60175057D01*
X264591905Y-60175057D02*
X264639524Y-60127438D01*
X264639524Y-60127438D02*
X264734762Y-60079819D01*
X262830000Y-62619819D02*
X262925238Y-62619819D01*
X262925238Y-62619819D02*
X263020476Y-62667438D01*
X263020476Y-62667438D02*
X263068095Y-62715057D01*
X263068095Y-62715057D02*
X263115714Y-62810295D01*
X263115714Y-62810295D02*
X263163333Y-63000771D01*
X263163333Y-63000771D02*
X263163333Y-63238866D01*
X263163333Y-63238866D02*
X263115714Y-63429342D01*
X263115714Y-63429342D02*
X263068095Y-63524580D01*
X263068095Y-63524580D02*
X263020476Y-63572200D01*
X263020476Y-63572200D02*
X262925238Y-63619819D01*
X262925238Y-63619819D02*
X262830000Y-63619819D01*
X262830000Y-63619819D02*
X262734762Y-63572200D01*
X262734762Y-63572200D02*
X262687143Y-63524580D01*
X262687143Y-63524580D02*
X262639524Y-63429342D01*
X262639524Y-63429342D02*
X262591905Y-63238866D01*
X262591905Y-63238866D02*
X262591905Y-63000771D01*
X262591905Y-63000771D02*
X262639524Y-62810295D01*
X262639524Y-62810295D02*
X262687143Y-62715057D01*
X262687143Y-62715057D02*
X262734762Y-62667438D01*
X262734762Y-62667438D02*
X262830000Y-62619819D01*
X263544286Y-62715057D02*
X263591905Y-62667438D01*
X263591905Y-62667438D02*
X263687143Y-62619819D01*
X263687143Y-62619819D02*
X263925238Y-62619819D01*
X263925238Y-62619819D02*
X264020476Y-62667438D01*
X264020476Y-62667438D02*
X264068095Y-62715057D01*
X264068095Y-62715057D02*
X264115714Y-62810295D01*
X264115714Y-62810295D02*
X264115714Y-62905533D01*
X264115714Y-62905533D02*
X264068095Y-63048390D01*
X264068095Y-63048390D02*
X263496667Y-63619819D01*
X263496667Y-63619819D02*
X264115714Y-63619819D01*
X264496667Y-62715057D02*
X264544286Y-62667438D01*
X264544286Y-62667438D02*
X264639524Y-62619819D01*
X264639524Y-62619819D02*
X264877619Y-62619819D01*
X264877619Y-62619819D02*
X264972857Y-62667438D01*
X264972857Y-62667438D02*
X265020476Y-62715057D01*
X265020476Y-62715057D02*
X265068095Y-62810295D01*
X265068095Y-62810295D02*
X265068095Y-62905533D01*
X265068095Y-62905533D02*
X265020476Y-63048390D01*
X265020476Y-63048390D02*
X264449048Y-63619819D01*
X264449048Y-63619819D02*
X265068095Y-63619819D01*
X262830000Y-65159819D02*
X262925238Y-65159819D01*
X262925238Y-65159819D02*
X263020476Y-65207438D01*
X263020476Y-65207438D02*
X263068095Y-65255057D01*
X263068095Y-65255057D02*
X263115714Y-65350295D01*
X263115714Y-65350295D02*
X263163333Y-65540771D01*
X263163333Y-65540771D02*
X263163333Y-65778866D01*
X263163333Y-65778866D02*
X263115714Y-65969342D01*
X263115714Y-65969342D02*
X263068095Y-66064580D01*
X263068095Y-66064580D02*
X263020476Y-66112200D01*
X263020476Y-66112200D02*
X262925238Y-66159819D01*
X262925238Y-66159819D02*
X262830000Y-66159819D01*
X262830000Y-66159819D02*
X262734762Y-66112200D01*
X262734762Y-66112200D02*
X262687143Y-66064580D01*
X262687143Y-66064580D02*
X262639524Y-65969342D01*
X262639524Y-65969342D02*
X262591905Y-65778866D01*
X262591905Y-65778866D02*
X262591905Y-65540771D01*
X262591905Y-65540771D02*
X262639524Y-65350295D01*
X262639524Y-65350295D02*
X262687143Y-65255057D01*
X262687143Y-65255057D02*
X262734762Y-65207438D01*
X262734762Y-65207438D02*
X262830000Y-65159819D01*
X263544286Y-65255057D02*
X263591905Y-65207438D01*
X263591905Y-65207438D02*
X263687143Y-65159819D01*
X263687143Y-65159819D02*
X263925238Y-65159819D01*
X263925238Y-65159819D02*
X264020476Y-65207438D01*
X264020476Y-65207438D02*
X264068095Y-65255057D01*
X264068095Y-65255057D02*
X264115714Y-65350295D01*
X264115714Y-65350295D02*
X264115714Y-65445533D01*
X264115714Y-65445533D02*
X264068095Y-65588390D01*
X264068095Y-65588390D02*
X263496667Y-66159819D01*
X263496667Y-66159819D02*
X264115714Y-66159819D01*
X264972857Y-65493152D02*
X264972857Y-66159819D01*
X264734762Y-65112200D02*
X264496667Y-65826485D01*
X264496667Y-65826485D02*
X265115714Y-65826485D01*
X263163333Y-68699819D02*
X262591905Y-68699819D01*
X262877619Y-68699819D02*
X262877619Y-67699819D01*
X262877619Y-67699819D02*
X262782381Y-67842676D01*
X262782381Y-67842676D02*
X262687143Y-67937914D01*
X262687143Y-67937914D02*
X262591905Y-67985533D01*
X263782381Y-67699819D02*
X263877619Y-67699819D01*
X263877619Y-67699819D02*
X263972857Y-67747438D01*
X263972857Y-67747438D02*
X264020476Y-67795057D01*
X264020476Y-67795057D02*
X264068095Y-67890295D01*
X264068095Y-67890295D02*
X264115714Y-68080771D01*
X264115714Y-68080771D02*
X264115714Y-68318866D01*
X264115714Y-68318866D02*
X264068095Y-68509342D01*
X264068095Y-68509342D02*
X264020476Y-68604580D01*
X264020476Y-68604580D02*
X263972857Y-68652200D01*
X263972857Y-68652200D02*
X263877619Y-68699819D01*
X263877619Y-68699819D02*
X263782381Y-68699819D01*
X263782381Y-68699819D02*
X263687143Y-68652200D01*
X263687143Y-68652200D02*
X263639524Y-68604580D01*
X263639524Y-68604580D02*
X263591905Y-68509342D01*
X263591905Y-68509342D02*
X263544286Y-68318866D01*
X263544286Y-68318866D02*
X263544286Y-68080771D01*
X263544286Y-68080771D02*
X263591905Y-67890295D01*
X263591905Y-67890295D02*
X263639524Y-67795057D01*
X263639524Y-67795057D02*
X263687143Y-67747438D01*
X263687143Y-67747438D02*
X263782381Y-67699819D01*
X264734762Y-67699819D02*
X264830000Y-67699819D01*
X264830000Y-67699819D02*
X264925238Y-67747438D01*
X264925238Y-67747438D02*
X264972857Y-67795057D01*
X264972857Y-67795057D02*
X265020476Y-67890295D01*
X265020476Y-67890295D02*
X265068095Y-68080771D01*
X265068095Y-68080771D02*
X265068095Y-68318866D01*
X265068095Y-68318866D02*
X265020476Y-68509342D01*
X265020476Y-68509342D02*
X264972857Y-68604580D01*
X264972857Y-68604580D02*
X264925238Y-68652200D01*
X264925238Y-68652200D02*
X264830000Y-68699819D01*
X264830000Y-68699819D02*
X264734762Y-68699819D01*
X264734762Y-68699819D02*
X264639524Y-68652200D01*
X264639524Y-68652200D02*
X264591905Y-68604580D01*
X264591905Y-68604580D02*
X264544286Y-68509342D01*
X264544286Y-68509342D02*
X264496667Y-68318866D01*
X264496667Y-68318866D02*
X264496667Y-68080771D01*
X264496667Y-68080771D02*
X264544286Y-67890295D01*
X264544286Y-67890295D02*
X264591905Y-67795057D01*
X264591905Y-67795057D02*
X264639524Y-67747438D01*
X264639524Y-67747438D02*
X264734762Y-67699819D01*
X262830000Y-70239819D02*
X262925238Y-70239819D01*
X262925238Y-70239819D02*
X263020476Y-70287438D01*
X263020476Y-70287438D02*
X263068095Y-70335057D01*
X263068095Y-70335057D02*
X263115714Y-70430295D01*
X263115714Y-70430295D02*
X263163333Y-70620771D01*
X263163333Y-70620771D02*
X263163333Y-70858866D01*
X263163333Y-70858866D02*
X263115714Y-71049342D01*
X263115714Y-71049342D02*
X263068095Y-71144580D01*
X263068095Y-71144580D02*
X263020476Y-71192200D01*
X263020476Y-71192200D02*
X262925238Y-71239819D01*
X262925238Y-71239819D02*
X262830000Y-71239819D01*
X262830000Y-71239819D02*
X262734762Y-71192200D01*
X262734762Y-71192200D02*
X262687143Y-71144580D01*
X262687143Y-71144580D02*
X262639524Y-71049342D01*
X262639524Y-71049342D02*
X262591905Y-70858866D01*
X262591905Y-70858866D02*
X262591905Y-70620771D01*
X262591905Y-70620771D02*
X262639524Y-70430295D01*
X262639524Y-70430295D02*
X262687143Y-70335057D01*
X262687143Y-70335057D02*
X262734762Y-70287438D01*
X262734762Y-70287438D02*
X262830000Y-70239819D01*
X264115714Y-71239819D02*
X263544286Y-71239819D01*
X263830000Y-71239819D02*
X263830000Y-70239819D01*
X263830000Y-70239819D02*
X263734762Y-70382676D01*
X263734762Y-70382676D02*
X263639524Y-70477914D01*
X263639524Y-70477914D02*
X263544286Y-70525533D01*
X265068095Y-71239819D02*
X264496667Y-71239819D01*
X264782381Y-71239819D02*
X264782381Y-70239819D01*
X264782381Y-70239819D02*
X264687143Y-70382676D01*
X264687143Y-70382676D02*
X264591905Y-70477914D01*
X264591905Y-70477914D02*
X264496667Y-70525533D01*
X263163333Y-73779819D02*
X262591905Y-73779819D01*
X262877619Y-73779819D02*
X262877619Y-72779819D01*
X262877619Y-72779819D02*
X262782381Y-72922676D01*
X262782381Y-72922676D02*
X262687143Y-73017914D01*
X262687143Y-73017914D02*
X262591905Y-73065533D01*
X263782381Y-72779819D02*
X263877619Y-72779819D01*
X263877619Y-72779819D02*
X263972857Y-72827438D01*
X263972857Y-72827438D02*
X264020476Y-72875057D01*
X264020476Y-72875057D02*
X264068095Y-72970295D01*
X264068095Y-72970295D02*
X264115714Y-73160771D01*
X264115714Y-73160771D02*
X264115714Y-73398866D01*
X264115714Y-73398866D02*
X264068095Y-73589342D01*
X264068095Y-73589342D02*
X264020476Y-73684580D01*
X264020476Y-73684580D02*
X263972857Y-73732200D01*
X263972857Y-73732200D02*
X263877619Y-73779819D01*
X263877619Y-73779819D02*
X263782381Y-73779819D01*
X263782381Y-73779819D02*
X263687143Y-73732200D01*
X263687143Y-73732200D02*
X263639524Y-73684580D01*
X263639524Y-73684580D02*
X263591905Y-73589342D01*
X263591905Y-73589342D02*
X263544286Y-73398866D01*
X263544286Y-73398866D02*
X263544286Y-73160771D01*
X263544286Y-73160771D02*
X263591905Y-72970295D01*
X263591905Y-72970295D02*
X263639524Y-72875057D01*
X263639524Y-72875057D02*
X263687143Y-72827438D01*
X263687143Y-72827438D02*
X263782381Y-72779819D01*
X264972857Y-73113152D02*
X264972857Y-73779819D01*
X264734762Y-72732200D02*
X264496667Y-73446485D01*
X264496667Y-73446485D02*
X265115714Y-73446485D01*
X263163333Y-76319819D02*
X262591905Y-76319819D01*
X262877619Y-76319819D02*
X262877619Y-75319819D01*
X262877619Y-75319819D02*
X262782381Y-75462676D01*
X262782381Y-75462676D02*
X262687143Y-75557914D01*
X262687143Y-75557914D02*
X262591905Y-75605533D01*
X263782381Y-75319819D02*
X263877619Y-75319819D01*
X263877619Y-75319819D02*
X263972857Y-75367438D01*
X263972857Y-75367438D02*
X264020476Y-75415057D01*
X264020476Y-75415057D02*
X264068095Y-75510295D01*
X264068095Y-75510295D02*
X264115714Y-75700771D01*
X264115714Y-75700771D02*
X264115714Y-75938866D01*
X264115714Y-75938866D02*
X264068095Y-76129342D01*
X264068095Y-76129342D02*
X264020476Y-76224580D01*
X264020476Y-76224580D02*
X263972857Y-76272200D01*
X263972857Y-76272200D02*
X263877619Y-76319819D01*
X263877619Y-76319819D02*
X263782381Y-76319819D01*
X263782381Y-76319819D02*
X263687143Y-76272200D01*
X263687143Y-76272200D02*
X263639524Y-76224580D01*
X263639524Y-76224580D02*
X263591905Y-76129342D01*
X263591905Y-76129342D02*
X263544286Y-75938866D01*
X263544286Y-75938866D02*
X263544286Y-75700771D01*
X263544286Y-75700771D02*
X263591905Y-75510295D01*
X263591905Y-75510295D02*
X263639524Y-75415057D01*
X263639524Y-75415057D02*
X263687143Y-75367438D01*
X263687143Y-75367438D02*
X263782381Y-75319819D01*
X264972857Y-75319819D02*
X264782381Y-75319819D01*
X264782381Y-75319819D02*
X264687143Y-75367438D01*
X264687143Y-75367438D02*
X264639524Y-75415057D01*
X264639524Y-75415057D02*
X264544286Y-75557914D01*
X264544286Y-75557914D02*
X264496667Y-75748390D01*
X264496667Y-75748390D02*
X264496667Y-76129342D01*
X264496667Y-76129342D02*
X264544286Y-76224580D01*
X264544286Y-76224580D02*
X264591905Y-76272200D01*
X264591905Y-76272200D02*
X264687143Y-76319819D01*
X264687143Y-76319819D02*
X264877619Y-76319819D01*
X264877619Y-76319819D02*
X264972857Y-76272200D01*
X264972857Y-76272200D02*
X265020476Y-76224580D01*
X265020476Y-76224580D02*
X265068095Y-76129342D01*
X265068095Y-76129342D02*
X265068095Y-75891247D01*
X265068095Y-75891247D02*
X265020476Y-75796009D01*
X265020476Y-75796009D02*
X264972857Y-75748390D01*
X264972857Y-75748390D02*
X264877619Y-75700771D01*
X264877619Y-75700771D02*
X264687143Y-75700771D01*
X264687143Y-75700771D02*
X264591905Y-75748390D01*
X264591905Y-75748390D02*
X264544286Y-75796009D01*
X264544286Y-75796009D02*
X264496667Y-75891247D01*
X272079523Y-48379819D02*
X271746190Y-47903628D01*
X271508095Y-48379819D02*
X271508095Y-47379819D01*
X271508095Y-47379819D02*
X271889047Y-47379819D01*
X271889047Y-47379819D02*
X271984285Y-47427438D01*
X271984285Y-47427438D02*
X272031904Y-47475057D01*
X272031904Y-47475057D02*
X272079523Y-47570295D01*
X272079523Y-47570295D02*
X272079523Y-47713152D01*
X272079523Y-47713152D02*
X272031904Y-47808390D01*
X272031904Y-47808390D02*
X271984285Y-47856009D01*
X271984285Y-47856009D02*
X271889047Y-47903628D01*
X271889047Y-47903628D02*
X271508095Y-47903628D01*
X272460476Y-48094104D02*
X272936666Y-48094104D01*
X272365238Y-48379819D02*
X272698571Y-47379819D01*
X272698571Y-47379819D02*
X273031904Y-48379819D01*
X273270000Y-47379819D02*
X273508095Y-48379819D01*
X273508095Y-48379819D02*
X273698571Y-47665533D01*
X273698571Y-47665533D02*
X273889047Y-48379819D01*
X273889047Y-48379819D02*
X274127143Y-47379819D01*
X272008095Y-49967438D02*
X271912857Y-49919819D01*
X271912857Y-49919819D02*
X271770000Y-49919819D01*
X271770000Y-49919819D02*
X271627143Y-49967438D01*
X271627143Y-49967438D02*
X271531905Y-50062676D01*
X271531905Y-50062676D02*
X271484286Y-50157914D01*
X271484286Y-50157914D02*
X271436667Y-50348390D01*
X271436667Y-50348390D02*
X271436667Y-50491247D01*
X271436667Y-50491247D02*
X271484286Y-50681723D01*
X271484286Y-50681723D02*
X271531905Y-50776961D01*
X271531905Y-50776961D02*
X271627143Y-50872200D01*
X271627143Y-50872200D02*
X271770000Y-50919819D01*
X271770000Y-50919819D02*
X271865238Y-50919819D01*
X271865238Y-50919819D02*
X272008095Y-50872200D01*
X272008095Y-50872200D02*
X272055714Y-50824580D01*
X272055714Y-50824580D02*
X272055714Y-50491247D01*
X272055714Y-50491247D02*
X271865238Y-50491247D01*
X272484286Y-50919819D02*
X272484286Y-49919819D01*
X272484286Y-49919819D02*
X273055714Y-50919819D01*
X273055714Y-50919819D02*
X273055714Y-49919819D01*
X273531905Y-50919819D02*
X273531905Y-49919819D01*
X273531905Y-49919819D02*
X273770000Y-49919819D01*
X273770000Y-49919819D02*
X273912857Y-49967438D01*
X273912857Y-49967438D02*
X274008095Y-50062676D01*
X274008095Y-50062676D02*
X274055714Y-50157914D01*
X274055714Y-50157914D02*
X274103333Y-50348390D01*
X274103333Y-50348390D02*
X274103333Y-50491247D01*
X274103333Y-50491247D02*
X274055714Y-50681723D01*
X274055714Y-50681723D02*
X274008095Y-50776961D01*
X274008095Y-50776961D02*
X273912857Y-50872200D01*
X273912857Y-50872200D02*
X273770000Y-50919819D01*
X273770000Y-50919819D02*
X273531905Y-50919819D01*
X272222380Y-53459819D02*
X271889047Y-52983628D01*
X271650952Y-53459819D02*
X271650952Y-52459819D01*
X271650952Y-52459819D02*
X272031904Y-52459819D01*
X272031904Y-52459819D02*
X272127142Y-52507438D01*
X272127142Y-52507438D02*
X272174761Y-52555057D01*
X272174761Y-52555057D02*
X272222380Y-52650295D01*
X272222380Y-52650295D02*
X272222380Y-52793152D01*
X272222380Y-52793152D02*
X272174761Y-52888390D01*
X272174761Y-52888390D02*
X272127142Y-52936009D01*
X272127142Y-52936009D02*
X272031904Y-52983628D01*
X272031904Y-52983628D02*
X271650952Y-52983628D01*
X272603333Y-53412200D02*
X272746190Y-53459819D01*
X272746190Y-53459819D02*
X272984285Y-53459819D01*
X272984285Y-53459819D02*
X273079523Y-53412200D01*
X273079523Y-53412200D02*
X273127142Y-53364580D01*
X273127142Y-53364580D02*
X273174761Y-53269342D01*
X273174761Y-53269342D02*
X273174761Y-53174104D01*
X273174761Y-53174104D02*
X273127142Y-53078866D01*
X273127142Y-53078866D02*
X273079523Y-53031247D01*
X273079523Y-53031247D02*
X272984285Y-52983628D01*
X272984285Y-52983628D02*
X272793809Y-52936009D01*
X272793809Y-52936009D02*
X272698571Y-52888390D01*
X272698571Y-52888390D02*
X272650952Y-52840771D01*
X272650952Y-52840771D02*
X272603333Y-52745533D01*
X272603333Y-52745533D02*
X272603333Y-52650295D01*
X272603333Y-52650295D02*
X272650952Y-52555057D01*
X272650952Y-52555057D02*
X272698571Y-52507438D01*
X272698571Y-52507438D02*
X272793809Y-52459819D01*
X272793809Y-52459819D02*
X273031904Y-52459819D01*
X273031904Y-52459819D02*
X273174761Y-52507438D01*
X273460476Y-52459819D02*
X274031904Y-52459819D01*
X273746190Y-53459819D02*
X273746190Y-52459819D01*
X271436667Y-54999819D02*
X271770000Y-55999819D01*
X271770000Y-55999819D02*
X272103333Y-54999819D01*
X273008095Y-55904580D02*
X272960476Y-55952200D01*
X272960476Y-55952200D02*
X272817619Y-55999819D01*
X272817619Y-55999819D02*
X272722381Y-55999819D01*
X272722381Y-55999819D02*
X272579524Y-55952200D01*
X272579524Y-55952200D02*
X272484286Y-55856961D01*
X272484286Y-55856961D02*
X272436667Y-55761723D01*
X272436667Y-55761723D02*
X272389048Y-55571247D01*
X272389048Y-55571247D02*
X272389048Y-55428390D01*
X272389048Y-55428390D02*
X272436667Y-55237914D01*
X272436667Y-55237914D02*
X272484286Y-55142676D01*
X272484286Y-55142676D02*
X272579524Y-55047438D01*
X272579524Y-55047438D02*
X272722381Y-54999819D01*
X272722381Y-54999819D02*
X272817619Y-54999819D01*
X272817619Y-54999819D02*
X272960476Y-55047438D01*
X272960476Y-55047438D02*
X273008095Y-55095057D01*
X274008095Y-55904580D02*
X273960476Y-55952200D01*
X273960476Y-55952200D02*
X273817619Y-55999819D01*
X273817619Y-55999819D02*
X273722381Y-55999819D01*
X273722381Y-55999819D02*
X273579524Y-55952200D01*
X273579524Y-55952200D02*
X273484286Y-55856961D01*
X273484286Y-55856961D02*
X273436667Y-55761723D01*
X273436667Y-55761723D02*
X273389048Y-55571247D01*
X273389048Y-55571247D02*
X273389048Y-55428390D01*
X273389048Y-55428390D02*
X273436667Y-55237914D01*
X273436667Y-55237914D02*
X273484286Y-55142676D01*
X273484286Y-55142676D02*
X273579524Y-55047438D01*
X273579524Y-55047438D02*
X273722381Y-54999819D01*
X273722381Y-54999819D02*
X273817619Y-54999819D01*
X273817619Y-54999819D02*
X273960476Y-55047438D01*
X273960476Y-55047438D02*
X274008095Y-55095057D01*
X271770000Y-57539819D02*
X271865238Y-57539819D01*
X271865238Y-57539819D02*
X271960476Y-57587438D01*
X271960476Y-57587438D02*
X272008095Y-57635057D01*
X272008095Y-57635057D02*
X272055714Y-57730295D01*
X272055714Y-57730295D02*
X272103333Y-57920771D01*
X272103333Y-57920771D02*
X272103333Y-58158866D01*
X272103333Y-58158866D02*
X272055714Y-58349342D01*
X272055714Y-58349342D02*
X272008095Y-58444580D01*
X272008095Y-58444580D02*
X271960476Y-58492200D01*
X271960476Y-58492200D02*
X271865238Y-58539819D01*
X271865238Y-58539819D02*
X271770000Y-58539819D01*
X271770000Y-58539819D02*
X271674762Y-58492200D01*
X271674762Y-58492200D02*
X271627143Y-58444580D01*
X271627143Y-58444580D02*
X271579524Y-58349342D01*
X271579524Y-58349342D02*
X271531905Y-58158866D01*
X271531905Y-58158866D02*
X271531905Y-57920771D01*
X271531905Y-57920771D02*
X271579524Y-57730295D01*
X271579524Y-57730295D02*
X271627143Y-57635057D01*
X271627143Y-57635057D02*
X271674762Y-57587438D01*
X271674762Y-57587438D02*
X271770000Y-57539819D01*
X272436667Y-57539819D02*
X273055714Y-57539819D01*
X273055714Y-57539819D02*
X272722381Y-57920771D01*
X272722381Y-57920771D02*
X272865238Y-57920771D01*
X272865238Y-57920771D02*
X272960476Y-57968390D01*
X272960476Y-57968390D02*
X273008095Y-58016009D01*
X273008095Y-58016009D02*
X273055714Y-58111247D01*
X273055714Y-58111247D02*
X273055714Y-58349342D01*
X273055714Y-58349342D02*
X273008095Y-58444580D01*
X273008095Y-58444580D02*
X272960476Y-58492200D01*
X272960476Y-58492200D02*
X272865238Y-58539819D01*
X272865238Y-58539819D02*
X272579524Y-58539819D01*
X272579524Y-58539819D02*
X272484286Y-58492200D01*
X272484286Y-58492200D02*
X272436667Y-58444580D01*
X274008095Y-58539819D02*
X273436667Y-58539819D01*
X273722381Y-58539819D02*
X273722381Y-57539819D01*
X273722381Y-57539819D02*
X273627143Y-57682676D01*
X273627143Y-57682676D02*
X273531905Y-57777914D01*
X273531905Y-57777914D02*
X273436667Y-57825533D01*
X271770000Y-60079819D02*
X271865238Y-60079819D01*
X271865238Y-60079819D02*
X271960476Y-60127438D01*
X271960476Y-60127438D02*
X272008095Y-60175057D01*
X272008095Y-60175057D02*
X272055714Y-60270295D01*
X272055714Y-60270295D02*
X272103333Y-60460771D01*
X272103333Y-60460771D02*
X272103333Y-60698866D01*
X272103333Y-60698866D02*
X272055714Y-60889342D01*
X272055714Y-60889342D02*
X272008095Y-60984580D01*
X272008095Y-60984580D02*
X271960476Y-61032200D01*
X271960476Y-61032200D02*
X271865238Y-61079819D01*
X271865238Y-61079819D02*
X271770000Y-61079819D01*
X271770000Y-61079819D02*
X271674762Y-61032200D01*
X271674762Y-61032200D02*
X271627143Y-60984580D01*
X271627143Y-60984580D02*
X271579524Y-60889342D01*
X271579524Y-60889342D02*
X271531905Y-60698866D01*
X271531905Y-60698866D02*
X271531905Y-60460771D01*
X271531905Y-60460771D02*
X271579524Y-60270295D01*
X271579524Y-60270295D02*
X271627143Y-60175057D01*
X271627143Y-60175057D02*
X271674762Y-60127438D01*
X271674762Y-60127438D02*
X271770000Y-60079819D01*
X272484286Y-60175057D02*
X272531905Y-60127438D01*
X272531905Y-60127438D02*
X272627143Y-60079819D01*
X272627143Y-60079819D02*
X272865238Y-60079819D01*
X272865238Y-60079819D02*
X272960476Y-60127438D01*
X272960476Y-60127438D02*
X273008095Y-60175057D01*
X273008095Y-60175057D02*
X273055714Y-60270295D01*
X273055714Y-60270295D02*
X273055714Y-60365533D01*
X273055714Y-60365533D02*
X273008095Y-60508390D01*
X273008095Y-60508390D02*
X272436667Y-61079819D01*
X272436667Y-61079819D02*
X273055714Y-61079819D01*
X273531905Y-61079819D02*
X273722381Y-61079819D01*
X273722381Y-61079819D02*
X273817619Y-61032200D01*
X273817619Y-61032200D02*
X273865238Y-60984580D01*
X273865238Y-60984580D02*
X273960476Y-60841723D01*
X273960476Y-60841723D02*
X274008095Y-60651247D01*
X274008095Y-60651247D02*
X274008095Y-60270295D01*
X274008095Y-60270295D02*
X273960476Y-60175057D01*
X273960476Y-60175057D02*
X273912857Y-60127438D01*
X273912857Y-60127438D02*
X273817619Y-60079819D01*
X273817619Y-60079819D02*
X273627143Y-60079819D01*
X273627143Y-60079819D02*
X273531905Y-60127438D01*
X273531905Y-60127438D02*
X273484286Y-60175057D01*
X273484286Y-60175057D02*
X273436667Y-60270295D01*
X273436667Y-60270295D02*
X273436667Y-60508390D01*
X273436667Y-60508390D02*
X273484286Y-60603628D01*
X273484286Y-60603628D02*
X273531905Y-60651247D01*
X273531905Y-60651247D02*
X273627143Y-60698866D01*
X273627143Y-60698866D02*
X273817619Y-60698866D01*
X273817619Y-60698866D02*
X273912857Y-60651247D01*
X273912857Y-60651247D02*
X273960476Y-60603628D01*
X273960476Y-60603628D02*
X274008095Y-60508390D01*
X271770000Y-62619819D02*
X271865238Y-62619819D01*
X271865238Y-62619819D02*
X271960476Y-62667438D01*
X271960476Y-62667438D02*
X272008095Y-62715057D01*
X272008095Y-62715057D02*
X272055714Y-62810295D01*
X272055714Y-62810295D02*
X272103333Y-63000771D01*
X272103333Y-63000771D02*
X272103333Y-63238866D01*
X272103333Y-63238866D02*
X272055714Y-63429342D01*
X272055714Y-63429342D02*
X272008095Y-63524580D01*
X272008095Y-63524580D02*
X271960476Y-63572200D01*
X271960476Y-63572200D02*
X271865238Y-63619819D01*
X271865238Y-63619819D02*
X271770000Y-63619819D01*
X271770000Y-63619819D02*
X271674762Y-63572200D01*
X271674762Y-63572200D02*
X271627143Y-63524580D01*
X271627143Y-63524580D02*
X271579524Y-63429342D01*
X271579524Y-63429342D02*
X271531905Y-63238866D01*
X271531905Y-63238866D02*
X271531905Y-63000771D01*
X271531905Y-63000771D02*
X271579524Y-62810295D01*
X271579524Y-62810295D02*
X271627143Y-62715057D01*
X271627143Y-62715057D02*
X271674762Y-62667438D01*
X271674762Y-62667438D02*
X271770000Y-62619819D01*
X272722381Y-62619819D02*
X272817619Y-62619819D01*
X272817619Y-62619819D02*
X272912857Y-62667438D01*
X272912857Y-62667438D02*
X272960476Y-62715057D01*
X272960476Y-62715057D02*
X273008095Y-62810295D01*
X273008095Y-62810295D02*
X273055714Y-63000771D01*
X273055714Y-63000771D02*
X273055714Y-63238866D01*
X273055714Y-63238866D02*
X273008095Y-63429342D01*
X273008095Y-63429342D02*
X272960476Y-63524580D01*
X272960476Y-63524580D02*
X272912857Y-63572200D01*
X272912857Y-63572200D02*
X272817619Y-63619819D01*
X272817619Y-63619819D02*
X272722381Y-63619819D01*
X272722381Y-63619819D02*
X272627143Y-63572200D01*
X272627143Y-63572200D02*
X272579524Y-63524580D01*
X272579524Y-63524580D02*
X272531905Y-63429342D01*
X272531905Y-63429342D02*
X272484286Y-63238866D01*
X272484286Y-63238866D02*
X272484286Y-63000771D01*
X272484286Y-63000771D02*
X272531905Y-62810295D01*
X272531905Y-62810295D02*
X272579524Y-62715057D01*
X272579524Y-62715057D02*
X272627143Y-62667438D01*
X272627143Y-62667438D02*
X272722381Y-62619819D01*
X273436667Y-62715057D02*
X273484286Y-62667438D01*
X273484286Y-62667438D02*
X273579524Y-62619819D01*
X273579524Y-62619819D02*
X273817619Y-62619819D01*
X273817619Y-62619819D02*
X273912857Y-62667438D01*
X273912857Y-62667438D02*
X273960476Y-62715057D01*
X273960476Y-62715057D02*
X274008095Y-62810295D01*
X274008095Y-62810295D02*
X274008095Y-62905533D01*
X274008095Y-62905533D02*
X273960476Y-63048390D01*
X273960476Y-63048390D02*
X273389048Y-63619819D01*
X273389048Y-63619819D02*
X274008095Y-63619819D01*
X272103333Y-66159819D02*
X271531905Y-66159819D01*
X271817619Y-66159819D02*
X271817619Y-65159819D01*
X271817619Y-65159819D02*
X271722381Y-65302676D01*
X271722381Y-65302676D02*
X271627143Y-65397914D01*
X271627143Y-65397914D02*
X271531905Y-65445533D01*
X273055714Y-66159819D02*
X272484286Y-66159819D01*
X272770000Y-66159819D02*
X272770000Y-65159819D01*
X272770000Y-65159819D02*
X272674762Y-65302676D01*
X272674762Y-65302676D02*
X272579524Y-65397914D01*
X272579524Y-65397914D02*
X272484286Y-65445533D01*
X273960476Y-65159819D02*
X273484286Y-65159819D01*
X273484286Y-65159819D02*
X273436667Y-65636009D01*
X273436667Y-65636009D02*
X273484286Y-65588390D01*
X273484286Y-65588390D02*
X273579524Y-65540771D01*
X273579524Y-65540771D02*
X273817619Y-65540771D01*
X273817619Y-65540771D02*
X273912857Y-65588390D01*
X273912857Y-65588390D02*
X273960476Y-65636009D01*
X273960476Y-65636009D02*
X274008095Y-65731247D01*
X274008095Y-65731247D02*
X274008095Y-65969342D01*
X274008095Y-65969342D02*
X273960476Y-66064580D01*
X273960476Y-66064580D02*
X273912857Y-66112200D01*
X273912857Y-66112200D02*
X273817619Y-66159819D01*
X273817619Y-66159819D02*
X273579524Y-66159819D01*
X273579524Y-66159819D02*
X273484286Y-66112200D01*
X273484286Y-66112200D02*
X273436667Y-66064580D01*
X272103333Y-68699819D02*
X271531905Y-68699819D01*
X271817619Y-68699819D02*
X271817619Y-67699819D01*
X271817619Y-67699819D02*
X271722381Y-67842676D01*
X271722381Y-67842676D02*
X271627143Y-67937914D01*
X271627143Y-67937914D02*
X271531905Y-67985533D01*
X273055714Y-68699819D02*
X272484286Y-68699819D01*
X272770000Y-68699819D02*
X272770000Y-67699819D01*
X272770000Y-67699819D02*
X272674762Y-67842676D01*
X272674762Y-67842676D02*
X272579524Y-67937914D01*
X272579524Y-67937914D02*
X272484286Y-67985533D01*
X273389048Y-67699819D02*
X274008095Y-67699819D01*
X274008095Y-67699819D02*
X273674762Y-68080771D01*
X273674762Y-68080771D02*
X273817619Y-68080771D01*
X273817619Y-68080771D02*
X273912857Y-68128390D01*
X273912857Y-68128390D02*
X273960476Y-68176009D01*
X273960476Y-68176009D02*
X274008095Y-68271247D01*
X274008095Y-68271247D02*
X274008095Y-68509342D01*
X274008095Y-68509342D02*
X273960476Y-68604580D01*
X273960476Y-68604580D02*
X273912857Y-68652200D01*
X273912857Y-68652200D02*
X273817619Y-68699819D01*
X273817619Y-68699819D02*
X273531905Y-68699819D01*
X273531905Y-68699819D02*
X273436667Y-68652200D01*
X273436667Y-68652200D02*
X273389048Y-68604580D01*
X272103333Y-71239819D02*
X271531905Y-71239819D01*
X271817619Y-71239819D02*
X271817619Y-70239819D01*
X271817619Y-70239819D02*
X271722381Y-70382676D01*
X271722381Y-70382676D02*
X271627143Y-70477914D01*
X271627143Y-70477914D02*
X271531905Y-70525533D01*
X273055714Y-71239819D02*
X272484286Y-71239819D01*
X272770000Y-71239819D02*
X272770000Y-70239819D01*
X272770000Y-70239819D02*
X272674762Y-70382676D01*
X272674762Y-70382676D02*
X272579524Y-70477914D01*
X272579524Y-70477914D02*
X272484286Y-70525533D01*
X274008095Y-71239819D02*
X273436667Y-71239819D01*
X273722381Y-71239819D02*
X273722381Y-70239819D01*
X273722381Y-70239819D02*
X273627143Y-70382676D01*
X273627143Y-70382676D02*
X273531905Y-70477914D01*
X273531905Y-70477914D02*
X273436667Y-70525533D01*
X271770000Y-72779819D02*
X271865238Y-72779819D01*
X271865238Y-72779819D02*
X271960476Y-72827438D01*
X271960476Y-72827438D02*
X272008095Y-72875057D01*
X272008095Y-72875057D02*
X272055714Y-72970295D01*
X272055714Y-72970295D02*
X272103333Y-73160771D01*
X272103333Y-73160771D02*
X272103333Y-73398866D01*
X272103333Y-73398866D02*
X272055714Y-73589342D01*
X272055714Y-73589342D02*
X272008095Y-73684580D01*
X272008095Y-73684580D02*
X271960476Y-73732200D01*
X271960476Y-73732200D02*
X271865238Y-73779819D01*
X271865238Y-73779819D02*
X271770000Y-73779819D01*
X271770000Y-73779819D02*
X271674762Y-73732200D01*
X271674762Y-73732200D02*
X271627143Y-73684580D01*
X271627143Y-73684580D02*
X271579524Y-73589342D01*
X271579524Y-73589342D02*
X271531905Y-73398866D01*
X271531905Y-73398866D02*
X271531905Y-73160771D01*
X271531905Y-73160771D02*
X271579524Y-72970295D01*
X271579524Y-72970295D02*
X271627143Y-72875057D01*
X271627143Y-72875057D02*
X271674762Y-72827438D01*
X271674762Y-72827438D02*
X271770000Y-72779819D01*
X273055714Y-73779819D02*
X272484286Y-73779819D01*
X272770000Y-73779819D02*
X272770000Y-72779819D01*
X272770000Y-72779819D02*
X272674762Y-72922676D01*
X272674762Y-72922676D02*
X272579524Y-73017914D01*
X272579524Y-73017914D02*
X272484286Y-73065533D01*
X273674762Y-72779819D02*
X273770000Y-72779819D01*
X273770000Y-72779819D02*
X273865238Y-72827438D01*
X273865238Y-72827438D02*
X273912857Y-72875057D01*
X273912857Y-72875057D02*
X273960476Y-72970295D01*
X273960476Y-72970295D02*
X274008095Y-73160771D01*
X274008095Y-73160771D02*
X274008095Y-73398866D01*
X274008095Y-73398866D02*
X273960476Y-73589342D01*
X273960476Y-73589342D02*
X273912857Y-73684580D01*
X273912857Y-73684580D02*
X273865238Y-73732200D01*
X273865238Y-73732200D02*
X273770000Y-73779819D01*
X273770000Y-73779819D02*
X273674762Y-73779819D01*
X273674762Y-73779819D02*
X273579524Y-73732200D01*
X273579524Y-73732200D02*
X273531905Y-73684580D01*
X273531905Y-73684580D02*
X273484286Y-73589342D01*
X273484286Y-73589342D02*
X273436667Y-73398866D01*
X273436667Y-73398866D02*
X273436667Y-73160771D01*
X273436667Y-73160771D02*
X273484286Y-72970295D01*
X273484286Y-72970295D02*
X273531905Y-72875057D01*
X273531905Y-72875057D02*
X273579524Y-72827438D01*
X273579524Y-72827438D02*
X273674762Y-72779819D01*
X271770000Y-75319819D02*
X271865238Y-75319819D01*
X271865238Y-75319819D02*
X271960476Y-75367438D01*
X271960476Y-75367438D02*
X272008095Y-75415057D01*
X272008095Y-75415057D02*
X272055714Y-75510295D01*
X272055714Y-75510295D02*
X272103333Y-75700771D01*
X272103333Y-75700771D02*
X272103333Y-75938866D01*
X272103333Y-75938866D02*
X272055714Y-76129342D01*
X272055714Y-76129342D02*
X272008095Y-76224580D01*
X272008095Y-76224580D02*
X271960476Y-76272200D01*
X271960476Y-76272200D02*
X271865238Y-76319819D01*
X271865238Y-76319819D02*
X271770000Y-76319819D01*
X271770000Y-76319819D02*
X271674762Y-76272200D01*
X271674762Y-76272200D02*
X271627143Y-76224580D01*
X271627143Y-76224580D02*
X271579524Y-76129342D01*
X271579524Y-76129342D02*
X271531905Y-75938866D01*
X271531905Y-75938866D02*
X271531905Y-75700771D01*
X271531905Y-75700771D02*
X271579524Y-75510295D01*
X271579524Y-75510295D02*
X271627143Y-75415057D01*
X271627143Y-75415057D02*
X271674762Y-75367438D01*
X271674762Y-75367438D02*
X271770000Y-75319819D01*
X272722381Y-75319819D02*
X272817619Y-75319819D01*
X272817619Y-75319819D02*
X272912857Y-75367438D01*
X272912857Y-75367438D02*
X272960476Y-75415057D01*
X272960476Y-75415057D02*
X273008095Y-75510295D01*
X273008095Y-75510295D02*
X273055714Y-75700771D01*
X273055714Y-75700771D02*
X273055714Y-75938866D01*
X273055714Y-75938866D02*
X273008095Y-76129342D01*
X273008095Y-76129342D02*
X272960476Y-76224580D01*
X272960476Y-76224580D02*
X272912857Y-76272200D01*
X272912857Y-76272200D02*
X272817619Y-76319819D01*
X272817619Y-76319819D02*
X272722381Y-76319819D01*
X272722381Y-76319819D02*
X272627143Y-76272200D01*
X272627143Y-76272200D02*
X272579524Y-76224580D01*
X272579524Y-76224580D02*
X272531905Y-76129342D01*
X272531905Y-76129342D02*
X272484286Y-75938866D01*
X272484286Y-75938866D02*
X272484286Y-75700771D01*
X272484286Y-75700771D02*
X272531905Y-75510295D01*
X272531905Y-75510295D02*
X272579524Y-75415057D01*
X272579524Y-75415057D02*
X272627143Y-75367438D01*
X272627143Y-75367438D02*
X272722381Y-75319819D01*
X273531905Y-76319819D02*
X273722381Y-76319819D01*
X273722381Y-76319819D02*
X273817619Y-76272200D01*
X273817619Y-76272200D02*
X273865238Y-76224580D01*
X273865238Y-76224580D02*
X273960476Y-76081723D01*
X273960476Y-76081723D02*
X274008095Y-75891247D01*
X274008095Y-75891247D02*
X274008095Y-75510295D01*
X274008095Y-75510295D02*
X273960476Y-75415057D01*
X273960476Y-75415057D02*
X273912857Y-75367438D01*
X273912857Y-75367438D02*
X273817619Y-75319819D01*
X273817619Y-75319819D02*
X273627143Y-75319819D01*
X273627143Y-75319819D02*
X273531905Y-75367438D01*
X273531905Y-75367438D02*
X273484286Y-75415057D01*
X273484286Y-75415057D02*
X273436667Y-75510295D01*
X273436667Y-75510295D02*
X273436667Y-75748390D01*
X273436667Y-75748390D02*
X273484286Y-75843628D01*
X273484286Y-75843628D02*
X273531905Y-75891247D01*
X273531905Y-75891247D02*
X273627143Y-75938866D01*
X273627143Y-75938866D02*
X273817619Y-75938866D01*
X273817619Y-75938866D02*
X273912857Y-75891247D01*
X273912857Y-75891247D02*
X273960476Y-75843628D01*
X273960476Y-75843628D02*
X274008095Y-75748390D01*
%TO.C,JST1*%
D11*
X260340000Y-81615000D02*
X261340000Y-81615000D01*
X260340000Y-82535000D02*
X260340000Y-81615000D01*
X260340000Y-86735000D02*
X260340000Y-87735000D01*
X260340000Y-87735000D02*
X261340000Y-87735000D01*
X268160000Y-81615000D02*
X267160000Y-81615000D01*
X268160000Y-82535000D02*
X268160000Y-81615000D01*
X268160000Y-86815000D02*
X268160000Y-87735000D01*
X268160000Y-87735000D02*
X267160000Y-87735000D01*
D12*
X268700000Y-83675000D02*
X269700000Y-83675000D01*
X269200000Y-83175000D02*
X269200000Y-84175000D01*
X269200000Y-86175000D02*
X269200000Y-85175000D01*
%TO.C,RST1*%
X254400000Y-56525000D02*
X254400000Y-56275000D01*
X254400000Y-60725000D02*
X254400000Y-60975000D01*
X254650000Y-56275000D02*
X254400000Y-56275000D01*
X254650000Y-60975000D02*
X254400000Y-60975000D01*
X257650000Y-56275000D02*
X257900000Y-56275000D01*
X257650000Y-60975000D02*
X257900000Y-60975000D01*
X257900000Y-56525000D02*
X257900000Y-56275000D01*
X257900000Y-60725000D02*
X257900000Y-60975000D01*
%TO.C,PWR1*%
D11*
X254725000Y-80350000D02*
X254725000Y-86050000D01*
X255735000Y-86650000D02*
X256525000Y-86650000D01*
X256525000Y-79750000D02*
X255735000Y-79750000D01*
X257575000Y-81600000D02*
X257575000Y-83300000D01*
X257575000Y-84600000D02*
X257575000Y-84800000D01*
%TO.C,MCU1*%
X259350000Y-46595000D02*
X259350000Y-77195000D01*
X259350000Y-46595000D02*
X262010000Y-46595000D01*
X259350000Y-77195000D02*
X262010000Y-77195000D01*
X262010000Y-46595000D02*
X262010000Y-77195000D01*
X262010000Y-49195000D02*
X259350000Y-49195000D01*
X274590000Y-46595000D02*
X274590000Y-77195000D01*
X274590000Y-46595000D02*
X277250000Y-46595000D01*
X274590000Y-77195000D02*
X277250000Y-77195000D01*
X277250000Y-46595000D02*
X277250000Y-77195000D01*
%TD*%
%LPC*%
D13*
%TO.C,JST1*%
X261800000Y-85675000D03*
D14*
X261800000Y-83675000D03*
%TD*%
D15*
%TO.C,MH1*%
X359600000Y-58250000D03*
%TD*%
D16*
%TO.C,RST1*%
X255300000Y-56000000D03*
X257000000Y-56000000D03*
X255300000Y-61250000D03*
X257000000Y-61250000D03*
%TD*%
D15*
%TO.C,MH5*%
X273362500Y-135534300D03*
%TD*%
D17*
%TO.C,PWR1*%
X257235000Y-86850000D03*
X257235000Y-79550000D03*
D18*
X256125000Y-84700000D03*
X256125000Y-81700000D03*
D17*
X255025000Y-86850000D03*
X255025000Y-79550000D03*
D19*
X257885000Y-80950000D03*
X257885000Y-83950000D03*
X257885000Y-85450000D03*
%TD*%
D15*
%TO.C,MH2*%
X360600000Y-110500000D03*
%TD*%
D20*
%TO.C,MCU1*%
X275920000Y-47925000D03*
X275920000Y-50465000D03*
X275920000Y-53005000D03*
X275920000Y-55545000D03*
X275920000Y-58085000D03*
X275920000Y-60625000D03*
X275920000Y-63165000D03*
X275920000Y-65705000D03*
X275920000Y-68245000D03*
X275920000Y-70785000D03*
X275920000Y-73325000D03*
X275920000Y-75865000D03*
X260680000Y-75865000D03*
X260680000Y-73325000D03*
X260680000Y-70785000D03*
X260680000Y-68245000D03*
X260680000Y-65705000D03*
X260680000Y-63165000D03*
X260680000Y-60625000D03*
X260680000Y-58085000D03*
X260680000Y-55545000D03*
X260680000Y-53005000D03*
X260680000Y-50465000D03*
X260680000Y-47925000D03*
%TD*%
D15*
%TO.C,MH4*%
X307400000Y-117150000D03*
%TD*%
%TO.C,MH3*%
X303980000Y-59625000D03*
%TD*%
D21*
%TO.C,S22*%
X289020000Y-89125000D03*
D22*
X290290000Y-86585000D03*
D23*
X294100000Y-89125000D03*
D22*
X296640000Y-84045000D03*
D21*
X299180000Y-89125000D03*
%TD*%
%TO.C,S11*%
X346020000Y-67750000D03*
D22*
X347290000Y-65210000D03*
D23*
X351100000Y-67750000D03*
D22*
X353640000Y-62670000D03*
D21*
X356180000Y-67750000D03*
%TD*%
%TO.C,S12*%
X346020000Y-48750000D03*
D22*
X347290000Y-46210000D03*
D23*
X351100000Y-48750000D03*
D22*
X353640000Y-43670000D03*
D21*
X356180000Y-48750000D03*
%TD*%
%TO.C,S3*%
X384020000Y-82000000D03*
D22*
X385290000Y-79460000D03*
D23*
X389100000Y-82000000D03*
D22*
X391640000Y-76920000D03*
D21*
X394180000Y-82000000D03*
%TD*%
%TO.C,S7*%
X365020000Y-82000000D03*
D22*
X366290000Y-79460000D03*
D23*
X370100000Y-82000000D03*
D22*
X372640000Y-76920000D03*
D21*
X375180000Y-82000000D03*
%TD*%
%TO.C,S15*%
X327020000Y-63000000D03*
D22*
X328290000Y-60460000D03*
D23*
X332100000Y-63000000D03*
D22*
X334640000Y-57920000D03*
D21*
X337180000Y-63000000D03*
%TD*%
%TO.C,S8*%
X365020000Y-63000000D03*
D22*
X366290000Y-60460000D03*
D23*
X370100000Y-63000000D03*
D22*
X372640000Y-57920000D03*
D21*
X375180000Y-63000000D03*
%TD*%
%TO.C,S20*%
X308020000Y-48750000D03*
D22*
X309290000Y-46210000D03*
D23*
X313100000Y-48750000D03*
D22*
X315640000Y-43670000D03*
D21*
X318180000Y-48750000D03*
%TD*%
%TO.C,S2*%
X384020000Y-101000000D03*
D22*
X385290000Y-98460000D03*
D23*
X389100000Y-101000000D03*
D22*
X391640000Y-95920000D03*
D21*
X394180000Y-101000000D03*
%TD*%
%TO.C,S13*%
X327020000Y-101000000D03*
D22*
X328290000Y-98460000D03*
D23*
X332100000Y-101000000D03*
D22*
X334640000Y-95920000D03*
D21*
X337180000Y-101000000D03*
%TD*%
%TO.C,S10*%
X346020000Y-86750000D03*
D22*
X347290000Y-84210000D03*
D23*
X351100000Y-86750000D03*
D22*
X353640000Y-81670000D03*
D21*
X356180000Y-86750000D03*
%TD*%
%TO.C,S17*%
X308020000Y-105750000D03*
D22*
X309290000Y-103210000D03*
D23*
X313100000Y-105750000D03*
D22*
X315640000Y-100670000D03*
D21*
X318180000Y-105750000D03*
%TD*%
%TO.C,S19*%
X308020000Y-67750000D03*
D22*
X309290000Y-65210000D03*
D23*
X313100000Y-67750000D03*
D22*
X315640000Y-62670000D03*
D21*
X318180000Y-67750000D03*
%TD*%
%TO.C,S5*%
X365020000Y-120000000D03*
D22*
X366290000Y-117460000D03*
D23*
X370100000Y-120000000D03*
D22*
X372640000Y-114920000D03*
D21*
X375180000Y-120000000D03*
%TD*%
%TO.C,S27*%
X260590391Y-146372300D03*
D22*
X260420243Y-143537595D03*
D23*
X264989800Y-143832300D03*
D22*
X264649505Y-138162891D03*
D21*
X269389209Y-141292300D03*
%TD*%
%TO.C,S9*%
X346020000Y-105750000D03*
D22*
X347290000Y-103210000D03*
D23*
X351100000Y-105750000D03*
D22*
X353640000Y-100670000D03*
D21*
X356180000Y-105750000D03*
%TD*%
%TO.C,S21*%
X289020000Y-108125000D03*
D22*
X290290000Y-105585000D03*
D23*
X294100000Y-108125000D03*
D22*
X296640000Y-103045000D03*
D21*
X299180000Y-108125000D03*
%TD*%
%TO.C,S4*%
X384020000Y-63000000D03*
D22*
X385290000Y-60460000D03*
D23*
X389100000Y-63000000D03*
D22*
X391640000Y-57920000D03*
D21*
X394180000Y-63000000D03*
%TD*%
%TO.C,S24*%
X289020000Y-51125000D03*
D22*
X290290000Y-48585000D03*
D23*
X294100000Y-51125000D03*
D22*
X296640000Y-46045000D03*
D21*
X299180000Y-51125000D03*
%TD*%
%TO.C,S18*%
X308020000Y-86750000D03*
D22*
X309290000Y-84210000D03*
D23*
X313100000Y-86750000D03*
D22*
X315640000Y-81670000D03*
D21*
X318180000Y-86750000D03*
%TD*%
%TO.C,S1*%
X384020000Y-120000000D03*
D22*
X385290000Y-117460000D03*
D23*
X389100000Y-120000000D03*
D22*
X391640000Y-114920000D03*
D21*
X394180000Y-120000000D03*
%TD*%
%TO.C,S26*%
X279810961Y-136528762D03*
D22*
X280135640Y-133707577D03*
D23*
X284584600Y-134791300D03*
D22*
X285233957Y-129148930D03*
D21*
X289358239Y-133053838D03*
%TD*%
%TO.C,S25*%
X300448877Y-130172333D03*
D22*
X301258516Y-127450388D03*
D23*
X305451700Y-129290200D03*
D22*
X307070979Y-123846310D03*
D21*
X310454523Y-128408067D03*
%TD*%
%TO.C,S16*%
X327020000Y-44000000D03*
D22*
X328290000Y-41460000D03*
D23*
X332100000Y-44000000D03*
D22*
X334640000Y-38920000D03*
D21*
X337180000Y-44000000D03*
%TD*%
%TO.C,S14*%
X327020000Y-82000000D03*
D22*
X328290000Y-79460000D03*
D23*
X332100000Y-82000000D03*
D22*
X334640000Y-76920000D03*
D21*
X337180000Y-82000000D03*
%TD*%
%TO.C,S6*%
X365020000Y-101000000D03*
D22*
X366290000Y-98460000D03*
D23*
X370100000Y-101000000D03*
D22*
X372640000Y-95920000D03*
D21*
X375180000Y-101000000D03*
%TD*%
%TO.C,S23*%
X289020000Y-70125000D03*
D22*
X290290000Y-67585000D03*
D23*
X294100000Y-70125000D03*
D22*
X296640000Y-65045000D03*
D21*
X299180000Y-70125000D03*
%TD*%
%LPD*%
M02*
