M48
; DRILL file KiCad 10.0.3-2.fc44 date 2026-06-07T17:00:20
; FORMAT={-:-/ absolute / inch / decimal}
; #@! TF.CreationDate,2026-06-07T17:00:20-07:00
; #@! TF.GenerationSoftware,Kicad,Pcbnew,10.0.3-2.fc44
; #@! TF.FileFunction,Plated,1,2,PTH
FMAT,2
INCH
; #@! TA.AperFunction,Plated,PTH,ViaDrill
T1C0.0118
; #@! TA.AperFunction,Plated,PTH,ComponentDrill
T2C0.0197
; #@! TA.AperFunction,Plated,PTH,ComponentDrill
T3C0.0295
; #@! TA.AperFunction,Plated,PTH,ComponentDrill
T4C0.0394
%
G90
G05
T1
X3.6666Y-4.5548
X4.3361Y-3.8772
X4.3361Y-4.6249
X4.4082Y-3.0587
X4.6047Y-2.4949
X4.6764Y-3.416
X4.7098Y-5.7603
X4.717Y-6.8268
X4.8011Y-3.2115
X4.8593Y-5.5312
X4.9639Y-5.174
X5.1378Y-5.9898
X5.1541Y-4.0549
X5.1541Y-4.5554
X5.1592Y-3.2281
X5.1798Y-5.7511
X5.2871Y-4.9567
X5.4011Y-5.9345
X5.5281Y-6.4251
X5.5463Y-4.0819
X5.8715Y-3.0587
X5.893Y-3.807
X5.893Y-4.4923
X6.06Y-2.1633
T3
X5.7116Y-2.2047
X5.7904Y-2.2047
T4
X4.2047Y-2.1016
X4.2047Y-2.7016
X4.3047Y-2.1016
X4.3047Y-2.7016
X4.4047Y-2.1016
X4.4047Y-2.7016
X4.5047Y-2.1016
X4.5047Y-2.7016
X4.6047Y-2.1016
X4.6047Y-2.7016
X4.7047Y-2.1016
X4.7047Y-2.7016
X4.8047Y-2.1016
X4.8047Y-2.7016
X4.9047Y-2.1016
X4.9047Y-2.7016
X5.0047Y-2.1016
X5.0047Y-2.7016
X5.1047Y-2.1016
X5.1047Y-2.7016
X5.2047Y-2.1016
X5.2047Y-2.7016
X5.3047Y-2.1016
X5.3047Y-2.7016
X5.4803Y-2.2016
X5.4803Y-2.3016
X5.4803Y-2.4016
X5.4803Y-2.5016
X5.4803Y-2.6016
T2
G00X3.8287Y-5.3839
M15
G01X3.8484Y-5.3839
M16
G05
G00X3.8287Y-5.9547
M15
G01X3.8484Y-5.9547
M16
G05
G00X3.9272Y-5.9547
M15
G01X3.9469Y-5.9547
M16
G05
G00X4.0256Y-5.3839
M15
G01X4.0453Y-5.3839
M16
G05
G00X4.0256Y-5.9547
M15
G01X4.0453Y-5.9547
M16
G05
G00X6.0728Y-5.3839
M15
G01X6.0925Y-5.3839
M16
G05
G00X6.0728Y-5.9547
M15
G01X6.0925Y-5.9547
M16
G05
G00X6.1713Y-5.9547
M15
G01X6.1909Y-5.9547
M16
G05
G00X6.2697Y-5.3839
M15
G01X6.2894Y-5.3839
M16
G05
G00X6.2697Y-5.9547
M15
G01X6.2894Y-5.9547
M16
G05
M30
