%TF.GenerationSoftware,KiCad,Pcbnew,10.0.3-2.fc44*%
%TF.CreationDate,2026-06-07T17:00:20-07:00*%
%TF.ProjectId,pekepadv,70656b65-7061-4647-962e-6b696361645f,0.0.3*%
%TF.SameCoordinates,Original*%
%TF.FileFunction,Copper,L2,Bot*%
%TF.FilePolarity,Positive*%
%FSLAX46Y46*%
G04 Gerber Fmt 4.6, Leading zero omitted, Abs format (unit mm)*
G04 Created by KiCad (PCBNEW 10.0.3-2.fc44) date 2026-06-07 17:00:20*
%MOMM*%
%LPD*%
G01*
G04 APERTURE LIST*
G04 Aperture macros list*
%AMRoundRect*
0 Rectangle with rounded corners*
0 $1 Rounding radius*
0 $2 $3 $4 $5 $6 $7 $8 $9 X,Y pos of 4 corners*
0 Add a 4 corners polygon primitive as box body*
4,1,4,$2,$3,$4,$5,$6,$7,$8,$9,$2,$3,0*
0 Add four circle primitives for the rounded corners*
1,1,$1+$1,$2,$3*
1,1,$1+$1,$4,$5*
1,1,$1+$1,$6,$7*
1,1,$1+$1,$8,$9*
0 Add four rect primitives between the rounded corners*
20,1,$1+$1,$2,$3,$4,$5,0*
20,1,$1+$1,$4,$5,$6,$7,0*
20,1,$1+$1,$6,$7,$8,$9,0*
20,1,$1+$1,$8,$9,$2,$3,0*%
G04 Aperture macros list end*
%TA.AperFunction,ComponentPad*%
%ADD10C,1.700000*%
%TD*%
%TA.AperFunction,ComponentPad*%
%ADD11RoundRect,0.240000X-0.360000X-0.635000X0.360000X-0.635000X0.360000X0.635000X-0.360000X0.635000X0*%
%TD*%
%TA.AperFunction,ComponentPad*%
%ADD12O,1.200000X1.750000*%
%TD*%
%TA.AperFunction,ComponentPad*%
%ADD13O,1.600000X1.100000*%
%TD*%
%TA.AperFunction,ComponentPad*%
%ADD14O,1.700000X1.700000*%
%TD*%
%TA.AperFunction,SMDPad,CuDef*%
%ADD15R,0.800000X1.000000*%
%TD*%
%TA.AperFunction,SMDPad,CuDef*%
%ADD16R,1.500000X0.700000*%
%TD*%
%TA.AperFunction,SMDPad,CuDef*%
%ADD17R,2.550000X2.500000*%
%TD*%
%TA.AperFunction,SMDPad,CuDef*%
%ADD18R,0.900000X1.200000*%
%TD*%
%TA.AperFunction,SMDPad,CuDef*%
%ADD19R,1.000000X1.550000*%
%TD*%
%TA.AperFunction,ViaPad*%
%ADD20C,0.600000*%
%TD*%
%TA.AperFunction,Conductor*%
%ADD21C,0.150000*%
%TD*%
%TA.AperFunction,Conductor*%
%ADD22C,0.200000*%
%TD*%
G04 APERTURE END LIST*
D10*
%TO.P,MCU1,1*%
%TO.N,RAW*%
X106800000Y-53380000D03*
%TO.P,MCU1,2*%
%TO.N,GND*%
X109340000Y-53380000D03*
%TO.P,MCU1,3*%
%TO.N,RST*%
X111880000Y-53380000D03*
%TO.P,MCU1,4*%
%TO.N,VCC*%
X114420000Y-53380000D03*
%TO.P,MCU1,5*%
%TO.N,P031*%
X116960000Y-53380000D03*
%TO.P,MCU1,6*%
%TO.N,P029*%
X119500000Y-53380000D03*
%TO.P,MCU1,7*%
%TO.N,P002*%
X122040000Y-53380000D03*
%TO.P,MCU1,8*%
%TO.N,P115*%
X124580000Y-53380000D03*
%TO.P,MCU1,9*%
%TO.N,P113*%
X127120000Y-53380000D03*
%TO.P,MCU1,10*%
%TO.N,P111*%
X129660000Y-53380000D03*
%TO.P,MCU1,11*%
%TO.N,P010*%
X132200000Y-53380000D03*
%TO.P,MCU1,12*%
%TO.N,P009*%
X134740000Y-53380000D03*
%TO.P,MCU1,13*%
%TO.N,P106*%
X134740000Y-68620000D03*
%TO.P,MCU1,14*%
%TO.N,P104*%
X132200000Y-68620000D03*
%TO.P,MCU1,15*%
%TO.N,P011*%
X129660000Y-68620000D03*
%TO.P,MCU1,16*%
%TO.N,P100*%
X127120000Y-68620000D03*
%TO.P,MCU1,17*%
%TO.N,P024*%
X124580000Y-68620000D03*
%TO.P,MCU1,18*%
%TO.N,P022*%
X122040000Y-68620000D03*
%TO.P,MCU1,19*%
%TO.N,P020*%
X119500000Y-68620000D03*
%TO.P,MCU1,20*%
%TO.N,P017*%
X116960000Y-68620000D03*
%TO.P,MCU1,21*%
%TO.N,GND*%
X114420000Y-68620000D03*
%TO.P,MCU1,22*%
X111880000Y-68620000D03*
%TO.P,MCU1,23*%
%TO.N,P008*%
X109340000Y-68620000D03*
%TO.P,MCU1,24*%
%TO.N,P006*%
X106800000Y-68620000D03*
%TD*%
D11*
%TO.P,JST1,1*%
%TO.N,GND*%
X145075000Y-56000000D03*
D12*
%TO.P,JST1,2*%
%TO.N,BAT_P*%
X147075000Y-56000000D03*
%TD*%
D13*
%TO.P,RE1,A*%
%TO.N,P115*%
X102500000Y-151250000D03*
%TO.P,RE1,B*%
%TO.N,GND*%
X100000000Y-151250000D03*
%TO.P,RE1,C*%
%TO.N,P113*%
X97500000Y-151250000D03*
%TO.P,RE1,S1*%
%TO.N,left_enc-row*%
X97500000Y-136750000D03*
%TO.P,RE1,S2*%
%TO.N,P008*%
X102500000Y-136750000D03*
%TD*%
%TO.P,RE2,A*%
%TO.N,P111*%
X159500000Y-151250000D03*
%TO.P,RE2,B*%
%TO.N,GND*%
X157000000Y-151250000D03*
%TO.P,RE2,C*%
%TO.N,P009*%
X154500000Y-151250000D03*
%TO.P,RE2,S1*%
%TO.N,right_enc-row*%
X154500000Y-136750000D03*
%TO.P,RE2,S2*%
%TO.N,P100*%
X159500000Y-136750000D03*
%TD*%
D14*
%TO.P,DISP1,1*%
%TO.N,P011*%
X139200000Y-66080000D03*
%TO.P,DISP1,2*%
%TO.N,P010*%
X139200000Y-63540000D03*
%TO.P,DISP1,3*%
%TO.N,VCC*%
X139200000Y-61000000D03*
%TO.P,DISP1,4*%
%TO.N,GND*%
X139200000Y-58460000D03*
D10*
%TO.P,DISP1,5*%
%TO.N,P006*%
X139200000Y-55920000D03*
%TD*%
D15*
%TO.P,PWR1,*%
%TO.N,*%
X151990000Y-62350000D03*
X151990000Y-69650000D03*
X154200000Y-62350000D03*
X154200000Y-69650000D03*
D16*
%TO.P,PWR1,1*%
%TO.N,N/C*%
X151340000Y-63750000D03*
%TO.P,PWR1,2*%
%TO.N,RAW*%
X151340000Y-66750000D03*
%TO.P,PWR1,3*%
%TO.N,BAT_P*%
X151340000Y-68250000D03*
%TD*%
D17*
%TO.P,S7,1*%
%TO.N,P024*%
X130915000Y-117460000D03*
%TO.P,S7,2*%
%TO.N,right-inner_bottom*%
X143842000Y-114920000D03*
%TD*%
%TO.P,S5,1*%
%TO.N,P022*%
X111915000Y-98460000D03*
%TO.P,S5,2*%
%TO.N,left-inner_middle*%
X124842000Y-95920000D03*
%TD*%
D18*
%TO.P,D7,1*%
%TO.N,P104*%
X139650000Y-125000000D03*
%TO.P,D7,2*%
%TO.N,right-inner_bottom*%
X136350000Y-125000000D03*
%TD*%
%TO.P,D10,1*%
%TO.N,P104*%
X158650000Y-125000000D03*
%TO.P,D10,2*%
%TO.N,right-outer_bottom*%
X155350000Y-125000000D03*
%TD*%
D17*
%TO.P,S2,1*%
%TO.N,P008*%
X92915000Y-98460000D03*
%TO.P,S2,2*%
%TO.N,left-outer_middle*%
X105842000Y-95920000D03*
%TD*%
%TO.P,S1,1*%
%TO.N,P008*%
X92915000Y-117460000D03*
%TO.P,S1,2*%
%TO.N,left-outer_bottom*%
X105842000Y-114920000D03*
%TD*%
D18*
%TO.P,D13,1*%
%TO.N,P029*%
X111150000Y-172500000D03*
%TO.P,D13,2*%
%TO.N,left_bottom*%
X107850000Y-172500000D03*
%TD*%
%TO.P,D3,1*%
%TO.N,P031*%
X101650000Y-87000000D03*
%TO.P,D3,2*%
%TO.N,left-outer_top*%
X98350000Y-87000000D03*
%TD*%
%TO.P,D12,1*%
%TO.N,P031*%
X158650000Y-87000000D03*
%TO.P,D12,2*%
%TO.N,right-outer_top*%
X155350000Y-87000000D03*
%TD*%
D17*
%TO.P,S9,1*%
%TO.N,P024*%
X130915000Y-79460000D03*
%TO.P,S9,2*%
%TO.N,right-inner_top*%
X143842000Y-76920000D03*
%TD*%
D18*
%TO.P,D4,1*%
%TO.N,P104*%
X120650000Y-125000000D03*
%TO.P,D4,2*%
%TO.N,left-inner_bottom*%
X117350000Y-125000000D03*
%TD*%
D17*
%TO.P,S15,1*%
%TO.N,P022*%
X121415000Y-145960000D03*
%TO.P,S15,2*%
%TO.N,middle_top*%
X134342000Y-143420000D03*
%TD*%
D18*
%TO.P,D11,1*%
%TO.N,P106*%
X158650000Y-106000000D03*
%TO.P,D11,2*%
%TO.N,right-outer_middle*%
X155350000Y-106000000D03*
%TD*%
D17*
%TO.P,S10,1*%
%TO.N,P100*%
X149915000Y-117460000D03*
%TO.P,S10,2*%
%TO.N,right-outer_bottom*%
X162842000Y-114920000D03*
%TD*%
%TO.P,S16,1*%
%TO.N,P024*%
X140415000Y-164960000D03*
%TO.P,S16,2*%
%TO.N,right_bottom*%
X153342000Y-162420000D03*
%TD*%
%TO.P,S6,1*%
%TO.N,P022*%
X111915000Y-79460000D03*
%TO.P,S6,2*%
%TO.N,left-inner_top*%
X124842000Y-76920000D03*
%TD*%
D18*
%TO.P,D14,1*%
%TO.N,P029*%
X130150000Y-172500000D03*
%TO.P,D14,2*%
%TO.N,middle_bottom*%
X126850000Y-172500000D03*
%TD*%
D17*
%TO.P,S12,1*%
%TO.N,P100*%
X149915000Y-79460000D03*
%TO.P,S12,2*%
%TO.N,right-outer_top*%
X162842000Y-76920000D03*
%TD*%
D19*
%TO.P,RST1,1*%
%TO.N,GND*%
X153925000Y-53375000D03*
%TO.P,RST1,2*%
%TO.N,RST*%
X152225000Y-53375000D03*
%TO.P,RST1,3*%
%TO.N,GND*%
X153925000Y-58625000D03*
%TO.P,RST1,4*%
%TO.N,RST*%
X152225000Y-58625000D03*
%TD*%
D17*
%TO.P,S4,1*%
%TO.N,P022*%
X111915000Y-117460000D03*
%TO.P,S4,2*%
%TO.N,left-inner_bottom*%
X124842000Y-114920000D03*
%TD*%
D18*
%TO.P,D15,1*%
%TO.N,P002*%
X130150000Y-153500000D03*
%TO.P,D15,2*%
%TO.N,middle_top*%
X126850000Y-153500000D03*
%TD*%
D17*
%TO.P,S3,1*%
%TO.N,P008*%
X92915000Y-79460000D03*
%TO.P,S3,2*%
%TO.N,left-outer_top*%
X105842000Y-76920000D03*
%TD*%
%TO.P,S11,1*%
%TO.N,P100*%
X149915000Y-98460000D03*
%TO.P,S11,2*%
%TO.N,right-outer_middle*%
X162842000Y-95920000D03*
%TD*%
D18*
%TO.P,D8,1*%
%TO.N,P106*%
X139650000Y-106000000D03*
%TO.P,D8,2*%
%TO.N,right-inner_middle*%
X136350000Y-106000000D03*
%TD*%
%TO.P,D16,1*%
%TO.N,P029*%
X149150000Y-172500000D03*
%TO.P,D16,2*%
%TO.N,right_bottom*%
X145850000Y-172500000D03*
%TD*%
%TO.P,D5,1*%
%TO.N,P106*%
X120650000Y-106000000D03*
%TO.P,D5,2*%
%TO.N,left-inner_middle*%
X117350000Y-106000000D03*
%TD*%
%TO.P,D2,1*%
%TO.N,P106*%
X101650000Y-106000000D03*
%TO.P,D2,2*%
%TO.N,left-outer_middle*%
X98350000Y-106000000D03*
%TD*%
D17*
%TO.P,S8,1*%
%TO.N,P024*%
X130915000Y-98460000D03*
%TO.P,S8,2*%
%TO.N,right-inner_middle*%
X143842000Y-95920000D03*
%TD*%
D18*
%TO.P,D9,1*%
%TO.N,P031*%
X139650000Y-87000000D03*
%TO.P,D9,2*%
%TO.N,right-inner_top*%
X136350000Y-87000000D03*
%TD*%
%TO.P,D18,1*%
%TO.N,P002*%
X158650000Y-139750000D03*
%TO.P,D18,2*%
%TO.N,right_enc-row*%
X155350000Y-139750000D03*
%TD*%
%TO.P,D6,1*%
%TO.N,P031*%
X120650000Y-87000000D03*
%TO.P,D6,2*%
%TO.N,left-inner_top*%
X117350000Y-87000000D03*
%TD*%
D17*
%TO.P,S13,1*%
%TO.N,P008*%
X102415000Y-164960000D03*
%TO.P,S13,2*%
%TO.N,left_bottom*%
X115342000Y-162420000D03*
%TD*%
D18*
%TO.P,D17,1*%
%TO.N,P002*%
X101650000Y-139750000D03*
%TO.P,D17,2*%
%TO.N,left_enc-row*%
X98350000Y-139750000D03*
%TD*%
D17*
%TO.P,S14,1*%
%TO.N,P022*%
X121415000Y-164960000D03*
%TO.P,S14,2*%
%TO.N,middle_bottom*%
X134342000Y-162420000D03*
%TD*%
D18*
%TO.P,D1,1*%
%TO.N,P104*%
X101650000Y-125000000D03*
%TO.P,D1,2*%
%TO.N,left-outer_bottom*%
X98350000Y-125000000D03*
%TD*%
D20*
%TO.N,GND*%
X153925000Y-54947600D03*
%TO.N,P031*%
X116960000Y-63371200D03*
%TO.N,P029*%
X119811200Y-173400200D03*
%TO.N,P002*%
X126081900Y-131418400D03*
%TO.N,P115*%
X123426700Y-140493300D03*
%TO.N,P111*%
X137189000Y-150735400D03*
%TO.N,P106*%
X140875500Y-103680200D03*
%TO.N,P104*%
X134292700Y-125900200D03*
%TO.N,P100*%
X149135000Y-77691800D03*
X149683400Y-114103300D03*
X149681800Y-96698800D03*
%TO.N,P024*%
X131043900Y-81993600D03*
X140415000Y-163197200D03*
X130915000Y-102995100D03*
X130915000Y-115707100D03*
%TO.N,P022*%
X110137600Y-117473700D03*
X110136000Y-98480200D03*
X111967100Y-77691800D03*
X119629400Y-146311700D03*
%TO.N,P008*%
X93132400Y-115690900D03*
%TO.N,middle_top*%
X130501300Y-152142100D03*
X131565700Y-146077100D03*
%TO.N,left-inner_top*%
X121948500Y-81571400D03*
X118779500Y-86766000D03*
%TD*%
%TO.N,RAW*%
D21*
X107009300Y-54530200D02*
X109717700Y-54530200D01*
X113150000Y-52593000D02*
X113333600Y-52409400D01*
D22*
X111263000Y-55708000D02*
X113150000Y-53821000D01*
D21*
X109717700Y-54530200D02*
X110895500Y-55708000D01*
D22*
X110895500Y-55708000D02*
X111263000Y-55708000D01*
X107009300Y-53589300D02*
X107009300Y-54530200D01*
X113333600Y-52409400D02*
X113533600Y-52209400D01*
X144861300Y-52209400D02*
X150288300Y-57636400D01*
D21*
X113150000Y-53306600D02*
X113150000Y-52593000D01*
D22*
X150288300Y-57636400D02*
X150288300Y-66750000D01*
X113150000Y-53821000D02*
X113150000Y-53306600D01*
X113533600Y-52209400D02*
X144861300Y-52209400D01*
X151340000Y-66750000D02*
X150288300Y-66750000D01*
X106800000Y-53380000D02*
X107009300Y-53589300D01*
%TO.N,GND*%
X153925000Y-58625000D02*
X153925000Y-54947600D01*
X153925000Y-54947600D02*
X153925000Y-53375000D01*
%TO.N,RST*%
X152225000Y-53375000D02*
X152225000Y-52298300D01*
X113309800Y-51807700D02*
X111880000Y-53237500D01*
X151734400Y-51807700D02*
X113309800Y-51807700D01*
X152225000Y-58625000D02*
X152225000Y-53375000D01*
X152225000Y-52298300D02*
X151734400Y-51807700D01*
X111880000Y-53237500D02*
X111880000Y-53380000D01*
%TO.N,VCC*%
X122040000Y-61000000D02*
X114420000Y-53380000D01*
X139200000Y-61000000D02*
X122040000Y-61000000D01*
%TO.N,P031*%
X103314200Y-86087500D02*
X102401700Y-87000000D01*
X115571700Y-69097100D02*
X115571700Y-64759500D01*
X121401700Y-87000000D02*
X122303400Y-87901700D01*
X156962700Y-86064400D02*
X157898300Y-87000000D01*
X119898300Y-87000000D02*
X118985800Y-86087500D01*
X101650000Y-87000000D02*
X102401700Y-87000000D01*
X115571700Y-64759500D02*
X116960000Y-63371200D01*
X118985800Y-86087500D02*
X110290300Y-86087500D01*
X139650000Y-87000000D02*
X140401700Y-87000000D01*
X120650000Y-87000000D02*
X121401700Y-87000000D01*
X139650000Y-87000000D02*
X138898300Y-87000000D01*
X120650000Y-87000000D02*
X119898300Y-87000000D01*
X110290300Y-86087500D02*
X110290300Y-74378500D01*
X141337300Y-86064400D02*
X156962700Y-86064400D01*
X122303400Y-87901700D02*
X137996600Y-87901700D01*
X110290300Y-86087500D02*
X103314200Y-86087500D01*
X158650000Y-87000000D02*
X157898300Y-87000000D01*
X137996600Y-87901700D02*
X138898300Y-87000000D01*
X110290300Y-74378500D02*
X115571700Y-69097100D01*
X140401700Y-87000000D02*
X141337300Y-86064400D01*
%TO.N,P029*%
X131803400Y-171598300D02*
X130901700Y-172500000D01*
D21*
X129544600Y-173400200D02*
X126099800Y-173400200D01*
D22*
X130150000Y-172500000D02*
X130901700Y-172500000D01*
X147496600Y-171598300D02*
X131803400Y-171598300D01*
X130150000Y-172500000D02*
X129544600Y-173105400D01*
X148398300Y-172500000D02*
X147496600Y-171598300D01*
X112801900Y-173400200D02*
X111901700Y-172500000D01*
X111150000Y-172500000D02*
X111901700Y-172500000D01*
X126099800Y-173400200D02*
X119811200Y-173400200D01*
X119811200Y-173400200D02*
X112801900Y-173400200D01*
X129544600Y-173105400D02*
X129544600Y-173400200D01*
X149150000Y-172500000D02*
X148398300Y-172500000D01*
%TO.N,P002*%
X121631700Y-135868600D02*
X126081900Y-131418400D01*
X130150000Y-153500000D02*
X130901700Y-153500000D01*
X101650000Y-139750000D02*
X101650000Y-138848300D01*
X131103300Y-150051100D02*
X131103300Y-153298400D01*
X131103300Y-147305800D02*
X131103300Y-150051100D01*
X101856800Y-135868600D02*
X121631700Y-135868600D01*
X101393000Y-138591300D02*
X101393000Y-136332400D01*
X101393000Y-136332400D02*
X101856800Y-135868600D01*
X131103300Y-153298400D02*
X130901700Y-153500000D01*
X157898300Y-139750000D02*
X147597200Y-150051100D01*
X158650000Y-139750000D02*
X157898300Y-139750000D01*
X121631700Y-137834200D02*
X131103300Y-147305800D01*
X101650000Y-138848300D02*
X101393000Y-138591300D01*
X147597200Y-150051100D02*
X131103300Y-150051100D01*
X121631700Y-135868600D02*
X121631700Y-137834200D01*
%TO.N,P115*%
X102500000Y-150398300D02*
X113521700Y-150398300D01*
X113521700Y-150398300D02*
X123426700Y-140493300D01*
X102500000Y-151250000D02*
X102500000Y-150398300D01*
%TO.N,P111*%
X155545900Y-156055800D02*
X142509400Y-156055800D01*
X159500000Y-152101700D02*
X155545900Y-156055800D01*
X142509400Y-156055800D02*
X137189000Y-150735400D01*
X159500000Y-151250000D02*
X159500000Y-152101700D01*
%TO.N,P106*%
X158650000Y-106000000D02*
X157898300Y-106000000D01*
X118899900Y-106901700D02*
X103303400Y-106901700D01*
X141310700Y-106909000D02*
X156989300Y-106909000D01*
X122459800Y-106961400D02*
X137936900Y-106961400D01*
X138898300Y-106000000D02*
X138898300Y-105657400D01*
X156989300Y-106909000D02*
X157898300Y-106000000D01*
X101650000Y-106000000D02*
X102401700Y-106000000D01*
X103303400Y-106901700D02*
X102401700Y-106000000D01*
X120650000Y-105151600D02*
X122459800Y-106961400D01*
X120650000Y-105151600D02*
X118899900Y-106901700D01*
X138898300Y-105657400D02*
X140875500Y-103680200D01*
X120650000Y-106000000D02*
X120650000Y-105151600D01*
X137936900Y-106961400D02*
X138898300Y-106000000D01*
X139650000Y-106000000D02*
X140401700Y-106000000D01*
X139650000Y-106000000D02*
X138898300Y-106000000D01*
X140401700Y-106000000D02*
X141310700Y-106909000D01*
%TO.N,P104*%
X118996600Y-125901700D02*
X103303400Y-125901700D01*
X157898300Y-125000000D02*
X156989300Y-125909000D01*
X139650000Y-125000000D02*
X138898300Y-125000000D01*
X141310700Y-125909000D02*
X140401700Y-125000000D01*
D21*
X134292700Y-125900200D02*
X137100200Y-125900200D01*
D22*
X137998100Y-125900200D02*
X138898300Y-125000000D01*
X103303400Y-125901700D02*
X102401700Y-125000000D01*
X101650000Y-125000000D02*
X102401700Y-125000000D01*
X121401700Y-125000000D02*
X122301900Y-125900200D01*
X156989300Y-125909000D02*
X141310700Y-125909000D01*
X122301900Y-125900200D02*
X131315200Y-125900200D01*
X120650000Y-125000000D02*
X119898300Y-125000000D01*
X120650000Y-125000000D02*
X121401700Y-125000000D01*
X137100200Y-125900200D02*
X137998100Y-125900200D01*
D21*
X131315200Y-125900200D02*
X134292700Y-125900200D01*
D22*
X119898300Y-125000000D02*
X118996600Y-125901700D01*
X158650000Y-125000000D02*
X157898300Y-125000000D01*
X139650000Y-125000000D02*
X140401700Y-125000000D01*
%TO.N,P011*%
X139200000Y-66080000D02*
X132200000Y-66080000D01*
X132200000Y-66080000D02*
X129660000Y-68620000D01*
%TO.N,P100*%
X149681800Y-96698800D02*
X149891300Y-96908300D01*
X149915000Y-115908300D02*
X149915000Y-114334900D01*
X149915000Y-114334900D02*
X149683400Y-114103300D01*
X149915000Y-98460000D02*
X149915000Y-96908300D01*
X129240300Y-70740300D02*
X127120000Y-68620000D01*
X142183500Y-70740300D02*
X129240300Y-70740300D01*
X149135000Y-77691800D02*
X142183500Y-70740300D01*
X149915000Y-79460000D02*
X149915000Y-77908300D01*
X149915000Y-77908300D02*
X149351500Y-77908300D01*
X149891300Y-96908300D02*
X149915000Y-96908300D01*
X149915000Y-117460000D02*
X149915000Y-115908300D01*
X149351500Y-77908300D02*
X149135000Y-77691800D01*
%TO.N,P024*%
X124580000Y-68620000D02*
X130915000Y-74955000D01*
X130915000Y-74955000D02*
X130915000Y-79460000D01*
X130915000Y-98460000D02*
X130915000Y-102995100D01*
X130915000Y-81864700D02*
X130915000Y-79460000D01*
X140415000Y-163197200D02*
X140415000Y-164960000D01*
X130915000Y-117460000D02*
X130915000Y-115707100D01*
X131043900Y-81993600D02*
X130915000Y-81864700D01*
%TO.N,P022*%
X110324600Y-117473700D02*
X110137600Y-117473700D01*
X119629400Y-161622700D02*
X121415000Y-163408300D01*
X110156200Y-98460000D02*
X110136000Y-98480200D01*
X111915000Y-117460000D02*
X110338300Y-117460000D01*
X112968200Y-77691800D02*
X122040000Y-68620000D01*
X121415000Y-145960000D02*
X119838300Y-145960000D01*
X111967100Y-77691800D02*
X112968200Y-77691800D01*
X111915000Y-79460000D02*
X111915000Y-77908300D01*
X111915000Y-77908300D02*
X111915000Y-77743900D01*
X111915000Y-98460000D02*
X110156200Y-98460000D01*
X121415000Y-164960000D02*
X121415000Y-163408300D01*
X119629400Y-146311700D02*
X119838300Y-146102800D01*
X119838300Y-146102800D02*
X119838300Y-145960000D01*
X119629400Y-146311700D02*
X119629400Y-161622700D01*
X111915000Y-77743900D02*
X111967100Y-77691800D01*
X110338300Y-117460000D02*
X110324600Y-117473700D01*
%TO.N,P008*%
X93132400Y-115690900D02*
X92915000Y-115908300D01*
X95955000Y-74868300D02*
X92915000Y-77908300D01*
X92915000Y-98460000D02*
X92915000Y-100011700D01*
X92915000Y-79460000D02*
X92915000Y-96908300D01*
X101395600Y-162388900D02*
X102415000Y-163408300D01*
X103091700Y-74868300D02*
X95955000Y-74868300D01*
X93132400Y-115690900D02*
X93132400Y-100229100D01*
X92915000Y-79460000D02*
X92915000Y-77908300D01*
X102500000Y-136750000D02*
X102500000Y-146303600D01*
X102415000Y-164960000D02*
X102415000Y-163408300D01*
X92915000Y-98460000D02*
X92915000Y-96908300D01*
X92915000Y-117460000D02*
X92915000Y-115908300D01*
X109340000Y-68620000D02*
X103091700Y-74868300D01*
X102500000Y-146303600D02*
X101395600Y-147408000D01*
X93132400Y-100229100D02*
X92915000Y-100011700D01*
X101395600Y-147408000D02*
X101395600Y-162388900D01*
%TO.N,P006*%
X113150000Y-62270000D02*
X139618400Y-62270000D01*
X139618400Y-62270000D02*
X140407700Y-61480700D01*
X140407700Y-57127700D02*
X139200000Y-55920000D01*
X140407700Y-61480700D02*
X140407700Y-57127700D01*
X106800000Y-68620000D02*
X113150000Y-62270000D01*
%TO.N,BAT_P*%
D21*
X151340000Y-68250000D02*
X150313300Y-68250000D01*
D22*
X147976700Y-56000000D02*
X147976700Y-66386100D01*
D21*
X149463500Y-67400200D02*
X150313300Y-68250000D01*
D22*
X147075000Y-56000000D02*
X147976700Y-56000000D01*
D21*
X148990800Y-67400200D02*
X149463500Y-67400200D01*
D22*
X147976700Y-66386100D02*
X148990800Y-67400200D01*
%TO.N,left_enc-row*%
X97500000Y-136750000D02*
X97500000Y-137601700D01*
X98350000Y-138451700D02*
X98350000Y-139750000D01*
X97500000Y-137601700D02*
X98350000Y-138451700D01*
%TO.N,right_enc-row*%
X154500000Y-137601700D02*
X155350000Y-138451700D01*
X154500000Y-136750000D02*
X154500000Y-137601700D01*
X155350000Y-138451700D02*
X155350000Y-139750000D01*
%TO.N,right-inner_bottom*%
X141317900Y-120783800D02*
X137101700Y-125000000D01*
X141317900Y-118995800D02*
X141317900Y-120783800D01*
X136350000Y-125000000D02*
X137101700Y-125000000D01*
X143842000Y-116471700D02*
X141317900Y-118995800D01*
X143842000Y-114920000D02*
X143842000Y-116471700D01*
%TO.N,left-inner_middle*%
X121948500Y-100365200D02*
X124842000Y-97471700D01*
X117350000Y-106000000D02*
X118101700Y-106000000D01*
X124842000Y-95920000D02*
X124842000Y-97471700D01*
X118101700Y-106000000D02*
X121948500Y-102153200D01*
X121948500Y-102153200D02*
X121948500Y-100365200D01*
%TO.N,right-outer_bottom*%
X162842000Y-114920000D02*
X162842000Y-116471700D01*
X162842000Y-116471700D02*
X160231600Y-119082100D01*
X155350000Y-125000000D02*
X156101700Y-125000000D01*
X160231600Y-120870100D02*
X156101700Y-125000000D01*
X160231600Y-119082100D02*
X160231600Y-120870100D01*
%TO.N,left-outer_middle*%
X103231600Y-100082100D02*
X103231600Y-101870100D01*
X103231600Y-101870100D02*
X99101700Y-106000000D01*
X105842000Y-95920000D02*
X105842000Y-97471700D01*
X105842000Y-97471700D02*
X103231600Y-100082100D01*
X98350000Y-106000000D02*
X99101700Y-106000000D01*
%TO.N,left-outer_bottom*%
X103231600Y-120870100D02*
X99101700Y-125000000D01*
X103231600Y-119082100D02*
X103231600Y-120870100D01*
X98350000Y-125000000D02*
X99101700Y-125000000D01*
X105842000Y-114920000D02*
X105842000Y-116471700D01*
X105842000Y-116471700D02*
X103231600Y-119082100D01*
%TO.N,left_bottom*%
X115342000Y-163971700D02*
X112731600Y-166582100D01*
X112731600Y-166582100D02*
X112731600Y-168370100D01*
X112731600Y-168370100D02*
X108601700Y-172500000D01*
X107850000Y-172500000D02*
X108601700Y-172500000D01*
X115342000Y-162420000D02*
X115342000Y-163971700D01*
%TO.N,left-outer_top*%
D21*
X101606500Y-84070700D02*
X102200000Y-84070700D01*
D22*
X105842000Y-76920000D02*
X105842000Y-78471700D01*
X99101700Y-87000000D02*
X99101700Y-86575500D01*
X102200000Y-84070700D02*
X102948500Y-83322200D01*
X98350000Y-87000000D02*
X99101700Y-87000000D01*
X102948500Y-81365200D02*
X105842000Y-78471700D01*
D21*
X99577400Y-86099800D02*
X101606500Y-84070700D01*
D22*
X102948500Y-83322200D02*
X102948500Y-81365200D01*
X99101700Y-86575500D02*
X99577400Y-86099800D01*
%TO.N,right-outer_top*%
D21*
X160317900Y-87900200D02*
X157899800Y-87900200D01*
D22*
X157001900Y-87900200D02*
X156101700Y-87000000D01*
X162842000Y-76920000D02*
X162842000Y-78471700D01*
X155350000Y-87000000D02*
X156101700Y-87000000D01*
X162842000Y-78471700D02*
X160317900Y-80995800D01*
X157899800Y-87900200D02*
X157001900Y-87900200D01*
X160317900Y-80995800D02*
X160317900Y-87900200D01*
%TO.N,right-inner_top*%
X136350000Y-87000000D02*
X137101700Y-87000000D01*
X137101700Y-86575500D02*
X137577400Y-86099800D01*
X137101700Y-87000000D02*
X137101700Y-86575500D01*
D21*
X137577400Y-86099800D02*
X139606500Y-84070700D01*
D22*
X140948500Y-81365200D02*
X143842000Y-78471700D01*
X140200000Y-84070700D02*
X140948500Y-83322200D01*
X143842000Y-76920000D02*
X143842000Y-78471700D01*
D21*
X139606500Y-84070700D02*
X140200000Y-84070700D01*
D22*
X140948500Y-83322200D02*
X140948500Y-81365200D01*
%TO.N,left-inner_bottom*%
D21*
X121200000Y-121500200D02*
X120999800Y-121700400D01*
D22*
X118397000Y-125000000D02*
X117350000Y-125000000D01*
D21*
X120999800Y-121700400D02*
X120999800Y-122397200D01*
D22*
X122231600Y-118306200D02*
X122231600Y-120468600D01*
X124842000Y-114920000D02*
X124842000Y-115695800D01*
X124842000Y-115695800D02*
X122231600Y-118306200D01*
X122231600Y-120468600D02*
X121200000Y-121500200D01*
X120999800Y-122397200D02*
X118397000Y-125000000D01*
%TO.N,middle_top*%
X128959600Y-152142100D02*
X130501300Y-152142100D01*
X127601700Y-153500000D02*
X128959600Y-152142100D01*
X126850000Y-153500000D02*
X127601700Y-153500000D01*
X131565700Y-146077100D02*
X134222800Y-143420000D01*
X134222800Y-143420000D02*
X134342000Y-143420000D01*
%TO.N,right-outer_middle*%
X162842000Y-95920000D02*
X162842000Y-97471700D01*
X160231600Y-101870100D02*
X156101700Y-106000000D01*
X162842000Y-97471700D02*
X160231600Y-100082100D01*
X155350000Y-106000000D02*
X156101700Y-106000000D01*
X160231600Y-100082100D02*
X160231600Y-101870100D01*
%TO.N,right_bottom*%
X150817900Y-166495800D02*
X150817900Y-173400200D01*
X147501900Y-173400200D02*
X146601700Y-172500000D01*
X153342000Y-163971700D02*
X150817900Y-166495800D01*
X145850000Y-172500000D02*
X146601700Y-172500000D01*
D21*
X150817900Y-173400200D02*
X148399800Y-173400200D01*
D22*
X148399800Y-173400200D02*
X147501900Y-173400200D01*
X153342000Y-162420000D02*
X153342000Y-163971700D01*
%TO.N,left-inner_top*%
X117350000Y-87000000D02*
X118101700Y-87000000D01*
X118101700Y-87000000D02*
X118545500Y-87000000D01*
X118545500Y-87000000D02*
X118779500Y-86766000D01*
X124842000Y-76920000D02*
X124842000Y-78677900D01*
X124842000Y-78677900D02*
X121948500Y-81571400D01*
%TO.N,middle_bottom*%
X131731600Y-168370100D02*
X127601700Y-172500000D01*
X126850000Y-172500000D02*
X127601700Y-172500000D01*
X134342000Y-163971700D02*
X131731600Y-166582100D01*
X134342000Y-162420000D02*
X134342000Y-163971700D01*
X131731600Y-166582100D02*
X131731600Y-168370100D01*
%TO.N,right-inner_middle*%
X141317900Y-99995800D02*
X141317900Y-101359300D01*
X143842000Y-95920000D02*
X143842000Y-97471700D01*
X139501500Y-103600200D02*
X137101700Y-106000000D01*
X136350000Y-106000000D02*
X137101700Y-106000000D01*
D21*
X141317900Y-101359300D02*
X140106800Y-102570400D01*
D22*
X143842000Y-97471700D02*
X141317900Y-99995800D01*
D21*
X140106800Y-102570400D02*
X140106800Y-103600200D01*
D22*
X140106800Y-103600200D02*
X139501500Y-103600200D01*
%TD*%
M02*
