M48
; DRILL file KiCad 10.0.3-2.fc44 date 2026-06-07T17:00:20
; FORMAT={-:-/ absolute / inch / decimal}
; #@! TF.CreationDate,2026-06-07T17:00:20-07:00
; #@! TF.GenerationSoftware,Kicad,Pcbnew,10.0.3-2.fc44
; #@! TF.FileFunction,NonPlated,1,2,NPTH
FMAT,2
INCH
; #@! TA.AperFunction,NonPlated,NPTH,ComponentDrill
T1C0.0354
; #@! TA.AperFunction,NonPlated,NPTH,ComponentDrill
T2C0.0591
; #@! TA.AperFunction,NonPlated,NPTH,ComponentDrill
T3C0.0748
; #@! TA.AperFunction,NonPlated,NPTH,ComponentDrill
T4C0.0866
; #@! TA.AperFunction,NonPlated,NPTH,ComponentDrill
T5C0.1181
; #@! TA.AperFunction,NonPlated,NPTH,ComponentDrill
T6C0.1614
%
G90
G05
T1
X6.0276Y-2.5394
X6.0276Y-2.6575
T3
X3.737Y-3.2283
X3.737Y-3.9764
X3.737Y-4.7244
X4.111Y-6.5945
X4.137Y-3.2283
X4.137Y-3.9764
X4.137Y-4.7244
X4.485Y-3.2283
X4.485Y-3.9764
X4.485Y-4.7244
X4.511Y-6.5945
X4.8591Y-5.8465
X4.8591Y-6.5945
X4.885Y-3.2283
X4.885Y-3.9764
X4.885Y-4.7244
X5.2331Y-3.2283
X5.2331Y-3.9764
X5.2331Y-4.7244
X5.2591Y-5.8465
X5.2591Y-6.5945
X5.6071Y-6.5945
X5.6331Y-3.2283
X5.6331Y-3.9764
X5.6331Y-4.7244
X5.9811Y-3.2283
X5.9811Y-3.9764
X5.9811Y-4.7244
X6.0071Y-6.5945
X6.3811Y-3.2283
X6.3811Y-3.9764
X6.3811Y-4.7244
T4
X4.311Y-3.6024
X4.311Y-6.0335
X5.8071Y-3.6024
X5.8071Y-6.0335
T5
X3.787Y-3.1283
X3.787Y-3.8764
X3.787Y-4.6244
X4.037Y-3.0283
X4.037Y-3.7764
X4.037Y-4.5244
X4.161Y-6.4945
X4.411Y-6.3945
X4.535Y-3.1283
X4.535Y-3.8764
X4.535Y-4.6244
X4.785Y-3.0283
X4.785Y-3.7764
X4.785Y-4.5244
X4.9091Y-5.7465
X4.9091Y-6.4945
X5.1591Y-5.6465
X5.1591Y-6.3945
X5.2831Y-3.1283
X5.2831Y-3.8764
X5.2831Y-4.6244
X5.5331Y-3.0283
X5.5331Y-3.7764
X5.5331Y-4.5244
X5.6571Y-6.4945
X5.9071Y-6.3945
X6.0311Y-3.1283
X6.0311Y-3.8764
X6.0311Y-4.6244
X6.2811Y-3.0283
X6.2811Y-3.7764
X6.2811Y-4.5244
T6
X3.937Y-3.2283
X3.937Y-3.9764
X3.937Y-4.7244
X4.311Y-6.5945
X4.685Y-3.2283
X4.685Y-3.9764
X4.685Y-4.7244
X5.0591Y-5.8465
X5.0591Y-6.5945
X5.4331Y-3.2283
X5.4331Y-3.9764
X5.4331Y-4.7244
X5.8071Y-6.5945
X6.1811Y-3.2283
X6.1811Y-3.9764
X6.1811Y-4.7244
T2
G00X3.7165Y-5.6437
M15
G01X3.7165Y-5.6752
M16
G05
G00X4.1575Y-5.6437
M15
G01X4.1575Y-5.6752
M16
G05
G00X5.9606Y-5.6437
M15
G01X5.9606Y-5.6752
M16
G05
G00X6.4016Y-5.6437
M15
G01X6.4016Y-5.6752
M16
G05
M30
