0
SECTION
2
HEADER
9
$INSUNITS
70
4
0
ENDSEC
0
SECTION
2
TABLES
0
TABLE
2
LTYPE
0
LTYPE
72
65
70
0
2
CONTINUOUS
3
______
73
0
40
0
0
LTYPE
72
65
70
0
2
DASHED
3
_ _ _ 
73
2
40
7.5
49
5
49
-2.5
0
LTYPE
72
65
70
0
2
DOTTED
3
. . . 
73
2
40
1.5
49
0.5
49
-1
0
ENDTAB
0
TABLE
2
LAYER
0
ENDTAB
0
ENDSEC
0
SECTION
2
ENTITIES
0
LINE
8
0
6
CONTINUOUS
10
91.5
20
-129.5
11
108.5
21
-129.5
0
ARC
8
0
6
CONTINUOUS
10
108.5
20
-128.5
40
1
50
270
51
360
0
ARC
8
0
6
CONTINUOUS
10
108.5
20
-111.5
40
1
50
0
51
90
0
ARC
8
0
6
CONTINUOUS
10
91.5
20
-111.5
40
1
50
90
51
180
0
LINE
8
0
6
CONTINUOUS
10
90.5
20
-111.5
11
90.5
21
-128.5
0
ARC
8
0
6
CONTINUOUS
10
91.5
20
-128.5
40
1
50
180
51
270
0
ARC
8
0
6
CONTINUOUS
10
108.5
20
-109.5
40
1
50
270
51
360
0
ARC
8
0
6
CONTINUOUS
10
108.5
20
-92.5
40
1
50
0
51
90
0
ARC
8
0
6
CONTINUOUS
10
91.5
20
-92.5
40
1
50
90
51
180
0
LINE
8
0
6
CONTINUOUS
10
90.5
20
-92.5
11
90.5
21
-109.5
0
ARC
8
0
6
CONTINUOUS
10
91.5
20
-109.5
40
1
50
180
51
270
0
ARC
8
0
6
CONTINUOUS
10
108.5
20
-90.5
40
1
50
270
51
360
0
ARC
8
0
6
CONTINUOUS
10
108.5
20
-73.5
40
1
50
0
51
90
0
LINE
8
0
6
CONTINUOUS
10
108.5
20
-72.5
11
91.5
21
-72.5
0
ARC
8
0
6
CONTINUOUS
10
91.5
20
-73.5
40
1
50
90
51
180
0
LINE
8
0
6
CONTINUOUS
10
90.5
20
-73.5
11
90.5
21
-90.5
0
ARC
8
0
6
CONTINUOUS
10
91.5
20
-90.5
40
1
50
180
51
270
0
LINE
8
0
6
CONTINUOUS
10
110.5
20
-129.5
11
127.5
21
-129.5
0
ARC
8
0
6
CONTINUOUS
10
127.5
20
-128.5
40
1
50
270
51
360
0
ARC
8
0
6
CONTINUOUS
10
127.5
20
-111.5
40
1
50
0
51
90
0
ARC
8
0
6
CONTINUOUS
10
110.5
20
-111.5
40
1
50
90
51
180
0
ARC
8
0
6
CONTINUOUS
10
110.5
20
-128.5
40
1
50
180
51
270
0
ARC
8
0
6
CONTINUOUS
10
127.5
20
-109.5
40
1
50
270
51
360
0
ARC
8
0
6
CONTINUOUS
10
127.5
20
-92.5
40
1
50
0
51
90
0
ARC
8
0
6
CONTINUOUS
10
110.5
20
-92.5
40
1
50
90
51
180
0
ARC
8
0
6
CONTINUOUS
10
110.5
20
-109.5
40
1
50
180
51
270
0
ARC
8
0
6
CONTINUOUS
10
127.5
20
-90.5
40
1
50
270
51
360
0
ARC
8
0
6
CONTINUOUS
10
127.5
20
-73.5
40
1
50
0
51
90
0
LINE
8
0
6
CONTINUOUS
10
127.5
20
-72.5
11
110.5
21
-72.5
0
ARC
8
0
6
CONTINUOUS
10
110.5
20
-73.5
40
1
50
90
51
180
0
ARC
8
0
6
CONTINUOUS
10
110.5
20
-90.5
40
1
50
180
51
270
0
LINE
8
0
6
CONTINUOUS
10
129.5
20
-129.5
11
146.5
21
-129.5
0
ARC
8
0
6
CONTINUOUS
10
146.5
20
-128.5
40
1
50
270
51
360
0
ARC
8
0
6
CONTINUOUS
10
146.5
20
-111.5
40
1
50
0
51
90
0
ARC
8
0
6
CONTINUOUS
10
129.5
20
-111.5
40
1
50
90
51
180
0
ARC
8
0
6
CONTINUOUS
10
129.5
20
-128.5
40
1
50
180
51
270
0
ARC
8
0
6
CONTINUOUS
10
146.5
20
-109.5
40
1
50
270
51
360
0
ARC
8
0
6
CONTINUOUS
10
146.5
20
-92.5
40
1
50
0
51
90
0
ARC
8
0
6
CONTINUOUS
10
129.5
20
-92.5
40
1
50
90
51
180
0
ARC
8
0
6
CONTINUOUS
10
129.5
20
-109.5
40
1
50
180
51
270
0
ARC
8
0
6
CONTINUOUS
10
146.5
20
-90.5
40
1
50
270
51
360
0
ARC
8
0
6
CONTINUOUS
10
146.5
20
-73.5
40
1
50
0
51
90
0
LINE
8
0
6
CONTINUOUS
10
146.5
20
-72.5
11
129.5
21
-72.5
0
ARC
8
0
6
CONTINUOUS
10
129.5
20
-73.5
40
1
50
90
51
180
0
ARC
8
0
6
CONTINUOUS
10
129.5
20
-90.5
40
1
50
180
51
270
0
LINE
8
0
6
CONTINUOUS
10
148.5
20
-129.5
11
165.5
21
-129.5
0
ARC
8
0
6
CONTINUOUS
10
165.5
20
-128.5
40
1
50
270
51
360
0
LINE
8
0
6
CONTINUOUS
10
166.5
20
-128.5
11
166.5
21
-111.5
0
ARC
8
0
6
CONTINUOUS
10
165.5
20
-111.5
40
1
50
0
51
90
0
ARC
8
0
6
CONTINUOUS
10
148.5
20
-111.5
40
1
50
90
51
180
0
ARC
8
0
6
CONTINUOUS
10
148.5
20
-128.5
40
1
50
180
51
270
0
ARC
8
0
6
CONTINUOUS
10
165.5
20
-109.5
40
1
50
270
51
360
0
LINE
8
0
6
CONTINUOUS
10
166.5
20
-109.5
11
166.5
21
-92.5
0
ARC
8
0
6
CONTINUOUS
10
165.5
20
-92.5
40
1
50
0
51
90
0
ARC
8
0
6
CONTINUOUS
10
148.5
20
-92.5
40
1
50
90
51
180
0
ARC
8
0
6
CONTINUOUS
10
148.5
20
-109.5
40
1
50
180
51
270
0
ARC
8
0
6
CONTINUOUS
10
165.5
20
-90.5
40
1
50
270
51
360
0
LINE
8
0
6
CONTINUOUS
10
166.5
20
-90.5
11
166.5
21
-73.5
0
ARC
8
0
6
CONTINUOUS
10
165.5
20
-73.5
40
1
50
0
51
90
0
LINE
8
0
6
CONTINUOUS
10
165.5
20
-72.5
11
148.5
21
-72.5
0
ARC
8
0
6
CONTINUOUS
10
148.5
20
-73.5
40
1
50
90
51
180
0
ARC
8
0
6
CONTINUOUS
10
148.5
20
-90.5
40
1
50
180
51
270
0
LINE
8
0
6
CONTINUOUS
10
101
20
-177
11
118
21
-177
0
ARC
8
0
6
CONTINUOUS
10
118
20
-176
40
1
50
270
51
360
0
ARC
8
0
6
CONTINUOUS
10
118
20
-159
40
1
50
0
51
90
0
LINE
8
0
6
CONTINUOUS
10
118
20
-158
11
101
21
-158
0
ARC
8
0
6
CONTINUOUS
10
101
20
-159
40
1
50
90
51
180
0
LINE
8
0
6
CONTINUOUS
10
100
20
-159
11
100
21
-176
0
ARC
8
0
6
CONTINUOUS
10
101
20
-176
40
1
50
180
51
270
0
LINE
8
0
6
CONTINUOUS
10
120
20
-177
11
137
21
-177
0
ARC
8
0
6
CONTINUOUS
10
137
20
-176
40
1
50
270
51
360
0
ARC
8
0
6
CONTINUOUS
10
137
20
-159
40
1
50
0
51
90
0
ARC
8
0
6
CONTINUOUS
10
120
20
-159
40
1
50
90
51
180
0
ARC
8
0
6
CONTINUOUS
10
120
20
-176
40
1
50
180
51
270
0
ARC
8
0
6
CONTINUOUS
10
137
20
-157
40
1
50
270
51
360
0
LINE
8
0
6
CONTINUOUS
10
138
20
-157
11
138
21
-140
0
ARC
8
0
6
CONTINUOUS
10
137
20
-140
40
1
50
0
51
90
0
LINE
8
0
6
CONTINUOUS
10
137
20
-139
11
120
21
-139
0
ARC
8
0
6
CONTINUOUS
10
120
20
-140
40
1
50
90
51
180
0
LINE
8
0
6
CONTINUOUS
10
119
20
-140
11
119
21
-157
0
ARC
8
0
6
CONTINUOUS
10
120
20
-157
40
1
50
180
51
270
0
LINE
8
0
6
CONTINUOUS
10
139
20
-177
11
156
21
-177
0
ARC
8
0
6
CONTINUOUS
10
156
20
-176
40
1
50
270
51
360
0
LINE
8
0
6
CONTINUOUS
10
157
20
-176
11
157
21
-159
0
ARC
8
0
6
CONTINUOUS
10
156
20
-159
40
1
50
0
51
90
0
LINE
8
0
6
CONTINUOUS
10
156
20
-158
11
139
21
-158
0
ARC
8
0
6
CONTINUOUS
10
139
20
-159
40
1
50
90
51
180
0
ARC
8
0
6
CONTINUOUS
10
139
20
-176
40
1
50
180
51
270
0
ENDSEC
0
EOF