0
SECTION
2
HEADER
9
$INSUNITS
70
4
0
ENDSEC
0
SECTION
2
TABLES
0
TABLE
2
LTYPE
0
LTYPE
72
65
70
0
2
CONTINUOUS
3
______
73
0
40
0
0
LTYPE
72
65
70
0
2
DASHED
3
_ _ _ 
73
2
40
7.5
49
5
49
-2.5
0
LTYPE
72
65
70
0
2
DOTTED
3
. . . 
73
2
40
1.5
49
0.5
49
-1
0
ENDTAB
0
TABLE
2
LAYER
0
ENDTAB
0
ENDSEC
0
SECTION
2
ENTITIES
0
LINE
8
0
6
CONTINUOUS
10
87
20
-128.5
11
87
21
-73.5
0
ARC
8
0
6
CONTINUOUS
10
91.5
20
-73.5
40
4.5
50
90
51
180
0
LINE
8
0
6
CONTINUOUS
10
91.5
20
-69
11
98.425
21
-69
0
LINE
8
0
6
CONTINUOUS
10
100.425
20
-51.775
11
100.425
21
-67
0
ARC
8
0
6
CONTINUOUS
10
104.925
20
-51.775
40
4.5
50
90
51
180
0
LINE
8
0
6
CONTINUOUS
10
154.075
20
-47.275
11
104.925
21
-47.275
0
ARC
8
0
6
CONTINUOUS
10
154.075
20
-51.775
40
4.5
50
0
51
90
0
LINE
8
0
6
CONTINUOUS
10
158.575
20
-67
11
158.575
21
-51.775
0
LINE
8
0
6
CONTINUOUS
10
160.575
20
-69
11
165.5
21
-69
0
ARC
8
0
6
CONTINUOUS
10
165.5
20
-73.5
40
4.5
50
0
51
90
0
LINE
8
0
6
CONTINUOUS
10
170
20
-128.5
11
170
21
-73.5
0
ARC
8
0
6
CONTINUOUS
10
165.5
20
-128.5
40
4.5
50
321.057559
51
360
0
LINE
8
0
6
CONTINUOUS
10
169
20
-132.4215729
11
169
21
-131.3284271
0
ARC
8
0
6
CONTINUOUS
10
165.5
20
-135.25
40
4.5
50
0
51
38.942441
0
LINE
8
0
6
CONTINUOUS
10
170
20
-152.25
11
170
21
-135.25
0
ARC
8
0
6
CONTINUOUS
10
165.5
20
-152.25
40
4.5
50
270
51
360
0
LINE
8
0
6
CONTINUOUS
10
163.9925824
20
-156.75
11
165.5
21
-156.75
0
LINE
8
0
6
CONTINUOUS
10
160.6075475
20
-165.212587
11
163.9925824
21
-156.75
0
ARC
8
0
6
CONTINUOUS
10
162
20
-165.7703297
40
1.5
50
158.1985894
51
180
0
LINE
8
0
6
CONTINUOUS
10
160.5
20
-176
11
160.5
21
-165.7703297
0
ARC
8
0
6
CONTINUOUS
10
156
20
-176
40
4.5
50
270
51
360
0
LINE
8
0
6
CONTINUOUS
10
101
20
-180.5
11
156
21
-180.5
0
ARC
8
0
6
CONTINUOUS
10
101
20
-176
40
4.5
50
180
51
270
0
LINE
8
0
6
CONTINUOUS
10
96.5
20
-165.7703297
11
96.5
21
-176
0
ARC
8
0
6
CONTINUOUS
10
95
20
-165.7703297
40
1.5
50
0
51
21.8014106
0
LINE
8
0
6
CONTINUOUS
10
93.0074176
20
-156.75
11
96.392715
21
-165.2132436
0
LINE
8
0
6
CONTINUOUS
10
91.5
20
-156.75
11
93.0074176
21
-156.75
0
ARC
8
0
6
CONTINUOUS
10
91.5
20
-152.25
40
4.5
50
180
51
270
0
LINE
8
0
6
CONTINUOUS
10
87
20
-135.25
11
87
21
-152.25
0
ARC
8
0
6
CONTINUOUS
10
91.5
20
-135.25
40
4.5
50
141.057559
51
180
0
LINE
8
0
6
CONTINUOUS
10
88
20
-131.3284271
11
88
21
-132.4215729
0
ARC
8
0
6
CONTINUOUS
10
91.5
20
-128.5
40
4.5
50
180
51
218.942441
0
ARC
8
0
6
CONTINUOUS
10
98.425
20
-67
40
2
50
270
51
0
0
ARC
8
0
6
CONTINUOUS
10
160.575
20
-67
40
2
50
180
51
270
0
ENDSEC
0
EOF