%TF.GenerationSoftware,KiCad,Pcbnew,9.0.8-1.fc43*%
%TF.CreationDate,2026-04-13T17:42:09-07:00*%
%TF.ProjectId,pekepadv,70656b65-7061-4647-962e-6b696361645f,0.0.1*%
%TF.SameCoordinates,Original*%
%TF.FileFunction,Copper,L2,Bot*%
%TF.FilePolarity,Positive*%
%FSLAX46Y46*%
G04 Gerber Fmt 4.6, Leading zero omitted, Abs format (unit mm)*
G04 Created by KiCad (PCBNEW 9.0.8-1.fc43) date 2026-04-13 17:42:09*
%MOMM*%
%LPD*%
G01*
G04 APERTURE LIST*
G04 Aperture macros list*
%AMRoundRect*
0 Rectangle with rounded corners*
0 $1 Rounding radius*
0 $2 $3 $4 $5 $6 $7 $8 $9 X,Y pos of 4 corners*
0 Add a 4 corners polygon primitive as box body*
4,1,4,$2,$3,$4,$5,$6,$7,$8,$9,$2,$3,0*
0 Add four circle primitives for the rounded corners*
1,1,$1+$1,$2,$3*
1,1,$1+$1,$4,$5*
1,1,$1+$1,$6,$7*
1,1,$1+$1,$8,$9*
0 Add four rect primitives between the rounded corners*
20,1,$1+$1,$2,$3,$4,$5,0*
20,1,$1+$1,$4,$5,$6,$7,0*
20,1,$1+$1,$6,$7,$8,$9,0*
20,1,$1+$1,$8,$9,$2,$3,0*%
G04 Aperture macros list end*
%TA.AperFunction,ComponentPad*%
%ADD10O,1.600000X1.100000*%
%TD*%
%TA.AperFunction,ComponentPad*%
%ADD11C,1.700000*%
%TD*%
%TA.AperFunction,ComponentPad*%
%ADD12O,1.700000X1.700000*%
%TD*%
%TA.AperFunction,SMDPad,CuDef*%
%ADD13R,0.900000X1.200000*%
%TD*%
%TA.AperFunction,SMDPad,CuDef*%
%ADD14R,2.550000X2.500000*%
%TD*%
%TA.AperFunction,SMDPad,CuDef*%
%ADD15R,1.000000X1.550000*%
%TD*%
%TA.AperFunction,SMDPad,CuDef*%
%ADD16R,0.800000X1.000000*%
%TD*%
%TA.AperFunction,SMDPad,CuDef*%
%ADD17R,1.500000X0.700000*%
%TD*%
%TA.AperFunction,ComponentPad*%
%ADD18RoundRect,0.240000X0.360000X0.635000X-0.360000X0.635000X-0.360000X-0.635000X0.360000X-0.635000X0*%
%TD*%
%TA.AperFunction,ComponentPad*%
%ADD19O,1.200000X1.750000*%
%TD*%
%TA.AperFunction,ViaPad*%
%ADD20C,0.600000*%
%TD*%
%TA.AperFunction,Conductor*%
%ADD21C,0.200000*%
%TD*%
G04 APERTURE END LIST*
D10*
%TO.P,RE2,A*%
%TO.N,P111*%
X159500000Y-151250000D03*
%TO.P,RE2,B*%
%TO.N,GND*%
X157000000Y-151250000D03*
%TO.P,RE2,C*%
%TO.N,P009*%
X154500000Y-151250000D03*
%TO.P,RE2,S1*%
%TO.N,right_enc-row*%
X154500000Y-136750000D03*
%TO.P,RE2,S2*%
%TO.N,P100*%
X159500000Y-136750000D03*
%TD*%
%TO.P,RE1,A*%
%TO.N,P115*%
X102500000Y-151250000D03*
%TO.P,RE1,B*%
%TO.N,GND*%
X100000000Y-151250000D03*
%TO.P,RE1,C*%
%TO.N,P113*%
X97500000Y-151250000D03*
%TO.P,RE1,S1*%
%TO.N,left_enc-row*%
X97500000Y-136750000D03*
%TO.P,RE1,S2*%
%TO.N,P008*%
X102500000Y-136750000D03*
%TD*%
D11*
%TO.P,MCU1,1*%
%TO.N,RAW*%
X106800000Y-53380000D03*
%TO.P,MCU1,2*%
%TO.N,GND*%
X109340000Y-53380000D03*
%TO.P,MCU1,3*%
%TO.N,RST*%
X111880000Y-53380000D03*
%TO.P,MCU1,4*%
%TO.N,VCC*%
X114420000Y-53380000D03*
%TO.P,MCU1,5*%
%TO.N,P031*%
X116960000Y-53380000D03*
%TO.P,MCU1,6*%
%TO.N,P029*%
X119500000Y-53380000D03*
%TO.P,MCU1,7*%
%TO.N,P002*%
X122040000Y-53380000D03*
%TO.P,MCU1,8*%
%TO.N,P115*%
X124580000Y-53380000D03*
%TO.P,MCU1,9*%
%TO.N,P113*%
X127120000Y-53380000D03*
%TO.P,MCU1,10*%
%TO.N,P111*%
X129660000Y-53380000D03*
%TO.P,MCU1,11*%
%TO.N,P010*%
X132200000Y-53380000D03*
%TO.P,MCU1,12*%
%TO.N,P009*%
X134740000Y-53380000D03*
%TO.P,MCU1,13*%
%TO.N,P106*%
X134740000Y-68620000D03*
%TO.P,MCU1,14*%
%TO.N,P104*%
X132200000Y-68620000D03*
%TO.P,MCU1,15*%
%TO.N,P011*%
X129660000Y-68620000D03*
%TO.P,MCU1,16*%
%TO.N,P100*%
X127120000Y-68620000D03*
%TO.P,MCU1,17*%
%TO.N,P024*%
X124580000Y-68620000D03*
%TO.P,MCU1,18*%
%TO.N,P022*%
X122040000Y-68620000D03*
%TO.P,MCU1,19*%
%TO.N,P020*%
X119500000Y-68620000D03*
%TO.P,MCU1,20*%
%TO.N,P017*%
X116960000Y-68620000D03*
%TO.P,MCU1,21*%
%TO.N,GND*%
X114420000Y-68620000D03*
%TO.P,MCU1,22*%
X111880000Y-68620000D03*
%TO.P,MCU1,23*%
%TO.N,P008*%
X109340000Y-68620000D03*
%TO.P,MCU1,24*%
%TO.N,P006*%
X106800000Y-68620000D03*
%TD*%
D12*
%TO.P,DISP1,1*%
%TO.N,P011*%
X139200000Y-66080000D03*
%TO.P,DISP1,2*%
%TO.N,P010*%
X139200000Y-63540000D03*
%TO.P,DISP1,3*%
%TO.N,VCC*%
X139200000Y-61000000D03*
%TO.P,DISP1,4*%
%TO.N,GND*%
X139200000Y-58460000D03*
D11*
%TO.P,DISP1,5*%
%TO.N,P006*%
X139200000Y-55920000D03*
%TD*%
D13*
%TO.P,D1,1*%
%TO.N,P104*%
X101650000Y-125000000D03*
%TO.P,D1,2*%
%TO.N,left-outer_bottom*%
X98350000Y-125000000D03*
%TD*%
%TO.P,D15,1*%
%TO.N,P002*%
X130150000Y-153500000D03*
%TO.P,D15,2*%
%TO.N,middle_top*%
X126850000Y-153500000D03*
%TD*%
D14*
%TO.P,S3,1*%
%TO.N,P008*%
X92915000Y-79460000D03*
%TO.P,S3,2*%
%TO.N,left-outer_top*%
X105842000Y-76920000D03*
%TD*%
D13*
%TO.P,D7,1*%
%TO.N,P104*%
X139650000Y-125000000D03*
%TO.P,D7,2*%
%TO.N,right-inner_bottom*%
X136350000Y-125000000D03*
%TD*%
D14*
%TO.P,S8,1*%
%TO.N,P024*%
X130915000Y-98460000D03*
%TO.P,S8,2*%
%TO.N,right-inner_middle*%
X143842000Y-95920000D03*
%TD*%
D13*
%TO.P,D4,1*%
%TO.N,P104*%
X120650000Y-125000000D03*
%TO.P,D4,2*%
%TO.N,left-inner_bottom*%
X117350000Y-125000000D03*
%TD*%
%TO.P,D3,1*%
%TO.N,P031*%
X101650000Y-87000000D03*
%TO.P,D3,2*%
%TO.N,left-outer_top*%
X98350000Y-87000000D03*
%TD*%
D14*
%TO.P,S4,1*%
%TO.N,P022*%
X111915000Y-117460000D03*
%TO.P,S4,2*%
%TO.N,left-inner_bottom*%
X124842000Y-114920000D03*
%TD*%
D13*
%TO.P,D17,1*%
%TO.N,P029*%
X101650000Y-139750000D03*
%TO.P,D17,2*%
%TO.N,left_enc-row*%
X98350000Y-139750000D03*
%TD*%
%TO.P,D5,1*%
%TO.N,P106*%
X120650000Y-106000000D03*
%TO.P,D5,2*%
%TO.N,left-inner_middle*%
X117350000Y-106000000D03*
%TD*%
D14*
%TO.P,S2,1*%
%TO.N,P008*%
X92915000Y-98460000D03*
%TO.P,S2,2*%
%TO.N,left-outer_middle*%
X105842000Y-95920000D03*
%TD*%
D13*
%TO.P,D18,1*%
%TO.N,P029*%
X158650000Y-139750000D03*
%TO.P,D18,2*%
%TO.N,right_enc-row*%
X155350000Y-139750000D03*
%TD*%
D14*
%TO.P,S1,1*%
%TO.N,P008*%
X92915000Y-117460000D03*
%TO.P,S1,2*%
%TO.N,left-outer_bottom*%
X105842000Y-114920000D03*
%TD*%
%TO.P,S14,1*%
%TO.N,P022*%
X121415000Y-164960000D03*
%TO.P,S14,2*%
%TO.N,middle_bottom*%
X134342000Y-162420000D03*
%TD*%
D13*
%TO.P,D14,1*%
%TO.N,P029*%
X130150000Y-172500000D03*
%TO.P,D14,2*%
%TO.N,middle_bottom*%
X126850000Y-172500000D03*
%TD*%
%TO.P,D16,1*%
%TO.N,P029*%
X149150000Y-172500000D03*
%TO.P,D16,2*%
%TO.N,right_bottom*%
X145850000Y-172500000D03*
%TD*%
%TO.P,D12,1*%
%TO.N,P031*%
X158650000Y-87000000D03*
%TO.P,D12,2*%
%TO.N,right-outer_top*%
X155350000Y-87000000D03*
%TD*%
D14*
%TO.P,S12,1*%
%TO.N,P100*%
X149915000Y-79460000D03*
%TO.P,S12,2*%
%TO.N,right-outer_top*%
X162842000Y-76920000D03*
%TD*%
%TO.P,S5,1*%
%TO.N,P022*%
X111915000Y-98460000D03*
%TO.P,S5,2*%
%TO.N,left-inner_middle*%
X124842000Y-95920000D03*
%TD*%
%TO.P,S7,1*%
%TO.N,P024*%
X130915000Y-117460000D03*
%TO.P,S7,2*%
%TO.N,right-inner_bottom*%
X143842000Y-114920000D03*
%TD*%
D13*
%TO.P,D6,1*%
%TO.N,P031*%
X120650000Y-87000000D03*
%TO.P,D6,2*%
%TO.N,left-inner_top*%
X117350000Y-87000000D03*
%TD*%
%TO.P,D2,1*%
%TO.N,P106*%
X101650000Y-106000000D03*
%TO.P,D2,2*%
%TO.N,left-outer_middle*%
X98350000Y-106000000D03*
%TD*%
D14*
%TO.P,S15,1*%
%TO.N,P022*%
X121415000Y-145960000D03*
%TO.P,S15,2*%
%TO.N,middle_top*%
X134342000Y-143420000D03*
%TD*%
D13*
%TO.P,D9,1*%
%TO.N,P031*%
X139650000Y-87000000D03*
%TO.P,D9,2*%
%TO.N,right-inner_top*%
X136350000Y-87000000D03*
%TD*%
D15*
%TO.P,RST1,1*%
%TO.N,GND*%
X153925000Y-53375000D03*
%TO.P,RST1,2*%
%TO.N,RST*%
X152225000Y-53375000D03*
%TO.P,RST1,3*%
%TO.N,GND*%
X153925000Y-58625000D03*
%TO.P,RST1,4*%
%TO.N,RST*%
X152225000Y-58625000D03*
%TD*%
D14*
%TO.P,S6,1*%
%TO.N,P022*%
X111915000Y-79460000D03*
%TO.P,S6,2*%
%TO.N,left-inner_top*%
X124842000Y-76920000D03*
%TD*%
%TO.P,S13,1*%
%TO.N,P008*%
X102415000Y-164960000D03*
%TO.P,S13,2*%
%TO.N,left_bottom*%
X115342000Y-162420000D03*
%TD*%
%TO.P,S10,1*%
%TO.N,P100*%
X149915000Y-117460000D03*
%TO.P,S10,2*%
%TO.N,right-outer_bottom*%
X162842000Y-114920000D03*
%TD*%
D13*
%TO.P,D8,1*%
%TO.N,P106*%
X139650000Y-106000000D03*
%TO.P,D8,2*%
%TO.N,right-inner_middle*%
X136350000Y-106000000D03*
%TD*%
D16*
%TO.P,PWR1,*%
%TO.N,*%
X151990000Y-62350000D03*
X151990000Y-69650000D03*
X154200000Y-62350000D03*
X154200000Y-69650000D03*
D17*
%TO.P,PWR1,1*%
%TO.N,N/C*%
X151340000Y-63750000D03*
%TO.P,PWR1,2*%
%TO.N,RAW*%
X151340000Y-66750000D03*
%TO.P,PWR1,3*%
%TO.N,BAT_P*%
X151340000Y-68250000D03*
%TD*%
D13*
%TO.P,D10,1*%
%TO.N,P104*%
X158650000Y-125000000D03*
%TO.P,D10,2*%
%TO.N,right-outer_bottom*%
X155350000Y-125000000D03*
%TD*%
%TO.P,D13,1*%
%TO.N,P029*%
X111150000Y-172500000D03*
%TO.P,D13,2*%
%TO.N,left_bottom*%
X107850000Y-172500000D03*
%TD*%
D14*
%TO.P,S11,1*%
%TO.N,P100*%
X149915000Y-98460000D03*
%TO.P,S11,2*%
%TO.N,right-outer_middle*%
X162842000Y-95920000D03*
%TD*%
D13*
%TO.P,D11,1*%
%TO.N,P106*%
X158650000Y-106000000D03*
%TO.P,D11,2*%
%TO.N,right-outer_middle*%
X155350000Y-106000000D03*
%TD*%
D14*
%TO.P,S9,1*%
%TO.N,P024*%
X130915000Y-79460000D03*
%TO.P,S9,2*%
%TO.N,right-inner_top*%
X143842000Y-76920000D03*
%TD*%
D18*
%TO.P,JST1,1*%
%TO.N,GND*%
X145075000Y-70000000D03*
D19*
%TO.P,JST1,2*%
%TO.N,BAT_P*%
X147075000Y-70000000D03*
%TD*%
D14*
%TO.P,S16,1*%
%TO.N,P024*%
X140415000Y-164960000D03*
%TO.P,S16,2*%
%TO.N,right_bottom*%
X153342000Y-162420000D03*
%TD*%
D20*
%TO.N,GND*%
X153771800Y-54897600D03*
X154566800Y-56747600D03*
%TO.N,P008*%
X90575000Y-98952400D03*
X102433400Y-158686400D03*
X93008200Y-120031300D03*
X93008200Y-81617800D03*
%TO.N,P022*%
X119794700Y-143469800D03*
X110989700Y-96700000D03*
X116638600Y-122964500D03*
%TO.N,P024*%
X126501000Y-78854400D03*
X129107400Y-98952400D03*
X137189000Y-164659800D03*
X129065000Y-116872600D03*
%TO.N,P100*%
X147983000Y-98952400D03*
X157463100Y-123319700D03*
X148774200Y-81617800D03*
X148774200Y-113885900D03*
%TO.N,P104*%
X130711100Y-125135400D03*
%TO.N,P106*%
X131937300Y-104925800D03*
%TO.N,P031*%
X110989700Y-87005600D03*
%TO.N,P029*%
X131722300Y-173619900D03*
X131396400Y-140471400D03*
X106691300Y-139404600D03*
%TO.N,P002*%
X124904700Y-55175100D03*
X131722300Y-152750600D03*
%TO.N,RAW*%
X109034800Y-66952800D03*
%TO.N,P113*%
X98625900Y-134120200D03*
X129654500Y-126309200D03*
%TO.N,P111*%
X144172400Y-55857400D03*
%TD*%
D21*
%TO.N,GND*%
X154566800Y-56747600D02*
X153925000Y-57389400D01*
X153771800Y-54897600D02*
X153925000Y-54744400D01*
X153925000Y-54744400D02*
X153925000Y-53375000D01*
X153925000Y-57389400D02*
X153925000Y-58625000D01*
%TO.N,P008*%
X92915000Y-79460000D02*
X92915000Y-77908300D01*
X102433400Y-163389900D02*
X102433400Y-158686400D01*
X102415000Y-164960000D02*
X102415000Y-163408300D01*
X96559700Y-74263600D02*
X103696400Y-74263600D01*
X92915000Y-77908300D02*
X96559700Y-74263600D01*
X92915000Y-98460000D02*
X91338300Y-98460000D01*
X92915000Y-81524600D02*
X92915000Y-79460000D01*
X90575000Y-98952400D02*
X90845900Y-98952400D01*
X102415000Y-163408300D02*
X102433400Y-163389900D01*
X90845900Y-98952400D02*
X91338300Y-98460000D01*
X93008200Y-120031300D02*
X92915000Y-119938100D01*
X92915000Y-119938100D02*
X92915000Y-117460000D01*
X103696400Y-74263600D02*
X109340000Y-68620000D01*
X93008200Y-81617800D02*
X92915000Y-81524600D01*
%TO.N,left-outer_bottom*%
X102948500Y-119365200D02*
X105842000Y-116471700D01*
X99101700Y-125000000D02*
X102948500Y-121153200D01*
X98350000Y-125000000D02*
X99101700Y-125000000D01*
X102948500Y-121153200D02*
X102948500Y-119365200D01*
X105842000Y-114920000D02*
X105842000Y-116471700D01*
%TO.N,left-outer_middle*%
X103231600Y-100082100D02*
X103231600Y-101870100D01*
X105842000Y-97471700D02*
X103231600Y-100082100D01*
X98350000Y-106000000D02*
X99101700Y-106000000D01*
X105842000Y-95920000D02*
X105842000Y-97471700D01*
X103231600Y-101870100D02*
X99101700Y-106000000D01*
%TO.N,left-outer_top*%
X102948500Y-83153200D02*
X102948500Y-81365200D01*
X102948500Y-81365200D02*
X105842000Y-78471700D01*
X98350000Y-87000000D02*
X99101700Y-87000000D01*
X99101700Y-87000000D02*
X102948500Y-83153200D01*
X105842000Y-76920000D02*
X105842000Y-78471700D01*
%TO.N,P022*%
X121415000Y-144408300D02*
X120733200Y-144408300D01*
X114751100Y-122964500D02*
X111915000Y-120128400D01*
X111915000Y-79460000D02*
X111915000Y-78684100D01*
X111915000Y-98460000D02*
X111915000Y-96908300D01*
X100898300Y-87783800D02*
X110338300Y-97223800D01*
X121415000Y-145960000D02*
X121415000Y-144408300D01*
X111915000Y-120128400D02*
X111915000Y-117460000D01*
X104534500Y-86064600D02*
X101014300Y-86064600D01*
X111198000Y-96908300D02*
X111915000Y-96908300D01*
X100898300Y-86180600D02*
X100898300Y-87783800D01*
X110338300Y-97223800D02*
X110338300Y-98460000D01*
X116638600Y-122964500D02*
X114751100Y-122964500D01*
X111915000Y-78684100D02*
X111915000Y-77908300D01*
X110989700Y-96700000D02*
X111198000Y-96908300D01*
X122040000Y-68620000D02*
X112751700Y-77908300D01*
X120733200Y-144408300D02*
X119794700Y-143469800D01*
X111915000Y-78684100D02*
X104534500Y-86064600D01*
X121415000Y-164960000D02*
X121415000Y-145960000D01*
X101014300Y-86064600D02*
X100898300Y-86180600D01*
X112751700Y-77908300D02*
X111915000Y-77908300D01*
X111915000Y-98460000D02*
X110338300Y-98460000D01*
%TO.N,left-inner_bottom*%
X117350000Y-125000000D02*
X118101700Y-125000000D01*
X121948500Y-119365200D02*
X124842000Y-116471700D01*
X121948500Y-121153200D02*
X121948500Y-119365200D01*
X118101700Y-125000000D02*
X121948500Y-121153200D01*
X124842000Y-114920000D02*
X124842000Y-116471700D01*
%TO.N,left-inner_middle*%
X121948500Y-102153200D02*
X121948500Y-100365200D01*
X118101700Y-106000000D02*
X121948500Y-102153200D01*
X124842000Y-95920000D02*
X124842000Y-97471700D01*
X121948500Y-100365200D02*
X124842000Y-97471700D01*
X117350000Y-106000000D02*
X118101700Y-106000000D01*
%TO.N,left-inner_top*%
X124842000Y-76920000D02*
X124842000Y-78471700D01*
X118101700Y-87000000D02*
X121948500Y-83153200D01*
X121948500Y-81365200D02*
X124842000Y-78471700D01*
X117350000Y-87000000D02*
X118101700Y-87000000D01*
X121948500Y-83153200D02*
X121948500Y-81365200D01*
%TO.N,P024*%
X130915000Y-117460000D02*
X129338300Y-117460000D01*
X129338300Y-117145900D02*
X129338300Y-117460000D01*
X129065000Y-116872600D02*
X129338300Y-117145900D01*
X126501000Y-70541000D02*
X126501000Y-78854400D01*
X126501000Y-78854400D02*
X128732700Y-78854400D01*
X124580000Y-68620000D02*
X126501000Y-70541000D01*
X129107400Y-98952400D02*
X129338300Y-98721500D01*
X140415000Y-164960000D02*
X137489200Y-164960000D01*
X130915000Y-98460000D02*
X129338300Y-98460000D01*
X129338300Y-98721500D02*
X129338300Y-98460000D01*
X137489200Y-164960000D02*
X137189000Y-164659800D01*
X128732700Y-78854400D02*
X129338300Y-79460000D01*
X130915000Y-79460000D02*
X129338300Y-79460000D01*
%TO.N,right-inner_bottom*%
X143842000Y-116471700D02*
X141231600Y-119082100D01*
X141231600Y-120870100D02*
X137101700Y-125000000D01*
X136350000Y-125000000D02*
X137101700Y-125000000D01*
X141231600Y-119082100D02*
X141231600Y-120870100D01*
X143842000Y-114920000D02*
X143842000Y-116471700D01*
%TO.N,right-inner_middle*%
X141231600Y-101870100D02*
X137101700Y-106000000D01*
X143842000Y-97471700D02*
X141231600Y-100082100D01*
X143842000Y-95920000D02*
X143842000Y-97471700D01*
X136350000Y-106000000D02*
X137101700Y-106000000D01*
X141231600Y-100082100D02*
X141231600Y-101870100D01*
%TO.N,right-inner_top*%
X136350000Y-87000000D02*
X137101700Y-87000000D01*
X141231600Y-82870100D02*
X137101700Y-87000000D01*
X143842000Y-76920000D02*
X143842000Y-78471700D01*
X141231600Y-81082100D02*
X141231600Y-82870100D01*
X143842000Y-78471700D02*
X141231600Y-81082100D01*
%TO.N,P100*%
X127120000Y-68620000D02*
X132471900Y-73971900D01*
X149915000Y-120152400D02*
X149915000Y-117460000D01*
X149915000Y-98460000D02*
X148338300Y-98460000D01*
X148774200Y-114767500D02*
X148774200Y-113885900D01*
X149915000Y-78684100D02*
X148774200Y-79824900D01*
X148338300Y-98597100D02*
X148338300Y-98460000D01*
X157463100Y-123319700D02*
X153082300Y-123319700D01*
X153082300Y-123319700D02*
X149915000Y-120152400D01*
X145978600Y-73971900D02*
X149915000Y-77908300D01*
X149915000Y-115908300D02*
X148774200Y-114767500D01*
X149915000Y-79460000D02*
X149915000Y-78684100D01*
X132471900Y-73971900D02*
X145978600Y-73971900D01*
X147983000Y-98952400D02*
X148338300Y-98597100D01*
X149915000Y-78684100D02*
X149915000Y-77908300D01*
X149915000Y-117460000D02*
X149915000Y-115908300D01*
X148774200Y-79824900D02*
X148774200Y-81617800D01*
%TO.N,right-outer_bottom*%
X157045700Y-125944000D02*
X159264900Y-125944000D01*
X159948500Y-119365200D02*
X162842000Y-116471700D01*
X155350000Y-125000000D02*
X156101700Y-125000000D01*
X156101700Y-125000000D02*
X157045700Y-125944000D01*
X159264900Y-125944000D02*
X159948500Y-125260400D01*
X162842000Y-114920000D02*
X162842000Y-116471700D01*
X159948500Y-125260400D02*
X159948500Y-119365200D01*
%TO.N,right-outer_middle*%
X160231600Y-100082100D02*
X160231600Y-101870100D01*
X160231600Y-101870100D02*
X156101700Y-106000000D01*
X162842000Y-95920000D02*
X162842000Y-97471700D01*
X162842000Y-97471700D02*
X160231600Y-100082100D01*
X155350000Y-106000000D02*
X156101700Y-106000000D01*
%TO.N,right-outer_top*%
X155350000Y-87000000D02*
X156101700Y-87000000D01*
X162842000Y-76920000D02*
X162842000Y-78471700D01*
X160231600Y-81082100D02*
X160231600Y-82870100D01*
X160231600Y-82870100D02*
X156101700Y-87000000D01*
X162842000Y-78471700D02*
X160231600Y-81082100D01*
%TO.N,left_bottom*%
X112448500Y-166865200D02*
X115342000Y-163971700D01*
X108601700Y-172500000D02*
X112448500Y-168653200D01*
X107850000Y-172500000D02*
X108601700Y-172500000D01*
X115342000Y-162420000D02*
X115342000Y-163971700D01*
X112448500Y-168653200D02*
X112448500Y-166865200D01*
%TO.N,middle_bottom*%
X131448500Y-166865200D02*
X134342000Y-163971700D01*
X134342000Y-162420000D02*
X134342000Y-163971700D01*
X127601700Y-172500000D02*
X131448500Y-168653200D01*
X126850000Y-172500000D02*
X127601700Y-172500000D01*
X131448500Y-168653200D02*
X131448500Y-166865200D01*
%TO.N,middle_top*%
X131643900Y-149457800D02*
X131643900Y-147669800D01*
X127601700Y-153500000D02*
X131643900Y-149457800D01*
X134342000Y-143420000D02*
X134342000Y-144971700D01*
X126850000Y-153500000D02*
X127601700Y-153500000D01*
X131643900Y-147669800D02*
X134342000Y-144971700D01*
%TO.N,right_bottom*%
X153342000Y-163971700D02*
X150731600Y-166582100D01*
X150731600Y-166582100D02*
X150731600Y-168370100D01*
X150731600Y-168370100D02*
X146601700Y-172500000D01*
X153342000Y-162420000D02*
X153342000Y-163971700D01*
X145850000Y-172500000D02*
X146601700Y-172500000D01*
%TO.N,P104*%
X103363100Y-125961400D02*
X120440300Y-125961400D01*
X131484700Y-125909000D02*
X130711100Y-125135400D01*
X139650000Y-125000000D02*
X140401700Y-125000000D01*
X130711100Y-125135400D02*
X121537100Y-125135400D01*
X158650000Y-125000000D02*
X157898300Y-125000000D01*
X139274200Y-125000000D02*
X138898300Y-125000000D01*
X156996600Y-124098300D02*
X157898300Y-125000000D01*
X141303400Y-124098300D02*
X156996600Y-124098300D01*
X138898300Y-125000000D02*
X137989300Y-125909000D01*
X120650000Y-125000000D02*
X121401700Y-125000000D01*
X120440300Y-125961400D02*
X121401700Y-125000000D01*
X139274200Y-125000000D02*
X139650000Y-125000000D01*
X121537100Y-125135400D02*
X121401700Y-125000000D01*
X140401700Y-125000000D02*
X141303400Y-124098300D01*
X101650000Y-125000000D02*
X102401700Y-125000000D01*
X102401700Y-125000000D02*
X103363100Y-125961400D01*
X137989300Y-125909000D02*
X131484700Y-125909000D01*
%TO.N,P106*%
X120650000Y-106000000D02*
X130863100Y-106000000D01*
X140401700Y-106909000D02*
X140401700Y-106000000D01*
X140401700Y-106909000D02*
X156989300Y-106909000D01*
X158650000Y-106000000D02*
X157898300Y-106000000D01*
X102401700Y-106000000D02*
X103321700Y-106920000D01*
X139650000Y-106000000D02*
X140401700Y-106000000D01*
X118978300Y-106920000D02*
X119898300Y-106000000D01*
X156989300Y-106909000D02*
X157898300Y-106000000D01*
X120650000Y-106000000D02*
X119898300Y-106000000D01*
X130863100Y-106000000D02*
X131937300Y-104925800D01*
X101650000Y-106000000D02*
X102401700Y-106000000D01*
X103321700Y-106920000D02*
X118978300Y-106920000D01*
X131937300Y-104925800D02*
X133920500Y-106909000D01*
X133920500Y-106909000D02*
X140401700Y-106909000D01*
%TO.N,P031*%
X158650000Y-87000000D02*
X157898300Y-87000000D01*
X122303400Y-87901700D02*
X121401700Y-87000000D01*
X121401700Y-87000000D02*
X120500000Y-87901700D01*
X120650000Y-87000000D02*
X121401700Y-87000000D01*
X157898300Y-87000000D02*
X156996600Y-87901700D01*
X102401700Y-87000000D02*
X110984100Y-87000000D01*
X111885800Y-87901700D02*
X110989700Y-87005600D01*
X110984100Y-87000000D02*
X110989700Y-87005600D01*
X140401700Y-87901700D02*
X122303400Y-87901700D01*
X140401700Y-87901700D02*
X140401700Y-87000000D01*
X139650000Y-87000000D02*
X140401700Y-87000000D01*
X120500000Y-87901700D02*
X111885800Y-87901700D01*
X156996600Y-87901700D02*
X140401700Y-87901700D01*
X101650000Y-87000000D02*
X102401700Y-87000000D01*
%TO.N,P029*%
X106691300Y-140471400D02*
X106691300Y-139404600D01*
X102401700Y-139750000D02*
X103123100Y-140471400D01*
X130150000Y-172500000D02*
X130901700Y-172500000D01*
X106691300Y-140471400D02*
X131396400Y-140471400D01*
X148398300Y-172500000D02*
X147278400Y-173619900D01*
X111150000Y-172500000D02*
X111901700Y-172500000D01*
X130150000Y-172500000D02*
X129398300Y-172500000D01*
X103123100Y-140471400D02*
X106691300Y-140471400D01*
X131722300Y-173619900D02*
X130901700Y-172799300D01*
X112803400Y-173401700D02*
X111901700Y-172500000D01*
X147278400Y-173619900D02*
X131722300Y-173619900D01*
X131576700Y-140651700D02*
X156996600Y-140651700D01*
X129398300Y-172500000D02*
X128496600Y-173401700D01*
X131396400Y-140471400D02*
X131576700Y-140651700D01*
X156996600Y-140651700D02*
X157898300Y-139750000D01*
X158650000Y-139750000D02*
X157898300Y-139750000D01*
X101650000Y-139750000D02*
X102401700Y-139750000D01*
X130901700Y-172799300D02*
X130901700Y-172500000D01*
X149150000Y-172500000D02*
X148398300Y-172500000D01*
X128496600Y-173401700D02*
X112803400Y-173401700D01*
%TO.N,P002*%
X130972900Y-153500000D02*
X131722300Y-152750600D01*
X124904700Y-55175100D02*
X123835100Y-55175100D01*
X130150000Y-153500000D02*
X130972900Y-153500000D01*
X123835100Y-55175100D02*
X122040000Y-53380000D01*
%TO.N,left_enc-row*%
X97500000Y-137601700D02*
X98350000Y-138451700D01*
X97500000Y-136750000D02*
X97500000Y-137601700D01*
X98350000Y-138451700D02*
X98350000Y-139750000D01*
%TO.N,right_enc-row*%
X154500000Y-137601700D02*
X155350000Y-138451700D01*
X155350000Y-138451700D02*
X155350000Y-139750000D01*
X154500000Y-136750000D02*
X154500000Y-137601700D01*
%TO.N,RAW*%
X127175800Y-66952800D02*
X109034800Y-66952800D01*
X151340000Y-66750000D02*
X146164300Y-66750000D01*
X128390000Y-68167000D02*
X127175800Y-66952800D01*
X146164300Y-66750000D02*
X143103500Y-69810800D01*
X129137400Y-69810800D02*
X128390000Y-69063400D01*
X143103500Y-69810800D02*
X129137400Y-69810800D01*
X128390000Y-69063400D02*
X128390000Y-68167000D01*
%TO.N,RST*%
X152225000Y-52298300D02*
X151742600Y-51815900D01*
X152225000Y-53375000D02*
X152225000Y-58625000D01*
X151742600Y-51815900D02*
X113444100Y-51815900D01*
X152225000Y-53375000D02*
X152225000Y-52298300D01*
X113444100Y-51815900D02*
X111880000Y-53380000D01*
%TO.N,VCC*%
X114420000Y-53380000D02*
X122040000Y-61000000D01*
X122040000Y-61000000D02*
X139200000Y-61000000D01*
%TO.N,P113*%
X121843500Y-134120200D02*
X129654500Y-126309200D01*
X129707600Y-126256100D02*
X129654500Y-126309200D01*
X98625900Y-134120200D02*
X121843500Y-134120200D01*
X129654500Y-126309200D02*
X129707600Y-126256100D01*
%TO.N,P111*%
X144172400Y-55857400D02*
X140543300Y-52228300D01*
X140543300Y-52228300D02*
X130811700Y-52228300D01*
X130811700Y-52228300D02*
X129660000Y-53380000D01*
%TO.N,P006*%
X140402100Y-61456900D02*
X139589000Y-62270000D01*
X106800000Y-68336800D02*
X106800000Y-68620000D01*
X112866800Y-62270000D02*
X106800000Y-68336800D01*
X140402100Y-57122100D02*
X140402100Y-61456900D01*
X139589000Y-62270000D02*
X112866800Y-62270000D01*
X139200000Y-55920000D02*
X140402100Y-57122100D01*
%TO.N,P011*%
X132200000Y-66080000D02*
X139200000Y-66080000D01*
X129660000Y-68620000D02*
X132200000Y-66080000D01*
%TO.N,BAT_P*%
X150288300Y-68250000D02*
X148538300Y-70000000D01*
X151340000Y-68250000D02*
X150288300Y-68250000D01*
X148538300Y-70000000D02*
X147075000Y-70000000D01*
%TD*%
M02*
