M48
; DRILL file {KiCad 9.0.8-1.fc43} date 2026-04-13T17:47:19-0700
; FORMAT={-:-/ absolute / metric / decimal}
; #@! TF.CreationDate,2026-04-13T17:47:19-07:00
; #@! TF.GenerationSoftware,Kicad,Pcbnew,9.0.8-1.fc43
; #@! TF.FileFunction,Plated,1,2,PTH
FMAT,2
METRIC
; #@! TA.AperFunction,Plated,PTH,ViaDrill
T1C0.300
; #@! TA.AperFunction,Plated,PTH,ComponentDrill
T2C0.500
; #@! TA.AperFunction,Plated,PTH,ComponentDrill
T3C0.750
; #@! TA.AperFunction,Plated,PTH,ComponentDrill
T4C1.000
%
G90
G05
T1
X90.575Y-98.952
X93.008Y-81.618
X93.008Y-120.031
X98.626Y-134.12
X102.433Y-158.686
X106.691Y-139.405
X109.035Y-66.953
X110.99Y-87.006
X110.99Y-96.7
X116.639Y-122.965
X119.795Y-143.47
X124.905Y-55.175
X126.501Y-78.854
X129.065Y-116.873
X129.107Y-98.952
X129.654Y-126.309
X130.711Y-125.135
X131.396Y-140.471
X131.722Y-152.751
X131.722Y-173.62
X131.937Y-104.926
X137.189Y-164.66
X144.172Y-55.857
X147.983Y-98.952
X148.774Y-81.618
X148.774Y-113.886
X153.772Y-54.898
X154.567Y-56.748
X157.463Y-123.32
T3
X145.075Y-70.0
X147.075Y-70.0
T4
X106.8Y-53.38
X106.8Y-68.62
X109.34Y-53.38
X109.34Y-68.62
X111.88Y-53.38
X111.88Y-68.62
X114.42Y-53.38
X114.42Y-68.62
X116.96Y-53.38
X116.96Y-68.62
X119.5Y-53.38
X119.5Y-68.62
X122.04Y-53.38
X122.04Y-68.62
X124.58Y-53.38
X124.58Y-68.62
X127.12Y-53.38
X127.12Y-68.62
X129.66Y-53.38
X129.66Y-68.62
X132.2Y-53.38
X132.2Y-68.62
X134.74Y-53.38
X134.74Y-68.62
X139.2Y-55.92
X139.2Y-58.46
X139.2Y-61.0
X139.2Y-63.54
X139.2Y-66.08
T2
G00X97.25Y-136.75
M15
G01X97.75Y-136.75
M16
G05
G00X97.25Y-151.25
M15
G01X97.75Y-151.25
M16
G05
G00X99.75Y-151.25
M15
G01X100.25Y-151.25
M16
G05
G00X102.25Y-136.75
M15
G01X102.75Y-136.75
M16
G05
G00X102.25Y-151.25
M15
G01X102.75Y-151.25
M16
G05
G00X154.25Y-136.75
M15
G01X154.75Y-136.75
M16
G05
G00X154.25Y-151.25
M15
G01X154.75Y-151.25
M16
G05
G00X156.75Y-151.25
M15
G01X157.25Y-151.25
M16
G05
G00X159.25Y-136.75
M15
G01X159.75Y-136.75
M16
G05
G00X159.25Y-151.25
M15
G01X159.75Y-151.25
M16
G05
M30
