0
SECTION
2
HEADER
9
$INSUNITS
70
4
0
ENDSEC
0
SECTION
2
TABLES
0
TABLE
2
LTYPE
0
LTYPE
72
65
70
0
2
CONTINUOUS
3
______
73
0
40
0
0
LTYPE
72
65
70
0
2
DASHED
3
_ _ _ 
73
2
40
7.5
49
5
49
-2.5
0
LTYPE
72
65
70
0
2
DOTTED
3
. . . 
73
2
40
1.5
49
0.5
49
-1
0
ENDTAB
0
TABLE
2
LAYER
0
ENDTAB
0
ENDSEC
0
SECTION
2
ENTITIES
0
LINE
8
0
6
CONTINUOUS
10
89.5
20
-128.5
11
89.5
21
-73.5
0
ARC
8
0
6
CONTINUOUS
10
91.5
20
-128.5
40
2
50
180
51
239.9999999
0
LINE
8
0
6
CONTINUOUS
10
91.5
20
-71.5
11
103.3840993
21
-71.5
0
LINE
8
0
6
CONTINUOUS
10
155.6159007
20
-71.5
11
165.5
21
-71.5
0
ARC
8
0
6
CONTINUOUS
10
91.5
20
-73.5
40
2
50
90
51
180
0
ARC
8
0
6
CONTINUOUS
10
165.5
20
-128.5
40
2
50
300.0000001
51
360
0
LINE
8
0
6
CONTINUOUS
10
167.5
20
-128.5
11
167.5
21
-73.5
0
ARC
8
0
6
CONTINUOUS
10
165.5
20
-73.5
40
2
50
0
51
90
0
LINE
8
0
6
CONTINUOUS
10
101
20
-178
11
156
21
-178
0
LINE
8
0
6
CONTINUOUS
10
99
20
-165.7703297
11
99
21
-176
0
ARC
8
0
6
CONTINUOUS
10
101
20
-176
40
2
50
180
51
270
0
ARC
8
0
6
CONTINUOUS
10
156
20
-176
40
2
50
270
51
360
0
LINE
8
0
6
CONTINUOUS
10
158
20
-176
11
158
21
-165.7703297
0
LINE
8
0
6
CONTINUOUS
10
91.5
20
-154.25
11
94.7
21
-154.25
0
ARC
8
0
6
CONTINUOUS
10
91.5
20
-135.25
40
2
50
120.0000001
51
180
0
LINE
8
0
6
CONTINUOUS
10
89.5
20
-135.25
11
89.5
21
-152.25
0
ARC
8
0
6
CONTINUOUS
10
91.5
20
-152.25
40
2
50
180
51
270
0
LINE
8
0
6
CONTINUOUS
10
162.3
20
-154.25
11
165.5
21
-154.25
0
ARC
8
0
6
CONTINUOUS
10
165.5
20
-152.25
40
2
50
270
51
360
0
LINE
8
0
6
CONTINUOUS
10
167.5
20
-152.25
11
167.5
21
-135.25
0
ARC
8
0
6
CONTINUOUS
10
165.5
20
-135.25
40
2
50
0
51
59.9999999
0
LINE
8
0
6
CONTINUOUS
10
90.5
20
-130.2320508
11
90.5
21
-133.5179492
0
LINE
8
0
6
CONTINUOUS
10
94.7
20
-154.25
11
98.7139068
21
-164.2847669
0
LINE
8
0
6
CONTINUOUS
10
158.2860932
20
-164.2847669
11
162.3
21
-154.25
0
LINE
8
0
6
CONTINUOUS
10
166.5
20
-133.5179492
11
166.5
21
-130.2320508
0
ARC
8
0
6
CONTINUOUS
10
162
20
-165.7703297
40
4
50
158.1985894
51
180
0
ARC
8
0
6
CONTINUOUS
10
95
20
-165.7703297
40
4
50
0
51
21.8014106
0
LINE
8
0
6
CONTINUOUS
10
156.075
20
-70.225
11
156.075
21
-51.775
0
ARC
8
0
6
CONTINUOUS
10
154.075
20
-51.775
40
2
50
0
51
90
0
LINE
8
0
6
CONTINUOUS
10
154.075
20
-49.775
11
104.925
21
-49.775
0
ARC
8
0
6
CONTINUOUS
10
104.925
20
-51.775
40
2
50
90
51
180
0
LINE
8
0
6
CONTINUOUS
10
102.925
20
-51.775
11
102.925
21
-70.225
0
ARC
8
0
6
CONTINUOUS
10
104.925
20
-70.225
40
2
50
180
51
219.6056526
0
ARC
8
0
6
CONTINUOUS
10
154.075
20
-70.225
40
2
50
320.3943474
51
0
0
CIRCLE
8
0
6
CONTINUOUS
10
109.5
20
-91.5
40
1.5
0
CIRCLE
8
0
6
CONTINUOUS
10
147.5
20
-91.5
40
1.5
0
CIRCLE
8
0
6
CONTINUOUS
10
109.5
20
-153.25
40
1.5
0
CIRCLE
8
0
6
CONTINUOUS
10
147.5
20
-153.25
40
1.5
0
ENDSEC
0
EOF