0
SECTION
2
HEADER
9
$INSUNITS
70
4
0
ENDSEC
0
SECTION
2
TABLES
0
TABLE
2
LTYPE
0
LTYPE
72
65
70
0
2
CONTINUOUS
3
______
73
0
40
0
0
LTYPE
72
65
70
0
2
DASHED
3
_ _ _ 
73
2
40
7.5
49
5
49
-2.5
0
LTYPE
72
65
70
0
2
DOTTED
3
. . . 
73
2
40
1.5
49
0.5
49
-1
0
ENDTAB
0
TABLE
2
LAYER
0
ENDTAB
0
ENDSEC
0
SECTION
2
ENTITIES
0
LINE
8
0
6
CONTINUOUS
10
91.5
20
-130.5
11
165.5
21
-130.5
0
LINE
8
0
6
CONTINUOUS
10
89.5
20
-128.5
11
89.5
21
-73.5
0
ARC
8
0
6
CONTINUOUS
10
91.5
20
-128.5
40
2
50
180
51
270
0
LINE
8
0
6
CONTINUOUS
10
91.5
20
-71.5
11
165.5
21
-71.5
0
ARC
8
0
6
CONTINUOUS
10
91.5
20
-73.5
40
2
50
90
51
180
0
ARC
8
0
6
CONTINUOUS
10
165.5
20
-128.5
40
2
50
270
51
360
0
LINE
8
0
6
CONTINUOUS
10
167.5
20
-128.5
11
167.5
21
-73.5
0
ARC
8
0
6
CONTINUOUS
10
165.5
20
-73.5
40
2
50
0
51
90
0
LINE
8
0
6
CONTINUOUS
10
101
20
-178
11
156
21
-178
0
LINE
8
0
6
CONTINUOUS
10
108
20
-157
11
101
21
-157
0
ARC
8
0
6
CONTINUOUS
10
101
20
-159
40
2
50
90
51
180
0
LINE
8
0
6
CONTINUOUS
10
99
20
-159
11
99
21
-176
0
ARC
8
0
6
CONTINUOUS
10
101
20
-176
40
2
50
180
51
270
0
LINE
8
0
6
CONTINUOUS
10
149
20
-154.25
11
149
21
-157
0
LINE
8
0
6
CONTINUOUS
10
108
20
-157
11
108
21
-154.25
0
LINE
8
0
6
CONTINUOUS
10
136.5
20
-138
11
124.5
21
-138
0
ARC
8
0
6
CONTINUOUS
10
156
20
-176
40
2
50
270
51
360
0
LINE
8
0
6
CONTINUOUS
10
158
20
-176
11
158
21
-159
0
ARC
8
0
6
CONTINUOUS
10
156
20
-159
40
2
50
0
51
90
0
LINE
8
0
6
CONTINUOUS
10
156
20
-157
11
149
21
-157
0
LINE
8
0
6
CONTINUOUS
10
91.5
20
-154.25
11
108
21
-154.25
0
LINE
8
0
6
CONTINUOUS
10
91.5
20
-133.25
11
120.5
21
-133.25
0
ARC
8
0
6
CONTINUOUS
10
91.5
20
-135.25
40
2
50
90
51
180
0
LINE
8
0
6
CONTINUOUS
10
89.5
20
-135.25
11
89.5
21
-152.25
0
ARC
8
0
6
CONTINUOUS
10
91.5
20
-152.25
40
2
50
180
51
270
0
LINE
8
0
6
CONTINUOUS
10
120.5
20
-133.25
11
120.5
21
-134
0
LINE
8
0
6
CONTINUOUS
10
149
20
-154.25
11
165.5
21
-154.25
0
ARC
8
0
6
CONTINUOUS
10
165.5
20
-152.25
40
2
50
270
51
360
0
LINE
8
0
6
CONTINUOUS
10
167.5
20
-152.25
11
167.5
21
-135.25
0
ARC
8
0
6
CONTINUOUS
10
165.5
20
-135.25
40
2
50
0
51
90
0
LINE
8
0
6
CONTINUOUS
10
140.5
20
-133.25
11
165.5
21
-133.25
0
LINE
8
0
6
CONTINUOUS
10
136.5
20
-138
11
136.5
21
-137.25
0
ARC
8
0
6
CONTINUOUS
10
140.5
20
-137.25
40
4
50
90
51
180
0
ARC
8
0
6
CONTINUOUS
10
124.5
20
-134
40
4
50
180
51
270
0
ENDSEC
0
EOF