0
SECTION
2
HEADER
9
$INSUNITS
70
4
0
ENDSEC
0
SECTION
2
TABLES
0
TABLE
2
LTYPE
0
LTYPE
72
65
70
0
2
CONTINUOUS
3
______
73
0
40
0
0
LTYPE
72
65
70
0
2
DASHED
3
_ _ _ 
73
2
40
7.5
49
5
49
-2.5
0
LTYPE
72
65
70
0
2
DOTTED
3
. . . 
73
2
40
1.5
49
0.5
49
-1
0
ENDTAB
0
TABLE
2
LAYER
0
ENDTAB
0
ENDSEC
0
SECTION
2
ENTITIES
0
LINE
8
0
6
CONTINUOUS
10
93
20
-127
11
107
21
-127
0
LINE
8
0
6
CONTINUOUS
10
107
20
-127
11
107
21
-113
0
LINE
8
0
6
CONTINUOUS
10
107
20
-113
11
93
21
-113
0
LINE
8
0
6
CONTINUOUS
10
93
20
-113
11
93
21
-127
0
LINE
8
0
6
CONTINUOUS
10
93
20
-108
11
107
21
-108
0
LINE
8
0
6
CONTINUOUS
10
107
20
-108
11
107
21
-94
0
LINE
8
0
6
CONTINUOUS
10
107
20
-94
11
93
21
-94
0
LINE
8
0
6
CONTINUOUS
10
93
20
-94
11
93
21
-108
0
LINE
8
0
6
CONTINUOUS
10
93
20
-89
11
107
21
-89
0
LINE
8
0
6
CONTINUOUS
10
107
20
-89
11
107
21
-75
0
LINE
8
0
6
CONTINUOUS
10
107
20
-75
11
93
21
-75
0
LINE
8
0
6
CONTINUOUS
10
93
20
-75
11
93
21
-89
0
LINE
8
0
6
CONTINUOUS
10
112
20
-127
11
126
21
-127
0
LINE
8
0
6
CONTINUOUS
10
126
20
-127
11
126
21
-113
0
LINE
8
0
6
CONTINUOUS
10
126
20
-113
11
112
21
-113
0
LINE
8
0
6
CONTINUOUS
10
112
20
-113
11
112
21
-127
0
LINE
8
0
6
CONTINUOUS
10
112
20
-108
11
126
21
-108
0
LINE
8
0
6
CONTINUOUS
10
126
20
-108
11
126
21
-94
0
LINE
8
0
6
CONTINUOUS
10
126
20
-94
11
112
21
-94
0
LINE
8
0
6
CONTINUOUS
10
112
20
-94
11
112
21
-108
0
LINE
8
0
6
CONTINUOUS
10
112
20
-89
11
126
21
-89
0
LINE
8
0
6
CONTINUOUS
10
126
20
-89
11
126
21
-75
0
LINE
8
0
6
CONTINUOUS
10
126
20
-75
11
112
21
-75
0
LINE
8
0
6
CONTINUOUS
10
112
20
-75
11
112
21
-89
0
LINE
8
0
6
CONTINUOUS
10
131
20
-127
11
145
21
-127
0
LINE
8
0
6
CONTINUOUS
10
145
20
-127
11
145
21
-113
0
LINE
8
0
6
CONTINUOUS
10
145
20
-113
11
131
21
-113
0
LINE
8
0
6
CONTINUOUS
10
131
20
-113
11
131
21
-127
0
LINE
8
0
6
CONTINUOUS
10
131
20
-108
11
145
21
-108
0
LINE
8
0
6
CONTINUOUS
10
145
20
-108
11
145
21
-94
0
LINE
8
0
6
CONTINUOUS
10
145
20
-94
11
131
21
-94
0
LINE
8
0
6
CONTINUOUS
10
131
20
-94
11
131
21
-108
0
LINE
8
0
6
CONTINUOUS
10
131
20
-89
11
145
21
-89
0
LINE
8
0
6
CONTINUOUS
10
145
20
-89
11
145
21
-75
0
LINE
8
0
6
CONTINUOUS
10
145
20
-75
11
131
21
-75
0
LINE
8
0
6
CONTINUOUS
10
131
20
-75
11
131
21
-89
0
LINE
8
0
6
CONTINUOUS
10
150
20
-127
11
164
21
-127
0
LINE
8
0
6
CONTINUOUS
10
164
20
-127
11
164
21
-113
0
LINE
8
0
6
CONTINUOUS
10
164
20
-113
11
150
21
-113
0
LINE
8
0
6
CONTINUOUS
10
150
20
-113
11
150
21
-127
0
LINE
8
0
6
CONTINUOUS
10
150
20
-108
11
164
21
-108
0
LINE
8
0
6
CONTINUOUS
10
164
20
-108
11
164
21
-94
0
LINE
8
0
6
CONTINUOUS
10
164
20
-94
11
150
21
-94
0
LINE
8
0
6
CONTINUOUS
10
150
20
-94
11
150
21
-108
0
LINE
8
0
6
CONTINUOUS
10
150
20
-89
11
164
21
-89
0
LINE
8
0
6
CONTINUOUS
10
164
20
-89
11
164
21
-75
0
LINE
8
0
6
CONTINUOUS
10
164
20
-75
11
150
21
-75
0
LINE
8
0
6
CONTINUOUS
10
150
20
-75
11
150
21
-89
0
LINE
8
0
6
CONTINUOUS
10
102.5
20
-174.5
11
116.5
21
-174.5
0
LINE
8
0
6
CONTINUOUS
10
116.5
20
-174.5
11
116.5
21
-160.5
0
LINE
8
0
6
CONTINUOUS
10
116.5
20
-160.5
11
102.5
21
-160.5
0
LINE
8
0
6
CONTINUOUS
10
102.5
20
-160.5
11
102.5
21
-174.5
0
LINE
8
0
6
CONTINUOUS
10
121.5
20
-174.5
11
135.5
21
-174.5
0
LINE
8
0
6
CONTINUOUS
10
135.5
20
-174.5
11
135.5
21
-160.5
0
LINE
8
0
6
CONTINUOUS
10
135.5
20
-160.5
11
121.5
21
-160.5
0
LINE
8
0
6
CONTINUOUS
10
121.5
20
-160.5
11
121.5
21
-174.5
0
LINE
8
0
6
CONTINUOUS
10
121.5
20
-155.5
11
135.5
21
-155.5
0
LINE
8
0
6
CONTINUOUS
10
135.5
20
-155.5
11
135.5
21
-141.5
0
LINE
8
0
6
CONTINUOUS
10
135.5
20
-141.5
11
121.5
21
-141.5
0
LINE
8
0
6
CONTINUOUS
10
121.5
20
-141.5
11
121.5
21
-155.5
0
LINE
8
0
6
CONTINUOUS
10
140.5
20
-174.5
11
154.5
21
-174.5
0
LINE
8
0
6
CONTINUOUS
10
154.5
20
-174.5
11
154.5
21
-160.5
0
LINE
8
0
6
CONTINUOUS
10
154.5
20
-160.5
11
140.5
21
-160.5
0
LINE
8
0
6
CONTINUOUS
10
140.5
20
-160.5
11
140.5
21
-174.5
0
ENDSEC
0
EOF