%TF.GenerationSoftware,KiCad,Pcbnew,9.0.8-1.fc43*%
%TF.CreationDate,2026-04-13T17:42:09-07:00*%
%TF.ProjectId,pekepadv,70656b65-7061-4647-962e-6b696361645f,0.0.1*%
%TF.SameCoordinates,Original*%
%TF.FileFunction,Paste,Bot*%
%TF.FilePolarity,Positive*%
%FSLAX46Y46*%
G04 Gerber Fmt 4.6, Leading zero omitted, Abs format (unit mm)*
G04 Created by KiCad (PCBNEW 9.0.8-1.fc43) date 2026-04-13 17:42:09*
%MOMM*%
%LPD*%
G01*
G04 APERTURE LIST*
%ADD10R,0.900000X1.200000*%
%ADD11R,2.550000X2.500000*%
%ADD12R,1.000000X1.550000*%
%ADD13R,0.800000X1.000000*%
%ADD14R,1.500000X0.700000*%
G04 APERTURE END LIST*
D10*
%TO.C,D1*%
X101650000Y-125000000D03*
X98350000Y-125000000D03*
%TD*%
%TO.C,D15*%
X130150000Y-153500000D03*
X126850000Y-153500000D03*
%TD*%
D11*
%TO.C,S3*%
X92915000Y-79460000D03*
X105842000Y-76920000D03*
%TD*%
D10*
%TO.C,D7*%
X139650000Y-125000000D03*
X136350000Y-125000000D03*
%TD*%
D11*
%TO.C,S8*%
X130915000Y-98460000D03*
X143842000Y-95920000D03*
%TD*%
D10*
%TO.C,D4*%
X120650000Y-125000000D03*
X117350000Y-125000000D03*
%TD*%
%TO.C,D3*%
X101650000Y-87000000D03*
X98350000Y-87000000D03*
%TD*%
D11*
%TO.C,S4*%
X111915000Y-117460000D03*
X124842000Y-114920000D03*
%TD*%
D10*
%TO.C,D17*%
X101650000Y-139750000D03*
X98350000Y-139750000D03*
%TD*%
%TO.C,D5*%
X120650000Y-106000000D03*
X117350000Y-106000000D03*
%TD*%
D11*
%TO.C,S2*%
X92915000Y-98460000D03*
X105842000Y-95920000D03*
%TD*%
D10*
%TO.C,D18*%
X158650000Y-139750000D03*
X155350000Y-139750000D03*
%TD*%
D11*
%TO.C,S1*%
X92915000Y-117460000D03*
X105842000Y-114920000D03*
%TD*%
%TO.C,S14*%
X121415000Y-164960000D03*
X134342000Y-162420000D03*
%TD*%
D10*
%TO.C,D14*%
X130150000Y-172500000D03*
X126850000Y-172500000D03*
%TD*%
%TO.C,D16*%
X149150000Y-172500000D03*
X145850000Y-172500000D03*
%TD*%
%TO.C,D12*%
X158650000Y-87000000D03*
X155350000Y-87000000D03*
%TD*%
D11*
%TO.C,S12*%
X149915000Y-79460000D03*
X162842000Y-76920000D03*
%TD*%
%TO.C,S5*%
X111915000Y-98460000D03*
X124842000Y-95920000D03*
%TD*%
%TO.C,S7*%
X130915000Y-117460000D03*
X143842000Y-114920000D03*
%TD*%
D10*
%TO.C,D6*%
X120650000Y-87000000D03*
X117350000Y-87000000D03*
%TD*%
%TO.C,D2*%
X101650000Y-106000000D03*
X98350000Y-106000000D03*
%TD*%
D11*
%TO.C,S15*%
X121415000Y-145960000D03*
X134342000Y-143420000D03*
%TD*%
D10*
%TO.C,D9*%
X139650000Y-87000000D03*
X136350000Y-87000000D03*
%TD*%
D12*
%TO.C,RST1*%
X153925000Y-53375000D03*
X152225000Y-53375000D03*
X153925000Y-58625000D03*
X152225000Y-58625000D03*
%TD*%
D11*
%TO.C,S6*%
X111915000Y-79460000D03*
X124842000Y-76920000D03*
%TD*%
%TO.C,S13*%
X102415000Y-164960000D03*
X115342000Y-162420000D03*
%TD*%
%TO.C,S10*%
X149915000Y-117460000D03*
X162842000Y-114920000D03*
%TD*%
D10*
%TO.C,D8*%
X139650000Y-106000000D03*
X136350000Y-106000000D03*
%TD*%
D13*
%TO.C,PWR1*%
X151990000Y-62350000D03*
X151990000Y-69650000D03*
X154200000Y-62350000D03*
X154200000Y-69650000D03*
D14*
X151340000Y-63750000D03*
X151340000Y-66750000D03*
X151340000Y-68250000D03*
%TD*%
D10*
%TO.C,D10*%
X158650000Y-125000000D03*
X155350000Y-125000000D03*
%TD*%
%TO.C,D13*%
X111150000Y-172500000D03*
X107850000Y-172500000D03*
%TD*%
D11*
%TO.C,S11*%
X149915000Y-98460000D03*
X162842000Y-95920000D03*
%TD*%
D10*
%TO.C,D11*%
X158650000Y-106000000D03*
X155350000Y-106000000D03*
%TD*%
D11*
%TO.C,S9*%
X130915000Y-79460000D03*
X143842000Y-76920000D03*
%TD*%
%TO.C,S16*%
X140415000Y-164960000D03*
X153342000Y-162420000D03*
%TD*%
M02*
