%TF.GenerationSoftware,KiCad,Pcbnew,9.0.8-1.fc43*%
%TF.CreationDate,2026-04-14T18:58:31-07:00*%
%TF.ProjectId,pekepadv,70656b65-7061-4647-962e-6b696361645f,0.0.1*%
%TF.SameCoordinates,Original*%
%TF.FileFunction,Copper,L2,Bot*%
%TF.FilePolarity,Positive*%
%FSLAX46Y46*%
G04 Gerber Fmt 4.6, Leading zero omitted, Abs format (unit mm)*
G04 Created by KiCad (PCBNEW 9.0.8-1.fc43) date 2026-04-14 18:58:31*
%MOMM*%
%LPD*%
G01*
G04 APERTURE LIST*
G04 Aperture macros list*
%AMRoundRect*
0 Rectangle with rounded corners*
0 $1 Rounding radius*
0 $2 $3 $4 $5 $6 $7 $8 $9 X,Y pos of 4 corners*
0 Add a 4 corners polygon primitive as box body*
4,1,4,$2,$3,$4,$5,$6,$7,$8,$9,$2,$3,0*
0 Add four circle primitives for the rounded corners*
1,1,$1+$1,$2,$3*
1,1,$1+$1,$4,$5*
1,1,$1+$1,$6,$7*
1,1,$1+$1,$8,$9*
0 Add four rect primitives between the rounded corners*
20,1,$1+$1,$2,$3,$4,$5,0*
20,1,$1+$1,$4,$5,$6,$7,0*
20,1,$1+$1,$6,$7,$8,$9,0*
20,1,$1+$1,$8,$9,$2,$3,0*%
G04 Aperture macros list end*
%TA.AperFunction,SMDPad,CuDef*%
%ADD10R,2.550000X2.500000*%
%TD*%
%TA.AperFunction,SMDPad,CuDef*%
%ADD11R,0.900000X1.200000*%
%TD*%
%TA.AperFunction,ComponentPad*%
%ADD12C,1.700000*%
%TD*%
%TA.AperFunction,ComponentPad*%
%ADD13O,1.600000X1.100000*%
%TD*%
%TA.AperFunction,SMDPad,CuDef*%
%ADD14R,1.000000X1.550000*%
%TD*%
%TA.AperFunction,SMDPad,CuDef*%
%ADD15R,0.800000X1.000000*%
%TD*%
%TA.AperFunction,SMDPad,CuDef*%
%ADD16R,1.500000X0.700000*%
%TD*%
%TA.AperFunction,ComponentPad*%
%ADD17RoundRect,0.240000X0.360000X0.635000X-0.360000X0.635000X-0.360000X-0.635000X0.360000X-0.635000X0*%
%TD*%
%TA.AperFunction,ComponentPad*%
%ADD18O,1.200000X1.750000*%
%TD*%
%TA.AperFunction,ComponentPad*%
%ADD19O,1.700000X1.700000*%
%TD*%
%TA.AperFunction,ViaPad*%
%ADD20C,0.600000*%
%TD*%
%TA.AperFunction,Conductor*%
%ADD21C,0.200000*%
%TD*%
G04 APERTURE END LIST*
D10*
%TO.P,S1,1*%
%TO.N,P008*%
X92915000Y-117460000D03*
%TO.P,S1,2*%
%TO.N,left-outer_bottom*%
X105842000Y-114920000D03*
%TD*%
%TO.P,S2,1*%
%TO.N,P008*%
X92915000Y-98460000D03*
%TO.P,S2,2*%
%TO.N,left-outer_middle*%
X105842000Y-95920000D03*
%TD*%
%TO.P,S3,1*%
%TO.N,P008*%
X92915000Y-79460000D03*
%TO.P,S3,2*%
%TO.N,left-outer_top*%
X105842000Y-76920000D03*
%TD*%
%TO.P,S4,1*%
%TO.N,P022*%
X111915000Y-117460000D03*
%TO.P,S4,2*%
%TO.N,left-inner_bottom*%
X124842000Y-114920000D03*
%TD*%
%TO.P,S5,1*%
%TO.N,P022*%
X111915000Y-98460000D03*
%TO.P,S5,2*%
%TO.N,left-inner_middle*%
X124842000Y-95920000D03*
%TD*%
%TO.P,S6,1*%
%TO.N,P022*%
X111915000Y-79460000D03*
%TO.P,S6,2*%
%TO.N,left-inner_top*%
X124842000Y-76920000D03*
%TD*%
%TO.P,S7,1*%
%TO.N,P024*%
X130915000Y-117460000D03*
%TO.P,S7,2*%
%TO.N,right-inner_bottom*%
X143842000Y-114920000D03*
%TD*%
%TO.P,S8,1*%
%TO.N,P024*%
X130915000Y-98460000D03*
%TO.P,S8,2*%
%TO.N,right-inner_middle*%
X143842000Y-95920000D03*
%TD*%
%TO.P,S9,1*%
%TO.N,P024*%
X130915000Y-79460000D03*
%TO.P,S9,2*%
%TO.N,right-inner_top*%
X143842000Y-76920000D03*
%TD*%
%TO.P,S10,1*%
%TO.N,P100*%
X149915000Y-117460000D03*
%TO.P,S10,2*%
%TO.N,right-outer_bottom*%
X162842000Y-114920000D03*
%TD*%
%TO.P,S11,1*%
%TO.N,P100*%
X149915000Y-98460000D03*
%TO.P,S11,2*%
%TO.N,right-outer_middle*%
X162842000Y-95920000D03*
%TD*%
%TO.P,S12,1*%
%TO.N,P100*%
X149915000Y-79460000D03*
%TO.P,S12,2*%
%TO.N,right-outer_top*%
X162842000Y-76920000D03*
%TD*%
%TO.P,S13,1*%
%TO.N,P008*%
X102415000Y-164960000D03*
%TO.P,S13,2*%
%TO.N,left_bottom*%
X115342000Y-162420000D03*
%TD*%
%TO.P,S14,1*%
%TO.N,P022*%
X121415000Y-164960000D03*
%TO.P,S14,2*%
%TO.N,middle_bottom*%
X134342000Y-162420000D03*
%TD*%
%TO.P,S15,1*%
%TO.N,P022*%
X121415000Y-145960000D03*
%TO.P,S15,2*%
%TO.N,middle_top*%
X134342000Y-143420000D03*
%TD*%
%TO.P,S16,1*%
%TO.N,P024*%
X140415000Y-164960000D03*
%TO.P,S16,2*%
%TO.N,right_bottom*%
X153342000Y-162420000D03*
%TD*%
D11*
%TO.P,D1,1*%
%TO.N,P104*%
X101650000Y-125000000D03*
%TO.P,D1,2*%
%TO.N,left-outer_bottom*%
X98350000Y-125000000D03*
%TD*%
%TO.P,D2,1*%
%TO.N,P106*%
X101650000Y-106000000D03*
%TO.P,D2,2*%
%TO.N,left-outer_middle*%
X98350000Y-106000000D03*
%TD*%
%TO.P,D3,1*%
%TO.N,P031*%
X101650000Y-87000000D03*
%TO.P,D3,2*%
%TO.N,left-outer_top*%
X98350000Y-87000000D03*
%TD*%
%TO.P,D4,1*%
%TO.N,P104*%
X120650000Y-125000000D03*
%TO.P,D4,2*%
%TO.N,left-inner_bottom*%
X117350000Y-125000000D03*
%TD*%
%TO.P,D5,1*%
%TO.N,P106*%
X120650000Y-106000000D03*
%TO.P,D5,2*%
%TO.N,left-inner_middle*%
X117350000Y-106000000D03*
%TD*%
%TO.P,D6,1*%
%TO.N,P031*%
X120650000Y-87000000D03*
%TO.P,D6,2*%
%TO.N,left-inner_top*%
X117350000Y-87000000D03*
%TD*%
%TO.P,D7,1*%
%TO.N,P104*%
X139650000Y-125000000D03*
%TO.P,D7,2*%
%TO.N,right-inner_bottom*%
X136350000Y-125000000D03*
%TD*%
%TO.P,D8,1*%
%TO.N,P106*%
X139650000Y-106000000D03*
%TO.P,D8,2*%
%TO.N,right-inner_middle*%
X136350000Y-106000000D03*
%TD*%
%TO.P,D9,1*%
%TO.N,P031*%
X139650000Y-87000000D03*
%TO.P,D9,2*%
%TO.N,right-inner_top*%
X136350000Y-87000000D03*
%TD*%
%TO.P,D10,1*%
%TO.N,P104*%
X158650000Y-125000000D03*
%TO.P,D10,2*%
%TO.N,right-outer_bottom*%
X155350000Y-125000000D03*
%TD*%
%TO.P,D11,1*%
%TO.N,P106*%
X158650000Y-106000000D03*
%TO.P,D11,2*%
%TO.N,right-outer_middle*%
X155350000Y-106000000D03*
%TD*%
%TO.P,D12,1*%
%TO.N,P031*%
X158650000Y-87000000D03*
%TO.P,D12,2*%
%TO.N,right-outer_top*%
X155350000Y-87000000D03*
%TD*%
%TO.P,D13,1*%
%TO.N,P029*%
X111150000Y-172500000D03*
%TO.P,D13,2*%
%TO.N,left_bottom*%
X107850000Y-172500000D03*
%TD*%
%TO.P,D14,1*%
%TO.N,P029*%
X130150000Y-172500000D03*
%TO.P,D14,2*%
%TO.N,middle_bottom*%
X126850000Y-172500000D03*
%TD*%
%TO.P,D15,1*%
%TO.N,P002*%
X130150000Y-153500000D03*
%TO.P,D15,2*%
%TO.N,middle_top*%
X126850000Y-153500000D03*
%TD*%
%TO.P,D16,1*%
%TO.N,P029*%
X149150000Y-172500000D03*
%TO.P,D16,2*%
%TO.N,right_bottom*%
X145850000Y-172500000D03*
%TD*%
%TO.P,D17,1*%
%TO.N,P029*%
X101650000Y-139750000D03*
%TO.P,D17,2*%
%TO.N,left_enc-row*%
X98350000Y-139750000D03*
%TD*%
%TO.P,D18,1*%
%TO.N,P029*%
X158650000Y-139750000D03*
%TO.P,D18,2*%
%TO.N,right_enc-row*%
X155350000Y-139750000D03*
%TD*%
D12*
%TO.P,MCU1,24*%
%TO.N,P006*%
X106800000Y-68620000D03*
%TO.P,MCU1,1*%
%TO.N,RAW*%
X106800000Y-53380000D03*
%TO.P,MCU1,23*%
%TO.N,P008*%
X109340000Y-68620000D03*
%TO.P,MCU1,2*%
%TO.N,GND*%
X109340000Y-53380000D03*
%TO.P,MCU1,22*%
X111880000Y-68620000D03*
%TO.P,MCU1,3*%
%TO.N,RST*%
X111880000Y-53380000D03*
%TO.P,MCU1,21*%
%TO.N,GND*%
X114420000Y-68620000D03*
%TO.P,MCU1,4*%
%TO.N,VCC*%
X114420000Y-53380000D03*
%TO.P,MCU1,20*%
%TO.N,P017*%
X116960000Y-68620000D03*
%TO.P,MCU1,5*%
%TO.N,P031*%
X116960000Y-53380000D03*
%TO.P,MCU1,19*%
%TO.N,P020*%
X119500000Y-68620000D03*
%TO.P,MCU1,6*%
%TO.N,P029*%
X119500000Y-53380000D03*
%TO.P,MCU1,18*%
%TO.N,P022*%
X122040000Y-68620000D03*
%TO.P,MCU1,7*%
%TO.N,P002*%
X122040000Y-53380000D03*
%TO.P,MCU1,17*%
%TO.N,P024*%
X124580000Y-68620000D03*
%TO.P,MCU1,8*%
%TO.N,P115*%
X124580000Y-53380000D03*
%TO.P,MCU1,16*%
%TO.N,P100*%
X127120000Y-68620000D03*
%TO.P,MCU1,9*%
%TO.N,P113*%
X127120000Y-53380000D03*
%TO.P,MCU1,15*%
%TO.N,P011*%
X129660000Y-68620000D03*
%TO.P,MCU1,10*%
%TO.N,P111*%
X129660000Y-53380000D03*
%TO.P,MCU1,14*%
%TO.N,P104*%
X132200000Y-68620000D03*
%TO.P,MCU1,11*%
%TO.N,P010*%
X132200000Y-53380000D03*
%TO.P,MCU1,13*%
%TO.N,P106*%
X134740000Y-68620000D03*
%TO.P,MCU1,12*%
%TO.N,P009*%
X134740000Y-53380000D03*
%TD*%
D13*
%TO.P,RE1,A*%
%TO.N,P115*%
X102500000Y-151250000D03*
%TO.P,RE1,B*%
%TO.N,GND*%
X100000000Y-151250000D03*
%TO.P,RE1,C*%
%TO.N,P113*%
X97500000Y-151250000D03*
%TO.P,RE1,S1*%
%TO.N,left_enc-row*%
X97500000Y-136750000D03*
%TO.P,RE1,S2*%
%TO.N,P008*%
X102500000Y-136750000D03*
%TD*%
%TO.P,RE2,A*%
%TO.N,P111*%
X159500000Y-151250000D03*
%TO.P,RE2,B*%
%TO.N,GND*%
X157000000Y-151250000D03*
%TO.P,RE2,C*%
%TO.N,P009*%
X154500000Y-151250000D03*
%TO.P,RE2,S1*%
%TO.N,right_enc-row*%
X154500000Y-136750000D03*
%TO.P,RE2,S2*%
%TO.N,P100*%
X159500000Y-136750000D03*
%TD*%
D14*
%TO.P,RST1,1*%
%TO.N,GND*%
X153925000Y-53375000D03*
%TO.P,RST1,2*%
%TO.N,RST*%
X152225000Y-53375000D03*
%TO.P,RST1,3*%
%TO.N,GND*%
X153925000Y-58625000D03*
%TO.P,RST1,4*%
%TO.N,RST*%
X152225000Y-58625000D03*
%TD*%
D15*
%TO.P,PWR1,*%
%TO.N,*%
X151990000Y-62350000D03*
X154200000Y-62350000D03*
X151990000Y-69650000D03*
X154200000Y-69650000D03*
D16*
%TO.P,PWR1,1*%
%TO.N,N/C*%
X151340000Y-63750000D03*
%TO.P,PWR1,2*%
%TO.N,RAW*%
X151340000Y-66750000D03*
%TO.P,PWR1,3*%
%TO.N,BAT_P*%
X151340000Y-68250000D03*
%TD*%
D17*
%TO.P,JST1,1*%
%TO.N,GND*%
X145075000Y-70000000D03*
D18*
%TO.P,JST1,2*%
%TO.N,BAT_P*%
X147075000Y-70000000D03*
%TD*%
D19*
%TO.P,DISP1,1*%
%TO.N,P011*%
X139200000Y-66080000D03*
%TO.P,DISP1,2*%
%TO.N,P010*%
X139200000Y-63540000D03*
%TO.P,DISP1,3*%
%TO.N,VCC*%
X139200000Y-61000000D03*
%TO.P,DISP1,4*%
%TO.N,GND*%
X139200000Y-58460000D03*
D12*
%TO.P,DISP1,5*%
%TO.N,P006*%
X139200000Y-55920000D03*
%TD*%
D20*
%TO.N,P006*%
X135290400Y-61359300D03*
%TO.N,P111*%
X134996800Y-146753400D03*
%TO.N,P113*%
X129274100Y-134792800D03*
X99717600Y-137718100D03*
%TO.N,P115*%
X109331100Y-54937600D03*
%TO.N,P002*%
X131501700Y-146289200D03*
%TO.N,P029*%
X122707500Y-137779500D03*
X119811200Y-167674900D03*
%TO.N,P031*%
X112408900Y-85395900D03*
%TO.N,P106*%
X132166400Y-104925800D03*
%TO.N,P104*%
X131451800Y-122401800D03*
%TO.N,P100*%
X148774200Y-120031300D03*
X147983000Y-98952400D03*
X151670500Y-84356100D03*
%TO.N,P024*%
X137189000Y-158686400D03*
X130347000Y-120031300D03*
X130618300Y-101939100D03*
X130618300Y-81617800D03*
%TO.N,P022*%
X114018600Y-143752900D03*
X111122300Y-120031300D03*
X110719400Y-102098700D03*
X114087800Y-84356100D03*
%TO.N,P008*%
X101250000Y-162734200D03*
%TO.N,GND*%
X154566800Y-56747600D03*
X153771800Y-54897600D03*
%TD*%
D21*
%TO.N,BAT_P*%
X149726700Y-68250000D02*
X151340000Y-68250000D01*
X147976700Y-70000000D02*
X149726700Y-68250000D01*
X147075000Y-70000000D02*
X147976700Y-70000000D01*
%TO.N,P011*%
X132200000Y-66080000D02*
X129660000Y-68620000D01*
X139200000Y-66080000D02*
X132200000Y-66080000D01*
%TO.N,P006*%
X114060700Y-61359300D02*
X106800000Y-68620000D01*
X135290400Y-61359300D02*
X114060700Y-61359300D01*
%TO.N,P010*%
X139468500Y-62388300D02*
X139200000Y-62388300D01*
X140401500Y-61455300D02*
X139468500Y-62388300D01*
X140401500Y-55466100D02*
X140401500Y-61455300D01*
X139585400Y-54650000D02*
X140401500Y-55466100D01*
X133470000Y-54650000D02*
X139585400Y-54650000D01*
X132200000Y-53380000D02*
X133470000Y-54650000D01*
X139200000Y-63540000D02*
X139200000Y-62388300D01*
%TO.N,P111*%
X155855100Y-146753400D02*
X159500000Y-150398300D01*
X134996800Y-146753400D02*
X155855100Y-146753400D01*
X159500000Y-151250000D02*
X159500000Y-150398300D01*
%TO.N,P113*%
X114754500Y-137718100D02*
X99717600Y-137718100D01*
X117679800Y-134792800D02*
X114754500Y-137718100D01*
X129274100Y-134792800D02*
X117679800Y-134792800D01*
X99717600Y-137718100D02*
X98955400Y-138480300D01*
X98955400Y-138480300D02*
X99717600Y-137718100D01*
%TO.N,P115*%
X111978600Y-54937600D02*
X109331100Y-54937600D01*
X113150000Y-53766200D02*
X111978600Y-54937600D01*
X113150000Y-53002200D02*
X113150000Y-53766200D01*
X113974400Y-52177800D02*
X113150000Y-53002200D01*
X123377800Y-52177800D02*
X113974400Y-52177800D01*
X124580000Y-53380000D02*
X123377800Y-52177800D01*
%TO.N,VCC*%
X139200000Y-61000000D02*
X138048300Y-61000000D01*
X121395900Y-60355900D02*
X114420000Y-53380000D01*
X137404200Y-60355900D02*
X121395900Y-60355900D01*
X138048300Y-61000000D02*
X137404200Y-60355900D01*
%TO.N,RST*%
X152225000Y-53375000D02*
X152225000Y-52298300D01*
X152225000Y-53375000D02*
X152225000Y-58625000D01*
X113808100Y-51776100D02*
X113572700Y-52011500D01*
X151702800Y-51776100D02*
X113808100Y-51776100D01*
X152225000Y-52298300D02*
X151702800Y-51776100D01*
X113572700Y-52011500D02*
X113407900Y-52176300D01*
X113572700Y-52011500D02*
X113407900Y-52176300D01*
X113083700Y-52176300D02*
X111880000Y-53380000D01*
X113407900Y-52176300D02*
X113083700Y-52176300D01*
%TO.N,RAW*%
X114177600Y-60757600D02*
X106800000Y-53380000D01*
X135616800Y-60757600D02*
X114177600Y-60757600D01*
X136123400Y-61264200D02*
X135616800Y-60757600D01*
X136123400Y-62108600D02*
X136123400Y-61264200D01*
X138706500Y-64691700D02*
X136123400Y-62108600D01*
X148230000Y-64691700D02*
X138706500Y-64691700D01*
X150288300Y-66750000D02*
X148230000Y-64691700D01*
X151340000Y-66750000D02*
X150288300Y-66750000D01*
%TO.N,right_enc-row*%
X154598300Y-137700000D02*
X154500000Y-137601700D01*
X154598300Y-139750000D02*
X154598300Y-137700000D01*
X155350000Y-139750000D02*
X154598300Y-139750000D01*
X154500000Y-136750000D02*
X154500000Y-137601700D01*
%TO.N,left_enc-row*%
X98350000Y-138451700D02*
X98350000Y-139750000D01*
X97500000Y-137601700D02*
X98350000Y-138451700D01*
X97500000Y-136750000D02*
X97500000Y-137601700D01*
%TO.N,P002*%
X130150000Y-153500000D02*
X130901700Y-153500000D01*
X131503400Y-146290900D02*
X131501700Y-146289200D01*
X131503400Y-152898300D02*
X131503400Y-146290900D01*
X130901700Y-153500000D02*
X131503400Y-152898300D01*
%TO.N,P029*%
X130150000Y-172500000D02*
X129398300Y-172500000D01*
X158650000Y-139750000D02*
X157898300Y-139750000D01*
X101650000Y-139750000D02*
X102401700Y-139750000D01*
X131803400Y-173401700D02*
X130901700Y-172500000D01*
X147496600Y-173401700D02*
X131803400Y-173401700D01*
X148398300Y-172500000D02*
X147496600Y-173401700D01*
X149150000Y-172500000D02*
X148398300Y-172500000D01*
X130150000Y-172500000D02*
X130901700Y-172500000D01*
X123609200Y-140651700D02*
X122707500Y-139750000D01*
X156996600Y-140651700D02*
X123609200Y-140651700D01*
X157898300Y-139750000D02*
X156996600Y-140651700D01*
X122707500Y-139750000D02*
X102401700Y-139750000D01*
X122707500Y-137779500D02*
X122707500Y-139750000D01*
X111150000Y-172500000D02*
X111660100Y-172500000D01*
X114986100Y-172500000D02*
X119811200Y-167674900D01*
X111660100Y-172500000D02*
X114986100Y-172500000D01*
X125538000Y-173401700D02*
X119811200Y-167674900D01*
X128496600Y-173401700D02*
X125538000Y-173401700D01*
X129398300Y-172500000D02*
X128496600Y-173401700D01*
%TO.N,P031*%
X101650000Y-87000000D02*
X102401700Y-87000000D01*
X139650000Y-87000000D02*
X138898300Y-87000000D01*
X120650000Y-87000000D02*
X121401700Y-87000000D01*
X141303400Y-87901700D02*
X140401700Y-87000000D01*
X156996600Y-87901700D02*
X141303400Y-87901700D01*
X157898300Y-87000000D02*
X156996600Y-87901700D01*
X158650000Y-87000000D02*
X157898300Y-87000000D01*
X139650000Y-87000000D02*
X140401700Y-87000000D01*
X110804800Y-87000000D02*
X112408900Y-85395900D01*
X102401700Y-87000000D02*
X110804800Y-87000000D01*
X137971900Y-87926400D02*
X121401700Y-87926400D01*
X138898300Y-87000000D02*
X137971900Y-87926400D01*
X121401700Y-87926400D02*
X121401700Y-87000000D01*
X114939400Y-87926400D02*
X112408900Y-85395900D01*
X121401700Y-87926400D02*
X114939400Y-87926400D01*
%TO.N,P106*%
X139650000Y-106000000D02*
X138898300Y-106000000D01*
X120650000Y-106000000D02*
X121401700Y-106000000D01*
X101650000Y-106000000D02*
X102401700Y-106000000D01*
X121401700Y-106901700D02*
X121401700Y-106000000D01*
X103303400Y-106901700D02*
X102401700Y-106000000D01*
X121401700Y-106901700D02*
X103303400Y-106901700D01*
X156989300Y-106909000D02*
X157898300Y-106000000D01*
X141310700Y-106909000D02*
X156989300Y-106909000D01*
X140401700Y-106000000D02*
X141310700Y-106909000D01*
X139650000Y-106000000D02*
X140401700Y-106000000D01*
X158650000Y-106000000D02*
X157898300Y-106000000D01*
X137996600Y-106901700D02*
X132166400Y-106901700D01*
X138898300Y-106000000D02*
X137996600Y-106901700D01*
X132166400Y-106901700D02*
X132166400Y-104925800D01*
X132166400Y-106901700D02*
X121401700Y-106901700D01*
%TO.N,P104*%
X118989300Y-125909000D02*
X119898300Y-125000000D01*
X103310700Y-125909000D02*
X118989300Y-125909000D01*
X102401700Y-125000000D02*
X103310700Y-125909000D01*
X101650000Y-125000000D02*
X102401700Y-125000000D01*
X120274200Y-125000000D02*
X119898300Y-125000000D01*
X139650000Y-125000000D02*
X138898300Y-125000000D01*
X141310700Y-125909000D02*
X140401700Y-125000000D01*
X156989300Y-125909000D02*
X141310700Y-125909000D01*
X157898300Y-125000000D02*
X156989300Y-125909000D01*
X158650000Y-125000000D02*
X157898300Y-125000000D01*
X139650000Y-125000000D02*
X140401700Y-125000000D01*
X137971800Y-125926500D02*
X138898300Y-125000000D01*
X132378300Y-125926500D02*
X137971800Y-125926500D01*
X131451800Y-125000000D02*
X132378300Y-125926500D01*
X131451800Y-125000000D02*
X131451800Y-122401800D01*
X120274200Y-125000000D02*
X120650000Y-125000000D01*
X120650000Y-125000000D02*
X131451800Y-125000000D01*
%TO.N,right_bottom*%
X150731600Y-168370100D02*
X146601700Y-172500000D01*
X150731600Y-166582100D02*
X150731600Y-168370100D01*
X153342000Y-163971700D02*
X150731600Y-166582100D01*
X153342000Y-162420000D02*
X153342000Y-163971700D01*
X145850000Y-172500000D02*
X146601700Y-172500000D01*
%TO.N,middle_top*%
X133734100Y-145579600D02*
X134342000Y-144971700D01*
X131327200Y-145579600D02*
X133734100Y-145579600D01*
X130849400Y-146057400D02*
X131327200Y-145579600D01*
X130849400Y-146499800D02*
X130849400Y-146057400D01*
X131101700Y-146752100D02*
X130849400Y-146499800D01*
X131101700Y-150000000D02*
X131101700Y-146752100D01*
X127601700Y-153500000D02*
X131101700Y-150000000D01*
X126850000Y-153500000D02*
X127601700Y-153500000D01*
X134342000Y-143420000D02*
X134342000Y-144971700D01*
%TO.N,middle_bottom*%
X131731600Y-168370100D02*
X127601700Y-172500000D01*
X131731600Y-166582100D02*
X131731600Y-168370100D01*
X134342000Y-163971700D02*
X131731600Y-166582100D01*
X134342000Y-162420000D02*
X134342000Y-163971700D01*
X126850000Y-172500000D02*
X127601700Y-172500000D01*
%TO.N,left_bottom*%
X112448500Y-166865200D02*
X115342000Y-163971700D01*
X112448500Y-168653200D02*
X112448500Y-166865200D01*
X108601700Y-172500000D02*
X112448500Y-168653200D01*
X107850000Y-172500000D02*
X108601700Y-172500000D01*
X115342000Y-162420000D02*
X115342000Y-163971700D01*
%TO.N,right-outer_top*%
X159948500Y-81365200D02*
X162842000Y-78471700D01*
X159948500Y-83153200D02*
X159948500Y-81365200D01*
X156101700Y-87000000D02*
X159948500Y-83153200D01*
X155350000Y-87000000D02*
X156101700Y-87000000D01*
X162842000Y-76920000D02*
X162842000Y-78471700D01*
%TO.N,right-outer_middle*%
X160231600Y-101870100D02*
X156101700Y-106000000D01*
X160231600Y-100082100D02*
X160231600Y-101870100D01*
X162842000Y-97471700D02*
X160231600Y-100082100D01*
X162842000Y-95920000D02*
X162842000Y-97471700D01*
X155350000Y-106000000D02*
X156101700Y-106000000D01*
%TO.N,right-outer_bottom*%
X159948500Y-119365200D02*
X162842000Y-116471700D01*
X159948500Y-121153200D02*
X159948500Y-119365200D01*
X156101700Y-125000000D02*
X159948500Y-121153200D01*
X155350000Y-125000000D02*
X156101700Y-125000000D01*
X162842000Y-114920000D02*
X162842000Y-116471700D01*
%TO.N,P100*%
X145978600Y-73971900D02*
X149915000Y-77908300D01*
X132471900Y-73971900D02*
X145978600Y-73971900D01*
X127120000Y-68620000D02*
X132471900Y-73971900D01*
X149793800Y-119011700D02*
X149915000Y-119011700D01*
X148774200Y-120031300D02*
X149793800Y-119011700D01*
X149915000Y-117460000D02*
X149915000Y-119011700D01*
X149915000Y-78684100D02*
X149915000Y-77908300D01*
X148338300Y-98597100D02*
X148338300Y-98460000D01*
X147983000Y-98952400D02*
X148338300Y-98597100D01*
X149915000Y-98460000D02*
X148338300Y-98460000D01*
X149915000Y-78684100D02*
X149915000Y-79460000D01*
X149915000Y-82600600D02*
X151670500Y-84356100D01*
X149915000Y-79460000D02*
X149915000Y-82600600D01*
%TO.N,right-inner_top*%
X140948500Y-81365200D02*
X143842000Y-78471700D01*
X140948500Y-83153200D02*
X140948500Y-81365200D01*
X137101700Y-87000000D02*
X140948500Y-83153200D01*
X136350000Y-87000000D02*
X137101700Y-87000000D01*
X143842000Y-76920000D02*
X143842000Y-78471700D01*
%TO.N,right-inner_middle*%
X141231600Y-101870100D02*
X137101700Y-106000000D01*
X141231600Y-100082100D02*
X141231600Y-101870100D01*
X143842000Y-97471700D02*
X141231600Y-100082100D01*
X143842000Y-95920000D02*
X143842000Y-97471700D01*
X136350000Y-106000000D02*
X137101700Y-106000000D01*
%TO.N,right-inner_bottom*%
X140948500Y-119365200D02*
X143842000Y-116471700D01*
X140948500Y-121153200D02*
X140948500Y-119365200D01*
X137101700Y-125000000D02*
X140948500Y-121153200D01*
X136350000Y-125000000D02*
X137101700Y-125000000D01*
X143842000Y-114920000D02*
X143842000Y-116471700D01*
%TO.N,P024*%
X124580000Y-71573300D02*
X124580000Y-68620000D01*
X130915000Y-77908300D02*
X124580000Y-71573300D01*
X137189000Y-160182300D02*
X137189000Y-158686400D01*
X140415000Y-163408300D02*
X137189000Y-160182300D01*
X130915000Y-119463300D02*
X130915000Y-117460000D01*
X130347000Y-120031300D02*
X130915000Y-119463300D01*
X140415000Y-164960000D02*
X140415000Y-163408300D01*
X130618300Y-100308400D02*
X130618300Y-101939100D01*
X130915000Y-100011700D02*
X130618300Y-100308400D01*
X130915000Y-98460000D02*
X130915000Y-100011700D01*
X130618300Y-78980800D02*
X130618300Y-81617800D01*
X130915000Y-78684100D02*
X130618300Y-78980800D01*
X130915000Y-79460000D02*
X130915000Y-78684100D01*
X130915000Y-78684100D02*
X130915000Y-77908300D01*
%TO.N,left-inner_top*%
X121948500Y-81365200D02*
X124842000Y-78471700D01*
X121948500Y-83153200D02*
X121948500Y-81365200D01*
X118101700Y-87000000D02*
X121948500Y-83153200D01*
X117350000Y-87000000D02*
X118101700Y-87000000D01*
X124842000Y-76920000D02*
X124842000Y-78471700D01*
%TO.N,left-inner_middle*%
X124842000Y-95920000D02*
X124842000Y-97471700D01*
X122291100Y-100022600D02*
X124842000Y-97471700D01*
X122291100Y-101810600D02*
X122291100Y-100022600D01*
X118101700Y-106000000D02*
X122291100Y-101810600D01*
X117350000Y-106000000D02*
X118101700Y-106000000D01*
%TO.N,left-inner_bottom*%
X121948500Y-119365200D02*
X124842000Y-116471700D01*
X121948500Y-121153200D02*
X121948500Y-119365200D01*
X118101700Y-125000000D02*
X121948500Y-121153200D01*
X117350000Y-125000000D02*
X118101700Y-125000000D01*
X124842000Y-114920000D02*
X124842000Y-116471700D01*
%TO.N,P022*%
X112751700Y-77908300D02*
X122040000Y-68620000D01*
X111915000Y-77908300D02*
X112751700Y-77908300D01*
X111915000Y-78684100D02*
X111915000Y-77908300D01*
X121415000Y-145960000D02*
X121415000Y-164960000D01*
X111915000Y-119238600D02*
X111915000Y-117460000D01*
X111122300Y-120031300D02*
X111915000Y-119238600D01*
X116225700Y-145960000D02*
X114018600Y-143752900D01*
X121415000Y-145960000D02*
X116225700Y-145960000D01*
X110719400Y-101207300D02*
X110719400Y-102098700D01*
X111915000Y-100011700D02*
X110719400Y-101207300D01*
X111915000Y-98460000D02*
X111915000Y-100011700D01*
X111915000Y-78684100D02*
X111915000Y-79460000D01*
X111915000Y-82183300D02*
X114087800Y-84356100D01*
X111915000Y-79460000D02*
X111915000Y-82183300D01*
%TO.N,left-outer_top*%
X103317900Y-82783800D02*
X99101700Y-87000000D01*
X103317900Y-80995800D02*
X103317900Y-82783800D01*
X105842000Y-78471700D02*
X103317900Y-80995800D01*
X105842000Y-76920000D02*
X105842000Y-78471700D01*
X98350000Y-87000000D02*
X99101700Y-87000000D01*
%TO.N,left-outer_middle*%
X103231600Y-101870100D02*
X99101700Y-106000000D01*
X103231600Y-100082100D02*
X103231600Y-101870100D01*
X105842000Y-97471700D02*
X103231600Y-100082100D01*
X105842000Y-95920000D02*
X105842000Y-97471700D01*
X98350000Y-106000000D02*
X99101700Y-106000000D01*
%TO.N,left-outer_bottom*%
X103245800Y-120855900D02*
X99101700Y-125000000D01*
X103245800Y-119067900D02*
X103245800Y-120855900D01*
X105842000Y-116471700D02*
X103245800Y-119067900D01*
X105842000Y-114920000D02*
X105842000Y-116471700D01*
X98350000Y-125000000D02*
X99101700Y-125000000D01*
%TO.N,P008*%
X100838300Y-163145900D02*
X100838300Y-164960000D01*
X101250000Y-162734200D02*
X100838300Y-163145900D01*
X102415000Y-164960000D02*
X100838300Y-164960000D01*
X103696400Y-74263600D02*
X109340000Y-68620000D01*
X96559700Y-74263600D02*
X103696400Y-74263600D01*
X92915000Y-77908300D02*
X96559700Y-74263600D01*
X92915000Y-79460000D02*
X92915000Y-77908300D01*
X92915000Y-98460000D02*
X92915000Y-79460000D01*
X92915000Y-126313300D02*
X92915000Y-117460000D01*
X102500000Y-135898300D02*
X92915000Y-126313300D01*
X102500000Y-136750000D02*
X102500000Y-135898300D01*
X92915000Y-117460000D02*
X92915000Y-98460000D01*
%TO.N,GND*%
X153925000Y-57389400D02*
X153925000Y-58625000D01*
X154566800Y-56747600D02*
X153925000Y-57389400D01*
X153925000Y-54744400D02*
X153925000Y-53375000D01*
X153771800Y-54897600D02*
X153925000Y-54744400D01*
%TD*%
M02*
