M48
; DRILL file {KiCad 9.0.8-1.fc43} date 2026-04-15T19:42:07-0700
; FORMAT={-:-/ absolute / metric / decimal}
; #@! TF.CreationDate,2026-04-15T19:42:07-07:00
; #@! TF.GenerationSoftware,Kicad,Pcbnew,9.0.8-1.fc43
; #@! TF.FileFunction,NonPlated,1,2,NPTH
FMAT,2
METRIC
; #@! TA.AperFunction,NonPlated,NPTH,ComponentDrill
T1C0.900
; #@! TA.AperFunction,NonPlated,NPTH,ComponentDrill
T2C1.500
; #@! TA.AperFunction,NonPlated,NPTH,ComponentDrill
T3C1.900
; #@! TA.AperFunction,NonPlated,NPTH,ComponentDrill
T4C2.200
; #@! TA.AperFunction,NonPlated,NPTH,ComponentDrill
T5C3.000
; #@! TA.AperFunction,NonPlated,NPTH,ComponentDrill
T6C4.100
%
G90
G05
T1
X153.1Y-64.5
X153.1Y-67.5
T3
X94.92Y-82.0
X94.92Y-101.0
X94.92Y-120.0
X104.42Y-167.5
X105.08Y-82.0
X105.08Y-101.0
X105.08Y-120.0
X113.92Y-82.0
X113.92Y-101.0
X113.92Y-120.0
X114.58Y-167.5
X123.42Y-148.5
X123.42Y-167.5
X124.08Y-82.0
X124.08Y-101.0
X124.08Y-120.0
X132.92Y-82.0
X132.92Y-101.0
X132.92Y-120.0
X133.58Y-148.5
X133.58Y-167.5
X142.42Y-167.5
X143.08Y-82.0
X143.08Y-101.0
X143.08Y-120.0
X151.92Y-82.0
X151.92Y-101.0
X151.92Y-120.0
X152.58Y-167.5
X162.08Y-82.0
X162.08Y-101.0
X162.08Y-120.0
T4
X109.5Y-91.5
X109.5Y-153.25
X147.5Y-91.5
X147.5Y-153.25
T5
X96.19Y-79.46
X96.19Y-98.46
X96.19Y-117.46
X102.54Y-76.92
X102.54Y-95.92
X102.54Y-114.92
X105.69Y-164.96
X112.04Y-162.42
X115.19Y-79.46
X115.19Y-98.46
X115.19Y-117.46
X121.54Y-76.92
X121.54Y-95.92
X121.54Y-114.92
X124.69Y-145.96
X124.69Y-164.96
X131.04Y-143.42
X131.04Y-162.42
X134.19Y-79.46
X134.19Y-98.46
X134.19Y-117.46
X140.54Y-76.92
X140.54Y-95.92
X140.54Y-114.92
X143.69Y-164.96
X150.04Y-162.42
X153.19Y-79.46
X153.19Y-98.46
X153.19Y-117.46
X159.54Y-76.92
X159.54Y-95.92
X159.54Y-114.92
T6
X100.0Y-82.0
X100.0Y-101.0
X100.0Y-120.0
X109.5Y-167.5
X119.0Y-82.0
X119.0Y-101.0
X119.0Y-120.0
X128.5Y-148.5
X128.5Y-167.5
X138.0Y-82.0
X138.0Y-101.0
X138.0Y-120.0
X147.5Y-167.5
X157.0Y-82.0
X157.0Y-101.0
X157.0Y-120.0
T2
G00X94.4Y-143.35
M15
G01X94.4Y-144.15
M16
G05
G00X105.6Y-143.35
M15
G01X105.6Y-144.15
M16
G05
G00X151.4Y-143.35
M15
G01X151.4Y-144.15
M16
G05
G00X162.6Y-143.35
M15
G01X162.6Y-144.15
M16
G05
M30
