%TF.GenerationSoftware,KiCad,Pcbnew,9.0.8-1.fc43*%
%TF.CreationDate,2026-04-13T17:42:09-07:00*%
%TF.ProjectId,pekepadv,70656b65-7061-4647-962e-6b696361645f,0.0.1*%
%TF.SameCoordinates,Original*%
%TF.FileFunction,Legend,Top*%
%TF.FilePolarity,Positive*%
%FSLAX46Y46*%
G04 Gerber Fmt 4.6, Leading zero omitted, Abs format (unit mm)*
G04 Created by KiCad (PCBNEW 9.0.8-1.fc43) date 2026-04-13 17:42:09*
%MOMM*%
%LPD*%
G01*
G04 APERTURE LIST*
%ADD10C,0.150000*%
%ADD11C,0.120000*%
G04 APERTURE END LIST*
D10*
X132654819Y-67160475D02*
X131654819Y-67160475D01*
X131654819Y-67160475D02*
X131654819Y-66779523D01*
X131654819Y-66779523D02*
X131702438Y-66684285D01*
X131702438Y-66684285D02*
X131750057Y-66636666D01*
X131750057Y-66636666D02*
X131845295Y-66589047D01*
X131845295Y-66589047D02*
X131988152Y-66589047D01*
X131988152Y-66589047D02*
X132083390Y-66636666D01*
X132083390Y-66636666D02*
X132131009Y-66684285D01*
X132131009Y-66684285D02*
X132178628Y-66779523D01*
X132178628Y-66779523D02*
X132178628Y-67160475D01*
X132654819Y-65636666D02*
X132654819Y-66208094D01*
X132654819Y-65922380D02*
X131654819Y-65922380D01*
X131654819Y-65922380D02*
X131797676Y-66017618D01*
X131797676Y-66017618D02*
X131892914Y-66112856D01*
X131892914Y-66112856D02*
X131940533Y-66208094D01*
X131654819Y-65017618D02*
X131654819Y-64922380D01*
X131654819Y-64922380D02*
X131702438Y-64827142D01*
X131702438Y-64827142D02*
X131750057Y-64779523D01*
X131750057Y-64779523D02*
X131845295Y-64731904D01*
X131845295Y-64731904D02*
X132035771Y-64684285D01*
X132035771Y-64684285D02*
X132273866Y-64684285D01*
X132273866Y-64684285D02*
X132464342Y-64731904D01*
X132464342Y-64731904D02*
X132559580Y-64779523D01*
X132559580Y-64779523D02*
X132607200Y-64827142D01*
X132607200Y-64827142D02*
X132654819Y-64922380D01*
X132654819Y-64922380D02*
X132654819Y-65017618D01*
X132654819Y-65017618D02*
X132607200Y-65112856D01*
X132607200Y-65112856D02*
X132559580Y-65160475D01*
X132559580Y-65160475D02*
X132464342Y-65208094D01*
X132464342Y-65208094D02*
X132273866Y-65255713D01*
X132273866Y-65255713D02*
X132035771Y-65255713D01*
X132035771Y-65255713D02*
X131845295Y-65208094D01*
X131845295Y-65208094D02*
X131750057Y-65160475D01*
X131750057Y-65160475D02*
X131702438Y-65112856D01*
X131702438Y-65112856D02*
X131654819Y-65017618D01*
X131988152Y-63827142D02*
X132654819Y-63827142D01*
X131607200Y-64065237D02*
X132321485Y-64303332D01*
X132321485Y-64303332D02*
X132321485Y-63684285D01*
X132654819Y-58220475D02*
X131654819Y-58220475D01*
X131654819Y-58220475D02*
X131654819Y-57839523D01*
X131654819Y-57839523D02*
X131702438Y-57744285D01*
X131702438Y-57744285D02*
X131750057Y-57696666D01*
X131750057Y-57696666D02*
X131845295Y-57649047D01*
X131845295Y-57649047D02*
X131988152Y-57649047D01*
X131988152Y-57649047D02*
X132083390Y-57696666D01*
X132083390Y-57696666D02*
X132131009Y-57744285D01*
X132131009Y-57744285D02*
X132178628Y-57839523D01*
X132178628Y-57839523D02*
X132178628Y-58220475D01*
X131654819Y-57029999D02*
X131654819Y-56934761D01*
X131654819Y-56934761D02*
X131702438Y-56839523D01*
X131702438Y-56839523D02*
X131750057Y-56791904D01*
X131750057Y-56791904D02*
X131845295Y-56744285D01*
X131845295Y-56744285D02*
X132035771Y-56696666D01*
X132035771Y-56696666D02*
X132273866Y-56696666D01*
X132273866Y-56696666D02*
X132464342Y-56744285D01*
X132464342Y-56744285D02*
X132559580Y-56791904D01*
X132559580Y-56791904D02*
X132607200Y-56839523D01*
X132607200Y-56839523D02*
X132654819Y-56934761D01*
X132654819Y-56934761D02*
X132654819Y-57029999D01*
X132654819Y-57029999D02*
X132607200Y-57125237D01*
X132607200Y-57125237D02*
X132559580Y-57172856D01*
X132559580Y-57172856D02*
X132464342Y-57220475D01*
X132464342Y-57220475D02*
X132273866Y-57268094D01*
X132273866Y-57268094D02*
X132035771Y-57268094D01*
X132035771Y-57268094D02*
X131845295Y-57220475D01*
X131845295Y-57220475D02*
X131750057Y-57172856D01*
X131750057Y-57172856D02*
X131702438Y-57125237D01*
X131702438Y-57125237D02*
X131654819Y-57029999D01*
X132654819Y-55744285D02*
X132654819Y-56315713D01*
X132654819Y-56029999D02*
X131654819Y-56029999D01*
X131654819Y-56029999D02*
X131797676Y-56125237D01*
X131797676Y-56125237D02*
X131892914Y-56220475D01*
X131892914Y-56220475D02*
X131940533Y-56315713D01*
X131654819Y-55125237D02*
X131654819Y-55029999D01*
X131654819Y-55029999D02*
X131702438Y-54934761D01*
X131702438Y-54934761D02*
X131750057Y-54887142D01*
X131750057Y-54887142D02*
X131845295Y-54839523D01*
X131845295Y-54839523D02*
X132035771Y-54791904D01*
X132035771Y-54791904D02*
X132273866Y-54791904D01*
X132273866Y-54791904D02*
X132464342Y-54839523D01*
X132464342Y-54839523D02*
X132559580Y-54887142D01*
X132559580Y-54887142D02*
X132607200Y-54934761D01*
X132607200Y-54934761D02*
X132654819Y-55029999D01*
X132654819Y-55029999D02*
X132654819Y-55125237D01*
X132654819Y-55125237D02*
X132607200Y-55220475D01*
X132607200Y-55220475D02*
X132559580Y-55268094D01*
X132559580Y-55268094D02*
X132464342Y-55315713D01*
X132464342Y-55315713D02*
X132273866Y-55363332D01*
X132273866Y-55363332D02*
X132035771Y-55363332D01*
X132035771Y-55363332D02*
X131845295Y-55315713D01*
X131845295Y-55315713D02*
X131750057Y-55268094D01*
X131750057Y-55268094D02*
X131702438Y-55220475D01*
X131702438Y-55220475D02*
X131654819Y-55125237D01*
X109794819Y-67160475D02*
X108794819Y-67160475D01*
X108794819Y-67160475D02*
X108794819Y-66779523D01*
X108794819Y-66779523D02*
X108842438Y-66684285D01*
X108842438Y-66684285D02*
X108890057Y-66636666D01*
X108890057Y-66636666D02*
X108985295Y-66589047D01*
X108985295Y-66589047D02*
X109128152Y-66589047D01*
X109128152Y-66589047D02*
X109223390Y-66636666D01*
X109223390Y-66636666D02*
X109271009Y-66684285D01*
X109271009Y-66684285D02*
X109318628Y-66779523D01*
X109318628Y-66779523D02*
X109318628Y-67160475D01*
X108794819Y-65969999D02*
X108794819Y-65874761D01*
X108794819Y-65874761D02*
X108842438Y-65779523D01*
X108842438Y-65779523D02*
X108890057Y-65731904D01*
X108890057Y-65731904D02*
X108985295Y-65684285D01*
X108985295Y-65684285D02*
X109175771Y-65636666D01*
X109175771Y-65636666D02*
X109413866Y-65636666D01*
X109413866Y-65636666D02*
X109604342Y-65684285D01*
X109604342Y-65684285D02*
X109699580Y-65731904D01*
X109699580Y-65731904D02*
X109747200Y-65779523D01*
X109747200Y-65779523D02*
X109794819Y-65874761D01*
X109794819Y-65874761D02*
X109794819Y-65969999D01*
X109794819Y-65969999D02*
X109747200Y-66065237D01*
X109747200Y-66065237D02*
X109699580Y-66112856D01*
X109699580Y-66112856D02*
X109604342Y-66160475D01*
X109604342Y-66160475D02*
X109413866Y-66208094D01*
X109413866Y-66208094D02*
X109175771Y-66208094D01*
X109175771Y-66208094D02*
X108985295Y-66160475D01*
X108985295Y-66160475D02*
X108890057Y-66112856D01*
X108890057Y-66112856D02*
X108842438Y-66065237D01*
X108842438Y-66065237D02*
X108794819Y-65969999D01*
X108794819Y-65017618D02*
X108794819Y-64922380D01*
X108794819Y-64922380D02*
X108842438Y-64827142D01*
X108842438Y-64827142D02*
X108890057Y-64779523D01*
X108890057Y-64779523D02*
X108985295Y-64731904D01*
X108985295Y-64731904D02*
X109175771Y-64684285D01*
X109175771Y-64684285D02*
X109413866Y-64684285D01*
X109413866Y-64684285D02*
X109604342Y-64731904D01*
X109604342Y-64731904D02*
X109699580Y-64779523D01*
X109699580Y-64779523D02*
X109747200Y-64827142D01*
X109747200Y-64827142D02*
X109794819Y-64922380D01*
X109794819Y-64922380D02*
X109794819Y-65017618D01*
X109794819Y-65017618D02*
X109747200Y-65112856D01*
X109747200Y-65112856D02*
X109699580Y-65160475D01*
X109699580Y-65160475D02*
X109604342Y-65208094D01*
X109604342Y-65208094D02*
X109413866Y-65255713D01*
X109413866Y-65255713D02*
X109175771Y-65255713D01*
X109175771Y-65255713D02*
X108985295Y-65208094D01*
X108985295Y-65208094D02*
X108890057Y-65160475D01*
X108890057Y-65160475D02*
X108842438Y-65112856D01*
X108842438Y-65112856D02*
X108794819Y-65017618D01*
X109223390Y-64112856D02*
X109175771Y-64208094D01*
X109175771Y-64208094D02*
X109128152Y-64255713D01*
X109128152Y-64255713D02*
X109032914Y-64303332D01*
X109032914Y-64303332D02*
X108985295Y-64303332D01*
X108985295Y-64303332D02*
X108890057Y-64255713D01*
X108890057Y-64255713D02*
X108842438Y-64208094D01*
X108842438Y-64208094D02*
X108794819Y-64112856D01*
X108794819Y-64112856D02*
X108794819Y-63922380D01*
X108794819Y-63922380D02*
X108842438Y-63827142D01*
X108842438Y-63827142D02*
X108890057Y-63779523D01*
X108890057Y-63779523D02*
X108985295Y-63731904D01*
X108985295Y-63731904D02*
X109032914Y-63731904D01*
X109032914Y-63731904D02*
X109128152Y-63779523D01*
X109128152Y-63779523D02*
X109175771Y-63827142D01*
X109175771Y-63827142D02*
X109223390Y-63922380D01*
X109223390Y-63922380D02*
X109223390Y-64112856D01*
X109223390Y-64112856D02*
X109271009Y-64208094D01*
X109271009Y-64208094D02*
X109318628Y-64255713D01*
X109318628Y-64255713D02*
X109413866Y-64303332D01*
X109413866Y-64303332D02*
X109604342Y-64303332D01*
X109604342Y-64303332D02*
X109699580Y-64255713D01*
X109699580Y-64255713D02*
X109747200Y-64208094D01*
X109747200Y-64208094D02*
X109794819Y-64112856D01*
X109794819Y-64112856D02*
X109794819Y-63922380D01*
X109794819Y-63922380D02*
X109747200Y-63827142D01*
X109747200Y-63827142D02*
X109699580Y-63779523D01*
X109699580Y-63779523D02*
X109604342Y-63731904D01*
X109604342Y-63731904D02*
X109413866Y-63731904D01*
X109413866Y-63731904D02*
X109318628Y-63779523D01*
X109318628Y-63779523D02*
X109271009Y-63827142D01*
X109271009Y-63827142D02*
X109223390Y-63922380D01*
X117414819Y-58220475D02*
X116414819Y-58220475D01*
X116414819Y-58220475D02*
X116414819Y-57839523D01*
X116414819Y-57839523D02*
X116462438Y-57744285D01*
X116462438Y-57744285D02*
X116510057Y-57696666D01*
X116510057Y-57696666D02*
X116605295Y-57649047D01*
X116605295Y-57649047D02*
X116748152Y-57649047D01*
X116748152Y-57649047D02*
X116843390Y-57696666D01*
X116843390Y-57696666D02*
X116891009Y-57744285D01*
X116891009Y-57744285D02*
X116938628Y-57839523D01*
X116938628Y-57839523D02*
X116938628Y-58220475D01*
X116414819Y-57029999D02*
X116414819Y-56934761D01*
X116414819Y-56934761D02*
X116462438Y-56839523D01*
X116462438Y-56839523D02*
X116510057Y-56791904D01*
X116510057Y-56791904D02*
X116605295Y-56744285D01*
X116605295Y-56744285D02*
X116795771Y-56696666D01*
X116795771Y-56696666D02*
X117033866Y-56696666D01*
X117033866Y-56696666D02*
X117224342Y-56744285D01*
X117224342Y-56744285D02*
X117319580Y-56791904D01*
X117319580Y-56791904D02*
X117367200Y-56839523D01*
X117367200Y-56839523D02*
X117414819Y-56934761D01*
X117414819Y-56934761D02*
X117414819Y-57029999D01*
X117414819Y-57029999D02*
X117367200Y-57125237D01*
X117367200Y-57125237D02*
X117319580Y-57172856D01*
X117319580Y-57172856D02*
X117224342Y-57220475D01*
X117224342Y-57220475D02*
X117033866Y-57268094D01*
X117033866Y-57268094D02*
X116795771Y-57268094D01*
X116795771Y-57268094D02*
X116605295Y-57220475D01*
X116605295Y-57220475D02*
X116510057Y-57172856D01*
X116510057Y-57172856D02*
X116462438Y-57125237D01*
X116462438Y-57125237D02*
X116414819Y-57029999D01*
X116414819Y-56363332D02*
X116414819Y-55744285D01*
X116414819Y-55744285D02*
X116795771Y-56077618D01*
X116795771Y-56077618D02*
X116795771Y-55934761D01*
X116795771Y-55934761D02*
X116843390Y-55839523D01*
X116843390Y-55839523D02*
X116891009Y-55791904D01*
X116891009Y-55791904D02*
X116986247Y-55744285D01*
X116986247Y-55744285D02*
X117224342Y-55744285D01*
X117224342Y-55744285D02*
X117319580Y-55791904D01*
X117319580Y-55791904D02*
X117367200Y-55839523D01*
X117367200Y-55839523D02*
X117414819Y-55934761D01*
X117414819Y-55934761D02*
X117414819Y-56220475D01*
X117414819Y-56220475D02*
X117367200Y-56315713D01*
X117367200Y-56315713D02*
X117319580Y-56363332D01*
X117414819Y-54791904D02*
X117414819Y-55363332D01*
X117414819Y-55077618D02*
X116414819Y-55077618D01*
X116414819Y-55077618D02*
X116557676Y-55172856D01*
X116557676Y-55172856D02*
X116652914Y-55268094D01*
X116652914Y-55268094D02*
X116700533Y-55363332D01*
X127574819Y-67160475D02*
X126574819Y-67160475D01*
X126574819Y-67160475D02*
X126574819Y-66779523D01*
X126574819Y-66779523D02*
X126622438Y-66684285D01*
X126622438Y-66684285D02*
X126670057Y-66636666D01*
X126670057Y-66636666D02*
X126765295Y-66589047D01*
X126765295Y-66589047D02*
X126908152Y-66589047D01*
X126908152Y-66589047D02*
X127003390Y-66636666D01*
X127003390Y-66636666D02*
X127051009Y-66684285D01*
X127051009Y-66684285D02*
X127098628Y-66779523D01*
X127098628Y-66779523D02*
X127098628Y-67160475D01*
X127574819Y-65636666D02*
X127574819Y-66208094D01*
X127574819Y-65922380D02*
X126574819Y-65922380D01*
X126574819Y-65922380D02*
X126717676Y-66017618D01*
X126717676Y-66017618D02*
X126812914Y-66112856D01*
X126812914Y-66112856D02*
X126860533Y-66208094D01*
X126574819Y-65017618D02*
X126574819Y-64922380D01*
X126574819Y-64922380D02*
X126622438Y-64827142D01*
X126622438Y-64827142D02*
X126670057Y-64779523D01*
X126670057Y-64779523D02*
X126765295Y-64731904D01*
X126765295Y-64731904D02*
X126955771Y-64684285D01*
X126955771Y-64684285D02*
X127193866Y-64684285D01*
X127193866Y-64684285D02*
X127384342Y-64731904D01*
X127384342Y-64731904D02*
X127479580Y-64779523D01*
X127479580Y-64779523D02*
X127527200Y-64827142D01*
X127527200Y-64827142D02*
X127574819Y-64922380D01*
X127574819Y-64922380D02*
X127574819Y-65017618D01*
X127574819Y-65017618D02*
X127527200Y-65112856D01*
X127527200Y-65112856D02*
X127479580Y-65160475D01*
X127479580Y-65160475D02*
X127384342Y-65208094D01*
X127384342Y-65208094D02*
X127193866Y-65255713D01*
X127193866Y-65255713D02*
X126955771Y-65255713D01*
X126955771Y-65255713D02*
X126765295Y-65208094D01*
X126765295Y-65208094D02*
X126670057Y-65160475D01*
X126670057Y-65160475D02*
X126622438Y-65112856D01*
X126622438Y-65112856D02*
X126574819Y-65017618D01*
X126574819Y-64065237D02*
X126574819Y-63969999D01*
X126574819Y-63969999D02*
X126622438Y-63874761D01*
X126622438Y-63874761D02*
X126670057Y-63827142D01*
X126670057Y-63827142D02*
X126765295Y-63779523D01*
X126765295Y-63779523D02*
X126955771Y-63731904D01*
X126955771Y-63731904D02*
X127193866Y-63731904D01*
X127193866Y-63731904D02*
X127384342Y-63779523D01*
X127384342Y-63779523D02*
X127479580Y-63827142D01*
X127479580Y-63827142D02*
X127527200Y-63874761D01*
X127527200Y-63874761D02*
X127574819Y-63969999D01*
X127574819Y-63969999D02*
X127574819Y-64065237D01*
X127574819Y-64065237D02*
X127527200Y-64160475D01*
X127527200Y-64160475D02*
X127479580Y-64208094D01*
X127479580Y-64208094D02*
X127384342Y-64255713D01*
X127384342Y-64255713D02*
X127193866Y-64303332D01*
X127193866Y-64303332D02*
X126955771Y-64303332D01*
X126955771Y-64303332D02*
X126765295Y-64255713D01*
X126765295Y-64255713D02*
X126670057Y-64208094D01*
X126670057Y-64208094D02*
X126622438Y-64160475D01*
X126622438Y-64160475D02*
X126574819Y-64065237D01*
X108842438Y-57291904D02*
X108794819Y-57387142D01*
X108794819Y-57387142D02*
X108794819Y-57529999D01*
X108794819Y-57529999D02*
X108842438Y-57672856D01*
X108842438Y-57672856D02*
X108937676Y-57768094D01*
X108937676Y-57768094D02*
X109032914Y-57815713D01*
X109032914Y-57815713D02*
X109223390Y-57863332D01*
X109223390Y-57863332D02*
X109366247Y-57863332D01*
X109366247Y-57863332D02*
X109556723Y-57815713D01*
X109556723Y-57815713D02*
X109651961Y-57768094D01*
X109651961Y-57768094D02*
X109747200Y-57672856D01*
X109747200Y-57672856D02*
X109794819Y-57529999D01*
X109794819Y-57529999D02*
X109794819Y-57434761D01*
X109794819Y-57434761D02*
X109747200Y-57291904D01*
X109747200Y-57291904D02*
X109699580Y-57244285D01*
X109699580Y-57244285D02*
X109366247Y-57244285D01*
X109366247Y-57244285D02*
X109366247Y-57434761D01*
X109794819Y-56815713D02*
X108794819Y-56815713D01*
X108794819Y-56815713D02*
X109794819Y-56244285D01*
X109794819Y-56244285D02*
X108794819Y-56244285D01*
X109794819Y-55768094D02*
X108794819Y-55768094D01*
X108794819Y-55768094D02*
X108794819Y-55529999D01*
X108794819Y-55529999D02*
X108842438Y-55387142D01*
X108842438Y-55387142D02*
X108937676Y-55291904D01*
X108937676Y-55291904D02*
X109032914Y-55244285D01*
X109032914Y-55244285D02*
X109223390Y-55196666D01*
X109223390Y-55196666D02*
X109366247Y-55196666D01*
X109366247Y-55196666D02*
X109556723Y-55244285D01*
X109556723Y-55244285D02*
X109651961Y-55291904D01*
X109651961Y-55291904D02*
X109747200Y-55387142D01*
X109747200Y-55387142D02*
X109794819Y-55529999D01*
X109794819Y-55529999D02*
X109794819Y-55768094D01*
X130114819Y-58220475D02*
X129114819Y-58220475D01*
X129114819Y-58220475D02*
X129114819Y-57839523D01*
X129114819Y-57839523D02*
X129162438Y-57744285D01*
X129162438Y-57744285D02*
X129210057Y-57696666D01*
X129210057Y-57696666D02*
X129305295Y-57649047D01*
X129305295Y-57649047D02*
X129448152Y-57649047D01*
X129448152Y-57649047D02*
X129543390Y-57696666D01*
X129543390Y-57696666D02*
X129591009Y-57744285D01*
X129591009Y-57744285D02*
X129638628Y-57839523D01*
X129638628Y-57839523D02*
X129638628Y-58220475D01*
X130114819Y-56696666D02*
X130114819Y-57268094D01*
X130114819Y-56982380D02*
X129114819Y-56982380D01*
X129114819Y-56982380D02*
X129257676Y-57077618D01*
X129257676Y-57077618D02*
X129352914Y-57172856D01*
X129352914Y-57172856D02*
X129400533Y-57268094D01*
X130114819Y-55744285D02*
X130114819Y-56315713D01*
X130114819Y-56029999D02*
X129114819Y-56029999D01*
X129114819Y-56029999D02*
X129257676Y-56125237D01*
X129257676Y-56125237D02*
X129352914Y-56220475D01*
X129352914Y-56220475D02*
X129400533Y-56315713D01*
X130114819Y-54791904D02*
X130114819Y-55363332D01*
X130114819Y-55077618D02*
X129114819Y-55077618D01*
X129114819Y-55077618D02*
X129257676Y-55172856D01*
X129257676Y-55172856D02*
X129352914Y-55268094D01*
X129352914Y-55268094D02*
X129400533Y-55363332D01*
X107254819Y-57220476D02*
X106778628Y-57553809D01*
X107254819Y-57791904D02*
X106254819Y-57791904D01*
X106254819Y-57791904D02*
X106254819Y-57410952D01*
X106254819Y-57410952D02*
X106302438Y-57315714D01*
X106302438Y-57315714D02*
X106350057Y-57268095D01*
X106350057Y-57268095D02*
X106445295Y-57220476D01*
X106445295Y-57220476D02*
X106588152Y-57220476D01*
X106588152Y-57220476D02*
X106683390Y-57268095D01*
X106683390Y-57268095D02*
X106731009Y-57315714D01*
X106731009Y-57315714D02*
X106778628Y-57410952D01*
X106778628Y-57410952D02*
X106778628Y-57791904D01*
X106969104Y-56839523D02*
X106969104Y-56363333D01*
X107254819Y-56934761D02*
X106254819Y-56601428D01*
X106254819Y-56601428D02*
X107254819Y-56268095D01*
X106254819Y-56029999D02*
X107254819Y-55791904D01*
X107254819Y-55791904D02*
X106540533Y-55601428D01*
X106540533Y-55601428D02*
X107254819Y-55410952D01*
X107254819Y-55410952D02*
X106254819Y-55172857D01*
X135194819Y-67160475D02*
X134194819Y-67160475D01*
X134194819Y-67160475D02*
X134194819Y-66779523D01*
X134194819Y-66779523D02*
X134242438Y-66684285D01*
X134242438Y-66684285D02*
X134290057Y-66636666D01*
X134290057Y-66636666D02*
X134385295Y-66589047D01*
X134385295Y-66589047D02*
X134528152Y-66589047D01*
X134528152Y-66589047D02*
X134623390Y-66636666D01*
X134623390Y-66636666D02*
X134671009Y-66684285D01*
X134671009Y-66684285D02*
X134718628Y-66779523D01*
X134718628Y-66779523D02*
X134718628Y-67160475D01*
X135194819Y-65636666D02*
X135194819Y-66208094D01*
X135194819Y-65922380D02*
X134194819Y-65922380D01*
X134194819Y-65922380D02*
X134337676Y-66017618D01*
X134337676Y-66017618D02*
X134432914Y-66112856D01*
X134432914Y-66112856D02*
X134480533Y-66208094D01*
X134194819Y-65017618D02*
X134194819Y-64922380D01*
X134194819Y-64922380D02*
X134242438Y-64827142D01*
X134242438Y-64827142D02*
X134290057Y-64779523D01*
X134290057Y-64779523D02*
X134385295Y-64731904D01*
X134385295Y-64731904D02*
X134575771Y-64684285D01*
X134575771Y-64684285D02*
X134813866Y-64684285D01*
X134813866Y-64684285D02*
X135004342Y-64731904D01*
X135004342Y-64731904D02*
X135099580Y-64779523D01*
X135099580Y-64779523D02*
X135147200Y-64827142D01*
X135147200Y-64827142D02*
X135194819Y-64922380D01*
X135194819Y-64922380D02*
X135194819Y-65017618D01*
X135194819Y-65017618D02*
X135147200Y-65112856D01*
X135147200Y-65112856D02*
X135099580Y-65160475D01*
X135099580Y-65160475D02*
X135004342Y-65208094D01*
X135004342Y-65208094D02*
X134813866Y-65255713D01*
X134813866Y-65255713D02*
X134575771Y-65255713D01*
X134575771Y-65255713D02*
X134385295Y-65208094D01*
X134385295Y-65208094D02*
X134290057Y-65160475D01*
X134290057Y-65160475D02*
X134242438Y-65112856D01*
X134242438Y-65112856D02*
X134194819Y-65017618D01*
X134194819Y-63827142D02*
X134194819Y-64017618D01*
X134194819Y-64017618D02*
X134242438Y-64112856D01*
X134242438Y-64112856D02*
X134290057Y-64160475D01*
X134290057Y-64160475D02*
X134432914Y-64255713D01*
X134432914Y-64255713D02*
X134623390Y-64303332D01*
X134623390Y-64303332D02*
X135004342Y-64303332D01*
X135004342Y-64303332D02*
X135099580Y-64255713D01*
X135099580Y-64255713D02*
X135147200Y-64208094D01*
X135147200Y-64208094D02*
X135194819Y-64112856D01*
X135194819Y-64112856D02*
X135194819Y-63922380D01*
X135194819Y-63922380D02*
X135147200Y-63827142D01*
X135147200Y-63827142D02*
X135099580Y-63779523D01*
X135099580Y-63779523D02*
X135004342Y-63731904D01*
X135004342Y-63731904D02*
X134766247Y-63731904D01*
X134766247Y-63731904D02*
X134671009Y-63779523D01*
X134671009Y-63779523D02*
X134623390Y-63827142D01*
X134623390Y-63827142D02*
X134575771Y-63922380D01*
X134575771Y-63922380D02*
X134575771Y-64112856D01*
X134575771Y-64112856D02*
X134623390Y-64208094D01*
X134623390Y-64208094D02*
X134671009Y-64255713D01*
X134671009Y-64255713D02*
X134766247Y-64303332D01*
X119954819Y-67160475D02*
X118954819Y-67160475D01*
X118954819Y-67160475D02*
X118954819Y-66779523D01*
X118954819Y-66779523D02*
X119002438Y-66684285D01*
X119002438Y-66684285D02*
X119050057Y-66636666D01*
X119050057Y-66636666D02*
X119145295Y-66589047D01*
X119145295Y-66589047D02*
X119288152Y-66589047D01*
X119288152Y-66589047D02*
X119383390Y-66636666D01*
X119383390Y-66636666D02*
X119431009Y-66684285D01*
X119431009Y-66684285D02*
X119478628Y-66779523D01*
X119478628Y-66779523D02*
X119478628Y-67160475D01*
X118954819Y-65969999D02*
X118954819Y-65874761D01*
X118954819Y-65874761D02*
X119002438Y-65779523D01*
X119002438Y-65779523D02*
X119050057Y-65731904D01*
X119050057Y-65731904D02*
X119145295Y-65684285D01*
X119145295Y-65684285D02*
X119335771Y-65636666D01*
X119335771Y-65636666D02*
X119573866Y-65636666D01*
X119573866Y-65636666D02*
X119764342Y-65684285D01*
X119764342Y-65684285D02*
X119859580Y-65731904D01*
X119859580Y-65731904D02*
X119907200Y-65779523D01*
X119907200Y-65779523D02*
X119954819Y-65874761D01*
X119954819Y-65874761D02*
X119954819Y-65969999D01*
X119954819Y-65969999D02*
X119907200Y-66065237D01*
X119907200Y-66065237D02*
X119859580Y-66112856D01*
X119859580Y-66112856D02*
X119764342Y-66160475D01*
X119764342Y-66160475D02*
X119573866Y-66208094D01*
X119573866Y-66208094D02*
X119335771Y-66208094D01*
X119335771Y-66208094D02*
X119145295Y-66160475D01*
X119145295Y-66160475D02*
X119050057Y-66112856D01*
X119050057Y-66112856D02*
X119002438Y-66065237D01*
X119002438Y-66065237D02*
X118954819Y-65969999D01*
X119050057Y-65255713D02*
X119002438Y-65208094D01*
X119002438Y-65208094D02*
X118954819Y-65112856D01*
X118954819Y-65112856D02*
X118954819Y-64874761D01*
X118954819Y-64874761D02*
X119002438Y-64779523D01*
X119002438Y-64779523D02*
X119050057Y-64731904D01*
X119050057Y-64731904D02*
X119145295Y-64684285D01*
X119145295Y-64684285D02*
X119240533Y-64684285D01*
X119240533Y-64684285D02*
X119383390Y-64731904D01*
X119383390Y-64731904D02*
X119954819Y-65303332D01*
X119954819Y-65303332D02*
X119954819Y-64684285D01*
X118954819Y-64065237D02*
X118954819Y-63969999D01*
X118954819Y-63969999D02*
X119002438Y-63874761D01*
X119002438Y-63874761D02*
X119050057Y-63827142D01*
X119050057Y-63827142D02*
X119145295Y-63779523D01*
X119145295Y-63779523D02*
X119335771Y-63731904D01*
X119335771Y-63731904D02*
X119573866Y-63731904D01*
X119573866Y-63731904D02*
X119764342Y-63779523D01*
X119764342Y-63779523D02*
X119859580Y-63827142D01*
X119859580Y-63827142D02*
X119907200Y-63874761D01*
X119907200Y-63874761D02*
X119954819Y-63969999D01*
X119954819Y-63969999D02*
X119954819Y-64065237D01*
X119954819Y-64065237D02*
X119907200Y-64160475D01*
X119907200Y-64160475D02*
X119859580Y-64208094D01*
X119859580Y-64208094D02*
X119764342Y-64255713D01*
X119764342Y-64255713D02*
X119573866Y-64303332D01*
X119573866Y-64303332D02*
X119335771Y-64303332D01*
X119335771Y-64303332D02*
X119145295Y-64255713D01*
X119145295Y-64255713D02*
X119050057Y-64208094D01*
X119050057Y-64208094D02*
X119002438Y-64160475D01*
X119002438Y-64160475D02*
X118954819Y-64065237D01*
X122494819Y-67160475D02*
X121494819Y-67160475D01*
X121494819Y-67160475D02*
X121494819Y-66779523D01*
X121494819Y-66779523D02*
X121542438Y-66684285D01*
X121542438Y-66684285D02*
X121590057Y-66636666D01*
X121590057Y-66636666D02*
X121685295Y-66589047D01*
X121685295Y-66589047D02*
X121828152Y-66589047D01*
X121828152Y-66589047D02*
X121923390Y-66636666D01*
X121923390Y-66636666D02*
X121971009Y-66684285D01*
X121971009Y-66684285D02*
X122018628Y-66779523D01*
X122018628Y-66779523D02*
X122018628Y-67160475D01*
X121494819Y-65969999D02*
X121494819Y-65874761D01*
X121494819Y-65874761D02*
X121542438Y-65779523D01*
X121542438Y-65779523D02*
X121590057Y-65731904D01*
X121590057Y-65731904D02*
X121685295Y-65684285D01*
X121685295Y-65684285D02*
X121875771Y-65636666D01*
X121875771Y-65636666D02*
X122113866Y-65636666D01*
X122113866Y-65636666D02*
X122304342Y-65684285D01*
X122304342Y-65684285D02*
X122399580Y-65731904D01*
X122399580Y-65731904D02*
X122447200Y-65779523D01*
X122447200Y-65779523D02*
X122494819Y-65874761D01*
X122494819Y-65874761D02*
X122494819Y-65969999D01*
X122494819Y-65969999D02*
X122447200Y-66065237D01*
X122447200Y-66065237D02*
X122399580Y-66112856D01*
X122399580Y-66112856D02*
X122304342Y-66160475D01*
X122304342Y-66160475D02*
X122113866Y-66208094D01*
X122113866Y-66208094D02*
X121875771Y-66208094D01*
X121875771Y-66208094D02*
X121685295Y-66160475D01*
X121685295Y-66160475D02*
X121590057Y-66112856D01*
X121590057Y-66112856D02*
X121542438Y-66065237D01*
X121542438Y-66065237D02*
X121494819Y-65969999D01*
X121590057Y-65255713D02*
X121542438Y-65208094D01*
X121542438Y-65208094D02*
X121494819Y-65112856D01*
X121494819Y-65112856D02*
X121494819Y-64874761D01*
X121494819Y-64874761D02*
X121542438Y-64779523D01*
X121542438Y-64779523D02*
X121590057Y-64731904D01*
X121590057Y-64731904D02*
X121685295Y-64684285D01*
X121685295Y-64684285D02*
X121780533Y-64684285D01*
X121780533Y-64684285D02*
X121923390Y-64731904D01*
X121923390Y-64731904D02*
X122494819Y-65303332D01*
X122494819Y-65303332D02*
X122494819Y-64684285D01*
X121590057Y-64303332D02*
X121542438Y-64255713D01*
X121542438Y-64255713D02*
X121494819Y-64160475D01*
X121494819Y-64160475D02*
X121494819Y-63922380D01*
X121494819Y-63922380D02*
X121542438Y-63827142D01*
X121542438Y-63827142D02*
X121590057Y-63779523D01*
X121590057Y-63779523D02*
X121685295Y-63731904D01*
X121685295Y-63731904D02*
X121780533Y-63731904D01*
X121780533Y-63731904D02*
X121923390Y-63779523D01*
X121923390Y-63779523D02*
X122494819Y-64350951D01*
X122494819Y-64350951D02*
X122494819Y-63731904D01*
X127574819Y-58220475D02*
X126574819Y-58220475D01*
X126574819Y-58220475D02*
X126574819Y-57839523D01*
X126574819Y-57839523D02*
X126622438Y-57744285D01*
X126622438Y-57744285D02*
X126670057Y-57696666D01*
X126670057Y-57696666D02*
X126765295Y-57649047D01*
X126765295Y-57649047D02*
X126908152Y-57649047D01*
X126908152Y-57649047D02*
X127003390Y-57696666D01*
X127003390Y-57696666D02*
X127051009Y-57744285D01*
X127051009Y-57744285D02*
X127098628Y-57839523D01*
X127098628Y-57839523D02*
X127098628Y-58220475D01*
X127574819Y-56696666D02*
X127574819Y-57268094D01*
X127574819Y-56982380D02*
X126574819Y-56982380D01*
X126574819Y-56982380D02*
X126717676Y-57077618D01*
X126717676Y-57077618D02*
X126812914Y-57172856D01*
X126812914Y-57172856D02*
X126860533Y-57268094D01*
X127574819Y-55744285D02*
X127574819Y-56315713D01*
X127574819Y-56029999D02*
X126574819Y-56029999D01*
X126574819Y-56029999D02*
X126717676Y-56125237D01*
X126717676Y-56125237D02*
X126812914Y-56220475D01*
X126812914Y-56220475D02*
X126860533Y-56315713D01*
X126574819Y-55410951D02*
X126574819Y-54791904D01*
X126574819Y-54791904D02*
X126955771Y-55125237D01*
X126955771Y-55125237D02*
X126955771Y-54982380D01*
X126955771Y-54982380D02*
X127003390Y-54887142D01*
X127003390Y-54887142D02*
X127051009Y-54839523D01*
X127051009Y-54839523D02*
X127146247Y-54791904D01*
X127146247Y-54791904D02*
X127384342Y-54791904D01*
X127384342Y-54791904D02*
X127479580Y-54839523D01*
X127479580Y-54839523D02*
X127527200Y-54887142D01*
X127527200Y-54887142D02*
X127574819Y-54982380D01*
X127574819Y-54982380D02*
X127574819Y-55268094D01*
X127574819Y-55268094D02*
X127527200Y-55363332D01*
X127527200Y-55363332D02*
X127479580Y-55410951D01*
X119954819Y-58220475D02*
X118954819Y-58220475D01*
X118954819Y-58220475D02*
X118954819Y-57839523D01*
X118954819Y-57839523D02*
X119002438Y-57744285D01*
X119002438Y-57744285D02*
X119050057Y-57696666D01*
X119050057Y-57696666D02*
X119145295Y-57649047D01*
X119145295Y-57649047D02*
X119288152Y-57649047D01*
X119288152Y-57649047D02*
X119383390Y-57696666D01*
X119383390Y-57696666D02*
X119431009Y-57744285D01*
X119431009Y-57744285D02*
X119478628Y-57839523D01*
X119478628Y-57839523D02*
X119478628Y-58220475D01*
X118954819Y-57029999D02*
X118954819Y-56934761D01*
X118954819Y-56934761D02*
X119002438Y-56839523D01*
X119002438Y-56839523D02*
X119050057Y-56791904D01*
X119050057Y-56791904D02*
X119145295Y-56744285D01*
X119145295Y-56744285D02*
X119335771Y-56696666D01*
X119335771Y-56696666D02*
X119573866Y-56696666D01*
X119573866Y-56696666D02*
X119764342Y-56744285D01*
X119764342Y-56744285D02*
X119859580Y-56791904D01*
X119859580Y-56791904D02*
X119907200Y-56839523D01*
X119907200Y-56839523D02*
X119954819Y-56934761D01*
X119954819Y-56934761D02*
X119954819Y-57029999D01*
X119954819Y-57029999D02*
X119907200Y-57125237D01*
X119907200Y-57125237D02*
X119859580Y-57172856D01*
X119859580Y-57172856D02*
X119764342Y-57220475D01*
X119764342Y-57220475D02*
X119573866Y-57268094D01*
X119573866Y-57268094D02*
X119335771Y-57268094D01*
X119335771Y-57268094D02*
X119145295Y-57220475D01*
X119145295Y-57220475D02*
X119050057Y-57172856D01*
X119050057Y-57172856D02*
X119002438Y-57125237D01*
X119002438Y-57125237D02*
X118954819Y-57029999D01*
X119050057Y-56315713D02*
X119002438Y-56268094D01*
X119002438Y-56268094D02*
X118954819Y-56172856D01*
X118954819Y-56172856D02*
X118954819Y-55934761D01*
X118954819Y-55934761D02*
X119002438Y-55839523D01*
X119002438Y-55839523D02*
X119050057Y-55791904D01*
X119050057Y-55791904D02*
X119145295Y-55744285D01*
X119145295Y-55744285D02*
X119240533Y-55744285D01*
X119240533Y-55744285D02*
X119383390Y-55791904D01*
X119383390Y-55791904D02*
X119954819Y-56363332D01*
X119954819Y-56363332D02*
X119954819Y-55744285D01*
X119954819Y-55268094D02*
X119954819Y-55077618D01*
X119954819Y-55077618D02*
X119907200Y-54982380D01*
X119907200Y-54982380D02*
X119859580Y-54934761D01*
X119859580Y-54934761D02*
X119716723Y-54839523D01*
X119716723Y-54839523D02*
X119526247Y-54791904D01*
X119526247Y-54791904D02*
X119145295Y-54791904D01*
X119145295Y-54791904D02*
X119050057Y-54839523D01*
X119050057Y-54839523D02*
X119002438Y-54887142D01*
X119002438Y-54887142D02*
X118954819Y-54982380D01*
X118954819Y-54982380D02*
X118954819Y-55172856D01*
X118954819Y-55172856D02*
X119002438Y-55268094D01*
X119002438Y-55268094D02*
X119050057Y-55315713D01*
X119050057Y-55315713D02*
X119145295Y-55363332D01*
X119145295Y-55363332D02*
X119383390Y-55363332D01*
X119383390Y-55363332D02*
X119478628Y-55315713D01*
X119478628Y-55315713D02*
X119526247Y-55268094D01*
X119526247Y-55268094D02*
X119573866Y-55172856D01*
X119573866Y-55172856D02*
X119573866Y-54982380D01*
X119573866Y-54982380D02*
X119526247Y-54887142D01*
X119526247Y-54887142D02*
X119478628Y-54839523D01*
X119478628Y-54839523D02*
X119383390Y-54791904D01*
X122494819Y-58220475D02*
X121494819Y-58220475D01*
X121494819Y-58220475D02*
X121494819Y-57839523D01*
X121494819Y-57839523D02*
X121542438Y-57744285D01*
X121542438Y-57744285D02*
X121590057Y-57696666D01*
X121590057Y-57696666D02*
X121685295Y-57649047D01*
X121685295Y-57649047D02*
X121828152Y-57649047D01*
X121828152Y-57649047D02*
X121923390Y-57696666D01*
X121923390Y-57696666D02*
X121971009Y-57744285D01*
X121971009Y-57744285D02*
X122018628Y-57839523D01*
X122018628Y-57839523D02*
X122018628Y-58220475D01*
X121494819Y-57029999D02*
X121494819Y-56934761D01*
X121494819Y-56934761D02*
X121542438Y-56839523D01*
X121542438Y-56839523D02*
X121590057Y-56791904D01*
X121590057Y-56791904D02*
X121685295Y-56744285D01*
X121685295Y-56744285D02*
X121875771Y-56696666D01*
X121875771Y-56696666D02*
X122113866Y-56696666D01*
X122113866Y-56696666D02*
X122304342Y-56744285D01*
X122304342Y-56744285D02*
X122399580Y-56791904D01*
X122399580Y-56791904D02*
X122447200Y-56839523D01*
X122447200Y-56839523D02*
X122494819Y-56934761D01*
X122494819Y-56934761D02*
X122494819Y-57029999D01*
X122494819Y-57029999D02*
X122447200Y-57125237D01*
X122447200Y-57125237D02*
X122399580Y-57172856D01*
X122399580Y-57172856D02*
X122304342Y-57220475D01*
X122304342Y-57220475D02*
X122113866Y-57268094D01*
X122113866Y-57268094D02*
X121875771Y-57268094D01*
X121875771Y-57268094D02*
X121685295Y-57220475D01*
X121685295Y-57220475D02*
X121590057Y-57172856D01*
X121590057Y-57172856D02*
X121542438Y-57125237D01*
X121542438Y-57125237D02*
X121494819Y-57029999D01*
X121494819Y-56077618D02*
X121494819Y-55982380D01*
X121494819Y-55982380D02*
X121542438Y-55887142D01*
X121542438Y-55887142D02*
X121590057Y-55839523D01*
X121590057Y-55839523D02*
X121685295Y-55791904D01*
X121685295Y-55791904D02*
X121875771Y-55744285D01*
X121875771Y-55744285D02*
X122113866Y-55744285D01*
X122113866Y-55744285D02*
X122304342Y-55791904D01*
X122304342Y-55791904D02*
X122399580Y-55839523D01*
X122399580Y-55839523D02*
X122447200Y-55887142D01*
X122447200Y-55887142D02*
X122494819Y-55982380D01*
X122494819Y-55982380D02*
X122494819Y-56077618D01*
X122494819Y-56077618D02*
X122447200Y-56172856D01*
X122447200Y-56172856D02*
X122399580Y-56220475D01*
X122399580Y-56220475D02*
X122304342Y-56268094D01*
X122304342Y-56268094D02*
X122113866Y-56315713D01*
X122113866Y-56315713D02*
X121875771Y-56315713D01*
X121875771Y-56315713D02*
X121685295Y-56268094D01*
X121685295Y-56268094D02*
X121590057Y-56220475D01*
X121590057Y-56220475D02*
X121542438Y-56172856D01*
X121542438Y-56172856D02*
X121494819Y-56077618D01*
X121590057Y-55363332D02*
X121542438Y-55315713D01*
X121542438Y-55315713D02*
X121494819Y-55220475D01*
X121494819Y-55220475D02*
X121494819Y-54982380D01*
X121494819Y-54982380D02*
X121542438Y-54887142D01*
X121542438Y-54887142D02*
X121590057Y-54839523D01*
X121590057Y-54839523D02*
X121685295Y-54791904D01*
X121685295Y-54791904D02*
X121780533Y-54791904D01*
X121780533Y-54791904D02*
X121923390Y-54839523D01*
X121923390Y-54839523D02*
X122494819Y-55410951D01*
X122494819Y-55410951D02*
X122494819Y-54791904D01*
X113874819Y-57863332D02*
X114874819Y-57529999D01*
X114874819Y-57529999D02*
X113874819Y-57196666D01*
X114779580Y-56291904D02*
X114827200Y-56339523D01*
X114827200Y-56339523D02*
X114874819Y-56482380D01*
X114874819Y-56482380D02*
X114874819Y-56577618D01*
X114874819Y-56577618D02*
X114827200Y-56720475D01*
X114827200Y-56720475D02*
X114731961Y-56815713D01*
X114731961Y-56815713D02*
X114636723Y-56863332D01*
X114636723Y-56863332D02*
X114446247Y-56910951D01*
X114446247Y-56910951D02*
X114303390Y-56910951D01*
X114303390Y-56910951D02*
X114112914Y-56863332D01*
X114112914Y-56863332D02*
X114017676Y-56815713D01*
X114017676Y-56815713D02*
X113922438Y-56720475D01*
X113922438Y-56720475D02*
X113874819Y-56577618D01*
X113874819Y-56577618D02*
X113874819Y-56482380D01*
X113874819Y-56482380D02*
X113922438Y-56339523D01*
X113922438Y-56339523D02*
X113970057Y-56291904D01*
X114779580Y-55291904D02*
X114827200Y-55339523D01*
X114827200Y-55339523D02*
X114874819Y-55482380D01*
X114874819Y-55482380D02*
X114874819Y-55577618D01*
X114874819Y-55577618D02*
X114827200Y-55720475D01*
X114827200Y-55720475D02*
X114731961Y-55815713D01*
X114731961Y-55815713D02*
X114636723Y-55863332D01*
X114636723Y-55863332D02*
X114446247Y-55910951D01*
X114446247Y-55910951D02*
X114303390Y-55910951D01*
X114303390Y-55910951D02*
X114112914Y-55863332D01*
X114112914Y-55863332D02*
X114017676Y-55815713D01*
X114017676Y-55815713D02*
X113922438Y-55720475D01*
X113922438Y-55720475D02*
X113874819Y-55577618D01*
X113874819Y-55577618D02*
X113874819Y-55482380D01*
X113874819Y-55482380D02*
X113922438Y-55339523D01*
X113922438Y-55339523D02*
X113970057Y-55291904D01*
X113922438Y-66231904D02*
X113874819Y-66327142D01*
X113874819Y-66327142D02*
X113874819Y-66469999D01*
X113874819Y-66469999D02*
X113922438Y-66612856D01*
X113922438Y-66612856D02*
X114017676Y-66708094D01*
X114017676Y-66708094D02*
X114112914Y-66755713D01*
X114112914Y-66755713D02*
X114303390Y-66803332D01*
X114303390Y-66803332D02*
X114446247Y-66803332D01*
X114446247Y-66803332D02*
X114636723Y-66755713D01*
X114636723Y-66755713D02*
X114731961Y-66708094D01*
X114731961Y-66708094D02*
X114827200Y-66612856D01*
X114827200Y-66612856D02*
X114874819Y-66469999D01*
X114874819Y-66469999D02*
X114874819Y-66374761D01*
X114874819Y-66374761D02*
X114827200Y-66231904D01*
X114827200Y-66231904D02*
X114779580Y-66184285D01*
X114779580Y-66184285D02*
X114446247Y-66184285D01*
X114446247Y-66184285D02*
X114446247Y-66374761D01*
X114874819Y-65755713D02*
X113874819Y-65755713D01*
X113874819Y-65755713D02*
X114874819Y-65184285D01*
X114874819Y-65184285D02*
X113874819Y-65184285D01*
X114874819Y-64708094D02*
X113874819Y-64708094D01*
X113874819Y-64708094D02*
X113874819Y-64469999D01*
X113874819Y-64469999D02*
X113922438Y-64327142D01*
X113922438Y-64327142D02*
X114017676Y-64231904D01*
X114017676Y-64231904D02*
X114112914Y-64184285D01*
X114112914Y-64184285D02*
X114303390Y-64136666D01*
X114303390Y-64136666D02*
X114446247Y-64136666D01*
X114446247Y-64136666D02*
X114636723Y-64184285D01*
X114636723Y-64184285D02*
X114731961Y-64231904D01*
X114731961Y-64231904D02*
X114827200Y-64327142D01*
X114827200Y-64327142D02*
X114874819Y-64469999D01*
X114874819Y-64469999D02*
X114874819Y-64708094D01*
X117414819Y-67160475D02*
X116414819Y-67160475D01*
X116414819Y-67160475D02*
X116414819Y-66779523D01*
X116414819Y-66779523D02*
X116462438Y-66684285D01*
X116462438Y-66684285D02*
X116510057Y-66636666D01*
X116510057Y-66636666D02*
X116605295Y-66589047D01*
X116605295Y-66589047D02*
X116748152Y-66589047D01*
X116748152Y-66589047D02*
X116843390Y-66636666D01*
X116843390Y-66636666D02*
X116891009Y-66684285D01*
X116891009Y-66684285D02*
X116938628Y-66779523D01*
X116938628Y-66779523D02*
X116938628Y-67160475D01*
X116414819Y-65969999D02*
X116414819Y-65874761D01*
X116414819Y-65874761D02*
X116462438Y-65779523D01*
X116462438Y-65779523D02*
X116510057Y-65731904D01*
X116510057Y-65731904D02*
X116605295Y-65684285D01*
X116605295Y-65684285D02*
X116795771Y-65636666D01*
X116795771Y-65636666D02*
X117033866Y-65636666D01*
X117033866Y-65636666D02*
X117224342Y-65684285D01*
X117224342Y-65684285D02*
X117319580Y-65731904D01*
X117319580Y-65731904D02*
X117367200Y-65779523D01*
X117367200Y-65779523D02*
X117414819Y-65874761D01*
X117414819Y-65874761D02*
X117414819Y-65969999D01*
X117414819Y-65969999D02*
X117367200Y-66065237D01*
X117367200Y-66065237D02*
X117319580Y-66112856D01*
X117319580Y-66112856D02*
X117224342Y-66160475D01*
X117224342Y-66160475D02*
X117033866Y-66208094D01*
X117033866Y-66208094D02*
X116795771Y-66208094D01*
X116795771Y-66208094D02*
X116605295Y-66160475D01*
X116605295Y-66160475D02*
X116510057Y-66112856D01*
X116510057Y-66112856D02*
X116462438Y-66065237D01*
X116462438Y-66065237D02*
X116414819Y-65969999D01*
X117414819Y-64684285D02*
X117414819Y-65255713D01*
X117414819Y-64969999D02*
X116414819Y-64969999D01*
X116414819Y-64969999D02*
X116557676Y-65065237D01*
X116557676Y-65065237D02*
X116652914Y-65160475D01*
X116652914Y-65160475D02*
X116700533Y-65255713D01*
X116414819Y-64350951D02*
X116414819Y-63684285D01*
X116414819Y-63684285D02*
X117414819Y-64112856D01*
X135194819Y-58220475D02*
X134194819Y-58220475D01*
X134194819Y-58220475D02*
X134194819Y-57839523D01*
X134194819Y-57839523D02*
X134242438Y-57744285D01*
X134242438Y-57744285D02*
X134290057Y-57696666D01*
X134290057Y-57696666D02*
X134385295Y-57649047D01*
X134385295Y-57649047D02*
X134528152Y-57649047D01*
X134528152Y-57649047D02*
X134623390Y-57696666D01*
X134623390Y-57696666D02*
X134671009Y-57744285D01*
X134671009Y-57744285D02*
X134718628Y-57839523D01*
X134718628Y-57839523D02*
X134718628Y-58220475D01*
X134194819Y-57029999D02*
X134194819Y-56934761D01*
X134194819Y-56934761D02*
X134242438Y-56839523D01*
X134242438Y-56839523D02*
X134290057Y-56791904D01*
X134290057Y-56791904D02*
X134385295Y-56744285D01*
X134385295Y-56744285D02*
X134575771Y-56696666D01*
X134575771Y-56696666D02*
X134813866Y-56696666D01*
X134813866Y-56696666D02*
X135004342Y-56744285D01*
X135004342Y-56744285D02*
X135099580Y-56791904D01*
X135099580Y-56791904D02*
X135147200Y-56839523D01*
X135147200Y-56839523D02*
X135194819Y-56934761D01*
X135194819Y-56934761D02*
X135194819Y-57029999D01*
X135194819Y-57029999D02*
X135147200Y-57125237D01*
X135147200Y-57125237D02*
X135099580Y-57172856D01*
X135099580Y-57172856D02*
X135004342Y-57220475D01*
X135004342Y-57220475D02*
X134813866Y-57268094D01*
X134813866Y-57268094D02*
X134575771Y-57268094D01*
X134575771Y-57268094D02*
X134385295Y-57220475D01*
X134385295Y-57220475D02*
X134290057Y-57172856D01*
X134290057Y-57172856D02*
X134242438Y-57125237D01*
X134242438Y-57125237D02*
X134194819Y-57029999D01*
X134194819Y-56077618D02*
X134194819Y-55982380D01*
X134194819Y-55982380D02*
X134242438Y-55887142D01*
X134242438Y-55887142D02*
X134290057Y-55839523D01*
X134290057Y-55839523D02*
X134385295Y-55791904D01*
X134385295Y-55791904D02*
X134575771Y-55744285D01*
X134575771Y-55744285D02*
X134813866Y-55744285D01*
X134813866Y-55744285D02*
X135004342Y-55791904D01*
X135004342Y-55791904D02*
X135099580Y-55839523D01*
X135099580Y-55839523D02*
X135147200Y-55887142D01*
X135147200Y-55887142D02*
X135194819Y-55982380D01*
X135194819Y-55982380D02*
X135194819Y-56077618D01*
X135194819Y-56077618D02*
X135147200Y-56172856D01*
X135147200Y-56172856D02*
X135099580Y-56220475D01*
X135099580Y-56220475D02*
X135004342Y-56268094D01*
X135004342Y-56268094D02*
X134813866Y-56315713D01*
X134813866Y-56315713D02*
X134575771Y-56315713D01*
X134575771Y-56315713D02*
X134385295Y-56268094D01*
X134385295Y-56268094D02*
X134290057Y-56220475D01*
X134290057Y-56220475D02*
X134242438Y-56172856D01*
X134242438Y-56172856D02*
X134194819Y-56077618D01*
X135194819Y-55268094D02*
X135194819Y-55077618D01*
X135194819Y-55077618D02*
X135147200Y-54982380D01*
X135147200Y-54982380D02*
X135099580Y-54934761D01*
X135099580Y-54934761D02*
X134956723Y-54839523D01*
X134956723Y-54839523D02*
X134766247Y-54791904D01*
X134766247Y-54791904D02*
X134385295Y-54791904D01*
X134385295Y-54791904D02*
X134290057Y-54839523D01*
X134290057Y-54839523D02*
X134242438Y-54887142D01*
X134242438Y-54887142D02*
X134194819Y-54982380D01*
X134194819Y-54982380D02*
X134194819Y-55172856D01*
X134194819Y-55172856D02*
X134242438Y-55268094D01*
X134242438Y-55268094D02*
X134290057Y-55315713D01*
X134290057Y-55315713D02*
X134385295Y-55363332D01*
X134385295Y-55363332D02*
X134623390Y-55363332D01*
X134623390Y-55363332D02*
X134718628Y-55315713D01*
X134718628Y-55315713D02*
X134766247Y-55268094D01*
X134766247Y-55268094D02*
X134813866Y-55172856D01*
X134813866Y-55172856D02*
X134813866Y-54982380D01*
X134813866Y-54982380D02*
X134766247Y-54887142D01*
X134766247Y-54887142D02*
X134718628Y-54839523D01*
X134718628Y-54839523D02*
X134623390Y-54791904D01*
X125034819Y-58220475D02*
X124034819Y-58220475D01*
X124034819Y-58220475D02*
X124034819Y-57839523D01*
X124034819Y-57839523D02*
X124082438Y-57744285D01*
X124082438Y-57744285D02*
X124130057Y-57696666D01*
X124130057Y-57696666D02*
X124225295Y-57649047D01*
X124225295Y-57649047D02*
X124368152Y-57649047D01*
X124368152Y-57649047D02*
X124463390Y-57696666D01*
X124463390Y-57696666D02*
X124511009Y-57744285D01*
X124511009Y-57744285D02*
X124558628Y-57839523D01*
X124558628Y-57839523D02*
X124558628Y-58220475D01*
X125034819Y-56696666D02*
X125034819Y-57268094D01*
X125034819Y-56982380D02*
X124034819Y-56982380D01*
X124034819Y-56982380D02*
X124177676Y-57077618D01*
X124177676Y-57077618D02*
X124272914Y-57172856D01*
X124272914Y-57172856D02*
X124320533Y-57268094D01*
X125034819Y-55744285D02*
X125034819Y-56315713D01*
X125034819Y-56029999D02*
X124034819Y-56029999D01*
X124034819Y-56029999D02*
X124177676Y-56125237D01*
X124177676Y-56125237D02*
X124272914Y-56220475D01*
X124272914Y-56220475D02*
X124320533Y-56315713D01*
X124034819Y-54839523D02*
X124034819Y-55315713D01*
X124034819Y-55315713D02*
X124511009Y-55363332D01*
X124511009Y-55363332D02*
X124463390Y-55315713D01*
X124463390Y-55315713D02*
X124415771Y-55220475D01*
X124415771Y-55220475D02*
X124415771Y-54982380D01*
X124415771Y-54982380D02*
X124463390Y-54887142D01*
X124463390Y-54887142D02*
X124511009Y-54839523D01*
X124511009Y-54839523D02*
X124606247Y-54791904D01*
X124606247Y-54791904D02*
X124844342Y-54791904D01*
X124844342Y-54791904D02*
X124939580Y-54839523D01*
X124939580Y-54839523D02*
X124987200Y-54887142D01*
X124987200Y-54887142D02*
X125034819Y-54982380D01*
X125034819Y-54982380D02*
X125034819Y-55220475D01*
X125034819Y-55220475D02*
X124987200Y-55315713D01*
X124987200Y-55315713D02*
X124939580Y-55363332D01*
X130114819Y-67160475D02*
X129114819Y-67160475D01*
X129114819Y-67160475D02*
X129114819Y-66779523D01*
X129114819Y-66779523D02*
X129162438Y-66684285D01*
X129162438Y-66684285D02*
X129210057Y-66636666D01*
X129210057Y-66636666D02*
X129305295Y-66589047D01*
X129305295Y-66589047D02*
X129448152Y-66589047D01*
X129448152Y-66589047D02*
X129543390Y-66636666D01*
X129543390Y-66636666D02*
X129591009Y-66684285D01*
X129591009Y-66684285D02*
X129638628Y-66779523D01*
X129638628Y-66779523D02*
X129638628Y-67160475D01*
X129114819Y-65969999D02*
X129114819Y-65874761D01*
X129114819Y-65874761D02*
X129162438Y-65779523D01*
X129162438Y-65779523D02*
X129210057Y-65731904D01*
X129210057Y-65731904D02*
X129305295Y-65684285D01*
X129305295Y-65684285D02*
X129495771Y-65636666D01*
X129495771Y-65636666D02*
X129733866Y-65636666D01*
X129733866Y-65636666D02*
X129924342Y-65684285D01*
X129924342Y-65684285D02*
X130019580Y-65731904D01*
X130019580Y-65731904D02*
X130067200Y-65779523D01*
X130067200Y-65779523D02*
X130114819Y-65874761D01*
X130114819Y-65874761D02*
X130114819Y-65969999D01*
X130114819Y-65969999D02*
X130067200Y-66065237D01*
X130067200Y-66065237D02*
X130019580Y-66112856D01*
X130019580Y-66112856D02*
X129924342Y-66160475D01*
X129924342Y-66160475D02*
X129733866Y-66208094D01*
X129733866Y-66208094D02*
X129495771Y-66208094D01*
X129495771Y-66208094D02*
X129305295Y-66160475D01*
X129305295Y-66160475D02*
X129210057Y-66112856D01*
X129210057Y-66112856D02*
X129162438Y-66065237D01*
X129162438Y-66065237D02*
X129114819Y-65969999D01*
X130114819Y-64684285D02*
X130114819Y-65255713D01*
X130114819Y-64969999D02*
X129114819Y-64969999D01*
X129114819Y-64969999D02*
X129257676Y-65065237D01*
X129257676Y-65065237D02*
X129352914Y-65160475D01*
X129352914Y-65160475D02*
X129400533Y-65255713D01*
X130114819Y-63731904D02*
X130114819Y-64303332D01*
X130114819Y-64017618D02*
X129114819Y-64017618D01*
X129114819Y-64017618D02*
X129257676Y-64112856D01*
X129257676Y-64112856D02*
X129352914Y-64208094D01*
X129352914Y-64208094D02*
X129400533Y-64303332D01*
X111382438Y-66231904D02*
X111334819Y-66327142D01*
X111334819Y-66327142D02*
X111334819Y-66469999D01*
X111334819Y-66469999D02*
X111382438Y-66612856D01*
X111382438Y-66612856D02*
X111477676Y-66708094D01*
X111477676Y-66708094D02*
X111572914Y-66755713D01*
X111572914Y-66755713D02*
X111763390Y-66803332D01*
X111763390Y-66803332D02*
X111906247Y-66803332D01*
X111906247Y-66803332D02*
X112096723Y-66755713D01*
X112096723Y-66755713D02*
X112191961Y-66708094D01*
X112191961Y-66708094D02*
X112287200Y-66612856D01*
X112287200Y-66612856D02*
X112334819Y-66469999D01*
X112334819Y-66469999D02*
X112334819Y-66374761D01*
X112334819Y-66374761D02*
X112287200Y-66231904D01*
X112287200Y-66231904D02*
X112239580Y-66184285D01*
X112239580Y-66184285D02*
X111906247Y-66184285D01*
X111906247Y-66184285D02*
X111906247Y-66374761D01*
X112334819Y-65755713D02*
X111334819Y-65755713D01*
X111334819Y-65755713D02*
X112334819Y-65184285D01*
X112334819Y-65184285D02*
X111334819Y-65184285D01*
X112334819Y-64708094D02*
X111334819Y-64708094D01*
X111334819Y-64708094D02*
X111334819Y-64469999D01*
X111334819Y-64469999D02*
X111382438Y-64327142D01*
X111382438Y-64327142D02*
X111477676Y-64231904D01*
X111477676Y-64231904D02*
X111572914Y-64184285D01*
X111572914Y-64184285D02*
X111763390Y-64136666D01*
X111763390Y-64136666D02*
X111906247Y-64136666D01*
X111906247Y-64136666D02*
X112096723Y-64184285D01*
X112096723Y-64184285D02*
X112191961Y-64231904D01*
X112191961Y-64231904D02*
X112287200Y-64327142D01*
X112287200Y-64327142D02*
X112334819Y-64469999D01*
X112334819Y-64469999D02*
X112334819Y-64708094D01*
X107254819Y-67160475D02*
X106254819Y-67160475D01*
X106254819Y-67160475D02*
X106254819Y-66779523D01*
X106254819Y-66779523D02*
X106302438Y-66684285D01*
X106302438Y-66684285D02*
X106350057Y-66636666D01*
X106350057Y-66636666D02*
X106445295Y-66589047D01*
X106445295Y-66589047D02*
X106588152Y-66589047D01*
X106588152Y-66589047D02*
X106683390Y-66636666D01*
X106683390Y-66636666D02*
X106731009Y-66684285D01*
X106731009Y-66684285D02*
X106778628Y-66779523D01*
X106778628Y-66779523D02*
X106778628Y-67160475D01*
X106254819Y-65969999D02*
X106254819Y-65874761D01*
X106254819Y-65874761D02*
X106302438Y-65779523D01*
X106302438Y-65779523D02*
X106350057Y-65731904D01*
X106350057Y-65731904D02*
X106445295Y-65684285D01*
X106445295Y-65684285D02*
X106635771Y-65636666D01*
X106635771Y-65636666D02*
X106873866Y-65636666D01*
X106873866Y-65636666D02*
X107064342Y-65684285D01*
X107064342Y-65684285D02*
X107159580Y-65731904D01*
X107159580Y-65731904D02*
X107207200Y-65779523D01*
X107207200Y-65779523D02*
X107254819Y-65874761D01*
X107254819Y-65874761D02*
X107254819Y-65969999D01*
X107254819Y-65969999D02*
X107207200Y-66065237D01*
X107207200Y-66065237D02*
X107159580Y-66112856D01*
X107159580Y-66112856D02*
X107064342Y-66160475D01*
X107064342Y-66160475D02*
X106873866Y-66208094D01*
X106873866Y-66208094D02*
X106635771Y-66208094D01*
X106635771Y-66208094D02*
X106445295Y-66160475D01*
X106445295Y-66160475D02*
X106350057Y-66112856D01*
X106350057Y-66112856D02*
X106302438Y-66065237D01*
X106302438Y-66065237D02*
X106254819Y-65969999D01*
X106254819Y-65017618D02*
X106254819Y-64922380D01*
X106254819Y-64922380D02*
X106302438Y-64827142D01*
X106302438Y-64827142D02*
X106350057Y-64779523D01*
X106350057Y-64779523D02*
X106445295Y-64731904D01*
X106445295Y-64731904D02*
X106635771Y-64684285D01*
X106635771Y-64684285D02*
X106873866Y-64684285D01*
X106873866Y-64684285D02*
X107064342Y-64731904D01*
X107064342Y-64731904D02*
X107159580Y-64779523D01*
X107159580Y-64779523D02*
X107207200Y-64827142D01*
X107207200Y-64827142D02*
X107254819Y-64922380D01*
X107254819Y-64922380D02*
X107254819Y-65017618D01*
X107254819Y-65017618D02*
X107207200Y-65112856D01*
X107207200Y-65112856D02*
X107159580Y-65160475D01*
X107159580Y-65160475D02*
X107064342Y-65208094D01*
X107064342Y-65208094D02*
X106873866Y-65255713D01*
X106873866Y-65255713D02*
X106635771Y-65255713D01*
X106635771Y-65255713D02*
X106445295Y-65208094D01*
X106445295Y-65208094D02*
X106350057Y-65160475D01*
X106350057Y-65160475D02*
X106302438Y-65112856D01*
X106302438Y-65112856D02*
X106254819Y-65017618D01*
X106254819Y-63827142D02*
X106254819Y-64017618D01*
X106254819Y-64017618D02*
X106302438Y-64112856D01*
X106302438Y-64112856D02*
X106350057Y-64160475D01*
X106350057Y-64160475D02*
X106492914Y-64255713D01*
X106492914Y-64255713D02*
X106683390Y-64303332D01*
X106683390Y-64303332D02*
X107064342Y-64303332D01*
X107064342Y-64303332D02*
X107159580Y-64255713D01*
X107159580Y-64255713D02*
X107207200Y-64208094D01*
X107207200Y-64208094D02*
X107254819Y-64112856D01*
X107254819Y-64112856D02*
X107254819Y-63922380D01*
X107254819Y-63922380D02*
X107207200Y-63827142D01*
X107207200Y-63827142D02*
X107159580Y-63779523D01*
X107159580Y-63779523D02*
X107064342Y-63731904D01*
X107064342Y-63731904D02*
X106826247Y-63731904D01*
X106826247Y-63731904D02*
X106731009Y-63779523D01*
X106731009Y-63779523D02*
X106683390Y-63827142D01*
X106683390Y-63827142D02*
X106635771Y-63922380D01*
X106635771Y-63922380D02*
X106635771Y-64112856D01*
X106635771Y-64112856D02*
X106683390Y-64208094D01*
X106683390Y-64208094D02*
X106731009Y-64255713D01*
X106731009Y-64255713D02*
X106826247Y-64303332D01*
X125034819Y-67160475D02*
X124034819Y-67160475D01*
X124034819Y-67160475D02*
X124034819Y-66779523D01*
X124034819Y-66779523D02*
X124082438Y-66684285D01*
X124082438Y-66684285D02*
X124130057Y-66636666D01*
X124130057Y-66636666D02*
X124225295Y-66589047D01*
X124225295Y-66589047D02*
X124368152Y-66589047D01*
X124368152Y-66589047D02*
X124463390Y-66636666D01*
X124463390Y-66636666D02*
X124511009Y-66684285D01*
X124511009Y-66684285D02*
X124558628Y-66779523D01*
X124558628Y-66779523D02*
X124558628Y-67160475D01*
X124034819Y-65969999D02*
X124034819Y-65874761D01*
X124034819Y-65874761D02*
X124082438Y-65779523D01*
X124082438Y-65779523D02*
X124130057Y-65731904D01*
X124130057Y-65731904D02*
X124225295Y-65684285D01*
X124225295Y-65684285D02*
X124415771Y-65636666D01*
X124415771Y-65636666D02*
X124653866Y-65636666D01*
X124653866Y-65636666D02*
X124844342Y-65684285D01*
X124844342Y-65684285D02*
X124939580Y-65731904D01*
X124939580Y-65731904D02*
X124987200Y-65779523D01*
X124987200Y-65779523D02*
X125034819Y-65874761D01*
X125034819Y-65874761D02*
X125034819Y-65969999D01*
X125034819Y-65969999D02*
X124987200Y-66065237D01*
X124987200Y-66065237D02*
X124939580Y-66112856D01*
X124939580Y-66112856D02*
X124844342Y-66160475D01*
X124844342Y-66160475D02*
X124653866Y-66208094D01*
X124653866Y-66208094D02*
X124415771Y-66208094D01*
X124415771Y-66208094D02*
X124225295Y-66160475D01*
X124225295Y-66160475D02*
X124130057Y-66112856D01*
X124130057Y-66112856D02*
X124082438Y-66065237D01*
X124082438Y-66065237D02*
X124034819Y-65969999D01*
X124130057Y-65255713D02*
X124082438Y-65208094D01*
X124082438Y-65208094D02*
X124034819Y-65112856D01*
X124034819Y-65112856D02*
X124034819Y-64874761D01*
X124034819Y-64874761D02*
X124082438Y-64779523D01*
X124082438Y-64779523D02*
X124130057Y-64731904D01*
X124130057Y-64731904D02*
X124225295Y-64684285D01*
X124225295Y-64684285D02*
X124320533Y-64684285D01*
X124320533Y-64684285D02*
X124463390Y-64731904D01*
X124463390Y-64731904D02*
X125034819Y-65303332D01*
X125034819Y-65303332D02*
X125034819Y-64684285D01*
X124368152Y-63827142D02*
X125034819Y-63827142D01*
X123987200Y-64065237D02*
X124701485Y-64303332D01*
X124701485Y-64303332D02*
X124701485Y-63684285D01*
X112334819Y-57077619D02*
X111858628Y-57410952D01*
X112334819Y-57649047D02*
X111334819Y-57649047D01*
X111334819Y-57649047D02*
X111334819Y-57268095D01*
X111334819Y-57268095D02*
X111382438Y-57172857D01*
X111382438Y-57172857D02*
X111430057Y-57125238D01*
X111430057Y-57125238D02*
X111525295Y-57077619D01*
X111525295Y-57077619D02*
X111668152Y-57077619D01*
X111668152Y-57077619D02*
X111763390Y-57125238D01*
X111763390Y-57125238D02*
X111811009Y-57172857D01*
X111811009Y-57172857D02*
X111858628Y-57268095D01*
X111858628Y-57268095D02*
X111858628Y-57649047D01*
X112287200Y-56696666D02*
X112334819Y-56553809D01*
X112334819Y-56553809D02*
X112334819Y-56315714D01*
X112334819Y-56315714D02*
X112287200Y-56220476D01*
X112287200Y-56220476D02*
X112239580Y-56172857D01*
X112239580Y-56172857D02*
X112144342Y-56125238D01*
X112144342Y-56125238D02*
X112049104Y-56125238D01*
X112049104Y-56125238D02*
X111953866Y-56172857D01*
X111953866Y-56172857D02*
X111906247Y-56220476D01*
X111906247Y-56220476D02*
X111858628Y-56315714D01*
X111858628Y-56315714D02*
X111811009Y-56506190D01*
X111811009Y-56506190D02*
X111763390Y-56601428D01*
X111763390Y-56601428D02*
X111715771Y-56649047D01*
X111715771Y-56649047D02*
X111620533Y-56696666D01*
X111620533Y-56696666D02*
X111525295Y-56696666D01*
X111525295Y-56696666D02*
X111430057Y-56649047D01*
X111430057Y-56649047D02*
X111382438Y-56601428D01*
X111382438Y-56601428D02*
X111334819Y-56506190D01*
X111334819Y-56506190D02*
X111334819Y-56268095D01*
X111334819Y-56268095D02*
X111382438Y-56125238D01*
X111334819Y-55839523D02*
X111334819Y-55268095D01*
X112334819Y-55553809D02*
X111334819Y-55553809D01*
X144717731Y-65625180D02*
X144717731Y-66625180D01*
X144717731Y-66625180D02*
X144336779Y-66625180D01*
X144336779Y-66625180D02*
X144241541Y-66577561D01*
X144241541Y-66577561D02*
X144193922Y-66529942D01*
X144193922Y-66529942D02*
X144146303Y-66434704D01*
X144146303Y-66434704D02*
X144146303Y-66291847D01*
X144146303Y-66291847D02*
X144193922Y-66196609D01*
X144193922Y-66196609D02*
X144241541Y-66148990D01*
X144241541Y-66148990D02*
X144336779Y-66101371D01*
X144336779Y-66101371D02*
X144717731Y-66101371D01*
X143527255Y-66625180D02*
X143432017Y-66625180D01*
X143432017Y-66625180D02*
X143336779Y-66577561D01*
X143336779Y-66577561D02*
X143289160Y-66529942D01*
X143289160Y-66529942D02*
X143241541Y-66434704D01*
X143241541Y-66434704D02*
X143193922Y-66244228D01*
X143193922Y-66244228D02*
X143193922Y-66006133D01*
X143193922Y-66006133D02*
X143241541Y-65815657D01*
X143241541Y-65815657D02*
X143289160Y-65720419D01*
X143289160Y-65720419D02*
X143336779Y-65672800D01*
X143336779Y-65672800D02*
X143432017Y-65625180D01*
X143432017Y-65625180D02*
X143527255Y-65625180D01*
X143527255Y-65625180D02*
X143622493Y-65672800D01*
X143622493Y-65672800D02*
X143670112Y-65720419D01*
X143670112Y-65720419D02*
X143717731Y-65815657D01*
X143717731Y-65815657D02*
X143765350Y-66006133D01*
X143765350Y-66006133D02*
X143765350Y-66244228D01*
X143765350Y-66244228D02*
X143717731Y-66434704D01*
X143717731Y-66434704D02*
X143670112Y-66529942D01*
X143670112Y-66529942D02*
X143622493Y-66577561D01*
X143622493Y-66577561D02*
X143527255Y-66625180D01*
X142241541Y-65625180D02*
X142812969Y-65625180D01*
X142527255Y-65625180D02*
X142527255Y-66625180D01*
X142527255Y-66625180D02*
X142622493Y-66482323D01*
X142622493Y-66482323D02*
X142717731Y-66387085D01*
X142717731Y-66387085D02*
X142812969Y-66339466D01*
X141289160Y-65625180D02*
X141860588Y-65625180D01*
X141574874Y-65625180D02*
X141574874Y-66625180D01*
X141574874Y-66625180D02*
X141670112Y-66482323D01*
X141670112Y-66482323D02*
X141765350Y-66387085D01*
X141765350Y-66387085D02*
X141860588Y-66339466D01*
X144717731Y-63025180D02*
X144717731Y-64025180D01*
X144717731Y-64025180D02*
X144336779Y-64025180D01*
X144336779Y-64025180D02*
X144241541Y-63977561D01*
X144241541Y-63977561D02*
X144193922Y-63929942D01*
X144193922Y-63929942D02*
X144146303Y-63834704D01*
X144146303Y-63834704D02*
X144146303Y-63691847D01*
X144146303Y-63691847D02*
X144193922Y-63596609D01*
X144193922Y-63596609D02*
X144241541Y-63548990D01*
X144241541Y-63548990D02*
X144336779Y-63501371D01*
X144336779Y-63501371D02*
X144717731Y-63501371D01*
X143527255Y-64025180D02*
X143432017Y-64025180D01*
X143432017Y-64025180D02*
X143336779Y-63977561D01*
X143336779Y-63977561D02*
X143289160Y-63929942D01*
X143289160Y-63929942D02*
X143241541Y-63834704D01*
X143241541Y-63834704D02*
X143193922Y-63644228D01*
X143193922Y-63644228D02*
X143193922Y-63406133D01*
X143193922Y-63406133D02*
X143241541Y-63215657D01*
X143241541Y-63215657D02*
X143289160Y-63120419D01*
X143289160Y-63120419D02*
X143336779Y-63072800D01*
X143336779Y-63072800D02*
X143432017Y-63025180D01*
X143432017Y-63025180D02*
X143527255Y-63025180D01*
X143527255Y-63025180D02*
X143622493Y-63072800D01*
X143622493Y-63072800D02*
X143670112Y-63120419D01*
X143670112Y-63120419D02*
X143717731Y-63215657D01*
X143717731Y-63215657D02*
X143765350Y-63406133D01*
X143765350Y-63406133D02*
X143765350Y-63644228D01*
X143765350Y-63644228D02*
X143717731Y-63834704D01*
X143717731Y-63834704D02*
X143670112Y-63929942D01*
X143670112Y-63929942D02*
X143622493Y-63977561D01*
X143622493Y-63977561D02*
X143527255Y-64025180D01*
X142241541Y-63025180D02*
X142812969Y-63025180D01*
X142527255Y-63025180D02*
X142527255Y-64025180D01*
X142527255Y-64025180D02*
X142622493Y-63882323D01*
X142622493Y-63882323D02*
X142717731Y-63787085D01*
X142717731Y-63787085D02*
X142812969Y-63739466D01*
X141622493Y-64025180D02*
X141527255Y-64025180D01*
X141527255Y-64025180D02*
X141432017Y-63977561D01*
X141432017Y-63977561D02*
X141384398Y-63929942D01*
X141384398Y-63929942D02*
X141336779Y-63834704D01*
X141336779Y-63834704D02*
X141289160Y-63644228D01*
X141289160Y-63644228D02*
X141289160Y-63406133D01*
X141289160Y-63406133D02*
X141336779Y-63215657D01*
X141336779Y-63215657D02*
X141384398Y-63120419D01*
X141384398Y-63120419D02*
X141432017Y-63072800D01*
X141432017Y-63072800D02*
X141527255Y-63025180D01*
X141527255Y-63025180D02*
X141622493Y-63025180D01*
X141622493Y-63025180D02*
X141717731Y-63072800D01*
X141717731Y-63072800D02*
X141765350Y-63120419D01*
X141765350Y-63120419D02*
X141812969Y-63215657D01*
X141812969Y-63215657D02*
X141860588Y-63406133D01*
X141860588Y-63406133D02*
X141860588Y-63644228D01*
X141860588Y-63644228D02*
X141812969Y-63834704D01*
X141812969Y-63834704D02*
X141765350Y-63929942D01*
X141765350Y-63929942D02*
X141717731Y-63977561D01*
X141717731Y-63977561D02*
X141622493Y-64025180D01*
X143384398Y-58877561D02*
X143479636Y-58925180D01*
X143479636Y-58925180D02*
X143622493Y-58925180D01*
X143622493Y-58925180D02*
X143765350Y-58877561D01*
X143765350Y-58877561D02*
X143860588Y-58782323D01*
X143860588Y-58782323D02*
X143908207Y-58687085D01*
X143908207Y-58687085D02*
X143955826Y-58496609D01*
X143955826Y-58496609D02*
X143955826Y-58353752D01*
X143955826Y-58353752D02*
X143908207Y-58163276D01*
X143908207Y-58163276D02*
X143860588Y-58068038D01*
X143860588Y-58068038D02*
X143765350Y-57972800D01*
X143765350Y-57972800D02*
X143622493Y-57925180D01*
X143622493Y-57925180D02*
X143527255Y-57925180D01*
X143527255Y-57925180D02*
X143384398Y-57972800D01*
X143384398Y-57972800D02*
X143336779Y-58020419D01*
X143336779Y-58020419D02*
X143336779Y-58353752D01*
X143336779Y-58353752D02*
X143527255Y-58353752D01*
X142908207Y-57925180D02*
X142908207Y-58925180D01*
X142908207Y-58925180D02*
X142336779Y-57925180D01*
X142336779Y-57925180D02*
X142336779Y-58925180D01*
X141860588Y-57925180D02*
X141860588Y-58925180D01*
X141860588Y-58925180D02*
X141622493Y-58925180D01*
X141622493Y-58925180D02*
X141479636Y-58877561D01*
X141479636Y-58877561D02*
X141384398Y-58782323D01*
X141384398Y-58782323D02*
X141336779Y-58687085D01*
X141336779Y-58687085D02*
X141289160Y-58496609D01*
X141289160Y-58496609D02*
X141289160Y-58353752D01*
X141289160Y-58353752D02*
X141336779Y-58163276D01*
X141336779Y-58163276D02*
X141384398Y-58068038D01*
X141384398Y-58068038D02*
X141479636Y-57972800D01*
X141479636Y-57972800D02*
X141622493Y-57925180D01*
X141622493Y-57925180D02*
X141860588Y-57925180D01*
X143860588Y-61395180D02*
X143527255Y-60395180D01*
X143527255Y-60395180D02*
X143193922Y-61395180D01*
X142289160Y-60490419D02*
X142336779Y-60442800D01*
X142336779Y-60442800D02*
X142479636Y-60395180D01*
X142479636Y-60395180D02*
X142574874Y-60395180D01*
X142574874Y-60395180D02*
X142717731Y-60442800D01*
X142717731Y-60442800D02*
X142812969Y-60538038D01*
X142812969Y-60538038D02*
X142860588Y-60633276D01*
X142860588Y-60633276D02*
X142908207Y-60823752D01*
X142908207Y-60823752D02*
X142908207Y-60966609D01*
X142908207Y-60966609D02*
X142860588Y-61157085D01*
X142860588Y-61157085D02*
X142812969Y-61252323D01*
X142812969Y-61252323D02*
X142717731Y-61347561D01*
X142717731Y-61347561D02*
X142574874Y-61395180D01*
X142574874Y-61395180D02*
X142479636Y-61395180D01*
X142479636Y-61395180D02*
X142336779Y-61347561D01*
X142336779Y-61347561D02*
X142289160Y-61299942D01*
X141289160Y-60490419D02*
X141336779Y-60442800D01*
X141336779Y-60442800D02*
X141479636Y-60395180D01*
X141479636Y-60395180D02*
X141574874Y-60395180D01*
X141574874Y-60395180D02*
X141717731Y-60442800D01*
X141717731Y-60442800D02*
X141812969Y-60538038D01*
X141812969Y-60538038D02*
X141860588Y-60633276D01*
X141860588Y-60633276D02*
X141908207Y-60823752D01*
X141908207Y-60823752D02*
X141908207Y-60966609D01*
X141908207Y-60966609D02*
X141860588Y-61157085D01*
X141860588Y-61157085D02*
X141812969Y-61252323D01*
X141812969Y-61252323D02*
X141717731Y-61347561D01*
X141717731Y-61347561D02*
X141574874Y-61395180D01*
X141574874Y-61395180D02*
X141479636Y-61395180D01*
X141479636Y-61395180D02*
X141336779Y-61347561D01*
X141336779Y-61347561D02*
X141289160Y-61299942D01*
X144717731Y-55425180D02*
X144717731Y-56425180D01*
X144717731Y-56425180D02*
X144336779Y-56425180D01*
X144336779Y-56425180D02*
X144241541Y-56377561D01*
X144241541Y-56377561D02*
X144193922Y-56329942D01*
X144193922Y-56329942D02*
X144146303Y-56234704D01*
X144146303Y-56234704D02*
X144146303Y-56091847D01*
X144146303Y-56091847D02*
X144193922Y-55996609D01*
X144193922Y-55996609D02*
X144241541Y-55948990D01*
X144241541Y-55948990D02*
X144336779Y-55901371D01*
X144336779Y-55901371D02*
X144717731Y-55901371D01*
X143527255Y-56425180D02*
X143432017Y-56425180D01*
X143432017Y-56425180D02*
X143336779Y-56377561D01*
X143336779Y-56377561D02*
X143289160Y-56329942D01*
X143289160Y-56329942D02*
X143241541Y-56234704D01*
X143241541Y-56234704D02*
X143193922Y-56044228D01*
X143193922Y-56044228D02*
X143193922Y-55806133D01*
X143193922Y-55806133D02*
X143241541Y-55615657D01*
X143241541Y-55615657D02*
X143289160Y-55520419D01*
X143289160Y-55520419D02*
X143336779Y-55472800D01*
X143336779Y-55472800D02*
X143432017Y-55425180D01*
X143432017Y-55425180D02*
X143527255Y-55425180D01*
X143527255Y-55425180D02*
X143622493Y-55472800D01*
X143622493Y-55472800D02*
X143670112Y-55520419D01*
X143670112Y-55520419D02*
X143717731Y-55615657D01*
X143717731Y-55615657D02*
X143765350Y-55806133D01*
X143765350Y-55806133D02*
X143765350Y-56044228D01*
X143765350Y-56044228D02*
X143717731Y-56234704D01*
X143717731Y-56234704D02*
X143670112Y-56329942D01*
X143670112Y-56329942D02*
X143622493Y-56377561D01*
X143622493Y-56377561D02*
X143527255Y-56425180D01*
X142574874Y-56425180D02*
X142479636Y-56425180D01*
X142479636Y-56425180D02*
X142384398Y-56377561D01*
X142384398Y-56377561D02*
X142336779Y-56329942D01*
X142336779Y-56329942D02*
X142289160Y-56234704D01*
X142289160Y-56234704D02*
X142241541Y-56044228D01*
X142241541Y-56044228D02*
X142241541Y-55806133D01*
X142241541Y-55806133D02*
X142289160Y-55615657D01*
X142289160Y-55615657D02*
X142336779Y-55520419D01*
X142336779Y-55520419D02*
X142384398Y-55472800D01*
X142384398Y-55472800D02*
X142479636Y-55425180D01*
X142479636Y-55425180D02*
X142574874Y-55425180D01*
X142574874Y-55425180D02*
X142670112Y-55472800D01*
X142670112Y-55472800D02*
X142717731Y-55520419D01*
X142717731Y-55520419D02*
X142765350Y-55615657D01*
X142765350Y-55615657D02*
X142812969Y-55806133D01*
X142812969Y-55806133D02*
X142812969Y-56044228D01*
X142812969Y-56044228D02*
X142765350Y-56234704D01*
X142765350Y-56234704D02*
X142717731Y-56329942D01*
X142717731Y-56329942D02*
X142670112Y-56377561D01*
X142670112Y-56377561D02*
X142574874Y-56425180D01*
X141384398Y-56425180D02*
X141574874Y-56425180D01*
X141574874Y-56425180D02*
X141670112Y-56377561D01*
X141670112Y-56377561D02*
X141717731Y-56329942D01*
X141717731Y-56329942D02*
X141812969Y-56187085D01*
X141812969Y-56187085D02*
X141860588Y-55996609D01*
X141860588Y-55996609D02*
X141860588Y-55615657D01*
X141860588Y-55615657D02*
X141812969Y-55520419D01*
X141812969Y-55520419D02*
X141765350Y-55472800D01*
X141765350Y-55472800D02*
X141670112Y-55425180D01*
X141670112Y-55425180D02*
X141479636Y-55425180D01*
X141479636Y-55425180D02*
X141384398Y-55472800D01*
X141384398Y-55472800D02*
X141336779Y-55520419D01*
X141336779Y-55520419D02*
X141289160Y-55615657D01*
X141289160Y-55615657D02*
X141289160Y-55853752D01*
X141289160Y-55853752D02*
X141336779Y-55948990D01*
X141336779Y-55948990D02*
X141384398Y-55996609D01*
X141384398Y-55996609D02*
X141479636Y-56044228D01*
X141479636Y-56044228D02*
X141670112Y-56044228D01*
X141670112Y-56044228D02*
X141765350Y-55996609D01*
X141765350Y-55996609D02*
X141812969Y-55948990D01*
X141812969Y-55948990D02*
X141860588Y-55853752D01*
D11*
%TO.C,MCU1*%
X105470000Y-52050000D02*
X136070000Y-52050000D01*
X105470000Y-54710000D02*
X105470000Y-52050000D01*
X105470000Y-54710000D02*
X136070000Y-54710000D01*
X105470000Y-67290000D02*
X136070000Y-67290000D01*
X105470000Y-69950000D02*
X105470000Y-67290000D01*
X105470000Y-69950000D02*
X136070000Y-69950000D01*
X108070000Y-67290000D02*
X108070000Y-69950000D01*
X136070000Y-54710000D02*
X136070000Y-52050000D01*
X136070000Y-69950000D02*
X136070000Y-67290000D01*
%TO.C,DISP1*%
X137870000Y-54590000D02*
X137870000Y-67410000D01*
X137870000Y-54590000D02*
X140530000Y-54590000D01*
X137870000Y-67410000D02*
X140530000Y-67410000D01*
X140530000Y-54590000D02*
X140530000Y-67410000D01*
%TD*%
M02*
