M48
; DRILL file {KiCad 9.0.8-1.fc43} date 2026-04-15T19:42:07-0700
; FORMAT={-:-/ absolute / metric / decimal}
; #@! TF.CreationDate,2026-04-15T19:42:07-07:00
; #@! TF.GenerationSoftware,Kicad,Pcbnew,9.0.8-1.fc43
; #@! TF.FileFunction,Plated,1,2,PTH
FMAT,2
METRIC
; #@! TA.AperFunction,Plated,PTH,ViaDrill
T1C0.300
; #@! TA.AperFunction,Plated,PTH,ComponentDrill
T2C0.500
; #@! TA.AperFunction,Plated,PTH,ComponentDrill
T3C0.750
; #@! TA.AperFunction,Plated,PTH,ComponentDrill
T4C1.000
%
G90
G05
T1
X93.008Y-101.386
X93.008Y-120.031
X102.433Y-158.686
X102.991Y-139.811
X105.227Y-87.006
X105.59Y-55.961
X109.035Y-66.953
X111.122Y-101.939
X111.122Y-120.031
X113.724Y-77.516
X114.019Y-143.753
X119.811Y-137.779
X119.811Y-173.62
X125.604Y-140.818
X128.346Y-116.873
X129.12Y-98.952
X130.313Y-70.024
X130.313Y-104.926
X131.396Y-125.833
X131.396Y-140.471
X131.722Y-152.751
X137.189Y-164.66
X148.131Y-99.101
X148.774Y-81.618
X148.774Y-113.886
X153.772Y-54.898
X154.567Y-56.748
X159.948Y-118.774
T3
X145.075Y-70.0
X147.075Y-70.0
T4
X106.8Y-53.38
X106.8Y-68.62
X109.34Y-53.38
X109.34Y-68.62
X111.88Y-53.38
X111.88Y-68.62
X114.42Y-53.38
X114.42Y-68.62
X116.96Y-53.38
X116.96Y-68.62
X119.5Y-53.38
X119.5Y-68.62
X122.04Y-53.38
X122.04Y-68.62
X124.58Y-53.38
X124.58Y-68.62
X127.12Y-53.38
X127.12Y-68.62
X129.66Y-53.38
X129.66Y-68.62
X132.2Y-53.38
X132.2Y-68.62
X134.74Y-53.38
X134.74Y-68.62
X139.2Y-55.92
X139.2Y-58.46
X139.2Y-61.0
X139.2Y-63.54
X139.2Y-66.08
T2
G00X97.25Y-136.75
M15
G01X97.75Y-136.75
M16
G05
G00X97.25Y-151.25
M15
G01X97.75Y-151.25
M16
G05
G00X99.75Y-151.25
M15
G01X100.25Y-151.25
M16
G05
G00X102.25Y-136.75
M15
G01X102.75Y-136.75
M16
G05
G00X102.25Y-151.25
M15
G01X102.75Y-151.25
M16
G05
G00X154.25Y-136.75
M15
G01X154.75Y-136.75
M16
G05
G00X154.25Y-151.25
M15
G01X154.75Y-151.25
M16
G05
G00X156.75Y-151.25
M15
G01X157.25Y-151.25
M16
G05
G00X159.25Y-136.75
M15
G01X159.75Y-136.75
M16
G05
G00X159.25Y-151.25
M15
G01X159.75Y-151.25
M16
G05
M30
