%TF.GenerationSoftware,KiCad,Pcbnew,9.0.8-1.fc43*%
%TF.CreationDate,2026-04-15T19:42:03-07:00*%
%TF.ProjectId,pekepadv,70656b65-7061-4647-962e-6b696361645f,0.0.3*%
%TF.SameCoordinates,Original*%
%TF.FileFunction,Legend,Bot*%
%TF.FilePolarity,Positive*%
%FSLAX46Y46*%
G04 Gerber Fmt 4.6, Leading zero omitted, Abs format (unit mm)*
G04 Created by KiCad (PCBNEW 9.0.8-1.fc43) date 2026-04-15 19:42:03*
%MOMM*%
%LPD*%
G01*
G04 APERTURE LIST*
%ADD10C,0.150000*%
%ADD11C,0.400000*%
%ADD12C,0.100000*%
%ADD13C,0.120000*%
G04 APERTURE END LIST*
D10*
X153694047Y-70454819D02*
X153503571Y-70454819D01*
X153503571Y-70454819D02*
X153408333Y-70502438D01*
X153408333Y-70502438D02*
X153313095Y-70597676D01*
X153313095Y-70597676D02*
X153265476Y-70788152D01*
X153265476Y-70788152D02*
X153265476Y-71121485D01*
X153265476Y-71121485D02*
X153313095Y-71311961D01*
X153313095Y-71311961D02*
X153408333Y-71407200D01*
X153408333Y-71407200D02*
X153503571Y-71454819D01*
X153503571Y-71454819D02*
X153694047Y-71454819D01*
X153694047Y-71454819D02*
X153789285Y-71407200D01*
X153789285Y-71407200D02*
X153884523Y-71311961D01*
X153884523Y-71311961D02*
X153932142Y-71121485D01*
X153932142Y-71121485D02*
X153932142Y-70788152D01*
X153932142Y-70788152D02*
X153884523Y-70597676D01*
X153884523Y-70597676D02*
X153789285Y-70502438D01*
X153789285Y-70502438D02*
X153694047Y-70454819D01*
X152836904Y-71454819D02*
X152836904Y-70454819D01*
X152836904Y-70454819D02*
X152265476Y-71454819D01*
X152265476Y-71454819D02*
X152265476Y-70454819D01*
X154027380Y-60454819D02*
X153836904Y-60454819D01*
X153836904Y-60454819D02*
X153741666Y-60502438D01*
X153741666Y-60502438D02*
X153646428Y-60597676D01*
X153646428Y-60597676D02*
X153598809Y-60788152D01*
X153598809Y-60788152D02*
X153598809Y-61121485D01*
X153598809Y-61121485D02*
X153646428Y-61311961D01*
X153646428Y-61311961D02*
X153741666Y-61407200D01*
X153741666Y-61407200D02*
X153836904Y-61454819D01*
X153836904Y-61454819D02*
X154027380Y-61454819D01*
X154027380Y-61454819D02*
X154122618Y-61407200D01*
X154122618Y-61407200D02*
X154217856Y-61311961D01*
X154217856Y-61311961D02*
X154265475Y-61121485D01*
X154265475Y-61121485D02*
X154265475Y-60788152D01*
X154265475Y-60788152D02*
X154217856Y-60597676D01*
X154217856Y-60597676D02*
X154122618Y-60502438D01*
X154122618Y-60502438D02*
X154027380Y-60454819D01*
X152836904Y-60931009D02*
X153170237Y-60931009D01*
X153170237Y-61454819D02*
X153170237Y-60454819D01*
X153170237Y-60454819D02*
X152694047Y-60454819D01*
X151979761Y-60931009D02*
X152313094Y-60931009D01*
X152313094Y-61454819D02*
X152313094Y-60454819D01*
X152313094Y-60454819D02*
X151836904Y-60454819D01*
D11*
%TO.C,S1*%
X100450000Y-113950000D02*
X100300000Y-114350000D01*
X100250000Y-114600000D01*
X100250000Y-114950000D01*
X100250000Y-115250000D01*
X100350000Y-115650000D01*
X100500000Y-116000000D01*
X100650000Y-116250000D01*
X100950000Y-116600000D01*
X101200000Y-116800000D01*
X101650000Y-117050000D01*
X99600000Y-117050000D01*
X99100000Y-117100000D01*
X98750000Y-117200000D01*
X98500000Y-117400000D01*
X98450000Y-116950000D01*
X98250000Y-116400000D01*
X97850000Y-115850000D01*
X97550000Y-115600000D01*
X97050000Y-115300000D01*
X96450000Y-115150000D01*
X95950000Y-115150000D01*
X95500000Y-115250000D01*
X95250000Y-115350000D01*
X94800000Y-115600000D01*
X94650000Y-115500000D01*
X94500000Y-115400000D01*
X94500000Y-115000000D01*
X94600000Y-114600000D01*
X94750000Y-114350000D01*
X94900000Y-114150000D01*
X95050000Y-114000000D01*
X95250000Y-113850000D01*
X95400000Y-113750000D01*
X95600000Y-113650000D01*
X95900000Y-113550000D01*
X96200000Y-113500000D01*
X96400000Y-113500000D01*
X100750000Y-113500000D01*
X100450000Y-113950000D01*
G36*
X100450000Y-113950000D02*
G01*
X100300000Y-114350000D01*
X100250000Y-114600000D01*
X100250000Y-114950000D01*
X100250000Y-115250000D01*
X100350000Y-115650000D01*
X100500000Y-116000000D01*
X100650000Y-116250000D01*
X100950000Y-116600000D01*
X101200000Y-116800000D01*
X101650000Y-117050000D01*
X99600000Y-117050000D01*
X99100000Y-117100000D01*
X98750000Y-117200000D01*
X98500000Y-117400000D01*
X98450000Y-116950000D01*
X98250000Y-116400000D01*
X97850000Y-115850000D01*
X97550000Y-115600000D01*
X97050000Y-115300000D01*
X96450000Y-115150000D01*
X95950000Y-115150000D01*
X95500000Y-115250000D01*
X95250000Y-115350000D01*
X94800000Y-115600000D01*
X94650000Y-115500000D01*
X94500000Y-115400000D01*
X94500000Y-115000000D01*
X94600000Y-114600000D01*
X94750000Y-114350000D01*
X94900000Y-114150000D01*
X95050000Y-114000000D01*
X95250000Y-113850000D01*
X95400000Y-113750000D01*
X95600000Y-113650000D01*
X95900000Y-113550000D01*
X96200000Y-113500000D01*
X96400000Y-113500000D01*
X100750000Y-113500000D01*
X100450000Y-113950000D01*
G37*
%TO.C,S2*%
X100450000Y-94950000D02*
X100300000Y-95350000D01*
X100250000Y-95600000D01*
X100250000Y-95950000D01*
X100250000Y-96250000D01*
X100350000Y-96650000D01*
X100500000Y-97000000D01*
X100650000Y-97250000D01*
X100950000Y-97600000D01*
X101200000Y-97800000D01*
X101650000Y-98050000D01*
X99600000Y-98050000D01*
X99100000Y-98100000D01*
X98750000Y-98200000D01*
X98500000Y-98400000D01*
X98450000Y-97950000D01*
X98250000Y-97400000D01*
X97850000Y-96850000D01*
X97550000Y-96600000D01*
X97050000Y-96300000D01*
X96450000Y-96150000D01*
X95950000Y-96150000D01*
X95500000Y-96250000D01*
X95250000Y-96350000D01*
X94800000Y-96600000D01*
X94650000Y-96500000D01*
X94500000Y-96400000D01*
X94500000Y-96000000D01*
X94600000Y-95600000D01*
X94750000Y-95350000D01*
X94900000Y-95150000D01*
X95050000Y-95000000D01*
X95250000Y-94850000D01*
X95400000Y-94750000D01*
X95600000Y-94650000D01*
X95900000Y-94550000D01*
X96200000Y-94500000D01*
X96400000Y-94500000D01*
X100750000Y-94500000D01*
X100450000Y-94950000D01*
G36*
X100450000Y-94950000D02*
G01*
X100300000Y-95350000D01*
X100250000Y-95600000D01*
X100250000Y-95950000D01*
X100250000Y-96250000D01*
X100350000Y-96650000D01*
X100500000Y-97000000D01*
X100650000Y-97250000D01*
X100950000Y-97600000D01*
X101200000Y-97800000D01*
X101650000Y-98050000D01*
X99600000Y-98050000D01*
X99100000Y-98100000D01*
X98750000Y-98200000D01*
X98500000Y-98400000D01*
X98450000Y-97950000D01*
X98250000Y-97400000D01*
X97850000Y-96850000D01*
X97550000Y-96600000D01*
X97050000Y-96300000D01*
X96450000Y-96150000D01*
X95950000Y-96150000D01*
X95500000Y-96250000D01*
X95250000Y-96350000D01*
X94800000Y-96600000D01*
X94650000Y-96500000D01*
X94500000Y-96400000D01*
X94500000Y-96000000D01*
X94600000Y-95600000D01*
X94750000Y-95350000D01*
X94900000Y-95150000D01*
X95050000Y-95000000D01*
X95250000Y-94850000D01*
X95400000Y-94750000D01*
X95600000Y-94650000D01*
X95900000Y-94550000D01*
X96200000Y-94500000D01*
X96400000Y-94500000D01*
X100750000Y-94500000D01*
X100450000Y-94950000D01*
G37*
%TO.C,S3*%
X100450000Y-75950000D02*
X100300000Y-76350000D01*
X100250000Y-76600000D01*
X100250000Y-76950000D01*
X100250000Y-77250000D01*
X100350000Y-77650000D01*
X100500000Y-78000000D01*
X100650000Y-78250000D01*
X100950000Y-78600000D01*
X101200000Y-78800000D01*
X101650000Y-79050000D01*
X99600000Y-79050000D01*
X99100000Y-79100000D01*
X98750000Y-79200000D01*
X98500000Y-79400000D01*
X98450000Y-78950000D01*
X98250000Y-78400000D01*
X97850000Y-77850000D01*
X97550000Y-77600000D01*
X97050000Y-77300000D01*
X96450000Y-77150000D01*
X95950000Y-77150000D01*
X95500000Y-77250000D01*
X95250000Y-77350000D01*
X94800000Y-77600000D01*
X94650000Y-77500000D01*
X94500000Y-77400000D01*
X94500000Y-77000000D01*
X94600000Y-76600000D01*
X94750000Y-76350000D01*
X94900000Y-76150000D01*
X95050000Y-76000000D01*
X95250000Y-75850000D01*
X95400000Y-75750000D01*
X95600000Y-75650000D01*
X95900000Y-75550000D01*
X96200000Y-75500000D01*
X96400000Y-75500000D01*
X100750000Y-75500000D01*
X100450000Y-75950000D01*
G36*
X100450000Y-75950000D02*
G01*
X100300000Y-76350000D01*
X100250000Y-76600000D01*
X100250000Y-76950000D01*
X100250000Y-77250000D01*
X100350000Y-77650000D01*
X100500000Y-78000000D01*
X100650000Y-78250000D01*
X100950000Y-78600000D01*
X101200000Y-78800000D01*
X101650000Y-79050000D01*
X99600000Y-79050000D01*
X99100000Y-79100000D01*
X98750000Y-79200000D01*
X98500000Y-79400000D01*
X98450000Y-78950000D01*
X98250000Y-78400000D01*
X97850000Y-77850000D01*
X97550000Y-77600000D01*
X97050000Y-77300000D01*
X96450000Y-77150000D01*
X95950000Y-77150000D01*
X95500000Y-77250000D01*
X95250000Y-77350000D01*
X94800000Y-77600000D01*
X94650000Y-77500000D01*
X94500000Y-77400000D01*
X94500000Y-77000000D01*
X94600000Y-76600000D01*
X94750000Y-76350000D01*
X94900000Y-76150000D01*
X95050000Y-76000000D01*
X95250000Y-75850000D01*
X95400000Y-75750000D01*
X95600000Y-75650000D01*
X95900000Y-75550000D01*
X96200000Y-75500000D01*
X96400000Y-75500000D01*
X100750000Y-75500000D01*
X100450000Y-75950000D01*
G37*
%TO.C,S4*%
X119450000Y-113950000D02*
X119300000Y-114350000D01*
X119250000Y-114600000D01*
X119250000Y-114950000D01*
X119250000Y-115250000D01*
X119350000Y-115650000D01*
X119500000Y-116000000D01*
X119650000Y-116250000D01*
X119950000Y-116600000D01*
X120200000Y-116800000D01*
X120650000Y-117050000D01*
X118600000Y-117050000D01*
X118100000Y-117100000D01*
X117750000Y-117200000D01*
X117500000Y-117400000D01*
X117450000Y-116950000D01*
X117250000Y-116400000D01*
X116850000Y-115850000D01*
X116550000Y-115600000D01*
X116050000Y-115300000D01*
X115450000Y-115150000D01*
X114950000Y-115150000D01*
X114500000Y-115250000D01*
X114250000Y-115350000D01*
X113800000Y-115600000D01*
X113650000Y-115500000D01*
X113500000Y-115400000D01*
X113500000Y-115000000D01*
X113600000Y-114600000D01*
X113750000Y-114350000D01*
X113900000Y-114150000D01*
X114050000Y-114000000D01*
X114250000Y-113850000D01*
X114400000Y-113750000D01*
X114600000Y-113650000D01*
X114900000Y-113550000D01*
X115200000Y-113500000D01*
X115400000Y-113500000D01*
X119750000Y-113500000D01*
X119450000Y-113950000D01*
G36*
X119450000Y-113950000D02*
G01*
X119300000Y-114350000D01*
X119250000Y-114600000D01*
X119250000Y-114950000D01*
X119250000Y-115250000D01*
X119350000Y-115650000D01*
X119500000Y-116000000D01*
X119650000Y-116250000D01*
X119950000Y-116600000D01*
X120200000Y-116800000D01*
X120650000Y-117050000D01*
X118600000Y-117050000D01*
X118100000Y-117100000D01*
X117750000Y-117200000D01*
X117500000Y-117400000D01*
X117450000Y-116950000D01*
X117250000Y-116400000D01*
X116850000Y-115850000D01*
X116550000Y-115600000D01*
X116050000Y-115300000D01*
X115450000Y-115150000D01*
X114950000Y-115150000D01*
X114500000Y-115250000D01*
X114250000Y-115350000D01*
X113800000Y-115600000D01*
X113650000Y-115500000D01*
X113500000Y-115400000D01*
X113500000Y-115000000D01*
X113600000Y-114600000D01*
X113750000Y-114350000D01*
X113900000Y-114150000D01*
X114050000Y-114000000D01*
X114250000Y-113850000D01*
X114400000Y-113750000D01*
X114600000Y-113650000D01*
X114900000Y-113550000D01*
X115200000Y-113500000D01*
X115400000Y-113500000D01*
X119750000Y-113500000D01*
X119450000Y-113950000D01*
G37*
%TO.C,S5*%
X119450000Y-94950000D02*
X119300000Y-95350000D01*
X119250000Y-95600000D01*
X119250000Y-95950000D01*
X119250000Y-96250000D01*
X119350000Y-96650000D01*
X119500000Y-97000000D01*
X119650000Y-97250000D01*
X119950000Y-97600000D01*
X120200000Y-97800000D01*
X120650000Y-98050000D01*
X118600000Y-98050000D01*
X118100000Y-98100000D01*
X117750000Y-98200000D01*
X117500000Y-98400000D01*
X117450000Y-97950000D01*
X117250000Y-97400000D01*
X116850000Y-96850000D01*
X116550000Y-96600000D01*
X116050000Y-96300000D01*
X115450000Y-96150000D01*
X114950000Y-96150000D01*
X114500000Y-96250000D01*
X114250000Y-96350000D01*
X113800000Y-96600000D01*
X113650000Y-96500000D01*
X113500000Y-96400000D01*
X113500000Y-96000000D01*
X113600000Y-95600000D01*
X113750000Y-95350000D01*
X113900000Y-95150000D01*
X114050000Y-95000000D01*
X114250000Y-94850000D01*
X114400000Y-94750000D01*
X114600000Y-94650000D01*
X114900000Y-94550000D01*
X115200000Y-94500000D01*
X115400000Y-94500000D01*
X119750000Y-94500000D01*
X119450000Y-94950000D01*
G36*
X119450000Y-94950000D02*
G01*
X119300000Y-95350000D01*
X119250000Y-95600000D01*
X119250000Y-95950000D01*
X119250000Y-96250000D01*
X119350000Y-96650000D01*
X119500000Y-97000000D01*
X119650000Y-97250000D01*
X119950000Y-97600000D01*
X120200000Y-97800000D01*
X120650000Y-98050000D01*
X118600000Y-98050000D01*
X118100000Y-98100000D01*
X117750000Y-98200000D01*
X117500000Y-98400000D01*
X117450000Y-97950000D01*
X117250000Y-97400000D01*
X116850000Y-96850000D01*
X116550000Y-96600000D01*
X116050000Y-96300000D01*
X115450000Y-96150000D01*
X114950000Y-96150000D01*
X114500000Y-96250000D01*
X114250000Y-96350000D01*
X113800000Y-96600000D01*
X113650000Y-96500000D01*
X113500000Y-96400000D01*
X113500000Y-96000000D01*
X113600000Y-95600000D01*
X113750000Y-95350000D01*
X113900000Y-95150000D01*
X114050000Y-95000000D01*
X114250000Y-94850000D01*
X114400000Y-94750000D01*
X114600000Y-94650000D01*
X114900000Y-94550000D01*
X115200000Y-94500000D01*
X115400000Y-94500000D01*
X119750000Y-94500000D01*
X119450000Y-94950000D01*
G37*
%TO.C,S6*%
X119450000Y-75950000D02*
X119300000Y-76350000D01*
X119250000Y-76600000D01*
X119250000Y-76950000D01*
X119250000Y-77250000D01*
X119350000Y-77650000D01*
X119500000Y-78000000D01*
X119650000Y-78250000D01*
X119950000Y-78600000D01*
X120200000Y-78800000D01*
X120650000Y-79050000D01*
X118600000Y-79050000D01*
X118100000Y-79100000D01*
X117750000Y-79200000D01*
X117500000Y-79400000D01*
X117450000Y-78950000D01*
X117250000Y-78400000D01*
X116850000Y-77850000D01*
X116550000Y-77600000D01*
X116050000Y-77300000D01*
X115450000Y-77150000D01*
X114950000Y-77150000D01*
X114500000Y-77250000D01*
X114250000Y-77350000D01*
X113800000Y-77600000D01*
X113650000Y-77500000D01*
X113500000Y-77400000D01*
X113500000Y-77000000D01*
X113600000Y-76600000D01*
X113750000Y-76350000D01*
X113900000Y-76150000D01*
X114050000Y-76000000D01*
X114250000Y-75850000D01*
X114400000Y-75750000D01*
X114600000Y-75650000D01*
X114900000Y-75550000D01*
X115200000Y-75500000D01*
X115400000Y-75500000D01*
X119750000Y-75500000D01*
X119450000Y-75950000D01*
G36*
X119450000Y-75950000D02*
G01*
X119300000Y-76350000D01*
X119250000Y-76600000D01*
X119250000Y-76950000D01*
X119250000Y-77250000D01*
X119350000Y-77650000D01*
X119500000Y-78000000D01*
X119650000Y-78250000D01*
X119950000Y-78600000D01*
X120200000Y-78800000D01*
X120650000Y-79050000D01*
X118600000Y-79050000D01*
X118100000Y-79100000D01*
X117750000Y-79200000D01*
X117500000Y-79400000D01*
X117450000Y-78950000D01*
X117250000Y-78400000D01*
X116850000Y-77850000D01*
X116550000Y-77600000D01*
X116050000Y-77300000D01*
X115450000Y-77150000D01*
X114950000Y-77150000D01*
X114500000Y-77250000D01*
X114250000Y-77350000D01*
X113800000Y-77600000D01*
X113650000Y-77500000D01*
X113500000Y-77400000D01*
X113500000Y-77000000D01*
X113600000Y-76600000D01*
X113750000Y-76350000D01*
X113900000Y-76150000D01*
X114050000Y-76000000D01*
X114250000Y-75850000D01*
X114400000Y-75750000D01*
X114600000Y-75650000D01*
X114900000Y-75550000D01*
X115200000Y-75500000D01*
X115400000Y-75500000D01*
X119750000Y-75500000D01*
X119450000Y-75950000D01*
G37*
%TO.C,S7*%
X138450000Y-113950000D02*
X138300000Y-114350000D01*
X138250000Y-114600000D01*
X138250000Y-114950000D01*
X138250000Y-115250000D01*
X138350000Y-115650000D01*
X138500000Y-116000000D01*
X138650000Y-116250000D01*
X138950000Y-116600000D01*
X139200000Y-116800000D01*
X139650000Y-117050000D01*
X137600000Y-117050000D01*
X137100000Y-117100000D01*
X136750000Y-117200000D01*
X136500000Y-117400000D01*
X136450000Y-116950000D01*
X136250000Y-116400000D01*
X135850000Y-115850000D01*
X135550000Y-115600000D01*
X135050000Y-115300000D01*
X134450000Y-115150000D01*
X133950000Y-115150000D01*
X133500000Y-115250000D01*
X133250000Y-115350000D01*
X132800000Y-115600000D01*
X132650000Y-115500000D01*
X132500000Y-115400000D01*
X132500000Y-115000000D01*
X132600000Y-114600000D01*
X132750000Y-114350000D01*
X132900000Y-114150000D01*
X133050000Y-114000000D01*
X133250000Y-113850000D01*
X133400000Y-113750000D01*
X133600000Y-113650000D01*
X133900000Y-113550000D01*
X134200000Y-113500000D01*
X134400000Y-113500000D01*
X138750000Y-113500000D01*
X138450000Y-113950000D01*
G36*
X138450000Y-113950000D02*
G01*
X138300000Y-114350000D01*
X138250000Y-114600000D01*
X138250000Y-114950000D01*
X138250000Y-115250000D01*
X138350000Y-115650000D01*
X138500000Y-116000000D01*
X138650000Y-116250000D01*
X138950000Y-116600000D01*
X139200000Y-116800000D01*
X139650000Y-117050000D01*
X137600000Y-117050000D01*
X137100000Y-117100000D01*
X136750000Y-117200000D01*
X136500000Y-117400000D01*
X136450000Y-116950000D01*
X136250000Y-116400000D01*
X135850000Y-115850000D01*
X135550000Y-115600000D01*
X135050000Y-115300000D01*
X134450000Y-115150000D01*
X133950000Y-115150000D01*
X133500000Y-115250000D01*
X133250000Y-115350000D01*
X132800000Y-115600000D01*
X132650000Y-115500000D01*
X132500000Y-115400000D01*
X132500000Y-115000000D01*
X132600000Y-114600000D01*
X132750000Y-114350000D01*
X132900000Y-114150000D01*
X133050000Y-114000000D01*
X133250000Y-113850000D01*
X133400000Y-113750000D01*
X133600000Y-113650000D01*
X133900000Y-113550000D01*
X134200000Y-113500000D01*
X134400000Y-113500000D01*
X138750000Y-113500000D01*
X138450000Y-113950000D01*
G37*
%TO.C,S8*%
X138450000Y-94950000D02*
X138300000Y-95350000D01*
X138250000Y-95600000D01*
X138250000Y-95950000D01*
X138250000Y-96250000D01*
X138350000Y-96650000D01*
X138500000Y-97000000D01*
X138650000Y-97250000D01*
X138950000Y-97600000D01*
X139200000Y-97800000D01*
X139650000Y-98050000D01*
X137600000Y-98050000D01*
X137100000Y-98100000D01*
X136750000Y-98200000D01*
X136500000Y-98400000D01*
X136450000Y-97950000D01*
X136250000Y-97400000D01*
X135850000Y-96850000D01*
X135550000Y-96600000D01*
X135050000Y-96300000D01*
X134450000Y-96150000D01*
X133950000Y-96150000D01*
X133500000Y-96250000D01*
X133250000Y-96350000D01*
X132800000Y-96600000D01*
X132650000Y-96500000D01*
X132500000Y-96400000D01*
X132500000Y-96000000D01*
X132600000Y-95600000D01*
X132750000Y-95350000D01*
X132900000Y-95150000D01*
X133050000Y-95000000D01*
X133250000Y-94850000D01*
X133400000Y-94750000D01*
X133600000Y-94650000D01*
X133900000Y-94550000D01*
X134200000Y-94500000D01*
X134400000Y-94500000D01*
X138750000Y-94500000D01*
X138450000Y-94950000D01*
G36*
X138450000Y-94950000D02*
G01*
X138300000Y-95350000D01*
X138250000Y-95600000D01*
X138250000Y-95950000D01*
X138250000Y-96250000D01*
X138350000Y-96650000D01*
X138500000Y-97000000D01*
X138650000Y-97250000D01*
X138950000Y-97600000D01*
X139200000Y-97800000D01*
X139650000Y-98050000D01*
X137600000Y-98050000D01*
X137100000Y-98100000D01*
X136750000Y-98200000D01*
X136500000Y-98400000D01*
X136450000Y-97950000D01*
X136250000Y-97400000D01*
X135850000Y-96850000D01*
X135550000Y-96600000D01*
X135050000Y-96300000D01*
X134450000Y-96150000D01*
X133950000Y-96150000D01*
X133500000Y-96250000D01*
X133250000Y-96350000D01*
X132800000Y-96600000D01*
X132650000Y-96500000D01*
X132500000Y-96400000D01*
X132500000Y-96000000D01*
X132600000Y-95600000D01*
X132750000Y-95350000D01*
X132900000Y-95150000D01*
X133050000Y-95000000D01*
X133250000Y-94850000D01*
X133400000Y-94750000D01*
X133600000Y-94650000D01*
X133900000Y-94550000D01*
X134200000Y-94500000D01*
X134400000Y-94500000D01*
X138750000Y-94500000D01*
X138450000Y-94950000D01*
G37*
%TO.C,S9*%
X138450000Y-75950000D02*
X138300000Y-76350000D01*
X138250000Y-76600000D01*
X138250000Y-76950000D01*
X138250000Y-77250000D01*
X138350000Y-77650000D01*
X138500000Y-78000000D01*
X138650000Y-78250000D01*
X138950000Y-78600000D01*
X139200000Y-78800000D01*
X139650000Y-79050000D01*
X137600000Y-79050000D01*
X137100000Y-79100000D01*
X136750000Y-79200000D01*
X136500000Y-79400000D01*
X136450000Y-78950000D01*
X136250000Y-78400000D01*
X135850000Y-77850000D01*
X135550000Y-77600000D01*
X135050000Y-77300000D01*
X134450000Y-77150000D01*
X133950000Y-77150000D01*
X133500000Y-77250000D01*
X133250000Y-77350000D01*
X132800000Y-77600000D01*
X132650000Y-77500000D01*
X132500000Y-77400000D01*
X132500000Y-77000000D01*
X132600000Y-76600000D01*
X132750000Y-76350000D01*
X132900000Y-76150000D01*
X133050000Y-76000000D01*
X133250000Y-75850000D01*
X133400000Y-75750000D01*
X133600000Y-75650000D01*
X133900000Y-75550000D01*
X134200000Y-75500000D01*
X134400000Y-75500000D01*
X138750000Y-75500000D01*
X138450000Y-75950000D01*
G36*
X138450000Y-75950000D02*
G01*
X138300000Y-76350000D01*
X138250000Y-76600000D01*
X138250000Y-76950000D01*
X138250000Y-77250000D01*
X138350000Y-77650000D01*
X138500000Y-78000000D01*
X138650000Y-78250000D01*
X138950000Y-78600000D01*
X139200000Y-78800000D01*
X139650000Y-79050000D01*
X137600000Y-79050000D01*
X137100000Y-79100000D01*
X136750000Y-79200000D01*
X136500000Y-79400000D01*
X136450000Y-78950000D01*
X136250000Y-78400000D01*
X135850000Y-77850000D01*
X135550000Y-77600000D01*
X135050000Y-77300000D01*
X134450000Y-77150000D01*
X133950000Y-77150000D01*
X133500000Y-77250000D01*
X133250000Y-77350000D01*
X132800000Y-77600000D01*
X132650000Y-77500000D01*
X132500000Y-77400000D01*
X132500000Y-77000000D01*
X132600000Y-76600000D01*
X132750000Y-76350000D01*
X132900000Y-76150000D01*
X133050000Y-76000000D01*
X133250000Y-75850000D01*
X133400000Y-75750000D01*
X133600000Y-75650000D01*
X133900000Y-75550000D01*
X134200000Y-75500000D01*
X134400000Y-75500000D01*
X138750000Y-75500000D01*
X138450000Y-75950000D01*
G37*
%TO.C,S10*%
X157450000Y-113950000D02*
X157300000Y-114350000D01*
X157250000Y-114600000D01*
X157250000Y-114950000D01*
X157250000Y-115250000D01*
X157350000Y-115650000D01*
X157500000Y-116000000D01*
X157650000Y-116250000D01*
X157950000Y-116600000D01*
X158200000Y-116800000D01*
X158650000Y-117050000D01*
X156600000Y-117050000D01*
X156100000Y-117100000D01*
X155750000Y-117200000D01*
X155500000Y-117400000D01*
X155450000Y-116950000D01*
X155250000Y-116400000D01*
X154850000Y-115850000D01*
X154550000Y-115600000D01*
X154050000Y-115300000D01*
X153450000Y-115150000D01*
X152950000Y-115150000D01*
X152500000Y-115250000D01*
X152250000Y-115350000D01*
X151800000Y-115600000D01*
X151650000Y-115500000D01*
X151500000Y-115400000D01*
X151500000Y-115000000D01*
X151600000Y-114600000D01*
X151750000Y-114350000D01*
X151900000Y-114150000D01*
X152050000Y-114000000D01*
X152250000Y-113850000D01*
X152400000Y-113750000D01*
X152600000Y-113650000D01*
X152900000Y-113550000D01*
X153200000Y-113500000D01*
X153400000Y-113500000D01*
X157750000Y-113500000D01*
X157450000Y-113950000D01*
G36*
X157450000Y-113950000D02*
G01*
X157300000Y-114350000D01*
X157250000Y-114600000D01*
X157250000Y-114950000D01*
X157250000Y-115250000D01*
X157350000Y-115650000D01*
X157500000Y-116000000D01*
X157650000Y-116250000D01*
X157950000Y-116600000D01*
X158200000Y-116800000D01*
X158650000Y-117050000D01*
X156600000Y-117050000D01*
X156100000Y-117100000D01*
X155750000Y-117200000D01*
X155500000Y-117400000D01*
X155450000Y-116950000D01*
X155250000Y-116400000D01*
X154850000Y-115850000D01*
X154550000Y-115600000D01*
X154050000Y-115300000D01*
X153450000Y-115150000D01*
X152950000Y-115150000D01*
X152500000Y-115250000D01*
X152250000Y-115350000D01*
X151800000Y-115600000D01*
X151650000Y-115500000D01*
X151500000Y-115400000D01*
X151500000Y-115000000D01*
X151600000Y-114600000D01*
X151750000Y-114350000D01*
X151900000Y-114150000D01*
X152050000Y-114000000D01*
X152250000Y-113850000D01*
X152400000Y-113750000D01*
X152600000Y-113650000D01*
X152900000Y-113550000D01*
X153200000Y-113500000D01*
X153400000Y-113500000D01*
X157750000Y-113500000D01*
X157450000Y-113950000D01*
G37*
%TO.C,S11*%
X157450000Y-94950000D02*
X157300000Y-95350000D01*
X157250000Y-95600000D01*
X157250000Y-95950000D01*
X157250000Y-96250000D01*
X157350000Y-96650000D01*
X157500000Y-97000000D01*
X157650000Y-97250000D01*
X157950000Y-97600000D01*
X158200000Y-97800000D01*
X158650000Y-98050000D01*
X156600000Y-98050000D01*
X156100000Y-98100000D01*
X155750000Y-98200000D01*
X155500000Y-98400000D01*
X155450000Y-97950000D01*
X155250000Y-97400000D01*
X154850000Y-96850000D01*
X154550000Y-96600000D01*
X154050000Y-96300000D01*
X153450000Y-96150000D01*
X152950000Y-96150000D01*
X152500000Y-96250000D01*
X152250000Y-96350000D01*
X151800000Y-96600000D01*
X151650000Y-96500000D01*
X151500000Y-96400000D01*
X151500000Y-96000000D01*
X151600000Y-95600000D01*
X151750000Y-95350000D01*
X151900000Y-95150000D01*
X152050000Y-95000000D01*
X152250000Y-94850000D01*
X152400000Y-94750000D01*
X152600000Y-94650000D01*
X152900000Y-94550000D01*
X153200000Y-94500000D01*
X153400000Y-94500000D01*
X157750000Y-94500000D01*
X157450000Y-94950000D01*
G36*
X157450000Y-94950000D02*
G01*
X157300000Y-95350000D01*
X157250000Y-95600000D01*
X157250000Y-95950000D01*
X157250000Y-96250000D01*
X157350000Y-96650000D01*
X157500000Y-97000000D01*
X157650000Y-97250000D01*
X157950000Y-97600000D01*
X158200000Y-97800000D01*
X158650000Y-98050000D01*
X156600000Y-98050000D01*
X156100000Y-98100000D01*
X155750000Y-98200000D01*
X155500000Y-98400000D01*
X155450000Y-97950000D01*
X155250000Y-97400000D01*
X154850000Y-96850000D01*
X154550000Y-96600000D01*
X154050000Y-96300000D01*
X153450000Y-96150000D01*
X152950000Y-96150000D01*
X152500000Y-96250000D01*
X152250000Y-96350000D01*
X151800000Y-96600000D01*
X151650000Y-96500000D01*
X151500000Y-96400000D01*
X151500000Y-96000000D01*
X151600000Y-95600000D01*
X151750000Y-95350000D01*
X151900000Y-95150000D01*
X152050000Y-95000000D01*
X152250000Y-94850000D01*
X152400000Y-94750000D01*
X152600000Y-94650000D01*
X152900000Y-94550000D01*
X153200000Y-94500000D01*
X153400000Y-94500000D01*
X157750000Y-94500000D01*
X157450000Y-94950000D01*
G37*
%TO.C,S12*%
X157450000Y-75950000D02*
X157300000Y-76350000D01*
X157250000Y-76600000D01*
X157250000Y-76950000D01*
X157250000Y-77250000D01*
X157350000Y-77650000D01*
X157500000Y-78000000D01*
X157650000Y-78250000D01*
X157950000Y-78600000D01*
X158200000Y-78800000D01*
X158650000Y-79050000D01*
X156600000Y-79050000D01*
X156100000Y-79100000D01*
X155750000Y-79200000D01*
X155500000Y-79400000D01*
X155450000Y-78950000D01*
X155250000Y-78400000D01*
X154850000Y-77850000D01*
X154550000Y-77600000D01*
X154050000Y-77300000D01*
X153450000Y-77150000D01*
X152950000Y-77150000D01*
X152500000Y-77250000D01*
X152250000Y-77350000D01*
X151800000Y-77600000D01*
X151650000Y-77500000D01*
X151500000Y-77400000D01*
X151500000Y-77000000D01*
X151600000Y-76600000D01*
X151750000Y-76350000D01*
X151900000Y-76150000D01*
X152050000Y-76000000D01*
X152250000Y-75850000D01*
X152400000Y-75750000D01*
X152600000Y-75650000D01*
X152900000Y-75550000D01*
X153200000Y-75500000D01*
X153400000Y-75500000D01*
X157750000Y-75500000D01*
X157450000Y-75950000D01*
G36*
X157450000Y-75950000D02*
G01*
X157300000Y-76350000D01*
X157250000Y-76600000D01*
X157250000Y-76950000D01*
X157250000Y-77250000D01*
X157350000Y-77650000D01*
X157500000Y-78000000D01*
X157650000Y-78250000D01*
X157950000Y-78600000D01*
X158200000Y-78800000D01*
X158650000Y-79050000D01*
X156600000Y-79050000D01*
X156100000Y-79100000D01*
X155750000Y-79200000D01*
X155500000Y-79400000D01*
X155450000Y-78950000D01*
X155250000Y-78400000D01*
X154850000Y-77850000D01*
X154550000Y-77600000D01*
X154050000Y-77300000D01*
X153450000Y-77150000D01*
X152950000Y-77150000D01*
X152500000Y-77250000D01*
X152250000Y-77350000D01*
X151800000Y-77600000D01*
X151650000Y-77500000D01*
X151500000Y-77400000D01*
X151500000Y-77000000D01*
X151600000Y-76600000D01*
X151750000Y-76350000D01*
X151900000Y-76150000D01*
X152050000Y-76000000D01*
X152250000Y-75850000D01*
X152400000Y-75750000D01*
X152600000Y-75650000D01*
X152900000Y-75550000D01*
X153200000Y-75500000D01*
X153400000Y-75500000D01*
X157750000Y-75500000D01*
X157450000Y-75950000D01*
G37*
%TO.C,S13*%
X109950000Y-161450000D02*
X109800000Y-161850000D01*
X109750000Y-162100000D01*
X109750000Y-162450000D01*
X109750000Y-162750000D01*
X109850000Y-163150000D01*
X110000000Y-163500000D01*
X110150000Y-163750000D01*
X110450000Y-164100000D01*
X110700000Y-164300000D01*
X111150000Y-164550000D01*
X109100000Y-164550000D01*
X108600000Y-164600000D01*
X108250000Y-164700000D01*
X108000000Y-164900000D01*
X107950000Y-164450000D01*
X107750000Y-163900000D01*
X107350000Y-163350000D01*
X107050000Y-163100000D01*
X106550000Y-162800000D01*
X105950000Y-162650000D01*
X105450000Y-162650000D01*
X105000000Y-162750000D01*
X104750000Y-162850000D01*
X104300000Y-163100000D01*
X104150000Y-163000000D01*
X104000000Y-162900000D01*
X104000000Y-162500000D01*
X104100000Y-162100000D01*
X104250000Y-161850000D01*
X104400000Y-161650000D01*
X104550000Y-161500000D01*
X104750000Y-161350000D01*
X104900000Y-161250000D01*
X105100000Y-161150000D01*
X105400000Y-161050000D01*
X105700000Y-161000000D01*
X105900000Y-161000000D01*
X110250000Y-161000000D01*
X109950000Y-161450000D01*
G36*
X109950000Y-161450000D02*
G01*
X109800000Y-161850000D01*
X109750000Y-162100000D01*
X109750000Y-162450000D01*
X109750000Y-162750000D01*
X109850000Y-163150000D01*
X110000000Y-163500000D01*
X110150000Y-163750000D01*
X110450000Y-164100000D01*
X110700000Y-164300000D01*
X111150000Y-164550000D01*
X109100000Y-164550000D01*
X108600000Y-164600000D01*
X108250000Y-164700000D01*
X108000000Y-164900000D01*
X107950000Y-164450000D01*
X107750000Y-163900000D01*
X107350000Y-163350000D01*
X107050000Y-163100000D01*
X106550000Y-162800000D01*
X105950000Y-162650000D01*
X105450000Y-162650000D01*
X105000000Y-162750000D01*
X104750000Y-162850000D01*
X104300000Y-163100000D01*
X104150000Y-163000000D01*
X104000000Y-162900000D01*
X104000000Y-162500000D01*
X104100000Y-162100000D01*
X104250000Y-161850000D01*
X104400000Y-161650000D01*
X104550000Y-161500000D01*
X104750000Y-161350000D01*
X104900000Y-161250000D01*
X105100000Y-161150000D01*
X105400000Y-161050000D01*
X105700000Y-161000000D01*
X105900000Y-161000000D01*
X110250000Y-161000000D01*
X109950000Y-161450000D01*
G37*
%TO.C,S14*%
X128950000Y-161450000D02*
X128800000Y-161850000D01*
X128750000Y-162100000D01*
X128750000Y-162450000D01*
X128750000Y-162750000D01*
X128850000Y-163150000D01*
X129000000Y-163500000D01*
X129150000Y-163750000D01*
X129450000Y-164100000D01*
X129700000Y-164300000D01*
X130150000Y-164550000D01*
X128100000Y-164550000D01*
X127600000Y-164600000D01*
X127250000Y-164700000D01*
X127000000Y-164900000D01*
X126950000Y-164450000D01*
X126750000Y-163900000D01*
X126350000Y-163350000D01*
X126050000Y-163100000D01*
X125550000Y-162800000D01*
X124950000Y-162650000D01*
X124450000Y-162650000D01*
X124000000Y-162750000D01*
X123750000Y-162850000D01*
X123300000Y-163100000D01*
X123150000Y-163000000D01*
X123000000Y-162900000D01*
X123000000Y-162500000D01*
X123100000Y-162100000D01*
X123250000Y-161850000D01*
X123400000Y-161650000D01*
X123550000Y-161500000D01*
X123750000Y-161350000D01*
X123900000Y-161250000D01*
X124100000Y-161150000D01*
X124400000Y-161050000D01*
X124700000Y-161000000D01*
X124900000Y-161000000D01*
X129250000Y-161000000D01*
X128950000Y-161450000D01*
G36*
X128950000Y-161450000D02*
G01*
X128800000Y-161850000D01*
X128750000Y-162100000D01*
X128750000Y-162450000D01*
X128750000Y-162750000D01*
X128850000Y-163150000D01*
X129000000Y-163500000D01*
X129150000Y-163750000D01*
X129450000Y-164100000D01*
X129700000Y-164300000D01*
X130150000Y-164550000D01*
X128100000Y-164550000D01*
X127600000Y-164600000D01*
X127250000Y-164700000D01*
X127000000Y-164900000D01*
X126950000Y-164450000D01*
X126750000Y-163900000D01*
X126350000Y-163350000D01*
X126050000Y-163100000D01*
X125550000Y-162800000D01*
X124950000Y-162650000D01*
X124450000Y-162650000D01*
X124000000Y-162750000D01*
X123750000Y-162850000D01*
X123300000Y-163100000D01*
X123150000Y-163000000D01*
X123000000Y-162900000D01*
X123000000Y-162500000D01*
X123100000Y-162100000D01*
X123250000Y-161850000D01*
X123400000Y-161650000D01*
X123550000Y-161500000D01*
X123750000Y-161350000D01*
X123900000Y-161250000D01*
X124100000Y-161150000D01*
X124400000Y-161050000D01*
X124700000Y-161000000D01*
X124900000Y-161000000D01*
X129250000Y-161000000D01*
X128950000Y-161450000D01*
G37*
%TO.C,S15*%
X128950000Y-142450000D02*
X128800000Y-142850000D01*
X128750000Y-143100000D01*
X128750000Y-143450000D01*
X128750000Y-143750000D01*
X128850000Y-144150000D01*
X129000000Y-144500000D01*
X129150000Y-144750000D01*
X129450000Y-145100000D01*
X129700000Y-145300000D01*
X130150000Y-145550000D01*
X128100000Y-145550000D01*
X127600000Y-145600000D01*
X127250000Y-145700000D01*
X127000000Y-145900000D01*
X126950000Y-145450000D01*
X126750000Y-144900000D01*
X126350000Y-144350000D01*
X126050000Y-144100000D01*
X125550000Y-143800000D01*
X124950000Y-143650000D01*
X124450000Y-143650000D01*
X124000000Y-143750000D01*
X123750000Y-143850000D01*
X123300000Y-144100000D01*
X123150000Y-144000000D01*
X123000000Y-143900000D01*
X123000000Y-143500000D01*
X123100000Y-143100000D01*
X123250000Y-142850000D01*
X123400000Y-142650000D01*
X123550000Y-142500000D01*
X123750000Y-142350000D01*
X123900000Y-142250000D01*
X124100000Y-142150000D01*
X124400000Y-142050000D01*
X124700000Y-142000000D01*
X124900000Y-142000000D01*
X129250000Y-142000000D01*
X128950000Y-142450000D01*
G36*
X128950000Y-142450000D02*
G01*
X128800000Y-142850000D01*
X128750000Y-143100000D01*
X128750000Y-143450000D01*
X128750000Y-143750000D01*
X128850000Y-144150000D01*
X129000000Y-144500000D01*
X129150000Y-144750000D01*
X129450000Y-145100000D01*
X129700000Y-145300000D01*
X130150000Y-145550000D01*
X128100000Y-145550000D01*
X127600000Y-145600000D01*
X127250000Y-145700000D01*
X127000000Y-145900000D01*
X126950000Y-145450000D01*
X126750000Y-144900000D01*
X126350000Y-144350000D01*
X126050000Y-144100000D01*
X125550000Y-143800000D01*
X124950000Y-143650000D01*
X124450000Y-143650000D01*
X124000000Y-143750000D01*
X123750000Y-143850000D01*
X123300000Y-144100000D01*
X123150000Y-144000000D01*
X123000000Y-143900000D01*
X123000000Y-143500000D01*
X123100000Y-143100000D01*
X123250000Y-142850000D01*
X123400000Y-142650000D01*
X123550000Y-142500000D01*
X123750000Y-142350000D01*
X123900000Y-142250000D01*
X124100000Y-142150000D01*
X124400000Y-142050000D01*
X124700000Y-142000000D01*
X124900000Y-142000000D01*
X129250000Y-142000000D01*
X128950000Y-142450000D01*
G37*
%TO.C,S16*%
X147950000Y-161450000D02*
X147800000Y-161850000D01*
X147750000Y-162100000D01*
X147750000Y-162450000D01*
X147750000Y-162750000D01*
X147850000Y-163150000D01*
X148000000Y-163500000D01*
X148150000Y-163750000D01*
X148450000Y-164100000D01*
X148700000Y-164300000D01*
X149150000Y-164550000D01*
X147100000Y-164550000D01*
X146600000Y-164600000D01*
X146250000Y-164700000D01*
X146000000Y-164900000D01*
X145950000Y-164450000D01*
X145750000Y-163900000D01*
X145350000Y-163350000D01*
X145050000Y-163100000D01*
X144550000Y-162800000D01*
X143950000Y-162650000D01*
X143450000Y-162650000D01*
X143000000Y-162750000D01*
X142750000Y-162850000D01*
X142300000Y-163100000D01*
X142150000Y-163000000D01*
X142000000Y-162900000D01*
X142000000Y-162500000D01*
X142100000Y-162100000D01*
X142250000Y-161850000D01*
X142400000Y-161650000D01*
X142550000Y-161500000D01*
X142750000Y-161350000D01*
X142900000Y-161250000D01*
X143100000Y-161150000D01*
X143400000Y-161050000D01*
X143700000Y-161000000D01*
X143900000Y-161000000D01*
X148250000Y-161000000D01*
X147950000Y-161450000D01*
G36*
X147950000Y-161450000D02*
G01*
X147800000Y-161850000D01*
X147750000Y-162100000D01*
X147750000Y-162450000D01*
X147750000Y-162750000D01*
X147850000Y-163150000D01*
X148000000Y-163500000D01*
X148150000Y-163750000D01*
X148450000Y-164100000D01*
X148700000Y-164300000D01*
X149150000Y-164550000D01*
X147100000Y-164550000D01*
X146600000Y-164600000D01*
X146250000Y-164700000D01*
X146000000Y-164900000D01*
X145950000Y-164450000D01*
X145750000Y-163900000D01*
X145350000Y-163350000D01*
X145050000Y-163100000D01*
X144550000Y-162800000D01*
X143950000Y-162650000D01*
X143450000Y-162650000D01*
X143000000Y-162750000D01*
X142750000Y-162850000D01*
X142300000Y-163100000D01*
X142150000Y-163000000D01*
X142000000Y-162900000D01*
X142000000Y-162500000D01*
X142100000Y-162100000D01*
X142250000Y-161850000D01*
X142400000Y-161650000D01*
X142550000Y-161500000D01*
X142750000Y-161350000D01*
X142900000Y-161250000D01*
X143100000Y-161150000D01*
X143400000Y-161050000D01*
X143700000Y-161000000D01*
X143900000Y-161000000D01*
X148250000Y-161000000D01*
X147950000Y-161450000D01*
G37*
D12*
%TO.C,D1*%
X99750000Y-125000000D02*
X99250000Y-125000000D01*
X99750000Y-124600000D02*
X100350000Y-125000000D01*
X99750000Y-125400000D02*
X99750000Y-124600000D01*
X100350000Y-125000000D02*
X99750000Y-125400000D01*
X100350000Y-125000000D02*
X100350000Y-124450000D01*
X100350000Y-125000000D02*
X100350000Y-125550000D01*
X100750000Y-125000000D02*
X100350000Y-125000000D01*
%TO.C,D2*%
X99750000Y-106000000D02*
X99250000Y-106000000D01*
X99750000Y-105600000D02*
X100350000Y-106000000D01*
X99750000Y-106400000D02*
X99750000Y-105600000D01*
X100350000Y-106000000D02*
X99750000Y-106400000D01*
X100350000Y-106000000D02*
X100350000Y-105450000D01*
X100350000Y-106000000D02*
X100350000Y-106550000D01*
X100750000Y-106000000D02*
X100350000Y-106000000D01*
%TO.C,D3*%
X99750000Y-87000000D02*
X99250000Y-87000000D01*
X99750000Y-86600000D02*
X100350000Y-87000000D01*
X99750000Y-87400000D02*
X99750000Y-86600000D01*
X100350000Y-87000000D02*
X99750000Y-87400000D01*
X100350000Y-87000000D02*
X100350000Y-86450000D01*
X100350000Y-87000000D02*
X100350000Y-87550000D01*
X100750000Y-87000000D02*
X100350000Y-87000000D01*
%TO.C,D4*%
X118750000Y-125000000D02*
X118250000Y-125000000D01*
X118750000Y-124600000D02*
X119350000Y-125000000D01*
X118750000Y-125400000D02*
X118750000Y-124600000D01*
X119350000Y-125000000D02*
X118750000Y-125400000D01*
X119350000Y-125000000D02*
X119350000Y-124450000D01*
X119350000Y-125000000D02*
X119350000Y-125550000D01*
X119750000Y-125000000D02*
X119350000Y-125000000D01*
%TO.C,D5*%
X118750000Y-106000000D02*
X118250000Y-106000000D01*
X118750000Y-105600000D02*
X119350000Y-106000000D01*
X118750000Y-106400000D02*
X118750000Y-105600000D01*
X119350000Y-106000000D02*
X118750000Y-106400000D01*
X119350000Y-106000000D02*
X119350000Y-105450000D01*
X119350000Y-106000000D02*
X119350000Y-106550000D01*
X119750000Y-106000000D02*
X119350000Y-106000000D01*
%TO.C,D6*%
X118750000Y-87000000D02*
X118250000Y-87000000D01*
X118750000Y-86600000D02*
X119350000Y-87000000D01*
X118750000Y-87400000D02*
X118750000Y-86600000D01*
X119350000Y-87000000D02*
X118750000Y-87400000D01*
X119350000Y-87000000D02*
X119350000Y-86450000D01*
X119350000Y-87000000D02*
X119350000Y-87550000D01*
X119750000Y-87000000D02*
X119350000Y-87000000D01*
%TO.C,D7*%
X137750000Y-125000000D02*
X137250000Y-125000000D01*
X137750000Y-124600000D02*
X138350000Y-125000000D01*
X137750000Y-125400000D02*
X137750000Y-124600000D01*
X138350000Y-125000000D02*
X137750000Y-125400000D01*
X138350000Y-125000000D02*
X138350000Y-124450000D01*
X138350000Y-125000000D02*
X138350000Y-125550000D01*
X138750000Y-125000000D02*
X138350000Y-125000000D01*
%TO.C,D8*%
X137750000Y-106000000D02*
X137250000Y-106000000D01*
X137750000Y-105600000D02*
X138350000Y-106000000D01*
X137750000Y-106400000D02*
X137750000Y-105600000D01*
X138350000Y-106000000D02*
X137750000Y-106400000D01*
X138350000Y-106000000D02*
X138350000Y-105450000D01*
X138350000Y-106000000D02*
X138350000Y-106550000D01*
X138750000Y-106000000D02*
X138350000Y-106000000D01*
%TO.C,D9*%
X137750000Y-87000000D02*
X137250000Y-87000000D01*
X137750000Y-86600000D02*
X138350000Y-87000000D01*
X137750000Y-87400000D02*
X137750000Y-86600000D01*
X138350000Y-87000000D02*
X137750000Y-87400000D01*
X138350000Y-87000000D02*
X138350000Y-86450000D01*
X138350000Y-87000000D02*
X138350000Y-87550000D01*
X138750000Y-87000000D02*
X138350000Y-87000000D01*
%TO.C,D10*%
X156750000Y-125000000D02*
X156250000Y-125000000D01*
X156750000Y-124600000D02*
X157350000Y-125000000D01*
X156750000Y-125400000D02*
X156750000Y-124600000D01*
X157350000Y-125000000D02*
X156750000Y-125400000D01*
X157350000Y-125000000D02*
X157350000Y-124450000D01*
X157350000Y-125000000D02*
X157350000Y-125550000D01*
X157750000Y-125000000D02*
X157350000Y-125000000D01*
%TO.C,D11*%
X156750000Y-106000000D02*
X156250000Y-106000000D01*
X156750000Y-105600000D02*
X157350000Y-106000000D01*
X156750000Y-106400000D02*
X156750000Y-105600000D01*
X157350000Y-106000000D02*
X156750000Y-106400000D01*
X157350000Y-106000000D02*
X157350000Y-105450000D01*
X157350000Y-106000000D02*
X157350000Y-106550000D01*
X157750000Y-106000000D02*
X157350000Y-106000000D01*
%TO.C,D12*%
X156750000Y-87000000D02*
X156250000Y-87000000D01*
X156750000Y-86600000D02*
X157350000Y-87000000D01*
X156750000Y-87400000D02*
X156750000Y-86600000D01*
X157350000Y-87000000D02*
X156750000Y-87400000D01*
X157350000Y-87000000D02*
X157350000Y-86450000D01*
X157350000Y-87000000D02*
X157350000Y-87550000D01*
X157750000Y-87000000D02*
X157350000Y-87000000D01*
%TO.C,D13*%
X109250000Y-172500000D02*
X108750000Y-172500000D01*
X109250000Y-172100000D02*
X109850000Y-172500000D01*
X109250000Y-172900000D02*
X109250000Y-172100000D01*
X109850000Y-172500000D02*
X109250000Y-172900000D01*
X109850000Y-172500000D02*
X109850000Y-171950000D01*
X109850000Y-172500000D02*
X109850000Y-173050000D01*
X110250000Y-172500000D02*
X109850000Y-172500000D01*
%TO.C,D14*%
X128250000Y-172500000D02*
X127750000Y-172500000D01*
X128250000Y-172100000D02*
X128850000Y-172500000D01*
X128250000Y-172900000D02*
X128250000Y-172100000D01*
X128850000Y-172500000D02*
X128250000Y-172900000D01*
X128850000Y-172500000D02*
X128850000Y-171950000D01*
X128850000Y-172500000D02*
X128850000Y-173050000D01*
X129250000Y-172500000D02*
X128850000Y-172500000D01*
%TO.C,D15*%
X128250000Y-153500000D02*
X127750000Y-153500000D01*
X128250000Y-153100000D02*
X128850000Y-153500000D01*
X128250000Y-153900000D02*
X128250000Y-153100000D01*
X128850000Y-153500000D02*
X128250000Y-153900000D01*
X128850000Y-153500000D02*
X128850000Y-152950000D01*
X128850000Y-153500000D02*
X128850000Y-154050000D01*
X129250000Y-153500000D02*
X128850000Y-153500000D01*
%TO.C,D16*%
X147250000Y-172500000D02*
X146750000Y-172500000D01*
X147250000Y-172100000D02*
X147850000Y-172500000D01*
X147250000Y-172900000D02*
X147250000Y-172100000D01*
X147850000Y-172500000D02*
X147250000Y-172900000D01*
X147850000Y-172500000D02*
X147850000Y-171950000D01*
X147850000Y-172500000D02*
X147850000Y-173050000D01*
X148250000Y-172500000D02*
X147850000Y-172500000D01*
%TO.C,D17*%
X99750000Y-139750000D02*
X99250000Y-139750000D01*
X99750000Y-139350000D02*
X100350000Y-139750000D01*
X99750000Y-140150000D02*
X99750000Y-139350000D01*
X100350000Y-139750000D02*
X99750000Y-140150000D01*
X100350000Y-139750000D02*
X100350000Y-139200000D01*
X100350000Y-139750000D02*
X100350000Y-140300000D01*
X100750000Y-139750000D02*
X100350000Y-139750000D01*
%TO.C,D18*%
X156750000Y-139750000D02*
X156250000Y-139750000D01*
X156750000Y-139350000D02*
X157350000Y-139750000D01*
X156750000Y-140150000D02*
X156750000Y-139350000D01*
X157350000Y-139750000D02*
X156750000Y-140150000D01*
X157350000Y-139750000D02*
X157350000Y-139200000D01*
X157350000Y-139750000D02*
X157350000Y-140300000D01*
X157750000Y-139750000D02*
X157350000Y-139750000D01*
%TO.C,RST1*%
X154575000Y-53650000D02*
X154825000Y-53650000D01*
X151575000Y-53650000D02*
X151325000Y-53650000D01*
X154825000Y-53900000D02*
X154825000Y-53650000D01*
X151325000Y-53900000D02*
X151325000Y-53650000D01*
X154825000Y-58100000D02*
X154825000Y-58350000D01*
X151325000Y-58100000D02*
X151325000Y-58350000D01*
X154575000Y-58350000D02*
X154825000Y-58350000D01*
X151575000Y-58350000D02*
X151325000Y-58350000D01*
D13*
%TO.C,PWR1*%
X151650000Y-67400000D02*
X151650000Y-67600000D01*
X153490000Y-69450000D02*
X152700000Y-69450000D01*
X152700000Y-62550000D02*
X153490000Y-62550000D01*
X151650000Y-64400000D02*
X151650000Y-66100000D01*
X154500000Y-63150000D02*
X154500000Y-68850000D01*
%TD*%
M02*
