%TF.GenerationSoftware,KiCad,Pcbnew,9.0.8-1.fc43*%
%TF.CreationDate,2026-04-14T18:58:31-07:00*%
%TF.ProjectId,pekepadv,70656b65-7061-4647-962e-6b696361645f,0.0.1*%
%TF.SameCoordinates,Original*%
%TF.FileFunction,Soldermask,Top*%
%TF.FilePolarity,Negative*%
%FSLAX46Y46*%
G04 Gerber Fmt 4.6, Leading zero omitted, Abs format (unit mm)*
G04 Created by KiCad (PCBNEW 9.0.8-1.fc43) date 2026-04-14 18:58:31*
%MOMM*%
%LPD*%
G01*
G04 APERTURE LIST*
G04 Aperture macros list*
%AMRoundRect*
0 Rectangle with rounded corners*
0 $1 Rounding radius*
0 $2 $3 $4 $5 $6 $7 $8 $9 X,Y pos of 4 corners*
0 Add a 4 corners polygon primitive as box body*
4,1,4,$2,$3,$4,$5,$6,$7,$8,$9,$2,$3,0*
0 Add four circle primitives for the rounded corners*
1,1,$1+$1,$2,$3*
1,1,$1+$1,$4,$5*
1,1,$1+$1,$6,$7*
1,1,$1+$1,$8,$9*
0 Add four rect primitives between the rounded corners*
20,1,$1+$1,$2,$3,$4,$5,0*
20,1,$1+$1,$4,$5,$6,$7,0*
20,1,$1+$1,$6,$7,$8,$9,0*
20,1,$1+$1,$8,$9,$2,$3,0*%
G04 Aperture macros list end*
%ADD10C,4.200000*%
%ADD11C,2.000000*%
%ADD12C,3.100000*%
%ADD13C,1.800000*%
%ADD14O,1.700000X1.200000*%
%ADD15O,1.600000X2.400000*%
%ADD16C,1.000000*%
%ADD17RoundRect,0.260000X0.390000X0.665000X-0.390000X0.665000X-0.390000X-0.665000X0.390000X-0.665000X0*%
%ADD18O,1.300000X1.850000*%
%ADD19C,2.300000*%
%ADD20O,1.800000X1.800000*%
G04 APERTURE END LIST*
D10*
%TO.C,S1*%
X100000000Y-120000000D03*
D11*
X105080000Y-120000000D03*
X94920000Y-120000000D03*
D12*
X102540000Y-114920000D03*
X96190000Y-117460000D03*
%TD*%
D10*
%TO.C,S2*%
X100000000Y-101000000D03*
D11*
X105080000Y-101000000D03*
X94920000Y-101000000D03*
D12*
X102540000Y-95920000D03*
X96190000Y-98460000D03*
%TD*%
D10*
%TO.C,S3*%
X100000000Y-82000000D03*
D11*
X105080000Y-82000000D03*
X94920000Y-82000000D03*
D12*
X102540000Y-76920000D03*
X96190000Y-79460000D03*
%TD*%
D10*
%TO.C,S4*%
X119000000Y-120000000D03*
D11*
X124080000Y-120000000D03*
X113920000Y-120000000D03*
D12*
X121540000Y-114920000D03*
X115190000Y-117460000D03*
%TD*%
D10*
%TO.C,S5*%
X119000000Y-101000000D03*
D11*
X124080000Y-101000000D03*
X113920000Y-101000000D03*
D12*
X121540000Y-95920000D03*
X115190000Y-98460000D03*
%TD*%
D10*
%TO.C,S6*%
X119000000Y-82000000D03*
D11*
X124080000Y-82000000D03*
X113920000Y-82000000D03*
D12*
X121540000Y-76920000D03*
X115190000Y-79460000D03*
%TD*%
D10*
%TO.C,S7*%
X138000000Y-120000000D03*
D11*
X143080000Y-120000000D03*
X132920000Y-120000000D03*
D12*
X140540000Y-114920000D03*
X134190000Y-117460000D03*
%TD*%
D10*
%TO.C,S8*%
X138000000Y-101000000D03*
D11*
X143080000Y-101000000D03*
X132920000Y-101000000D03*
D12*
X140540000Y-95920000D03*
X134190000Y-98460000D03*
%TD*%
D10*
%TO.C,S9*%
X138000000Y-82000000D03*
D11*
X143080000Y-82000000D03*
X132920000Y-82000000D03*
D12*
X140540000Y-76920000D03*
X134190000Y-79460000D03*
%TD*%
D10*
%TO.C,S10*%
X157000000Y-120000000D03*
D11*
X162080000Y-120000000D03*
X151920000Y-120000000D03*
D12*
X159540000Y-114920000D03*
X153190000Y-117460000D03*
%TD*%
D10*
%TO.C,S11*%
X157000000Y-101000000D03*
D11*
X162080000Y-101000000D03*
X151920000Y-101000000D03*
D12*
X159540000Y-95920000D03*
X153190000Y-98460000D03*
%TD*%
D10*
%TO.C,S12*%
X157000000Y-82000000D03*
D11*
X162080000Y-82000000D03*
X151920000Y-82000000D03*
D12*
X159540000Y-76920000D03*
X153190000Y-79460000D03*
%TD*%
D10*
%TO.C,S13*%
X109500000Y-167500000D03*
D11*
X114580000Y-167500000D03*
X104420000Y-167500000D03*
D12*
X112040000Y-162420000D03*
X105690000Y-164960000D03*
%TD*%
D10*
%TO.C,S14*%
X128500000Y-167500000D03*
D11*
X133580000Y-167500000D03*
X123420000Y-167500000D03*
D12*
X131040000Y-162420000D03*
X124690000Y-164960000D03*
%TD*%
D10*
%TO.C,S15*%
X128500000Y-148500000D03*
D11*
X133580000Y-148500000D03*
X123420000Y-148500000D03*
D12*
X131040000Y-143420000D03*
X124690000Y-145960000D03*
%TD*%
D10*
%TO.C,S16*%
X147500000Y-167500000D03*
D11*
X152580000Y-167500000D03*
X142420000Y-167500000D03*
D12*
X150040000Y-162420000D03*
X143690000Y-164960000D03*
%TD*%
D13*
%TO.C,MCU1*%
X106800000Y-68620000D03*
X106800000Y-53380000D03*
X109340000Y-68620000D03*
X109340000Y-53380000D03*
X111880000Y-68620000D03*
X111880000Y-53380000D03*
X114420000Y-68620000D03*
X114420000Y-53380000D03*
X116960000Y-68620000D03*
X116960000Y-53380000D03*
X119500000Y-68620000D03*
X119500000Y-53380000D03*
X122040000Y-68620000D03*
X122040000Y-53380000D03*
X124580000Y-68620000D03*
X124580000Y-53380000D03*
X127120000Y-68620000D03*
X127120000Y-53380000D03*
X129660000Y-68620000D03*
X129660000Y-53380000D03*
X132200000Y-68620000D03*
X132200000Y-53380000D03*
X134740000Y-68620000D03*
X134740000Y-53380000D03*
%TD*%
D14*
%TO.C,RE1*%
X102500000Y-151250000D03*
X100000000Y-151250000D03*
X97500000Y-151250000D03*
X97500000Y-136750000D03*
X102500000Y-136750000D03*
D15*
X94400000Y-143750000D03*
X105600000Y-143750000D03*
%TD*%
D14*
%TO.C,RE2*%
X159500000Y-151250000D03*
X157000000Y-151250000D03*
X154500000Y-151250000D03*
X154500000Y-136750000D03*
X159500000Y-136750000D03*
D15*
X151400000Y-143750000D03*
X162600000Y-143750000D03*
%TD*%
D16*
%TO.C,PWR1*%
X153100000Y-64500000D03*
X153100000Y-67500000D03*
%TD*%
D17*
%TO.C,JST1*%
X145075000Y-70000000D03*
D18*
X147075000Y-70000000D03*
%TD*%
D19*
%TO.C,MH1*%
X109500000Y-91500000D03*
%TD*%
%TO.C,MH2*%
X147500000Y-91500000D03*
%TD*%
%TO.C,MH3*%
X109500000Y-153250000D03*
%TD*%
%TO.C,MH4*%
X147500000Y-153250000D03*
%TD*%
D20*
%TO.C,DISP1*%
X139200000Y-66080000D03*
X139200000Y-63540000D03*
X139200000Y-61000000D03*
X139200000Y-58460000D03*
D13*
X139200000Y-55920000D03*
%TD*%
M02*
