%TF.GenerationSoftware,KiCad,Pcbnew,9.0.8-1.fc43*%
%TF.CreationDate,2026-04-14T18:58:31-07:00*%
%TF.ProjectId,pekepadv,70656b65-7061-4647-962e-6b696361645f,0.0.1*%
%TF.SameCoordinates,Original*%
%TF.FileFunction,Soldermask,Bot*%
%TF.FilePolarity,Negative*%
%FSLAX46Y46*%
G04 Gerber Fmt 4.6, Leading zero omitted, Abs format (unit mm)*
G04 Created by KiCad (PCBNEW 9.0.8-1.fc43) date 2026-04-14 18:58:31*
%MOMM*%
%LPD*%
G01*
G04 APERTURE LIST*
G04 Aperture macros list*
%AMRoundRect*
0 Rectangle with rounded corners*
0 $1 Rounding radius*
0 $2 $3 $4 $5 $6 $7 $8 $9 X,Y pos of 4 corners*
0 Add a 4 corners polygon primitive as box body*
4,1,4,$2,$3,$4,$5,$6,$7,$8,$9,$2,$3,0*
0 Add four circle primitives for the rounded corners*
1,1,$1+$1,$2,$3*
1,1,$1+$1,$4,$5*
1,1,$1+$1,$6,$7*
1,1,$1+$1,$8,$9*
0 Add four rect primitives between the rounded corners*
20,1,$1+$1,$2,$3,$4,$5,0*
20,1,$1+$1,$4,$5,$6,$7,0*
20,1,$1+$1,$6,$7,$8,$9,0*
20,1,$1+$1,$8,$9,$2,$3,0*%
G04 Aperture macros list end*
%ADD10C,4.200000*%
%ADD11C,2.000000*%
%ADD12C,3.100000*%
%ADD13RoundRect,0.050000X-1.275000X-1.250000X1.275000X-1.250000X1.275000X1.250000X-1.275000X1.250000X0*%
%ADD14RoundRect,0.050000X0.450000X0.600000X-0.450000X0.600000X-0.450000X-0.600000X0.450000X-0.600000X0*%
%ADD15C,1.800000*%
%ADD16O,1.700000X1.200000*%
%ADD17O,1.600000X2.400000*%
%ADD18RoundRect,0.050000X0.500000X-0.775000X0.500000X0.775000X-0.500000X0.775000X-0.500000X-0.775000X0*%
%ADD19RoundRect,0.050000X-0.400000X0.500000X-0.400000X-0.500000X0.400000X-0.500000X0.400000X0.500000X0*%
%ADD20RoundRect,0.050000X-0.750000X0.350000X-0.750000X-0.350000X0.750000X-0.350000X0.750000X0.350000X0*%
%ADD21C,1.000000*%
%ADD22RoundRect,0.260000X0.390000X0.665000X-0.390000X0.665000X-0.390000X-0.665000X0.390000X-0.665000X0*%
%ADD23O,1.300000X1.850000*%
%ADD24C,2.300000*%
%ADD25O,1.800000X1.800000*%
G04 APERTURE END LIST*
D10*
%TO.C,S1*%
X100000000Y-120000000D03*
D11*
X105080000Y-120000000D03*
X94920000Y-120000000D03*
D12*
X102540000Y-114920000D03*
X96190000Y-117460000D03*
D13*
X92915000Y-117460000D03*
X105842000Y-114920000D03*
%TD*%
D10*
%TO.C,S2*%
X100000000Y-101000000D03*
D11*
X105080000Y-101000000D03*
X94920000Y-101000000D03*
D12*
X102540000Y-95920000D03*
X96190000Y-98460000D03*
D13*
X92915000Y-98460000D03*
X105842000Y-95920000D03*
%TD*%
D10*
%TO.C,S3*%
X100000000Y-82000000D03*
D11*
X105080000Y-82000000D03*
X94920000Y-82000000D03*
D12*
X102540000Y-76920000D03*
X96190000Y-79460000D03*
D13*
X92915000Y-79460000D03*
X105842000Y-76920000D03*
%TD*%
D10*
%TO.C,S4*%
X119000000Y-120000000D03*
D11*
X124080000Y-120000000D03*
X113920000Y-120000000D03*
D12*
X121540000Y-114920000D03*
X115190000Y-117460000D03*
D13*
X111915000Y-117460000D03*
X124842000Y-114920000D03*
%TD*%
D10*
%TO.C,S5*%
X119000000Y-101000000D03*
D11*
X124080000Y-101000000D03*
X113920000Y-101000000D03*
D12*
X121540000Y-95920000D03*
X115190000Y-98460000D03*
D13*
X111915000Y-98460000D03*
X124842000Y-95920000D03*
%TD*%
D10*
%TO.C,S6*%
X119000000Y-82000000D03*
D11*
X124080000Y-82000000D03*
X113920000Y-82000000D03*
D12*
X121540000Y-76920000D03*
X115190000Y-79460000D03*
D13*
X111915000Y-79460000D03*
X124842000Y-76920000D03*
%TD*%
D10*
%TO.C,S7*%
X138000000Y-120000000D03*
D11*
X143080000Y-120000000D03*
X132920000Y-120000000D03*
D12*
X140540000Y-114920000D03*
X134190000Y-117460000D03*
D13*
X130915000Y-117460000D03*
X143842000Y-114920000D03*
%TD*%
D10*
%TO.C,S8*%
X138000000Y-101000000D03*
D11*
X143080000Y-101000000D03*
X132920000Y-101000000D03*
D12*
X140540000Y-95920000D03*
X134190000Y-98460000D03*
D13*
X130915000Y-98460000D03*
X143842000Y-95920000D03*
%TD*%
D10*
%TO.C,S9*%
X138000000Y-82000000D03*
D11*
X143080000Y-82000000D03*
X132920000Y-82000000D03*
D12*
X140540000Y-76920000D03*
X134190000Y-79460000D03*
D13*
X130915000Y-79460000D03*
X143842000Y-76920000D03*
%TD*%
D10*
%TO.C,S10*%
X157000000Y-120000000D03*
D11*
X162080000Y-120000000D03*
X151920000Y-120000000D03*
D12*
X159540000Y-114920000D03*
X153190000Y-117460000D03*
D13*
X149915000Y-117460000D03*
X162842000Y-114920000D03*
%TD*%
D10*
%TO.C,S11*%
X157000000Y-101000000D03*
D11*
X162080000Y-101000000D03*
X151920000Y-101000000D03*
D12*
X159540000Y-95920000D03*
X153190000Y-98460000D03*
D13*
X149915000Y-98460000D03*
X162842000Y-95920000D03*
%TD*%
D10*
%TO.C,S12*%
X157000000Y-82000000D03*
D11*
X162080000Y-82000000D03*
X151920000Y-82000000D03*
D12*
X159540000Y-76920000D03*
X153190000Y-79460000D03*
D13*
X149915000Y-79460000D03*
X162842000Y-76920000D03*
%TD*%
D10*
%TO.C,S13*%
X109500000Y-167500000D03*
D11*
X114580000Y-167500000D03*
X104420000Y-167500000D03*
D12*
X112040000Y-162420000D03*
X105690000Y-164960000D03*
D13*
X102415000Y-164960000D03*
X115342000Y-162420000D03*
%TD*%
D10*
%TO.C,S14*%
X128500000Y-167500000D03*
D11*
X133580000Y-167500000D03*
X123420000Y-167500000D03*
D12*
X131040000Y-162420000D03*
X124690000Y-164960000D03*
D13*
X121415000Y-164960000D03*
X134342000Y-162420000D03*
%TD*%
D10*
%TO.C,S15*%
X128500000Y-148500000D03*
D11*
X133580000Y-148500000D03*
X123420000Y-148500000D03*
D12*
X131040000Y-143420000D03*
X124690000Y-145960000D03*
D13*
X121415000Y-145960000D03*
X134342000Y-143420000D03*
%TD*%
D10*
%TO.C,S16*%
X147500000Y-167500000D03*
D11*
X152580000Y-167500000D03*
X142420000Y-167500000D03*
D12*
X150040000Y-162420000D03*
X143690000Y-164960000D03*
D13*
X140415000Y-164960000D03*
X153342000Y-162420000D03*
%TD*%
D14*
%TO.C,D1*%
X101650000Y-125000000D03*
X98350000Y-125000000D03*
%TD*%
%TO.C,D2*%
X101650000Y-106000000D03*
X98350000Y-106000000D03*
%TD*%
%TO.C,D3*%
X101650000Y-87000000D03*
X98350000Y-87000000D03*
%TD*%
%TO.C,D4*%
X120650000Y-125000000D03*
X117350000Y-125000000D03*
%TD*%
%TO.C,D5*%
X120650000Y-106000000D03*
X117350000Y-106000000D03*
%TD*%
%TO.C,D6*%
X120650000Y-87000000D03*
X117350000Y-87000000D03*
%TD*%
%TO.C,D7*%
X139650000Y-125000000D03*
X136350000Y-125000000D03*
%TD*%
%TO.C,D8*%
X139650000Y-106000000D03*
X136350000Y-106000000D03*
%TD*%
%TO.C,D9*%
X139650000Y-87000000D03*
X136350000Y-87000000D03*
%TD*%
%TO.C,D10*%
X158650000Y-125000000D03*
X155350000Y-125000000D03*
%TD*%
%TO.C,D11*%
X158650000Y-106000000D03*
X155350000Y-106000000D03*
%TD*%
%TO.C,D12*%
X158650000Y-87000000D03*
X155350000Y-87000000D03*
%TD*%
%TO.C,D13*%
X111150000Y-172500000D03*
X107850000Y-172500000D03*
%TD*%
%TO.C,D14*%
X130150000Y-172500000D03*
X126850000Y-172500000D03*
%TD*%
%TO.C,D15*%
X130150000Y-153500000D03*
X126850000Y-153500000D03*
%TD*%
%TO.C,D16*%
X149150000Y-172500000D03*
X145850000Y-172500000D03*
%TD*%
%TO.C,D17*%
X101650000Y-139750000D03*
X98350000Y-139750000D03*
%TD*%
%TO.C,D18*%
X158650000Y-139750000D03*
X155350000Y-139750000D03*
%TD*%
D15*
%TO.C,MCU1*%
X106800000Y-68620000D03*
X106800000Y-53380000D03*
X109340000Y-68620000D03*
X109340000Y-53380000D03*
X111880000Y-68620000D03*
X111880000Y-53380000D03*
X114420000Y-68620000D03*
X114420000Y-53380000D03*
X116960000Y-68620000D03*
X116960000Y-53380000D03*
X119500000Y-68620000D03*
X119500000Y-53380000D03*
X122040000Y-68620000D03*
X122040000Y-53380000D03*
X124580000Y-68620000D03*
X124580000Y-53380000D03*
X127120000Y-68620000D03*
X127120000Y-53380000D03*
X129660000Y-68620000D03*
X129660000Y-53380000D03*
X132200000Y-68620000D03*
X132200000Y-53380000D03*
X134740000Y-68620000D03*
X134740000Y-53380000D03*
%TD*%
D16*
%TO.C,RE1*%
X102500000Y-151250000D03*
X100000000Y-151250000D03*
X97500000Y-151250000D03*
X97500000Y-136750000D03*
X102500000Y-136750000D03*
D17*
X94400000Y-143750000D03*
X105600000Y-143750000D03*
%TD*%
D16*
%TO.C,RE2*%
X159500000Y-151250000D03*
X157000000Y-151250000D03*
X154500000Y-151250000D03*
X154500000Y-136750000D03*
X159500000Y-136750000D03*
D17*
X151400000Y-143750000D03*
X162600000Y-143750000D03*
%TD*%
D18*
%TO.C,RST1*%
X153925000Y-53375000D03*
X152225000Y-53375000D03*
X153925000Y-58625000D03*
X152225000Y-58625000D03*
%TD*%
D19*
%TO.C,PWR1*%
X151990000Y-62350000D03*
X154200000Y-62350000D03*
X151990000Y-69650000D03*
X154200000Y-69650000D03*
D20*
X151340000Y-63750000D03*
X151340000Y-66750000D03*
X151340000Y-68250000D03*
D21*
X153100000Y-64500000D03*
X153100000Y-67500000D03*
%TD*%
D22*
%TO.C,JST1*%
X145075000Y-70000000D03*
D23*
X147075000Y-70000000D03*
%TD*%
D24*
%TO.C,MH1*%
X109500000Y-91500000D03*
%TD*%
%TO.C,MH2*%
X147500000Y-91500000D03*
%TD*%
%TO.C,MH3*%
X109500000Y-153250000D03*
%TD*%
%TO.C,MH4*%
X147500000Y-153250000D03*
%TD*%
D25*
%TO.C,DISP1*%
X139200000Y-66080000D03*
X139200000Y-63540000D03*
X139200000Y-61000000D03*
X139200000Y-58460000D03*
D15*
X139200000Y-55920000D03*
%TD*%
M02*
