%TF.GenerationSoftware,KiCad,Pcbnew,9.0.8-1.fc43*%
%TF.CreationDate,2026-04-15T19:42:03-07:00*%
%TF.ProjectId,pekepadv,70656b65-7061-4647-962e-6b696361645f,0.0.3*%
%TF.SameCoordinates,Original*%
%TF.FileFunction,Profile,NP*%
%FSLAX46Y46*%
G04 Gerber Fmt 4.6, Leading zero omitted, Abs format (unit mm)*
G04 Created by KiCad (PCBNEW 9.0.8-1.fc43) date 2026-04-15 19:42:03*
%MOMM*%
%LPD*%
G01*
G04 APERTURE LIST*
%TA.AperFunction,Profile*%
%ADD10C,0.150000*%
%TD*%
G04 APERTURE END LIST*
D10*
X89500000Y-128500000D02*
X89500000Y-73500000D01*
X90500000Y-130232051D02*
G75*
G02*
X89500000Y-128500000I1000000J1732051D01*
G01*
X91500000Y-71500000D02*
X103384099Y-71500000D01*
X155615901Y-71500000D02*
X165500000Y-71500000D01*
X89500000Y-73500000D02*
G75*
G02*
X91500000Y-71500000I2000000J0D01*
G01*
X167500000Y-128500000D02*
G75*
G02*
X166500000Y-130232051I-2000000J0D01*
G01*
X167500000Y-128500000D02*
X167500000Y-73500000D01*
X165500000Y-71500000D02*
G75*
G02*
X167500000Y-73500000I0J-2000000D01*
G01*
X101000000Y-178000000D02*
X156000000Y-178000000D01*
X99000000Y-165770330D02*
X99000000Y-176000000D01*
X101000000Y-178000000D02*
G75*
G02*
X99000000Y-176000000I0J2000000D01*
G01*
X158000000Y-176000000D02*
G75*
G02*
X156000000Y-178000000I-2000000J0D01*
G01*
X158000000Y-176000000D02*
X158000000Y-165770330D01*
X91500000Y-154250000D02*
X94700000Y-154250000D01*
X89500000Y-135250000D02*
G75*
G02*
X90500000Y-133517949I2000000J0D01*
G01*
X89500000Y-135250000D02*
X89500000Y-152250000D01*
X91500000Y-154250000D02*
G75*
G02*
X89500000Y-152250000I0J2000000D01*
G01*
X162300000Y-154250000D02*
X165500000Y-154250000D01*
X167500000Y-152250000D02*
G75*
G02*
X165500000Y-154250000I-2000000J0D01*
G01*
X167500000Y-152250000D02*
X167500000Y-135250000D01*
X166500000Y-133517949D02*
G75*
G02*
X167500000Y-135250000I-1000000J-1732051D01*
G01*
X90500000Y-130232051D02*
X90500000Y-133517949D01*
X94700000Y-154250000D02*
X98713907Y-164284767D01*
X158286093Y-164284767D02*
X162300000Y-154250000D01*
X166500000Y-133517949D02*
X166500000Y-130232051D01*
X158000000Y-165770330D02*
G75*
G02*
X158286083Y-164284763I4000000J30D01*
G01*
X98713907Y-164284767D02*
G75*
G02*
X98999989Y-165770330I-3713907J-1485533D01*
G01*
X156075000Y-70225000D02*
X156075000Y-51775000D01*
X154075000Y-49775000D02*
G75*
G02*
X156075000Y-51775000I0J-2000000D01*
G01*
X154075000Y-49775000D02*
X104925000Y-49775000D01*
X102925000Y-51775000D02*
G75*
G02*
X104925000Y-49775000I2000000J0D01*
G01*
X102925000Y-51775000D02*
X102925000Y-70225000D01*
X103384099Y-71500000D02*
G75*
G02*
X102925000Y-70225000I1540901J1275000D01*
G01*
X156075000Y-70225000D02*
G75*
G02*
X155615901Y-71500000I-2000000J0D01*
G01*
X112000000Y-91500000D02*
G75*
G02*
X107000000Y-91500000I-2500000J0D01*
G01*
X107000000Y-91500000D02*
G75*
G02*
X112000000Y-91500000I2500000J0D01*
G01*
X150000000Y-91500000D02*
G75*
G02*
X145000000Y-91500000I-2500000J0D01*
G01*
X145000000Y-91500000D02*
G75*
G02*
X150000000Y-91500000I2500000J0D01*
G01*
X112000000Y-153250000D02*
G75*
G02*
X107000000Y-153250000I-2500000J0D01*
G01*
X107000000Y-153250000D02*
G75*
G02*
X112000000Y-153250000I2500000J0D01*
G01*
X150000000Y-153250000D02*
G75*
G02*
X145000000Y-153250000I-2500000J0D01*
G01*
X145000000Y-153250000D02*
G75*
G02*
X150000000Y-153250000I2500000J0D01*
G01*
M02*
