%TF.GenerationSoftware,KiCad,Pcbnew,9.0.8-1.fc43*%
%TF.CreationDate,2026-04-14T18:29:21-07:00*%
%TF.ProjectId,pepekey,70657065-6b65-4792-9e6b-696361645f70,0.1.0*%
%TF.SameCoordinates,Original*%
%TF.FileFunction,Profile,NP*%
%FSLAX46Y46*%
G04 Gerber Fmt 4.6, Leading zero omitted, Abs format (unit mm)*
G04 Created by KiCad (PCBNEW 9.0.8-1.fc43) date 2026-04-14 18:29:21*
%MOMM*%
%LPD*%
G01*
G04 APERTURE LIST*
%TA.AperFunction,Profile*%
%ADD10C,0.150000*%
%TD*%
G04 APERTURE END LIST*
D10*
X91500000Y-130500000D02*
X127500000Y-130500000D01*
X89500000Y-128500000D02*
X89500000Y-54500000D01*
X91500000Y-130500000D02*
G75*
G02*
X89500000Y-128500000I0J2000000D01*
G01*
X91500000Y-52500000D02*
X117500000Y-52500000D01*
X89500000Y-54500000D02*
G75*
G02*
X91500000Y-52500000I2000000J0D01*
G01*
X129500000Y-128500000D02*
G75*
G02*
X127500000Y-130500000I-2000000J0D01*
G01*
X129500000Y-128500000D02*
X129500000Y-125500000D01*
X139500000Y-116250000D02*
X139500000Y-117500000D01*
X135500000Y-121500000D02*
X133500000Y-121500000D01*
X139500000Y-116250000D02*
X146500000Y-116250000D01*
X148500000Y-114250000D02*
G75*
G02*
X146500000Y-116250000I-2000000J0D01*
G01*
X148500000Y-114250000D02*
X148500000Y-111500000D01*
X121500000Y-47250000D02*
X123500000Y-47250000D01*
X117500000Y-52500000D02*
X117500000Y-51250000D01*
X129500000Y-38250000D02*
X146500000Y-38250000D01*
X127500000Y-40250000D02*
G75*
G02*
X129500000Y-38250000I2000000J0D01*
G01*
X127500000Y-40250000D02*
X127500000Y-43250000D01*
X148500000Y-111500000D02*
X165500000Y-111500000D01*
X167500000Y-38250000D02*
X167500000Y-35500000D01*
X165500000Y-33500000D02*
G75*
G02*
X167500000Y-35500000I0J-2000000D01*
G01*
X165500000Y-33500000D02*
X148500000Y-33500000D01*
X146500000Y-35500000D02*
G75*
G02*
X148500000Y-33500000I2000000J0D01*
G01*
X146500000Y-35500000D02*
X146500000Y-38250000D01*
X167500000Y-116250000D02*
X175285644Y-116250000D01*
X165500000Y-111500000D02*
X165500000Y-114250000D01*
X167500000Y-116250000D02*
G75*
G02*
X165500000Y-114250000I0J2000000D01*
G01*
X186500000Y-40625000D02*
X186500000Y-40250000D01*
X184500000Y-38250000D02*
G75*
G02*
X186500000Y-40250000I0J-2000000D01*
G01*
X167500000Y-38250000D02*
X184500000Y-38250000D01*
X205500000Y-116625000D02*
G75*
G02*
X204777076Y-118164180I-2000000J0D01*
G01*
X205500000Y-116625000D02*
X205500000Y-90411528D01*
X205500000Y-43888473D02*
X205500000Y-42625000D01*
X203500000Y-40625000D02*
G75*
G02*
X205500000Y-42625000I0J-2000000D01*
G01*
X186500000Y-40625000D02*
X203500000Y-40625000D01*
X173454114Y-138154666D02*
X190195845Y-141106685D01*
X191047945Y-141072315D02*
G75*
G02*
X190195842Y-141106703I-504845J1935215D01*
G01*
X171835116Y-135818920D02*
X175285644Y-116250000D01*
X171835116Y-135818920D02*
X171831795Y-135837754D01*
X173454114Y-138154666D02*
G75*
G02*
X171831843Y-135837762I347286J1969566D01*
G01*
X192936782Y-141750887D02*
X208911556Y-147565229D01*
X210457632Y-147490531D02*
G75*
G02*
X208911557Y-147565225I-862032J1804731D01*
G01*
X192936782Y-141750887D02*
G75*
G02*
X192700902Y-141647378I684018J1879287D01*
G01*
X211498987Y-148675602D02*
X226221419Y-157175602D01*
X228953470Y-156443551D02*
G75*
G02*
X226221397Y-157175640I-1732070J999951D01*
G01*
X228953470Y-156443551D02*
X237453470Y-141721120D01*
X236721419Y-138989069D02*
G75*
G02*
X237453440Y-141721103I-1000019J-1732031D01*
G01*
X236721419Y-138989069D02*
X221998987Y-130489069D01*
X220481349Y-130289268D02*
G75*
G02*
X221998991Y-130489062I517651J-1931832D01*
G01*
X211498987Y-148675602D02*
G75*
G02*
X210567170Y-147461180I1000013J1732002D01*
G01*
X129500000Y-125500000D02*
G75*
G02*
X133500000Y-121500000I4000000J0D01*
G01*
X139500000Y-117500000D02*
G75*
G02*
X135500000Y-121500000I-4000000J0D01*
G01*
X127500000Y-43250000D02*
G75*
G02*
X123500000Y-47250000I-4000000J0D01*
G01*
X117500000Y-51250000D02*
G75*
G02*
X121500000Y-47250000I4000000J0D01*
G01*
X191222383Y-141125125D02*
X192700901Y-141647380D01*
X210457632Y-147490531D02*
X210567135Y-147461189D01*
X220481349Y-130289268D02*
X220326505Y-129711384D01*
X220158425Y-129286095D02*
X218951489Y-127028488D01*
X218219377Y-126258032D02*
X204777076Y-118164180D01*
X191047945Y-141072315D02*
G75*
G02*
X191222382Y-141125128I-491745J-1938685D01*
G01*
X220158425Y-129286095D02*
G75*
G02*
X220326497Y-129711386I-1763825J-942905D01*
G01*
X218219377Y-126258032D02*
G75*
G02*
X218951479Y-127028494I-1031677J-1713368D01*
G01*
X206575000Y-90725000D02*
X230597332Y-90725000D01*
X231302668Y-90725000D02*
X233025000Y-90725000D01*
X235025000Y-88725000D02*
G75*
G02*
X233025000Y-90725000I-2000000J0D01*
G01*
X235025000Y-88725000D02*
X235025000Y-45575000D01*
X233025000Y-43575000D02*
G75*
G02*
X235025000Y-45575000I0J-2000000D01*
G01*
X233025000Y-43575000D02*
X206575000Y-43575000D01*
X205500000Y-43888473D02*
G75*
G02*
X206575000Y-43575000I1075000J-1686527D01*
G01*
X206575000Y-90725000D02*
G75*
G02*
X205500000Y-90411528I0J2000000D01*
G01*
X132000000Y-58250000D02*
G75*
G02*
X127000000Y-58250000I-2500000J0D01*
G01*
X127000000Y-58250000D02*
G75*
G02*
X132000000Y-58250000I2500000J0D01*
G01*
X131000000Y-110500000D02*
G75*
G02*
X126000000Y-110500000I-2500000J0D01*
G01*
X126000000Y-110500000D02*
G75*
G02*
X131000000Y-110500000I2500000J0D01*
G01*
X187620000Y-59625000D02*
G75*
G02*
X182620000Y-59625000I-2500000J0D01*
G01*
X182620000Y-59625000D02*
G75*
G02*
X187620000Y-59625000I2500000J0D01*
G01*
X184200000Y-117150000D02*
G75*
G02*
X179200000Y-117150000I-2500000J0D01*
G01*
X179200000Y-117150000D02*
G75*
G02*
X184200000Y-117150000I2500000J0D01*
G01*
X218237513Y-135534259D02*
G75*
G02*
X213237513Y-135534259I-2500000J0D01*
G01*
X213237513Y-135534259D02*
G75*
G02*
X218237513Y-135534259I2500000J0D01*
G01*
X230597332Y-90725000D02*
G75*
G02*
X231302668Y-90725000I352668J-2474994D01*
G01*
M02*
