%TF.GenerationSoftware,KiCad,Pcbnew,9.0.8-1.fc43*%
%TF.CreationDate,2026-04-14T18:29:20-07:00*%
%TF.ProjectId,pepekey,70657065-6b65-4792-9e6b-696361645f70,0.1.0*%
%TF.SameCoordinates,Original*%
%TF.FileFunction,Copper,L1,Top*%
%TF.FilePolarity,Positive*%
%FSLAX46Y46*%
G04 Gerber Fmt 4.6, Leading zero omitted, Abs format (unit mm)*
G04 Created by KiCad (PCBNEW 9.0.8-1.fc43) date 2026-04-14 18:29:20*
%MOMM*%
%LPD*%
G01*
G04 APERTURE LIST*
G04 Aperture macros list*
%AMRotRect*
0 Rectangle, with rotation*
0 The origin of the aperture is its center*
0 $1 length*
0 $2 width*
0 $3 Rotation angle, in degrees counterclockwise*
0 Add horizontal line*
21,1,$1,$2,0,0,$3*%
%AMOutline5P*
0 Free polygon, 5 corners , with rotation*
0 The origin of the aperture is its center*
0 number of corners: always 5*
0 $1 to $10 corner X, Y*
0 $11 Rotation angle, in degrees counterclockwise*
0 create outline with 5 corners*
4,1,5,$1,$2,$3,$4,$5,$6,$7,$8,$9,$10,$1,$2,$11*%
%AMOutline6P*
0 Free polygon, 6 corners , with rotation*
0 The origin of the aperture is its center*
0 number of corners: always 6*
0 $1 to $12 corner X, Y*
0 $13 Rotation angle, in degrees counterclockwise*
0 create outline with 6 corners*
4,1,6,$1,$2,$3,$4,$5,$6,$7,$8,$9,$10,$11,$12,$1,$2,$13*%
%AMOutline7P*
0 Free polygon, 7 corners , with rotation*
0 The origin of the aperture is its center*
0 number of corners: always 7*
0 $1 to $14 corner X, Y*
0 $15 Rotation angle, in degrees counterclockwise*
0 create outline with 7 corners*
4,1,7,$1,$2,$3,$4,$5,$6,$7,$8,$9,$10,$11,$12,$13,$14,$1,$2,$15*%
%AMOutline8P*
0 Free polygon, 8 corners , with rotation*
0 The origin of the aperture is its center*
0 number of corners: always 8*
0 $1 to $16 corner X, Y*
0 $17 Rotation angle, in degrees counterclockwise*
0 create outline with 8 corners*
4,1,8,$1,$2,$3,$4,$5,$6,$7,$8,$9,$10,$11,$12,$13,$14,$15,$16,$1,$2,$17*%
%AMFreePoly0*
4,1,6,0.250000,0.000000,-0.250000,-0.625000,-0.500000,-0.625000,-0.500000,0.625000,-0.250000,0.625000,0.250000,0.000000,0.250000,0.000000,$1*%
%AMFreePoly1*
4,1,6,0.500000,-0.625000,-0.650000,-0.625000,-0.150000,0.000000,-0.650000,0.625000,0.500000,0.625000,0.500000,-0.625000,0.500000,-0.625000,$1*%
%AMFreePoly2*
4,1,6,0.600000,-0.200000,0.600000,-0.400000,-0.600000,-0.400000,-0.600000,-0.200000,0.000000,0.400000,0.600000,-0.200000,0.600000,-0.200000,$1*%
%AMFreePoly3*
4,1,6,0.600000,-1.000000,0.000000,-0.400000,-0.600000,-1.000000,-0.600000,0.250000,0.600000,0.250000,0.600000,-1.000000,0.600000,-1.000000,$1*%
G04 Aperture macros list end*
%TA.AperFunction,SMDPad,CuDef*%
%ADD10R,2.550000X2.500000*%
%TD*%
%TA.AperFunction,SMDPad,CuDef*%
%ADD11Outline5P,-1.275000X1.250000X1.275000X1.250000X1.275000X-0.750000X0.775000X-1.250000X-1.275000X-1.250000X0.000000*%
%TD*%
%TA.AperFunction,SMDPad,CuDef*%
%ADD12RotRect,2.550000X2.500000X350.000000*%
%TD*%
%TA.AperFunction,SMDPad,CuDef*%
%ADD13Outline5P,-1.275000X1.250000X1.275000X1.250000X1.275000X-0.750000X0.775000X-1.250000X-1.275000X-1.250000X350.000000*%
%TD*%
%TA.AperFunction,SMDPad,CuDef*%
%ADD14RotRect,2.550000X2.500000X340.000000*%
%TD*%
%TA.AperFunction,SMDPad,CuDef*%
%ADD15Outline5P,-1.275000X1.250000X1.275000X1.250000X1.275000X-0.750000X0.775000X-1.250000X-1.275000X-1.250000X340.000000*%
%TD*%
%TA.AperFunction,SMDPad,CuDef*%
%ADD16RotRect,2.550000X2.500000X330.000000*%
%TD*%
%TA.AperFunction,SMDPad,CuDef*%
%ADD17Outline5P,-1.275000X1.250000X1.275000X1.250000X1.275000X-0.750000X0.775000X-1.250000X-1.275000X-1.250000X330.000000*%
%TD*%
%TA.AperFunction,SMDPad,CuDef*%
%ADD18R,0.900000X1.200000*%
%TD*%
%TA.AperFunction,SMDPad,CuDef*%
%ADD19RotRect,0.900000X1.200000X350.000000*%
%TD*%
%TA.AperFunction,SMDPad,CuDef*%
%ADD20RotRect,0.900000X1.200000X340.000000*%
%TD*%
%TA.AperFunction,SMDPad,CuDef*%
%ADD21RotRect,0.900000X1.200000X330.000000*%
%TD*%
%TA.AperFunction,ComponentPad*%
%ADD22C,1.700000*%
%TD*%
%TA.AperFunction,ComponentPad*%
%ADD23C,0.800000*%
%TD*%
%TA.AperFunction,SMDPad,CuDef*%
%ADD24FreePoly0,0.000000*%
%TD*%
%TA.AperFunction,SMDPad,CuDef*%
%ADD25FreePoly1,0.000000*%
%TD*%
%TA.AperFunction,SMDPad,CuDef*%
%ADD26FreePoly1,180.000000*%
%TD*%
%TA.AperFunction,SMDPad,CuDef*%
%ADD27FreePoly0,180.000000*%
%TD*%
%TA.AperFunction,SMDPad,CuDef*%
%ADD28R,1.000000X1.550000*%
%TD*%
%TA.AperFunction,SMDPad,CuDef*%
%ADD29R,0.800000X1.000000*%
%TD*%
%TA.AperFunction,SMDPad,CuDef*%
%ADD30R,1.500000X0.700000*%
%TD*%
%TA.AperFunction,ComponentPad*%
%ADD31O,1.750000X1.200000*%
%TD*%
%TA.AperFunction,SMDPad,CuDef*%
%ADD32FreePoly2,90.000000*%
%TD*%
%TA.AperFunction,SMDPad,CuDef*%
%ADD33FreePoly3,90.000000*%
%TD*%
%TA.AperFunction,ViaPad*%
%ADD34C,0.600000*%
%TD*%
%TA.AperFunction,Conductor*%
%ADD35C,0.250000*%
%TD*%
%TA.AperFunction,Conductor*%
%ADD36C,0.200000*%
%TD*%
G04 APERTURE END LIST*
D10*
%TO.P,S1,1*%
%TO.N,P008*%
X107085000Y-117460000D03*
D11*
%TO.P,S1,2*%
%TO.N,outer_bottom*%
X94158000Y-114920000D03*
%TD*%
D10*
%TO.P,S2,1*%
%TO.N,P008*%
X107085000Y-98460000D03*
D11*
%TO.P,S2,2*%
%TO.N,outer_home*%
X94158000Y-95920000D03*
%TD*%
D10*
%TO.P,S3,1*%
%TO.N,P008*%
X107085000Y-79460000D03*
D11*
%TO.P,S3,2*%
%TO.N,outer_top*%
X94158000Y-76920000D03*
%TD*%
D10*
%TO.P,S4,1*%
%TO.N,P008*%
X107085000Y-60460000D03*
D11*
%TO.P,S4,2*%
%TO.N,outer_num*%
X94158000Y-57920000D03*
%TD*%
D10*
%TO.P,S5,1*%
%TO.N,P022*%
X126085000Y-117460000D03*
D11*
%TO.P,S5,2*%
%TO.N,pinky_bottom*%
X113158000Y-114920000D03*
%TD*%
D10*
%TO.P,S6,1*%
%TO.N,P022*%
X126085000Y-98460000D03*
D11*
%TO.P,S6,2*%
%TO.N,pinky_home*%
X113158000Y-95920000D03*
%TD*%
D10*
%TO.P,S7,1*%
%TO.N,P022*%
X126085000Y-79460000D03*
D11*
%TO.P,S7,2*%
%TO.N,pinky_top*%
X113158000Y-76920000D03*
%TD*%
D10*
%TO.P,S8,1*%
%TO.N,P022*%
X126085000Y-60460000D03*
D11*
%TO.P,S8,2*%
%TO.N,pinky_num*%
X113158000Y-57920000D03*
%TD*%
D10*
%TO.P,S9,1*%
%TO.N,P024*%
X145085000Y-103210000D03*
D11*
%TO.P,S9,2*%
%TO.N,ring_bottom*%
X132158000Y-100670000D03*
%TD*%
D10*
%TO.P,S10,1*%
%TO.N,P024*%
X145085000Y-84210000D03*
D11*
%TO.P,S10,2*%
%TO.N,ring_home*%
X132158000Y-81670000D03*
%TD*%
D10*
%TO.P,S11,1*%
%TO.N,P024*%
X145085000Y-65210000D03*
D11*
%TO.P,S11,2*%
%TO.N,ring_top*%
X132158000Y-62670000D03*
%TD*%
D10*
%TO.P,S12,1*%
%TO.N,P024*%
X145085000Y-46210000D03*
D11*
%TO.P,S12,2*%
%TO.N,ring_num*%
X132158000Y-43670000D03*
%TD*%
D10*
%TO.P,S13,1*%
%TO.N,P100*%
X164085000Y-98460000D03*
D11*
%TO.P,S13,2*%
%TO.N,middle_bottom*%
X151158000Y-95920000D03*
%TD*%
D10*
%TO.P,S14,1*%
%TO.N,P100*%
X164085000Y-79460000D03*
D11*
%TO.P,S14,2*%
%TO.N,middle_home*%
X151158000Y-76920000D03*
%TD*%
D10*
%TO.P,S15,1*%
%TO.N,P100*%
X164085000Y-60460000D03*
D11*
%TO.P,S15,2*%
%TO.N,middle_top*%
X151158000Y-57920000D03*
%TD*%
D10*
%TO.P,S16,1*%
%TO.N,P100*%
X164085000Y-41460000D03*
D11*
%TO.P,S16,2*%
%TO.N,middle_num*%
X151158000Y-38920000D03*
%TD*%
D10*
%TO.P,S17,1*%
%TO.N,P011*%
X183085000Y-103210000D03*
D11*
%TO.P,S17,2*%
%TO.N,index_bottom*%
X170158000Y-100670000D03*
%TD*%
D10*
%TO.P,S18,1*%
%TO.N,P011*%
X183085000Y-84210000D03*
D11*
%TO.P,S18,2*%
%TO.N,index_home*%
X170158000Y-81670000D03*
%TD*%
D10*
%TO.P,S19,1*%
%TO.N,P011*%
X183085000Y-65210000D03*
D11*
%TO.P,S19,2*%
%TO.N,index_top*%
X170158000Y-62670000D03*
%TD*%
D10*
%TO.P,S20,1*%
%TO.N,P011*%
X183085000Y-46210000D03*
D11*
%TO.P,S20,2*%
%TO.N,index_num*%
X170158000Y-43670000D03*
%TD*%
D10*
%TO.P,S21,1*%
%TO.N,P106*%
X202085000Y-105585000D03*
D11*
%TO.P,S21,2*%
%TO.N,inner_bottom*%
X189158000Y-103045000D03*
%TD*%
D10*
%TO.P,S22,1*%
%TO.N,P106*%
X202085000Y-86585000D03*
D11*
%TO.P,S22,2*%
%TO.N,inner_home*%
X189158000Y-84045000D03*
%TD*%
D10*
%TO.P,S23,1*%
%TO.N,P106*%
X202085000Y-67585000D03*
D11*
%TO.P,S23,2*%
%TO.N,inner_top*%
X189158000Y-65045000D03*
%TD*%
D10*
%TO.P,S24,1*%
%TO.N,P106*%
X202085000Y-48585000D03*
D11*
%TO.P,S24,2*%
%TO.N,inner_num*%
X189158000Y-46045000D03*
%TD*%
D12*
%TO.P,S25,1*%
%TO.N,P100*%
X191066729Y-128019086D03*
D13*
%TO.P,S25,2*%
%TO.N,outer_thumbrow*%
X178777186Y-123272924D03*
%TD*%
D14*
%TO.P,S26,1*%
%TO.N,P011*%
X212041853Y-134827693D03*
D15*
%TO.P,S26,2*%
%TO.N,middle_thumbrow*%
X200763178Y-128019580D03*
%TD*%
D16*
%TO.P,S27,1*%
%TO.N,P106*%
X231515990Y-145175095D03*
D17*
%TO.P,S27,2*%
%TO.N,inner_thumbrow*%
X221590880Y-136511891D03*
%TD*%
D18*
%TO.P,D1,1*%
%TO.N,P031*%
X98350000Y-125000000D03*
%TO.P,D1,2*%
%TO.N,outer_bottom*%
X101650000Y-125000000D03*
%TD*%
%TO.P,D2,1*%
%TO.N,P025*%
X98350000Y-106000000D03*
%TO.P,D2,2*%
%TO.N,outer_home*%
X101650000Y-106000000D03*
%TD*%
%TO.P,D3,1*%
%TO.N,P002*%
X98350000Y-87000000D03*
%TO.P,D3,2*%
%TO.N,outer_top*%
X101650000Y-87000000D03*
%TD*%
%TO.P,D4,1*%
%TO.N,P115*%
X98350000Y-68000000D03*
%TO.P,D4,2*%
%TO.N,outer_num*%
X101650000Y-68000000D03*
%TD*%
%TO.P,D5,1*%
%TO.N,P031*%
X117350000Y-125000000D03*
%TO.P,D5,2*%
%TO.N,pinky_bottom*%
X120650000Y-125000000D03*
%TD*%
%TO.P,D6,1*%
%TO.N,P025*%
X117350000Y-106000000D03*
%TO.P,D6,2*%
%TO.N,pinky_home*%
X120650000Y-106000000D03*
%TD*%
%TO.P,D7,1*%
%TO.N,P002*%
X117350000Y-87000000D03*
%TO.P,D7,2*%
%TO.N,pinky_top*%
X120650000Y-87000000D03*
%TD*%
%TO.P,D8,1*%
%TO.N,P115*%
X117350000Y-68000000D03*
%TO.P,D8,2*%
%TO.N,pinky_num*%
X120650000Y-68000000D03*
%TD*%
%TO.P,D9,1*%
%TO.N,P031*%
X136350000Y-110750000D03*
%TO.P,D9,2*%
%TO.N,ring_bottom*%
X139650000Y-110750000D03*
%TD*%
%TO.P,D10,1*%
%TO.N,P025*%
X136350000Y-91750000D03*
%TO.P,D10,2*%
%TO.N,ring_home*%
X139650000Y-91750000D03*
%TD*%
%TO.P,D11,1*%
%TO.N,P002*%
X136350000Y-72750000D03*
%TO.P,D11,2*%
%TO.N,ring_top*%
X139650000Y-72750000D03*
%TD*%
%TO.P,D12,1*%
%TO.N,P115*%
X136350000Y-53750000D03*
%TO.P,D12,2*%
%TO.N,ring_num*%
X139650000Y-53750000D03*
%TD*%
%TO.P,D13,1*%
%TO.N,P031*%
X155350000Y-106000000D03*
%TO.P,D13,2*%
%TO.N,middle_bottom*%
X158650000Y-106000000D03*
%TD*%
%TO.P,D14,1*%
%TO.N,P025*%
X155350000Y-87000000D03*
%TO.P,D14,2*%
%TO.N,middle_home*%
X158650000Y-87000000D03*
%TD*%
%TO.P,D15,1*%
%TO.N,P002*%
X155350000Y-68000000D03*
%TO.P,D15,2*%
%TO.N,middle_top*%
X158650000Y-68000000D03*
%TD*%
%TO.P,D16,1*%
%TO.N,P115*%
X155350000Y-49000000D03*
%TO.P,D16,2*%
%TO.N,middle_num*%
X158650000Y-49000000D03*
%TD*%
%TO.P,D17,1*%
%TO.N,P031*%
X174350000Y-110750000D03*
%TO.P,D17,2*%
%TO.N,index_bottom*%
X177650000Y-110750000D03*
%TD*%
%TO.P,D18,1*%
%TO.N,P025*%
X174350000Y-91750000D03*
%TO.P,D18,2*%
%TO.N,index_home*%
X177650000Y-91750000D03*
%TD*%
%TO.P,D19,1*%
%TO.N,P002*%
X174350000Y-72750000D03*
%TO.P,D19,2*%
%TO.N,index_top*%
X177650000Y-72750000D03*
%TD*%
%TO.P,D20,1*%
%TO.N,P115*%
X174350000Y-53750000D03*
%TO.P,D20,2*%
%TO.N,index_num*%
X177650000Y-53750000D03*
%TD*%
%TO.P,D21,1*%
%TO.N,P031*%
X193350000Y-113125000D03*
%TO.P,D21,2*%
%TO.N,inner_bottom*%
X196650000Y-113125000D03*
%TD*%
%TO.P,D22,1*%
%TO.N,P025*%
X193350000Y-94125000D03*
%TO.P,D22,2*%
%TO.N,inner_home*%
X196650000Y-94125000D03*
%TD*%
%TO.P,D23,1*%
%TO.N,P002*%
X193350000Y-75125000D03*
%TO.P,D23,2*%
%TO.N,inner_top*%
X196650000Y-75125000D03*
%TD*%
%TO.P,D24,1*%
%TO.N,P115*%
X193350000Y-56125000D03*
%TO.P,D24,2*%
%TO.N,inner_num*%
X196650000Y-56125000D03*
%TD*%
D19*
%TO.P,D25,1*%
%TO.N,P113*%
X181155067Y-133927681D03*
%TO.P,D25,2*%
%TO.N,outer_thumbrow*%
X184404933Y-134500719D03*
%TD*%
D20*
%TO.P,D26,1*%
%TO.N,P113*%
X201254807Y-138925367D03*
%TO.P,D26,2*%
%TO.N,middle_thumbrow*%
X204355793Y-140054033D03*
%TD*%
D21*
%TO.P,D27,1*%
%TO.N,P113*%
X220181258Y-147337500D03*
%TO.P,D27,2*%
%TO.N,inner_thumbrow*%
X223039142Y-148987500D03*
%TD*%
D22*
%TO.P,MCU1,24*%
%TO.N,MCU1_24*%
X213180000Y-47925000D03*
%TO.P,MCU1,1*%
%TO.N,MCU1_1*%
X228420000Y-47925000D03*
D23*
%TO.P,MCU1,124*%
%TO.N,RAW*%
X217400000Y-47925000D03*
%TO.P,MCU1,101*%
%TO.N,P006*%
X224200000Y-47925000D03*
D24*
%TO.P,MCU1,24*%
%TO.N,MCU1_24*%
X215300000Y-47925000D03*
D25*
%TO.P,MCU1,124*%
%TO.N,RAW*%
X216025000Y-47925000D03*
D26*
%TO.P,MCU1,101*%
%TO.N,P006*%
X225575000Y-47925000D03*
D27*
%TO.P,MCU1,1*%
%TO.N,MCU1_1*%
X226300000Y-47925000D03*
D22*
%TO.P,MCU1,23*%
%TO.N,MCU1_23*%
X213180000Y-50465000D03*
%TO.P,MCU1,2*%
%TO.N,MCU1_2*%
X228420000Y-50465000D03*
D23*
%TO.P,MCU1,123*%
%TO.N,GND*%
X217400000Y-50465000D03*
%TO.P,MCU1,102*%
%TO.N,P008*%
X224200000Y-50465000D03*
D24*
%TO.P,MCU1,23*%
%TO.N,MCU1_23*%
X215300000Y-50465000D03*
D25*
%TO.P,MCU1,123*%
%TO.N,GND*%
X216025000Y-50465000D03*
D26*
%TO.P,MCU1,102*%
%TO.N,P008*%
X225575000Y-50465000D03*
D27*
%TO.P,MCU1,2*%
%TO.N,MCU1_2*%
X226300000Y-50465000D03*
D22*
%TO.P,MCU1,22*%
%TO.N,MCU1_22*%
X213180000Y-53005000D03*
%TO.P,MCU1,3*%
%TO.N,MCU1_3*%
X228420000Y-53005000D03*
D23*
%TO.P,MCU1,122*%
%TO.N,RST*%
X217400000Y-53005000D03*
%TO.P,MCU1,103*%
%TO.N,GND*%
X224200000Y-53005000D03*
D24*
%TO.P,MCU1,22*%
%TO.N,MCU1_22*%
X215300000Y-53005000D03*
D25*
%TO.P,MCU1,122*%
%TO.N,RST*%
X216025000Y-53005000D03*
D26*
%TO.P,MCU1,103*%
%TO.N,GND*%
X225575000Y-53005000D03*
D27*
%TO.P,MCU1,3*%
%TO.N,MCU1_3*%
X226300000Y-53005000D03*
D22*
%TO.P,MCU1,21*%
%TO.N,MCU1_21*%
X213180000Y-55545000D03*
%TO.P,MCU1,4*%
%TO.N,MCU1_4*%
X228420000Y-55545000D03*
D23*
%TO.P,MCU1,121*%
%TO.N,VCC*%
X217400000Y-55545000D03*
%TO.P,MCU1,104*%
%TO.N,GND*%
X224200000Y-55545000D03*
D24*
%TO.P,MCU1,21*%
%TO.N,MCU1_21*%
X215300000Y-55545000D03*
D25*
%TO.P,MCU1,121*%
%TO.N,VCC*%
X216025000Y-55545000D03*
D26*
%TO.P,MCU1,104*%
%TO.N,GND*%
X225575000Y-55545000D03*
D27*
%TO.P,MCU1,4*%
%TO.N,MCU1_4*%
X226300000Y-55545000D03*
D22*
%TO.P,MCU1,20*%
%TO.N,MCU1_20*%
X213180000Y-58085000D03*
%TO.P,MCU1,5*%
%TO.N,MCU1_5*%
X228420000Y-58085000D03*
D23*
%TO.P,MCU1,120*%
%TO.N,P031*%
X217400000Y-58085000D03*
%TO.P,MCU1,105*%
%TO.N,P017*%
X224200000Y-58085000D03*
D24*
%TO.P,MCU1,20*%
%TO.N,MCU1_20*%
X215300000Y-58085000D03*
D25*
%TO.P,MCU1,120*%
%TO.N,P031*%
X216025000Y-58085000D03*
D26*
%TO.P,MCU1,105*%
%TO.N,P017*%
X225575000Y-58085000D03*
D27*
%TO.P,MCU1,5*%
%TO.N,MCU1_5*%
X226300000Y-58085000D03*
D22*
%TO.P,MCU1,19*%
%TO.N,MCU1_19*%
X213180000Y-60625000D03*
%TO.P,MCU1,6*%
%TO.N,MCU1_6*%
X228420000Y-60625000D03*
D23*
%TO.P,MCU1,119*%
%TO.N,P029*%
X217400000Y-60625000D03*
%TO.P,MCU1,106*%
%TO.N,P020*%
X224200000Y-60625000D03*
D24*
%TO.P,MCU1,19*%
%TO.N,MCU1_19*%
X215300000Y-60625000D03*
D25*
%TO.P,MCU1,119*%
%TO.N,P029*%
X216025000Y-60625000D03*
D26*
%TO.P,MCU1,106*%
%TO.N,P020*%
X225575000Y-60625000D03*
D27*
%TO.P,MCU1,6*%
%TO.N,MCU1_6*%
X226300000Y-60625000D03*
D22*
%TO.P,MCU1,18*%
%TO.N,MCU1_18*%
X213180000Y-63165000D03*
%TO.P,MCU1,7*%
%TO.N,MCU1_7*%
X228420000Y-63165000D03*
D23*
%TO.P,MCU1,118*%
%TO.N,P002*%
X217400000Y-63165000D03*
%TO.P,MCU1,107*%
%TO.N,P022*%
X224200000Y-63165000D03*
D24*
%TO.P,MCU1,18*%
%TO.N,MCU1_18*%
X215300000Y-63165000D03*
D25*
%TO.P,MCU1,118*%
%TO.N,P002*%
X216025000Y-63165000D03*
D26*
%TO.P,MCU1,107*%
%TO.N,P022*%
X225575000Y-63165000D03*
D27*
%TO.P,MCU1,7*%
%TO.N,MCU1_7*%
X226300000Y-63165000D03*
D22*
%TO.P,MCU1,17*%
%TO.N,MCU1_17*%
X213180000Y-65705000D03*
%TO.P,MCU1,8*%
%TO.N,MCU1_8*%
X228420000Y-65705000D03*
D23*
%TO.P,MCU1,117*%
%TO.N,P115*%
X217400000Y-65705000D03*
%TO.P,MCU1,108*%
%TO.N,P024*%
X224200000Y-65705000D03*
D24*
%TO.P,MCU1,17*%
%TO.N,MCU1_17*%
X215300000Y-65705000D03*
D25*
%TO.P,MCU1,117*%
%TO.N,P115*%
X216025000Y-65705000D03*
D26*
%TO.P,MCU1,108*%
%TO.N,P024*%
X225575000Y-65705000D03*
D27*
%TO.P,MCU1,8*%
%TO.N,MCU1_8*%
X226300000Y-65705000D03*
D22*
%TO.P,MCU1,16*%
%TO.N,MCU1_16*%
X213180000Y-68245000D03*
%TO.P,MCU1,9*%
%TO.N,MCU1_9*%
X228420000Y-68245000D03*
D23*
%TO.P,MCU1,116*%
%TO.N,P113*%
X217400000Y-68245000D03*
%TO.P,MCU1,109*%
%TO.N,P100*%
X224200000Y-68245000D03*
D24*
%TO.P,MCU1,16*%
%TO.N,MCU1_16*%
X215300000Y-68245000D03*
D25*
%TO.P,MCU1,116*%
%TO.N,P113*%
X216025000Y-68245000D03*
D26*
%TO.P,MCU1,109*%
%TO.N,P100*%
X225575000Y-68245000D03*
D27*
%TO.P,MCU1,9*%
%TO.N,MCU1_9*%
X226300000Y-68245000D03*
D22*
%TO.P,MCU1,15*%
%TO.N,MCU1_15*%
X213180000Y-70785000D03*
%TO.P,MCU1,10*%
%TO.N,MCU1_10*%
X228420000Y-70785000D03*
D23*
%TO.P,MCU1,115*%
%TO.N,P111*%
X217400000Y-70785000D03*
%TO.P,MCU1,110*%
%TO.N,P011*%
X224200000Y-70785000D03*
D24*
%TO.P,MCU1,15*%
%TO.N,MCU1_15*%
X215300000Y-70785000D03*
D25*
%TO.P,MCU1,115*%
%TO.N,P111*%
X216025000Y-70785000D03*
D26*
%TO.P,MCU1,110*%
%TO.N,P011*%
X225575000Y-70785000D03*
D27*
%TO.P,MCU1,10*%
%TO.N,MCU1_10*%
X226300000Y-70785000D03*
D22*
%TO.P,MCU1,14*%
%TO.N,MCU1_14*%
X213180000Y-73325000D03*
%TO.P,MCU1,11*%
%TO.N,MCU1_11*%
X228420000Y-73325000D03*
D23*
%TO.P,MCU1,114*%
%TO.N,P010*%
X217400000Y-73325000D03*
%TO.P,MCU1,111*%
%TO.N,P104*%
X224200000Y-73325000D03*
D24*
%TO.P,MCU1,14*%
%TO.N,MCU1_14*%
X215300000Y-73325000D03*
D25*
%TO.P,MCU1,114*%
%TO.N,P010*%
X216025000Y-73325000D03*
D26*
%TO.P,MCU1,111*%
%TO.N,P104*%
X225575000Y-73325000D03*
D27*
%TO.P,MCU1,11*%
%TO.N,MCU1_11*%
X226300000Y-73325000D03*
D22*
%TO.P,MCU1,13*%
%TO.N,MCU1_13*%
X213180000Y-75865000D03*
%TO.P,MCU1,12*%
%TO.N,MCU1_12*%
X228420000Y-75865000D03*
D23*
%TO.P,MCU1,113*%
%TO.N,P009*%
X217400000Y-75865000D03*
%TO.P,MCU1,112*%
%TO.N,P106*%
X224200000Y-75865000D03*
D24*
%TO.P,MCU1,13*%
%TO.N,MCU1_13*%
X215300000Y-75865000D03*
D25*
%TO.P,MCU1,113*%
%TO.N,P009*%
X216025000Y-75865000D03*
D26*
%TO.P,MCU1,112*%
%TO.N,P106*%
X225575000Y-75865000D03*
D27*
%TO.P,MCU1,12*%
%TO.N,MCU1_12*%
X226300000Y-75865000D03*
%TD*%
D28*
%TO.P,RST1,1*%
%TO.N,GND*%
X233800000Y-63250000D03*
%TO.P,RST1,2*%
%TO.N,RST*%
X232100000Y-63250000D03*
%TO.P,RST1,3*%
%TO.N,GND*%
X233800000Y-58000000D03*
%TO.P,RST1,4*%
%TO.N,RST*%
X232100000Y-58000000D03*
%TD*%
D29*
%TO.P,PWR1,*%
%TO.N,*%
X234075000Y-79550000D03*
X231865000Y-79550000D03*
X231865000Y-86850000D03*
X234075000Y-86850000D03*
D30*
%TO.P,PWR1,1*%
%TO.N,BAT_P*%
X231215000Y-85450000D03*
%TO.P,PWR1,2*%
%TO.N,RAW*%
X231215000Y-82450000D03*
%TO.P,PWR1,3*%
%TO.N,N/C*%
X231215000Y-80950000D03*
%TD*%
D31*
%TO.P,JST1,11*%
%TO.N,JST1_1*%
X227300000Y-81675000D03*
%TO.P,JST1,12*%
%TO.N,JST1_2*%
X227300000Y-83675000D03*
D32*
%TO.P,JST1,21*%
%TO.N,JST1_1*%
X225500000Y-81675000D03*
%TO.P,JST1,22*%
%TO.N,JST1_2*%
X225500000Y-83675000D03*
D33*
%TO.P,JST1,1*%
%TO.N,BAT_P*%
X224484000Y-81675000D03*
%TO.P,JST1,2*%
%TO.N,GND*%
X224484000Y-83675000D03*
%TD*%
D34*
%TO.N,BAT_P*%
X229491400Y-84069200D03*
%TO.N,RST*%
X232244000Y-64969000D03*
%TO.N,RAW*%
X229713500Y-82447000D03*
%TO.N,P113*%
X181155100Y-135125800D03*
X221628900Y-147246800D03*
X201620100Y-137531100D03*
X203823000Y-70581200D03*
%TO.N,P115*%
X156737800Y-49655600D03*
X173366900Y-53750000D03*
X118442500Y-68134500D03*
X134913800Y-53400500D03*
X100000000Y-67391000D03*
X174002300Y-56163900D03*
X135415000Y-58523300D03*
X194317300Y-55909400D03*
%TO.N,P002*%
X173209000Y-72587400D03*
X134913800Y-73302800D03*
X100000000Y-88082300D03*
X118442500Y-87102200D03*
X156191300Y-70346900D03*
X194775100Y-75252900D03*
X211719300Y-70719900D03*
%TO.N,P025*%
X156737800Y-87102200D03*
X118383100Y-105817700D03*
X136398000Y-90355100D03*
X100000000Y-105817700D03*
X173209000Y-91833100D03*
X195000000Y-93994100D03*
%TO.N,P031*%
X134913800Y-111729500D03*
X117600800Y-123350000D03*
X99684500Y-123665500D03*
X195000000Y-111816200D03*
X156737800Y-105817700D03*
X173209000Y-110800800D03*
X204479400Y-108773600D03*
%TO.N,inner_thumbrow*%
X227590000Y-137806000D03*
X221512200Y-150514400D03*
%TO.N,middle_thumbrow*%
X206895000Y-128252000D03*
X203687300Y-139056000D03*
%TO.N,outer_thumbrow*%
X184857000Y-122437000D03*
X186019700Y-135376700D03*
%TO.N,inner_num*%
X195000000Y-44166000D03*
X198167300Y-55567400D03*
%TO.N,inner_top*%
X195000000Y-63166000D03*
X197573900Y-75964100D03*
%TO.N,inner_home*%
X195000000Y-82166000D03*
X197604100Y-93994100D03*
%TO.N,inner_bottom*%
X195000000Y-101166000D03*
X197750300Y-114225300D03*
%TO.N,P106*%
X195000000Y-102195000D03*
X195000000Y-83195000D03*
X195000000Y-64195000D03*
X195000000Y-45195000D03*
X227075000Y-138697000D03*
X217957100Y-126903900D03*
X205680700Y-126350500D03*
X204380900Y-105817700D03*
%TO.N,index_num*%
X176000000Y-41791000D03*
X176686100Y-53607700D03*
%TO.N,index_top*%
X176000000Y-60791000D03*
X176691200Y-72542900D03*
%TO.N,index_home*%
X176000000Y-79791000D03*
X176640800Y-90972900D03*
%TO.N,index_bottom*%
X176000000Y-98791000D03*
X176696500Y-110800800D03*
%TO.N,P011*%
X176000000Y-99820000D03*
X176000000Y-80820000D03*
X176000000Y-61820000D03*
X176000000Y-42820000D03*
X206544000Y-129219000D03*
X204292700Y-79820000D03*
%TO.N,middle_num*%
X157000000Y-37041000D03*
X159872000Y-49655600D03*
%TO.N,middle_top*%
X157000000Y-56041000D03*
X159603800Y-67391000D03*
%TO.N,middle_home*%
X157000000Y-75041000D03*
X159627000Y-87102200D03*
%TO.N,middle_bottom*%
X157000000Y-94041000D03*
X159872000Y-105817700D03*
%TO.N,P100*%
X157000000Y-95070000D03*
X157000000Y-76070000D03*
X157000000Y-57070000D03*
X157000000Y-38070000D03*
X184678000Y-123450000D03*
X175267000Y-109100000D03*
%TO.N,ring_num*%
X138000000Y-41791000D03*
X138048000Y-52611500D03*
%TO.N,ring_top*%
X138000000Y-60791000D03*
X138321700Y-73423700D03*
X144317300Y-71505800D03*
%TO.N,ring_home*%
X138000000Y-79791000D03*
X138664100Y-91678300D03*
X144317300Y-91519700D03*
%TO.N,ring_bottom*%
X138000000Y-98791000D03*
X138246400Y-111804300D03*
%TO.N,P024*%
X138000000Y-99820000D03*
X138000000Y-80820000D03*
X138000000Y-61820000D03*
X138000000Y-42820000D03*
%TO.N,pinky_num*%
X119000000Y-56041000D03*
X119642500Y-68134500D03*
%TO.N,pinky_top*%
X119000000Y-75041000D03*
X119642500Y-87102200D03*
%TO.N,pinky_home*%
X119000000Y-94041000D03*
X119642500Y-105817700D03*
%TO.N,pinky_bottom*%
X119000000Y-113041000D03*
X120569300Y-126120000D03*
%TO.N,P022*%
X119000000Y-114070000D03*
X119000000Y-95070000D03*
X119000000Y-76070000D03*
X119000000Y-57070000D03*
%TO.N,outer_num*%
X100000000Y-56041000D03*
X102613000Y-68032400D03*
%TO.N,outer_top*%
X100000000Y-75041000D03*
X102618200Y-87529100D03*
%TO.N,outer_home*%
X100000000Y-94041000D03*
X103171300Y-105817700D03*
%TO.N,GND*%
X233728300Y-59388100D03*
X223608300Y-84162600D03*
%TO.N,outer_bottom*%
X100000000Y-113041000D03*
X103171300Y-124715500D03*
%TO.N,P008*%
X100000000Y-114070000D03*
X100000000Y-95070000D03*
X100000000Y-76070000D03*
X100000000Y-57070000D03*
%TD*%
D35*
%TO.N,JST1_2*%
X225500000Y-83675000D02*
X227300000Y-83675000D01*
%TO.N,JST1_1*%
X225500000Y-81675000D02*
X227300000Y-81675000D01*
D36*
%TO.N,BAT_P*%
X224484000Y-81675000D02*
X224484000Y-82576700D01*
X231215000Y-85450000D02*
X230163300Y-85450000D01*
X227778800Y-82576700D02*
X229381400Y-84179200D01*
X224484000Y-82576700D02*
X227778800Y-82576700D01*
X229381400Y-84179200D02*
X229491400Y-84069200D01*
X230163300Y-84961200D02*
X230163300Y-85450000D01*
X229381400Y-84179200D02*
X230163300Y-84961200D01*
D35*
%TO.N,MCU1_12*%
X226300000Y-75865000D02*
X228420000Y-75865000D01*
%TO.N,MCU1_13*%
X213180000Y-75865000D02*
X215300000Y-75865000D01*
%TO.N,MCU1_11*%
X226300000Y-73325000D02*
X228420000Y-73325000D01*
%TO.N,MCU1_14*%
X213180000Y-73325000D02*
X215300000Y-73325000D01*
%TO.N,MCU1_10*%
X226300000Y-70785000D02*
X228420000Y-70785000D01*
%TO.N,MCU1_15*%
X213180000Y-70785000D02*
X215300000Y-70785000D01*
%TO.N,MCU1_9*%
X226300000Y-68245000D02*
X228420000Y-68245000D01*
%TO.N,MCU1_16*%
X213180000Y-68245000D02*
X215300000Y-68245000D01*
%TO.N,MCU1_8*%
X226300000Y-65705000D02*
X228420000Y-65705000D01*
%TO.N,MCU1_17*%
X213180000Y-65705000D02*
X215300000Y-65705000D01*
%TO.N,MCU1_7*%
X226300000Y-63165000D02*
X228420000Y-63165000D01*
%TO.N,MCU1_18*%
X213180000Y-63165000D02*
X215300000Y-63165000D01*
%TO.N,MCU1_6*%
X226300000Y-60625000D02*
X228420000Y-60625000D01*
%TO.N,MCU1_19*%
X213180000Y-60625000D02*
X215300000Y-60625000D01*
%TO.N,MCU1_5*%
X226300000Y-58085000D02*
X228420000Y-58085000D01*
%TO.N,MCU1_20*%
X213180000Y-58085000D02*
X215300000Y-58085000D01*
%TO.N,MCU1_4*%
X226300000Y-55545000D02*
X228420000Y-55545000D01*
%TO.N,MCU1_21*%
X213180000Y-55545000D02*
X215300000Y-55545000D01*
%TO.N,MCU1_3*%
X226300000Y-53005000D02*
X228420000Y-53005000D01*
%TO.N,MCU1_22*%
X213180000Y-53005000D02*
X215300000Y-53005000D01*
%TO.N,MCU1_2*%
X226300000Y-50465000D02*
X228420000Y-50465000D01*
%TO.N,MCU1_23*%
X213180000Y-50465000D02*
X215300000Y-50465000D01*
%TO.N,MCU1_1*%
X226300000Y-47925000D02*
X228420000Y-47925000D01*
%TO.N,MCU1_24*%
X213180000Y-47925000D02*
X215300000Y-47925000D01*
%TO.N,P104*%
X225575000Y-73325000D02*
X224200000Y-73325000D01*
%TO.N,P020*%
X225575000Y-60625000D02*
X224200000Y-60625000D01*
%TO.N,P017*%
X225575000Y-58085000D02*
X224200000Y-58085000D01*
%TO.N,P006*%
X225575000Y-47925000D02*
X224200000Y-47925000D01*
%TO.N,P009*%
X216025000Y-75865000D02*
X217400000Y-75865000D01*
%TO.N,P010*%
X216025000Y-73325000D02*
X217400000Y-73325000D01*
%TO.N,P111*%
X216025000Y-70785000D02*
X217400000Y-70785000D01*
%TO.N,P029*%
X216025000Y-60625000D02*
X217400000Y-60625000D01*
%TO.N,VCC*%
X216025000Y-55545000D02*
X217400000Y-55545000D01*
D36*
%TO.N,RST*%
X232100000Y-58000000D02*
X232100000Y-63250000D01*
D35*
X216025000Y-53005000D02*
X217400000Y-53005000D01*
D36*
X221318300Y-56923300D02*
X232100000Y-56923300D01*
X217400000Y-53005000D02*
X221318300Y-56923300D01*
X232100000Y-58000000D02*
X232100000Y-56923300D01*
X232100000Y-64825000D02*
X232100000Y-63250000D01*
X232244000Y-64969000D02*
X232100000Y-64825000D01*
D35*
%TO.N,RAW*%
X216025000Y-47925000D02*
X217400000Y-47925000D01*
D36*
X229716500Y-82450000D02*
X229713500Y-82447000D01*
X231215000Y-82450000D02*
X229716500Y-82450000D01*
%TO.N,P113*%
X181155100Y-133927700D02*
X180975500Y-134946300D01*
X180975600Y-134946300D02*
X181155100Y-135125800D01*
X180975500Y-134946300D02*
X180975600Y-134946300D01*
X220181300Y-147337500D02*
X221041500Y-147834200D01*
X201254800Y-138925400D02*
X200240100Y-138556100D01*
X184585400Y-138556100D02*
X200240100Y-138556100D01*
X181155100Y-135125800D02*
X184585400Y-138556100D01*
X200595100Y-138556100D02*
X201620100Y-137531100D01*
X200240100Y-138556100D02*
X200595100Y-138556100D01*
D35*
X216025000Y-68245000D02*
X216712500Y-68245000D01*
X216712500Y-68245000D02*
X217400000Y-68245000D01*
D36*
X204889200Y-69515000D02*
X203823000Y-70581200D01*
X215442500Y-69515000D02*
X204889200Y-69515000D01*
X216712500Y-68245000D02*
X215442500Y-69515000D01*
X202237800Y-138148800D02*
X201620100Y-137531100D01*
X211356200Y-138148800D02*
X202237800Y-138148800D01*
X221041600Y-147834100D02*
X211356200Y-138148800D01*
X221628900Y-147246800D02*
X221041600Y-147834100D01*
X221041600Y-147834100D02*
X221041500Y-147834200D01*
%TO.N,P115*%
X117350000Y-68000000D02*
X116598300Y-68000000D01*
X156101700Y-49019500D02*
X156101700Y-49000000D01*
X156737800Y-49655600D02*
X156101700Y-49019500D01*
X155350000Y-49000000D02*
X156101700Y-49000000D01*
X118236200Y-68134500D02*
X118101700Y-68000000D01*
X118442500Y-68134500D02*
X118236200Y-68134500D01*
X117350000Y-68000000D02*
X118101700Y-68000000D01*
X135248800Y-53400500D02*
X135598300Y-53750000D01*
X134913800Y-53400500D02*
X135248800Y-53400500D01*
X98350000Y-68000000D02*
X99101700Y-68000000D01*
X99710700Y-67391000D02*
X99101700Y-68000000D01*
X100000000Y-67391000D02*
X99710700Y-67391000D01*
X174350000Y-53750000D02*
X173366900Y-53750000D01*
D35*
X216025000Y-65705000D02*
X216712500Y-65705000D01*
X216712500Y-65705000D02*
X217400000Y-65705000D01*
D36*
X192559400Y-56163900D02*
X192598300Y-56125000D01*
X174002300Y-56163900D02*
X192559400Y-56163900D01*
X193350000Y-56125000D02*
X192598300Y-56125000D01*
X100295200Y-67095800D02*
X116598300Y-67095800D01*
X100000000Y-67391000D02*
X100295200Y-67095800D01*
X116598300Y-67095800D02*
X116598300Y-68000000D01*
X133547500Y-60390800D02*
X135415000Y-58523300D01*
X131320900Y-60390800D02*
X133547500Y-60390800D01*
X124615900Y-67095800D02*
X131320900Y-60390800D01*
X116598300Y-67095800D02*
X124615900Y-67095800D01*
X193350000Y-56125000D02*
X193725900Y-56125000D01*
X202842900Y-64435000D02*
X194317300Y-55909400D01*
X215442500Y-64435000D02*
X202842900Y-64435000D01*
X216712500Y-65705000D02*
X215442500Y-64435000D01*
X194101700Y-56125000D02*
X194317300Y-55909400D01*
X193725900Y-56125000D02*
X194101700Y-56125000D01*
X135974200Y-53750000D02*
X135598300Y-53750000D01*
X135974200Y-53750000D02*
X136350000Y-53750000D01*
X160832200Y-53750000D02*
X156737800Y-49655600D01*
X173366900Y-53750000D02*
X160832200Y-53750000D01*
X136350000Y-53750000D02*
X137101700Y-53750000D01*
X151741700Y-54651700D02*
X156737800Y-49655600D01*
X141656700Y-54651700D02*
X151741700Y-54651700D01*
X141255000Y-55053400D02*
X141656700Y-54651700D01*
X138531800Y-55053400D02*
X141255000Y-55053400D01*
X137228400Y-53750000D02*
X138531800Y-55053400D01*
X137101700Y-53750000D02*
X137228400Y-53750000D01*
X134913800Y-53400500D02*
X135248800Y-53400500D01*
X135248800Y-53400500D02*
X134913800Y-53400500D01*
%TO.N,P002*%
X155350000Y-68000000D02*
X154598300Y-68000000D01*
X136350000Y-72750000D02*
X137101700Y-72750000D01*
X177476700Y-75125000D02*
X193350000Y-75125000D01*
X175101700Y-72750000D02*
X177476700Y-75125000D01*
X174350000Y-72750000D02*
X175101700Y-72750000D01*
X98350000Y-87000000D02*
X99101700Y-87000000D01*
X173435700Y-72587400D02*
X173598300Y-72750000D01*
X173209000Y-72587400D02*
X173435700Y-72587400D01*
X174350000Y-72750000D02*
X173598300Y-72750000D01*
X136350000Y-72750000D02*
X135598300Y-72750000D01*
X115426000Y-88172300D02*
X116598300Y-87000000D01*
X100090000Y-88172300D02*
X115426000Y-88172300D01*
X100000000Y-88082300D02*
X100090000Y-88172300D01*
X99101700Y-87184000D02*
X99101700Y-87000000D01*
X100000000Y-88082300D02*
X99101700Y-87184000D01*
X117350000Y-87000000D02*
X116598300Y-87000000D01*
D35*
X216025000Y-63165000D02*
X217400000Y-63165000D01*
D36*
X156281600Y-72587400D02*
X173209000Y-72587400D01*
X154598300Y-70904100D02*
X156281600Y-72587400D01*
X118203900Y-87102200D02*
X118101700Y-87000000D01*
X118442500Y-87102200D02*
X118203900Y-87102200D01*
X117350000Y-87000000D02*
X118101700Y-87000000D01*
X138947600Y-70904100D02*
X137101700Y-72750000D01*
X154598300Y-70904100D02*
X138947600Y-70904100D01*
X154598300Y-70346900D02*
X156191300Y-70346900D01*
X154598300Y-68000000D02*
X154598300Y-70346900D01*
X154598300Y-70346900D02*
X154598300Y-70904100D01*
X194229600Y-75252900D02*
X194101700Y-75125000D01*
X194775100Y-75252900D02*
X194229600Y-75252900D01*
X193350000Y-75125000D02*
X194101700Y-75125000D01*
X135045500Y-73302800D02*
X134913800Y-73302800D01*
X135598300Y-72750000D02*
X135045500Y-73302800D01*
X119433400Y-85668300D02*
X118101700Y-87000000D01*
X122861900Y-85668300D02*
X119433400Y-85668300D01*
X134913800Y-73616400D02*
X122861900Y-85668300D01*
X134913800Y-73302800D02*
X134913800Y-73616400D01*
X196098100Y-73128600D02*
X194101700Y-75125000D01*
X209310600Y-73128600D02*
X196098100Y-73128600D01*
X211719300Y-70719900D02*
X209310600Y-73128600D01*
%TO.N,P025*%
X156203900Y-87102200D02*
X156101700Y-87000000D01*
X156737800Y-87102200D02*
X156203900Y-87102200D01*
X155350000Y-87000000D02*
X156101700Y-87000000D01*
X136350000Y-91750000D02*
X137101700Y-91750000D01*
X155350000Y-87000000D02*
X154598300Y-87000000D01*
X177476700Y-94125000D02*
X193350000Y-94125000D01*
X175101700Y-91750000D02*
X177476700Y-94125000D01*
X174350000Y-91750000D02*
X175101700Y-91750000D01*
X136350000Y-90403100D02*
X136350000Y-91750000D01*
X136398000Y-90355100D02*
X136350000Y-90403100D01*
X99284000Y-105817700D02*
X99101700Y-106000000D01*
X100000000Y-105817700D02*
X99284000Y-105817700D01*
X98350000Y-106000000D02*
X99101700Y-106000000D01*
X151175000Y-90423300D02*
X154598300Y-87000000D01*
X138428400Y-90423300D02*
X151175000Y-90423300D01*
X137101700Y-91750000D02*
X138428400Y-90423300D01*
X173515200Y-91833100D02*
X173598300Y-91750000D01*
X173209000Y-91833100D02*
X173515200Y-91833100D01*
X174350000Y-91750000D02*
X173598300Y-91750000D01*
X159348300Y-91750000D02*
X173598300Y-91750000D01*
X154598300Y-87000000D02*
X159348300Y-91750000D01*
X117725900Y-106000000D02*
X118101700Y-106000000D01*
X117725900Y-106000000D02*
X117350000Y-106000000D01*
X100010700Y-106909000D02*
X99101700Y-106000000D01*
X115689300Y-106909000D02*
X100010700Y-106909000D01*
X116598300Y-106000000D02*
X115689300Y-106909000D01*
X117350000Y-106000000D02*
X116598300Y-106000000D01*
X118284000Y-105817700D02*
X118101700Y-106000000D01*
X118383100Y-105817700D02*
X118284000Y-105817700D01*
X135598300Y-91937900D02*
X135598300Y-91750000D01*
X123857000Y-103679200D02*
X135598300Y-91937900D01*
X120521600Y-103679200D02*
X123857000Y-103679200D01*
X118383100Y-105817700D02*
X120521600Y-103679200D01*
X136350000Y-91750000D02*
X135598300Y-91750000D01*
X194232600Y-93994100D02*
X194101700Y-94125000D01*
X195000000Y-93994100D02*
X194232600Y-93994100D01*
X193350000Y-94125000D02*
X194101700Y-94125000D01*
D35*
%TO.N,P031*%
X216025000Y-58085000D02*
X217400000Y-58085000D01*
D36*
X136350000Y-110750000D02*
X137101700Y-110750000D01*
X155350000Y-106000000D02*
X154598300Y-106000000D01*
X138428400Y-109423300D02*
X154598300Y-109423300D01*
X137101700Y-110750000D02*
X138428400Y-109423300D01*
X154598300Y-109423300D02*
X154598300Y-106000000D01*
X172271600Y-109423300D02*
X173598300Y-110750000D01*
X154598300Y-109423300D02*
X172271600Y-109423300D01*
X135598300Y-111045000D02*
X135598300Y-110750000D01*
X134913800Y-111729500D02*
X135598300Y-111045000D01*
X136350000Y-110750000D02*
X135598300Y-110750000D01*
X115696600Y-125901700D02*
X116598300Y-125000000D01*
X100003400Y-125901700D02*
X115696600Y-125901700D01*
X99101700Y-125000000D02*
X100003400Y-125901700D01*
X117350000Y-125000000D02*
X116598300Y-125000000D01*
X98350000Y-125000000D02*
X98725900Y-125000000D01*
X98725900Y-125000000D02*
X99101700Y-125000000D01*
X99684500Y-124041400D02*
X99684500Y-123665500D01*
X98725900Y-125000000D02*
X99684500Y-124041400D01*
X193350000Y-113125000D02*
X194101700Y-113125000D01*
X174350000Y-110750000D02*
X173974200Y-110750000D01*
X173974200Y-110750000D02*
X173598300Y-110750000D01*
X176349200Y-113125000D02*
X193350000Y-113125000D01*
X173974200Y-110750000D02*
X176349200Y-113125000D01*
X117350000Y-123600800D02*
X117350000Y-125000000D01*
X117600800Y-123350000D02*
X117350000Y-123600800D01*
X123293300Y-123350000D02*
X134913800Y-111729500D01*
X117600800Y-123350000D02*
X123293300Y-123350000D01*
X156284000Y-105817700D02*
X156101700Y-106000000D01*
X156737800Y-105817700D02*
X156284000Y-105817700D01*
X155350000Y-106000000D02*
X156101700Y-106000000D01*
X173547500Y-110800800D02*
X173598300Y-110750000D01*
X173209000Y-110800800D02*
X173547500Y-110800800D01*
X194101700Y-112714500D02*
X194101700Y-113125000D01*
X195000000Y-111816200D02*
X194101700Y-112714500D01*
X201436800Y-111816200D02*
X204479400Y-108773600D01*
X195000000Y-111816200D02*
X201436800Y-111816200D01*
%TO.N,inner_thumbrow*%
X222083800Y-149942800D02*
X221512200Y-150514400D01*
X222487400Y-149942800D02*
X222083800Y-149942800D01*
X222487500Y-149942900D02*
X222487400Y-149942800D01*
X223039100Y-148987500D02*
X222487500Y-149942900D01*
X224158000Y-135824000D02*
X227590000Y-137806000D01*
X221591000Y-136512000D02*
X224158000Y-135824000D01*
X221590900Y-136511900D02*
X221591000Y-136512000D01*
%TO.N,middle_thumbrow*%
X203687300Y-139220000D02*
X203687300Y-139056000D01*
X203340900Y-139566400D02*
X203687300Y-139220000D01*
X203340900Y-139684600D02*
X203340900Y-139566400D01*
X204355800Y-140054000D02*
X203340900Y-139684600D01*
X200763300Y-128019700D02*
X200763300Y-128019900D01*
X200763200Y-128019600D02*
X200763300Y-128019700D01*
X200763000Y-128020000D02*
X200763300Y-128019900D01*
X203171000Y-126897000D02*
X206895000Y-128252000D01*
X200763300Y-128019900D02*
X203171000Y-126897000D01*
%TO.N,outer_thumbrow*%
X184404900Y-134500700D02*
X185301900Y-134658800D01*
X185301900Y-134658900D02*
X185301900Y-134658800D01*
X186019700Y-135376700D02*
X185301900Y-134658900D01*
X178777000Y-123273000D02*
X178777200Y-123272900D01*
X180954000Y-121749000D02*
X184857000Y-122437000D01*
X178777200Y-123272900D02*
X180954000Y-121749000D01*
%TO.N,inner_num*%
X191037000Y-44166000D02*
X195000000Y-44166000D01*
X189158000Y-46045000D02*
X191037000Y-44166000D01*
X197959300Y-55567400D02*
X197401700Y-56125000D01*
X198167300Y-55567400D02*
X197959300Y-55567400D01*
X196650000Y-56125000D02*
X197401700Y-56125000D01*
%TO.N,inner_top*%
X191037000Y-63166000D02*
X195000000Y-63166000D01*
X189158000Y-65045000D02*
X191037000Y-63166000D01*
X197401700Y-75791900D02*
X197573900Y-75964100D01*
X197401700Y-75125000D02*
X197401700Y-75791900D01*
X196650000Y-75125000D02*
X197401700Y-75125000D01*
%TO.N,inner_home*%
X191037000Y-82166000D02*
X195000000Y-82166000D01*
X189158000Y-84045000D02*
X191037000Y-82166000D01*
X197473200Y-94125000D02*
X197604100Y-93994100D01*
X196650000Y-94125000D02*
X197473200Y-94125000D01*
%TO.N,inner_bottom*%
X191037000Y-101166000D02*
X195000000Y-101166000D01*
X189158000Y-103045000D02*
X191037000Y-101166000D01*
X197401700Y-113876700D02*
X197750300Y-114225300D01*
X197401700Y-113125000D02*
X197401700Y-113876700D01*
X196650000Y-113125000D02*
X197401700Y-113125000D01*
%TO.N,P106*%
X202085000Y-104085000D02*
X202085000Y-105585000D01*
X199166000Y-101166000D02*
X202085000Y-104085000D01*
X196029000Y-101166000D02*
X199166000Y-101166000D01*
X195000000Y-102195000D02*
X196029000Y-101166000D01*
X202085000Y-66085000D02*
X202085000Y-67585000D01*
X199166000Y-63166000D02*
X202085000Y-66085000D01*
X196029000Y-63166000D02*
X199166000Y-63166000D01*
X195000000Y-64195000D02*
X196029000Y-63166000D01*
X202085000Y-47085000D02*
X202085000Y-48585000D01*
X199166000Y-44166000D02*
X202085000Y-47085000D01*
X196029000Y-44166000D02*
X199166000Y-44166000D01*
X195000000Y-45195000D02*
X196029000Y-44166000D01*
D35*
X225575000Y-75865000D02*
X224200000Y-75865000D01*
D36*
X217870000Y-82195000D02*
X199195000Y-82195000D01*
X224200000Y-75865000D02*
X217870000Y-82195000D01*
X199166000Y-82166000D02*
X199195000Y-82195000D01*
X196029000Y-82166000D02*
X199166000Y-82166000D01*
X195000000Y-83195000D02*
X196029000Y-82166000D01*
X202085000Y-85085000D02*
X202085000Y-86585000D01*
X199195000Y-82195000D02*
X202085000Y-85085000D01*
X232266000Y-143876000D02*
X231516000Y-145175000D01*
X231198000Y-139889000D02*
X232266000Y-143876000D01*
X228481000Y-138320000D02*
X231198000Y-139889000D01*
X227075000Y-138697000D02*
X228481000Y-138320000D01*
X231516000Y-145175000D02*
X231516000Y-145175100D01*
X206234100Y-126903900D02*
X205680700Y-126350500D01*
X217957100Y-126903900D02*
X206234100Y-126903900D01*
X203894400Y-105817700D02*
X203661700Y-105585000D01*
X204380900Y-105817700D02*
X203894400Y-105817700D01*
X202085000Y-105585000D02*
X203661700Y-105585000D01*
%TO.N,index_num*%
X172037000Y-41791000D02*
X176000000Y-41791000D01*
X170158000Y-43670000D02*
X172037000Y-41791000D01*
X177650000Y-53750000D02*
X176898300Y-53750000D01*
X176756000Y-53607700D02*
X176898300Y-53750000D01*
X176686100Y-53607700D02*
X176756000Y-53607700D01*
%TO.N,index_top*%
X172037000Y-60791000D02*
X176000000Y-60791000D01*
X170158000Y-62670000D02*
X172037000Y-60791000D01*
X177650000Y-72750000D02*
X176898300Y-72750000D01*
X176691200Y-72542900D02*
X176898300Y-72750000D01*
%TO.N,index_home*%
X172037000Y-79791000D02*
X176000000Y-79791000D01*
X170158000Y-81670000D02*
X172037000Y-79791000D01*
X176898300Y-91230400D02*
X176640800Y-90972900D01*
X176898300Y-91750000D02*
X176898300Y-91230400D01*
X177650000Y-91750000D02*
X176898300Y-91750000D01*
%TO.N,index_bottom*%
X172037000Y-98791000D02*
X176000000Y-98791000D01*
X170158000Y-100670000D02*
X172037000Y-98791000D01*
X176747300Y-110750000D02*
X176696500Y-110800800D01*
X177650000Y-110750000D02*
X176747300Y-110750000D01*
%TO.N,P011*%
X183085000Y-101710000D02*
X183085000Y-103210000D01*
X180166000Y-98791000D02*
X183085000Y-101710000D01*
X177029000Y-98791000D02*
X180166000Y-98791000D01*
X176000000Y-99820000D02*
X177029000Y-98791000D01*
X183085000Y-63710000D02*
X183085000Y-65210000D01*
X180166000Y-60791000D02*
X183085000Y-63710000D01*
X177029000Y-60791000D02*
X180166000Y-60791000D01*
X176000000Y-61820000D02*
X177029000Y-60791000D01*
X183085000Y-44710000D02*
X183085000Y-46210000D01*
X180166000Y-41791000D02*
X183085000Y-44710000D01*
X177029000Y-41791000D02*
X180166000Y-41791000D01*
X176000000Y-42820000D02*
X177029000Y-41791000D01*
X212041900Y-134379600D02*
X212041900Y-134827700D01*
X212298500Y-134123000D02*
X212041900Y-134379600D01*
X212555000Y-133418000D02*
X212298500Y-134123000D01*
X210810000Y-129677000D02*
X212555000Y-133418000D01*
X207862000Y-128604000D02*
X210810000Y-129677000D01*
X206544000Y-129219000D02*
X207862000Y-128604000D01*
X212298500Y-134123000D02*
X212042000Y-134828000D01*
D35*
X225575000Y-70785000D02*
X224200000Y-70785000D01*
D36*
X180166000Y-79791000D02*
X180195000Y-79820000D01*
X177029000Y-79791000D02*
X180166000Y-79791000D01*
X176000000Y-80820000D02*
X177029000Y-79791000D01*
X183085000Y-82710000D02*
X183085000Y-84210000D01*
X180195000Y-79820000D02*
X183085000Y-82710000D01*
X204292700Y-79820000D02*
X180195000Y-79820000D01*
X215165000Y-79820000D02*
X204292700Y-79820000D01*
X224200000Y-70785000D02*
X215165000Y-79820000D01*
%TO.N,middle_num*%
X153037000Y-37041000D02*
X157000000Y-37041000D01*
X151158000Y-38920000D02*
X153037000Y-37041000D01*
X159401700Y-49185300D02*
X159401700Y-49000000D01*
X159872000Y-49655600D02*
X159401700Y-49185300D01*
X158650000Y-49000000D02*
X159401700Y-49000000D01*
%TO.N,middle_top*%
X153037000Y-56041000D02*
X157000000Y-56041000D01*
X151158000Y-57920000D02*
X153037000Y-56041000D01*
X159401700Y-67593100D02*
X159603800Y-67391000D01*
X159401700Y-68000000D02*
X159401700Y-67593100D01*
X158650000Y-68000000D02*
X159401700Y-68000000D01*
%TO.N,middle_home*%
X153037000Y-75041000D02*
X157000000Y-75041000D01*
X151158000Y-76920000D02*
X153037000Y-75041000D01*
X159524800Y-87000000D02*
X159627000Y-87102200D01*
X158650000Y-87000000D02*
X159524800Y-87000000D01*
%TO.N,middle_bottom*%
X153037000Y-94041000D02*
X157000000Y-94041000D01*
X151158000Y-95920000D02*
X153037000Y-94041000D01*
X159584000Y-105817700D02*
X159401700Y-106000000D01*
X159872000Y-105817700D02*
X159584000Y-105817700D01*
X158650000Y-106000000D02*
X159401700Y-106000000D01*
%TO.N,P100*%
X164085000Y-58960000D02*
X164085000Y-60460000D01*
X161166000Y-56041000D02*
X164085000Y-58960000D01*
X158029000Y-56041000D02*
X161166000Y-56041000D01*
X157000000Y-57070000D02*
X158029000Y-56041000D01*
X164085000Y-39960000D02*
X164085000Y-41460000D01*
X161166000Y-37041000D02*
X164085000Y-39960000D01*
X158029000Y-37041000D02*
X161166000Y-37041000D01*
X157000000Y-38070000D02*
X158029000Y-37041000D01*
X191066700Y-127410800D02*
X191066700Y-128019100D01*
X191197000Y-127280500D02*
X191066700Y-127410800D01*
X191327000Y-126542000D02*
X191197000Y-127280500D01*
X188959000Y-123160000D02*
X191327000Y-126542000D01*
X185870000Y-122616000D02*
X188959000Y-123160000D01*
X184678000Y-123450000D02*
X185870000Y-122616000D01*
X191197000Y-127280500D02*
X191067000Y-128019000D01*
X164085000Y-96960000D02*
X164085000Y-98460000D01*
X161166000Y-94041000D02*
X164085000Y-96960000D01*
X158029000Y-94041000D02*
X161166000Y-94041000D01*
X157000000Y-95070000D02*
X158029000Y-94041000D01*
X174517200Y-108350200D02*
X175267000Y-109100000D01*
X171396500Y-108350200D02*
X174517200Y-108350200D01*
X164085000Y-101038700D02*
X171396500Y-108350200D01*
X164085000Y-98460000D02*
X164085000Y-101038700D01*
X161166000Y-75041000D02*
X163372500Y-77247500D01*
X158029000Y-75041000D02*
X161166000Y-75041000D01*
X157000000Y-76070000D02*
X158029000Y-75041000D01*
X164085000Y-77960000D02*
X164085000Y-79460000D01*
X163372500Y-77247500D02*
X164085000Y-77960000D01*
X220963300Y-72055000D02*
X224773300Y-68245000D01*
X211686600Y-72055000D02*
X220963300Y-72055000D01*
X206494100Y-77247500D02*
X211686600Y-72055000D01*
X163372500Y-77247500D02*
X206494100Y-77247500D01*
X225575000Y-68245000D02*
X224773300Y-68245000D01*
D35*
X225575000Y-68245000D02*
X224773300Y-68245000D01*
X224773300Y-68245000D02*
X224200000Y-68245000D01*
D36*
%TO.N,ring_num*%
X134037000Y-41791000D02*
X138000000Y-41791000D01*
X132158000Y-43670000D02*
X134037000Y-41791000D01*
X132158000Y-43670000D02*
X132158000Y-45221700D01*
X138898300Y-53461800D02*
X138048000Y-52611500D01*
X138898300Y-53750000D02*
X138898300Y-53461800D01*
X139650000Y-53750000D02*
X138898300Y-53750000D01*
X131368400Y-46011300D02*
X132158000Y-45221700D01*
X131368400Y-49388000D02*
X131368400Y-46011300D01*
X133739000Y-51758600D02*
X131368400Y-49388000D01*
X137195100Y-51758600D02*
X133739000Y-51758600D01*
X138048000Y-52611500D02*
X137195100Y-51758600D01*
%TO.N,ring_top*%
X134037000Y-60791000D02*
X138000000Y-60791000D01*
X132158000Y-62670000D02*
X134037000Y-60791000D01*
X138898300Y-72847100D02*
X138898300Y-72750000D01*
X138321700Y-73423700D02*
X138898300Y-72847100D01*
X139650000Y-72750000D02*
X139274200Y-72750000D01*
X139274200Y-72750000D02*
X138898300Y-72750000D01*
X140518400Y-71505800D02*
X144317300Y-71505800D01*
X139274200Y-72750000D02*
X140518400Y-71505800D01*
%TO.N,ring_home*%
X134037000Y-79791000D02*
X138000000Y-79791000D01*
X132158000Y-81670000D02*
X134037000Y-79791000D01*
X138735800Y-91750000D02*
X138664100Y-91678300D01*
X139650000Y-91750000D02*
X138735800Y-91750000D01*
X140632000Y-91519700D02*
X144317300Y-91519700D01*
X140401700Y-91750000D02*
X140632000Y-91519700D01*
X139650000Y-91750000D02*
X140401700Y-91750000D01*
%TO.N,ring_bottom*%
X134037000Y-98791000D02*
X138000000Y-98791000D01*
X132158000Y-100670000D02*
X134037000Y-98791000D01*
X138898300Y-111152400D02*
X138898300Y-110750000D01*
X138246400Y-111804300D02*
X138898300Y-111152400D01*
X139650000Y-110750000D02*
X138898300Y-110750000D01*
%TO.N,P024*%
X145085000Y-101710000D02*
X145085000Y-103210000D01*
X142166000Y-98791000D02*
X145085000Y-101710000D01*
X139029000Y-98791000D02*
X142166000Y-98791000D01*
X138000000Y-99820000D02*
X139029000Y-98791000D01*
X145085000Y-82710000D02*
X145085000Y-84210000D01*
X142166000Y-79791000D02*
X145085000Y-82710000D01*
X139029000Y-79791000D02*
X142166000Y-79791000D01*
X138000000Y-80820000D02*
X139029000Y-79791000D01*
X145085000Y-44710000D02*
X145085000Y-46210000D01*
X142166000Y-41791000D02*
X145085000Y-44710000D01*
X139029000Y-41791000D02*
X142166000Y-41791000D01*
X138000000Y-42820000D02*
X139029000Y-41791000D01*
X145085000Y-63710000D02*
X145085000Y-65210000D01*
X142166000Y-60791000D02*
X145085000Y-63710000D01*
X139029000Y-60791000D02*
X142166000Y-60791000D01*
X138000000Y-61820000D02*
X139029000Y-60791000D01*
D35*
X225575000Y-65705000D02*
X224200000Y-65705000D01*
D36*
X145085000Y-65210000D02*
X145085000Y-66761700D01*
X160057500Y-66761700D02*
X145085000Y-66761700D01*
X164862500Y-71566700D02*
X160057500Y-66761700D01*
X179296700Y-71566700D02*
X164862500Y-71566700D01*
X180456900Y-72726900D02*
X179296700Y-71566700D01*
X200077700Y-72726900D02*
X180456900Y-72726900D01*
X205829600Y-66975000D02*
X200077700Y-72726900D01*
X222930000Y-66975000D02*
X205829600Y-66975000D01*
X224200000Y-65705000D02*
X222930000Y-66975000D01*
%TO.N,pinky_num*%
X115037000Y-56041000D02*
X119000000Y-56041000D01*
X113158000Y-57920000D02*
X115037000Y-56041000D01*
X119763800Y-68134500D02*
X119898300Y-68000000D01*
X119642500Y-68134500D02*
X119763800Y-68134500D01*
X120650000Y-68000000D02*
X119898300Y-68000000D01*
%TO.N,pinky_top*%
X115037000Y-75041000D02*
X119000000Y-75041000D01*
X113158000Y-76920000D02*
X115037000Y-75041000D01*
X119796100Y-87102200D02*
X119898300Y-87000000D01*
X119642500Y-87102200D02*
X119796100Y-87102200D01*
X120650000Y-87000000D02*
X119898300Y-87000000D01*
%TO.N,pinky_home*%
X115037000Y-94041000D02*
X119000000Y-94041000D01*
X113158000Y-95920000D02*
X115037000Y-94041000D01*
X119716000Y-105817700D02*
X119898300Y-106000000D01*
X119642500Y-105817700D02*
X119716000Y-105817700D01*
X120650000Y-106000000D02*
X119898300Y-106000000D01*
%TO.N,pinky_bottom*%
X115037000Y-113041000D02*
X119000000Y-113041000D01*
X113158000Y-114920000D02*
X115037000Y-113041000D01*
X120650000Y-125000000D02*
X120650000Y-125901700D01*
X120569300Y-125982400D02*
X120569300Y-126120000D01*
X120650000Y-125901700D02*
X120569300Y-125982400D01*
%TO.N,P022*%
X126085000Y-115960000D02*
X126085000Y-117460000D01*
X123166000Y-113041000D02*
X126085000Y-115960000D01*
X120029000Y-113041000D02*
X123166000Y-113041000D01*
X119000000Y-114070000D02*
X120029000Y-113041000D01*
X126085000Y-96960000D02*
X126085000Y-98460000D01*
X123166000Y-94041000D02*
X126085000Y-96960000D01*
X120029000Y-94041000D02*
X123166000Y-94041000D01*
X119000000Y-95070000D02*
X120029000Y-94041000D01*
X126085000Y-77960000D02*
X126085000Y-79460000D01*
X123166000Y-75041000D02*
X126085000Y-77960000D01*
X120029000Y-75041000D02*
X123166000Y-75041000D01*
X119000000Y-76070000D02*
X120029000Y-75041000D01*
D35*
X225575000Y-63165000D02*
X224200000Y-63165000D01*
D36*
X123166000Y-56041000D02*
X123195000Y-56070000D01*
X120029000Y-56041000D02*
X123166000Y-56041000D01*
X119000000Y-57070000D02*
X120029000Y-56041000D01*
X126085000Y-58960000D02*
X126085000Y-60460000D01*
X123195000Y-56070000D02*
X126085000Y-58960000D01*
X138365500Y-55455100D02*
X138698100Y-55455100D01*
X138132700Y-55222300D02*
X138365500Y-55455100D01*
X124042700Y-55222300D02*
X138132700Y-55222300D01*
X123195000Y-56070000D02*
X124042700Y-55222300D01*
X222930000Y-61895000D02*
X224200000Y-63165000D01*
X200887000Y-61895000D02*
X222930000Y-61895000D01*
X195000000Y-56008000D02*
X200887000Y-61895000D01*
X195000000Y-55714300D02*
X195000000Y-56008000D01*
X194508000Y-55222300D02*
X195000000Y-55714300D01*
X141654200Y-55222300D02*
X194508000Y-55222300D01*
X141421400Y-55455100D02*
X141654200Y-55222300D01*
X140756200Y-55455100D02*
X141421400Y-55455100D01*
X138698100Y-55455100D02*
X140756200Y-55455100D01*
%TO.N,outer_num*%
X96037000Y-56041000D02*
X100000000Y-56041000D01*
X94158000Y-57920000D02*
X96037000Y-56041000D01*
X102580600Y-68000000D02*
X101650000Y-68000000D01*
X102613000Y-68032400D02*
X102580600Y-68000000D01*
X93389500Y-60240200D02*
X94158000Y-59471700D01*
X93389500Y-64526100D02*
X93389500Y-60240200D01*
X97824800Y-68961400D02*
X93389500Y-64526100D01*
X99936900Y-68961400D02*
X97824800Y-68961400D01*
X100898300Y-68000000D02*
X99936900Y-68961400D01*
X101650000Y-68000000D02*
X100898300Y-68000000D01*
X94158000Y-57920000D02*
X94158000Y-59471700D01*
%TO.N,outer_top*%
X96037000Y-75041000D02*
X100000000Y-75041000D01*
X94158000Y-76920000D02*
X96037000Y-75041000D01*
X102401700Y-87312600D02*
X102618200Y-87529100D01*
X102401700Y-87000000D02*
X102401700Y-87312600D01*
X102025900Y-87000000D02*
X102401700Y-87000000D01*
X102025900Y-87000000D02*
X101650000Y-87000000D01*
X93389500Y-79240200D02*
X94158000Y-78471700D01*
X93389500Y-82634800D02*
X93389500Y-79240200D01*
X96427900Y-85673200D02*
X93389500Y-82634800D01*
X99571500Y-85673200D02*
X96427900Y-85673200D01*
X100898300Y-87000000D02*
X99571500Y-85673200D01*
X101650000Y-87000000D02*
X100898300Y-87000000D01*
X94158000Y-76920000D02*
X94158000Y-78471700D01*
%TO.N,outer_home*%
X96037000Y-94041000D02*
X100000000Y-94041000D01*
X94158000Y-95920000D02*
X96037000Y-94041000D01*
X101650000Y-106000000D02*
X102401700Y-106000000D01*
X94158000Y-95920000D02*
X94158000Y-97471700D01*
X102419600Y-105982100D02*
X102401700Y-106000000D01*
X102419600Y-105817700D02*
X102419600Y-105982100D01*
X103171300Y-105817700D02*
X102419600Y-105817700D01*
X93389500Y-98240200D02*
X94158000Y-97471700D01*
X93389500Y-101634800D02*
X93389500Y-98240200D01*
X95382900Y-103628200D02*
X93389500Y-101634800D01*
X98951100Y-103628200D02*
X95382900Y-103628200D01*
X100540400Y-105217500D02*
X98951100Y-103628200D01*
X101819400Y-105217500D02*
X100540400Y-105217500D01*
X102419600Y-105817700D02*
X101819400Y-105217500D01*
D35*
%TO.N,GND*%
X216025000Y-50465000D02*
X217400000Y-50465000D01*
X225575000Y-55545000D02*
X224200000Y-55545000D01*
D36*
X233800000Y-59316400D02*
X233800000Y-58000000D01*
X233728300Y-59388100D02*
X233800000Y-59316400D01*
X233728300Y-62101600D02*
X233728300Y-59388100D01*
X233800000Y-62173300D02*
X233728300Y-62101600D01*
X233800000Y-63250000D02*
X233800000Y-62173300D01*
X223932300Y-83838600D02*
X223932300Y-83675000D01*
X223608300Y-84162600D02*
X223932300Y-83838600D01*
X224484000Y-83675000D02*
X223932300Y-83675000D01*
D35*
X225575000Y-53005000D02*
X224887500Y-53005000D01*
X224887500Y-53005000D02*
X224200000Y-53005000D01*
D36*
X222347500Y-50465000D02*
X217400000Y-50465000D01*
X224887500Y-53005000D02*
X222347500Y-50465000D01*
X231270000Y-54393300D02*
X233800000Y-56923300D01*
X226036600Y-54393300D02*
X231270000Y-54393300D01*
X225575000Y-53931700D02*
X226036600Y-54393300D01*
X225575000Y-53005000D02*
X225575000Y-53931700D01*
X233800000Y-58000000D02*
X233800000Y-56923300D01*
%TO.N,outer_bottom*%
X96037000Y-113041000D02*
X100000000Y-113041000D01*
X94158000Y-114920000D02*
X96037000Y-113041000D01*
X102686200Y-124715500D02*
X102401700Y-125000000D01*
X103171300Y-124715500D02*
X102686200Y-124715500D01*
X101650000Y-125000000D02*
X102401700Y-125000000D01*
%TO.N,P008*%
X107085000Y-115960000D02*
X107085000Y-117460000D01*
X104166000Y-113041000D02*
X107085000Y-115960000D01*
X101029000Y-113041000D02*
X104166000Y-113041000D01*
X100000000Y-114070000D02*
X101029000Y-113041000D01*
X107085000Y-96960000D02*
X107085000Y-98460000D01*
X104166000Y-94041000D02*
X107085000Y-96960000D01*
X101029000Y-94041000D02*
X104166000Y-94041000D01*
X100000000Y-95070000D02*
X101029000Y-94041000D01*
X107085000Y-77960000D02*
X107085000Y-79460000D01*
X104166000Y-75041000D02*
X107085000Y-77960000D01*
X101029000Y-75041000D02*
X104166000Y-75041000D01*
X100000000Y-76070000D02*
X101029000Y-75041000D01*
D35*
X225575000Y-50465000D02*
X224887500Y-50465000D01*
X224887500Y-50465000D02*
X224200000Y-50465000D01*
D36*
X105678300Y-54586700D02*
X104195000Y-56070000D01*
X115985000Y-54586700D02*
X105678300Y-54586700D01*
X117801600Y-52770100D02*
X115985000Y-54586700D01*
X137191300Y-52770100D02*
X117801600Y-52770100D01*
X139072900Y-54651700D02*
X137191300Y-52770100D01*
X140988900Y-54651700D02*
X139072900Y-54651700D01*
X147567700Y-48072900D02*
X140988900Y-54651700D01*
X156087300Y-48072900D02*
X147567700Y-48072900D01*
X159715400Y-51701000D02*
X156087300Y-48072900D01*
X182897100Y-51701000D02*
X159715400Y-51701000D01*
X184950900Y-53754800D02*
X182897100Y-51701000D01*
X201713200Y-53754800D02*
X184950900Y-53754800D01*
X206154700Y-49313300D02*
X201713200Y-53754800D01*
X223048300Y-49313300D02*
X206154700Y-49313300D01*
X224200000Y-50465000D02*
X223048300Y-49313300D01*
X104166000Y-56041000D02*
X104195000Y-56070000D01*
X101029000Y-56041000D02*
X104166000Y-56041000D01*
X100000000Y-57070000D02*
X101029000Y-56041000D01*
X107085000Y-58960000D02*
X107085000Y-60460000D01*
X104195000Y-56070000D02*
X107085000Y-58960000D01*
%TD*%
M02*
