M48
; DRILL file {KiCad 9.0.8-1.fc43} date 2026-04-14T18:29:25-0700
; FORMAT={-:-/ absolute / metric / decimal}
; #@! TF.CreationDate,2026-04-14T18:29:25-07:00
; #@! TF.GenerationSoftware,Kicad,Pcbnew,9.0.8-1.fc43
; #@! TF.FileFunction,Plated,1,2,PTH
FMAT,2
METRIC
; #@! TA.AperFunction,Plated,PTH,ViaDrill
T1C0.300
; #@! TA.AperFunction,Plated,PTH,ComponentDrill
T2C0.400
; #@! TA.AperFunction,Plated,PTH,ComponentDrill
T3C0.750
; #@! TA.AperFunction,Plated,PTH,ComponentDrill
T4C1.000
%
G90
G05
T1
X99.684Y-123.665
X100.0Y-56.041
X100.0Y-57.07
X100.0Y-67.391
X100.0Y-75.041
X100.0Y-76.07
X100.0Y-88.082
X100.0Y-94.041
X100.0Y-95.07
X100.0Y-105.818
X100.0Y-113.041
X100.0Y-114.07
X102.613Y-68.032
X102.618Y-87.529
X103.171Y-105.818
X103.171Y-124.715
X117.601Y-123.35
X118.383Y-105.818
X118.442Y-68.135
X118.442Y-87.102
X119.0Y-56.041
X119.0Y-57.07
X119.0Y-75.041
X119.0Y-76.07
X119.0Y-94.041
X119.0Y-95.07
X119.0Y-113.041
X119.0Y-114.07
X119.642Y-68.135
X119.642Y-87.102
X119.642Y-105.818
X120.569Y-126.12
X134.914Y-53.401
X134.914Y-73.303
X134.914Y-111.73
X135.415Y-58.523
X136.398Y-90.355
X138.0Y-41.791
X138.0Y-42.82
X138.0Y-60.791
X138.0Y-61.82
X138.0Y-79.791
X138.0Y-80.82
X138.0Y-98.791
X138.0Y-99.82
X138.048Y-52.611
X138.246Y-111.804
X138.322Y-73.424
X138.664Y-91.678
X144.317Y-71.506
X144.317Y-91.52
X156.191Y-70.347
X156.738Y-49.656
X156.738Y-87.102
X156.738Y-105.818
X157.0Y-37.041
X157.0Y-38.07
X157.0Y-56.041
X157.0Y-57.07
X157.0Y-75.041
X157.0Y-76.07
X157.0Y-94.041
X157.0Y-95.07
X159.604Y-67.391
X159.627Y-87.102
X159.872Y-49.656
X159.872Y-105.818
X173.209Y-72.587
X173.209Y-91.833
X173.209Y-110.801
X173.367Y-53.75
X174.002Y-56.164
X175.267Y-109.1
X176.0Y-41.791
X176.0Y-42.82
X176.0Y-60.791
X176.0Y-61.82
X176.0Y-79.791
X176.0Y-80.82
X176.0Y-98.791
X176.0Y-99.82
X176.641Y-90.973
X176.686Y-53.608
X176.691Y-72.543
X176.696Y-110.801
X181.155Y-135.126
X184.678Y-123.45
X184.857Y-122.437
X186.02Y-135.377
X194.317Y-55.909
X194.775Y-75.253
X195.0Y-44.166
X195.0Y-45.195
X195.0Y-63.166
X195.0Y-64.195
X195.0Y-82.166
X195.0Y-83.195
X195.0Y-93.994
X195.0Y-101.166
X195.0Y-102.195
X195.0Y-111.816
X197.574Y-75.964
X197.604Y-93.994
X197.75Y-114.225
X198.167Y-55.567
X201.62Y-137.531
X203.687Y-139.056
X203.823Y-70.581
X204.293Y-79.82
X204.381Y-105.818
X204.479Y-108.774
X205.681Y-126.35
X206.544Y-129.219
X206.895Y-128.252
X211.719Y-70.72
X217.957Y-126.904
X221.512Y-150.514
X221.629Y-147.247
X223.608Y-84.163
X227.075Y-138.697
X227.59Y-137.806
X229.491Y-84.069
X229.713Y-82.447
X232.244Y-64.969
X233.728Y-59.388
T2
X217.4Y-47.925
X217.4Y-50.465
X217.4Y-53.005
X217.4Y-55.545
X217.4Y-58.085
X217.4Y-60.625
X217.4Y-63.165
X217.4Y-65.705
X217.4Y-68.245
X217.4Y-70.785
X217.4Y-73.325
X217.4Y-75.865
X224.2Y-47.925
X224.2Y-50.465
X224.2Y-53.005
X224.2Y-55.545
X224.2Y-58.085
X224.2Y-60.625
X224.2Y-63.165
X224.2Y-65.705
X224.2Y-68.245
X224.2Y-70.785
X224.2Y-73.325
X224.2Y-75.865
T3
X227.3Y-81.675
X227.3Y-83.675
T4
X213.18Y-47.925
X213.18Y-50.465
X213.18Y-53.005
X213.18Y-55.545
X213.18Y-58.085
X213.18Y-60.625
X213.18Y-63.165
X213.18Y-65.705
X213.18Y-68.245
X213.18Y-70.785
X213.18Y-73.325
X213.18Y-75.865
X228.42Y-47.925
X228.42Y-50.465
X228.42Y-53.005
X228.42Y-55.545
X228.42Y-58.085
X228.42Y-60.625
X228.42Y-63.165
X228.42Y-65.705
X228.42Y-68.245
X228.42Y-70.785
X228.42Y-73.325
X228.42Y-75.865
M30
