%TF.GenerationSoftware,KiCad,Pcbnew,9.0.8-1.fc43*%
%TF.CreationDate,2026-04-14T18:29:21-07:00*%
%TF.ProjectId,pepekey,70657065-6b65-4792-9e6b-696361645f70,0.1.0*%
%TF.SameCoordinates,Original*%
%TF.FileFunction,Legend,Bot*%
%TF.FilePolarity,Positive*%
%FSLAX46Y46*%
G04 Gerber Fmt 4.6, Leading zero omitted, Abs format (unit mm)*
G04 Created by KiCad (PCBNEW 9.0.8-1.fc43) date 2026-04-14 18:29:21*
%MOMM*%
%LPD*%
G01*
G04 APERTURE LIST*
%ADD10C,0.150000*%
%ADD11C,0.100000*%
%ADD12C,0.120000*%
G04 APERTURE END LIST*
D10*
X220349999Y-47379819D02*
X220254761Y-47379819D01*
X220254761Y-47379819D02*
X220159523Y-47427438D01*
X220159523Y-47427438D02*
X220111904Y-47475057D01*
X220111904Y-47475057D02*
X220064285Y-47570295D01*
X220064285Y-47570295D02*
X220016666Y-47760771D01*
X220016666Y-47760771D02*
X220016666Y-47998866D01*
X220016666Y-47998866D02*
X220064285Y-48189342D01*
X220064285Y-48189342D02*
X220111904Y-48284580D01*
X220111904Y-48284580D02*
X220159523Y-48332200D01*
X220159523Y-48332200D02*
X220254761Y-48379819D01*
X220254761Y-48379819D02*
X220349999Y-48379819D01*
X220349999Y-48379819D02*
X220445237Y-48332200D01*
X220445237Y-48332200D02*
X220492856Y-48284580D01*
X220492856Y-48284580D02*
X220540475Y-48189342D01*
X220540475Y-48189342D02*
X220588094Y-47998866D01*
X220588094Y-47998866D02*
X220588094Y-47760771D01*
X220588094Y-47760771D02*
X220540475Y-47570295D01*
X220540475Y-47570295D02*
X220492856Y-47475057D01*
X220492856Y-47475057D02*
X220445237Y-47427438D01*
X220445237Y-47427438D02*
X220349999Y-47379819D01*
X219397618Y-47379819D02*
X219302380Y-47379819D01*
X219302380Y-47379819D02*
X219207142Y-47427438D01*
X219207142Y-47427438D02*
X219159523Y-47475057D01*
X219159523Y-47475057D02*
X219111904Y-47570295D01*
X219111904Y-47570295D02*
X219064285Y-47760771D01*
X219064285Y-47760771D02*
X219064285Y-47998866D01*
X219064285Y-47998866D02*
X219111904Y-48189342D01*
X219111904Y-48189342D02*
X219159523Y-48284580D01*
X219159523Y-48284580D02*
X219207142Y-48332200D01*
X219207142Y-48332200D02*
X219302380Y-48379819D01*
X219302380Y-48379819D02*
X219397618Y-48379819D01*
X219397618Y-48379819D02*
X219492856Y-48332200D01*
X219492856Y-48332200D02*
X219540475Y-48284580D01*
X219540475Y-48284580D02*
X219588094Y-48189342D01*
X219588094Y-48189342D02*
X219635713Y-47998866D01*
X219635713Y-47998866D02*
X219635713Y-47760771D01*
X219635713Y-47760771D02*
X219588094Y-47570295D01*
X219588094Y-47570295D02*
X219540475Y-47475057D01*
X219540475Y-47475057D02*
X219492856Y-47427438D01*
X219492856Y-47427438D02*
X219397618Y-47379819D01*
X218207142Y-47379819D02*
X218397618Y-47379819D01*
X218397618Y-47379819D02*
X218492856Y-47427438D01*
X218492856Y-47427438D02*
X218540475Y-47475057D01*
X218540475Y-47475057D02*
X218635713Y-47617914D01*
X218635713Y-47617914D02*
X218683332Y-47808390D01*
X218683332Y-47808390D02*
X218683332Y-48189342D01*
X218683332Y-48189342D02*
X218635713Y-48284580D01*
X218635713Y-48284580D02*
X218588094Y-48332200D01*
X218588094Y-48332200D02*
X218492856Y-48379819D01*
X218492856Y-48379819D02*
X218302380Y-48379819D01*
X218302380Y-48379819D02*
X218207142Y-48332200D01*
X218207142Y-48332200D02*
X218159523Y-48284580D01*
X218159523Y-48284580D02*
X218111904Y-48189342D01*
X218111904Y-48189342D02*
X218111904Y-47951247D01*
X218111904Y-47951247D02*
X218159523Y-47856009D01*
X218159523Y-47856009D02*
X218207142Y-47808390D01*
X218207142Y-47808390D02*
X218302380Y-47760771D01*
X218302380Y-47760771D02*
X218492856Y-47760771D01*
X218492856Y-47760771D02*
X218588094Y-47808390D01*
X218588094Y-47808390D02*
X218635713Y-47856009D01*
X218635713Y-47856009D02*
X218683332Y-47951247D01*
X222940476Y-48379819D02*
X223273809Y-47903628D01*
X223511904Y-48379819D02*
X223511904Y-47379819D01*
X223511904Y-47379819D02*
X223130952Y-47379819D01*
X223130952Y-47379819D02*
X223035714Y-47427438D01*
X223035714Y-47427438D02*
X222988095Y-47475057D01*
X222988095Y-47475057D02*
X222940476Y-47570295D01*
X222940476Y-47570295D02*
X222940476Y-47713152D01*
X222940476Y-47713152D02*
X222988095Y-47808390D01*
X222988095Y-47808390D02*
X223035714Y-47856009D01*
X223035714Y-47856009D02*
X223130952Y-47903628D01*
X223130952Y-47903628D02*
X223511904Y-47903628D01*
X222559523Y-48094104D02*
X222083333Y-48094104D01*
X222654761Y-48379819D02*
X222321428Y-47379819D01*
X222321428Y-47379819D02*
X221988095Y-48379819D01*
X221749999Y-47379819D02*
X221511904Y-48379819D01*
X221511904Y-48379819D02*
X221321428Y-47665533D01*
X221321428Y-47665533D02*
X221130952Y-48379819D01*
X221130952Y-48379819D02*
X220892857Y-47379819D01*
X220349999Y-49919819D02*
X220254761Y-49919819D01*
X220254761Y-49919819D02*
X220159523Y-49967438D01*
X220159523Y-49967438D02*
X220111904Y-50015057D01*
X220111904Y-50015057D02*
X220064285Y-50110295D01*
X220064285Y-50110295D02*
X220016666Y-50300771D01*
X220016666Y-50300771D02*
X220016666Y-50538866D01*
X220016666Y-50538866D02*
X220064285Y-50729342D01*
X220064285Y-50729342D02*
X220111904Y-50824580D01*
X220111904Y-50824580D02*
X220159523Y-50872200D01*
X220159523Y-50872200D02*
X220254761Y-50919819D01*
X220254761Y-50919819D02*
X220349999Y-50919819D01*
X220349999Y-50919819D02*
X220445237Y-50872200D01*
X220445237Y-50872200D02*
X220492856Y-50824580D01*
X220492856Y-50824580D02*
X220540475Y-50729342D01*
X220540475Y-50729342D02*
X220588094Y-50538866D01*
X220588094Y-50538866D02*
X220588094Y-50300771D01*
X220588094Y-50300771D02*
X220540475Y-50110295D01*
X220540475Y-50110295D02*
X220492856Y-50015057D01*
X220492856Y-50015057D02*
X220445237Y-49967438D01*
X220445237Y-49967438D02*
X220349999Y-49919819D01*
X219397618Y-49919819D02*
X219302380Y-49919819D01*
X219302380Y-49919819D02*
X219207142Y-49967438D01*
X219207142Y-49967438D02*
X219159523Y-50015057D01*
X219159523Y-50015057D02*
X219111904Y-50110295D01*
X219111904Y-50110295D02*
X219064285Y-50300771D01*
X219064285Y-50300771D02*
X219064285Y-50538866D01*
X219064285Y-50538866D02*
X219111904Y-50729342D01*
X219111904Y-50729342D02*
X219159523Y-50824580D01*
X219159523Y-50824580D02*
X219207142Y-50872200D01*
X219207142Y-50872200D02*
X219302380Y-50919819D01*
X219302380Y-50919819D02*
X219397618Y-50919819D01*
X219397618Y-50919819D02*
X219492856Y-50872200D01*
X219492856Y-50872200D02*
X219540475Y-50824580D01*
X219540475Y-50824580D02*
X219588094Y-50729342D01*
X219588094Y-50729342D02*
X219635713Y-50538866D01*
X219635713Y-50538866D02*
X219635713Y-50300771D01*
X219635713Y-50300771D02*
X219588094Y-50110295D01*
X219588094Y-50110295D02*
X219540475Y-50015057D01*
X219540475Y-50015057D02*
X219492856Y-49967438D01*
X219492856Y-49967438D02*
X219397618Y-49919819D01*
X218492856Y-50348390D02*
X218588094Y-50300771D01*
X218588094Y-50300771D02*
X218635713Y-50253152D01*
X218635713Y-50253152D02*
X218683332Y-50157914D01*
X218683332Y-50157914D02*
X218683332Y-50110295D01*
X218683332Y-50110295D02*
X218635713Y-50015057D01*
X218635713Y-50015057D02*
X218588094Y-49967438D01*
X218588094Y-49967438D02*
X218492856Y-49919819D01*
X218492856Y-49919819D02*
X218302380Y-49919819D01*
X218302380Y-49919819D02*
X218207142Y-49967438D01*
X218207142Y-49967438D02*
X218159523Y-50015057D01*
X218159523Y-50015057D02*
X218111904Y-50110295D01*
X218111904Y-50110295D02*
X218111904Y-50157914D01*
X218111904Y-50157914D02*
X218159523Y-50253152D01*
X218159523Y-50253152D02*
X218207142Y-50300771D01*
X218207142Y-50300771D02*
X218302380Y-50348390D01*
X218302380Y-50348390D02*
X218492856Y-50348390D01*
X218492856Y-50348390D02*
X218588094Y-50396009D01*
X218588094Y-50396009D02*
X218635713Y-50443628D01*
X218635713Y-50443628D02*
X218683332Y-50538866D01*
X218683332Y-50538866D02*
X218683332Y-50729342D01*
X218683332Y-50729342D02*
X218635713Y-50824580D01*
X218635713Y-50824580D02*
X218588094Y-50872200D01*
X218588094Y-50872200D02*
X218492856Y-50919819D01*
X218492856Y-50919819D02*
X218302380Y-50919819D01*
X218302380Y-50919819D02*
X218207142Y-50872200D01*
X218207142Y-50872200D02*
X218159523Y-50824580D01*
X218159523Y-50824580D02*
X218111904Y-50729342D01*
X218111904Y-50729342D02*
X218111904Y-50538866D01*
X218111904Y-50538866D02*
X218159523Y-50443628D01*
X218159523Y-50443628D02*
X218207142Y-50396009D01*
X218207142Y-50396009D02*
X218302380Y-50348390D01*
X223011904Y-49967438D02*
X223107142Y-49919819D01*
X223107142Y-49919819D02*
X223249999Y-49919819D01*
X223249999Y-49919819D02*
X223392856Y-49967438D01*
X223392856Y-49967438D02*
X223488094Y-50062676D01*
X223488094Y-50062676D02*
X223535713Y-50157914D01*
X223535713Y-50157914D02*
X223583332Y-50348390D01*
X223583332Y-50348390D02*
X223583332Y-50491247D01*
X223583332Y-50491247D02*
X223535713Y-50681723D01*
X223535713Y-50681723D02*
X223488094Y-50776961D01*
X223488094Y-50776961D02*
X223392856Y-50872200D01*
X223392856Y-50872200D02*
X223249999Y-50919819D01*
X223249999Y-50919819D02*
X223154761Y-50919819D01*
X223154761Y-50919819D02*
X223011904Y-50872200D01*
X223011904Y-50872200D02*
X222964285Y-50824580D01*
X222964285Y-50824580D02*
X222964285Y-50491247D01*
X222964285Y-50491247D02*
X223154761Y-50491247D01*
X222535713Y-50919819D02*
X222535713Y-49919819D01*
X222535713Y-49919819D02*
X221964285Y-50919819D01*
X221964285Y-50919819D02*
X221964285Y-49919819D01*
X221488094Y-50919819D02*
X221488094Y-49919819D01*
X221488094Y-49919819D02*
X221249999Y-49919819D01*
X221249999Y-49919819D02*
X221107142Y-49967438D01*
X221107142Y-49967438D02*
X221011904Y-50062676D01*
X221011904Y-50062676D02*
X220964285Y-50157914D01*
X220964285Y-50157914D02*
X220916666Y-50348390D01*
X220916666Y-50348390D02*
X220916666Y-50491247D01*
X220916666Y-50491247D02*
X220964285Y-50681723D01*
X220964285Y-50681723D02*
X221011904Y-50776961D01*
X221011904Y-50776961D02*
X221107142Y-50872200D01*
X221107142Y-50872200D02*
X221249999Y-50919819D01*
X221249999Y-50919819D02*
X221488094Y-50919819D01*
X220111904Y-52507438D02*
X220207142Y-52459819D01*
X220207142Y-52459819D02*
X220349999Y-52459819D01*
X220349999Y-52459819D02*
X220492856Y-52507438D01*
X220492856Y-52507438D02*
X220588094Y-52602676D01*
X220588094Y-52602676D02*
X220635713Y-52697914D01*
X220635713Y-52697914D02*
X220683332Y-52888390D01*
X220683332Y-52888390D02*
X220683332Y-53031247D01*
X220683332Y-53031247D02*
X220635713Y-53221723D01*
X220635713Y-53221723D02*
X220588094Y-53316961D01*
X220588094Y-53316961D02*
X220492856Y-53412200D01*
X220492856Y-53412200D02*
X220349999Y-53459819D01*
X220349999Y-53459819D02*
X220254761Y-53459819D01*
X220254761Y-53459819D02*
X220111904Y-53412200D01*
X220111904Y-53412200D02*
X220064285Y-53364580D01*
X220064285Y-53364580D02*
X220064285Y-53031247D01*
X220064285Y-53031247D02*
X220254761Y-53031247D01*
X219635713Y-53459819D02*
X219635713Y-52459819D01*
X219635713Y-52459819D02*
X219064285Y-53459819D01*
X219064285Y-53459819D02*
X219064285Y-52459819D01*
X218588094Y-53459819D02*
X218588094Y-52459819D01*
X218588094Y-52459819D02*
X218349999Y-52459819D01*
X218349999Y-52459819D02*
X218207142Y-52507438D01*
X218207142Y-52507438D02*
X218111904Y-52602676D01*
X218111904Y-52602676D02*
X218064285Y-52697914D01*
X218064285Y-52697914D02*
X218016666Y-52888390D01*
X218016666Y-52888390D02*
X218016666Y-53031247D01*
X218016666Y-53031247D02*
X218064285Y-53221723D01*
X218064285Y-53221723D02*
X218111904Y-53316961D01*
X218111904Y-53316961D02*
X218207142Y-53412200D01*
X218207142Y-53412200D02*
X218349999Y-53459819D01*
X218349999Y-53459819D02*
X218588094Y-53459819D01*
X222797619Y-53459819D02*
X223130952Y-52983628D01*
X223369047Y-53459819D02*
X223369047Y-52459819D01*
X223369047Y-52459819D02*
X222988095Y-52459819D01*
X222988095Y-52459819D02*
X222892857Y-52507438D01*
X222892857Y-52507438D02*
X222845238Y-52555057D01*
X222845238Y-52555057D02*
X222797619Y-52650295D01*
X222797619Y-52650295D02*
X222797619Y-52793152D01*
X222797619Y-52793152D02*
X222845238Y-52888390D01*
X222845238Y-52888390D02*
X222892857Y-52936009D01*
X222892857Y-52936009D02*
X222988095Y-52983628D01*
X222988095Y-52983628D02*
X223369047Y-52983628D01*
X222416666Y-53412200D02*
X222273809Y-53459819D01*
X222273809Y-53459819D02*
X222035714Y-53459819D01*
X222035714Y-53459819D02*
X221940476Y-53412200D01*
X221940476Y-53412200D02*
X221892857Y-53364580D01*
X221892857Y-53364580D02*
X221845238Y-53269342D01*
X221845238Y-53269342D02*
X221845238Y-53174104D01*
X221845238Y-53174104D02*
X221892857Y-53078866D01*
X221892857Y-53078866D02*
X221940476Y-53031247D01*
X221940476Y-53031247D02*
X222035714Y-52983628D01*
X222035714Y-52983628D02*
X222226190Y-52936009D01*
X222226190Y-52936009D02*
X222321428Y-52888390D01*
X222321428Y-52888390D02*
X222369047Y-52840771D01*
X222369047Y-52840771D02*
X222416666Y-52745533D01*
X222416666Y-52745533D02*
X222416666Y-52650295D01*
X222416666Y-52650295D02*
X222369047Y-52555057D01*
X222369047Y-52555057D02*
X222321428Y-52507438D01*
X222321428Y-52507438D02*
X222226190Y-52459819D01*
X222226190Y-52459819D02*
X221988095Y-52459819D01*
X221988095Y-52459819D02*
X221845238Y-52507438D01*
X221559523Y-52459819D02*
X220988095Y-52459819D01*
X221273809Y-53459819D02*
X221273809Y-52459819D01*
X220111904Y-55047438D02*
X220207142Y-54999819D01*
X220207142Y-54999819D02*
X220349999Y-54999819D01*
X220349999Y-54999819D02*
X220492856Y-55047438D01*
X220492856Y-55047438D02*
X220588094Y-55142676D01*
X220588094Y-55142676D02*
X220635713Y-55237914D01*
X220635713Y-55237914D02*
X220683332Y-55428390D01*
X220683332Y-55428390D02*
X220683332Y-55571247D01*
X220683332Y-55571247D02*
X220635713Y-55761723D01*
X220635713Y-55761723D02*
X220588094Y-55856961D01*
X220588094Y-55856961D02*
X220492856Y-55952200D01*
X220492856Y-55952200D02*
X220349999Y-55999819D01*
X220349999Y-55999819D02*
X220254761Y-55999819D01*
X220254761Y-55999819D02*
X220111904Y-55952200D01*
X220111904Y-55952200D02*
X220064285Y-55904580D01*
X220064285Y-55904580D02*
X220064285Y-55571247D01*
X220064285Y-55571247D02*
X220254761Y-55571247D01*
X219635713Y-55999819D02*
X219635713Y-54999819D01*
X219635713Y-54999819D02*
X219064285Y-55999819D01*
X219064285Y-55999819D02*
X219064285Y-54999819D01*
X218588094Y-55999819D02*
X218588094Y-54999819D01*
X218588094Y-54999819D02*
X218349999Y-54999819D01*
X218349999Y-54999819D02*
X218207142Y-55047438D01*
X218207142Y-55047438D02*
X218111904Y-55142676D01*
X218111904Y-55142676D02*
X218064285Y-55237914D01*
X218064285Y-55237914D02*
X218016666Y-55428390D01*
X218016666Y-55428390D02*
X218016666Y-55571247D01*
X218016666Y-55571247D02*
X218064285Y-55761723D01*
X218064285Y-55761723D02*
X218111904Y-55856961D01*
X218111904Y-55856961D02*
X218207142Y-55952200D01*
X218207142Y-55952200D02*
X218349999Y-55999819D01*
X218349999Y-55999819D02*
X218588094Y-55999819D01*
X223583332Y-54999819D02*
X223249999Y-55999819D01*
X223249999Y-55999819D02*
X222916666Y-54999819D01*
X222011904Y-55904580D02*
X222059523Y-55952200D01*
X222059523Y-55952200D02*
X222202380Y-55999819D01*
X222202380Y-55999819D02*
X222297618Y-55999819D01*
X222297618Y-55999819D02*
X222440475Y-55952200D01*
X222440475Y-55952200D02*
X222535713Y-55856961D01*
X222535713Y-55856961D02*
X222583332Y-55761723D01*
X222583332Y-55761723D02*
X222630951Y-55571247D01*
X222630951Y-55571247D02*
X222630951Y-55428390D01*
X222630951Y-55428390D02*
X222583332Y-55237914D01*
X222583332Y-55237914D02*
X222535713Y-55142676D01*
X222535713Y-55142676D02*
X222440475Y-55047438D01*
X222440475Y-55047438D02*
X222297618Y-54999819D01*
X222297618Y-54999819D02*
X222202380Y-54999819D01*
X222202380Y-54999819D02*
X222059523Y-55047438D01*
X222059523Y-55047438D02*
X222011904Y-55095057D01*
X221011904Y-55904580D02*
X221059523Y-55952200D01*
X221059523Y-55952200D02*
X221202380Y-55999819D01*
X221202380Y-55999819D02*
X221297618Y-55999819D01*
X221297618Y-55999819D02*
X221440475Y-55952200D01*
X221440475Y-55952200D02*
X221535713Y-55856961D01*
X221535713Y-55856961D02*
X221583332Y-55761723D01*
X221583332Y-55761723D02*
X221630951Y-55571247D01*
X221630951Y-55571247D02*
X221630951Y-55428390D01*
X221630951Y-55428390D02*
X221583332Y-55237914D01*
X221583332Y-55237914D02*
X221535713Y-55142676D01*
X221535713Y-55142676D02*
X221440475Y-55047438D01*
X221440475Y-55047438D02*
X221297618Y-54999819D01*
X221297618Y-54999819D02*
X221202380Y-54999819D01*
X221202380Y-54999819D02*
X221059523Y-55047438D01*
X221059523Y-55047438D02*
X221011904Y-55095057D01*
X220349999Y-57539819D02*
X220254761Y-57539819D01*
X220254761Y-57539819D02*
X220159523Y-57587438D01*
X220159523Y-57587438D02*
X220111904Y-57635057D01*
X220111904Y-57635057D02*
X220064285Y-57730295D01*
X220064285Y-57730295D02*
X220016666Y-57920771D01*
X220016666Y-57920771D02*
X220016666Y-58158866D01*
X220016666Y-58158866D02*
X220064285Y-58349342D01*
X220064285Y-58349342D02*
X220111904Y-58444580D01*
X220111904Y-58444580D02*
X220159523Y-58492200D01*
X220159523Y-58492200D02*
X220254761Y-58539819D01*
X220254761Y-58539819D02*
X220349999Y-58539819D01*
X220349999Y-58539819D02*
X220445237Y-58492200D01*
X220445237Y-58492200D02*
X220492856Y-58444580D01*
X220492856Y-58444580D02*
X220540475Y-58349342D01*
X220540475Y-58349342D02*
X220588094Y-58158866D01*
X220588094Y-58158866D02*
X220588094Y-57920771D01*
X220588094Y-57920771D02*
X220540475Y-57730295D01*
X220540475Y-57730295D02*
X220492856Y-57635057D01*
X220492856Y-57635057D02*
X220445237Y-57587438D01*
X220445237Y-57587438D02*
X220349999Y-57539819D01*
X219064285Y-58539819D02*
X219635713Y-58539819D01*
X219349999Y-58539819D02*
X219349999Y-57539819D01*
X219349999Y-57539819D02*
X219445237Y-57682676D01*
X219445237Y-57682676D02*
X219540475Y-57777914D01*
X219540475Y-57777914D02*
X219635713Y-57825533D01*
X218730951Y-57539819D02*
X218064285Y-57539819D01*
X218064285Y-57539819D02*
X218492856Y-58539819D01*
X223249999Y-57539819D02*
X223154761Y-57539819D01*
X223154761Y-57539819D02*
X223059523Y-57587438D01*
X223059523Y-57587438D02*
X223011904Y-57635057D01*
X223011904Y-57635057D02*
X222964285Y-57730295D01*
X222964285Y-57730295D02*
X222916666Y-57920771D01*
X222916666Y-57920771D02*
X222916666Y-58158866D01*
X222916666Y-58158866D02*
X222964285Y-58349342D01*
X222964285Y-58349342D02*
X223011904Y-58444580D01*
X223011904Y-58444580D02*
X223059523Y-58492200D01*
X223059523Y-58492200D02*
X223154761Y-58539819D01*
X223154761Y-58539819D02*
X223249999Y-58539819D01*
X223249999Y-58539819D02*
X223345237Y-58492200D01*
X223345237Y-58492200D02*
X223392856Y-58444580D01*
X223392856Y-58444580D02*
X223440475Y-58349342D01*
X223440475Y-58349342D02*
X223488094Y-58158866D01*
X223488094Y-58158866D02*
X223488094Y-57920771D01*
X223488094Y-57920771D02*
X223440475Y-57730295D01*
X223440475Y-57730295D02*
X223392856Y-57635057D01*
X223392856Y-57635057D02*
X223345237Y-57587438D01*
X223345237Y-57587438D02*
X223249999Y-57539819D01*
X222583332Y-57539819D02*
X221964285Y-57539819D01*
X221964285Y-57539819D02*
X222297618Y-57920771D01*
X222297618Y-57920771D02*
X222154761Y-57920771D01*
X222154761Y-57920771D02*
X222059523Y-57968390D01*
X222059523Y-57968390D02*
X222011904Y-58016009D01*
X222011904Y-58016009D02*
X221964285Y-58111247D01*
X221964285Y-58111247D02*
X221964285Y-58349342D01*
X221964285Y-58349342D02*
X222011904Y-58444580D01*
X222011904Y-58444580D02*
X222059523Y-58492200D01*
X222059523Y-58492200D02*
X222154761Y-58539819D01*
X222154761Y-58539819D02*
X222440475Y-58539819D01*
X222440475Y-58539819D02*
X222535713Y-58492200D01*
X222535713Y-58492200D02*
X222583332Y-58444580D01*
X221011904Y-58539819D02*
X221583332Y-58539819D01*
X221297618Y-58539819D02*
X221297618Y-57539819D01*
X221297618Y-57539819D02*
X221392856Y-57682676D01*
X221392856Y-57682676D02*
X221488094Y-57777914D01*
X221488094Y-57777914D02*
X221583332Y-57825533D01*
X220349999Y-60079819D02*
X220254761Y-60079819D01*
X220254761Y-60079819D02*
X220159523Y-60127438D01*
X220159523Y-60127438D02*
X220111904Y-60175057D01*
X220111904Y-60175057D02*
X220064285Y-60270295D01*
X220064285Y-60270295D02*
X220016666Y-60460771D01*
X220016666Y-60460771D02*
X220016666Y-60698866D01*
X220016666Y-60698866D02*
X220064285Y-60889342D01*
X220064285Y-60889342D02*
X220111904Y-60984580D01*
X220111904Y-60984580D02*
X220159523Y-61032200D01*
X220159523Y-61032200D02*
X220254761Y-61079819D01*
X220254761Y-61079819D02*
X220349999Y-61079819D01*
X220349999Y-61079819D02*
X220445237Y-61032200D01*
X220445237Y-61032200D02*
X220492856Y-60984580D01*
X220492856Y-60984580D02*
X220540475Y-60889342D01*
X220540475Y-60889342D02*
X220588094Y-60698866D01*
X220588094Y-60698866D02*
X220588094Y-60460771D01*
X220588094Y-60460771D02*
X220540475Y-60270295D01*
X220540475Y-60270295D02*
X220492856Y-60175057D01*
X220492856Y-60175057D02*
X220445237Y-60127438D01*
X220445237Y-60127438D02*
X220349999Y-60079819D01*
X219635713Y-60175057D02*
X219588094Y-60127438D01*
X219588094Y-60127438D02*
X219492856Y-60079819D01*
X219492856Y-60079819D02*
X219254761Y-60079819D01*
X219254761Y-60079819D02*
X219159523Y-60127438D01*
X219159523Y-60127438D02*
X219111904Y-60175057D01*
X219111904Y-60175057D02*
X219064285Y-60270295D01*
X219064285Y-60270295D02*
X219064285Y-60365533D01*
X219064285Y-60365533D02*
X219111904Y-60508390D01*
X219111904Y-60508390D02*
X219683332Y-61079819D01*
X219683332Y-61079819D02*
X219064285Y-61079819D01*
X218445237Y-60079819D02*
X218349999Y-60079819D01*
X218349999Y-60079819D02*
X218254761Y-60127438D01*
X218254761Y-60127438D02*
X218207142Y-60175057D01*
X218207142Y-60175057D02*
X218159523Y-60270295D01*
X218159523Y-60270295D02*
X218111904Y-60460771D01*
X218111904Y-60460771D02*
X218111904Y-60698866D01*
X218111904Y-60698866D02*
X218159523Y-60889342D01*
X218159523Y-60889342D02*
X218207142Y-60984580D01*
X218207142Y-60984580D02*
X218254761Y-61032200D01*
X218254761Y-61032200D02*
X218349999Y-61079819D01*
X218349999Y-61079819D02*
X218445237Y-61079819D01*
X218445237Y-61079819D02*
X218540475Y-61032200D01*
X218540475Y-61032200D02*
X218588094Y-60984580D01*
X218588094Y-60984580D02*
X218635713Y-60889342D01*
X218635713Y-60889342D02*
X218683332Y-60698866D01*
X218683332Y-60698866D02*
X218683332Y-60460771D01*
X218683332Y-60460771D02*
X218635713Y-60270295D01*
X218635713Y-60270295D02*
X218588094Y-60175057D01*
X218588094Y-60175057D02*
X218540475Y-60127438D01*
X218540475Y-60127438D02*
X218445237Y-60079819D01*
X223249999Y-60079819D02*
X223154761Y-60079819D01*
X223154761Y-60079819D02*
X223059523Y-60127438D01*
X223059523Y-60127438D02*
X223011904Y-60175057D01*
X223011904Y-60175057D02*
X222964285Y-60270295D01*
X222964285Y-60270295D02*
X222916666Y-60460771D01*
X222916666Y-60460771D02*
X222916666Y-60698866D01*
X222916666Y-60698866D02*
X222964285Y-60889342D01*
X222964285Y-60889342D02*
X223011904Y-60984580D01*
X223011904Y-60984580D02*
X223059523Y-61032200D01*
X223059523Y-61032200D02*
X223154761Y-61079819D01*
X223154761Y-61079819D02*
X223249999Y-61079819D01*
X223249999Y-61079819D02*
X223345237Y-61032200D01*
X223345237Y-61032200D02*
X223392856Y-60984580D01*
X223392856Y-60984580D02*
X223440475Y-60889342D01*
X223440475Y-60889342D02*
X223488094Y-60698866D01*
X223488094Y-60698866D02*
X223488094Y-60460771D01*
X223488094Y-60460771D02*
X223440475Y-60270295D01*
X223440475Y-60270295D02*
X223392856Y-60175057D01*
X223392856Y-60175057D02*
X223345237Y-60127438D01*
X223345237Y-60127438D02*
X223249999Y-60079819D01*
X222535713Y-60175057D02*
X222488094Y-60127438D01*
X222488094Y-60127438D02*
X222392856Y-60079819D01*
X222392856Y-60079819D02*
X222154761Y-60079819D01*
X222154761Y-60079819D02*
X222059523Y-60127438D01*
X222059523Y-60127438D02*
X222011904Y-60175057D01*
X222011904Y-60175057D02*
X221964285Y-60270295D01*
X221964285Y-60270295D02*
X221964285Y-60365533D01*
X221964285Y-60365533D02*
X222011904Y-60508390D01*
X222011904Y-60508390D02*
X222583332Y-61079819D01*
X222583332Y-61079819D02*
X221964285Y-61079819D01*
X221488094Y-61079819D02*
X221297618Y-61079819D01*
X221297618Y-61079819D02*
X221202380Y-61032200D01*
X221202380Y-61032200D02*
X221154761Y-60984580D01*
X221154761Y-60984580D02*
X221059523Y-60841723D01*
X221059523Y-60841723D02*
X221011904Y-60651247D01*
X221011904Y-60651247D02*
X221011904Y-60270295D01*
X221011904Y-60270295D02*
X221059523Y-60175057D01*
X221059523Y-60175057D02*
X221107142Y-60127438D01*
X221107142Y-60127438D02*
X221202380Y-60079819D01*
X221202380Y-60079819D02*
X221392856Y-60079819D01*
X221392856Y-60079819D02*
X221488094Y-60127438D01*
X221488094Y-60127438D02*
X221535713Y-60175057D01*
X221535713Y-60175057D02*
X221583332Y-60270295D01*
X221583332Y-60270295D02*
X221583332Y-60508390D01*
X221583332Y-60508390D02*
X221535713Y-60603628D01*
X221535713Y-60603628D02*
X221488094Y-60651247D01*
X221488094Y-60651247D02*
X221392856Y-60698866D01*
X221392856Y-60698866D02*
X221202380Y-60698866D01*
X221202380Y-60698866D02*
X221107142Y-60651247D01*
X221107142Y-60651247D02*
X221059523Y-60603628D01*
X221059523Y-60603628D02*
X221011904Y-60508390D01*
X220349999Y-62619819D02*
X220254761Y-62619819D01*
X220254761Y-62619819D02*
X220159523Y-62667438D01*
X220159523Y-62667438D02*
X220111904Y-62715057D01*
X220111904Y-62715057D02*
X220064285Y-62810295D01*
X220064285Y-62810295D02*
X220016666Y-63000771D01*
X220016666Y-63000771D02*
X220016666Y-63238866D01*
X220016666Y-63238866D02*
X220064285Y-63429342D01*
X220064285Y-63429342D02*
X220111904Y-63524580D01*
X220111904Y-63524580D02*
X220159523Y-63572200D01*
X220159523Y-63572200D02*
X220254761Y-63619819D01*
X220254761Y-63619819D02*
X220349999Y-63619819D01*
X220349999Y-63619819D02*
X220445237Y-63572200D01*
X220445237Y-63572200D02*
X220492856Y-63524580D01*
X220492856Y-63524580D02*
X220540475Y-63429342D01*
X220540475Y-63429342D02*
X220588094Y-63238866D01*
X220588094Y-63238866D02*
X220588094Y-63000771D01*
X220588094Y-63000771D02*
X220540475Y-62810295D01*
X220540475Y-62810295D02*
X220492856Y-62715057D01*
X220492856Y-62715057D02*
X220445237Y-62667438D01*
X220445237Y-62667438D02*
X220349999Y-62619819D01*
X219635713Y-62715057D02*
X219588094Y-62667438D01*
X219588094Y-62667438D02*
X219492856Y-62619819D01*
X219492856Y-62619819D02*
X219254761Y-62619819D01*
X219254761Y-62619819D02*
X219159523Y-62667438D01*
X219159523Y-62667438D02*
X219111904Y-62715057D01*
X219111904Y-62715057D02*
X219064285Y-62810295D01*
X219064285Y-62810295D02*
X219064285Y-62905533D01*
X219064285Y-62905533D02*
X219111904Y-63048390D01*
X219111904Y-63048390D02*
X219683332Y-63619819D01*
X219683332Y-63619819D02*
X219064285Y-63619819D01*
X218683332Y-62715057D02*
X218635713Y-62667438D01*
X218635713Y-62667438D02*
X218540475Y-62619819D01*
X218540475Y-62619819D02*
X218302380Y-62619819D01*
X218302380Y-62619819D02*
X218207142Y-62667438D01*
X218207142Y-62667438D02*
X218159523Y-62715057D01*
X218159523Y-62715057D02*
X218111904Y-62810295D01*
X218111904Y-62810295D02*
X218111904Y-62905533D01*
X218111904Y-62905533D02*
X218159523Y-63048390D01*
X218159523Y-63048390D02*
X218730951Y-63619819D01*
X218730951Y-63619819D02*
X218111904Y-63619819D01*
X223249999Y-62619819D02*
X223154761Y-62619819D01*
X223154761Y-62619819D02*
X223059523Y-62667438D01*
X223059523Y-62667438D02*
X223011904Y-62715057D01*
X223011904Y-62715057D02*
X222964285Y-62810295D01*
X222964285Y-62810295D02*
X222916666Y-63000771D01*
X222916666Y-63000771D02*
X222916666Y-63238866D01*
X222916666Y-63238866D02*
X222964285Y-63429342D01*
X222964285Y-63429342D02*
X223011904Y-63524580D01*
X223011904Y-63524580D02*
X223059523Y-63572200D01*
X223059523Y-63572200D02*
X223154761Y-63619819D01*
X223154761Y-63619819D02*
X223249999Y-63619819D01*
X223249999Y-63619819D02*
X223345237Y-63572200D01*
X223345237Y-63572200D02*
X223392856Y-63524580D01*
X223392856Y-63524580D02*
X223440475Y-63429342D01*
X223440475Y-63429342D02*
X223488094Y-63238866D01*
X223488094Y-63238866D02*
X223488094Y-63000771D01*
X223488094Y-63000771D02*
X223440475Y-62810295D01*
X223440475Y-62810295D02*
X223392856Y-62715057D01*
X223392856Y-62715057D02*
X223345237Y-62667438D01*
X223345237Y-62667438D02*
X223249999Y-62619819D01*
X222297618Y-62619819D02*
X222202380Y-62619819D01*
X222202380Y-62619819D02*
X222107142Y-62667438D01*
X222107142Y-62667438D02*
X222059523Y-62715057D01*
X222059523Y-62715057D02*
X222011904Y-62810295D01*
X222011904Y-62810295D02*
X221964285Y-63000771D01*
X221964285Y-63000771D02*
X221964285Y-63238866D01*
X221964285Y-63238866D02*
X222011904Y-63429342D01*
X222011904Y-63429342D02*
X222059523Y-63524580D01*
X222059523Y-63524580D02*
X222107142Y-63572200D01*
X222107142Y-63572200D02*
X222202380Y-63619819D01*
X222202380Y-63619819D02*
X222297618Y-63619819D01*
X222297618Y-63619819D02*
X222392856Y-63572200D01*
X222392856Y-63572200D02*
X222440475Y-63524580D01*
X222440475Y-63524580D02*
X222488094Y-63429342D01*
X222488094Y-63429342D02*
X222535713Y-63238866D01*
X222535713Y-63238866D02*
X222535713Y-63000771D01*
X222535713Y-63000771D02*
X222488094Y-62810295D01*
X222488094Y-62810295D02*
X222440475Y-62715057D01*
X222440475Y-62715057D02*
X222392856Y-62667438D01*
X222392856Y-62667438D02*
X222297618Y-62619819D01*
X221583332Y-62715057D02*
X221535713Y-62667438D01*
X221535713Y-62667438D02*
X221440475Y-62619819D01*
X221440475Y-62619819D02*
X221202380Y-62619819D01*
X221202380Y-62619819D02*
X221107142Y-62667438D01*
X221107142Y-62667438D02*
X221059523Y-62715057D01*
X221059523Y-62715057D02*
X221011904Y-62810295D01*
X221011904Y-62810295D02*
X221011904Y-62905533D01*
X221011904Y-62905533D02*
X221059523Y-63048390D01*
X221059523Y-63048390D02*
X221630951Y-63619819D01*
X221630951Y-63619819D02*
X221011904Y-63619819D01*
X220349999Y-65159819D02*
X220254761Y-65159819D01*
X220254761Y-65159819D02*
X220159523Y-65207438D01*
X220159523Y-65207438D02*
X220111904Y-65255057D01*
X220111904Y-65255057D02*
X220064285Y-65350295D01*
X220064285Y-65350295D02*
X220016666Y-65540771D01*
X220016666Y-65540771D02*
X220016666Y-65778866D01*
X220016666Y-65778866D02*
X220064285Y-65969342D01*
X220064285Y-65969342D02*
X220111904Y-66064580D01*
X220111904Y-66064580D02*
X220159523Y-66112200D01*
X220159523Y-66112200D02*
X220254761Y-66159819D01*
X220254761Y-66159819D02*
X220349999Y-66159819D01*
X220349999Y-66159819D02*
X220445237Y-66112200D01*
X220445237Y-66112200D02*
X220492856Y-66064580D01*
X220492856Y-66064580D02*
X220540475Y-65969342D01*
X220540475Y-65969342D02*
X220588094Y-65778866D01*
X220588094Y-65778866D02*
X220588094Y-65540771D01*
X220588094Y-65540771D02*
X220540475Y-65350295D01*
X220540475Y-65350295D02*
X220492856Y-65255057D01*
X220492856Y-65255057D02*
X220445237Y-65207438D01*
X220445237Y-65207438D02*
X220349999Y-65159819D01*
X219635713Y-65255057D02*
X219588094Y-65207438D01*
X219588094Y-65207438D02*
X219492856Y-65159819D01*
X219492856Y-65159819D02*
X219254761Y-65159819D01*
X219254761Y-65159819D02*
X219159523Y-65207438D01*
X219159523Y-65207438D02*
X219111904Y-65255057D01*
X219111904Y-65255057D02*
X219064285Y-65350295D01*
X219064285Y-65350295D02*
X219064285Y-65445533D01*
X219064285Y-65445533D02*
X219111904Y-65588390D01*
X219111904Y-65588390D02*
X219683332Y-66159819D01*
X219683332Y-66159819D02*
X219064285Y-66159819D01*
X218207142Y-65493152D02*
X218207142Y-66159819D01*
X218445237Y-65112200D02*
X218683332Y-65826485D01*
X218683332Y-65826485D02*
X218064285Y-65826485D01*
X222916666Y-66159819D02*
X223488094Y-66159819D01*
X223202380Y-66159819D02*
X223202380Y-65159819D01*
X223202380Y-65159819D02*
X223297618Y-65302676D01*
X223297618Y-65302676D02*
X223392856Y-65397914D01*
X223392856Y-65397914D02*
X223488094Y-65445533D01*
X221964285Y-66159819D02*
X222535713Y-66159819D01*
X222249999Y-66159819D02*
X222249999Y-65159819D01*
X222249999Y-65159819D02*
X222345237Y-65302676D01*
X222345237Y-65302676D02*
X222440475Y-65397914D01*
X222440475Y-65397914D02*
X222535713Y-65445533D01*
X221059523Y-65159819D02*
X221535713Y-65159819D01*
X221535713Y-65159819D02*
X221583332Y-65636009D01*
X221583332Y-65636009D02*
X221535713Y-65588390D01*
X221535713Y-65588390D02*
X221440475Y-65540771D01*
X221440475Y-65540771D02*
X221202380Y-65540771D01*
X221202380Y-65540771D02*
X221107142Y-65588390D01*
X221107142Y-65588390D02*
X221059523Y-65636009D01*
X221059523Y-65636009D02*
X221011904Y-65731247D01*
X221011904Y-65731247D02*
X221011904Y-65969342D01*
X221011904Y-65969342D02*
X221059523Y-66064580D01*
X221059523Y-66064580D02*
X221107142Y-66112200D01*
X221107142Y-66112200D02*
X221202380Y-66159819D01*
X221202380Y-66159819D02*
X221440475Y-66159819D01*
X221440475Y-66159819D02*
X221535713Y-66112200D01*
X221535713Y-66112200D02*
X221583332Y-66064580D01*
X220016666Y-68699819D02*
X220588094Y-68699819D01*
X220302380Y-68699819D02*
X220302380Y-67699819D01*
X220302380Y-67699819D02*
X220397618Y-67842676D01*
X220397618Y-67842676D02*
X220492856Y-67937914D01*
X220492856Y-67937914D02*
X220588094Y-67985533D01*
X219397618Y-67699819D02*
X219302380Y-67699819D01*
X219302380Y-67699819D02*
X219207142Y-67747438D01*
X219207142Y-67747438D02*
X219159523Y-67795057D01*
X219159523Y-67795057D02*
X219111904Y-67890295D01*
X219111904Y-67890295D02*
X219064285Y-68080771D01*
X219064285Y-68080771D02*
X219064285Y-68318866D01*
X219064285Y-68318866D02*
X219111904Y-68509342D01*
X219111904Y-68509342D02*
X219159523Y-68604580D01*
X219159523Y-68604580D02*
X219207142Y-68652200D01*
X219207142Y-68652200D02*
X219302380Y-68699819D01*
X219302380Y-68699819D02*
X219397618Y-68699819D01*
X219397618Y-68699819D02*
X219492856Y-68652200D01*
X219492856Y-68652200D02*
X219540475Y-68604580D01*
X219540475Y-68604580D02*
X219588094Y-68509342D01*
X219588094Y-68509342D02*
X219635713Y-68318866D01*
X219635713Y-68318866D02*
X219635713Y-68080771D01*
X219635713Y-68080771D02*
X219588094Y-67890295D01*
X219588094Y-67890295D02*
X219540475Y-67795057D01*
X219540475Y-67795057D02*
X219492856Y-67747438D01*
X219492856Y-67747438D02*
X219397618Y-67699819D01*
X218445237Y-67699819D02*
X218349999Y-67699819D01*
X218349999Y-67699819D02*
X218254761Y-67747438D01*
X218254761Y-67747438D02*
X218207142Y-67795057D01*
X218207142Y-67795057D02*
X218159523Y-67890295D01*
X218159523Y-67890295D02*
X218111904Y-68080771D01*
X218111904Y-68080771D02*
X218111904Y-68318866D01*
X218111904Y-68318866D02*
X218159523Y-68509342D01*
X218159523Y-68509342D02*
X218207142Y-68604580D01*
X218207142Y-68604580D02*
X218254761Y-68652200D01*
X218254761Y-68652200D02*
X218349999Y-68699819D01*
X218349999Y-68699819D02*
X218445237Y-68699819D01*
X218445237Y-68699819D02*
X218540475Y-68652200D01*
X218540475Y-68652200D02*
X218588094Y-68604580D01*
X218588094Y-68604580D02*
X218635713Y-68509342D01*
X218635713Y-68509342D02*
X218683332Y-68318866D01*
X218683332Y-68318866D02*
X218683332Y-68080771D01*
X218683332Y-68080771D02*
X218635713Y-67890295D01*
X218635713Y-67890295D02*
X218588094Y-67795057D01*
X218588094Y-67795057D02*
X218540475Y-67747438D01*
X218540475Y-67747438D02*
X218445237Y-67699819D01*
X222916666Y-68699819D02*
X223488094Y-68699819D01*
X223202380Y-68699819D02*
X223202380Y-67699819D01*
X223202380Y-67699819D02*
X223297618Y-67842676D01*
X223297618Y-67842676D02*
X223392856Y-67937914D01*
X223392856Y-67937914D02*
X223488094Y-67985533D01*
X221964285Y-68699819D02*
X222535713Y-68699819D01*
X222249999Y-68699819D02*
X222249999Y-67699819D01*
X222249999Y-67699819D02*
X222345237Y-67842676D01*
X222345237Y-67842676D02*
X222440475Y-67937914D01*
X222440475Y-67937914D02*
X222535713Y-67985533D01*
X221630951Y-67699819D02*
X221011904Y-67699819D01*
X221011904Y-67699819D02*
X221345237Y-68080771D01*
X221345237Y-68080771D02*
X221202380Y-68080771D01*
X221202380Y-68080771D02*
X221107142Y-68128390D01*
X221107142Y-68128390D02*
X221059523Y-68176009D01*
X221059523Y-68176009D02*
X221011904Y-68271247D01*
X221011904Y-68271247D02*
X221011904Y-68509342D01*
X221011904Y-68509342D02*
X221059523Y-68604580D01*
X221059523Y-68604580D02*
X221107142Y-68652200D01*
X221107142Y-68652200D02*
X221202380Y-68699819D01*
X221202380Y-68699819D02*
X221488094Y-68699819D01*
X221488094Y-68699819D02*
X221583332Y-68652200D01*
X221583332Y-68652200D02*
X221630951Y-68604580D01*
X220349999Y-70239819D02*
X220254761Y-70239819D01*
X220254761Y-70239819D02*
X220159523Y-70287438D01*
X220159523Y-70287438D02*
X220111904Y-70335057D01*
X220111904Y-70335057D02*
X220064285Y-70430295D01*
X220064285Y-70430295D02*
X220016666Y-70620771D01*
X220016666Y-70620771D02*
X220016666Y-70858866D01*
X220016666Y-70858866D02*
X220064285Y-71049342D01*
X220064285Y-71049342D02*
X220111904Y-71144580D01*
X220111904Y-71144580D02*
X220159523Y-71192200D01*
X220159523Y-71192200D02*
X220254761Y-71239819D01*
X220254761Y-71239819D02*
X220349999Y-71239819D01*
X220349999Y-71239819D02*
X220445237Y-71192200D01*
X220445237Y-71192200D02*
X220492856Y-71144580D01*
X220492856Y-71144580D02*
X220540475Y-71049342D01*
X220540475Y-71049342D02*
X220588094Y-70858866D01*
X220588094Y-70858866D02*
X220588094Y-70620771D01*
X220588094Y-70620771D02*
X220540475Y-70430295D01*
X220540475Y-70430295D02*
X220492856Y-70335057D01*
X220492856Y-70335057D02*
X220445237Y-70287438D01*
X220445237Y-70287438D02*
X220349999Y-70239819D01*
X219064285Y-71239819D02*
X219635713Y-71239819D01*
X219349999Y-71239819D02*
X219349999Y-70239819D01*
X219349999Y-70239819D02*
X219445237Y-70382676D01*
X219445237Y-70382676D02*
X219540475Y-70477914D01*
X219540475Y-70477914D02*
X219635713Y-70525533D01*
X218111904Y-71239819D02*
X218683332Y-71239819D01*
X218397618Y-71239819D02*
X218397618Y-70239819D01*
X218397618Y-70239819D02*
X218492856Y-70382676D01*
X218492856Y-70382676D02*
X218588094Y-70477914D01*
X218588094Y-70477914D02*
X218683332Y-70525533D01*
X222916666Y-71239819D02*
X223488094Y-71239819D01*
X223202380Y-71239819D02*
X223202380Y-70239819D01*
X223202380Y-70239819D02*
X223297618Y-70382676D01*
X223297618Y-70382676D02*
X223392856Y-70477914D01*
X223392856Y-70477914D02*
X223488094Y-70525533D01*
X221964285Y-71239819D02*
X222535713Y-71239819D01*
X222249999Y-71239819D02*
X222249999Y-70239819D01*
X222249999Y-70239819D02*
X222345237Y-70382676D01*
X222345237Y-70382676D02*
X222440475Y-70477914D01*
X222440475Y-70477914D02*
X222535713Y-70525533D01*
X221011904Y-71239819D02*
X221583332Y-71239819D01*
X221297618Y-71239819D02*
X221297618Y-70239819D01*
X221297618Y-70239819D02*
X221392856Y-70382676D01*
X221392856Y-70382676D02*
X221488094Y-70477914D01*
X221488094Y-70477914D02*
X221583332Y-70525533D01*
X220016666Y-73779819D02*
X220588094Y-73779819D01*
X220302380Y-73779819D02*
X220302380Y-72779819D01*
X220302380Y-72779819D02*
X220397618Y-72922676D01*
X220397618Y-72922676D02*
X220492856Y-73017914D01*
X220492856Y-73017914D02*
X220588094Y-73065533D01*
X219397618Y-72779819D02*
X219302380Y-72779819D01*
X219302380Y-72779819D02*
X219207142Y-72827438D01*
X219207142Y-72827438D02*
X219159523Y-72875057D01*
X219159523Y-72875057D02*
X219111904Y-72970295D01*
X219111904Y-72970295D02*
X219064285Y-73160771D01*
X219064285Y-73160771D02*
X219064285Y-73398866D01*
X219064285Y-73398866D02*
X219111904Y-73589342D01*
X219111904Y-73589342D02*
X219159523Y-73684580D01*
X219159523Y-73684580D02*
X219207142Y-73732200D01*
X219207142Y-73732200D02*
X219302380Y-73779819D01*
X219302380Y-73779819D02*
X219397618Y-73779819D01*
X219397618Y-73779819D02*
X219492856Y-73732200D01*
X219492856Y-73732200D02*
X219540475Y-73684580D01*
X219540475Y-73684580D02*
X219588094Y-73589342D01*
X219588094Y-73589342D02*
X219635713Y-73398866D01*
X219635713Y-73398866D02*
X219635713Y-73160771D01*
X219635713Y-73160771D02*
X219588094Y-72970295D01*
X219588094Y-72970295D02*
X219540475Y-72875057D01*
X219540475Y-72875057D02*
X219492856Y-72827438D01*
X219492856Y-72827438D02*
X219397618Y-72779819D01*
X218207142Y-73113152D02*
X218207142Y-73779819D01*
X218445237Y-72732200D02*
X218683332Y-73446485D01*
X218683332Y-73446485D02*
X218064285Y-73446485D01*
X223249999Y-72779819D02*
X223154761Y-72779819D01*
X223154761Y-72779819D02*
X223059523Y-72827438D01*
X223059523Y-72827438D02*
X223011904Y-72875057D01*
X223011904Y-72875057D02*
X222964285Y-72970295D01*
X222964285Y-72970295D02*
X222916666Y-73160771D01*
X222916666Y-73160771D02*
X222916666Y-73398866D01*
X222916666Y-73398866D02*
X222964285Y-73589342D01*
X222964285Y-73589342D02*
X223011904Y-73684580D01*
X223011904Y-73684580D02*
X223059523Y-73732200D01*
X223059523Y-73732200D02*
X223154761Y-73779819D01*
X223154761Y-73779819D02*
X223249999Y-73779819D01*
X223249999Y-73779819D02*
X223345237Y-73732200D01*
X223345237Y-73732200D02*
X223392856Y-73684580D01*
X223392856Y-73684580D02*
X223440475Y-73589342D01*
X223440475Y-73589342D02*
X223488094Y-73398866D01*
X223488094Y-73398866D02*
X223488094Y-73160771D01*
X223488094Y-73160771D02*
X223440475Y-72970295D01*
X223440475Y-72970295D02*
X223392856Y-72875057D01*
X223392856Y-72875057D02*
X223345237Y-72827438D01*
X223345237Y-72827438D02*
X223249999Y-72779819D01*
X221964285Y-73779819D02*
X222535713Y-73779819D01*
X222249999Y-73779819D02*
X222249999Y-72779819D01*
X222249999Y-72779819D02*
X222345237Y-72922676D01*
X222345237Y-72922676D02*
X222440475Y-73017914D01*
X222440475Y-73017914D02*
X222535713Y-73065533D01*
X221345237Y-72779819D02*
X221249999Y-72779819D01*
X221249999Y-72779819D02*
X221154761Y-72827438D01*
X221154761Y-72827438D02*
X221107142Y-72875057D01*
X221107142Y-72875057D02*
X221059523Y-72970295D01*
X221059523Y-72970295D02*
X221011904Y-73160771D01*
X221011904Y-73160771D02*
X221011904Y-73398866D01*
X221011904Y-73398866D02*
X221059523Y-73589342D01*
X221059523Y-73589342D02*
X221107142Y-73684580D01*
X221107142Y-73684580D02*
X221154761Y-73732200D01*
X221154761Y-73732200D02*
X221249999Y-73779819D01*
X221249999Y-73779819D02*
X221345237Y-73779819D01*
X221345237Y-73779819D02*
X221440475Y-73732200D01*
X221440475Y-73732200D02*
X221488094Y-73684580D01*
X221488094Y-73684580D02*
X221535713Y-73589342D01*
X221535713Y-73589342D02*
X221583332Y-73398866D01*
X221583332Y-73398866D02*
X221583332Y-73160771D01*
X221583332Y-73160771D02*
X221535713Y-72970295D01*
X221535713Y-72970295D02*
X221488094Y-72875057D01*
X221488094Y-72875057D02*
X221440475Y-72827438D01*
X221440475Y-72827438D02*
X221345237Y-72779819D01*
X220016666Y-76319819D02*
X220588094Y-76319819D01*
X220302380Y-76319819D02*
X220302380Y-75319819D01*
X220302380Y-75319819D02*
X220397618Y-75462676D01*
X220397618Y-75462676D02*
X220492856Y-75557914D01*
X220492856Y-75557914D02*
X220588094Y-75605533D01*
X219397618Y-75319819D02*
X219302380Y-75319819D01*
X219302380Y-75319819D02*
X219207142Y-75367438D01*
X219207142Y-75367438D02*
X219159523Y-75415057D01*
X219159523Y-75415057D02*
X219111904Y-75510295D01*
X219111904Y-75510295D02*
X219064285Y-75700771D01*
X219064285Y-75700771D02*
X219064285Y-75938866D01*
X219064285Y-75938866D02*
X219111904Y-76129342D01*
X219111904Y-76129342D02*
X219159523Y-76224580D01*
X219159523Y-76224580D02*
X219207142Y-76272200D01*
X219207142Y-76272200D02*
X219302380Y-76319819D01*
X219302380Y-76319819D02*
X219397618Y-76319819D01*
X219397618Y-76319819D02*
X219492856Y-76272200D01*
X219492856Y-76272200D02*
X219540475Y-76224580D01*
X219540475Y-76224580D02*
X219588094Y-76129342D01*
X219588094Y-76129342D02*
X219635713Y-75938866D01*
X219635713Y-75938866D02*
X219635713Y-75700771D01*
X219635713Y-75700771D02*
X219588094Y-75510295D01*
X219588094Y-75510295D02*
X219540475Y-75415057D01*
X219540475Y-75415057D02*
X219492856Y-75367438D01*
X219492856Y-75367438D02*
X219397618Y-75319819D01*
X218207142Y-75319819D02*
X218397618Y-75319819D01*
X218397618Y-75319819D02*
X218492856Y-75367438D01*
X218492856Y-75367438D02*
X218540475Y-75415057D01*
X218540475Y-75415057D02*
X218635713Y-75557914D01*
X218635713Y-75557914D02*
X218683332Y-75748390D01*
X218683332Y-75748390D02*
X218683332Y-76129342D01*
X218683332Y-76129342D02*
X218635713Y-76224580D01*
X218635713Y-76224580D02*
X218588094Y-76272200D01*
X218588094Y-76272200D02*
X218492856Y-76319819D01*
X218492856Y-76319819D02*
X218302380Y-76319819D01*
X218302380Y-76319819D02*
X218207142Y-76272200D01*
X218207142Y-76272200D02*
X218159523Y-76224580D01*
X218159523Y-76224580D02*
X218111904Y-76129342D01*
X218111904Y-76129342D02*
X218111904Y-75891247D01*
X218111904Y-75891247D02*
X218159523Y-75796009D01*
X218159523Y-75796009D02*
X218207142Y-75748390D01*
X218207142Y-75748390D02*
X218302380Y-75700771D01*
X218302380Y-75700771D02*
X218492856Y-75700771D01*
X218492856Y-75700771D02*
X218588094Y-75748390D01*
X218588094Y-75748390D02*
X218635713Y-75796009D01*
X218635713Y-75796009D02*
X218683332Y-75891247D01*
X223249999Y-75319819D02*
X223154761Y-75319819D01*
X223154761Y-75319819D02*
X223059523Y-75367438D01*
X223059523Y-75367438D02*
X223011904Y-75415057D01*
X223011904Y-75415057D02*
X222964285Y-75510295D01*
X222964285Y-75510295D02*
X222916666Y-75700771D01*
X222916666Y-75700771D02*
X222916666Y-75938866D01*
X222916666Y-75938866D02*
X222964285Y-76129342D01*
X222964285Y-76129342D02*
X223011904Y-76224580D01*
X223011904Y-76224580D02*
X223059523Y-76272200D01*
X223059523Y-76272200D02*
X223154761Y-76319819D01*
X223154761Y-76319819D02*
X223249999Y-76319819D01*
X223249999Y-76319819D02*
X223345237Y-76272200D01*
X223345237Y-76272200D02*
X223392856Y-76224580D01*
X223392856Y-76224580D02*
X223440475Y-76129342D01*
X223440475Y-76129342D02*
X223488094Y-75938866D01*
X223488094Y-75938866D02*
X223488094Y-75700771D01*
X223488094Y-75700771D02*
X223440475Y-75510295D01*
X223440475Y-75510295D02*
X223392856Y-75415057D01*
X223392856Y-75415057D02*
X223345237Y-75367438D01*
X223345237Y-75367438D02*
X223249999Y-75319819D01*
X222297618Y-75319819D02*
X222202380Y-75319819D01*
X222202380Y-75319819D02*
X222107142Y-75367438D01*
X222107142Y-75367438D02*
X222059523Y-75415057D01*
X222059523Y-75415057D02*
X222011904Y-75510295D01*
X222011904Y-75510295D02*
X221964285Y-75700771D01*
X221964285Y-75700771D02*
X221964285Y-75938866D01*
X221964285Y-75938866D02*
X222011904Y-76129342D01*
X222011904Y-76129342D02*
X222059523Y-76224580D01*
X222059523Y-76224580D02*
X222107142Y-76272200D01*
X222107142Y-76272200D02*
X222202380Y-76319819D01*
X222202380Y-76319819D02*
X222297618Y-76319819D01*
X222297618Y-76319819D02*
X222392856Y-76272200D01*
X222392856Y-76272200D02*
X222440475Y-76224580D01*
X222440475Y-76224580D02*
X222488094Y-76129342D01*
X222488094Y-76129342D02*
X222535713Y-75938866D01*
X222535713Y-75938866D02*
X222535713Y-75700771D01*
X222535713Y-75700771D02*
X222488094Y-75510295D01*
X222488094Y-75510295D02*
X222440475Y-75415057D01*
X222440475Y-75415057D02*
X222392856Y-75367438D01*
X222392856Y-75367438D02*
X222297618Y-75319819D01*
X221488094Y-76319819D02*
X221297618Y-76319819D01*
X221297618Y-76319819D02*
X221202380Y-76272200D01*
X221202380Y-76272200D02*
X221154761Y-76224580D01*
X221154761Y-76224580D02*
X221059523Y-76081723D01*
X221059523Y-76081723D02*
X221011904Y-75891247D01*
X221011904Y-75891247D02*
X221011904Y-75510295D01*
X221011904Y-75510295D02*
X221059523Y-75415057D01*
X221059523Y-75415057D02*
X221107142Y-75367438D01*
X221107142Y-75367438D02*
X221202380Y-75319819D01*
X221202380Y-75319819D02*
X221392856Y-75319819D01*
X221392856Y-75319819D02*
X221488094Y-75367438D01*
X221488094Y-75367438D02*
X221535713Y-75415057D01*
X221535713Y-75415057D02*
X221583332Y-75510295D01*
X221583332Y-75510295D02*
X221583332Y-75748390D01*
X221583332Y-75748390D02*
X221535713Y-75843628D01*
X221535713Y-75843628D02*
X221488094Y-75891247D01*
X221488094Y-75891247D02*
X221392856Y-75938866D01*
X221392856Y-75938866D02*
X221202380Y-75938866D01*
X221202380Y-75938866D02*
X221107142Y-75891247D01*
X221107142Y-75891247D02*
X221059523Y-75843628D01*
X221059523Y-75843628D02*
X221011904Y-75748390D01*
X228942858Y-45834819D02*
X229419048Y-45834819D01*
X229419048Y-45834819D02*
X229419048Y-44834819D01*
X227847619Y-45834819D02*
X227847619Y-44834819D01*
X227419048Y-45834819D02*
X227419048Y-45311009D01*
X227419048Y-45311009D02*
X227466667Y-45215771D01*
X227466667Y-45215771D02*
X227561905Y-45168152D01*
X227561905Y-45168152D02*
X227704762Y-45168152D01*
X227704762Y-45168152D02*
X227800000Y-45215771D01*
X227800000Y-45215771D02*
X227847619Y-45263390D01*
X226514286Y-45834819D02*
X226514286Y-45311009D01*
X226514286Y-45311009D02*
X226561905Y-45215771D01*
X226561905Y-45215771D02*
X226657143Y-45168152D01*
X226657143Y-45168152D02*
X226847619Y-45168152D01*
X226847619Y-45168152D02*
X226942857Y-45215771D01*
X226514286Y-45787200D02*
X226609524Y-45834819D01*
X226609524Y-45834819D02*
X226847619Y-45834819D01*
X226847619Y-45834819D02*
X226942857Y-45787200D01*
X226942857Y-45787200D02*
X226990476Y-45691961D01*
X226990476Y-45691961D02*
X226990476Y-45596723D01*
X226990476Y-45596723D02*
X226942857Y-45501485D01*
X226942857Y-45501485D02*
X226847619Y-45453866D01*
X226847619Y-45453866D02*
X226609524Y-45453866D01*
X226609524Y-45453866D02*
X226514286Y-45406247D01*
X226038095Y-45168152D02*
X226038095Y-45834819D01*
X226038095Y-45263390D02*
X225990476Y-45215771D01*
X225990476Y-45215771D02*
X225895238Y-45168152D01*
X225895238Y-45168152D02*
X225752381Y-45168152D01*
X225752381Y-45168152D02*
X225657143Y-45215771D01*
X225657143Y-45215771D02*
X225609524Y-45311009D01*
X225609524Y-45311009D02*
X225609524Y-45834819D01*
X224704762Y-45834819D02*
X224704762Y-44834819D01*
X224704762Y-45787200D02*
X224800000Y-45834819D01*
X224800000Y-45834819D02*
X224990476Y-45834819D01*
X224990476Y-45834819D02*
X225085714Y-45787200D01*
X225085714Y-45787200D02*
X225133333Y-45739580D01*
X225133333Y-45739580D02*
X225180952Y-45644342D01*
X225180952Y-45644342D02*
X225180952Y-45358628D01*
X225180952Y-45358628D02*
X225133333Y-45263390D01*
X225133333Y-45263390D02*
X225085714Y-45215771D01*
X225085714Y-45215771D02*
X224990476Y-45168152D01*
X224990476Y-45168152D02*
X224800000Y-45168152D01*
X224800000Y-45168152D02*
X224704762Y-45215771D01*
X223466666Y-45834819D02*
X223466666Y-44834819D01*
X223466666Y-45215771D02*
X223371428Y-45168152D01*
X223371428Y-45168152D02*
X223180952Y-45168152D01*
X223180952Y-45168152D02*
X223085714Y-45215771D01*
X223085714Y-45215771D02*
X223038095Y-45263390D01*
X223038095Y-45263390D02*
X222990476Y-45358628D01*
X222990476Y-45358628D02*
X222990476Y-45644342D01*
X222990476Y-45644342D02*
X223038095Y-45739580D01*
X223038095Y-45739580D02*
X223085714Y-45787200D01*
X223085714Y-45787200D02*
X223180952Y-45834819D01*
X223180952Y-45834819D02*
X223371428Y-45834819D01*
X223371428Y-45834819D02*
X223466666Y-45787200D01*
X222133333Y-45834819D02*
X222133333Y-45311009D01*
X222133333Y-45311009D02*
X222180952Y-45215771D01*
X222180952Y-45215771D02*
X222276190Y-45168152D01*
X222276190Y-45168152D02*
X222466666Y-45168152D01*
X222466666Y-45168152D02*
X222561904Y-45215771D01*
X222133333Y-45787200D02*
X222228571Y-45834819D01*
X222228571Y-45834819D02*
X222466666Y-45834819D01*
X222466666Y-45834819D02*
X222561904Y-45787200D01*
X222561904Y-45787200D02*
X222609523Y-45691961D01*
X222609523Y-45691961D02*
X222609523Y-45596723D01*
X222609523Y-45596723D02*
X222561904Y-45501485D01*
X222561904Y-45501485D02*
X222466666Y-45453866D01*
X222466666Y-45453866D02*
X222228571Y-45453866D01*
X222228571Y-45453866D02*
X222133333Y-45406247D01*
X221228571Y-45787200D02*
X221323809Y-45834819D01*
X221323809Y-45834819D02*
X221514285Y-45834819D01*
X221514285Y-45834819D02*
X221609523Y-45787200D01*
X221609523Y-45787200D02*
X221657142Y-45739580D01*
X221657142Y-45739580D02*
X221704761Y-45644342D01*
X221704761Y-45644342D02*
X221704761Y-45358628D01*
X221704761Y-45358628D02*
X221657142Y-45263390D01*
X221657142Y-45263390D02*
X221609523Y-45215771D01*
X221609523Y-45215771D02*
X221514285Y-45168152D01*
X221514285Y-45168152D02*
X221323809Y-45168152D01*
X221323809Y-45168152D02*
X221228571Y-45215771D01*
X220799999Y-45834819D02*
X220799999Y-44834819D01*
X220704761Y-45453866D02*
X220419047Y-45834819D01*
X220419047Y-45168152D02*
X220799999Y-45549104D01*
X219276189Y-45787200D02*
X219180951Y-45834819D01*
X219180951Y-45834819D02*
X218990475Y-45834819D01*
X218990475Y-45834819D02*
X218895237Y-45787200D01*
X218895237Y-45787200D02*
X218847618Y-45691961D01*
X218847618Y-45691961D02*
X218847618Y-45644342D01*
X218847618Y-45644342D02*
X218895237Y-45549104D01*
X218895237Y-45549104D02*
X218990475Y-45501485D01*
X218990475Y-45501485D02*
X219133332Y-45501485D01*
X219133332Y-45501485D02*
X219228570Y-45453866D01*
X219228570Y-45453866D02*
X219276189Y-45358628D01*
X219276189Y-45358628D02*
X219276189Y-45311009D01*
X219276189Y-45311009D02*
X219228570Y-45215771D01*
X219228570Y-45215771D02*
X219133332Y-45168152D01*
X219133332Y-45168152D02*
X218990475Y-45168152D01*
X218990475Y-45168152D02*
X218895237Y-45215771D01*
X218419046Y-45834819D02*
X218419046Y-45168152D01*
X218419046Y-44834819D02*
X218466665Y-44882438D01*
X218466665Y-44882438D02*
X218419046Y-44930057D01*
X218419046Y-44930057D02*
X218371427Y-44882438D01*
X218371427Y-44882438D02*
X218419046Y-44834819D01*
X218419046Y-44834819D02*
X218419046Y-44930057D01*
X217514285Y-45834819D02*
X217514285Y-44834819D01*
X217514285Y-45787200D02*
X217609523Y-45834819D01*
X217609523Y-45834819D02*
X217799999Y-45834819D01*
X217799999Y-45834819D02*
X217895237Y-45787200D01*
X217895237Y-45787200D02*
X217942856Y-45739580D01*
X217942856Y-45739580D02*
X217990475Y-45644342D01*
X217990475Y-45644342D02*
X217990475Y-45358628D01*
X217990475Y-45358628D02*
X217942856Y-45263390D01*
X217942856Y-45263390D02*
X217895237Y-45215771D01*
X217895237Y-45215771D02*
X217799999Y-45168152D01*
X217799999Y-45168152D02*
X217609523Y-45168152D01*
X217609523Y-45168152D02*
X217514285Y-45215771D01*
X216657142Y-45787200D02*
X216752380Y-45834819D01*
X216752380Y-45834819D02*
X216942856Y-45834819D01*
X216942856Y-45834819D02*
X217038094Y-45787200D01*
X217038094Y-45787200D02*
X217085713Y-45691961D01*
X217085713Y-45691961D02*
X217085713Y-45311009D01*
X217085713Y-45311009D02*
X217038094Y-45215771D01*
X217038094Y-45215771D02*
X216942856Y-45168152D01*
X216942856Y-45168152D02*
X216752380Y-45168152D01*
X216752380Y-45168152D02*
X216657142Y-45215771D01*
X216657142Y-45215771D02*
X216609523Y-45311009D01*
X216609523Y-45311009D02*
X216609523Y-45406247D01*
X216609523Y-45406247D02*
X217085713Y-45501485D01*
X215133332Y-46215771D02*
X215180951Y-46168152D01*
X215180951Y-46168152D02*
X215276189Y-46025295D01*
X215276189Y-46025295D02*
X215323808Y-45930057D01*
X215323808Y-45930057D02*
X215371427Y-45787200D01*
X215371427Y-45787200D02*
X215419046Y-45549104D01*
X215419046Y-45549104D02*
X215419046Y-45358628D01*
X215419046Y-45358628D02*
X215371427Y-45120533D01*
X215371427Y-45120533D02*
X215323808Y-44977676D01*
X215323808Y-44977676D02*
X215276189Y-44882438D01*
X215276189Y-44882438D02*
X215180951Y-44739580D01*
X215180951Y-44739580D02*
X215133332Y-44691961D01*
X214752379Y-45834819D02*
X214752379Y-44834819D01*
X214752379Y-44834819D02*
X214419046Y-45549104D01*
X214419046Y-45549104D02*
X214085713Y-44834819D01*
X214085713Y-44834819D02*
X214085713Y-45834819D01*
X213228570Y-45834819D02*
X213228570Y-45072914D01*
X213419046Y-45263390D02*
X213228570Y-45072914D01*
X213228570Y-45072914D02*
X213038094Y-45263390D01*
X212466665Y-46215771D02*
X212419046Y-46168152D01*
X212419046Y-46168152D02*
X212323808Y-46025295D01*
X212323808Y-46025295D02*
X212276189Y-45930057D01*
X212276189Y-45930057D02*
X212228570Y-45787200D01*
X212228570Y-45787200D02*
X212180951Y-45549104D01*
X212180951Y-45549104D02*
X212180951Y-45358628D01*
X212180951Y-45358628D02*
X212228570Y-45120533D01*
X212228570Y-45120533D02*
X212276189Y-44977676D01*
X212276189Y-44977676D02*
X212323808Y-44882438D01*
X212323808Y-44882438D02*
X212419046Y-44739580D01*
X212419046Y-44739580D02*
X212466665Y-44691961D01*
X233569047Y-87654819D02*
X233378571Y-87654819D01*
X233378571Y-87654819D02*
X233283333Y-87702438D01*
X233283333Y-87702438D02*
X233188095Y-87797676D01*
X233188095Y-87797676D02*
X233140476Y-87988152D01*
X233140476Y-87988152D02*
X233140476Y-88321485D01*
X233140476Y-88321485D02*
X233188095Y-88511961D01*
X233188095Y-88511961D02*
X233283333Y-88607200D01*
X233283333Y-88607200D02*
X233378571Y-88654819D01*
X233378571Y-88654819D02*
X233569047Y-88654819D01*
X233569047Y-88654819D02*
X233664285Y-88607200D01*
X233664285Y-88607200D02*
X233759523Y-88511961D01*
X233759523Y-88511961D02*
X233807142Y-88321485D01*
X233807142Y-88321485D02*
X233807142Y-87988152D01*
X233807142Y-87988152D02*
X233759523Y-87797676D01*
X233759523Y-87797676D02*
X233664285Y-87702438D01*
X233664285Y-87702438D02*
X233569047Y-87654819D01*
X232711904Y-88654819D02*
X232711904Y-87654819D01*
X232711904Y-87654819D02*
X232140476Y-88654819D01*
X232140476Y-88654819D02*
X232140476Y-87654819D01*
X233902380Y-77654819D02*
X233711904Y-77654819D01*
X233711904Y-77654819D02*
X233616666Y-77702438D01*
X233616666Y-77702438D02*
X233521428Y-77797676D01*
X233521428Y-77797676D02*
X233473809Y-77988152D01*
X233473809Y-77988152D02*
X233473809Y-78321485D01*
X233473809Y-78321485D02*
X233521428Y-78511961D01*
X233521428Y-78511961D02*
X233616666Y-78607200D01*
X233616666Y-78607200D02*
X233711904Y-78654819D01*
X233711904Y-78654819D02*
X233902380Y-78654819D01*
X233902380Y-78654819D02*
X233997618Y-78607200D01*
X233997618Y-78607200D02*
X234092856Y-78511961D01*
X234092856Y-78511961D02*
X234140475Y-78321485D01*
X234140475Y-78321485D02*
X234140475Y-77988152D01*
X234140475Y-77988152D02*
X234092856Y-77797676D01*
X234092856Y-77797676D02*
X233997618Y-77702438D01*
X233997618Y-77702438D02*
X233902380Y-77654819D01*
X232711904Y-78131009D02*
X233045237Y-78131009D01*
X233045237Y-78654819D02*
X233045237Y-77654819D01*
X233045237Y-77654819D02*
X232569047Y-77654819D01*
X231854761Y-78131009D02*
X232188094Y-78131009D01*
X232188094Y-78654819D02*
X232188094Y-77654819D01*
X232188094Y-77654819D02*
X231711904Y-77654819D01*
D11*
%TO.C,S1*%
X101220000Y-116230000D02*
X100000000Y-117480000D01*
X100000000Y-117480000D02*
X98120000Y-117480000D01*
%TO.C,S2*%
X101220000Y-97230000D02*
X100000000Y-98480000D01*
X100000000Y-98480000D02*
X98120000Y-98480000D01*
%TO.C,S3*%
X101220000Y-78230000D02*
X100000000Y-79480000D01*
X100000000Y-79480000D02*
X98120000Y-79480000D01*
%TO.C,S4*%
X101220000Y-59230000D02*
X100000000Y-60480000D01*
X100000000Y-60480000D02*
X98120000Y-60480000D01*
%TO.C,S5*%
X120220000Y-116230000D02*
X119000000Y-117480000D01*
X119000000Y-117480000D02*
X117120000Y-117480000D01*
%TO.C,S6*%
X120220000Y-97230000D02*
X119000000Y-98480000D01*
X119000000Y-98480000D02*
X117120000Y-98480000D01*
%TO.C,S7*%
X120220000Y-78230000D02*
X119000000Y-79480000D01*
X119000000Y-79480000D02*
X117120000Y-79480000D01*
%TO.C,S8*%
X120220000Y-59230000D02*
X119000000Y-60480000D01*
X119000000Y-60480000D02*
X117120000Y-60480000D01*
%TO.C,S9*%
X139220000Y-101980000D02*
X138000000Y-103230000D01*
X138000000Y-103230000D02*
X136120000Y-103230000D01*
%TO.C,S10*%
X139220000Y-82980000D02*
X138000000Y-84230000D01*
X138000000Y-84230000D02*
X136120000Y-84230000D01*
%TO.C,S11*%
X139220000Y-63980000D02*
X138000000Y-65230000D01*
X138000000Y-65230000D02*
X136120000Y-65230000D01*
%TO.C,S12*%
X139220000Y-44980000D02*
X138000000Y-46230000D01*
X138000000Y-46230000D02*
X136120000Y-46230000D01*
%TO.C,S13*%
X158220000Y-97230000D02*
X157000000Y-98480000D01*
X157000000Y-98480000D02*
X155120000Y-98480000D01*
%TO.C,S14*%
X158220000Y-78230000D02*
X157000000Y-79480000D01*
X157000000Y-79480000D02*
X155120000Y-79480000D01*
%TO.C,S15*%
X158220000Y-59230000D02*
X157000000Y-60480000D01*
X157000000Y-60480000D02*
X155120000Y-60480000D01*
%TO.C,S16*%
X158220000Y-40230000D02*
X157000000Y-41480000D01*
X157000000Y-41480000D02*
X155120000Y-41480000D01*
%TO.C,S17*%
X177220000Y-101980000D02*
X176000000Y-103230000D01*
X176000000Y-103230000D02*
X174120000Y-103230000D01*
%TO.C,S18*%
X177220000Y-82980000D02*
X176000000Y-84230000D01*
X176000000Y-84230000D02*
X174120000Y-84230000D01*
%TO.C,S19*%
X177220000Y-63980000D02*
X176000000Y-65230000D01*
X176000000Y-65230000D02*
X174120000Y-65230000D01*
%TO.C,S20*%
X177220000Y-44980000D02*
X176000000Y-46230000D01*
X176000000Y-46230000D02*
X174120000Y-46230000D01*
%TO.C,S21*%
X196220000Y-104355000D02*
X195000000Y-105605000D01*
X195000000Y-105605000D02*
X193120000Y-105605000D01*
%TO.C,S22*%
X196220000Y-85355000D02*
X195000000Y-86605000D01*
X195000000Y-86605000D02*
X193120000Y-86605000D01*
%TO.C,S23*%
X196220000Y-66355000D02*
X195000000Y-67605000D01*
X195000000Y-67605000D02*
X193120000Y-67605000D01*
%TO.C,S24*%
X196220000Y-47355000D02*
X195000000Y-48605000D01*
X195000000Y-48605000D02*
X193120000Y-48605000D01*
%TO.C,S25*%
X185504419Y-125789326D02*
X184085893Y-126808484D01*
X184085893Y-126808484D02*
X182234455Y-126482026D01*
%TO.C,S26*%
X206951241Y-131665923D02*
X205377291Y-132423275D01*
X205377291Y-132423275D02*
X203610669Y-131780277D01*
%TO.C,S27*%
X227051751Y-141177384D02*
X225370200Y-141649916D01*
X225370200Y-141649916D02*
X223742072Y-140709916D01*
%TO.C,D1*%
X100250000Y-125000000D02*
X100750000Y-125000000D01*
X100250000Y-125400000D02*
X99650000Y-125000000D01*
X100250000Y-124600000D02*
X100250000Y-125400000D01*
X99650000Y-125000000D02*
X100250000Y-124600000D01*
X99650000Y-125000000D02*
X99650000Y-125550000D01*
X99650000Y-125000000D02*
X99650000Y-124450000D01*
X99250000Y-125000000D02*
X99650000Y-125000000D01*
%TO.C,D2*%
X100250000Y-106000000D02*
X100750000Y-106000000D01*
X100250000Y-106400000D02*
X99650000Y-106000000D01*
X100250000Y-105600000D02*
X100250000Y-106400000D01*
X99650000Y-106000000D02*
X100250000Y-105600000D01*
X99650000Y-106000000D02*
X99650000Y-106550000D01*
X99650000Y-106000000D02*
X99650000Y-105450000D01*
X99250000Y-106000000D02*
X99650000Y-106000000D01*
%TO.C,D3*%
X100250000Y-87000000D02*
X100750000Y-87000000D01*
X100250000Y-87400000D02*
X99650000Y-87000000D01*
X100250000Y-86600000D02*
X100250000Y-87400000D01*
X99650000Y-87000000D02*
X100250000Y-86600000D01*
X99650000Y-87000000D02*
X99650000Y-87550000D01*
X99650000Y-87000000D02*
X99650000Y-86450000D01*
X99250000Y-87000000D02*
X99650000Y-87000000D01*
%TO.C,D4*%
X100250000Y-68000000D02*
X100750000Y-68000000D01*
X100250000Y-68400000D02*
X99650000Y-68000000D01*
X100250000Y-67600000D02*
X100250000Y-68400000D01*
X99650000Y-68000000D02*
X100250000Y-67600000D01*
X99650000Y-68000000D02*
X99650000Y-68550000D01*
X99650000Y-68000000D02*
X99650000Y-67450000D01*
X99250000Y-68000000D02*
X99650000Y-68000000D01*
%TO.C,D5*%
X119250000Y-125000000D02*
X119750000Y-125000000D01*
X119250000Y-125400000D02*
X118650000Y-125000000D01*
X119250000Y-124600000D02*
X119250000Y-125400000D01*
X118650000Y-125000000D02*
X119250000Y-124600000D01*
X118650000Y-125000000D02*
X118650000Y-125550000D01*
X118650000Y-125000000D02*
X118650000Y-124450000D01*
X118250000Y-125000000D02*
X118650000Y-125000000D01*
%TO.C,D6*%
X119250000Y-106000000D02*
X119750000Y-106000000D01*
X119250000Y-106400000D02*
X118650000Y-106000000D01*
X119250000Y-105600000D02*
X119250000Y-106400000D01*
X118650000Y-106000000D02*
X119250000Y-105600000D01*
X118650000Y-106000000D02*
X118650000Y-106550000D01*
X118650000Y-106000000D02*
X118650000Y-105450000D01*
X118250000Y-106000000D02*
X118650000Y-106000000D01*
%TO.C,D7*%
X119250000Y-87000000D02*
X119750000Y-87000000D01*
X119250000Y-87400000D02*
X118650000Y-87000000D01*
X119250000Y-86600000D02*
X119250000Y-87400000D01*
X118650000Y-87000000D02*
X119250000Y-86600000D01*
X118650000Y-87000000D02*
X118650000Y-87550000D01*
X118650000Y-87000000D02*
X118650000Y-86450000D01*
X118250000Y-87000000D02*
X118650000Y-87000000D01*
%TO.C,D8*%
X119250000Y-68000000D02*
X119750000Y-68000000D01*
X119250000Y-68400000D02*
X118650000Y-68000000D01*
X119250000Y-67600000D02*
X119250000Y-68400000D01*
X118650000Y-68000000D02*
X119250000Y-67600000D01*
X118650000Y-68000000D02*
X118650000Y-68550000D01*
X118650000Y-68000000D02*
X118650000Y-67450000D01*
X118250000Y-68000000D02*
X118650000Y-68000000D01*
%TO.C,D9*%
X138250000Y-110750000D02*
X138750000Y-110750000D01*
X138250000Y-111150000D02*
X137650000Y-110750000D01*
X138250000Y-110350000D02*
X138250000Y-111150000D01*
X137650000Y-110750000D02*
X138250000Y-110350000D01*
X137650000Y-110750000D02*
X137650000Y-111300000D01*
X137650000Y-110750000D02*
X137650000Y-110200000D01*
X137250000Y-110750000D02*
X137650000Y-110750000D01*
%TO.C,D10*%
X138250000Y-91750000D02*
X138750000Y-91750000D01*
X138250000Y-92150000D02*
X137650000Y-91750000D01*
X138250000Y-91350000D02*
X138250000Y-92150000D01*
X137650000Y-91750000D02*
X138250000Y-91350000D01*
X137650000Y-91750000D02*
X137650000Y-92300000D01*
X137650000Y-91750000D02*
X137650000Y-91200000D01*
X137250000Y-91750000D02*
X137650000Y-91750000D01*
%TO.C,D11*%
X138250000Y-72750000D02*
X138750000Y-72750000D01*
X138250000Y-73150000D02*
X137650000Y-72750000D01*
X138250000Y-72350000D02*
X138250000Y-73150000D01*
X137650000Y-72750000D02*
X138250000Y-72350000D01*
X137650000Y-72750000D02*
X137650000Y-73300000D01*
X137650000Y-72750000D02*
X137650000Y-72200000D01*
X137250000Y-72750000D02*
X137650000Y-72750000D01*
%TO.C,D12*%
X138250000Y-53750000D02*
X138750000Y-53750000D01*
X138250000Y-54150000D02*
X137650000Y-53750000D01*
X138250000Y-53350000D02*
X138250000Y-54150000D01*
X137650000Y-53750000D02*
X138250000Y-53350000D01*
X137650000Y-53750000D02*
X137650000Y-54300000D01*
X137650000Y-53750000D02*
X137650000Y-53200000D01*
X137250000Y-53750000D02*
X137650000Y-53750000D01*
%TO.C,D13*%
X157250000Y-106000000D02*
X157750000Y-106000000D01*
X157250000Y-106400000D02*
X156650000Y-106000000D01*
X157250000Y-105600000D02*
X157250000Y-106400000D01*
X156650000Y-106000000D02*
X157250000Y-105600000D01*
X156650000Y-106000000D02*
X156650000Y-106550000D01*
X156650000Y-106000000D02*
X156650000Y-105450000D01*
X156250000Y-106000000D02*
X156650000Y-106000000D01*
%TO.C,D14*%
X157250000Y-87000000D02*
X157750000Y-87000000D01*
X157250000Y-87400000D02*
X156650000Y-87000000D01*
X157250000Y-86600000D02*
X157250000Y-87400000D01*
X156650000Y-87000000D02*
X157250000Y-86600000D01*
X156650000Y-87000000D02*
X156650000Y-87550000D01*
X156650000Y-87000000D02*
X156650000Y-86450000D01*
X156250000Y-87000000D02*
X156650000Y-87000000D01*
%TO.C,D15*%
X157250000Y-68000000D02*
X157750000Y-68000000D01*
X157250000Y-68400000D02*
X156650000Y-68000000D01*
X157250000Y-67600000D02*
X157250000Y-68400000D01*
X156650000Y-68000000D02*
X157250000Y-67600000D01*
X156650000Y-68000000D02*
X156650000Y-68550000D01*
X156650000Y-68000000D02*
X156650000Y-67450000D01*
X156250000Y-68000000D02*
X156650000Y-68000000D01*
%TO.C,D16*%
X157250000Y-49000000D02*
X157750000Y-49000000D01*
X157250000Y-49400000D02*
X156650000Y-49000000D01*
X157250000Y-48600000D02*
X157250000Y-49400000D01*
X156650000Y-49000000D02*
X157250000Y-48600000D01*
X156650000Y-49000000D02*
X156650000Y-49550000D01*
X156650000Y-49000000D02*
X156650000Y-48450000D01*
X156250000Y-49000000D02*
X156650000Y-49000000D01*
%TO.C,D17*%
X176250000Y-110750000D02*
X176750000Y-110750000D01*
X176250000Y-111150000D02*
X175650000Y-110750000D01*
X176250000Y-110350000D02*
X176250000Y-111150000D01*
X175650000Y-110750000D02*
X176250000Y-110350000D01*
X175650000Y-110750000D02*
X175650000Y-111300000D01*
X175650000Y-110750000D02*
X175650000Y-110200000D01*
X175250000Y-110750000D02*
X175650000Y-110750000D01*
%TO.C,D18*%
X176250000Y-91750000D02*
X176750000Y-91750000D01*
X176250000Y-92150000D02*
X175650000Y-91750000D01*
X176250000Y-91350000D02*
X176250000Y-92150000D01*
X175650000Y-91750000D02*
X176250000Y-91350000D01*
X175650000Y-91750000D02*
X175650000Y-92300000D01*
X175650000Y-91750000D02*
X175650000Y-91200000D01*
X175250000Y-91750000D02*
X175650000Y-91750000D01*
%TO.C,D19*%
X176250000Y-72750000D02*
X176750000Y-72750000D01*
X176250000Y-73150000D02*
X175650000Y-72750000D01*
X176250000Y-72350000D02*
X176250000Y-73150000D01*
X175650000Y-72750000D02*
X176250000Y-72350000D01*
X175650000Y-72750000D02*
X175650000Y-73300000D01*
X175650000Y-72750000D02*
X175650000Y-72200000D01*
X175250000Y-72750000D02*
X175650000Y-72750000D01*
%TO.C,D20*%
X176250000Y-53750000D02*
X176750000Y-53750000D01*
X176250000Y-54150000D02*
X175650000Y-53750000D01*
X176250000Y-53350000D02*
X176250000Y-54150000D01*
X175650000Y-53750000D02*
X176250000Y-53350000D01*
X175650000Y-53750000D02*
X175650000Y-54300000D01*
X175650000Y-53750000D02*
X175650000Y-53200000D01*
X175250000Y-53750000D02*
X175650000Y-53750000D01*
%TO.C,D21*%
X195250000Y-113125000D02*
X195750000Y-113125000D01*
X195250000Y-113525000D02*
X194650000Y-113125000D01*
X195250000Y-112725000D02*
X195250000Y-113525000D01*
X194650000Y-113125000D02*
X195250000Y-112725000D01*
X194650000Y-113125000D02*
X194650000Y-113675000D01*
X194650000Y-113125000D02*
X194650000Y-112575000D01*
X194250000Y-113125000D02*
X194650000Y-113125000D01*
%TO.C,D22*%
X195250000Y-94125000D02*
X195750000Y-94125000D01*
X195250000Y-94525000D02*
X194650000Y-94125000D01*
X195250000Y-93725000D02*
X195250000Y-94525000D01*
X194650000Y-94125000D02*
X195250000Y-93725000D01*
X194650000Y-94125000D02*
X194650000Y-94675000D01*
X194650000Y-94125000D02*
X194650000Y-93575000D01*
X194250000Y-94125000D02*
X194650000Y-94125000D01*
%TO.C,D23*%
X195250000Y-75125000D02*
X195750000Y-75125000D01*
X195250000Y-75525000D02*
X194650000Y-75125000D01*
X195250000Y-74725000D02*
X195250000Y-75525000D01*
X194650000Y-75125000D02*
X195250000Y-74725000D01*
X194650000Y-75125000D02*
X194650000Y-75675000D01*
X194650000Y-75125000D02*
X194650000Y-74575000D01*
X194250000Y-75125000D02*
X194650000Y-75125000D01*
%TO.C,D24*%
X195250000Y-56125000D02*
X195750000Y-56125000D01*
X195250000Y-56525000D02*
X194650000Y-56125000D01*
X195250000Y-55725000D02*
X195250000Y-56525000D01*
X194650000Y-56125000D02*
X195250000Y-55725000D01*
X194650000Y-56125000D02*
X194650000Y-56675000D01*
X194650000Y-56125000D02*
X194650000Y-55575000D01*
X194250000Y-56125000D02*
X194650000Y-56125000D01*
%TO.C,D25*%
X183026202Y-134257612D02*
X183518606Y-134344436D01*
X182956743Y-134651535D02*
X182435317Y-134153423D01*
X183095661Y-133863689D02*
X182956743Y-134651535D01*
X182435317Y-134153423D02*
X183095661Y-133863689D01*
X182435317Y-134153423D02*
X182339811Y-134695067D01*
X182435317Y-134153423D02*
X182530824Y-133611779D01*
X182041394Y-134083964D02*
X182435317Y-134153423D01*
%TO.C,D26*%
X203040223Y-139575205D02*
X203510069Y-139746215D01*
X202903415Y-139951082D02*
X202476408Y-139369993D01*
X203177031Y-139199328D02*
X202903415Y-139951082D01*
X202476408Y-139369993D02*
X203177031Y-139199328D01*
X202476408Y-139369993D02*
X202288297Y-139886824D01*
X202476408Y-139369993D02*
X202664519Y-138853162D01*
X202100531Y-139233185D02*
X202476408Y-139369993D01*
%TO.C,D27*%
X221826706Y-148287500D02*
X222259719Y-148537500D01*
X221626706Y-148633910D02*
X221307091Y-147987500D01*
X222026706Y-147941090D02*
X221626706Y-148633910D01*
X221307091Y-147987500D02*
X222026706Y-147941090D01*
X221307091Y-147987500D02*
X221032091Y-148463814D01*
X221307091Y-147987500D02*
X221582091Y-147511186D01*
X220960681Y-147787500D02*
X221307091Y-147987500D01*
D12*
%TO.C,MCU1*%
X214510000Y-46595000D02*
X211850000Y-46595000D01*
X214510000Y-46595000D02*
X214510000Y-77195000D01*
X214510000Y-77195000D02*
X211850000Y-77195000D01*
X211850000Y-46595000D02*
X211850000Y-77195000D01*
X229750000Y-46595000D02*
X227090000Y-46595000D01*
X229750000Y-46595000D02*
X229750000Y-77195000D01*
X229750000Y-77195000D02*
X227090000Y-77195000D01*
X227090000Y-46595000D02*
X227090000Y-77195000D01*
X211850000Y-49195000D02*
X214510000Y-49195000D01*
D11*
%TO.C,RST1*%
X234450000Y-58275000D02*
X234700000Y-58275000D01*
X231450000Y-58275000D02*
X231200000Y-58275000D01*
X234700000Y-58525000D02*
X234700000Y-58275000D01*
X231200000Y-58525000D02*
X231200000Y-58275000D01*
X234700000Y-62725000D02*
X234700000Y-62975000D01*
X231200000Y-62725000D02*
X231200000Y-62975000D01*
X234450000Y-62975000D02*
X234700000Y-62975000D01*
X231450000Y-62975000D02*
X231200000Y-62975000D01*
D12*
%TO.C,PWR1*%
X231525000Y-84600000D02*
X231525000Y-84800000D01*
X233365000Y-86650000D02*
X232575000Y-86650000D01*
X232575000Y-79750000D02*
X233365000Y-79750000D01*
X231525000Y-81600000D02*
X231525000Y-83300000D01*
X234375000Y-80350000D02*
X234375000Y-86050000D01*
D11*
%TO.C,JST1*%
X219900000Y-84175000D02*
X219900000Y-83175000D01*
X219900000Y-81175000D02*
X219900000Y-82175000D01*
X220400000Y-81675000D02*
X219400000Y-81675000D01*
D12*
X228760000Y-80615000D02*
X228760000Y-79615000D01*
X228760000Y-79615000D02*
X227760000Y-79615000D01*
X228760000Y-84815000D02*
X228760000Y-85735000D01*
X228760000Y-85735000D02*
X227760000Y-85735000D01*
X220940000Y-80535000D02*
X220940000Y-79615000D01*
X220940000Y-79615000D02*
X221940000Y-79615000D01*
X220940000Y-84815000D02*
X220940000Y-85735000D01*
X220940000Y-85735000D02*
X221940000Y-85735000D01*
%TD*%
M02*
