%TF.GenerationSoftware,KiCad,Pcbnew,9.0.8-1.fc43*%
%TF.CreationDate,2026-04-14T18:29:21-07:00*%
%TF.ProjectId,pepekey,70657065-6b65-4792-9e6b-696361645f70,0.1.0*%
%TF.SameCoordinates,Original*%
%TF.FileFunction,Paste,Top*%
%TF.FilePolarity,Positive*%
%FSLAX46Y46*%
G04 Gerber Fmt 4.6, Leading zero omitted, Abs format (unit mm)*
G04 Created by KiCad (PCBNEW 9.0.8-1.fc43) date 2026-04-14 18:29:21*
%MOMM*%
%LPD*%
G01*
G04 APERTURE LIST*
G04 Aperture macros list*
%AMRotRect*
0 Rectangle, with rotation*
0 The origin of the aperture is its center*
0 $1 length*
0 $2 width*
0 $3 Rotation angle, in degrees counterclockwise*
0 Add horizontal line*
21,1,$1,$2,0,0,$3*%
%AMOutline5P*
0 Free polygon, 5 corners , with rotation*
0 The origin of the aperture is its center*
0 number of corners: always 5*
0 $1 to $10 corner X, Y*
0 $11 Rotation angle, in degrees counterclockwise*
0 create outline with 5 corners*
4,1,5,$1,$2,$3,$4,$5,$6,$7,$8,$9,$10,$1,$2,$11*%
%AMOutline6P*
0 Free polygon, 6 corners , with rotation*
0 The origin of the aperture is its center*
0 number of corners: always 6*
0 $1 to $12 corner X, Y*
0 $13 Rotation angle, in degrees counterclockwise*
0 create outline with 6 corners*
4,1,6,$1,$2,$3,$4,$5,$6,$7,$8,$9,$10,$11,$12,$1,$2,$13*%
%AMOutline7P*
0 Free polygon, 7 corners , with rotation*
0 The origin of the aperture is its center*
0 number of corners: always 7*
0 $1 to $14 corner X, Y*
0 $15 Rotation angle, in degrees counterclockwise*
0 create outline with 7 corners*
4,1,7,$1,$2,$3,$4,$5,$6,$7,$8,$9,$10,$11,$12,$13,$14,$1,$2,$15*%
%AMOutline8P*
0 Free polygon, 8 corners , with rotation*
0 The origin of the aperture is its center*
0 number of corners: always 8*
0 $1 to $16 corner X, Y*
0 $17 Rotation angle, in degrees counterclockwise*
0 create outline with 8 corners*
4,1,8,$1,$2,$3,$4,$5,$6,$7,$8,$9,$10,$11,$12,$13,$14,$15,$16,$1,$2,$17*%
%AMFreePoly0*
4,1,6,0.250000,0.000000,-0.250000,-0.625000,-0.500000,-0.625000,-0.500000,0.625000,-0.250000,0.625000,0.250000,0.000000,0.250000,0.000000,$1*%
%AMFreePoly1*
4,1,6,0.500000,-0.625000,-0.650000,-0.625000,-0.150000,0.000000,-0.650000,0.625000,0.500000,0.625000,0.500000,-0.625000,0.500000,-0.625000,$1*%
%AMFreePoly2*
4,1,6,0.600000,-0.200000,0.600000,-0.400000,-0.600000,-0.400000,-0.600000,-0.200000,0.000000,0.400000,0.600000,-0.200000,0.600000,-0.200000,$1*%
%AMFreePoly3*
4,1,6,0.600000,-1.000000,0.000000,-0.400000,-0.600000,-1.000000,-0.600000,0.250000,0.600000,0.250000,0.600000,-1.000000,0.600000,-1.000000,$1*%
G04 Aperture macros list end*
%ADD10R,2.550000X2.500000*%
%ADD11Outline5P,-1.275000X1.250000X1.275000X1.250000X1.275000X-0.750000X0.775000X-1.250000X-1.275000X-1.250000X0.000000*%
%ADD12RotRect,2.550000X2.500000X350.000000*%
%ADD13Outline5P,-1.275000X1.250000X1.275000X1.250000X1.275000X-0.750000X0.775000X-1.250000X-1.275000X-1.250000X350.000000*%
%ADD14RotRect,2.550000X2.500000X340.000000*%
%ADD15Outline5P,-1.275000X1.250000X1.275000X1.250000X1.275000X-0.750000X0.775000X-1.250000X-1.275000X-1.250000X340.000000*%
%ADD16RotRect,2.550000X2.500000X330.000000*%
%ADD17Outline5P,-1.275000X1.250000X1.275000X1.250000X1.275000X-0.750000X0.775000X-1.250000X-1.275000X-1.250000X330.000000*%
%ADD18R,0.900000X1.200000*%
%ADD19RotRect,0.900000X1.200000X350.000000*%
%ADD20RotRect,0.900000X1.200000X340.000000*%
%ADD21RotRect,0.900000X1.200000X330.000000*%
%ADD22FreePoly0,0.000000*%
%ADD23FreePoly1,0.000000*%
%ADD24FreePoly1,180.000000*%
%ADD25FreePoly0,180.000000*%
%ADD26R,1.000000X1.550000*%
%ADD27R,0.800000X1.000000*%
%ADD28R,1.500000X0.700000*%
%ADD29FreePoly2,90.000000*%
%ADD30FreePoly3,90.000000*%
G04 APERTURE END LIST*
D10*
%TO.C,S1*%
X107085000Y-117460000D03*
D11*
X94158000Y-114920000D03*
%TD*%
D10*
%TO.C,S2*%
X107085000Y-98460000D03*
D11*
X94158000Y-95920000D03*
%TD*%
D10*
%TO.C,S3*%
X107085000Y-79460000D03*
D11*
X94158000Y-76920000D03*
%TD*%
D10*
%TO.C,S4*%
X107085000Y-60460000D03*
D11*
X94158000Y-57920000D03*
%TD*%
D10*
%TO.C,S5*%
X126085000Y-117460000D03*
D11*
X113158000Y-114920000D03*
%TD*%
D10*
%TO.C,S6*%
X126085000Y-98460000D03*
D11*
X113158000Y-95920000D03*
%TD*%
D10*
%TO.C,S7*%
X126085000Y-79460000D03*
D11*
X113158000Y-76920000D03*
%TD*%
D10*
%TO.C,S8*%
X126085000Y-60460000D03*
D11*
X113158000Y-57920000D03*
%TD*%
D10*
%TO.C,S9*%
X145085000Y-103210000D03*
D11*
X132158000Y-100670000D03*
%TD*%
D10*
%TO.C,S10*%
X145085000Y-84210000D03*
D11*
X132158000Y-81670000D03*
%TD*%
D10*
%TO.C,S11*%
X145085000Y-65210000D03*
D11*
X132158000Y-62670000D03*
%TD*%
D10*
%TO.C,S12*%
X145085000Y-46210000D03*
D11*
X132158000Y-43670000D03*
%TD*%
D10*
%TO.C,S13*%
X164085000Y-98460000D03*
D11*
X151158000Y-95920000D03*
%TD*%
D10*
%TO.C,S14*%
X164085000Y-79460000D03*
D11*
X151158000Y-76920000D03*
%TD*%
D10*
%TO.C,S15*%
X164085000Y-60460000D03*
D11*
X151158000Y-57920000D03*
%TD*%
D10*
%TO.C,S16*%
X164085000Y-41460000D03*
D11*
X151158000Y-38920000D03*
%TD*%
D10*
%TO.C,S17*%
X183085000Y-103210000D03*
D11*
X170158000Y-100670000D03*
%TD*%
D10*
%TO.C,S18*%
X183085000Y-84210000D03*
D11*
X170158000Y-81670000D03*
%TD*%
D10*
%TO.C,S19*%
X183085000Y-65210000D03*
D11*
X170158000Y-62670000D03*
%TD*%
D10*
%TO.C,S20*%
X183085000Y-46210000D03*
D11*
X170158000Y-43670000D03*
%TD*%
D10*
%TO.C,S21*%
X202085000Y-105585000D03*
D11*
X189158000Y-103045000D03*
%TD*%
D10*
%TO.C,S22*%
X202085000Y-86585000D03*
D11*
X189158000Y-84045000D03*
%TD*%
D10*
%TO.C,S23*%
X202085000Y-67585000D03*
D11*
X189158000Y-65045000D03*
%TD*%
D10*
%TO.C,S24*%
X202085000Y-48585000D03*
D11*
X189158000Y-46045000D03*
%TD*%
D12*
%TO.C,S25*%
X191066729Y-128019086D03*
D13*
X178777186Y-123272924D03*
%TD*%
D14*
%TO.C,S26*%
X212041853Y-134827693D03*
D15*
X200763178Y-128019580D03*
%TD*%
D16*
%TO.C,S27*%
X231515990Y-145175095D03*
D17*
X221590880Y-136511891D03*
%TD*%
D18*
%TO.C,D1*%
X98350000Y-125000000D03*
X101650000Y-125000000D03*
%TD*%
%TO.C,D2*%
X98350000Y-106000000D03*
X101650000Y-106000000D03*
%TD*%
%TO.C,D3*%
X98350000Y-87000000D03*
X101650000Y-87000000D03*
%TD*%
%TO.C,D4*%
X98350000Y-68000000D03*
X101650000Y-68000000D03*
%TD*%
%TO.C,D5*%
X117350000Y-125000000D03*
X120650000Y-125000000D03*
%TD*%
%TO.C,D6*%
X117350000Y-106000000D03*
X120650000Y-106000000D03*
%TD*%
%TO.C,D7*%
X117350000Y-87000000D03*
X120650000Y-87000000D03*
%TD*%
%TO.C,D8*%
X117350000Y-68000000D03*
X120650000Y-68000000D03*
%TD*%
%TO.C,D9*%
X136350000Y-110750000D03*
X139650000Y-110750000D03*
%TD*%
%TO.C,D10*%
X136350000Y-91750000D03*
X139650000Y-91750000D03*
%TD*%
%TO.C,D11*%
X136350000Y-72750000D03*
X139650000Y-72750000D03*
%TD*%
%TO.C,D12*%
X136350000Y-53750000D03*
X139650000Y-53750000D03*
%TD*%
%TO.C,D13*%
X155350000Y-106000000D03*
X158650000Y-106000000D03*
%TD*%
%TO.C,D14*%
X155350000Y-87000000D03*
X158650000Y-87000000D03*
%TD*%
%TO.C,D15*%
X155350000Y-68000000D03*
X158650000Y-68000000D03*
%TD*%
%TO.C,D16*%
X155350000Y-49000000D03*
X158650000Y-49000000D03*
%TD*%
%TO.C,D17*%
X174350000Y-110750000D03*
X177650000Y-110750000D03*
%TD*%
%TO.C,D18*%
X174350000Y-91750000D03*
X177650000Y-91750000D03*
%TD*%
%TO.C,D19*%
X174350000Y-72750000D03*
X177650000Y-72750000D03*
%TD*%
%TO.C,D20*%
X174350000Y-53750000D03*
X177650000Y-53750000D03*
%TD*%
%TO.C,D21*%
X193350000Y-113125000D03*
X196650000Y-113125000D03*
%TD*%
%TO.C,D22*%
X193350000Y-94125000D03*
X196650000Y-94125000D03*
%TD*%
%TO.C,D23*%
X193350000Y-75125000D03*
X196650000Y-75125000D03*
%TD*%
%TO.C,D24*%
X193350000Y-56125000D03*
X196650000Y-56125000D03*
%TD*%
D19*
%TO.C,D25*%
X181155067Y-133927681D03*
X184404933Y-134500719D03*
%TD*%
D20*
%TO.C,D26*%
X201254807Y-138925367D03*
X204355793Y-140054033D03*
%TD*%
D21*
%TO.C,D27*%
X220181258Y-147337500D03*
X223039142Y-148987500D03*
%TD*%
D22*
%TO.C,MCU1*%
X215300000Y-47925000D03*
D23*
X216025000Y-47925000D03*
D24*
X225575000Y-47925000D03*
D25*
X226300000Y-47925000D03*
D22*
X215300000Y-50465000D03*
D23*
X216025000Y-50465000D03*
D24*
X225575000Y-50465000D03*
D25*
X226300000Y-50465000D03*
D22*
X215300000Y-53005000D03*
D23*
X216025000Y-53005000D03*
D24*
X225575000Y-53005000D03*
D25*
X226300000Y-53005000D03*
D22*
X215300000Y-55545000D03*
D23*
X216025000Y-55545000D03*
D24*
X225575000Y-55545000D03*
D25*
X226300000Y-55545000D03*
D22*
X215300000Y-58085000D03*
D23*
X216025000Y-58085000D03*
D24*
X225575000Y-58085000D03*
D25*
X226300000Y-58085000D03*
D22*
X215300000Y-60625000D03*
D23*
X216025000Y-60625000D03*
D24*
X225575000Y-60625000D03*
D25*
X226300000Y-60625000D03*
D22*
X215300000Y-63165000D03*
D23*
X216025000Y-63165000D03*
D24*
X225575000Y-63165000D03*
D25*
X226300000Y-63165000D03*
D22*
X215300000Y-65705000D03*
D23*
X216025000Y-65705000D03*
D24*
X225575000Y-65705000D03*
D25*
X226300000Y-65705000D03*
D22*
X215300000Y-68245000D03*
D23*
X216025000Y-68245000D03*
D24*
X225575000Y-68245000D03*
D25*
X226300000Y-68245000D03*
D22*
X215300000Y-70785000D03*
D23*
X216025000Y-70785000D03*
D24*
X225575000Y-70785000D03*
D25*
X226300000Y-70785000D03*
D22*
X215300000Y-73325000D03*
D23*
X216025000Y-73325000D03*
D24*
X225575000Y-73325000D03*
D25*
X226300000Y-73325000D03*
D22*
X215300000Y-75865000D03*
D23*
X216025000Y-75865000D03*
D24*
X225575000Y-75865000D03*
D25*
X226300000Y-75865000D03*
%TD*%
D26*
%TO.C,RST1*%
X233800000Y-63250000D03*
X232100000Y-63250000D03*
X233800000Y-58000000D03*
X232100000Y-58000000D03*
%TD*%
D27*
%TO.C,PWR1*%
X234075000Y-79550000D03*
X231865000Y-79550000D03*
X231865000Y-86850000D03*
X234075000Y-86850000D03*
D28*
X231215000Y-85450000D03*
X231215000Y-82450000D03*
X231215000Y-80950000D03*
%TD*%
D29*
%TO.C,JST1*%
X225500000Y-81675000D03*
X225500000Y-83675000D03*
D30*
X224484000Y-81675000D03*
X224484000Y-83675000D03*
%TD*%
M02*
