%TF.GenerationSoftware,KiCad,Pcbnew,9.0.8-1.fc43*%
%TF.CreationDate,2026-04-13T19:01:56-07:00*%
%TF.ProjectId,pepekey,70657065-6b65-4792-9e6b-696361645f70,0.1.0*%
%TF.SameCoordinates,Original*%
%TF.FileFunction,Copper,L2,Bot*%
%TF.FilePolarity,Positive*%
%FSLAX46Y46*%
G04 Gerber Fmt 4.6, Leading zero omitted, Abs format (unit mm)*
G04 Created by KiCad (PCBNEW 9.0.8-1.fc43) date 2026-04-13 19:01:56*
%MOMM*%
%LPD*%
G01*
G04 APERTURE LIST*
G04 Aperture macros list*
%AMRotRect*
0 Rectangle, with rotation*
0 The origin of the aperture is its center*
0 $1 length*
0 $2 width*
0 $3 Rotation angle, in degrees counterclockwise*
0 Add horizontal line*
21,1,$1,$2,0,0,$3*%
%AMOutline5P*
0 Free polygon, 5 corners , with rotation*
0 The origin of the aperture is its center*
0 number of corners: always 5*
0 $1 to $10 corner X, Y*
0 $11 Rotation angle, in degrees counterclockwise*
0 create outline with 5 corners*
4,1,5,$1,$2,$3,$4,$5,$6,$7,$8,$9,$10,$1,$2,$11*%
%AMOutline6P*
0 Free polygon, 6 corners , with rotation*
0 The origin of the aperture is its center*
0 number of corners: always 6*
0 $1 to $12 corner X, Y*
0 $13 Rotation angle, in degrees counterclockwise*
0 create outline with 6 corners*
4,1,6,$1,$2,$3,$4,$5,$6,$7,$8,$9,$10,$11,$12,$1,$2,$13*%
%AMOutline7P*
0 Free polygon, 7 corners , with rotation*
0 The origin of the aperture is its center*
0 number of corners: always 7*
0 $1 to $14 corner X, Y*
0 $15 Rotation angle, in degrees counterclockwise*
0 create outline with 7 corners*
4,1,7,$1,$2,$3,$4,$5,$6,$7,$8,$9,$10,$11,$12,$13,$14,$1,$2,$15*%
%AMOutline8P*
0 Free polygon, 8 corners , with rotation*
0 The origin of the aperture is its center*
0 number of corners: always 8*
0 $1 to $16 corner X, Y*
0 $17 Rotation angle, in degrees counterclockwise*
0 create outline with 8 corners*
4,1,8,$1,$2,$3,$4,$5,$6,$7,$8,$9,$10,$11,$12,$13,$14,$15,$16,$1,$2,$17*%
%AMFreePoly0*
4,1,6,0.250000,0.000000,-0.250000,-0.625000,-0.500000,-0.625000,-0.500000,0.625000,-0.250000,0.625000,0.250000,0.000000,0.250000,0.000000,$1*%
%AMFreePoly1*
4,1,6,0.500000,-0.625000,-0.650000,-0.625000,-0.150000,0.000000,-0.650000,0.625000,0.500000,0.625000,0.500000,-0.625000,0.500000,-0.625000,$1*%
%AMFreePoly2*
4,1,6,0.600000,-0.200000,0.600000,-0.400000,-0.600000,-0.400000,-0.600000,-0.200000,0.000000,0.400000,0.600000,-0.200000,0.600000,-0.200000,$1*%
%AMFreePoly3*
4,1,6,0.600000,-1.000000,0.000000,-0.400000,-0.600000,-1.000000,-0.600000,0.250000,0.600000,0.250000,0.600000,-1.000000,0.600000,-1.000000,$1*%
G04 Aperture macros list end*
%TA.AperFunction,SMDPad,CuDef*%
%ADD10R,2.550000X2.500000*%
%TD*%
%TA.AperFunction,SMDPad,CuDef*%
%ADD11Outline5P,-1.275000X1.250000X1.275000X1.250000X1.275000X-1.250000X-0.775000X-1.250000X-1.275000X-0.750000X0.000000*%
%TD*%
%TA.AperFunction,SMDPad,CuDef*%
%ADD12RotRect,2.550000X2.500000X350.000000*%
%TD*%
%TA.AperFunction,SMDPad,CuDef*%
%ADD13Outline5P,-1.275000X1.250000X1.275000X1.250000X1.275000X-1.250000X-0.775000X-1.250000X-1.275000X-0.750000X350.000000*%
%TD*%
%TA.AperFunction,SMDPad,CuDef*%
%ADD14RotRect,2.550000X2.500000X340.000000*%
%TD*%
%TA.AperFunction,SMDPad,CuDef*%
%ADD15Outline5P,-1.275000X1.250000X1.275000X1.250000X1.275000X-1.250000X-0.775000X-1.250000X-1.275000X-0.750000X340.000000*%
%TD*%
%TA.AperFunction,SMDPad,CuDef*%
%ADD16RotRect,2.550000X2.500000X330.000000*%
%TD*%
%TA.AperFunction,SMDPad,CuDef*%
%ADD17Outline5P,-1.275000X1.250000X1.275000X1.250000X1.275000X-1.250000X-0.775000X-1.250000X-1.275000X-0.750000X330.000000*%
%TD*%
%TA.AperFunction,SMDPad,CuDef*%
%ADD18R,0.900000X1.200000*%
%TD*%
%TA.AperFunction,SMDPad,CuDef*%
%ADD19RotRect,0.900000X1.200000X350.000000*%
%TD*%
%TA.AperFunction,SMDPad,CuDef*%
%ADD20RotRect,0.900000X1.200000X340.000000*%
%TD*%
%TA.AperFunction,SMDPad,CuDef*%
%ADD21RotRect,0.900000X1.200000X330.000000*%
%TD*%
%TA.AperFunction,ComponentPad*%
%ADD22C,1.700000*%
%TD*%
%TA.AperFunction,ComponentPad*%
%ADD23C,0.800000*%
%TD*%
%TA.AperFunction,SMDPad,CuDef*%
%ADD24FreePoly0,0.000000*%
%TD*%
%TA.AperFunction,SMDPad,CuDef*%
%ADD25FreePoly1,0.000000*%
%TD*%
%TA.AperFunction,SMDPad,CuDef*%
%ADD26FreePoly1,180.000000*%
%TD*%
%TA.AperFunction,SMDPad,CuDef*%
%ADD27FreePoly0,180.000000*%
%TD*%
%TA.AperFunction,SMDPad,CuDef*%
%ADD28R,1.000000X1.550000*%
%TD*%
%TA.AperFunction,SMDPad,CuDef*%
%ADD29R,0.800000X1.000000*%
%TD*%
%TA.AperFunction,SMDPad,CuDef*%
%ADD30R,1.500000X0.700000*%
%TD*%
%TA.AperFunction,ComponentPad*%
%ADD31O,1.750000X1.200000*%
%TD*%
%TA.AperFunction,SMDPad,CuDef*%
%ADD32FreePoly2,90.000000*%
%TD*%
%TA.AperFunction,SMDPad,CuDef*%
%ADD33FreePoly3,90.000000*%
%TD*%
%TA.AperFunction,ViaPad*%
%ADD34C,0.600000*%
%TD*%
%TA.AperFunction,Conductor*%
%ADD35C,0.250000*%
%TD*%
%TA.AperFunction,Conductor*%
%ADD36C,0.200000*%
%TD*%
G04 APERTURE END LIST*
D10*
%TO.P,S1,1*%
%TO.N,P008*%
X92915000Y-117460000D03*
D11*
%TO.P,S1,2*%
%TO.N,outer_bottom*%
X105842000Y-114920000D03*
%TD*%
D10*
%TO.P,S2,1*%
%TO.N,P008*%
X92915000Y-98460000D03*
D11*
%TO.P,S2,2*%
%TO.N,outer_home*%
X105842000Y-95920000D03*
%TD*%
D10*
%TO.P,S3,1*%
%TO.N,P008*%
X92915000Y-79460000D03*
D11*
%TO.P,S3,2*%
%TO.N,outer_top*%
X105842000Y-76920000D03*
%TD*%
D10*
%TO.P,S4,1*%
%TO.N,P008*%
X92915000Y-60460000D03*
D11*
%TO.P,S4,2*%
%TO.N,outer_num*%
X105842000Y-57920000D03*
%TD*%
D10*
%TO.P,S5,1*%
%TO.N,P022*%
X111915000Y-117460000D03*
D11*
%TO.P,S5,2*%
%TO.N,pinky_bottom*%
X124842000Y-114920000D03*
%TD*%
D10*
%TO.P,S6,1*%
%TO.N,P022*%
X111915000Y-98460000D03*
D11*
%TO.P,S6,2*%
%TO.N,pinky_home*%
X124842000Y-95920000D03*
%TD*%
D10*
%TO.P,S7,1*%
%TO.N,P022*%
X111915000Y-79460000D03*
D11*
%TO.P,S7,2*%
%TO.N,pinky_top*%
X124842000Y-76920000D03*
%TD*%
D10*
%TO.P,S8,1*%
%TO.N,P022*%
X111915000Y-60460000D03*
D11*
%TO.P,S8,2*%
%TO.N,pinky_num*%
X124842000Y-57920000D03*
%TD*%
D10*
%TO.P,S9,1*%
%TO.N,P024*%
X130915000Y-103210000D03*
D11*
%TO.P,S9,2*%
%TO.N,ring_bottom*%
X143842000Y-100670000D03*
%TD*%
D10*
%TO.P,S10,1*%
%TO.N,P024*%
X130915000Y-84210000D03*
D11*
%TO.P,S10,2*%
%TO.N,ring_home*%
X143842000Y-81670000D03*
%TD*%
D10*
%TO.P,S11,1*%
%TO.N,P024*%
X130915000Y-65210000D03*
D11*
%TO.P,S11,2*%
%TO.N,ring_top*%
X143842000Y-62670000D03*
%TD*%
D10*
%TO.P,S12,1*%
%TO.N,P024*%
X130915000Y-46210000D03*
D11*
%TO.P,S12,2*%
%TO.N,ring_num*%
X143842000Y-43670000D03*
%TD*%
D10*
%TO.P,S13,1*%
%TO.N,P100*%
X149915000Y-98460000D03*
D11*
%TO.P,S13,2*%
%TO.N,middle_bottom*%
X162842000Y-95920000D03*
%TD*%
D10*
%TO.P,S14,1*%
%TO.N,P100*%
X149915000Y-79460000D03*
D11*
%TO.P,S14,2*%
%TO.N,middle_home*%
X162842000Y-76920000D03*
%TD*%
D10*
%TO.P,S15,1*%
%TO.N,P100*%
X149915000Y-60460000D03*
D11*
%TO.P,S15,2*%
%TO.N,middle_top*%
X162842000Y-57920000D03*
%TD*%
D10*
%TO.P,S16,1*%
%TO.N,P100*%
X149915000Y-41460000D03*
D11*
%TO.P,S16,2*%
%TO.N,middle_num*%
X162842000Y-38920000D03*
%TD*%
D10*
%TO.P,S17,1*%
%TO.N,P011*%
X168915000Y-103210000D03*
D11*
%TO.P,S17,2*%
%TO.N,index_bottom*%
X181842000Y-100670000D03*
%TD*%
D10*
%TO.P,S18,1*%
%TO.N,P011*%
X168915000Y-84210000D03*
D11*
%TO.P,S18,2*%
%TO.N,index_home*%
X181842000Y-81670000D03*
%TD*%
D10*
%TO.P,S19,1*%
%TO.N,P011*%
X168915000Y-65210000D03*
D11*
%TO.P,S19,2*%
%TO.N,index_top*%
X181842000Y-62670000D03*
%TD*%
D10*
%TO.P,S20,1*%
%TO.N,P011*%
X168915000Y-46210000D03*
D11*
%TO.P,S20,2*%
%TO.N,index_num*%
X181842000Y-43670000D03*
%TD*%
D10*
%TO.P,S21,1*%
%TO.N,P106*%
X187915000Y-105585000D03*
D11*
%TO.P,S21,2*%
%TO.N,inner_bottom*%
X200842000Y-103045000D03*
%TD*%
D10*
%TO.P,S22,1*%
%TO.N,P106*%
X187915000Y-86585000D03*
D11*
%TO.P,S22,2*%
%TO.N,inner_home*%
X200842000Y-84045000D03*
%TD*%
D10*
%TO.P,S23,1*%
%TO.N,P106*%
X187915000Y-67585000D03*
D11*
%TO.P,S23,2*%
%TO.N,inner_top*%
X200842000Y-65045000D03*
%TD*%
D10*
%TO.P,S24,1*%
%TO.N,P106*%
X187915000Y-48585000D03*
D11*
%TO.P,S24,2*%
%TO.N,inner_num*%
X200842000Y-46045000D03*
%TD*%
D12*
%TO.P,S25,1*%
%TO.N,P100*%
X177112003Y-125558491D03*
D13*
%TO.P,S25,2*%
%TO.N,outer_thumbrow*%
X190283680Y-125301829D03*
%TD*%
D14*
%TO.P,S26,1*%
%TO.N,P011*%
X198726409Y-129981268D03*
D15*
%TO.P,S26,2*%
%TO.N,middle_thumbrow*%
X211742547Y-132015743D03*
%TD*%
D16*
%TO.P,S27,1*%
%TO.N,P106*%
X219244410Y-138090095D03*
D17*
%TO.P,S27,2*%
%TO.N,inner_thumbrow*%
X231709520Y-142353891D03*
%TD*%
D18*
%TO.P,D1,1*%
%TO.N,P031*%
X98350000Y-125000000D03*
%TO.P,D1,2*%
%TO.N,outer_bottom*%
X101650000Y-125000000D03*
%TD*%
%TO.P,D2,1*%
%TO.N,P025*%
X98350000Y-106000000D03*
%TO.P,D2,2*%
%TO.N,outer_home*%
X101650000Y-106000000D03*
%TD*%
%TO.P,D3,1*%
%TO.N,P002*%
X98350000Y-87000000D03*
%TO.P,D3,2*%
%TO.N,outer_top*%
X101650000Y-87000000D03*
%TD*%
%TO.P,D4,1*%
%TO.N,P115*%
X98350000Y-68000000D03*
%TO.P,D4,2*%
%TO.N,outer_num*%
X101650000Y-68000000D03*
%TD*%
%TO.P,D5,1*%
%TO.N,P031*%
X117350000Y-125000000D03*
%TO.P,D5,2*%
%TO.N,pinky_bottom*%
X120650000Y-125000000D03*
%TD*%
%TO.P,D6,1*%
%TO.N,P025*%
X117350000Y-106000000D03*
%TO.P,D6,2*%
%TO.N,pinky_home*%
X120650000Y-106000000D03*
%TD*%
%TO.P,D7,1*%
%TO.N,P002*%
X117350000Y-87000000D03*
%TO.P,D7,2*%
%TO.N,pinky_top*%
X120650000Y-87000000D03*
%TD*%
%TO.P,D8,1*%
%TO.N,P115*%
X117350000Y-68000000D03*
%TO.P,D8,2*%
%TO.N,pinky_num*%
X120650000Y-68000000D03*
%TD*%
%TO.P,D9,1*%
%TO.N,P031*%
X136350000Y-110750000D03*
%TO.P,D9,2*%
%TO.N,ring_bottom*%
X139650000Y-110750000D03*
%TD*%
%TO.P,D10,1*%
%TO.N,P025*%
X136350000Y-91750000D03*
%TO.P,D10,2*%
%TO.N,ring_home*%
X139650000Y-91750000D03*
%TD*%
%TO.P,D11,1*%
%TO.N,P002*%
X136350000Y-72750000D03*
%TO.P,D11,2*%
%TO.N,ring_top*%
X139650000Y-72750000D03*
%TD*%
%TO.P,D12,1*%
%TO.N,P115*%
X136350000Y-53750000D03*
%TO.P,D12,2*%
%TO.N,ring_num*%
X139650000Y-53750000D03*
%TD*%
%TO.P,D13,1*%
%TO.N,P031*%
X155350000Y-106000000D03*
%TO.P,D13,2*%
%TO.N,middle_bottom*%
X158650000Y-106000000D03*
%TD*%
%TO.P,D14,1*%
%TO.N,P025*%
X155350000Y-87000000D03*
%TO.P,D14,2*%
%TO.N,middle_home*%
X158650000Y-87000000D03*
%TD*%
%TO.P,D15,1*%
%TO.N,P002*%
X155350000Y-68000000D03*
%TO.P,D15,2*%
%TO.N,middle_top*%
X158650000Y-68000000D03*
%TD*%
%TO.P,D16,1*%
%TO.N,P115*%
X155350000Y-49000000D03*
%TO.P,D16,2*%
%TO.N,middle_num*%
X158650000Y-49000000D03*
%TD*%
%TO.P,D17,1*%
%TO.N,P031*%
X174350000Y-110750000D03*
%TO.P,D17,2*%
%TO.N,index_bottom*%
X177650000Y-110750000D03*
%TD*%
%TO.P,D18,1*%
%TO.N,P025*%
X174350000Y-91750000D03*
%TO.P,D18,2*%
%TO.N,index_home*%
X177650000Y-91750000D03*
%TD*%
%TO.P,D19,1*%
%TO.N,P002*%
X174350000Y-72750000D03*
%TO.P,D19,2*%
%TO.N,index_top*%
X177650000Y-72750000D03*
%TD*%
%TO.P,D20,1*%
%TO.N,P115*%
X174350000Y-53750000D03*
%TO.P,D20,2*%
%TO.N,index_num*%
X177650000Y-53750000D03*
%TD*%
%TO.P,D21,1*%
%TO.N,P031*%
X193350000Y-113125000D03*
%TO.P,D21,2*%
%TO.N,inner_bottom*%
X196650000Y-113125000D03*
%TD*%
%TO.P,D22,1*%
%TO.N,P025*%
X193350000Y-94125000D03*
%TO.P,D22,2*%
%TO.N,inner_home*%
X196650000Y-94125000D03*
%TD*%
%TO.P,D23,1*%
%TO.N,P002*%
X193350000Y-75125000D03*
%TO.P,D23,2*%
%TO.N,inner_top*%
X196650000Y-75125000D03*
%TD*%
%TO.P,D24,1*%
%TO.N,P115*%
X193350000Y-56125000D03*
%TO.P,D24,2*%
%TO.N,inner_num*%
X196650000Y-56125000D03*
%TD*%
D19*
%TO.P,D25,1*%
%TO.N,P113*%
X181155067Y-133927681D03*
%TO.P,D25,2*%
%TO.N,outer_thumbrow*%
X184404933Y-134500719D03*
%TD*%
D20*
%TO.P,D26,1*%
%TO.N,P113*%
X201254807Y-138925367D03*
%TO.P,D26,2*%
%TO.N,middle_thumbrow*%
X204355793Y-140054033D03*
%TD*%
D21*
%TO.P,D27,1*%
%TO.N,P113*%
X220181258Y-147337500D03*
%TO.P,D27,2*%
%TO.N,inner_thumbrow*%
X223039142Y-148987500D03*
%TD*%
D22*
%TO.P,MCU1,24*%
%TO.N,MCU1_24*%
X213180000Y-47925000D03*
%TO.P,MCU1,1*%
%TO.N,MCU1_1*%
X228420000Y-47925000D03*
D23*
%TO.P,MCU1,124*%
%TO.N,RAW*%
X217400000Y-47925000D03*
%TO.P,MCU1,101*%
%TO.N,P006*%
X224200000Y-47925000D03*
D24*
%TO.P,MCU1,24*%
%TO.N,MCU1_24*%
X215300000Y-47925000D03*
D25*
%TO.P,MCU1,101*%
%TO.N,P006*%
X216025000Y-47925000D03*
D26*
%TO.P,MCU1,124*%
%TO.N,RAW*%
X225575000Y-47925000D03*
D27*
%TO.P,MCU1,1*%
%TO.N,MCU1_1*%
X226300000Y-47925000D03*
D22*
%TO.P,MCU1,23*%
%TO.N,MCU1_23*%
X213180000Y-50465000D03*
%TO.P,MCU1,2*%
%TO.N,MCU1_2*%
X228420000Y-50465000D03*
D23*
%TO.P,MCU1,123*%
%TO.N,GND*%
X217400000Y-50465000D03*
%TO.P,MCU1,102*%
%TO.N,P008*%
X224200000Y-50465000D03*
D24*
%TO.P,MCU1,23*%
%TO.N,MCU1_23*%
X215300000Y-50465000D03*
D25*
%TO.P,MCU1,102*%
%TO.N,P008*%
X216025000Y-50465000D03*
D26*
%TO.P,MCU1,123*%
%TO.N,GND*%
X225575000Y-50465000D03*
D27*
%TO.P,MCU1,2*%
%TO.N,MCU1_2*%
X226300000Y-50465000D03*
D22*
%TO.P,MCU1,22*%
%TO.N,MCU1_22*%
X213180000Y-53005000D03*
%TO.P,MCU1,3*%
%TO.N,MCU1_3*%
X228420000Y-53005000D03*
D23*
%TO.P,MCU1,122*%
%TO.N,RST*%
X217400000Y-53005000D03*
%TO.P,MCU1,103*%
%TO.N,GND*%
X224200000Y-53005000D03*
D24*
%TO.P,MCU1,22*%
%TO.N,MCU1_22*%
X215300000Y-53005000D03*
D25*
%TO.P,MCU1,103*%
%TO.N,GND*%
X216025000Y-53005000D03*
D26*
%TO.P,MCU1,122*%
%TO.N,RST*%
X225575000Y-53005000D03*
D27*
%TO.P,MCU1,3*%
%TO.N,MCU1_3*%
X226300000Y-53005000D03*
D22*
%TO.P,MCU1,21*%
%TO.N,MCU1_21*%
X213180000Y-55545000D03*
%TO.P,MCU1,4*%
%TO.N,MCU1_4*%
X228420000Y-55545000D03*
D23*
%TO.P,MCU1,121*%
%TO.N,VCC*%
X217400000Y-55545000D03*
%TO.P,MCU1,104*%
%TO.N,GND*%
X224200000Y-55545000D03*
D24*
%TO.P,MCU1,21*%
%TO.N,MCU1_21*%
X215300000Y-55545000D03*
D25*
%TO.P,MCU1,104*%
%TO.N,GND*%
X216025000Y-55545000D03*
D26*
%TO.P,MCU1,121*%
%TO.N,VCC*%
X225575000Y-55545000D03*
D27*
%TO.P,MCU1,4*%
%TO.N,MCU1_4*%
X226300000Y-55545000D03*
D22*
%TO.P,MCU1,20*%
%TO.N,MCU1_20*%
X213180000Y-58085000D03*
%TO.P,MCU1,5*%
%TO.N,MCU1_5*%
X228420000Y-58085000D03*
D23*
%TO.P,MCU1,120*%
%TO.N,P031*%
X217400000Y-58085000D03*
%TO.P,MCU1,105*%
%TO.N,P017*%
X224200000Y-58085000D03*
D24*
%TO.P,MCU1,20*%
%TO.N,MCU1_20*%
X215300000Y-58085000D03*
D25*
%TO.P,MCU1,105*%
%TO.N,P017*%
X216025000Y-58085000D03*
D26*
%TO.P,MCU1,120*%
%TO.N,P031*%
X225575000Y-58085000D03*
D27*
%TO.P,MCU1,5*%
%TO.N,MCU1_5*%
X226300000Y-58085000D03*
D22*
%TO.P,MCU1,19*%
%TO.N,MCU1_19*%
X213180000Y-60625000D03*
%TO.P,MCU1,6*%
%TO.N,MCU1_6*%
X228420000Y-60625000D03*
D23*
%TO.P,MCU1,119*%
%TO.N,P029*%
X217400000Y-60625000D03*
%TO.P,MCU1,106*%
%TO.N,P020*%
X224200000Y-60625000D03*
D24*
%TO.P,MCU1,19*%
%TO.N,MCU1_19*%
X215300000Y-60625000D03*
D25*
%TO.P,MCU1,106*%
%TO.N,P020*%
X216025000Y-60625000D03*
D26*
%TO.P,MCU1,119*%
%TO.N,P029*%
X225575000Y-60625000D03*
D27*
%TO.P,MCU1,6*%
%TO.N,MCU1_6*%
X226300000Y-60625000D03*
D22*
%TO.P,MCU1,18*%
%TO.N,MCU1_18*%
X213180000Y-63165000D03*
%TO.P,MCU1,7*%
%TO.N,MCU1_7*%
X228420000Y-63165000D03*
D23*
%TO.P,MCU1,118*%
%TO.N,P002*%
X217400000Y-63165000D03*
%TO.P,MCU1,107*%
%TO.N,P022*%
X224200000Y-63165000D03*
D24*
%TO.P,MCU1,18*%
%TO.N,MCU1_18*%
X215300000Y-63165000D03*
D25*
%TO.P,MCU1,107*%
%TO.N,P022*%
X216025000Y-63165000D03*
D26*
%TO.P,MCU1,118*%
%TO.N,P002*%
X225575000Y-63165000D03*
D27*
%TO.P,MCU1,7*%
%TO.N,MCU1_7*%
X226300000Y-63165000D03*
D22*
%TO.P,MCU1,17*%
%TO.N,MCU1_17*%
X213180000Y-65705000D03*
%TO.P,MCU1,8*%
%TO.N,MCU1_8*%
X228420000Y-65705000D03*
D23*
%TO.P,MCU1,117*%
%TO.N,P115*%
X217400000Y-65705000D03*
%TO.P,MCU1,108*%
%TO.N,P024*%
X224200000Y-65705000D03*
D24*
%TO.P,MCU1,17*%
%TO.N,MCU1_17*%
X215300000Y-65705000D03*
D25*
%TO.P,MCU1,108*%
%TO.N,P024*%
X216025000Y-65705000D03*
D26*
%TO.P,MCU1,117*%
%TO.N,P115*%
X225575000Y-65705000D03*
D27*
%TO.P,MCU1,8*%
%TO.N,MCU1_8*%
X226300000Y-65705000D03*
D22*
%TO.P,MCU1,16*%
%TO.N,MCU1_16*%
X213180000Y-68245000D03*
%TO.P,MCU1,9*%
%TO.N,MCU1_9*%
X228420000Y-68245000D03*
D23*
%TO.P,MCU1,116*%
%TO.N,P113*%
X217400000Y-68245000D03*
%TO.P,MCU1,109*%
%TO.N,P100*%
X224200000Y-68245000D03*
D24*
%TO.P,MCU1,16*%
%TO.N,MCU1_16*%
X215300000Y-68245000D03*
D25*
%TO.P,MCU1,109*%
%TO.N,P100*%
X216025000Y-68245000D03*
D26*
%TO.P,MCU1,116*%
%TO.N,P113*%
X225575000Y-68245000D03*
D27*
%TO.P,MCU1,9*%
%TO.N,MCU1_9*%
X226300000Y-68245000D03*
D22*
%TO.P,MCU1,15*%
%TO.N,MCU1_15*%
X213180000Y-70785000D03*
%TO.P,MCU1,10*%
%TO.N,MCU1_10*%
X228420000Y-70785000D03*
D23*
%TO.P,MCU1,115*%
%TO.N,P111*%
X217400000Y-70785000D03*
%TO.P,MCU1,110*%
%TO.N,P011*%
X224200000Y-70785000D03*
D24*
%TO.P,MCU1,15*%
%TO.N,MCU1_15*%
X215300000Y-70785000D03*
D25*
%TO.P,MCU1,110*%
%TO.N,P011*%
X216025000Y-70785000D03*
D26*
%TO.P,MCU1,115*%
%TO.N,P111*%
X225575000Y-70785000D03*
D27*
%TO.P,MCU1,10*%
%TO.N,MCU1_10*%
X226300000Y-70785000D03*
D22*
%TO.P,MCU1,14*%
%TO.N,MCU1_14*%
X213180000Y-73325000D03*
%TO.P,MCU1,11*%
%TO.N,MCU1_11*%
X228420000Y-73325000D03*
D23*
%TO.P,MCU1,114*%
%TO.N,P010*%
X217400000Y-73325000D03*
%TO.P,MCU1,111*%
%TO.N,P104*%
X224200000Y-73325000D03*
D24*
%TO.P,MCU1,14*%
%TO.N,MCU1_14*%
X215300000Y-73325000D03*
D25*
%TO.P,MCU1,111*%
%TO.N,P104*%
X216025000Y-73325000D03*
D26*
%TO.P,MCU1,114*%
%TO.N,P010*%
X225575000Y-73325000D03*
D27*
%TO.P,MCU1,11*%
%TO.N,MCU1_11*%
X226300000Y-73325000D03*
D22*
%TO.P,MCU1,13*%
%TO.N,MCU1_13*%
X213180000Y-75865000D03*
%TO.P,MCU1,12*%
%TO.N,MCU1_12*%
X228420000Y-75865000D03*
D23*
%TO.P,MCU1,113*%
%TO.N,P009*%
X217400000Y-75865000D03*
%TO.P,MCU1,112*%
%TO.N,P106*%
X224200000Y-75865000D03*
D24*
%TO.P,MCU1,13*%
%TO.N,MCU1_13*%
X215300000Y-75865000D03*
D25*
%TO.P,MCU1,112*%
%TO.N,P106*%
X216025000Y-75865000D03*
D26*
%TO.P,MCU1,113*%
%TO.N,P009*%
X225575000Y-75865000D03*
D27*
%TO.P,MCU1,12*%
%TO.N,MCU1_12*%
X226300000Y-75865000D03*
%TD*%
D28*
%TO.P,RST1,1*%
%TO.N,GND*%
X233800000Y-58000000D03*
%TO.P,RST1,2*%
%TO.N,RST*%
X232100000Y-58000000D03*
%TO.P,RST1,3*%
%TO.N,GND*%
X233800000Y-63250000D03*
%TO.P,RST1,4*%
%TO.N,RST*%
X232100000Y-63250000D03*
%TD*%
D29*
%TO.P,PWR1,*%
%TO.N,*%
X231865000Y-79550000D03*
X234075000Y-79550000D03*
X231865000Y-86850000D03*
X234075000Y-86850000D03*
D30*
%TO.P,PWR1,1*%
%TO.N,N/C*%
X231215000Y-80950000D03*
%TO.P,PWR1,2*%
%TO.N,RAW*%
X231215000Y-83950000D03*
%TO.P,PWR1,3*%
%TO.N,BAT_P*%
X231215000Y-85450000D03*
%TD*%
D31*
%TO.P,JST1,11*%
%TO.N,JST1_1*%
X227300000Y-81675000D03*
%TO.P,JST1,12*%
%TO.N,JST1_2*%
X227300000Y-83675000D03*
D32*
%TO.P,JST1,31*%
%TO.N,JST1_1*%
X225500000Y-81675000D03*
%TO.P,JST1,32*%
%TO.N,JST1_2*%
X225500000Y-83675000D03*
D33*
%TO.P,JST1,1*%
%TO.N,BAT_P*%
X224484000Y-83675000D03*
%TO.P,JST1,2*%
%TO.N,GND*%
X224484000Y-81675000D03*
%TD*%
D34*
%TO.N,BAT_P*%
X229692300Y-85327200D03*
%TO.N,RAW*%
X229715000Y-82450000D03*
%TO.N,P113*%
X201927500Y-137646600D03*
X221410400Y-147246800D03*
X181093800Y-135725700D03*
%TO.N,P115*%
X195000000Y-55567400D03*
X173209000Y-53619700D03*
X118442500Y-68134500D03*
X156737800Y-49655600D03*
X100000000Y-67391000D03*
X134459400Y-59478900D03*
%TO.N,P002*%
X100000000Y-88082300D03*
X134913800Y-73302800D03*
X173209000Y-72587400D03*
X117600800Y-88580100D03*
X156244500Y-70293700D03*
X191614500Y-75360000D03*
X133930800Y-78713800D03*
%TO.N,P025*%
X136398000Y-90355100D03*
X195000000Y-93994100D03*
X99314000Y-106007700D03*
X173209000Y-91833100D03*
X156737800Y-87102200D03*
X118304200Y-106230400D03*
X126506300Y-93593100D03*
%TO.N,P031*%
X117600800Y-123350000D03*
X195000000Y-113466200D03*
X99309300Y-124715500D03*
X153222800Y-105817700D03*
X173379300Y-110750000D03*
X136398000Y-112278700D03*
%TO.N,inner_thumbrow*%
X227590000Y-137806000D03*
X221512200Y-150514400D03*
%TO.N,middle_thumbrow*%
X206895000Y-128252000D03*
X204146900Y-141309500D03*
%TO.N,outer_thumbrow*%
X184857000Y-122437000D03*
X186018500Y-135375500D03*
%TO.N,inner_num*%
X195000000Y-44166000D03*
X198167300Y-55567400D03*
%TO.N,inner_top*%
X195000000Y-63166000D03*
X198192700Y-76284100D03*
%TO.N,inner_home*%
X195000000Y-82166000D03*
X197604100Y-93994100D03*
%TO.N,inner_bottom*%
X195000000Y-101166000D03*
X197062600Y-114256500D03*
%TO.N,P106*%
X195000000Y-102195000D03*
X195000000Y-83195000D03*
X195000000Y-64195000D03*
X195000000Y-45195000D03*
X227075000Y-138697000D03*
X203599300Y-108498500D03*
X217957100Y-126903900D03*
X205680700Y-126350500D03*
%TO.N,index_num*%
X176000000Y-41791000D03*
X176661800Y-53619700D03*
%TO.N,index_top*%
X176000000Y-60791000D03*
X176684500Y-72542900D03*
%TO.N,index_home*%
X176000000Y-79791000D03*
X176677900Y-91038200D03*
%TO.N,index_bottom*%
X176000000Y-98791000D03*
X176662600Y-110756200D03*
%TO.N,P011*%
X176000000Y-99820000D03*
X176000000Y-80820000D03*
X176000000Y-61820000D03*
X176000000Y-42820000D03*
X206544000Y-129219000D03*
X202104000Y-96950000D03*
%TO.N,middle_num*%
X157000000Y-37041000D03*
X158475400Y-50106500D03*
%TO.N,middle_top*%
X157000000Y-56041000D03*
X159603800Y-67391000D03*
%TO.N,middle_home*%
X157000000Y-75041000D03*
X159627000Y-87102200D03*
%TO.N,middle_bottom*%
X157000000Y-94041000D03*
X159612100Y-105817700D03*
%TO.N,P100*%
X157000000Y-95070000D03*
X157000000Y-76070000D03*
X157000000Y-57070000D03*
X157000000Y-38070000D03*
X184678000Y-123450000D03*
X165139100Y-100546900D03*
%TO.N,ring_num*%
X138000000Y-41791000D03*
X139598400Y-52615900D03*
%TO.N,ring_top*%
X138000000Y-60791000D03*
X138321700Y-73423700D03*
X144317300Y-71505800D03*
%TO.N,ring_home*%
X138000000Y-79791000D03*
X138675000Y-91485600D03*
%TO.N,ring_bottom*%
X138000000Y-98791000D03*
X138246400Y-111804300D03*
%TO.N,P024*%
X138000000Y-99820000D03*
X138000000Y-80820000D03*
X138000000Y-61820000D03*
X138000000Y-42820000D03*
%TO.N,pinky_num*%
X119000000Y-56041000D03*
X119697100Y-68134500D03*
%TO.N,pinky_top*%
X119000000Y-75041000D03*
X119642500Y-87102200D03*
%TO.N,pinky_home*%
X119000000Y-94041000D03*
X119660900Y-105817700D03*
%TO.N,pinky_bottom*%
X119000000Y-113041000D03*
X120569300Y-126120000D03*
%TO.N,P022*%
X119000000Y-114070000D03*
X119000000Y-95070000D03*
X119000000Y-76070000D03*
X119000000Y-57070000D03*
%TO.N,outer_num*%
X100000000Y-56041000D03*
X103171300Y-67391000D03*
%TO.N,outer_top*%
X100000000Y-75041000D03*
X102618200Y-87529100D03*
%TO.N,outer_home*%
X100000000Y-94041000D03*
X102627300Y-105817700D03*
%TO.N,GND*%
X223608300Y-83635800D03*
X233800000Y-59388100D03*
%TO.N,outer_bottom*%
X100000000Y-113041000D03*
X100208600Y-123350000D03*
%TO.N,P008*%
X100000000Y-114070000D03*
X100000000Y-95070000D03*
X100000000Y-76070000D03*
X100000000Y-57070000D03*
%TD*%
D35*
%TO.N,JST1_2*%
X225500000Y-83675000D02*
X227300000Y-83675000D01*
%TO.N,JST1_1*%
X225500000Y-81675000D02*
X227300000Y-81675000D01*
D36*
%TO.N,BAT_P*%
X224484000Y-83675000D02*
X224484000Y-84576700D01*
X229815100Y-85450000D02*
X229692300Y-85327200D01*
X231215000Y-85450000D02*
X229815100Y-85450000D01*
X225234500Y-85327200D02*
X229692300Y-85327200D01*
X224484000Y-84576700D02*
X225234500Y-85327200D01*
D35*
%TO.N,MCU1_12*%
X228420000Y-75865000D02*
X226300000Y-75865000D01*
%TO.N,MCU1_13*%
X213180000Y-75865000D02*
X215300000Y-75865000D01*
%TO.N,MCU1_11*%
X228420000Y-73325000D02*
X226300000Y-73325000D01*
%TO.N,MCU1_14*%
X213180000Y-73325000D02*
X215300000Y-73325000D01*
%TO.N,MCU1_10*%
X228420000Y-70785000D02*
X226300000Y-70785000D01*
%TO.N,MCU1_15*%
X213180000Y-70785000D02*
X215300000Y-70785000D01*
%TO.N,MCU1_9*%
X228420000Y-68245000D02*
X226300000Y-68245000D01*
%TO.N,MCU1_16*%
X213180000Y-68245000D02*
X215300000Y-68245000D01*
%TO.N,MCU1_8*%
X228420000Y-65705000D02*
X226300000Y-65705000D01*
%TO.N,MCU1_17*%
X213180000Y-65705000D02*
X215300000Y-65705000D01*
%TO.N,MCU1_7*%
X228420000Y-63165000D02*
X226300000Y-63165000D01*
%TO.N,MCU1_18*%
X213180000Y-63165000D02*
X215300000Y-63165000D01*
%TO.N,MCU1_6*%
X228420000Y-60625000D02*
X226300000Y-60625000D01*
%TO.N,MCU1_19*%
X213180000Y-60625000D02*
X215300000Y-60625000D01*
%TO.N,MCU1_5*%
X228420000Y-58085000D02*
X226300000Y-58085000D01*
%TO.N,MCU1_20*%
X213180000Y-58085000D02*
X215300000Y-58085000D01*
%TO.N,MCU1_4*%
X228420000Y-55545000D02*
X226300000Y-55545000D01*
%TO.N,MCU1_21*%
X213180000Y-55545000D02*
X215300000Y-55545000D01*
%TO.N,MCU1_3*%
X228420000Y-53005000D02*
X226300000Y-53005000D01*
%TO.N,MCU1_22*%
X213180000Y-53005000D02*
X215300000Y-53005000D01*
%TO.N,MCU1_2*%
X228420000Y-50465000D02*
X226300000Y-50465000D01*
%TO.N,MCU1_23*%
X213180000Y-50465000D02*
X215300000Y-50465000D01*
%TO.N,MCU1_1*%
X228420000Y-47925000D02*
X226300000Y-47925000D01*
%TO.N,MCU1_24*%
X213180000Y-47925000D02*
X215300000Y-47925000D01*
%TO.N,P104*%
X218195000Y-73555000D02*
X223970000Y-73555000D01*
X217700000Y-74050000D02*
X218195000Y-73555000D01*
X217100000Y-74050000D02*
X217700000Y-74050000D01*
X216375000Y-73325000D02*
X217100000Y-74050000D01*
X216025000Y-73325000D02*
X216375000Y-73325000D01*
D36*
X223970000Y-73555000D02*
X224200000Y-73325000D01*
D35*
%TO.N,P020*%
X218195000Y-60855000D02*
X223970000Y-60855000D01*
X217700000Y-61350000D02*
X218195000Y-60855000D01*
X217100000Y-61350000D02*
X217700000Y-61350000D01*
X216375000Y-60625000D02*
X217100000Y-61350000D01*
X216025000Y-60625000D02*
X216375000Y-60625000D01*
D36*
X224200000Y-60625000D02*
X223970000Y-60855000D01*
D35*
%TO.N,P017*%
X218195000Y-58315000D02*
X223970000Y-58315000D01*
X217700000Y-58810000D02*
X218195000Y-58315000D01*
X217100000Y-58810000D02*
X217700000Y-58810000D01*
X216375000Y-58085000D02*
X217100000Y-58810000D01*
X216025000Y-58085000D02*
X216375000Y-58085000D01*
D36*
X223970000Y-58315000D02*
X224200000Y-58085000D01*
D35*
%TO.N,P006*%
X218195000Y-48155000D02*
X223970000Y-48155000D01*
X217700000Y-48650000D02*
X218195000Y-48155000D01*
X217100000Y-48650000D02*
X217700000Y-48650000D01*
X216375000Y-47925000D02*
X217100000Y-48650000D01*
X216025000Y-47925000D02*
X216375000Y-47925000D01*
D36*
X223970000Y-48155000D02*
X224200000Y-47925000D01*
D35*
%TO.N,P009*%
X223395000Y-75645000D02*
X217620000Y-75645000D01*
X223900000Y-75140000D02*
X223395000Y-75645000D01*
X224500000Y-75140000D02*
X223900000Y-75140000D01*
X225225000Y-75865000D02*
X224500000Y-75140000D01*
X225575000Y-75865000D02*
X225225000Y-75865000D01*
D36*
X217620000Y-75645000D02*
X217400000Y-75865000D01*
D35*
%TO.N,P010*%
X223395000Y-73105000D02*
X217620000Y-73105000D01*
X223900000Y-72600000D02*
X223395000Y-73105000D01*
X224500000Y-72600000D02*
X223900000Y-72600000D01*
X225225000Y-73325000D02*
X224500000Y-72600000D01*
X225575000Y-73325000D02*
X225225000Y-73325000D01*
D36*
X217400000Y-73325000D02*
X217620000Y-73105000D01*
D35*
%TO.N,P111*%
X223395000Y-70565000D02*
X217620000Y-70565000D01*
X223900000Y-70060000D02*
X223395000Y-70565000D01*
X224500000Y-70060000D02*
X223900000Y-70060000D01*
X225225000Y-70785000D02*
X224500000Y-70060000D01*
X225575000Y-70785000D02*
X225225000Y-70785000D01*
D36*
X217400000Y-70785000D02*
X217620000Y-70565000D01*
D35*
%TO.N,P029*%
X223395000Y-60405000D02*
X217620000Y-60405000D01*
X223900000Y-59900000D02*
X223395000Y-60405000D01*
X224500000Y-59900000D02*
X223900000Y-59900000D01*
X225225000Y-60625000D02*
X224500000Y-59900000D01*
X225575000Y-60625000D02*
X225225000Y-60625000D01*
D36*
X217400000Y-60625000D02*
X217620000Y-60405000D01*
D35*
%TO.N,VCC*%
X223395000Y-55325000D02*
X217620000Y-55325000D01*
X223900000Y-54820000D02*
X223395000Y-55325000D01*
X224500000Y-54820000D02*
X223900000Y-54820000D01*
X225225000Y-55545000D02*
X224500000Y-54820000D01*
X225575000Y-55545000D02*
X225225000Y-55545000D01*
D36*
X217400000Y-55545000D02*
X217620000Y-55325000D01*
%TO.N,RST*%
X217620000Y-52785000D02*
X217400000Y-53005000D01*
X232100000Y-63250000D02*
X232100000Y-58000000D01*
D35*
X225575000Y-53005000D02*
X225400000Y-53005000D01*
X223395000Y-52785000D02*
X217620000Y-52785000D01*
X223900000Y-52280000D02*
X223395000Y-52785000D01*
X224500000Y-52280000D02*
X223900000Y-52280000D01*
X225225000Y-53005000D02*
X224500000Y-52280000D01*
X225400000Y-53005000D02*
X225225000Y-53005000D01*
D36*
X229451700Y-54275000D02*
X232100000Y-56923300D01*
X226670000Y-54275000D02*
X229451700Y-54275000D01*
X225400000Y-53005000D02*
X226670000Y-54275000D01*
X232100000Y-58000000D02*
X232100000Y-56923300D01*
%TO.N,RAW*%
X217620000Y-47705000D02*
X217400000Y-47925000D01*
X230163300Y-82898300D02*
X230163300Y-83950000D01*
X229715000Y-82450000D02*
X230163300Y-82898300D01*
X231215000Y-83950000D02*
X230163300Y-83950000D01*
D35*
X225575000Y-47925000D02*
X225400000Y-47925000D01*
X223395000Y-47705000D02*
X217620000Y-47705000D01*
X223900000Y-47200000D02*
X223395000Y-47705000D01*
X224500000Y-47200000D02*
X223900000Y-47200000D01*
X225225000Y-47925000D02*
X224500000Y-47200000D01*
X225400000Y-47925000D02*
X225225000Y-47925000D01*
D36*
X229715000Y-79342100D02*
X229715000Y-82450000D01*
X234601700Y-74455400D02*
X229715000Y-79342100D01*
X234601700Y-54931300D02*
X234601700Y-74455400D01*
X228923500Y-49253100D02*
X234601700Y-54931300D01*
X226728100Y-49253100D02*
X228923500Y-49253100D01*
X225400000Y-47925000D02*
X226728100Y-49253100D01*
D35*
%TO.N,P113*%
X223395000Y-68025000D02*
X217620000Y-68025000D01*
X223900000Y-67520000D02*
X223395000Y-68025000D01*
X224500000Y-67520000D02*
X223900000Y-67520000D01*
X225225000Y-68245000D02*
X224500000Y-67520000D01*
X225575000Y-68245000D02*
X225225000Y-68245000D01*
D36*
X201254800Y-138925400D02*
X201656800Y-137820800D01*
X201753300Y-137820800D02*
X201927500Y-137646600D01*
X201656800Y-137820800D02*
X201753300Y-137820800D01*
X221283200Y-147592500D02*
X221041500Y-147834200D01*
X221283200Y-147374000D02*
X221283200Y-147592500D01*
X221410400Y-147246800D02*
X221283200Y-147374000D01*
X220181300Y-147337500D02*
X221041500Y-147834200D01*
X181093800Y-135064500D02*
X181093800Y-135725700D01*
X180975600Y-134946300D02*
X181093800Y-135064500D01*
X180975500Y-134946300D02*
X180975600Y-134946300D01*
X181155100Y-133927700D02*
X180975500Y-134946300D01*
X217400000Y-68245000D02*
X217620000Y-68025000D01*
X201254800Y-138925400D02*
X200239900Y-138556000D01*
X202900700Y-101528500D02*
X202665300Y-101293100D01*
X202900700Y-105639100D02*
X202900700Y-101528500D01*
X202499000Y-106040800D02*
X202900700Y-105639100D01*
X202499000Y-121590600D02*
X202499000Y-106040800D01*
X196773100Y-127316500D02*
X202499000Y-121590600D01*
X196773100Y-134443700D02*
X196773100Y-127316500D01*
X200239900Y-137910500D02*
X196773100Y-134443700D01*
X200239900Y-138556000D02*
X200239900Y-137910500D01*
X202665300Y-101293100D02*
X202500500Y-101128300D01*
X202665300Y-101293100D02*
X202500500Y-101128300D01*
X217400000Y-68008600D02*
X217400000Y-68245000D01*
X216431100Y-67039700D02*
X217400000Y-68008600D01*
X212712200Y-67039700D02*
X216431100Y-67039700D01*
X207304800Y-72447100D02*
X212712200Y-67039700D01*
X207304800Y-86537000D02*
X207304800Y-72447100D01*
X201502200Y-92339600D02*
X207304800Y-86537000D01*
X201502200Y-99201000D02*
X201502200Y-92339600D01*
X202700500Y-100399300D02*
X201502200Y-99201000D01*
X202700500Y-100731900D02*
X202700500Y-100399300D01*
X202500500Y-100931900D02*
X202700500Y-100731900D01*
X202500500Y-101128300D02*
X202500500Y-100931900D01*
D35*
%TO.N,P115*%
X223395000Y-65485000D02*
X217620000Y-65485000D01*
X223900000Y-64980000D02*
X223395000Y-65485000D01*
X224500000Y-64980000D02*
X223900000Y-64980000D01*
X225225000Y-65705000D02*
X224500000Y-64980000D01*
X225575000Y-65705000D02*
X225225000Y-65705000D01*
D36*
X194442400Y-56125000D02*
X195000000Y-55567400D01*
X193350000Y-56125000D02*
X194442400Y-56125000D01*
X217400000Y-65705000D02*
X217620000Y-65485000D01*
X173339300Y-53750000D02*
X173209000Y-53619700D01*
X174350000Y-53750000D02*
X173339300Y-53750000D01*
X118308000Y-68000000D02*
X118442500Y-68134500D01*
X117350000Y-68000000D02*
X118308000Y-68000000D01*
X156101700Y-49019500D02*
X156737800Y-49655600D01*
X156101700Y-49000000D02*
X156101700Y-49019500D01*
X155350000Y-49000000D02*
X156101700Y-49000000D01*
X99391000Y-68000000D02*
X100000000Y-67391000D01*
X98350000Y-68000000D02*
X99391000Y-68000000D01*
X136350000Y-57588300D02*
X136350000Y-53750000D01*
X134459400Y-59478900D02*
X136350000Y-57588300D01*
D35*
%TO.N,P002*%
X223395000Y-62945000D02*
X217620000Y-62945000D01*
X223900000Y-62440000D02*
X223395000Y-62945000D01*
X224500000Y-62440000D02*
X223900000Y-62440000D01*
X225225000Y-63165000D02*
X224500000Y-62440000D01*
X225575000Y-63165000D02*
X225225000Y-63165000D01*
D36*
X217620000Y-62945000D02*
X217400000Y-63165000D01*
X99101700Y-87184000D02*
X100000000Y-88082300D01*
X99101700Y-87000000D02*
X99101700Y-87184000D01*
X98350000Y-87000000D02*
X99101700Y-87000000D01*
X135466600Y-72750000D02*
X134913800Y-73302800D01*
X136350000Y-72750000D02*
X135466600Y-72750000D01*
X173371600Y-72750000D02*
X173209000Y-72587400D01*
X174350000Y-72750000D02*
X173371600Y-72750000D01*
X117350000Y-88329300D02*
X117350000Y-87000000D01*
X117600800Y-88580100D02*
X117350000Y-88329300D01*
X155350000Y-69399200D02*
X155350000Y-68000000D01*
X156244500Y-70293700D02*
X155350000Y-69399200D01*
X192363300Y-75360000D02*
X192598300Y-75125000D01*
X191614500Y-75360000D02*
X192363300Y-75360000D01*
X193350000Y-75125000D02*
X192598300Y-75125000D01*
X134913800Y-77730800D02*
X134913800Y-73302800D01*
X133930800Y-78713800D02*
X134913800Y-77730800D01*
%TO.N,P025*%
X136350000Y-91750000D02*
X136350000Y-90848300D01*
X136350000Y-90403100D02*
X136398000Y-90355100D01*
X136350000Y-90848300D02*
X136350000Y-90403100D01*
X194869100Y-94125000D02*
X195000000Y-93994100D01*
X193350000Y-94125000D02*
X194869100Y-94125000D01*
X98350000Y-106000000D02*
X99101700Y-106000000D01*
X99109400Y-106007700D02*
X99101700Y-106000000D01*
X99314000Y-106007700D02*
X99109400Y-106007700D01*
X173292100Y-91750000D02*
X173209000Y-91833100D01*
X174350000Y-91750000D02*
X173292100Y-91750000D01*
X156635600Y-87000000D02*
X156737800Y-87102200D01*
X155350000Y-87000000D02*
X156635600Y-87000000D01*
X118101700Y-106027900D02*
X118304200Y-106230400D01*
X118101700Y-106000000D02*
X118101700Y-106027900D01*
X117350000Y-106000000D02*
X118101700Y-106000000D01*
X126506300Y-100709300D02*
X126506300Y-93593100D01*
X123587400Y-103628200D02*
X126506300Y-100709300D01*
X120906400Y-103628200D02*
X123587400Y-103628200D01*
X118304200Y-106230400D02*
X120906400Y-103628200D01*
D35*
%TO.N,P031*%
X223395000Y-57865000D02*
X217620000Y-57865000D01*
X223900000Y-57360000D02*
X223395000Y-57865000D01*
X224500000Y-57360000D02*
X223900000Y-57360000D01*
X225225000Y-58085000D02*
X224500000Y-57360000D01*
X225575000Y-58085000D02*
X225225000Y-58085000D01*
D36*
X117600800Y-123847500D02*
X117600800Y-123350000D01*
X117350000Y-124098300D02*
X117600800Y-123847500D01*
X117350000Y-125000000D02*
X117350000Y-124098300D01*
X194658800Y-113125000D02*
X195000000Y-113466200D01*
X193350000Y-113125000D02*
X194658800Y-113125000D01*
X217620000Y-57865000D02*
X217400000Y-58085000D01*
X99101700Y-124923100D02*
X99101700Y-125000000D01*
X99309300Y-124715500D02*
X99101700Y-124923100D01*
X98350000Y-125000000D02*
X99101700Y-125000000D01*
X153405100Y-106000000D02*
X153222800Y-105817700D01*
X155350000Y-106000000D02*
X153405100Y-106000000D01*
X174350000Y-110750000D02*
X173598300Y-110750000D01*
X173379300Y-110750000D02*
X173598300Y-110750000D01*
X136350000Y-112230700D02*
X136350000Y-110750000D01*
X136398000Y-112278700D02*
X136350000Y-112230700D01*
X217400000Y-57848600D02*
X217400000Y-58085000D01*
X216431100Y-56879700D02*
X217400000Y-57848600D01*
X212738100Y-56879700D02*
X216431100Y-56879700D01*
X205074400Y-64543400D02*
X212738100Y-56879700D01*
X205074400Y-88112800D02*
X205074400Y-64543400D01*
X201100500Y-92086700D02*
X205074400Y-88112800D01*
X201100500Y-99367300D02*
X201100500Y-92086700D01*
X202257500Y-100524300D02*
X201100500Y-99367300D01*
X202257500Y-100606900D02*
X202257500Y-100524300D01*
X202098800Y-100765600D02*
X202257500Y-100606900D01*
X202098800Y-101350200D02*
X202098800Y-100765600D01*
X202098900Y-101350200D02*
X202098800Y-101350200D01*
X202449000Y-101700300D02*
X202098900Y-101350200D01*
X202449000Y-105241000D02*
X202449000Y-101700300D01*
X202000500Y-105689500D02*
X202449000Y-105241000D01*
X202000500Y-110213700D02*
X202000500Y-105689500D01*
X197315700Y-114898500D02*
X202000500Y-110213700D01*
X196432300Y-114898500D02*
X197315700Y-114898500D01*
X195000000Y-113466200D02*
X196432300Y-114898500D01*
%TO.N,inner_thumbrow*%
X222487400Y-149942800D02*
X222487500Y-149942900D01*
X222083800Y-149942800D02*
X222487400Y-149942800D01*
X221512200Y-150514400D02*
X222083800Y-149942800D01*
X223039100Y-148987500D02*
X222487500Y-149942900D01*
X231022000Y-139787000D02*
X231709900Y-142353800D01*
X227590000Y-137806000D02*
X231022000Y-139787000D01*
X231709900Y-142353800D02*
X231710000Y-142354000D01*
X231709800Y-142353900D02*
X231709900Y-142353800D01*
X231709500Y-142353900D02*
X231709800Y-142353900D01*
X223039100Y-148987500D02*
X223899400Y-149484200D01*
X224396100Y-148987500D02*
X223899400Y-149484200D01*
X228081900Y-148987500D02*
X224396100Y-148987500D01*
X230813100Y-146256300D02*
X228081900Y-148987500D01*
X230813100Y-143906600D02*
X230813100Y-146256300D01*
X231709500Y-142353900D02*
X230813100Y-143906600D01*
%TO.N,middle_thumbrow*%
X211068300Y-136938800D02*
X211068300Y-133868300D01*
X207953100Y-140054000D02*
X211068300Y-136938800D01*
X205740000Y-140054000D02*
X207953100Y-140054000D01*
X205370700Y-140423300D02*
X205740000Y-140054000D01*
X205370700Y-140423400D02*
X205370700Y-140423300D01*
X204355800Y-140054000D02*
X205370700Y-140423400D01*
X211742500Y-132015700D02*
X211068300Y-133868300D01*
X211742700Y-132015700D02*
X211742800Y-132015600D01*
X211742500Y-132015700D02*
X211742700Y-132015700D01*
X210620000Y-129607000D02*
X211742800Y-132015600D01*
X206895000Y-128252000D02*
X210620000Y-129607000D01*
X211742800Y-132015600D02*
X211743000Y-132016000D01*
X203996000Y-141158600D02*
X203953800Y-141158600D01*
X204146900Y-141309500D02*
X203996000Y-141158600D01*
X204355800Y-140054000D02*
X203953800Y-141158600D01*
%TO.N,outer_thumbrow*%
X184857000Y-122437000D02*
X188760000Y-123125000D01*
X190283700Y-124975700D02*
X190283700Y-125301800D01*
X189521500Y-124213500D02*
X190283700Y-124975700D01*
X189521500Y-124213500D02*
X190284000Y-125302000D01*
X188759000Y-123125000D02*
X188760000Y-123126400D01*
X188760000Y-123126400D02*
X189521500Y-124213500D01*
X188760000Y-123126400D02*
X188760000Y-123125000D01*
X185301900Y-134658900D02*
X186018500Y-135375500D01*
X185301900Y-134658800D02*
X185301900Y-134658900D01*
X184404900Y-134500700D02*
X185301900Y-134658800D01*
%TO.N,inner_num*%
X195000000Y-44166000D02*
X198963000Y-44165500D01*
X197609700Y-56125000D02*
X198167300Y-55567400D01*
X196650000Y-56125000D02*
X197609700Y-56125000D01*
X201622600Y-48377300D02*
X200842000Y-47596700D01*
X201622600Y-52112100D02*
X201622600Y-48377300D01*
X198167300Y-55567400D02*
X201622600Y-52112100D01*
X200842000Y-46045000D02*
X200842000Y-47596700D01*
X198977500Y-44180000D02*
X198963000Y-44165500D01*
X198977500Y-44180500D02*
X198977500Y-44180000D01*
X198963000Y-44166000D02*
X198977500Y-44180500D01*
X198977500Y-44180500D02*
X200842000Y-46045000D01*
%TO.N,inner_top*%
X195000000Y-63166000D02*
X198963000Y-63165500D01*
X196650000Y-75125000D02*
X197401700Y-75125000D01*
X197401700Y-75493100D02*
X198192700Y-76284100D01*
X197401700Y-75125000D02*
X197401700Y-75493100D01*
X198977500Y-63180000D02*
X198963000Y-63165500D01*
X198977500Y-63180500D02*
X198977500Y-63180000D01*
X198963000Y-63166000D02*
X198977500Y-63180500D01*
X198977500Y-63180500D02*
X200842000Y-65045000D01*
X201637900Y-72838900D02*
X198192700Y-76284100D01*
X201637900Y-67392600D02*
X201637900Y-72838900D01*
X200842000Y-66596700D02*
X201637900Y-67392600D01*
X200842000Y-65045000D02*
X200842000Y-66596700D01*
%TO.N,inner_home*%
X195000000Y-82166000D02*
X198963000Y-82165500D01*
X197532600Y-93994100D02*
X197401700Y-94125000D01*
X197604100Y-93994100D02*
X197532600Y-93994100D01*
X196650000Y-94125000D02*
X197401700Y-94125000D01*
X198977500Y-82180000D02*
X198963000Y-82165500D01*
X198977500Y-82180500D02*
X198977500Y-82180000D01*
X198963000Y-82166000D02*
X198977500Y-82180500D01*
X198977500Y-82180500D02*
X200842000Y-84045000D01*
X201635400Y-86390100D02*
X200842000Y-85596700D01*
X201635400Y-89962800D02*
X201635400Y-86390100D01*
X197604100Y-93994100D02*
X201635400Y-89962800D01*
X200842000Y-84045000D02*
X200842000Y-85596700D01*
%TO.N,inner_bottom*%
X196832800Y-114026700D02*
X196650000Y-114026700D01*
X197062600Y-114256500D02*
X196832800Y-114026700D01*
X196650000Y-113125000D02*
X196650000Y-114026700D01*
X198963000Y-101166000D02*
X200842000Y-103045000D01*
X195000000Y-101166000D02*
X198963000Y-101166000D01*
X200842000Y-103045000D02*
X200842000Y-104596700D01*
X201598800Y-109720300D02*
X197062600Y-114256500D01*
X201598800Y-105353500D02*
X201598800Y-109720300D01*
X200842000Y-104596700D02*
X201598800Y-105353500D01*
D35*
%TO.N,P106*%
X218195000Y-76095000D02*
X223970000Y-76095000D01*
X217700000Y-76590000D02*
X218195000Y-76095000D01*
X217100000Y-76590000D02*
X217700000Y-76590000D01*
X216375000Y-75865000D02*
X217100000Y-76590000D01*
X216025000Y-75865000D02*
X216375000Y-75865000D01*
D36*
X193971000Y-82166000D02*
X195000000Y-83195000D01*
X190834000Y-82166000D02*
X193971000Y-82166000D01*
X189340000Y-83660000D02*
X190834000Y-82166000D01*
X187915000Y-82235000D02*
X189340000Y-83660000D01*
X187915000Y-67585000D02*
X187915000Y-82235000D01*
X223970000Y-76095000D02*
X224200000Y-75865000D01*
X219244000Y-138090000D02*
X219619000Y-137440500D01*
X226699000Y-137291000D02*
X227075000Y-138697000D01*
X223982000Y-135723000D02*
X226699000Y-137291000D01*
X219994000Y-136791000D02*
X223982000Y-135723000D01*
X219619000Y-137440500D02*
X219994000Y-136791000D01*
X187915000Y-85085000D02*
X189340000Y-83660000D01*
X187915000Y-86585000D02*
X187915000Y-85085000D01*
X187915000Y-104085000D02*
X189340000Y-102660000D01*
X187915000Y-105585000D02*
X187915000Y-104085000D01*
X193971000Y-101166000D02*
X195000000Y-102195000D01*
X190834000Y-101166000D02*
X193971000Y-101166000D01*
X189340000Y-102660000D02*
X190834000Y-101166000D01*
X187915000Y-101235000D02*
X189340000Y-102660000D01*
X187915000Y-86585000D02*
X187915000Y-101235000D01*
X219244400Y-137815100D02*
X219244400Y-137952600D01*
X219619000Y-137440500D02*
X219244400Y-137815100D01*
X219244400Y-137952600D02*
X219244400Y-138090100D01*
X217957100Y-128588100D02*
X217957100Y-126903900D01*
X219244400Y-129875400D02*
X217957100Y-128588100D01*
X219244400Y-137952600D02*
X219244400Y-129875400D01*
X203599300Y-124269100D02*
X203599300Y-108498500D01*
X205680700Y-126350500D02*
X203599300Y-124269100D01*
X193971000Y-44166000D02*
X195000000Y-45195000D01*
X190834000Y-44166000D02*
X193971000Y-44166000D01*
X187915000Y-47085000D02*
X190834000Y-44166000D01*
X187915000Y-48585000D02*
X187915000Y-47085000D01*
X187915000Y-66085000D02*
X188818100Y-65181900D01*
X187915000Y-67585000D02*
X187915000Y-66085000D01*
X193971000Y-63166000D02*
X195000000Y-64195000D01*
X190834000Y-63166000D02*
X193971000Y-63166000D01*
X188818100Y-65181900D02*
X190834000Y-63166000D01*
X187915000Y-56317500D02*
X187915000Y-48585000D01*
X188818100Y-57220600D02*
X187915000Y-56317500D01*
X188818100Y-65181900D02*
X188818100Y-57220600D01*
%TO.N,index_num*%
X179963000Y-41791000D02*
X181842000Y-43670000D01*
X176768000Y-53619700D02*
X176661800Y-53619700D01*
X176898300Y-53750000D02*
X176768000Y-53619700D01*
X177274200Y-53750000D02*
X176898300Y-53750000D01*
X177274200Y-53750000D02*
X177650000Y-53750000D01*
X177650000Y-53750000D02*
X178401700Y-53750000D01*
X181842000Y-43670000D02*
X181842000Y-45221700D01*
X179962500Y-41790500D02*
X179963000Y-41790500D01*
X179962500Y-41790500D02*
X179963000Y-41791000D01*
X176000000Y-41791000D02*
X179962500Y-41790500D01*
X182473000Y-45852700D02*
X182473000Y-47152700D01*
X181842000Y-45221700D02*
X182473000Y-45852700D01*
X182473000Y-47152700D02*
X182637800Y-47317500D01*
X182473000Y-47152700D02*
X182637800Y-47317500D01*
X182637800Y-49513900D02*
X178401700Y-53750000D01*
X182637800Y-47317500D02*
X182637800Y-49513900D01*
%TO.N,index_top*%
X179962500Y-60790500D02*
X179963000Y-60790500D01*
X179962500Y-60790500D02*
X179963000Y-60791000D01*
X176000000Y-60791000D02*
X179962500Y-60790500D01*
X176691200Y-72542900D02*
X176898300Y-72750000D01*
X176684500Y-72542900D02*
X176691200Y-72542900D01*
X177650000Y-72750000D02*
X176898300Y-72750000D01*
X179963000Y-60791000D02*
X181842000Y-62670000D01*
X182589700Y-68562000D02*
X178401700Y-72750000D01*
X182589700Y-64969400D02*
X182589700Y-68562000D01*
X181842000Y-64221700D02*
X182589700Y-64969400D01*
X181842000Y-62670000D02*
X181842000Y-64221700D01*
X177650000Y-72750000D02*
X178401700Y-72750000D01*
%TO.N,index_home*%
X176000000Y-79791000D02*
X179963000Y-79790500D01*
X176898300Y-91258600D02*
X176898300Y-91750000D01*
X176677900Y-91038200D02*
X176898300Y-91258600D01*
X177650000Y-91750000D02*
X176898300Y-91750000D01*
X179977500Y-79805000D02*
X179963000Y-79790500D01*
X179977500Y-79805500D02*
X179977500Y-79805000D01*
X179963000Y-79791000D02*
X179977500Y-79805500D01*
X179977500Y-79805500D02*
X181842000Y-81670000D01*
X182589700Y-87562000D02*
X178401700Y-91750000D01*
X182589700Y-83969400D02*
X182589700Y-87562000D01*
X181842000Y-83221700D02*
X182589700Y-83969400D01*
X181842000Y-81670000D02*
X181842000Y-83221700D01*
X177650000Y-91750000D02*
X178401700Y-91750000D01*
%TO.N,index_bottom*%
X176000000Y-98791000D02*
X179963000Y-98790500D01*
X176892100Y-110756200D02*
X176898300Y-110750000D01*
X176662600Y-110756200D02*
X176892100Y-110756200D01*
X177650000Y-110750000D02*
X176898300Y-110750000D01*
X182622900Y-103002600D02*
X181842000Y-102221700D01*
X182622900Y-106528800D02*
X182622900Y-103002600D01*
X178401700Y-110750000D02*
X182622900Y-106528800D01*
X177650000Y-110750000D02*
X178401700Y-110750000D01*
X181842000Y-100670000D02*
X181842000Y-102221700D01*
X179977500Y-98805000D02*
X179963000Y-98790500D01*
X179977500Y-98805500D02*
X179977500Y-98805000D01*
X179963000Y-98791000D02*
X179977500Y-98805500D01*
X179977500Y-98805500D02*
X181842000Y-100670000D01*
%TO.N,P011*%
X198726400Y-129532600D02*
X198726400Y-129981300D01*
X198982500Y-129276500D02*
X198726400Y-129532600D01*
X198726000Y-129981000D02*
X198982500Y-129276500D01*
X174971000Y-41791000D02*
X176000000Y-42820000D01*
X171834000Y-41791000D02*
X174971000Y-41791000D01*
X168915000Y-44710000D02*
X171834000Y-41791000D01*
X168915000Y-46210000D02*
X168915000Y-44710000D01*
X168915000Y-63710000D02*
X170340000Y-62285000D01*
X168915000Y-65210000D02*
X168915000Y-63710000D01*
X174971000Y-60791000D02*
X176000000Y-61820000D01*
X171834000Y-60791000D02*
X174971000Y-60791000D01*
X170340000Y-62285000D02*
X171834000Y-60791000D01*
X168915000Y-60860000D02*
X170340000Y-62285000D01*
X168915000Y-46210000D02*
X168915000Y-60860000D01*
X168915000Y-95872000D02*
X171834000Y-98791000D01*
X168915000Y-84210000D02*
X168915000Y-95872000D01*
X168915000Y-101710000D02*
X171834000Y-98791000D01*
X168915000Y-103210000D02*
X168915000Y-101710000D01*
X174971000Y-98791000D02*
X176000000Y-99820000D01*
X171834000Y-98791000D02*
X174971000Y-98791000D01*
X223970000Y-71015000D02*
X224200000Y-70785000D01*
X168915000Y-82710000D02*
X170975000Y-80650000D01*
X168915000Y-84210000D02*
X168915000Y-82710000D01*
X174971000Y-79791000D02*
X176000000Y-80820000D01*
X171834000Y-79791000D02*
X174971000Y-79791000D01*
X170975000Y-80650000D02*
X171834000Y-79791000D01*
X168915000Y-78590000D02*
X168915000Y-65210000D01*
X170975000Y-80650000D02*
X168915000Y-78590000D01*
X199239000Y-128572000D02*
X202981000Y-126827000D01*
X198982500Y-129276500D02*
X199239000Y-128572000D01*
X205929000Y-127900000D02*
X206544000Y-129219000D01*
X202981000Y-126827000D02*
X205929000Y-127900000D01*
D35*
X218195000Y-71015000D02*
X223970000Y-71015000D01*
X217700000Y-71510000D02*
X218195000Y-71015000D01*
X217100000Y-71510000D02*
X217700000Y-71510000D01*
X216375000Y-70785000D02*
X217100000Y-71510000D01*
X216025000Y-70785000D02*
X216375000Y-70785000D01*
D36*
X216025000Y-70785000D02*
X216025000Y-71711700D01*
X203102200Y-97948200D02*
X202104000Y-96950000D01*
X203102200Y-100898200D02*
X203102200Y-97948200D01*
X202981000Y-101019400D02*
X203102200Y-100898200D01*
X202981000Y-101040800D02*
X202981000Y-101019400D01*
X203302400Y-101362200D02*
X202981000Y-101040800D01*
X203302400Y-105805500D02*
X203302400Y-101362200D01*
X202981000Y-106126900D02*
X203302400Y-105805500D01*
X202981000Y-126827000D02*
X202981000Y-106126900D01*
X215595500Y-72141200D02*
X216025000Y-71711700D01*
X212691300Y-72141200D02*
X215595500Y-72141200D01*
X210948200Y-73884300D02*
X212691300Y-72141200D01*
X210948200Y-83762900D02*
X210948200Y-73884300D01*
X202104000Y-92607100D02*
X210948200Y-83762900D01*
X202104000Y-96950000D02*
X202104000Y-92607100D01*
%TO.N,middle_num*%
X160963000Y-37041000D02*
X162842000Y-38920000D01*
X160962500Y-37040500D02*
X160963000Y-37040500D01*
X160962500Y-37040500D02*
X160963000Y-37041000D01*
X158650000Y-49931900D02*
X158650000Y-49000000D01*
X158475400Y-50106500D02*
X158650000Y-49931900D01*
X162842000Y-38920000D02*
X162842000Y-40471700D01*
X163612900Y-41242600D02*
X162842000Y-40471700D01*
X163612900Y-44788800D02*
X163612900Y-41242600D01*
X159401700Y-49000000D02*
X163612900Y-44788800D01*
X158650000Y-49000000D02*
X159401700Y-49000000D01*
X157000000Y-37041000D02*
X160962500Y-37040500D01*
%TO.N,middle_top*%
X157000000Y-56041000D02*
X160963000Y-56040500D01*
X160977500Y-56055000D02*
X160963000Y-56040500D01*
X160977500Y-56055500D02*
X160977500Y-56055000D01*
X160963000Y-56041000D02*
X160977500Y-56055500D01*
X159401700Y-67593100D02*
X159401700Y-68000000D01*
X159603800Y-67391000D02*
X159401700Y-67593100D01*
X158650000Y-68000000D02*
X159401700Y-68000000D01*
X160977500Y-56055500D02*
X162842000Y-57920000D01*
X159818300Y-67391000D02*
X159603800Y-67391000D01*
X163629100Y-63580200D02*
X159818300Y-67391000D01*
X163629100Y-60258800D02*
X163629100Y-63580200D01*
X162842000Y-59471700D02*
X163629100Y-60258800D01*
X162842000Y-57920000D02*
X162842000Y-59471700D01*
%TO.N,middle_home*%
X160963000Y-75041000D02*
X162842000Y-76920000D01*
X160962500Y-75040500D02*
X160963000Y-75040500D01*
X160962500Y-75040500D02*
X160963000Y-75041000D01*
X158650000Y-87000000D02*
X159401700Y-87000000D01*
X157000000Y-75041000D02*
X160962500Y-75040500D01*
X159503900Y-87102200D02*
X159627000Y-87102200D01*
X159401700Y-87000000D02*
X159503900Y-87102200D01*
X163597200Y-79226900D02*
X162842000Y-78471700D01*
X163597200Y-83132000D02*
X163597200Y-79226900D01*
X159627000Y-87102200D02*
X163597200Y-83132000D01*
X162842000Y-76920000D02*
X162842000Y-78471700D01*
%TO.N,middle_bottom*%
X160963000Y-94041000D02*
X162842000Y-95920000D01*
X160962500Y-94040500D02*
X160963000Y-94040500D01*
X160962500Y-94040500D02*
X160963000Y-94041000D01*
X158650000Y-106000000D02*
X159401700Y-106000000D01*
X159584000Y-105817700D02*
X159612100Y-105817700D01*
X159401700Y-106000000D02*
X159584000Y-105817700D01*
X163597200Y-98226900D02*
X162842000Y-97471700D01*
X163597200Y-101832600D02*
X163597200Y-98226900D01*
X159612100Y-105817700D02*
X163597200Y-101832600D01*
X162842000Y-95920000D02*
X162842000Y-97471700D01*
X157000000Y-94041000D02*
X160962500Y-94040500D01*
%TO.N,P100*%
X155971000Y-37041000D02*
X157000000Y-38070000D01*
X152834000Y-37041000D02*
X155971000Y-37041000D01*
X149915000Y-39960000D02*
X152834000Y-37041000D01*
X149915000Y-41460000D02*
X149915000Y-39960000D01*
D35*
X218195000Y-68475000D02*
X223970000Y-68475000D01*
X217700000Y-68970000D02*
X218195000Y-68475000D01*
X217100000Y-68970000D02*
X217700000Y-68970000D01*
X216375000Y-68245000D02*
X217100000Y-68970000D01*
X216025000Y-68245000D02*
X216375000Y-68245000D01*
D36*
X177112000Y-125558000D02*
X177112000Y-125558500D01*
X149915000Y-56110000D02*
X151340000Y-57535000D01*
X149915000Y-41460000D02*
X149915000Y-56110000D01*
X155971000Y-56041000D02*
X157000000Y-57070000D01*
X152834000Y-56041000D02*
X155971000Y-56041000D01*
X151340000Y-57535000D02*
X152834000Y-56041000D01*
X149915000Y-58960000D02*
X151340000Y-57535000D01*
X149915000Y-60460000D02*
X149915000Y-58960000D01*
X149915000Y-77960000D02*
X151340000Y-76535000D01*
X149915000Y-79460000D02*
X149915000Y-77960000D01*
X155971000Y-75041000D02*
X157000000Y-76070000D01*
X152834000Y-75041000D02*
X155971000Y-75041000D01*
X151340000Y-76535000D02*
X152834000Y-75041000D01*
X149915000Y-75110000D02*
X151340000Y-76535000D01*
X149915000Y-60460000D02*
X149915000Y-75110000D01*
X177372000Y-124081000D02*
X178901800Y-123009900D01*
X177112000Y-125558000D02*
X177372000Y-124081000D01*
X183843000Y-122258000D02*
X184678000Y-123450000D01*
X180754000Y-121713000D02*
X183843000Y-122258000D01*
X178901800Y-123009900D02*
X180754000Y-121713000D01*
X167338300Y-102746100D02*
X165139100Y-100546900D01*
X167338300Y-104585000D02*
X167338300Y-102746100D01*
X167339800Y-104586500D02*
X167338300Y-104585000D01*
X167339800Y-107792500D02*
X167339800Y-104586500D01*
X177720400Y-118173100D02*
X167339800Y-107792500D01*
X177720400Y-118245700D02*
X177720400Y-118173100D01*
X178901800Y-119427100D02*
X177720400Y-118245700D01*
X178901800Y-123009900D02*
X178901800Y-119427100D01*
X149915000Y-96960000D02*
X151975000Y-94900000D01*
X149915000Y-98460000D02*
X149915000Y-96960000D01*
X155971000Y-94041000D02*
X157000000Y-95070000D01*
X152834000Y-94041000D02*
X155971000Y-94041000D01*
X151975000Y-94900000D02*
X152834000Y-94041000D01*
X149915000Y-92840000D02*
X149915000Y-79460000D01*
X151975000Y-94900000D02*
X149915000Y-92840000D01*
X223970000Y-68475000D02*
X224200000Y-68245000D01*
%TO.N,ring_num*%
X138000000Y-41791000D02*
X141963000Y-41790500D01*
X141977500Y-41805000D02*
X141963000Y-41790500D01*
X141977500Y-41805500D02*
X141977500Y-41805000D01*
X141963000Y-41791000D02*
X141977500Y-41805500D01*
X141977500Y-41805500D02*
X143842000Y-43670000D01*
X144629900Y-49521800D02*
X140401700Y-53750000D01*
X144629900Y-46009600D02*
X144629900Y-49521800D01*
X143842000Y-45221700D02*
X144629900Y-46009600D01*
X143842000Y-43670000D02*
X143842000Y-45221700D01*
X139650000Y-53750000D02*
X140025900Y-53750000D01*
X140025900Y-53750000D02*
X140401700Y-53750000D01*
X140025900Y-53043400D02*
X139598400Y-52615900D01*
X140025900Y-53750000D02*
X140025900Y-53043400D01*
%TO.N,ring_top*%
X141963000Y-60791000D02*
X143842000Y-62670000D01*
X141962500Y-60790500D02*
X141963000Y-60790500D01*
X141962500Y-60790500D02*
X141963000Y-60791000D01*
X138898300Y-72847100D02*
X138321700Y-73423700D01*
X138898300Y-72750000D02*
X138898300Y-72847100D01*
X139650000Y-72750000D02*
X138898300Y-72750000D01*
X144638500Y-65018200D02*
X143842000Y-64221700D01*
X144638500Y-71184600D02*
X144638500Y-65018200D01*
X144317300Y-71505800D02*
X144638500Y-71184600D01*
X143842000Y-62670000D02*
X143842000Y-64221700D01*
X138000000Y-60791000D02*
X141962500Y-60790500D01*
%TO.N,ring_home*%
X138000000Y-79791000D02*
X141963000Y-79790500D01*
X141977500Y-79805000D02*
X141963000Y-79790500D01*
X141977500Y-79805500D02*
X141977500Y-79805000D01*
X141963000Y-79791000D02*
X141977500Y-79805500D01*
X141977500Y-79805500D02*
X143842000Y-81670000D01*
X138898300Y-91708900D02*
X138898300Y-91750000D01*
X138675000Y-91485600D02*
X138898300Y-91708900D01*
X139650000Y-91750000D02*
X138898300Y-91750000D01*
X144627100Y-87524600D02*
X140401700Y-91750000D01*
X144627100Y-84006800D02*
X144627100Y-87524600D01*
X143842000Y-83221700D02*
X144627100Y-84006800D01*
X143842000Y-81670000D02*
X143842000Y-83221700D01*
X139650000Y-91750000D02*
X140401700Y-91750000D01*
%TO.N,ring_bottom*%
X138000000Y-98791000D02*
X141963000Y-98790500D01*
X141977500Y-98805000D02*
X141963000Y-98790500D01*
X141977500Y-98805500D02*
X141977500Y-98805000D01*
X141963000Y-98791000D02*
X141977500Y-98805500D01*
X138898300Y-111152400D02*
X138246400Y-111804300D01*
X138898300Y-110750000D02*
X138898300Y-111152400D01*
X139650000Y-110750000D02*
X138898300Y-110750000D01*
X141977500Y-98805500D02*
X143842000Y-100670000D01*
X144637000Y-106514700D02*
X140401700Y-110750000D01*
X144637000Y-103016700D02*
X144637000Y-106514700D01*
X143842000Y-102221700D02*
X144637000Y-103016700D01*
X143842000Y-100670000D02*
X143842000Y-102221700D01*
X139650000Y-110750000D02*
X140401700Y-110750000D01*
D35*
%TO.N,P024*%
X218195000Y-65935000D02*
X223970000Y-65935000D01*
X217700000Y-66430000D02*
X218195000Y-65935000D01*
X217100000Y-66430000D02*
X217700000Y-66430000D01*
X216375000Y-65705000D02*
X217100000Y-66430000D01*
X216025000Y-65705000D02*
X216375000Y-65705000D01*
D36*
X130915000Y-101710000D02*
X132040300Y-100584700D01*
X130915000Y-103210000D02*
X130915000Y-101710000D01*
X136971000Y-98791000D02*
X138000000Y-99820000D01*
X133834000Y-98791000D02*
X136971000Y-98791000D01*
X132040300Y-100584700D02*
X133834000Y-98791000D01*
X130915000Y-99459400D02*
X130915000Y-84210000D01*
X132040300Y-100584700D02*
X130915000Y-99459400D01*
X224200000Y-65705000D02*
X223970000Y-65935000D01*
X136971000Y-41791000D02*
X138000000Y-42820000D01*
X133834000Y-41791000D02*
X136971000Y-41791000D01*
X130915000Y-44710000D02*
X133834000Y-41791000D01*
X130915000Y-46210000D02*
X130915000Y-44710000D01*
X133834000Y-57591700D02*
X133834000Y-60791000D01*
X130915000Y-54672700D02*
X133834000Y-57591700D01*
X130915000Y-46210000D02*
X130915000Y-54672700D01*
X130915000Y-63710000D02*
X133834000Y-60791000D01*
X130915000Y-65210000D02*
X130915000Y-63710000D01*
X136971000Y-60791000D02*
X138000000Y-61820000D01*
X133834000Y-60791000D02*
X136971000Y-60791000D01*
X130915000Y-82710000D02*
X132248300Y-81376700D01*
X130915000Y-84210000D02*
X130915000Y-82710000D01*
X136971000Y-79791000D02*
X138000000Y-80820000D01*
X133834000Y-79791000D02*
X136971000Y-79791000D01*
X132248300Y-81376700D02*
X133834000Y-79791000D01*
X130915000Y-80043400D02*
X130915000Y-65210000D01*
X132248300Y-81376700D02*
X130915000Y-80043400D01*
%TO.N,pinky_num*%
X119000000Y-56041000D02*
X122963000Y-56040500D01*
X119763800Y-68134500D02*
X119898300Y-68000000D01*
X119697100Y-68134500D02*
X119763800Y-68134500D01*
X120650000Y-68000000D02*
X119898300Y-68000000D01*
X122977500Y-56055000D02*
X122963000Y-56040500D01*
X122977500Y-56055500D02*
X122977500Y-56055000D01*
X122963000Y-56041000D02*
X122977500Y-56055500D01*
X122977500Y-56055500D02*
X124842000Y-57920000D01*
X125629100Y-63772600D02*
X121401700Y-68000000D01*
X125629100Y-60258800D02*
X125629100Y-63772600D01*
X124842000Y-59471700D02*
X125629100Y-60258800D01*
X124842000Y-57920000D02*
X124842000Y-59471700D01*
X120650000Y-68000000D02*
X121401700Y-68000000D01*
%TO.N,pinky_top*%
X122963000Y-75041000D02*
X124842000Y-76920000D01*
X122962500Y-75040500D02*
X122963000Y-75040500D01*
X122962500Y-75040500D02*
X122963000Y-75041000D01*
X119744700Y-87000000D02*
X119898300Y-87000000D01*
X119642500Y-87102200D02*
X119744700Y-87000000D01*
X120274200Y-87000000D02*
X119898300Y-87000000D01*
X120274200Y-87000000D02*
X120650000Y-87000000D01*
X125597200Y-79226900D02*
X124842000Y-78471700D01*
X125597200Y-82804500D02*
X125597200Y-79226900D01*
X121401700Y-87000000D02*
X125597200Y-82804500D01*
X120650000Y-87000000D02*
X121401700Y-87000000D01*
X124842000Y-76920000D02*
X124842000Y-78471700D01*
X119000000Y-75041000D02*
X122962500Y-75040500D01*
%TO.N,pinky_home*%
X119000000Y-94041000D02*
X122963000Y-94040500D01*
X122977500Y-94055000D02*
X122963000Y-94040500D01*
X122977500Y-94055500D02*
X122977500Y-94055000D01*
X122963000Y-94041000D02*
X122977500Y-94055500D01*
X122977500Y-94055500D02*
X124842000Y-95920000D01*
X119843200Y-106000000D02*
X119660900Y-105817700D01*
X120650000Y-106000000D02*
X119843200Y-106000000D01*
%TO.N,pinky_bottom*%
X119000000Y-113041000D02*
X122963000Y-113040000D01*
X122963000Y-113041000D02*
X124842000Y-114920000D01*
X122963000Y-113041000D02*
X122963000Y-113040000D01*
X120650000Y-126039300D02*
X120650000Y-125000000D01*
X120569300Y-126120000D02*
X120650000Y-126039300D01*
X124842000Y-114920000D02*
X124842000Y-116471700D01*
X125594300Y-117224000D02*
X124842000Y-116471700D01*
X125594300Y-120807400D02*
X125594300Y-117224000D01*
X121401700Y-125000000D02*
X125594300Y-120807400D01*
X120650000Y-125000000D02*
X121401700Y-125000000D01*
%TO.N,P022*%
X117971000Y-56041000D02*
X119000000Y-57070000D01*
X114834000Y-56041000D02*
X117971000Y-56041000D01*
X111915000Y-58960000D02*
X114834000Y-56041000D01*
X111915000Y-60460000D02*
X111915000Y-58960000D01*
D35*
X218195000Y-63395000D02*
X223970000Y-63395000D01*
X217700000Y-63890000D02*
X218195000Y-63395000D01*
X217100000Y-63890000D02*
X217700000Y-63890000D01*
X216375000Y-63165000D02*
X217100000Y-63890000D01*
X216025000Y-63165000D02*
X216375000Y-63165000D01*
D36*
X224200000Y-63165000D02*
X223970000Y-63395000D01*
X111915000Y-115960000D02*
X114499800Y-113375200D01*
X111915000Y-117460000D02*
X111915000Y-115960000D01*
X117971000Y-113041000D02*
X119000000Y-114070000D01*
X114834000Y-113041000D02*
X117971000Y-113041000D01*
X114499800Y-113375200D02*
X114834000Y-113041000D01*
X111915000Y-110790400D02*
X111915000Y-98460000D01*
X114499800Y-113375200D02*
X111915000Y-110790400D01*
X111915000Y-91122000D02*
X114834000Y-94041000D01*
X111915000Y-79460000D02*
X111915000Y-91122000D01*
X111915000Y-96960000D02*
X114834000Y-94041000D01*
X111915000Y-98460000D02*
X111915000Y-96960000D01*
X117971000Y-94041000D02*
X119000000Y-95070000D01*
X114834000Y-94041000D02*
X117971000Y-94041000D01*
X111915000Y-77960000D02*
X114499800Y-75375200D01*
X111915000Y-79460000D02*
X111915000Y-77960000D01*
X117971000Y-75041000D02*
X119000000Y-76070000D01*
X114834000Y-75041000D02*
X117971000Y-75041000D01*
X114499800Y-75375200D02*
X114834000Y-75041000D01*
X111915000Y-72790400D02*
X111915000Y-60460000D01*
X114499800Y-75375200D02*
X111915000Y-72790400D01*
%TO.N,outer_num*%
X100000000Y-56041000D02*
X103963000Y-56040500D01*
X103977500Y-56055000D02*
X103963000Y-56040500D01*
X103977500Y-56055500D02*
X103977500Y-56055000D01*
X103963000Y-56041000D02*
X103977500Y-56055500D01*
X102562300Y-68000000D02*
X103171300Y-67391000D01*
X101650000Y-68000000D02*
X102562300Y-68000000D01*
X103977500Y-56055500D02*
X105842000Y-57920000D01*
X106586200Y-63976100D02*
X103171300Y-67391000D01*
X106586200Y-60215900D02*
X106586200Y-63976100D01*
X105842000Y-59471700D02*
X106586200Y-60215900D01*
X105842000Y-57920000D02*
X105842000Y-59471700D01*
%TO.N,outer_top*%
X103963000Y-75041000D02*
X105842000Y-76920000D01*
X102401700Y-87312600D02*
X102618200Y-87529100D01*
X102401700Y-87000000D02*
X102401700Y-87312600D01*
X101650000Y-87000000D02*
X102401700Y-87000000D01*
X106635900Y-79265600D02*
X105842000Y-78471700D01*
X106635900Y-83511400D02*
X106635900Y-79265600D01*
X102618200Y-87529100D02*
X106635900Y-83511400D01*
X105842000Y-76920000D02*
X105842000Y-78471700D01*
X103962500Y-75040500D02*
X103963000Y-75040500D01*
X103962500Y-75040500D02*
X103963000Y-75041000D01*
X100000000Y-75041000D02*
X103962500Y-75040500D01*
%TO.N,outer_home*%
X100000000Y-94041000D02*
X103963000Y-94040500D01*
X103977500Y-94055000D02*
X103963000Y-94040500D01*
X103977500Y-94055500D02*
X103977500Y-94055000D01*
X103963000Y-94041000D02*
X103977500Y-94055500D01*
X103977500Y-94055500D02*
X105842000Y-95920000D01*
X102584000Y-105817700D02*
X102401700Y-106000000D01*
X102627300Y-105817700D02*
X102584000Y-105817700D01*
X101650000Y-106000000D02*
X102401700Y-106000000D01*
D35*
%TO.N,GND*%
X223395000Y-50245000D02*
X217620000Y-50245000D01*
X223900000Y-49740000D02*
X223395000Y-50245000D01*
X224500000Y-49740000D02*
X223900000Y-49740000D01*
X225225000Y-50465000D02*
X224500000Y-49740000D01*
X225575000Y-50465000D02*
X225225000Y-50465000D01*
X218195000Y-53235000D02*
X223970000Y-53235000D01*
X217700000Y-53730000D02*
X218195000Y-53235000D01*
X217100000Y-53730000D02*
X217700000Y-53730000D01*
X216375000Y-53005000D02*
X217100000Y-53730000D01*
X216025000Y-53005000D02*
X216375000Y-53005000D01*
D36*
X223932300Y-83311800D02*
X223608300Y-83635800D01*
X223932300Y-81675000D02*
X223932300Y-83311800D01*
X223970000Y-53235000D02*
X224200000Y-53005000D01*
X224484000Y-81675000D02*
X224208200Y-81675000D01*
X224208200Y-81675000D02*
X223932300Y-81675000D01*
X223970000Y-55775000D02*
X224200000Y-55545000D01*
X217620000Y-50245000D02*
X217400000Y-50465000D01*
D35*
X216025000Y-55545000D02*
X216200000Y-55545000D01*
X218195000Y-55775000D02*
X223970000Y-55775000D01*
X217700000Y-56270000D02*
X218195000Y-55775000D01*
X217100000Y-56270000D02*
X217700000Y-56270000D01*
X216375000Y-55545000D02*
X217100000Y-56270000D01*
X216200000Y-55545000D02*
X216375000Y-55545000D01*
D36*
X216025000Y-55370000D02*
X216025000Y-53005000D01*
X216200000Y-55545000D02*
X216025000Y-55370000D01*
X224284300Y-81675000D02*
X224208200Y-81675000D01*
X233800000Y-72159300D02*
X224284300Y-81675000D01*
X233800000Y-63250000D02*
X233800000Y-72159300D01*
X233800000Y-63250000D02*
X233800000Y-59388100D01*
X233800000Y-59388100D02*
X233800000Y-58000000D01*
%TO.N,outer_bottom*%
X100000000Y-113041000D02*
X103963000Y-113040000D01*
X103963000Y-113041000D02*
X105842000Y-114920000D01*
X101650000Y-125000000D02*
X100898300Y-125000000D01*
X100898300Y-124039700D02*
X100208600Y-123350000D01*
X100898300Y-125000000D02*
X100898300Y-124039700D01*
X103963000Y-113041000D02*
X103963000Y-113040000D01*
D35*
%TO.N,P008*%
X218195000Y-50695000D02*
X223970000Y-50695000D01*
X217700000Y-51190000D02*
X218195000Y-50695000D01*
X217100000Y-51190000D02*
X217700000Y-51190000D01*
X216375000Y-50465000D02*
X217100000Y-51190000D01*
X216025000Y-50465000D02*
X216375000Y-50465000D01*
D36*
X92915000Y-113110000D02*
X94340000Y-114535000D01*
X92915000Y-98460000D02*
X92915000Y-113110000D01*
X92915000Y-115960000D02*
X94340000Y-114535000D01*
X92915000Y-117460000D02*
X92915000Y-115960000D01*
X98971000Y-113041000D02*
X100000000Y-114070000D01*
X95834000Y-113041000D02*
X98971000Y-113041000D01*
X94340000Y-114535000D02*
X95834000Y-113041000D01*
X223970000Y-50695000D02*
X224200000Y-50465000D01*
X98971000Y-56041000D02*
X100000000Y-57070000D01*
X95834000Y-56041000D02*
X98971000Y-56041000D01*
X92915000Y-58960000D02*
X95834000Y-56041000D01*
X92915000Y-60460000D02*
X92915000Y-58960000D01*
X92915000Y-72122000D02*
X95834000Y-75041000D01*
X92915000Y-60460000D02*
X92915000Y-72122000D01*
X98971000Y-75041000D02*
X100000000Y-76070000D01*
X95834000Y-75041000D02*
X98971000Y-75041000D01*
X92915000Y-77960000D02*
X95834000Y-75041000D01*
X92915000Y-79460000D02*
X92915000Y-77960000D01*
X92915000Y-91122000D02*
X95834000Y-94041000D01*
X92915000Y-79460000D02*
X92915000Y-91122000D01*
X92915000Y-96960000D02*
X95834000Y-94041000D01*
X92915000Y-98460000D02*
X92915000Y-96960000D01*
X98971000Y-94041000D02*
X100000000Y-95070000D01*
X95834000Y-94041000D02*
X98971000Y-94041000D01*
%TD*%
M02*
