M48
; DRILL file {KiCad 9.0.8-1.fc43} date 2026-04-14T18:29:25-0700
; FORMAT={-:-/ absolute / metric / decimal}
; #@! TF.CreationDate,2026-04-14T18:29:25-07:00
; #@! TF.GenerationSoftware,Kicad,Pcbnew,9.0.8-1.fc43
; #@! TF.FileFunction,NonPlated,1,2,NPTH
FMAT,2
METRIC
; #@! TA.AperFunction,NonPlated,NPTH,ComponentDrill
T1C0.900
; #@! TA.AperFunction,NonPlated,NPTH,ComponentDrill
T2C1.900
; #@! TA.AperFunction,NonPlated,NPTH,ComponentDrill
T3C2.200
; #@! TA.AperFunction,NonPlated,NPTH,ComponentDrill
T4C3.000
; #@! TA.AperFunction,NonPlated,NPTH,ComponentDrill
T5C4.100
%
G90
G05
T1
X232.975Y-81.7
X232.975Y-84.7
T2
X94.92Y-63.0
X94.92Y-82.0
X94.92Y-101.0
X94.92Y-120.0
X105.08Y-63.0
X105.08Y-82.0
X105.08Y-101.0
X105.08Y-120.0
X113.92Y-63.0
X113.92Y-82.0
X113.92Y-101.0
X113.92Y-120.0
X124.08Y-63.0
X124.08Y-82.0
X124.08Y-101.0
X124.08Y-120.0
X132.92Y-48.75
X132.92Y-67.75
X132.92Y-86.75
X132.92Y-105.75
X143.08Y-48.75
X143.08Y-67.75
X143.08Y-86.75
X143.08Y-105.75
X151.92Y-44.0
X151.92Y-63.0
X151.92Y-82.0
X151.92Y-101.0
X162.08Y-44.0
X162.08Y-63.0
X162.08Y-82.0
X162.08Y-101.0
X170.92Y-48.75
X170.92Y-67.75
X170.92Y-86.75
X170.92Y-105.75
X178.645Y-128.408
X181.08Y-48.75
X181.08Y-67.75
X181.08Y-86.75
X181.08Y-105.75
X188.651Y-130.172
X189.92Y-51.125
X189.92Y-70.125
X189.92Y-89.125
X189.92Y-108.125
X199.742Y-133.054
X200.08Y-51.125
X200.08Y-70.125
X200.08Y-89.125
X200.08Y-108.125
X209.289Y-136.529
X219.711Y-141.292
X228.51Y-146.372
T3
X128.5Y-110.5
X129.5Y-58.25
X181.7Y-117.15
X185.12Y-59.625
X215.737Y-135.534
T4
X96.19Y-60.46
X96.19Y-79.46
X96.19Y-98.46
X96.19Y-117.46
X97.46Y-57.92
X97.46Y-76.92
X97.46Y-95.92
X97.46Y-114.92
X102.54Y-57.92
X102.54Y-76.92
X102.54Y-95.92
X102.54Y-114.92
X103.81Y-60.46
X103.81Y-79.46
X103.81Y-98.46
X103.81Y-117.46
X115.19Y-60.46
X115.19Y-79.46
X115.19Y-98.46
X115.19Y-117.46
X116.46Y-57.92
X116.46Y-76.92
X116.46Y-95.92
X116.46Y-114.92
X121.54Y-57.92
X121.54Y-76.92
X121.54Y-95.92
X121.54Y-114.92
X122.81Y-60.46
X122.81Y-79.46
X122.81Y-98.46
X122.81Y-117.46
X134.19Y-46.21
X134.19Y-65.21
X134.19Y-84.21
X134.19Y-103.21
X135.46Y-43.67
X135.46Y-62.67
X135.46Y-81.67
X135.46Y-100.67
X140.54Y-43.67
X140.54Y-62.67
X140.54Y-81.67
X140.54Y-100.67
X141.81Y-46.21
X141.81Y-65.21
X141.81Y-84.21
X141.81Y-103.21
X153.19Y-41.46
X153.19Y-60.46
X153.19Y-79.46
X153.19Y-98.46
X154.46Y-38.92
X154.46Y-57.92
X154.46Y-76.92
X154.46Y-95.92
X159.54Y-38.92
X159.54Y-57.92
X159.54Y-76.92
X159.54Y-95.92
X160.81Y-41.46
X160.81Y-60.46
X160.81Y-79.46
X160.81Y-98.46
X172.19Y-46.21
X172.19Y-65.21
X172.19Y-84.21
X172.19Y-103.21
X173.46Y-43.67
X173.46Y-62.67
X173.46Y-81.67
X173.46Y-100.67
X178.54Y-43.67
X178.54Y-62.67
X178.54Y-81.67
X178.54Y-100.67
X179.81Y-46.21
X179.81Y-65.21
X179.81Y-84.21
X179.81Y-103.21
X180.337Y-126.127
X182.029Y-123.846
X187.032Y-124.728
X187.841Y-127.45
X191.19Y-48.585
X191.19Y-67.585
X191.19Y-86.585
X191.19Y-105.585
X192.46Y-46.045
X192.46Y-65.045
X192.46Y-84.045
X192.46Y-103.045
X197.54Y-46.045
X197.54Y-65.045
X197.54Y-84.045
X197.54Y-103.045
X198.81Y-48.585
X198.81Y-67.585
X198.81Y-86.585
X198.81Y-105.585
X201.804Y-131.101
X203.866Y-129.149
X208.64Y-130.886
X208.964Y-133.708
X222.081Y-139.728
X224.45Y-138.163
X228.68Y-143.538
X228.85Y-140.703
T5
X100.0Y-63.0
X100.0Y-82.0
X100.0Y-101.0
X100.0Y-120.0
X119.0Y-63.0
X119.0Y-82.0
X119.0Y-101.0
X119.0Y-120.0
X138.0Y-48.75
X138.0Y-67.75
X138.0Y-86.75
X138.0Y-105.75
X157.0Y-44.0
X157.0Y-63.0
X157.0Y-82.0
X157.0Y-101.0
X176.0Y-48.75
X176.0Y-67.75
X176.0Y-86.75
X176.0Y-105.75
X183.648Y-129.29
X195.0Y-51.125
X195.0Y-70.125
X195.0Y-89.125
X195.0Y-108.125
X204.515Y-134.791
X224.11Y-143.832
M30
